<svg width="20" height="20" viewBox="0 0 20 20" fill="none" xmlns="http://www.w3.org/2000/svg">
<path d="M3.4375 15.9375C4.64562 15.9375 5.625 14.9581 5.625 13.75C5.625 12.5419 4.64562 11.5625 3.4375 11.5625C2.22938 11.5625 1.25 12.5419 1.25 13.75C1.25 14.9581 2.22938 15.9375 3.4375 15.9375Z" stroke="#212429" stroke-width="1.6" stroke-linecap="round" stroke-linejoin="round"/>
<path d="M15.625 3.125L18.75 6.25L15.625 9.375" stroke="#212429" stroke-width="1.6" stroke-linecap="round" stroke-linejoin="round"/>
<path d="M5.625 13.75H6.25C7.24456 13.75 8.19839 13.3549 8.90165 12.6517C9.60491 11.9484 10 10.9946 10 10C10 9.00544 10.3951 8.05161 11.0983 7.34835C11.8016 6.64509 12.7554 6.25 13.75 6.25H18.75" stroke="#212429" stroke-width="1.6" stroke-linecap="round" stroke-linejoin="round"/>
</svg>
