<svg width="28" height="28" viewBox="0 0 28 28" fill="none" xmlns="http://www.w3.org/2000/svg">
<path d="M5.76956 17.4941C5.27344 16.6326 5.13933 15.6094 5.39665 14.649C5.65397 13.6887 6.28171 12.8696 7.14216 12.3716L9.84736 10.8097C9.88237 10.7893 13.3644 8.71693 15.0864 3.98921C15.1676 3.76554 15.311 3.56971 15.4998 3.42474C15.6885 3.27977 15.9146 3.19168 16.1517 3.17082C16.3887 3.14997 16.6268 3.19721 16.8379 3.30701C17.0491 3.41681 17.2244 3.58459 17.3435 3.79063L23.4241 14.3226C23.5444 14.528 23.6029 14.7638 23.5925 15.0017C23.5822 15.2395 23.5034 15.4693 23.3657 15.6636C23.2607 15.8145 23.1238 15.9405 22.9648 16.0327C22.7104 16.1789 22.4124 16.2304 22.1237 16.178C18.32 15.5082 15.353 16.5187 14.1638 17.0334L15.535 19.4084C15.6381 19.5865 15.6956 19.7874 15.7022 19.9931C15.7088 20.1988 15.6645 20.403 15.573 20.5874L15.1156 21.5127C15.0268 21.6922 14.8961 21.8478 14.7346 21.9663C14.5731 22.0848 14.3855 22.1628 14.1876 22.1936C13.9897 22.2245 13.7873 22.2073 13.5974 22.1436C13.4075 22.0799 13.2357 21.9715 13.0965 21.8275L10.4453 19.0856C9.60527 19.4306 8.66865 19.4595 7.80895 19.1669C6.94925 18.8743 6.22472 18.28 5.76956 17.4941ZM13.9951 20.9586L14.4525 20.0334L13.0572 17.6167L11.5854 18.4665L13.9951 20.9586ZM10.2672 17.7842L12.4322 16.5342L9.93222 12.2041L7.76716 13.4541C7.19295 13.7856 6.77395 14.3317 6.60234 14.9721C6.43074 15.6126 6.52057 16.2949 6.85209 16.8691C7.18362 17.4434 7.72966 17.8624 8.37011 18.034C9.01056 18.2056 9.69295 18.1157 10.2672 17.7842Z" fill="white"/>
</svg>
