<svg width="32" height="32" viewBox="0 0 32 32" fill="none" xmlns="http://www.w3.org/2000/svg">
<path d="M18.25 11.5V23.0986C18.25 23.2221 18.2805 23.3436 18.3387 23.4525C18.397 23.5614 18.4812 23.6542 18.584 23.7226L19.6145 24.4097C19.7145 24.4763 19.829 24.518 19.9485 24.5311C20.068 24.5443 20.1889 24.5285 20.301 24.4852C20.4131 24.4418 20.5131 24.3722 20.5927 24.2821C20.6722 24.192 20.729 24.0841 20.7581 23.9675L22 19" stroke="#2F363D" stroke-width="1.5" stroke-linecap="round" stroke-linejoin="round"/>
<path d="M22 19C22.9946 19 23.9484 18.6049 24.6517 17.9017C25.3549 17.1984 25.75 16.2446 25.75 15.25C25.75 14.2554 25.3549 13.3016 24.6517 12.5983C23.9484 11.8951 22.9946 11.5 22 11.5H18.25C18.25 11.5 13.1452 11.5 8.23271 7.37991C8.12346 7.28795 7.99022 7.22911 7.84866 7.21029C7.70711 7.19147 7.56312 7.21347 7.43364 7.27369C7.30416 7.3339 7.19456 7.42984 7.11774 7.55022C7.04092 7.6706 7.00007 7.81041 7 7.95321V22.5468C7.00007 22.6896 7.04092 22.8294 7.11774 22.9498C7.19456 23.0702 7.30416 23.1661 7.43364 23.2263C7.56312 23.2865 7.70711 23.3085 7.84866 23.2897C7.99022 23.2709 8.12346 23.212 8.23271 23.1201C13.1452 19 18.25 19 18.25 19H22Z" stroke="#2F363D" stroke-width="1.5" stroke-linecap="round" stroke-linejoin="round"/>
</svg>
