<svg width="20" height="20" viewBox="0 0 20 20" fill="none" xmlns="http://www.w3.org/2000/svg">
<path d="M16.875 5.625H4.375C4.20924 5.625 4.05027 5.55915 3.93306 5.44194C3.81585 5.32473 3.75 5.16576 3.75 5C3.75 4.83424 3.81585 4.67527 3.93306 4.55806C4.05027 4.44085 4.20924 4.375 4.375 4.375H15C15.1658 4.375 15.3247 4.30915 15.4419 4.19194C15.5592 4.07473 15.625 3.91576 15.625 3.75C15.625 3.58424 15.5592 3.42527 15.4419 3.30806C15.3247 3.19085 15.1658 3.125 15 3.125H4.375C3.87789 3.12557 3.40131 3.3233 3.0498 3.6748C2.6983 4.02631 2.50057 4.50289 2.5 5V15C2.50057 15.4971 2.6983 15.9737 3.0498 16.3252C3.40131 16.6767 3.87789 16.8744 4.375 16.875H16.875C17.2064 16.8746 17.5241 16.7428 17.7585 16.5085C17.9928 16.2741 18.1246 15.9564 18.125 15.625V6.875C18.1246 6.5436 17.9928 6.22587 17.7585 5.99154C17.5241 5.7572 17.2064 5.62538 16.875 5.625Z" fill="white"/>
<path d="M10.498 8.99905V13.999" stroke="#26B65E" stroke-linecap="round"/>
<path d="M12.998 11.499L7.99805 11.499" stroke="#26B65E" stroke-linecap="round"/>
</svg>
