<svg width="24" height="25" viewBox="0 0 24 25" fill="none" xmlns="http://www.w3.org/2000/svg">
<path d="M9.00006 21.375H15.0001" stroke="white" stroke-width="1.5" stroke-linecap="round" stroke-linejoin="round"/>
<path d="M5.2691 10.125C5.26786 9.23551 5.44268 8.35457 5.78349 7.53296C6.1243 6.71135 6.62436 5.96531 7.25484 5.33786C7.88531 4.71041 8.63374 4.21395 9.45699 3.8771C10.2802 3.54025 11.162 3.36967 12.0515 3.37519C15.763 3.40278 18.7318 6.48782 18.7318 10.2097V10.875C18.7318 14.2327 19.4343 16.1812 20.053 17.2461C20.1196 17.3599 20.1551 17.4892 20.1558 17.6211C20.1565 17.753 20.1224 17.8827 20.057 17.9972C19.9916 18.1117 19.8971 18.2069 19.7831 18.2732C19.6692 18.3396 19.5397 18.3747 19.4078 18.375H4.59228C4.4604 18.3747 4.33093 18.3395 4.21695 18.2732C4.10297 18.2068 4.0085 18.1116 3.94307 17.9971C3.87765 17.8826 3.84358 17.7528 3.84431 17.6209C3.84504 17.4891 3.88054 17.3597 3.94722 17.2459C4.56628 16.181 5.2691 14.2325 5.2691 10.875L5.2691 10.125Z" stroke="white" stroke-width="1.5" stroke-linecap="round" stroke-linejoin="round"/>
</svg>
