<svg width="16" height="16" viewBox="0 0 16 16" fill="none" xmlns="http://www.w3.org/2000/svg">
<path d="M7.64643 11.3535L2.64643 6.35355C2.57651 6.28362 2.52889 6.19452 2.5096 6.09753C2.49032 6.00054 2.50022 5.90001 2.53807 5.80865C2.57591 5.71729 2.64 5.6392 2.72222 5.58426C2.80445 5.52932 2.90112 5.5 3.00001 5.5L13 5.5C13.0989 5.5 13.1956 5.52933 13.2778 5.58427C13.36 5.63921 13.4241 5.71729 13.4619 5.80865C13.4998 5.90001 13.5097 6.00054 13.4904 6.09753C13.4711 6.19452 13.4235 6.28362 13.3536 6.35355L8.35358 11.3535C8.30715 11.4 8.25203 11.4368 8.19136 11.4619C8.1307 11.4871 8.06567 11.5 8.00001 11.5C7.93434 11.5 7.86932 11.4871 7.80865 11.4619C7.74799 11.4368 7.69286 11.4 7.64643 11.3535Z" fill="white"/>
</svg>
