<svg width="106" height="40" viewBox="0 0 106 40" fill="none" xmlns="http://www.w3.org/2000/svg">
<rect x="6.10352e-05" width="106" height="40" rx="20" fill="#2F363D"/>
<path d="M21.3761 24.682C20.7134 24.682 20.0904 24.5513 19.5071 24.29C18.9237 24.024 18.4104 23.6577 17.9671 23.191C17.5284 22.7243 17.1831 22.1853 16.9311 21.574C16.6837 20.958 16.5601 20.3 16.5601 19.6C16.5601 18.8953 16.6837 18.2373 16.9311 17.626C17.1831 17.01 17.5284 16.471 17.9671 16.009C18.4104 15.5423 18.9237 15.1783 19.5071 14.917C20.0904 14.651 20.7134 14.518 21.3761 14.518C22.1694 14.518 22.8997 14.7023 23.5671 15.071C24.2344 15.435 24.7874 15.9227 25.2261 16.534L23.7001 17.353C23.4247 17.0123 23.0817 16.7393 22.6711 16.534C22.2651 16.3287 21.8334 16.226 21.3761 16.226C20.9467 16.226 20.5431 16.3147 20.1651 16.492C19.7871 16.6647 19.4557 16.9073 19.1711 17.22C18.8864 17.528 18.6647 17.8873 18.5061 18.298C18.3474 18.704 18.2681 19.138 18.2681 19.6C18.2681 20.0667 18.3474 20.503 18.5061 20.909C18.6694 21.315 18.8934 21.6743 19.1781 21.987C19.4627 22.295 19.7917 22.5377 20.1651 22.715C20.5431 22.8877 20.9467 22.974 21.3761 22.974C21.8427 22.974 22.2767 22.8713 22.6781 22.666C23.0841 22.456 23.4247 22.1807 23.7001 21.84L25.2261 22.666C24.7874 23.2727 24.2344 23.7603 23.5671 24.129C22.8997 24.4977 22.1694 24.682 21.3761 24.682ZM31.7496 17.5H33.4576V24.5H31.7496L31.6726 23.632C31.4813 23.9447 31.227 24.199 30.9096 24.395C30.597 24.5863 30.226 24.682 29.7966 24.682C29.2786 24.682 28.7933 24.584 28.3406 24.388C27.888 24.192 27.489 23.9213 27.1436 23.576C26.803 23.2307 26.5346 22.8317 26.3386 22.379C26.1473 21.9263 26.0516 21.441 26.0516 20.923C26.0516 20.4237 26.1426 19.9547 26.3246 19.516C26.5113 19.0773 26.7703 18.6923 27.1016 18.361C27.433 18.0297 27.8156 17.7707 28.2496 17.584C28.6836 17.3973 29.1503 17.304 29.6496 17.304C30.1116 17.304 30.5246 17.4067 30.8886 17.612C31.2573 17.8173 31.57 18.0787 31.8266 18.396L31.7496 17.5ZM29.7546 23.037C30.1186 23.037 30.4406 22.946 30.7206 22.764C31.0006 22.582 31.22 22.337 31.3786 22.029C31.5373 21.7163 31.6166 21.3733 31.6166 21C31.6166 20.622 31.5373 20.279 31.3786 19.971C31.22 19.6583 30.9983 19.411 30.7136 19.229C30.4336 19.047 30.114 18.956 29.7546 18.956C29.3953 18.956 29.0663 19.0493 28.7676 19.236C28.4736 19.418 28.238 19.663 28.0606 19.971C27.888 20.279 27.8016 20.622 27.8016 21C27.8016 21.378 27.8903 21.721 28.0676 22.029C28.245 22.337 28.4806 22.582 28.7746 22.764C29.0733 22.946 29.4 23.037 29.7546 23.037ZM37.1975 24.626C36.8335 24.6027 36.4811 24.5303 36.1405 24.409C35.8045 24.283 35.5058 24.1127 35.2445 23.898C34.9831 23.6833 34.7825 23.4267 34.6425 23.128L36.0845 22.512C36.1405 22.6053 36.2315 22.7057 36.3575 22.813C36.4835 22.9157 36.6328 23.002 36.8055 23.072C36.9828 23.142 37.1765 23.177 37.3865 23.177C37.5638 23.177 37.7318 23.1537 37.8905 23.107C38.0538 23.0557 38.1845 22.9787 38.2825 22.876C38.3851 22.7733 38.4365 22.6403 38.4365 22.477C38.4365 22.3043 38.3758 22.1713 38.2545 22.078C38.1378 21.98 37.9885 21.9077 37.8065 21.861C37.6291 21.8097 37.4565 21.763 37.2885 21.721C36.8451 21.6323 36.4321 21.4947 36.0495 21.308C35.6715 21.1213 35.3658 20.881 35.1325 20.587C34.9038 20.2883 34.7895 19.929 34.7895 19.509C34.7895 19.047 34.9108 18.648 35.1535 18.312C35.4008 17.976 35.7205 17.717 36.1125 17.535C36.5091 17.353 36.9361 17.262 37.3935 17.262C37.9488 17.262 38.4575 17.3787 38.9195 17.612C39.3861 17.8407 39.7548 18.165 40.0255 18.585L38.6745 19.383C38.6091 19.271 38.5181 19.1683 38.4015 19.075C38.2848 18.977 38.1518 18.8977 38.0025 18.837C37.8531 18.7717 37.6968 18.7343 37.5335 18.725C37.3235 18.7157 37.1321 18.7343 36.9595 18.781C36.7868 18.8277 36.6468 18.907 36.5395 19.019C36.4368 19.131 36.3855 19.2803 36.3855 19.467C36.3855 19.6443 36.4555 19.7773 36.5955 19.866C36.7355 19.95 36.9035 20.0153 37.0995 20.062C37.3001 20.1087 37.4915 20.16 37.6735 20.216C38.0841 20.3513 38.4691 20.517 38.8285 20.713C39.1925 20.909 39.4841 21.1493 39.7035 21.434C39.9228 21.7187 40.0278 22.0593 40.0185 22.456C40.0185 22.9087 39.8831 23.3053 39.6125 23.646C39.3418 23.982 38.9918 24.2387 38.5625 24.416C38.1378 24.5933 37.6828 24.6633 37.1975 24.626ZM47.9085 20.076V24.5H46.2005V20.524C46.2005 20.2487 46.1328 19.999 45.9975 19.775C45.8621 19.5463 45.6801 19.3667 45.4515 19.236C45.2275 19.1007 44.9778 19.033 44.7025 19.033C44.4271 19.033 44.1751 19.1007 43.9465 19.236C43.7225 19.3667 43.5428 19.5463 43.4075 19.775C43.2768 19.999 43.2115 20.2487 43.2115 20.524V24.5H41.5035L41.4965 14H43.2045L43.2115 18.123C43.4495 17.871 43.7341 17.6727 44.0655 17.528C44.3968 17.3787 44.7538 17.304 45.1365 17.304C45.6451 17.304 46.1095 17.43 46.5295 17.682C46.9495 17.9293 47.2831 18.263 47.5305 18.683C47.7825 19.0983 47.9085 19.5627 47.9085 20.076ZM49.5831 17.5H51.2911V24.5H49.5831V17.5ZM50.4511 16.597C50.1991 16.597 49.9868 16.5153 49.8141 16.352C49.6414 16.184 49.5551 15.974 49.5551 15.722C49.5551 15.4747 49.6414 15.267 49.8141 15.099C49.9868 14.931 50.1968 14.847 50.4441 14.847C50.6914 14.847 50.8991 14.931 51.0671 15.099C51.2398 15.267 51.3261 15.4747 51.3261 15.722C51.3261 15.974 51.2421 16.184 51.0741 16.352C50.9061 16.5153 50.6984 16.597 50.4511 16.597ZM56.1697 24.682C55.5257 24.682 54.9377 24.5163 54.4057 24.185C53.8783 23.8537 53.456 23.408 53.1387 22.848C52.826 22.288 52.6697 21.6697 52.6697 20.993C52.6697 20.4843 52.7607 20.0083 52.9427 19.565C53.1247 19.117 53.3743 18.725 53.6917 18.389C54.0137 18.0483 54.387 17.7823 54.8117 17.591C55.2363 17.3997 55.689 17.304 56.1697 17.304C56.7157 17.304 57.215 17.4207 57.6677 17.654C58.125 17.8827 58.5123 18.1977 58.8297 18.599C59.147 19.0003 59.378 19.4577 59.5227 19.971C59.6673 20.4843 59.7 21.021 59.6207 21.581H54.5037C54.569 21.8423 54.6763 22.078 54.8257 22.288C54.975 22.4933 55.164 22.659 55.3927 22.785C55.6213 22.9063 55.8803 22.9693 56.1697 22.974C56.4683 22.9787 56.739 22.9087 56.9817 22.764C57.229 22.6147 57.4343 22.414 57.5977 22.162L59.3407 22.568C59.056 23.1887 58.6313 23.6973 58.0667 24.094C57.502 24.486 56.8697 24.682 56.1697 24.682ZM54.4477 20.3H57.8917C57.8403 20.02 57.7307 19.768 57.5627 19.544C57.3993 19.3153 57.1963 19.1333 56.9537 18.998C56.711 18.8627 56.4497 18.795 56.1697 18.795C55.8897 18.795 55.6307 18.8627 55.3927 18.998C55.1547 19.1287 54.9517 19.3083 54.7837 19.537C54.6203 19.761 54.5083 20.0153 54.4477 20.3ZM61.0466 24.5L61.0396 17.5H62.7476L62.7546 18.123C62.9926 17.871 63.2773 17.6727 63.6086 17.528C63.9399 17.3787 64.2969 17.304 64.6796 17.304C64.9363 17.304 65.1929 17.3413 65.4496 17.416L64.7776 19.138C64.6003 19.068 64.4229 19.033 64.2456 19.033C63.9703 19.033 63.7183 19.1007 63.4896 19.236C63.2656 19.3667 63.0859 19.5463 62.9506 19.775C62.8199 19.999 62.7546 20.2487 62.7546 20.524V24.5H61.0466Z" fill="white"/>
<path d="M73.1251 15V25C73.1251 25.3315 73.2568 25.6495 73.4912 25.8839C73.7256 26.1183 74.0435 26.25 74.3751 26.25H86.8751C87.0408 26.25 87.1998 26.1842 87.317 26.0669C87.4342 25.9497 87.5001 25.7908 87.5001 25.625V16.875C87.5001 16.7092 87.4342 16.5503 87.317 16.4331C87.1998 16.3158 87.0408 16.25 86.8751 16.25H74.3751C74.0435 16.25 73.7256 16.1183 73.4912 15.8839C73.2568 15.6495 73.1251 15.3315 73.1251 15ZM73.1251 15C73.1251 14.6685 73.2568 14.3505 73.4912 14.1161C73.7256 13.8817 74.0435 13.75 74.3751 13.75H85.0001" stroke="white" stroke-width="0.9375" stroke-linecap="round" stroke-linejoin="round"/>
<path d="M84.0626 22.1875C84.5803 22.1875 85.0001 21.7678 85.0001 21.25C85.0001 20.7322 84.5803 20.3125 84.0626 20.3125C83.5448 20.3125 83.1251 20.7322 83.1251 21.25C83.1251 21.7678 83.5448 22.1875 84.0626 22.1875Z" stroke="white" stroke-width="0.9375" stroke-linecap="round" stroke-linejoin="round"/>
</svg>
