<svg width="24" height="24" viewBox="0 0 24 24" fill="none" xmlns="http://www.w3.org/2000/svg">
<path d="M12.75 7.49999V11.567L16.2721 13.6005C16.3574 13.6497 16.4322 13.7153 16.4922 13.7934C16.5521 13.8716 16.5961 13.9607 16.6216 14.0559C16.6471 14.151 16.6536 14.2502 16.6407 14.3479C16.6279 14.4455 16.5959 14.5397 16.5467 14.625C16.4974 14.7103 16.4319 14.7851 16.3537 14.845C16.2756 14.905 16.1864 14.9489 16.0913 14.9744C15.9961 14.9999 15.8969 15.0064 15.7992 14.9936C15.7016 14.9807 15.6074 14.9488 15.5221 14.8995L11.625 12.6495C11.619 12.6461 11.6137 12.642 11.6078 12.6384C11.5951 12.6305 11.5824 12.6226 11.5702 12.6141C11.5605 12.6073 11.5513 12.6001 11.542 12.593C11.5324 12.5856 11.5229 12.5782 11.5137 12.5703C11.5033 12.5615 11.4933 12.5522 11.4835 12.5428C11.4761 12.5358 11.4687 12.5287 11.4615 12.5214C11.4515 12.511 11.442 12.5004 11.4327 12.4896C11.4262 12.4821 11.4198 12.4745 11.4135 12.4667C11.4049 12.4559 11.3967 12.4448 11.3888 12.4336C11.3824 12.4247 11.3763 12.4158 11.3704 12.4066C11.3636 12.3961 11.3572 12.3855 11.351 12.3747C11.3448 12.3639 11.3388 12.3531 11.3331 12.3421C11.3281 12.3323 11.3234 12.3224 11.3189 12.3125C11.3131 12.3 11.3077 12.2875 11.3026 12.2746C11.299 12.2653 11.2956 12.2558 11.2923 12.2463C11.2876 12.233 11.2832 12.2195 11.2793 12.2058C11.2765 12.1958 11.274 12.1857 11.2715 12.1756C11.2684 12.1625 11.2654 12.1495 11.263 12.1361C11.2607 12.1241 11.2591 12.112 11.2574 12.0998C11.2559 12.0884 11.2543 12.077 11.2533 12.0653C11.252 12.0503 11.2515 12.0353 11.251 12.0202C11.2508 12.0134 11.25 12.0068 11.25 12V7.49999C11.25 7.30108 11.329 7.11031 11.4697 6.96966C11.6103 6.82901 11.8011 6.74999 12 6.74999C12.1989 6.74999 12.3897 6.82901 12.5303 6.96966C12.671 7.11031 12.75 7.30108 12.75 7.49999ZM18.3639 5.63602C16.6748 3.95068 14.3861 3.00418 12 3.00418C9.61387 3.00418 7.32518 3.95068 5.63605 5.63602L4.85936 6.41269L3.51472 5.06803C3.40984 4.96314 3.2762 4.89171 3.13072 4.86276C2.98523 4.83382 2.83443 4.84867 2.69739 4.90544C2.56034 4.9622 2.44321 5.05833 2.3608 5.18167C2.27839 5.30501 2.2344 5.45001 2.23441 5.59835V9.34835C2.2344 9.44684 2.2538 9.54437 2.29149 9.63537C2.32918 9.72636 2.38442 9.80904 2.45407 9.87869C2.52371 9.94833 2.60639 10.0036 2.69739 10.0413C2.78839 10.079 2.88591 10.0984 2.98441 10.0984H6.73441C6.88274 10.0984 7.02775 10.0544 7.15109 9.97196C7.27443 9.88955 7.37056 9.77242 7.42732 9.63537C7.48409 9.49832 7.49894 9.34752 7.47 9.20204C7.44105 9.05655 7.36962 8.92292 7.26472 8.81803L5.92005 7.47334L6.69673 6.69666C7.74563 5.64776 9.08201 4.93345 10.5369 4.64406C11.9917 4.35467 13.4997 4.50319 14.8702 5.07085C16.2406 5.63851 17.412 6.5998 18.2361 7.83318C19.0602 9.06655 19.5001 10.5166 19.5001 12C19.5001 13.4833 19.0602 14.9334 18.2361 16.1668C17.412 17.4001 16.2406 18.3614 14.8702 18.9291C13.4997 19.4967 11.9917 19.6453 10.5369 19.3559C9.08201 19.0665 7.74563 18.3522 6.69673 17.3033C6.55607 17.1626 6.3653 17.0836 6.16638 17.0836C5.96745 17.0836 5.77668 17.1626 5.63603 17.3033C5.49537 17.444 5.41635 17.6347 5.41636 17.8337C5.41636 18.0326 5.49538 18.2234 5.63605 18.364C7.32388 20.0518 9.61307 21 12 21C14.387 21 16.6762 20.0518 18.364 18.364C20.0518 16.6761 21 14.3869 21 12C21 9.61303 20.0518 7.32385 18.3639 5.63602Z" fill="white"/>
</svg>
