<svg width="24" height="24" viewBox="0 0 24 24" fill="none" xmlns="http://www.w3.org/2000/svg">
<path d="M4.2308 18.3765C4.25418 18.4751 4.29726 18.568 4.35746 18.6495C4.41765 18.731 4.49371 18.7995 4.58107 18.8508C4.66842 18.9021 4.76525 18.9353 4.86574 18.9482C4.96624 18.9612 5.06831 18.9537 5.16582 18.9261C9.63668 17.6917 14.3584 17.6912 18.8295 18.9248C18.927 18.9523 19.029 18.9598 19.1295 18.9469C19.2299 18.9339 19.3267 18.9008 19.414 18.8495C19.5014 18.7982 19.5774 18.7298 19.6376 18.6483C19.6978 18.5668 19.7409 18.474 19.7643 18.3755L22.1539 8.2208C22.1859 8.08486 22.1793 7.94268 22.1348 7.81029C22.0904 7.67789 22.0098 7.56054 21.9023 7.47145C21.7947 7.38235 21.6645 7.32505 21.5261 7.30601C21.3878 7.28696 21.2468 7.30692 21.1192 7.36364L16.377 9.4713C16.2058 9.54741 16.0122 9.55665 15.8345 9.49722C15.6568 9.43779 15.5078 9.31398 15.4168 9.15017L12.6556 4.18008C12.5907 4.06316 12.4956 3.96574 12.3803 3.89791C12.2651 3.83008 12.1337 3.79431 12 3.79431C11.8662 3.79431 11.7349 3.83008 11.6196 3.89791C11.5044 3.96574 11.4093 4.06316 11.3444 4.18008L8.58321 9.15017C8.49221 9.31398 8.34318 9.43779 8.16547 9.49722C7.98775 9.55665 7.79423 9.5474 7.62299 9.4713L2.88004 7.36332C2.75245 7.30661 2.61156 7.28665 2.47323 7.30568C2.3349 7.32471 2.20464 7.38197 2.09709 7.47103C1.98955 7.56008 1.909 7.67739 1.86452 7.80975C1.82003 7.9421 1.81338 8.08424 1.84531 8.22017L4.2308 18.3765Z" stroke="#FAFBFC" stroke-width="1.5" stroke-linecap="round" stroke-linejoin="round"/>
<path d="M9 15.1574C10.9945 14.9475 13.0055 14.9475 15 15.1574" stroke="#FAFBFC" stroke-width="1.5" stroke-linecap="round" stroke-linejoin="round"/>
</svg>
