<svg width="24" height="24" viewBox="0 0 24 24" fill="none" xmlns="http://www.w3.org/2000/svg">
<path d="M14.25 10.125H17.25" stroke="#FAFBFC" stroke-width="2" stroke-linecap="round" stroke-linejoin="round"/>
<path d="M6.75 10.125H9.75" stroke="#FAFBFC" stroke-width="2" stroke-linecap="round" stroke-linejoin="round"/>
<path d="M8.25 8.625V11.625" stroke="#FAFBFC" stroke-width="2" stroke-linecap="round" stroke-linejoin="round"/>
<path d="M16.1267 5.22561L7.87541 5.25C6.72925 5.25008 5.61973 5.6539 4.74165 6.39055C3.86356 7.1272 3.27301 8.14962 3.07367 9.27832L3.07447 9.27846L1.54031 17.1687C1.44341 17.7185 1.52429 18.2849 1.77122 18.7856C2.01815 19.2862 2.41826 19.6952 2.91344 19.953C3.40861 20.2107 3.97308 20.304 4.52485 20.2191C5.07661 20.1342 5.58695 19.8756 5.98174 19.4809L5.98159 19.4807L10.0349 15L16.1267 14.9756C17.4196 14.9756 18.6596 14.462 19.5739 13.5478C20.4881 12.6335 21.0017 11.3935 21.0017 10.1006C21.0017 8.80768 20.4881 7.5677 19.5739 6.65346C18.6596 5.73922 17.4196 5.22561 16.1267 5.22561V5.22561Z" stroke="#FAFBFC" stroke-width="2" stroke-linecap="round" stroke-linejoin="round"/>
<path d="M20.9277 9.25407L22.4606 17.1687C22.5575 17.7185 22.4766 18.2849 22.2297 18.7856C21.9827 19.2863 21.5826 19.6952 21.0874 19.953C20.5923 20.2107 20.0278 20.304 19.476 20.2191C18.9243 20.1342 18.4139 19.8756 18.0191 19.4809L18.0193 19.4807L13.9688 14.9842" stroke="#FAFBFC" stroke-width="2" stroke-linecap="round" stroke-linejoin="round"/>
</svg>
