<svg width="25" height="24" viewBox="0 0 25 24" fill="none" xmlns="http://www.w3.org/2000/svg">
<path d="M20.2642 7.5H3.76416C3.34995 7.5 3.01416 7.83579 3.01416 8.25V11.25C3.01416 11.6642 3.34995 12 3.76416 12H20.2642C20.6784 12 21.0142 11.6642 21.0142 11.25V8.25C21.0142 7.83579 20.6784 7.5 20.2642 7.5Z" stroke="#FAFBFC" stroke-width="1.5" stroke-linecap="round" stroke-linejoin="round"/>
<path d="M19.5142 12V18.75C19.5142 18.9489 19.4351 19.1397 19.2945 19.2803C19.1538 19.421 18.9631 19.5 18.7642 19.5H5.26416C5.06525 19.5 4.87448 19.421 4.73383 19.2803C4.59318 19.1397 4.51416 18.9489 4.51416 18.75V12" stroke="#FAFBFC" stroke-width="1.5" stroke-linecap="round" stroke-linejoin="round"/>
<path d="M12.0142 7.5V19.5" stroke="#FAFBFC" stroke-width="1.5" stroke-linecap="round" stroke-linejoin="round"/>
<path d="M16.2568 6.43934C15.1961 7.5 12.0142 7.5 12.0142 7.5C12.0142 7.5 12.0142 4.31802 13.0748 3.25736C13.4969 2.8358 14.069 2.59909 14.6655 2.59926C15.2621 2.59943 15.8341 2.83647 16.2559 3.25827C16.6777 3.68007 16.9147 4.2521 16.9149 4.84862C16.9151 5.44513 16.6784 6.0173 16.2568 6.43934V6.43934Z" stroke="#FAFBFC" stroke-width="1.5" stroke-linecap="round" stroke-linejoin="round"/>
<path d="M7.77151 6.43934C8.83217 7.5 12.0141 7.5 12.0141 7.5C12.0141 7.5 12.0141 4.31802 10.9535 3.25736C10.5314 2.8358 9.95928 2.59909 9.36276 2.59926C8.76625 2.59943 8.19421 2.83647 7.77241 3.25827C7.35061 3.68007 7.11357 4.2521 7.1134 4.84862C7.11323 5.44513 7.34995 6.0173 7.77151 6.43934V6.43934Z" stroke="#FAFBFC" stroke-width="1.5" stroke-linecap="round" stroke-linejoin="round"/>
</svg>
