<svg width="24" height="24" viewBox="0 0 24 24" fill="none" xmlns="http://www.w3.org/2000/svg">
<path d="M22.4971 19.5H20.9971V10.8318C20.9969 10.6228 20.9531 10.4162 20.8686 10.2251C20.7841 10.034 20.6606 9.86259 20.5062 9.72186L13.0055 2.90294C12.73 2.65065 12.37 2.51072 11.9965 2.51074C11.6229 2.51076 11.2629 2.65072 10.9874 2.90303L3.48798 9.72186C3.3335 9.86258 3.21006 10.034 3.12554 10.2251C3.04101 10.4162 2.99726 10.6228 2.99707 10.8317V19.5H1.49707C1.29816 19.5 1.10739 19.579 0.96674 19.7197C0.826088 19.8603 0.74707 20.0511 0.74707 20.25C0.74707 20.4489 0.826088 20.6397 0.96674 20.7803C1.10739 20.921 1.29816 21 1.49707 21H22.4971C22.696 21 22.8867 20.921 23.0274 20.7803C23.1681 20.6397 23.2471 20.4489 23.2471 20.25C23.2471 20.0511 23.1681 19.8603 23.0274 19.7197C22.8867 19.579 22.696 19.5 22.4971 19.5H22.4971ZM14.2465 19.4992H13.4965V19.5H10.4965V19.4992H9.74652V14.9992C9.74653 14.8003 9.82554 14.6095 9.9662 14.4689C10.1068 14.3282 10.2976 14.2492 10.4965 14.2492H13.4965C13.6954 14.2492 13.8862 14.3282 14.0269 14.4689C14.1675 14.6095 14.2465 14.8003 14.2465 14.9992V19.4992Z" fill="url(#paint0_linear_8585_150205)"/>
<defs>
<linearGradient id="paint0_linear_8585_150205" x1="0.74707" y1="2.51074" x2="13.5086" y2="-2.72706" gradientUnits="userSpaceOnUse">
<stop stop-color="#E1313C"/>
<stop offset="1" stop-color="#CB1B26"/>
</linearGradient>
</defs>
</svg>
