<svg width="24" height="24" viewBox="0 0 24 24" fill="none" xmlns="http://www.w3.org/2000/svg">
<path d="M13.0053 16.4498L11.2037 21.3398C11.1507 21.4837 11.0548 21.608 10.929 21.6957C10.8031 21.7835 10.6534 21.8305 10.5 21.8305C10.3466 21.8305 10.1969 21.7835 10.071 21.6957C9.94517 21.608 9.84926 21.4837 9.79623 21.3398L7.99465 16.4498C7.95714 16.348 7.89796 16.2555 7.82123 16.1787C7.74449 16.102 7.65201 16.0428 7.55017 16.0053L2.66018 14.2037C2.51623 14.1507 2.392 14.0548 2.30426 13.929C2.21651 13.8031 2.16946 13.6534 2.16946 13.5C2.16946 13.3466 2.21651 13.1968 2.30426 13.071C2.392 12.9452 2.51623 12.8493 2.66018 12.7962L7.55017 10.9947C7.65201 10.9571 7.74449 10.898 7.82123 10.8212C7.89796 10.7445 7.95714 10.652 7.99465 10.5502L9.79623 5.66018C9.84926 5.51623 9.94517 5.392 10.071 5.30426C10.1969 5.21651 10.3466 5.16946 10.5 5.16946C10.6534 5.16946 10.8031 5.21651 10.929 5.30426C11.0548 5.392 11.1507 5.51623 11.2037 5.66018L13.0053 10.5502C13.0428 10.652 13.102 10.7445 13.1787 10.8212C13.2555 10.898 13.348 10.9571 13.4498 10.9947L18.3398 12.7962C18.4837 12.8493 18.608 12.9452 18.6957 13.071C18.7835 13.1968 18.8305 13.3466 18.8305 13.5C18.8305 13.6534 18.7835 13.8031 18.6957 13.929C18.608 14.0548 18.4837 14.1507 18.3398 14.2037L13.4498 16.0053C13.348 16.0428 13.2555 16.102 13.1787 16.1787C13.102 16.2555 13.0428 16.348 13.0053 16.4498V16.4498Z" stroke="#FAFBFC" stroke-width="1.5" stroke-linecap="round" stroke-linejoin="round"/>
<path d="M16.5 1.5V6" stroke="#FAFBFC" stroke-width="1.5" stroke-linecap="round" stroke-linejoin="round"/>
<path d="M18.75 3.75H14.25" stroke="#FAFBFC" stroke-width="1.5" stroke-linecap="round" stroke-linejoin="round"/>
<path d="M21 6.75V9.75" stroke="#FAFBFC" stroke-width="1.5" stroke-linecap="round" stroke-linejoin="round"/>
<path d="M22.5 8.25H19.5" stroke="#FAFBFC" stroke-width="1.5" stroke-linecap="round" stroke-linejoin="round"/>
</svg>
