<svg width="24" height="24" viewBox="0 0 24 24" fill="none" xmlns="http://www.w3.org/2000/svg">
<path d="M22.3807 6.89392C22.1661 6.7148 21.9055 6.5996 21.6286 6.56148C21.3517 6.52335 21.0696 6.56384 20.8146 6.67831L16.0724 8.78604L13.3112 3.81592C13.1813 3.58206 12.9913 3.3872 12.7607 3.25153C12.5302 3.11586 12.2675 3.04431 12 3.04431C11.7325 3.04431 11.4699 3.11586 11.2393 3.25153C11.0087 3.3872 10.8187 3.58206 10.6888 3.81592L7.92755 8.78595L3.18457 6.67795C2.92938 6.56456 2.6476 6.52466 2.37096 6.56274C2.09432 6.60082 1.8338 6.71536 1.61873 6.89347C1.40366 7.07159 1.24258 7.3062 1.15362 7.5709C1.06466 7.8356 1.05136 8.11987 1.1152 8.39172L3.5007 18.5479C3.54609 18.7446 3.63109 18.9299 3.7505 19.0925C3.86991 19.2552 4.02123 19.3918 4.19522 19.494C4.37011 19.597 4.56392 19.6638 4.76512 19.6904C4.96632 19.717 5.17082 19.7029 5.36646 19.6489C9.70613 18.4508 14.2892 18.4504 18.6292 19.6476C18.8247 19.7015 19.0291 19.7156 19.2302 19.689C19.4313 19.6624 19.625 19.5957 19.7998 19.4928C19.9737 19.3906 20.125 19.2541 20.2444 19.0916C20.3638 18.929 20.4489 18.7439 20.4944 18.5474L22.884 8.39255C22.949 8.12069 22.9363 7.83603 22.8473 7.57105C22.7583 7.30607 22.5966 7.07144 22.3807 6.89392ZM15.7459 15.2358C15.7357 15.3338 15.7063 15.4289 15.6593 15.5155C15.6124 15.6021 15.5488 15.6786 15.4722 15.7406C15.3956 15.8026 15.3076 15.8489 15.2131 15.8768C15.1186 15.9047 15.0195 15.9137 14.9215 15.9033C12.9792 15.6993 11.0208 15.6993 9.07846 15.9033C8.88101 15.9233 8.68366 15.8643 8.52963 15.7392C8.37561 15.614 8.27746 15.4329 8.2567 15.2356C8.23594 15.0382 8.29425 14.8406 8.41887 14.6862C8.54348 14.5317 8.72424 14.4329 8.92154 14.4115C10.9682 14.1965 13.0318 14.1965 15.0785 14.4115C15.1764 14.4218 15.2714 14.4513 15.3579 14.4983C15.4445 14.5453 15.5209 14.6089 15.5829 14.6854C15.6449 14.762 15.6912 14.85 15.7191 14.9444C15.7471 15.0389 15.7562 15.1379 15.7459 15.2358Z" fill="url(#paint0_linear_8589_360330)"/>
<defs>
<linearGradient id="paint0_linear_8589_360330" x1="1.07547" y1="3.04431" x2="13.1859" y2="-2.31278" gradientUnits="userSpaceOnUse">
<stop stop-color="#E1313C"/>
<stop offset="1" stop-color="#CB1B26"/>
</linearGradient>
</defs>
</svg>
