<svg width="24" height="24" viewBox="0 0 24 24" fill="none" xmlns="http://www.w3.org/2000/svg">
<path d="M12 21C16.9706 21 21 16.9706 21 12C21 7.02944 16.9706 3 12 3C7.02944 3 3 7.02944 3 12C3 16.9706 7.02944 21 12 21Z" stroke="#FAFBFC" stroke-width="1.5" stroke-linecap="round" stroke-linejoin="round"/>
<path d="M12 18C12.6213 18 13.125 17.4963 13.125 16.875C13.125 16.2537 12.6213 15.75 12 15.75C11.3787 15.75 10.875 16.2537 10.875 16.875C10.875 17.4963 11.3787 18 12 18Z" fill="#FAFBFC"/>
<path d="M11.9999 13.5005V12.7505C12.5191 12.7505 13.0266 12.5965 13.4583 12.3081C13.89 12.0197 14.2264 11.6097 14.4251 11.13C14.6238 10.6504 14.6758 10.1226 14.5745 9.61338C14.4732 9.10418 14.2232 8.63645 13.8561 8.26933C13.489 7.90222 13.0212 7.65221 12.512 7.55093C12.0028 7.44964 11.475 7.50163 10.9954 7.70031C10.5157 7.89899 10.1057 8.23544 9.8173 8.66712C9.52886 9.0988 9.37491 9.60631 9.37491 10.1255" stroke="#FAFBFC" stroke-width="1.5" stroke-linecap="round" stroke-linejoin="round"/>
</svg>
