<svg width="24" height="24" viewBox="0 0 24 24" fill="none" xmlns="http://www.w3.org/2000/svg">
<mask id="path-1-inside-1_9075_164232" fill="white">
<path d="M19.5805 13.5C19.5824 13.8073 19.4891 14.1076 19.3134 14.3597C19.1376 14.6117 18.8881 14.8031 18.5991 14.9075L13.7091 16.7091L11.9075 21.5991C11.8014 21.887 11.6096 22.1354 11.3579 22.3109C11.1063 22.4864 10.8068 22.5805 10.5 22.5805C10.1932 22.5805 9.89375 22.4864 9.64207 22.3109C9.39038 22.1354 9.19856 21.887 9.09247 21.5991L7.29089 16.7091L2.40088 14.9075C2.11299 14.8014 1.86456 14.6096 1.68908 14.3579C1.51361 14.1063 1.41953 13.8068 1.41953 13.5C1.41953 13.1932 1.51361 12.8937 1.68908 12.6421C1.86456 12.3904 2.11299 12.1986 2.40088 12.0925L7.29089 10.2909L9.09247 5.40088C9.19856 5.11299 9.39038 4.86456 9.64207 4.68908C9.89375 4.51361 10.1932 4.41952 10.5 4.41952C10.8068 4.41952 11.1063 4.51361 11.3579 4.68908C11.6096 4.86456 11.8014 5.11299 11.9075 5.40088L13.7091 10.2909L18.5991 12.0925C18.8881 12.1969 19.1376 12.3883 19.3134 12.6403C19.4891 12.8924 19.5824 13.1927 19.5805 13.5V13.5ZM14.25 4.5H15.75V6C15.75 6.19891 15.829 6.38968 15.9697 6.53033C16.1103 6.67098 16.3011 6.75 16.5 6.75C16.6989 6.75 16.8897 6.67098 17.0303 6.53033C17.171 6.38968 17.25 6.19891 17.25 6V4.5H18.75C18.9489 4.5 19.1397 4.42098 19.2803 4.28033C19.421 4.13968 19.5 3.94891 19.5 3.75C19.5 3.55109 19.421 3.36032 19.2803 3.21967C19.1397 3.07902 18.9489 3 18.75 3H17.25V1.5C17.25 1.30109 17.171 1.11032 17.0303 0.96967C16.8897 0.829018 16.6989 0.75 16.5 0.75C16.3011 0.75 16.1103 0.829018 15.9697 0.96967C15.829 1.11032 15.75 1.30109 15.75 1.5V3H14.25C14.0511 3 13.8603 3.07902 13.7197 3.21967C13.579 3.36032 13.5 3.55109 13.5 3.75C13.5 3.94891 13.579 4.13968 13.7197 4.28033C13.8603 4.42098 14.0511 4.5 14.25 4.5ZM22.5 7.5H21.75V6.75C21.75 6.55109 21.671 6.36032 21.5303 6.21967C21.3897 6.07902 21.1989 6 21 6C20.8011 6 20.6103 6.07902 20.4697 6.21967C20.329 6.36032 20.25 6.55109 20.25 6.75V7.5H19.5C19.3011 7.5 19.1103 7.57902 18.9697 7.71967C18.829 7.86032 18.75 8.05109 18.75 8.25C18.75 8.44891 18.829 8.63968 18.9697 8.78033C19.1103 8.92098 19.3011 9 19.5 9H20.25V9.75C20.25 9.94891 20.329 10.1397 20.4697 10.2803C20.6103 10.421 20.8011 10.5 21 10.5C21.1989 10.5 21.3897 10.421 21.5303 10.2803C21.671 10.1397 21.75 9.94891 21.75 9.75V9H22.5C22.6989 9 22.8897 8.92098 23.0303 8.78033C23.171 8.63968 23.25 8.44891 23.25 8.25C23.25 8.05109 23.171 7.86032 23.0303 7.71967C22.8897 7.57902 22.6989 7.5 22.5 7.5Z"/>
</mask>
<path d="M19.5805 13.5C19.5824 13.8073 19.4891 14.1076 19.3134 14.3597C19.1376 14.6117 18.8881 14.8031 18.5991 14.9075L13.7091 16.7091L11.9075 21.5991C11.8014 21.887 11.6096 22.1354 11.3579 22.3109C11.1063 22.4864 10.8068 22.5805 10.5 22.5805C10.1932 22.5805 9.89375 22.4864 9.64207 22.3109C9.39038 22.1354 9.19856 21.887 9.09247 21.5991L7.29089 16.7091L2.40088 14.9075C2.11299 14.8014 1.86456 14.6096 1.68908 14.3579C1.51361 14.1063 1.41953 13.8068 1.41953 13.5C1.41953 13.1932 1.51361 12.8937 1.68908 12.6421C1.86456 12.3904 2.11299 12.1986 2.40088 12.0925L7.29089 10.2909L9.09247 5.40088C9.19856 5.11299 9.39038 4.86456 9.64207 4.68908C9.89375 4.51361 10.1932 4.41952 10.5 4.41952C10.8068 4.41952 11.1063 4.51361 11.3579 4.68908C11.6096 4.86456 11.8014 5.11299 11.9075 5.40088L13.7091 10.2909L18.5991 12.0925C18.8881 12.1969 19.1376 12.3883 19.3134 12.6403C19.4891 12.8924 19.5824 13.1927 19.5805 13.5V13.5ZM14.25 4.5H15.75V6C15.75 6.19891 15.829 6.38968 15.9697 6.53033C16.1103 6.67098 16.3011 6.75 16.5 6.75C16.6989 6.75 16.8897 6.67098 17.0303 6.53033C17.171 6.38968 17.25 6.19891 17.25 6V4.5H18.75C18.9489 4.5 19.1397 4.42098 19.2803 4.28033C19.421 4.13968 19.5 3.94891 19.5 3.75C19.5 3.55109 19.421 3.36032 19.2803 3.21967C19.1397 3.07902 18.9489 3 18.75 3H17.25V1.5C17.25 1.30109 17.171 1.11032 17.0303 0.96967C16.8897 0.829018 16.6989 0.75 16.5 0.75C16.3011 0.75 16.1103 0.829018 15.9697 0.96967C15.829 1.11032 15.75 1.30109 15.75 1.5V3H14.25C14.0511 3 13.8603 3.07902 13.7197 3.21967C13.579 3.36032 13.5 3.55109 13.5 3.75C13.5 3.94891 13.579 4.13968 13.7197 4.28033C13.8603 4.42098 14.0511 4.5 14.25 4.5ZM22.5 7.5H21.75V6.75C21.75 6.55109 21.671 6.36032 21.5303 6.21967C21.3897 6.07902 21.1989 6 21 6C20.8011 6 20.6103 6.07902 20.4697 6.21967C20.329 6.36032 20.25 6.55109 20.25 6.75V7.5H19.5C19.3011 7.5 19.1103 7.57902 18.9697 7.71967C18.829 7.86032 18.75 8.05109 18.75 8.25C18.75 8.44891 18.829 8.63968 18.9697 8.78033C19.1103 8.92098 19.3011 9 19.5 9H20.25V9.75C20.25 9.94891 20.329 10.1397 20.4697 10.2803C20.6103 10.421 20.8011 10.5 21 10.5C21.1989 10.5 21.3897 10.421 21.5303 10.2803C21.671 10.1397 21.75 9.94891 21.75 9.75V9H22.5C22.6989 9 22.8897 8.92098 23.0303 8.78033C23.171 8.63968 23.25 8.44891 23.25 8.25C23.25 8.05109 23.171 7.86032 23.0303 7.71967C22.8897 7.57902 22.6989 7.5 22.5 7.5Z" fill="url(#paint0_linear_9075_164232)" stroke="url(#paint1_linear_9075_164232)" stroke-width="3" mask="url(#path-1-inside-1_9075_164232)"/>
<defs>
<linearGradient id="paint0_linear_9075_164232" x1="1.41953" y1="0.75" x2="14.4095" y2="-3.63117" gradientUnits="userSpaceOnUse">
<stop stop-color="#E1313C"/>
<stop offset="1" stop-color="#CB1B26"/>
</linearGradient>
<linearGradient id="paint1_linear_9075_164232" x1="1.41953" y1="0.75" x2="14.4095" y2="-3.63117" gradientUnits="userSpaceOnUse">
<stop stop-color="#E1313C"/>
<stop offset="1" stop-color="#CB1B26"/>
</linearGradient>
</defs>
</svg>
