<svg width="16" height="17" viewBox="0 0 16 17" fill="none" xmlns="http://www.w3.org/2000/svg">
<path d="M15.5 8.5C15.5 12.6421 12.1421 16 8 16C3.85786 16 0.5 12.6421 0.5 8.5C0.5 4.35786 3.85786 1 8 1C12.1421 1 15.5 4.35786 15.5 8.5Z" fill="#8C51E0" stroke="white"/>
<path d="M9.84048 12.7842C9.84048 12.7842 9.85325 12.763 9.86176 12.7544L9.85325 12.7672C9.85325 12.7672 9.87879 12.7374 9.89156 12.7289L9.85325 12.7459H9.86602C9.86602 12.7459 9.89582 12.7417 9.90433 12.7289C9.91284 12.7161 9.92136 12.7034 9.92136 12.6906C9.92136 12.6778 9.9171 12.6608 9.90433 12.6523C9.89156 12.6438 9.88305 12.6353 9.86602 12.6353H9.84048C9.84048 12.6353 9.82771 12.6438 9.82345 12.648C9.8192 12.648 9.81494 12.6565 9.81068 12.6608C9.80217 12.6651 9.79791 12.6736 9.79365 12.6821C9.78088 12.6991 9.76386 12.7161 9.75534 12.7374C9.74683 12.7502 9.74683 12.763 9.75109 12.78C9.75109 12.7928 9.76386 12.8055 9.77663 12.8098C9.7894 12.8183 9.80217 12.8183 9.8192 12.814C9.83622 12.8098 9.84474 12.8013 9.84899 12.7885L9.84048 12.7842Z" fill="black"/>
<path d="M9.90927 14.4999C9.80672 14.4999 9.67 14.4233 9.45636 14.3041C8.99064 14.0445 9.14018 13.5549 9.21282 13.3208L9.23845 13.2314C9.27264 13.108 9.24273 12.9547 9.22564 12.8824C9.12736 12.7419 9.16155 12.6397 9.20855 12.5844C9.25127 12.5333 9.34527 12.4609 9.51618 12.5503C9.576 12.5801 9.764 12.6057 9.90927 12.6142C10.0588 12.6057 10.2468 12.5801 10.3024 12.5503C10.4733 12.4609 10.5715 12.5333 10.61 12.5844C10.657 12.644 10.6912 12.7419 10.5929 12.8824C10.5715 12.9547 10.5459 13.108 10.5801 13.2314L10.6057 13.3208C10.6784 13.5549 10.8279 14.0445 10.3622 14.3041C10.1443 14.4233 10.0118 14.5042 9.905 14.4999H9.90072H9.90927ZM9.64436 12.976C9.65718 13.0824 9.65291 13.2059 9.623 13.3293C9.61445 13.3591 9.60591 13.3974 9.59309 13.4315C9.49909 13.7295 9.49054 13.8699 9.65291 13.9593C9.80672 14.0445 9.88363 14.0828 9.92209 14.0955C9.95627 14.0785 10.0332 14.0445 10.1913 13.9593C10.3536 13.8699 10.3408 13.7295 10.2511 13.4315C10.2383 13.3932 10.2297 13.3591 10.2212 13.3251C10.187 13.2016 10.187 13.0739 10.1998 12.9718C10.0802 12.9888 9.97336 12.9973 9.93063 12.9973H9.92209C9.87936 12.9973 9.77254 12.9888 9.65291 12.9718L9.64436 12.976Z" fill="white"/>
<path d="M12.601 10.4391L12.9385 11.2266C12.977 11.3202 13.0197 11.4138 13.0368 11.5118C13.071 11.682 13.0453 11.8566 13.0111 12.0268C12.9214 12.4653 12.7719 12.8867 12.6223 13.3038C12.5711 13.4486 12.5112 13.6061 12.3745 13.6869C12.2122 13.7849 12.0028 13.7295 11.8191 13.6699C11.5542 13.5848 11.2892 13.4997 11.0414 13.3805C10.9432 13.3336 10.8492 13.2826 10.7509 13.24C9.9348 12.8739 9.0418 12.9633 8.24708 13.3379C7.74717 13.5763 7.29426 13.8998 6.84136 14.2148C6.79008 14.2488 6.73454 14.2871 6.67472 14.2999C6.5209 14.334 6.3799 14.219 6.26454 14.1126L3.54282 11.5799C3.30782 11.3628 3.06855 11.1286 2.97883 10.8264C2.82501 10.2858 3.19673 9.74946 3.5471 9.31102L4.63236 7.95738C4.69218 7.88076 4.76055 7.79562 4.76055 7.69772C4.76055 7.62535 4.72636 7.55725 4.705 7.48914C4.60246 7.16137 4.78191 6.82083 4.95709 6.52286C5.41854 5.74813 5.90136 4.98192 6.49527 4.3051C6.9909 3.73895 7.57626 3.23666 8.24708 2.88335C8.37526 2.81524 8.54617 2.69605 8.69571 2.70031C8.86662 2.70456 9.06316 2.87058 9.20416 2.95145C9.56734 3.16429 9.92625 3.3899 10.2553 3.65807C10.5031 3.85814 10.7381 4.088 10.8833 4.36895C10.909 4.41577 10.9303 4.46685 10.9688 4.50516C11.1012 4.63287 11.332 4.56476 11.4901 4.65841C11.567 4.70523 11.6182 4.78185 11.6652 4.85422C11.7977 5.05854 11.9259 5.26712 12.0498 5.47996C12.2976 5.89712 12.5412 6.32705 12.6181 6.8038C12.7035 7.32738 12.4984 8.23407 12.5198 8.1617C12.5198 8.1617 12.2378 9.73244 12.5882 10.4305L12.601 10.4391Z" fill="#5339A7"/>
<path d="M6.62347 14.4955C6.42693 14.4955 6.26884 14.372 6.13638 14.2486L3.41467 11.7158C3.18394 11.503 2.90194 11.2391 2.79512 10.873C2.61994 10.2685 2.98312 9.7024 3.39758 9.18308L4.48284 7.82944C4.51275 7.79113 4.5683 7.72302 4.5683 7.68896C4.5683 7.67194 4.55548 7.63788 4.54266 7.60383L4.5213 7.53998C4.39312 7.13559 4.59393 6.74822 4.79475 6.4162C5.24339 5.66701 5.73475 4.87526 6.35429 4.16864C6.91829 3.53013 7.52501 3.03635 8.16165 2.70432L8.23856 2.66176C8.36674 2.58939 8.5291 2.5 8.69574 2.5C8.89228 2.50426 9.06746 2.61919 9.20846 2.71284C9.24692 2.73838 9.2811 2.75966 9.31101 2.78094C9.61864 2.95973 10.016 3.20662 10.3877 3.50459C10.5928 3.6706 10.8876 3.93026 11.0671 4.27932C11.0927 4.32614 11.1055 4.35594 11.1184 4.36871C11.144 4.39425 11.2124 4.39851 11.2807 4.40702C11.3747 4.41553 11.4901 4.4283 11.5969 4.49215C11.7165 4.56026 11.7892 4.67094 11.8405 4.75181C11.9729 4.96039 12.1011 5.16897 12.2293 5.38181C12.4856 5.80749 12.7377 6.26296 12.8232 6.77377C12.8744 7.08451 12.836 7.59106 12.7249 8.19552L12.5711 8.16146L12.7249 8.19552C12.648 8.61693 12.5155 9.81733 12.7762 10.3409L13.118 11.1369C13.1564 11.2306 13.2034 11.3412 13.2291 11.4562C13.2718 11.6648 13.2419 11.8648 13.2034 12.0479C13.1137 12.4991 12.9556 12.9333 12.8104 13.3504C12.7591 13.4952 12.6779 13.7165 12.4814 13.8357C12.3916 13.891 12.2891 13.9166 12.1694 13.9166C12.0327 13.9166 11.8917 13.8783 11.7635 13.8357C11.4944 13.7506 11.2209 13.6612 10.9603 13.5335L10.8449 13.4739C10.7894 13.4441 10.7338 13.4185 10.6783 13.393C10.3578 13.2483 10.016 13.1759 9.6571 13.1759C9.22555 13.1759 8.76837 13.2823 8.3411 13.4866C7.89247 13.6995 7.47374 13.9932 7.06783 14.2741L6.96102 14.3465C6.90547 14.3848 6.82429 14.4402 6.72602 14.4614C6.69611 14.4699 6.66193 14.4699 6.62774 14.4699L6.62347 14.4955Z" fill="white"/>
<path d="M12.601 10.4391L12.9385 11.2266C12.977 11.3202 13.0197 11.4138 13.0368 11.5118C13.071 11.682 13.0453 11.8566 13.0111 12.0268C12.9214 12.4653 12.7719 12.8867 12.6223 13.3038C12.5711 13.4486 12.5112 13.6061 12.3745 13.6869C12.2122 13.7849 12.0028 13.7295 11.8191 13.6699C11.5542 13.5848 11.2892 13.4997 11.0414 13.3805C10.9432 13.3336 10.8492 13.2826 10.7509 13.24C9.9348 12.8739 9.0418 12.9633 8.24708 13.3379C7.74717 13.5763 7.29426 13.8998 6.84136 14.2148C6.79008 14.2488 6.73454 14.2871 6.67472 14.2999C6.5209 14.334 6.3799 14.219 6.26454 14.1126L3.54282 11.5799C3.30782 11.3628 3.06855 11.1286 2.97883 10.8264C2.82501 10.2858 3.19673 9.74946 3.5471 9.31102L4.63236 7.95738C4.69218 7.88076 4.76055 7.79562 4.76055 7.69772C4.76055 7.62535 4.72636 7.55725 4.705 7.48914C4.60246 7.16137 4.78191 6.82083 4.95709 6.52286C5.41854 5.74813 5.90136 4.98192 6.49527 4.3051C6.9909 3.73895 7.57626 3.23666 8.24708 2.88335C8.37526 2.81524 8.54617 2.69605 8.69571 2.70031C8.86662 2.70456 9.06316 2.87058 9.20416 2.95145C9.56734 3.16429 9.92625 3.3899 10.2553 3.65807C10.5031 3.85814 10.7381 4.088 10.8833 4.36895C10.909 4.41577 10.9303 4.46685 10.9688 4.50516C11.1012 4.63287 11.332 4.56476 11.4901 4.65841C11.567 4.70523 11.6182 4.78185 11.6652 4.85422C11.7977 5.05854 11.9259 5.26712 12.0498 5.47996C12.2976 5.89712 12.5412 6.32705 12.6181 6.8038C12.7035 7.32738 12.4984 8.23407 12.5198 8.1617C12.5198 8.1617 12.2378 9.73244 12.5882 10.4305L12.601 10.4391Z" fill="#5339A7"/>
<path d="M12.8061 11.6734C12.789 11.9458 12.695 12.2268 12.4899 12.4056C12.1865 12.6652 11.7507 12.6482 11.3533 12.6184C11.05 12.5971 10.7552 12.5801 10.4518 12.5545C10.2424 12.5418 10.2168 12.546 9.89635 12.5375C9.59299 12.4694 9.30672 12.6993 8.92645 12.6567C8.34109 12.5928 7.79845 12.3332 7.40964 11.899C7.01655 11.4606 6.78582 10.8902 6.82855 10.3027C6.84137 10.141 6.87127 9.98347 6.94391 9.83874C7.01655 9.68975 7.12764 9.56631 7.23445 9.4386C7.87109 8.70219 8.4009 7.87638 8.81536 6.99949C9.07599 6.44186 9.30672 5.84592 9.73399 5.39896C9.81517 5.31808 9.90917 5.23295 10.0288 5.22443C10.1698 5.20741 10.2937 5.30105 10.4134 5.39045C10.6184 5.53517 10.8449 5.66713 11.0927 5.70544C11.3448 5.74375 11.6225 5.6799 11.7806 5.48409C12.1353 5.93531 12.4472 6.44186 12.5412 7.00801C12.648 7.65929 12.4685 8.32334 12.4087 8.93205C12.3446 9.58333 12.5454 10.2261 12.695 10.8646C12.7633 11.1285 12.8232 11.401 12.8146 11.6734H12.8061Z" fill="black"/>
<path d="M9.58868 12.6268C9.58868 12.6268 9.90058 12.5544 9.89631 12.5417C9.8194 12.2011 9.73395 11.8563 9.56304 11.5541C9.44768 11.3583 9.29813 11.1795 9.11868 11.039C8.99904 10.9411 8.86231 10.8603 8.72986 10.7794L8.21286 10.4644C8.04623 10.3622 7.87105 10.2473 7.81123 10.0642V10.0728C8.01205 10.3452 8.38377 10.4303 8.72131 10.4899C9.33231 10.6006 9.93904 10.6985 10.5543 10.8007C10.6355 10.8007 10.7167 10.8092 10.7936 10.7794C10.8449 10.7581 10.8919 10.7283 10.9303 10.69C11.1696 10.4729 11.2593 10.1451 11.3405 9.83438L11.4388 9.46405C11.5712 8.96601 11.6994 8.46797 11.7678 7.96142C11.7977 7.74858 11.8276 7.52723 11.7079 7.3527C11.537 7.02493 11.2208 6.77804 10.8619 6.67162C10.503 6.56521 10.1142 6.58649 9.76386 6.70568C9.47758 6.80358 9.1144 6.98662 8.93068 7.23351C8.76404 7.46338 8.68713 7.8252 8.5675 8.08486C8.29404 8.66378 7.93941 9.22567 7.42668 9.6258C7.23869 9.77479 7.02505 9.90249 6.8755 10.0898C6.8755 10.0898 6.57214 11.1753 7.52496 12.0521C8.47777 12.929 9.59295 12.6268 9.59295 12.6268H9.58868Z" fill="#EAA77A"/>
<path d="M10.9816 6.65894L11.3789 7.69332L10.7893 8.07217L10.7551 8.35312" stroke="black" stroke-width="0.25" stroke-miterlimit="10"/>
<path d="M10.6448 7.95057C10.7437 7.88643 10.804 7.80409 10.7795 7.76665C10.7551 7.72922 10.6551 7.75087 10.5562 7.81502C10.4574 7.87916 10.397 7.9615 10.4215 7.99893C10.446 8.03636 10.5459 8.01471 10.6448 7.95057Z" fill="black"/>
<path d="M9.72974 9.03402C9.72974 9.03402 10.7253 8.37422 11.2765 9.27665C11.2765 9.27665 11.191 8.68496 10.7552 8.57003C10.3194 8.4551 9.72974 9.03402 9.72974 9.03402Z" fill="black"/>
<path d="M10.2168 9.22998C10.2168 9.22998 10.6996 9.23849 10.7552 9.25126C10.8107 9.26403 10.9859 9.3364 10.8064 9.45559C10.8064 9.45559 10.3151 9.4641 10.2168 9.22998Z" fill="black"/>
<path d="M9.9262 12.81C9.9262 12.81 9.57157 12.7972 9.43057 12.7249C9.28957 12.6525 9.40493 12.7972 9.40493 12.7972C9.40493 12.7972 9.49039 13.0526 9.43057 13.2867C9.37075 13.5209 9.17848 13.9295 9.55448 14.1423C9.93048 14.3552 9.90911 14.3084 9.90911 14.3084H9.92193C9.92193 14.3084 9.90484 14.3509 10.2766 14.1423C10.6483 13.9338 10.4603 13.5209 10.4005 13.2867C10.3407 13.0526 10.4261 12.7972 10.4261 12.7972C10.4261 12.7972 10.5415 12.6525 10.4005 12.7249C10.2595 12.7972 9.90484 12.81 9.90484 12.81" fill="#EFB81D"/>
<path opacity="0.3" d="M8.65722 2.70431C8.65722 2.70431 6.77295 4.59005 6.3115 6.21612L7.52495 5.41586C7.52495 5.41586 3.99569 9.05537 4.00851 10.1494C4.00851 10.1494 3.67951 11.5583 4.83742 12.8098C4.83742 12.8098 2.97879 11.1369 2.94461 10.8177C2.91042 10.4984 2.86343 10.1238 3.39751 9.45125C3.9316 8.77868 4.76905 7.75281 4.76905 7.75281C4.76905 7.75281 4.69214 7.6549 4.6366 7.28031C4.58105 6.90571 6.32005 3.63228 8.55895 2.6958H8.66149L8.65722 2.70431Z" fill="white"/>
<path opacity="0.25" d="M8.48624 8.05102C8.48624 8.05102 8.49906 8.03399 8.52043 8.00845C8.69988 7.79136 9.59288 6.85913 11.2421 7.1869L11.4131 7.67643L10.8191 8.05953L10.7593 8.3575L10.8875 8.62568C10.8875 8.62568 11.161 8.72784 11.2763 9.25142C11.2763 9.25142 11.1097 9.3025 10.8576 9.35358C10.6226 9.40466 10.8576 9.35358 10.8576 9.35358L10.6354 9.40466L10.9943 9.57068C10.9943 9.57068 11.0712 10.3284 10.6824 10.3965C10.1911 10.4816 9.92188 10.4135 9.92188 10.4135L7.81543 10.073C7.81543 10.073 8.0547 10.4007 8.6657 10.4944C9.34079 10.5965 10.691 10.852 10.6696 10.8051C10.6696 10.8051 10.926 10.8647 11.1695 10.3709C11.4131 9.87716 11.8403 7.67643 11.8403 7.67643C11.8403 7.67643 11.8489 6.97832 10.8961 6.61224C9.94324 6.24616 8.45634 6.94852 8.50334 8.03399" fill="black"/>
<path opacity="0.3" d="M7.81543 10.0729C7.81543 10.0729 7.84534 10.2218 7.90516 10.2772C8.19143 10.5411 9.01179 11.3158 9.15279 11.6393C9.15279 11.6393 9.38351 12.0906 9.48606 12.6439C9.48606 12.6439 9.58006 12.6354 9.89624 12.5418C9.89624 12.5418 9.75951 11.5499 9.28951 11.1498C8.9477 10.8604 8.49906 10.6603 7.94788 10.2559C7.91797 10.2346 7.84534 10.0899 7.81543 10.0686V10.0729Z" fill="black"/>
<path d="M4.66235 7.91038C4.66235 7.91038 5.91853 6.61208 6.26889 6.26728C6.61925 5.92248 4.67944 7.51876 4.67944 7.51876L4.66235 7.91464V7.91038Z" fill="white"/>
<path d="M9.42629 12.78C9.42629 12.78 9.50747 13.0397 9.46047 13.2227C9.34938 13.6399 9.34938 13.6782 9.34938 13.6782C9.34938 13.6782 9.32374 13.9464 9.4861 14.0528C9.69119 14.1848 9.74247 14.2188 9.74247 14.2188C9.74247 14.2188 9.52456 13.9762 9.50319 13.7889C9.48183 13.6016 9.58865 13.3249 9.60147 13.244C9.61429 13.1631 9.60147 12.9716 9.42629 12.7843V12.78Z" fill="#C68900"/>
<path d="M10.4176 12.7844C10.4176 12.7844 10.3065 12.9121 10.345 13.1803C10.3834 13.4485 10.4689 13.5677 10.4646 13.7762C10.4604 13.9848 10.3706 14.0572 9.93481 14.2828C9.93481 14.2828 10.298 14.0316 10.298 13.8571C10.298 13.6826 10.2083 13.3548 10.2125 13.2442C10.2211 13.1164 10.2382 13.0015 10.4134 12.7844H10.4176Z" fill="#FFD880"/>
</svg>
