<svg width="24" height="24" viewBox="0 0 24 24" fill="none" xmlns="http://www.w3.org/2000/svg">
<path d="M11.0026 14.0624C11.5505 13.9935 12 14.4477 12 15C12 15.5523 11.5492 15.9915 11.0046 16.0831C9.78253 16.2887 8.64516 16.8696 7.75736 17.7574C6.86956 18.6452 6.28871 19.7825 6.08312 21.0046C5.9915 21.5492 5.55228 22 5 22C4.44772 22 3.99355 21.5505 4.06239 21.0026C4.28276 19.2486 5.0799 17.6064 6.34315 16.3431C7.60639 15.0799 9.2486 14.2828 11.0026 14.0624ZM12 13C8.685 13 6 10.315 6 7C6 3.685 8.685 1 12 1C15.315 1 18 3.685 18 7C18 10.315 15.315 13 12 13ZM12 11C14.21 11 16 9.21 16 7C16 4.79 14.21 3 12 3C9.79 3 8 4.79 8 7C8 9.21 9.79 11 12 11ZM21.446 20.032L22.243 20.829C22.6335 21.2195 22.6335 21.8525 22.243 22.243C21.8525 22.6335 21.2195 22.6335 20.829 22.243L20.032 21.446C19.1933 21.9405 18.2031 22.1121 17.247 21.9288C16.2908 21.7454 15.4343 21.2196 14.8381 20.4499C14.2419 19.6802 13.9469 18.7195 14.0083 17.7479C14.0698 16.7762 14.4835 15.8604 15.1719 15.1719C15.8604 14.4835 16.7762 14.0698 17.7479 14.0083C18.7195 13.9469 19.6802 14.2419 20.4499 14.8381C21.2196 15.4343 21.7454 16.2908 21.9288 17.247C22.1121 18.2031 21.9405 19.1933 21.446 20.032ZM18 20C18.5304 20 19.0391 19.7893 19.4142 19.4142C19.7893 19.0391 20 18.5304 20 18C20 17.4696 19.7893 16.9609 19.4142 16.5858C19.0391 16.2107 18.5304 16 18 16C17.4696 16 16.9609 16.2107 16.5858 16.5858C16.2107 16.9609 16 17.4696 16 18C16 18.5304 16.2107 19.0391 16.5858 19.4142C16.9609 19.7893 17.4696 20 18 20Z" fill="#FAFBFC"/>
</svg>
