<svg width="26" height="30" viewBox="0 0 26 30" fill="none" xmlns="http://www.w3.org/2000/svg">
<path d="M11 17.6667V20.3333C8.87828 20.3333 6.84345 21.1762 5.34316 22.6765C3.84287 24.1768 3.00001 26.2116 3.00001 28.3333H0.333344C0.333344 25.5044 1.45715 22.7912 3.45754 20.7909C5.45793 18.7905 8.17103 17.6667 11 17.6667ZM11 16.3333C6.58001 16.3333 3.00001 12.7533 3.00001 8.33333C3.00001 3.91333 6.58001 0.333328 11 0.333328C15.42 0.333328 19 3.91333 19 8.33333C19 12.7533 15.42 16.3333 11 16.3333ZM11 13.6667C13.9467 13.6667 16.3333 11.28 16.3333 8.33333C16.3333 5.38666 13.9467 2.99999 11 2.99999C8.05334 2.99999 5.66668 5.38666 5.66668 8.33333C5.66668 11.28 8.05334 13.6667 11 13.6667ZM23.5947 25.7093L25.6 27.7147L23.7147 29.6L21.7093 27.5947C20.5911 28.254 19.2708 28.4829 17.996 28.2384C16.7211 27.9939 15.5791 27.2928 14.7842 26.2665C13.9892 25.2403 13.5959 23.9594 13.6778 22.6638C13.7597 21.3683 14.3113 20.1471 15.2293 19.2292C16.1472 18.3113 17.3683 17.7597 18.6639 17.6778C19.9594 17.5958 21.2403 17.9892 22.2666 18.7842C23.2928 19.5791 23.9939 20.7211 24.2384 21.9959C24.4829 23.2708 24.254 24.5911 23.5947 25.7093ZM19 25.6667C19.7073 25.6667 20.3855 25.3857 20.8856 24.8856C21.3857 24.3855 21.6667 23.7072 21.6667 23C21.6667 22.2928 21.3857 21.6145 20.8856 21.1144C20.3855 20.6143 19.7073 20.3333 19 20.3333C18.2928 20.3333 17.6145 20.6143 17.1144 21.1144C16.6143 21.6145 16.3333 22.2928 16.3333 23C16.3333 23.7072 16.6143 24.3855 17.1144 24.8856C17.6145 25.3857 18.2928 25.6667 19 25.6667Z" fill="url(#paint0_linear_404_242305)"/>
<defs>
<linearGradient id="paint0_linear_404_242305" x1="0.333344" y1="0.333328" x2="15.7695" y2="-4.16132" gradientUnits="userSpaceOnUse">
<stop stop-color="#E1313C"/>
<stop offset="1" stop-color="#CB1B26"/>
</linearGradient>
</defs>
</svg>
