<svg width="165" height="40" viewBox="0 0 165 40" fill="none" xmlns="http://www.w3.org/2000/svg">
<rect x="6.10352e-05" width="165" height="40" rx="20" fill="#2F363D"/>
<path d="M26.0001 14.3744C19.7501 14.3744 17.2501 20 17.2501 20C17.2501 20 19.7501 25.6244 26.0001 25.6244C32.2501 25.6244 34.7501 20 34.7501 20C34.7501 20 32.2501 14.3744 26.0001 14.3744Z" stroke="white" stroke-width="0.9375" stroke-linecap="round" stroke-linejoin="round"/>
<path d="M26.0001 23.125C27.726 23.125 29.1251 21.7259 29.1251 20C29.1251 18.2742 27.726 16.875 26.0001 16.875C24.2742 16.875 22.8751 18.2742 22.8751 20C22.8751 21.7259 24.2742 23.125 26.0001 23.125Z" stroke="white" stroke-width="0.9375" stroke-linecap="round" stroke-linejoin="round"/>
<rect x="48.0001" width="117" height="40" rx="20" fill="url(#paint0_linear_2153_1181)"/>
<path d="M71.0753 17.042L70.7266 18.3682H64.2803L64.6358 17.042H71.0753ZM67.7735 24.5L64.4786 20.5967L64.4717 19.4277H66.0782C66.4519 19.4277 66.7595 19.3548 67.001 19.209C67.2426 19.0632 67.4226 18.8672 67.5411 18.6211C67.6596 18.3704 67.7188 18.0924 67.7188 17.7871C67.7188 17.4681 67.6641 17.1855 67.5547 16.9395C67.4454 16.6934 67.2699 16.502 67.0284 16.3652C66.7868 16.224 66.4656 16.1533 66.0645 16.1533H64.2872L64.6905 14.5469H66.0645C66.8848 14.5469 67.5684 14.6699 68.1153 14.916C68.6622 15.1621 69.0723 15.5176 69.3458 15.9824C69.6192 16.4427 69.7559 17.001 69.7559 17.6572C69.7559 18.2314 69.6648 18.735 69.4825 19.168C69.3002 19.6009 69.0108 19.9587 68.6143 20.2412C68.2178 20.5192 67.696 20.7152 67.0489 20.8291L70.0157 24.4043V24.5H67.7735ZM71.0889 14.5469L70.7335 15.8662H65.3946L65.7501 14.5469H71.0889ZM77.2075 24.5V16.408H75.9755L76.4375 14.7H78.9155V24.5H77.2075ZM80.8766 25.284L81.3106 22.918H83.0186L82.0176 25.284H80.8766ZM84.6976 24.5V22.974C85.001 22.7453 85.3603 22.463 85.7756 22.127C86.191 21.7863 86.618 21.42 87.0566 21.028C87.4953 20.6313 87.9013 20.2347 88.2746 19.838C88.648 19.4413 88.9513 19.0633 89.1846 18.704C89.4226 18.3447 89.5416 18.0367 89.5416 17.78C89.5416 17.4953 89.4716 17.2363 89.3316 17.003C89.1916 16.765 89.005 16.576 88.7716 16.436C88.543 16.296 88.2863 16.226 88.0016 16.226C87.717 16.226 87.458 16.296 87.2246 16.436C86.9913 16.576 86.8046 16.765 86.6646 17.003C86.5246 17.2363 86.4546 17.4953 86.4546 17.78H84.7466C84.7466 17.164 84.896 16.611 85.1946 16.121C85.4933 15.6263 85.8876 15.2367 86.3776 14.952C86.8723 14.6627 87.4136 14.518 88.0016 14.518C88.599 14.518 89.1426 14.665 89.6326 14.959C90.1226 15.2483 90.5146 15.6403 90.8086 16.135C91.1026 16.6297 91.2496 17.178 91.2496 17.78C91.2496 18.0973 91.1913 18.417 91.0746 18.739C90.958 19.061 90.7946 19.3853 90.5846 19.712C90.3746 20.0387 90.1273 20.37 89.8426 20.706C89.558 21.0373 89.243 21.378 88.8976 21.728C88.557 22.0733 88.1976 22.428 87.8196 22.792H91.2986V24.5H84.6976ZM96.2952 24.682C95.7259 24.682 95.2079 24.5513 94.7412 24.29C94.2746 24.024 93.8709 23.6577 93.5302 23.191C93.1942 22.7243 92.9352 22.1853 92.7532 21.574C92.5712 20.958 92.4802 20.3 92.4802 19.6C92.4802 18.9 92.5712 18.2443 92.7532 17.633C92.9352 17.017 93.1942 16.4757 93.5302 16.009C93.8709 15.5423 94.2746 15.1783 94.7412 14.917C95.2079 14.651 95.7259 14.518 96.2952 14.518C96.8646 14.518 97.3826 14.651 97.8492 14.917C98.3159 15.1783 98.7149 15.5423 99.0462 16.009C99.3822 16.4757 99.6412 17.017 99.8232 17.633C100.01 18.2443 100.103 18.9 100.103 19.6C100.103 20.3 100.01 20.958 99.8232 21.574C99.6412 22.1853 99.3822 22.7243 99.0462 23.191C98.7149 23.6577 98.3159 24.024 97.8492 24.29C97.3826 24.5513 96.8646 24.682 96.2952 24.682ZM96.2952 22.974C96.7946 22.974 97.2076 22.8153 97.5342 22.498C97.8609 22.1807 98.1036 21.7653 98.2622 21.252C98.4209 20.7387 98.5002 20.188 98.5002 19.6C98.5002 18.9793 98.4162 18.4147 98.2482 17.906C98.0802 17.3927 97.8329 16.9843 97.5062 16.681C97.1796 16.3777 96.7759 16.226 96.2952 16.226C95.9172 16.226 95.5882 16.3193 95.3082 16.506C95.0329 16.688 94.8042 16.9377 94.6222 17.255C94.4402 17.5723 94.3049 17.934 94.2162 18.34C94.1276 18.7413 94.0832 19.1613 94.0832 19.6C94.0832 20.1833 94.1626 20.734 94.3212 21.252C94.4846 21.7653 94.7296 22.1807 95.0562 22.498C95.3876 22.8153 95.8006 22.974 96.2952 22.974ZM101.363 25.284L101.797 22.918H103.505L102.504 25.284H101.363ZM108.201 24.682C107.608 24.682 107.074 24.542 106.598 24.262C106.122 23.982 105.744 23.6063 105.464 23.135C105.184 22.659 105.044 22.1317 105.044 21.553H106.752C106.752 21.8143 106.813 22.0523 106.934 22.267C107.06 22.4817 107.233 22.6543 107.452 22.785C107.671 22.911 107.921 22.974 108.201 22.974C108.458 22.974 108.696 22.911 108.915 22.785C109.139 22.6543 109.319 22.4817 109.454 22.267C109.589 22.0523 109.657 21.8143 109.657 21.553C109.657 21.2123 109.566 20.93 109.384 20.706C109.202 20.4773 108.948 20.307 108.621 20.195C108.299 20.083 107.923 20.027 107.494 20.027V18.711C108.073 18.711 108.53 18.6013 108.866 18.382C109.207 18.1627 109.377 17.8407 109.377 17.416C109.377 17.1967 109.321 16.996 109.209 16.814C109.097 16.632 108.948 16.4873 108.761 16.38C108.579 16.268 108.378 16.212 108.159 16.212C107.935 16.212 107.718 16.268 107.508 16.38C107.298 16.4873 107.125 16.632 106.99 16.814C106.859 16.996 106.794 17.1967 106.794 17.416H105.086C105.086 17.0147 105.168 16.639 105.331 16.289C105.494 15.9343 105.718 15.624 106.003 15.358C106.292 15.092 106.619 14.8843 106.983 14.735C107.352 14.581 107.737 14.504 108.138 14.504C108.665 14.504 109.153 14.6347 109.601 14.896C110.049 15.1573 110.408 15.5073 110.679 15.946C110.95 16.3847 111.085 16.8747 111.085 17.416C111.085 17.794 110.996 18.165 110.819 18.529C110.642 18.893 110.39 19.1497 110.063 19.299C110.348 19.4017 110.586 19.5743 110.777 19.817C110.968 20.055 111.113 20.328 111.211 20.636C111.314 20.9393 111.365 21.245 111.365 21.553C111.365 22.127 111.22 22.652 110.931 23.128C110.642 23.5993 110.257 23.9773 109.776 24.262C109.3 24.542 108.775 24.682 108.201 24.682ZM116.8 24.5V22.127H112.628V20.412L116.401 14.7H118.508V20.419H119.334V22.127H118.508V24.5H116.8ZM114.609 20.412L116.8 20.419L116.793 17.031L114.609 20.412ZM125.188 24.5V22.127H121.016V20.412L124.789 14.7H126.896V20.419H127.722V22.127H126.896V24.5H125.188ZM122.997 20.412L125.188 20.419L125.181 17.031L122.997 20.412Z" fill="white"/>
<path d="M147.875 15.625H135.375C135.209 15.625 135.05 15.5592 134.933 15.4419C134.816 15.3247 134.75 15.1658 134.75 15C134.75 14.8342 134.816 14.6753 134.933 14.5581C135.05 14.4408 135.209 14.375 135.375 14.375H146C146.166 14.375 146.325 14.3092 146.442 14.1919C146.559 14.0747 146.625 13.9158 146.625 13.75C146.625 13.5842 146.559 13.4253 146.442 13.3081C146.325 13.1908 146.166 13.125 146 13.125H135.375C134.878 13.1256 134.401 13.3233 134.05 13.6748C133.698 14.0263 133.501 14.5029 133.5 15V25C133.501 25.4971 133.698 25.9737 134.05 26.3252C134.401 26.6767 134.878 26.8744 135.375 26.875H147.875C148.206 26.8746 148.524 26.7428 148.759 26.5085C148.993 26.2741 149.125 25.9564 149.125 25.625V16.875C149.125 16.5436 148.993 16.2259 148.759 15.9915C148.524 15.7572 148.206 15.6254 147.875 15.625Z" fill="white"/>
<path d="M141.498 18.999V23.999" stroke="#26B65E" stroke-linecap="round"/>
<path d="M143.998 21.499L138.998 21.499" stroke="#26B65E" stroke-linecap="round"/>
<defs>
<linearGradient id="paint0_linear_2153_1181" x1="106.5" y1="0" x2="106.5" y2="40" gradientUnits="userSpaceOnUse">
<stop stop-color="#1EB85A"/>
<stop offset="1" stop-color="#16A54D"/>
</linearGradient>
</defs>
</svg>
