<svg width="24" height="24" viewBox="0 0 24 24" fill="none" xmlns="http://www.w3.org/2000/svg">
<path d="M12 15C14.0711 15 15.75 13.3211 15.75 11.25C15.75 9.17893 14.0711 7.5 12 7.5C9.92893 7.5 8.25 9.17893 8.25 11.25C8.25 13.3211 9.92893 15 12 15Z" stroke="#FAFBFC" stroke-width="1.5" stroke-linecap="round" stroke-linejoin="round"/>
<path d="M20.25 4.5H3.75C3.33579 4.5 3 4.83579 3 5.25V18.75C3 19.1642 3.33579 19.5 3.75 19.5H20.25C20.6642 19.5 21 19.1642 21 18.75V5.25C21 4.83579 20.6642 4.5 20.25 4.5Z" stroke="#FAFBFC" stroke-width="1.5" stroke-linecap="round" stroke-linejoin="round"/>
<path d="M5.63425 19.4996C6.10006 18.1836 6.96229 17.0443 8.10228 16.2385C9.24227 15.4327 10.604 15 12 15C13.396 15 14.7577 15.4327 15.8977 16.2385C17.0377 17.0443 17.9 18.1836 18.3658 19.4996" stroke="#FAFBFC" stroke-width="1.5" stroke-linecap="round" stroke-linejoin="round"/>
</svg>
