<svg width="24" height="25" viewBox="0 0 24 25" fill="none" xmlns="http://www.w3.org/2000/svg">
<path d="M8.71127 15.9433C9.59693 15.0973 10.7746 14.6253 11.9993 14.6253C13.2241 14.6253 14.4017 15.0973 15.2874 15.9433" stroke="white" stroke-width="1.5" stroke-linecap="round" stroke-linejoin="round"/>
<path d="M5.5293 12.7613C7.25895 11.0714 9.58115 10.1253 11.9993 10.1253C14.4175 10.1253 16.7397 11.0714 18.4694 12.7613" stroke="white" stroke-width="1.5" stroke-linecap="round" stroke-linejoin="round"/>
<path d="M2.34979 9.57933C4.92242 7.04553 8.38843 5.62527 11.9993 5.62527C15.6102 5.62527 19.0762 7.04553 21.6489 9.57933" stroke="white" stroke-width="1.5" stroke-linecap="round" stroke-linejoin="round"/>
<path d="M12.0001 20.25C12.6214 20.25 13.1251 19.7463 13.1251 19.125C13.1251 18.5037 12.6214 18 12.0001 18C11.3787 18 10.8751 18.5037 10.8751 19.125C10.8751 19.7463 11.3787 20.25 12.0001 20.25Z" stroke="white" stroke-width="1.5" stroke-linecap="round" stroke-linejoin="round"/>
</svg>
