<svg width="20" height="20" viewBox="0 0 20 20" fill="none" xmlns="http://www.w3.org/2000/svg">
<path d="M17.6455 8.03246C17.3508 7.72514 17.0461 7.40746 16.9309 7.12906C16.8251 6.87332 16.8187 6.44974 16.8125 6.04004C16.801 5.27763 16.7879 4.41353 16.1872 3.81279C15.5865 3.21205 14.7224 3.19901 13.96 3.18748C13.5503 3.1813 13.1267 3.1749 12.8709 3.06908C12.5926 2.95395 12.2749 2.64923 11.9675 2.35451C11.4278 1.83678 10.8158 1.25 10 1.25C9.18419 1.25 8.57231 1.83678 8.03246 2.35451C7.72514 2.64923 7.40746 2.95395 7.12906 3.06908C6.87332 3.1749 6.44974 3.1813 6.04004 3.18748C5.27763 3.19901 4.41353 3.21205 3.81279 3.81279C3.21205 4.41353 3.19901 5.27763 3.18748 6.04004C3.1813 6.44974 3.1749 6.87332 3.06908 7.12906C2.95395 7.40738 2.64923 7.72514 2.35451 8.03246C1.83678 8.57224 1.25 9.18419 1.25 10C1.25 10.8158 1.83678 11.4277 2.35451 11.9675C2.64923 12.2749 2.95395 12.5925 3.06908 12.8709C3.1749 13.1267 3.1813 13.5503 3.18748 13.96C3.19901 14.7224 3.21205 15.5865 3.81279 16.1872C4.41353 16.7879 5.27763 16.801 6.04004 16.8125C6.44974 16.8187 6.87332 16.8251 7.12906 16.9309C7.40738 17.0461 7.72514 17.3508 8.03246 17.6455C8.57224 18.1632 9.18419 18.75 10 18.75C10.8158 18.75 11.4277 18.1632 11.9675 17.6455C12.2749 17.3508 12.5925 17.0461 12.8709 16.9309C13.1267 16.8251 13.5503 16.8187 13.96 16.8125C14.7224 16.801 15.5865 16.7879 16.1872 16.1872C16.7879 15.5865 16.801 14.7224 16.8125 13.96C16.8187 13.5503 16.8251 13.1267 16.9309 12.8709C17.0461 12.5926 17.3508 12.2749 17.6455 11.9675C18.1632 11.4278 18.75 10.8158 18.75 10C18.75 9.18419 18.1632 8.57231 17.6455 8.03246ZM13.869 8.57712L9.28566 12.9521C9.1694 13.0631 9.01486 13.125 8.85414 13.125C8.69342 13.125 8.53888 13.0631 8.42262 12.9521L6.13098 10.7646C6.07157 10.708 6.02391 10.6402 5.99072 10.5651C5.95752 10.49 5.93944 10.4091 5.93751 10.327C5.93559 10.245 5.94984 10.1633 5.97948 10.0867C6.00911 10.0102 6.05354 9.94021 6.11022 9.88083C6.1669 9.82144 6.23472 9.7738 6.30982 9.74063C6.38492 9.70746 6.46581 9.68941 6.54788 9.68752C6.62996 9.68562 6.7116 9.69991 6.78815 9.72957C6.8647 9.75923 6.93465 9.80368 6.99402 9.86038L8.85414 11.636L13.006 7.67288C13.0653 7.61618 13.1353 7.57173 13.2119 7.54207C13.2884 7.51241 13.37 7.49812 13.4521 7.50002C13.5342 7.50191 13.6151 7.51996 13.6902 7.55313C13.7653 7.5863 13.8331 7.63394 13.8898 7.69332C13.9465 7.75271 13.9909 7.82268 14.0205 7.89924C14.0502 7.9758 14.0644 8.05745 14.0625 8.13952C14.0606 8.22159 14.0425 8.30248 14.0093 8.37757C13.9761 8.45265 13.9284 8.52046 13.869 8.57712Z" fill="#FAFBFC"/>
</svg>
