<svg width="20" height="20" viewBox="0 0 20 20" fill="none" xmlns="http://www.w3.org/2000/svg">
<path d="M10 13.75C12.0711 13.75 13.75 12.0711 13.75 10C13.75 7.92893 12.0711 6.25 10 6.25C7.92893 6.25 6.25 7.92893 6.25 10C6.25 12.0711 7.92893 13.75 10 13.75Z" stroke="url(#paint0_linear_1822_27534)" stroke-width="1.25" stroke-linecap="round" stroke-linejoin="round"/>
<path d="M14.3485 5.08481C14.5486 5.26202 14.7379 5.45123 14.9151 5.65138L17.0496 5.95619C17.3958 6.55896 17.6627 7.20389 17.8437 7.87501L16.5504 9.59937C16.5504 9.59937 16.5666 10.1337 16.5504 10.4005L17.8442 12.1254C17.6628 12.7964 17.3955 13.4412 17.0489 14.0437L14.9151 14.3485C14.9151 14.3485 14.5487 14.7378 14.3486 14.915L14.0438 17.0496C13.441 17.3957 12.7961 17.6626 12.125 17.8436L10.4007 16.5503C10.1339 16.5666 9.86632 16.5666 9.59948 16.5503L7.87459 17.8442C7.2036 17.6627 6.55884 17.3954 5.95631 17.0488L5.65156 14.9151C5.45141 14.7379 5.2622 14.5487 5.08498 14.3486L2.95043 14.0437C2.60427 13.441 2.33738 12.796 2.15638 12.1249L3.4497 10.4006C3.4497 10.4006 3.43343 9.86624 3.44965 9.59942L2.15582 7.87453C2.33728 7.20354 2.6046 6.55878 2.95116 5.95625L5.08487 5.6515C5.26208 5.45135 5.45129 5.26214 5.65144 5.08492L5.95625 2.95036C6.55902 2.60421 7.20396 2.33732 7.87507 2.15632L9.59932 3.4496C9.86616 3.43337 10.1337 3.43337 10.4006 3.44959L12.1255 2.15576C12.7965 2.33722 13.4412 2.60454 14.0437 2.9511L14.3485 5.08481Z" stroke="url(#paint1_linear_1822_27534)" stroke-width="1.25" stroke-linecap="round" stroke-linejoin="round"/>
<defs>
<linearGradient id="paint0_linear_1822_27534" x1="6.25" y1="6.25" x2="14.1577" y2="6.7078" gradientUnits="userSpaceOnUse">
<stop stop-color="#1EA5DF"/>
<stop offset="1" stop-color="#0167FF"/>
</linearGradient>
<linearGradient id="paint1_linear_1822_27534" x1="2.15582" y1="2.15576" x2="18.697" y2="3.11339" gradientUnits="userSpaceOnUse">
<stop stop-color="#1EA5DF"/>
<stop offset="1" stop-color="#0167FF"/>
</linearGradient>
</defs>
</svg>
