<svg width="20" height="20" viewBox="0 0 20 20" fill="none" xmlns="http://www.w3.org/2000/svg">
<path d="M17.4191 9.64722L9.9061 17.1602C9.67168 17.3946 9.35374 17.5263 9.02221 17.5263C8.69069 17.5263 8.37275 17.3946 8.13833 17.1602L1.50888 10.5308C1.3928 10.4147 1.30073 10.2769 1.23791 10.1252C1.17509 9.97359 1.14276 9.81104 1.14276 9.64689C1.14276 9.48274 1.17509 9.32019 1.23791 9.16854C1.30073 9.01688 1.3928 8.87908 1.50888 8.76301L9.02189 1.25L17.4191 9.64722Z" stroke="url(#paint0_linear_1822_31333)" stroke-width="1.25" stroke-linecap="round" stroke-linejoin="round"/>
<path d="M9.6875 10.6255C10.5504 10.6255 11.25 9.92593 11.25 9.06299C11.25 8.20004 10.5504 7.50049 9.6875 7.50049C8.82456 7.50049 8.125 8.20004 8.125 9.06299C8.125 9.92593 8.82456 10.6255 9.6875 10.6255Z" stroke="url(#paint1_linear_1822_31333)" stroke-width="1.25" stroke-linecap="round" stroke-linejoin="round"/>
<path d="M16.25 15.9375C16.25 14.3755 17.8125 12.8125 17.8125 12.8125C17.8125 12.8125 19.375 14.3755 19.375 15.9375C19.375 16.3519 19.2104 16.7493 18.9174 17.0424C18.6243 17.3354 18.2269 17.5 17.8125 17.5C17.3981 17.5 17.0007 17.3354 16.7076 17.0424C16.4146 16.7493 16.25 16.3519 16.25 15.9375V15.9375Z" stroke="url(#paint2_linear_1822_31333)" stroke-width="1.25" stroke-linecap="round" stroke-linejoin="round"/>
<path d="M8.58264 7.95801L2.95764 2.33301" stroke="url(#paint3_linear_1822_31333)" stroke-width="1.25" stroke-linecap="round" stroke-linejoin="round"/>
<defs>
<linearGradient id="paint0_linear_1822_31333" x1="1.14276" y1="1.25" x2="19.3566" y2="5.70275" gradientUnits="userSpaceOnUse">
<stop stop-color="#0ABDBD"/>
<stop offset="1" stop-color="#248080"/>
</linearGradient>
<linearGradient id="paint1_linear_1822_31333" x1="8.125" y1="7.50049" x2="11.622" y2="8.3554" gradientUnits="userSpaceOnUse">
<stop stop-color="#0ABDBD"/>
<stop offset="1" stop-color="#248080"/>
</linearGradient>
<linearGradient id="paint2_linear_1822_31333" x1="16.25" y1="12.8125" x2="19.8601" y2="13.4009" gradientUnits="userSpaceOnUse">
<stop stop-color="#0ABDBD"/>
<stop offset="1" stop-color="#248080"/>
</linearGradient>
<linearGradient id="paint3_linear_1822_31333" x1="2.95764" y1="2.33301" x2="9.25221" y2="3.87185" gradientUnits="userSpaceOnUse">
<stop stop-color="#0ABDBD"/>
<stop offset="1" stop-color="#248080"/>
</linearGradient>
</defs>
</svg>
