<svg width="19" height="18" viewBox="0 0 19 18" fill="none" xmlns="http://www.w3.org/2000/svg">
<mask id="path-1-inside-1_2912_9434" fill="white">
<path d="M17.9043 8.25006H10.4043V0.750061C10.4043 0.551149 10.3253 0.360383 10.1846 0.219731C10.044 0.0790788 9.85321 6.10352e-05 9.6543 6.10352e-05C9.45538 6.10352e-05 9.26462 0.0790788 9.12397 0.219731C8.98331 0.360383 8.9043 0.551149 8.9043 0.750061V8.25006H1.4043C1.20538 8.25006 1.01462 8.32908 0.873967 8.46973C0.733315 8.61038 0.654297 8.80115 0.654297 9.00006C0.654297 9.19897 0.733315 9.38974 0.873967 9.53039C1.01462 9.67104 1.20538 9.75006 1.4043 9.75006H8.9043V17.2501C8.9043 17.449 8.98331 17.6397 9.12397 17.7804C9.26462 17.921 9.45538 18.0001 9.6543 18.0001C9.85321 18.0001 10.044 17.921 10.1846 17.7804C10.3253 17.6397 10.4043 17.449 10.4043 17.2501V9.75006H17.9043C18.1032 9.75006 18.294 9.67104 18.4346 9.53039C18.5753 9.38974 18.6543 9.19897 18.6543 9.00006C18.6543 8.80115 18.5753 8.61038 18.4346 8.46973C18.294 8.32908 18.1032 8.25006 17.9043 8.25006Z"/>
</mask>
<path d="M17.9043 8.25006H10.4043V0.750061C10.4043 0.551149 10.3253 0.360383 10.1846 0.219731C10.044 0.0790788 9.85321 6.10352e-05 9.6543 6.10352e-05C9.45538 6.10352e-05 9.26462 0.0790788 9.12397 0.219731C8.98331 0.360383 8.9043 0.551149 8.9043 0.750061V8.25006H1.4043C1.20538 8.25006 1.01462 8.32908 0.873967 8.46973C0.733315 8.61038 0.654297 8.80115 0.654297 9.00006C0.654297 9.19897 0.733315 9.38974 0.873967 9.53039C1.01462 9.67104 1.20538 9.75006 1.4043 9.75006H8.9043V17.2501C8.9043 17.449 8.98331 17.6397 9.12397 17.7804C9.26462 17.921 9.45538 18.0001 9.6543 18.0001C9.85321 18.0001 10.044 17.921 10.1846 17.7804C10.3253 17.6397 10.4043 17.449 10.4043 17.2501V9.75006H17.9043C18.1032 9.75006 18.294 9.67104 18.4346 9.53039C18.5753 9.38974 18.6543 9.19897 18.6543 9.00006C18.6543 8.80115 18.5753 8.61038 18.4346 8.46973C18.294 8.32908 18.1032 8.25006 17.9043 8.25006Z" fill="#1A1C1F"/>
<path d="M10.4043 8.25006H8.9043V9.75006H10.4043V8.25006ZM9.6543 6.10352e-05V-1.49994V6.10352e-05ZM8.9043 8.25006V9.75006H10.4043V8.25006H8.9043ZM0.654297 9.00006H-0.845703H0.654297ZM8.9043 9.75006H10.4043V8.25006H8.9043V9.75006ZM10.4043 9.75006V8.25006H8.9043V9.75006H10.4043ZM17.9043 6.75006H10.4043V9.75006H17.9043V6.75006ZM11.9043 8.25006V0.750061H8.9043V8.25006H11.9043ZM11.9043 0.750061C11.9043 0.153327 11.6672 -0.41897 11.2453 -0.840929L9.12397 1.28039C8.98331 1.13974 8.9043 0.948971 8.9043 0.750061H11.9043ZM11.2453 -0.840929C10.8233 -1.26289 10.251 -1.49994 9.6543 -1.49994V1.50006C9.45539 1.50006 9.26462 1.42104 9.12397 1.28039L11.2453 -0.840929ZM9.6543 -1.49994C9.05756 -1.49994 8.48526 -1.26289 8.06331 -0.840929L10.1846 1.28039C10.044 1.42104 9.85321 1.50006 9.6543 1.50006V-1.49994ZM8.06331 -0.840929C7.64135 -0.418973 7.4043 0.153323 7.4043 0.750061H10.4043C10.4043 0.948974 10.3253 1.13974 10.1846 1.28039L8.06331 -0.840929ZM7.4043 0.750061V8.25006H10.4043V0.750061H7.4043ZM8.9043 6.75006H1.4043V9.75006H8.9043V6.75006ZM1.4043 6.75006C0.807559 6.75006 0.235263 6.98711 -0.186693 7.40907L1.93463 9.53039C1.79398 9.67104 1.60321 9.75006 1.4043 9.75006V6.75006ZM-0.186693 7.40907C-0.608649 7.83103 -0.845703 8.40332 -0.845703 9.00006H2.1543C2.1543 9.19897 2.07528 9.38974 1.93463 9.53039L-0.186693 7.40907ZM-0.845703 9.00006C-0.845703 9.5968 -0.60865 10.1691 -0.186693 10.5911L1.93463 8.46973C2.07528 8.61038 2.1543 8.80115 2.1543 9.00006H-0.845703ZM-0.186693 10.5911C0.235265 11.013 0.807562 11.2501 1.4043 11.2501V8.25006C1.60321 8.25006 1.79397 8.32908 1.93463 8.46973L-0.186693 10.5911ZM1.4043 11.2501H8.9043V8.25006H1.4043V11.2501ZM7.4043 9.75006V17.2501H10.4043V9.75006H7.4043ZM7.4043 17.2501C7.4043 17.8468 7.64135 18.4191 8.06331 18.8411L10.1846 16.7197C10.3253 16.8604 10.4043 17.0511 10.4043 17.2501H7.4043ZM8.06331 18.8411C8.48527 19.263 9.05756 19.5001 9.6543 19.5001V16.5001C9.85321 16.5001 10.044 16.5791 10.1846 16.7197L8.06331 18.8411ZM9.6543 19.5001C10.251 19.5001 10.8233 19.263 11.2453 18.8411L9.12397 16.7197C9.26462 16.5791 9.45539 16.5001 9.6543 16.5001V19.5001ZM11.2453 18.8411C11.6672 18.4191 11.9043 17.8468 11.9043 17.2501H8.9043C8.9043 17.0512 8.98331 16.8604 9.12397 16.7197L11.2453 18.8411ZM11.9043 17.2501V9.75006H8.9043V17.2501H11.9043ZM10.4043 11.2501H17.9043V8.25006H10.4043V11.2501ZM17.9043 11.2501C18.501 11.2501 19.0733 11.013 19.4953 10.5911L17.374 8.46973C17.5146 8.32908 17.7054 8.25006 17.9043 8.25006V11.2501ZM19.4953 10.5911C19.9172 10.1691 20.1543 9.59679 20.1543 9.00006H17.1543C17.1543 8.80115 17.2333 8.61039 17.374 8.46973L19.4953 10.5911ZM20.1543 9.00006C20.1543 8.40333 19.9172 7.83103 19.4953 7.40907L17.374 9.53039C17.2333 9.38974 17.1543 9.19897 17.1543 9.00006H20.1543ZM19.4953 7.40907C19.0733 6.98711 18.501 6.75006 17.9043 6.75006V9.75006C17.7054 9.75006 17.5146 9.67104 17.374 9.53039L19.4953 7.40907Z" fill="#959DA5" mask="url(#path-1-inside-1_2912_9434)"/>
</svg>
