<svg width="19" height="18" viewBox="0 0 19 18" fill="none" xmlns="http://www.w3.org/2000/svg">
<mask id="path-1-inside-1_2912_5898" fill="white">
<path d="M17.5957 8.25006H10.0957V0.750061C10.0957 0.551149 10.0167 0.360383 9.87603 0.219731C9.73538 0.0790788 9.54462 6.10352e-05 9.3457 6.10352e-05C9.14679 6.10352e-05 8.95603 0.0790788 8.81537 0.219731C8.67472 0.360383 8.5957 0.551149 8.5957 0.750061V8.25006H1.0957C0.896791 8.25006 0.706025 8.32908 0.565373 8.46973C0.424721 8.61038 0.345703 8.80115 0.345703 9.00006C0.345703 9.19897 0.424721 9.38974 0.565373 9.53039C0.706025 9.67104 0.896791 9.75006 1.0957 9.75006H8.5957V17.2501C8.5957 17.449 8.67472 17.6397 8.81537 17.7804C8.95603 17.921 9.14679 18.0001 9.3457 18.0001C9.54462 18.0001 9.73538 17.921 9.87603 17.7804C10.0167 17.6397 10.0957 17.449 10.0957 17.2501V9.75006H17.5957C17.7946 9.75006 17.9854 9.67104 18.126 9.53039C18.2667 9.38974 18.3457 9.19897 18.3457 9.00006C18.3457 8.80115 18.2667 8.61038 18.126 8.46973C17.9854 8.32908 17.7946 8.25006 17.5957 8.25006Z"/>
</mask>
<path d="M17.5957 8.25006H10.0957V0.750061C10.0957 0.551149 10.0167 0.360383 9.87603 0.219731C9.73538 0.0790788 9.54462 6.10352e-05 9.3457 6.10352e-05C9.14679 6.10352e-05 8.95603 0.0790788 8.81537 0.219731C8.67472 0.360383 8.5957 0.551149 8.5957 0.750061V8.25006H1.0957C0.896791 8.25006 0.706025 8.32908 0.565373 8.46973C0.424721 8.61038 0.345703 8.80115 0.345703 9.00006C0.345703 9.19897 0.424721 9.38974 0.565373 9.53039C0.706025 9.67104 0.896791 9.75006 1.0957 9.75006H8.5957V17.2501C8.5957 17.449 8.67472 17.6397 8.81537 17.7804C8.95603 17.921 9.14679 18.0001 9.3457 18.0001C9.54462 18.0001 9.73538 17.921 9.87603 17.7804C10.0167 17.6397 10.0957 17.449 10.0957 17.2501V9.75006H17.5957C17.7946 9.75006 17.9854 9.67104 18.126 9.53039C18.2667 9.38974 18.3457 9.19897 18.3457 9.00006C18.3457 8.80115 18.2667 8.61038 18.126 8.46973C17.9854 8.32908 17.7946 8.25006 17.5957 8.25006Z" fill="#1A1C1F"/>
<path d="M10.0957 8.25006H8.5957V9.75006H10.0957V8.25006ZM9.3457 6.10352e-05V-1.49994V6.10352e-05ZM8.5957 8.25006V9.75006H10.0957V8.25006H8.5957ZM0.345703 9.00006H-1.1543H0.345703ZM8.5957 9.75006H10.0957V8.25006H8.5957V9.75006ZM10.0957 9.75006V8.25006H8.5957V9.75006H10.0957ZM17.5957 6.75006H10.0957V9.75006H17.5957V6.75006ZM11.5957 8.25006V0.750061H8.5957V8.25006H11.5957ZM11.5957 0.750061C11.5957 0.153327 11.3587 -0.41897 10.9367 -0.840929L8.81537 1.28039C8.67472 1.13974 8.5957 0.948971 8.5957 0.750061H11.5957ZM10.9367 -0.840929C10.5147 -1.26289 9.94244 -1.49994 9.3457 -1.49994V1.50006C9.14679 1.50006 8.95603 1.42104 8.81537 1.28039L10.9367 -0.840929ZM9.3457 -1.49994C8.74897 -1.49994 8.17667 -1.26289 7.75471 -0.840929L9.87603 1.28039C9.73538 1.42104 9.54462 1.50006 9.3457 1.50006V-1.49994ZM7.75471 -0.840929C7.33276 -0.418973 7.0957 0.153323 7.0957 0.750061H10.0957C10.0957 0.948974 10.0167 1.13974 9.87603 1.28039L7.75471 -0.840929ZM7.0957 0.750061V8.25006H10.0957V0.750061H7.0957ZM8.5957 6.75006H1.0957V9.75006H8.5957V6.75006ZM1.0957 6.75006C0.498965 6.75006 -0.0733309 6.98711 -0.495287 7.40907L1.62603 9.53039C1.48538 9.67104 1.29462 9.75006 1.0957 9.75006V6.75006ZM-0.495287 7.40907C-0.917243 7.83103 -1.1543 8.40332 -1.1543 9.00006H1.8457C1.8457 9.19897 1.76668 9.38974 1.62603 9.53039L-0.495287 7.40907ZM-1.1543 9.00006C-1.1543 9.5968 -0.917244 10.1691 -0.495287 10.5911L1.62603 8.46973C1.76669 8.61038 1.8457 8.80115 1.8457 9.00006H-1.1543ZM-0.495287 10.5911C-0.0733283 11.013 0.498969 11.2501 1.0957 11.2501V8.25006C1.29461 8.25006 1.48538 8.32908 1.62603 8.46973L-0.495287 10.5911ZM1.0957 11.2501H8.5957V8.25006H1.0957V11.2501ZM7.0957 9.75006V17.2501H10.0957V9.75006H7.0957ZM7.0957 17.2501C7.0957 17.8468 7.33276 18.4191 7.75471 18.8411L9.87603 16.7197C10.0167 16.8604 10.0957 17.0511 10.0957 17.2501H7.0957ZM7.75471 18.8411C8.17667 19.263 8.74897 19.5001 9.3457 19.5001V16.5001C9.54461 16.5001 9.73538 16.5791 9.87603 16.7197L7.75471 18.8411ZM9.3457 19.5001C9.94244 19.5001 10.5147 19.263 10.9367 18.8411L8.81537 16.7197C8.95603 16.5791 9.1468 16.5001 9.3457 16.5001V19.5001ZM10.9367 18.8411C11.3587 18.4191 11.5957 17.8468 11.5957 17.2501H8.5957C8.5957 17.0512 8.67472 16.8604 8.81537 16.7197L10.9367 18.8411ZM11.5957 17.2501V9.75006H8.5957V17.2501H11.5957ZM10.0957 11.2501H17.5957V8.25006H10.0957V11.2501ZM17.5957 11.2501C18.1924 11.2501 18.7647 11.013 19.1867 10.5911L17.0654 8.46973C17.206 8.32908 17.3968 8.25006 17.5957 8.25006V11.2501ZM19.1867 10.5911C19.6087 10.1691 19.8457 9.59679 19.8457 9.00006H16.8457C16.8457 8.80115 16.9247 8.61039 17.0654 8.46973L19.1867 10.5911ZM19.8457 9.00006C19.8457 8.40333 19.6087 7.83103 19.1867 7.40907L17.0654 9.53039C16.9247 9.38974 16.8457 9.19897 16.8457 9.00006H19.8457ZM19.1867 7.40907C18.7647 6.98711 18.1924 6.75006 17.5957 6.75006V9.75006C17.3968 9.75006 17.206 9.67104 17.0654 9.53039L19.1867 7.40907Z" fill="url(#paint0_linear_2912_5898)" mask="url(#path-1-inside-1_2912_5898)"/>
<defs>
<linearGradient id="paint0_linear_2912_5898" x1="0.345703" y1="6.10352e-05" x2="11.0564" y2="-3.61237" gradientUnits="userSpaceOnUse">
<stop stop-color="#E1313C"/>
<stop offset="1" stop-color="#CB1B26"/>
</linearGradient>
</defs>
</svg>
