<svg width="20" height="20" viewBox="0 0 20 20" fill="none" xmlns="http://www.w3.org/2000/svg">
<path d="M3.125 5V15C3.125 15.3315 3.2567 15.6495 3.49112 15.8839C3.72554 16.1183 4.04348 16.25 4.375 16.25H16.875C17.0408 16.25 17.1997 16.1842 17.3169 16.0669C17.4342 15.9497 17.5 15.7908 17.5 15.625V6.875C17.5 6.70924 17.4342 6.55027 17.3169 6.43306C17.1997 6.31585 17.0408 6.25 16.875 6.25H4.375C4.04348 6.25 3.72554 6.1183 3.49112 5.88388C3.2567 5.64946 3.125 5.33152 3.125 5ZM3.125 5C3.125 4.66848 3.2567 4.35054 3.49112 4.11612C3.72554 3.8817 4.04348 3.75 4.375 3.75H15" stroke="url(#paint0_linear_1822_29157)" stroke-width="1.25" stroke-linecap="round" stroke-linejoin="round"/>
<path d="M14.375 11.25C14.375 11.4226 14.2351 11.5625 14.0625 11.5625C13.8899 11.5625 13.75 11.4226 13.75 11.25C13.75 11.0774 13.8899 10.9375 14.0625 10.9375C14.2351 10.9375 14.375 11.0774 14.375 11.25Z" fill="url(#paint1_linear_1822_29157)" stroke="url(#paint2_linear_1822_29157)" stroke-width="1.25"/>
<defs>
<linearGradient id="paint0_linear_1822_29157" x1="3.125" y1="3.75" x2="15.5039" y2="17.9857" gradientUnits="userSpaceOnUse">
<stop stop-color="#FF9B55"/>
<stop offset="1" stop-color="#DA4F23"/>
</linearGradient>
<linearGradient id="paint1_linear_1822_29157" x1="13.125" y1="10.3125" x2="15" y2="12.1875" gradientUnits="userSpaceOnUse">
<stop stop-color="#FF9B55"/>
<stop offset="1" stop-color="#DA4F23"/>
</linearGradient>
<linearGradient id="paint2_linear_1822_29157" x1="13.125" y1="10.3125" x2="15" y2="12.1875" gradientUnits="userSpaceOnUse">
<stop stop-color="#FF9B55"/>
<stop offset="1" stop-color="#DA4F23"/>
</linearGradient>
</defs>
</svg>
