<svg width="15" height="18" viewBox="0 0 15 18" fill="none" xmlns="http://www.w3.org/2000/svg">
<mask id="path-1-inside-1_3404_3907" fill="white">
<path d="M14.3794 8.55796C14.4965 8.67524 14.5623 8.83425 14.5622 9.00001C14.5621 9.16576 14.4961 9.32469 14.3788 9.44182L7.96844 15.8439C7.56216 16.2501 7.07985 16.5723 6.54904 16.7922C6.01822 17.012 5.44931 17.1252 4.87478 17.1251C3.71445 17.1251 2.60168 16.6641 1.78125 15.8436C0.960818 15.023 0.499939 13.9102 0.5 12.7499C0.500061 11.5896 0.961056 10.4768 1.78157 9.65636L9.53693 1.79305C9.82682 1.50228 10.1712 1.2715 10.5503 1.11388C10.9294 0.956264 11.3359 0.874904 11.7465 0.874453C12.1571 0.874001 12.5637 0.954466 12.9432 1.11125C13.3227 1.26803 13.6675 1.49806 13.9581 1.78819C14.2486 2.07831 14.4791 2.42285 14.6364 2.8021C14.7937 3.18136 14.8748 3.58789 14.8749 3.99848C14.875 4.40907 14.7942 4.81565 14.6371 5.195C14.48 5.57435 14.2497 5.91902 13.9594 6.20932L6.20399 14.0727C6.03013 14.2472 5.82358 14.3857 5.59616 14.4804C5.36874 14.575 5.1249 14.6239 4.87857 14.6243C4.63224 14.6246 4.38825 14.5765 4.16055 14.4825C3.93285 14.3885 3.7259 14.2506 3.55152 14.0766C3.37714 13.9027 3.23875 13.696 3.14426 13.4685C3.04977 13.2411 3.00103 12.9972 3.00082 12.7509C3.00062 12.5045 3.04896 12.2606 3.14308 12.0329C3.23719 11.8053 3.37525 11.5984 3.54934 11.4242L10.0541 4.81131C10.1704 4.69314 10.3288 4.62599 10.4946 4.62463C10.6603 4.62327 10.8198 4.68782 10.938 4.80406C11.0562 4.92031 11.1233 5.07874 11.1247 5.2445C11.126 5.41025 11.0615 5.56976 10.9452 5.68793L4.43683 12.3044C4.37809 12.3621 4.33132 12.4309 4.29922 12.5067C4.26711 12.5825 4.25031 12.6639 4.24977 12.7462C4.24922 12.8286 4.26495 12.9102 4.29605 12.9864C4.32715 13.0627 4.37301 13.132 4.43098 13.1905C4.48896 13.2489 4.55792 13.2954 4.63389 13.3271C4.70987 13.3588 4.79136 13.3752 4.8737 13.3754C4.95603 13.3755 5.03758 13.3594 5.11366 13.3279C5.18975 13.2964 5.25886 13.2502 5.31703 13.192L13.0725 5.32851C13.2471 5.15467 13.3858 4.94812 13.4805 4.72066C13.5753 4.4932 13.6243 4.24929 13.6247 4.00288C13.6251 3.75647 13.577 3.51239 13.483 3.2846C13.389 3.05681 13.2511 2.84978 13.077 2.67534C12.903 2.50091 12.6963 2.36249 12.4687 2.26799C12.2411 2.1735 11.9972 2.1248 11.7508 2.12466C11.5044 2.12452 11.2603 2.17296 11.0327 2.26719C10.805 2.36143 10.5981 2.49962 10.4239 2.67386L2.66849 10.5372C2.37772 10.8271 2.14693 11.1714 1.98931 11.5506C1.83169 11.9297 1.75033 12.3362 1.74988 12.7468C1.74943 13.1574 1.8299 13.564 1.98668 13.9435C2.14347 14.323 2.3735 14.6678 2.66363 14.9584C2.95376 15.2489 3.2983 15.4794 3.67756 15.6367C4.05682 15.7941 4.46337 15.8751 4.87396 15.8752C5.28455 15.8753 5.69115 15.7946 6.0705 15.6375C6.44986 15.4804 6.79454 15.2501 7.08484 14.9597L13.4955 8.55742C13.5536 8.49941 13.6225 8.4534 13.6984 8.42203C13.7742 8.39066 13.8555 8.37453 13.9376 8.37458C14.0197 8.37463 14.1009 8.39085 14.1767 8.42232C14.2526 8.45378 14.3214 8.49987 14.3794 8.55796V8.55796Z"/>
</mask>
<path d="M14.3794 8.55796C14.4965 8.67524 14.5623 8.83425 14.5622 9.00001C14.5621 9.16576 14.4961 9.32469 14.3788 9.44182L7.96844 15.8439C7.56216 16.2501 7.07985 16.5723 6.54904 16.7922C6.01822 17.012 5.44931 17.1252 4.87478 17.1251C3.71445 17.1251 2.60168 16.6641 1.78125 15.8436C0.960818 15.023 0.499939 13.9102 0.5 12.7499C0.500061 11.5896 0.961056 10.4768 1.78157 9.65636L9.53693 1.79305C9.82682 1.50228 10.1712 1.2715 10.5503 1.11388C10.9294 0.956264 11.3359 0.874904 11.7465 0.874453C12.1571 0.874001 12.5637 0.954466 12.9432 1.11125C13.3227 1.26803 13.6675 1.49806 13.9581 1.78819C14.2486 2.07831 14.4791 2.42285 14.6364 2.8021C14.7937 3.18136 14.8748 3.58789 14.8749 3.99848C14.875 4.40907 14.7942 4.81565 14.6371 5.195C14.48 5.57435 14.2497 5.91902 13.9594 6.20932L6.20399 14.0727C6.03013 14.2472 5.82358 14.3857 5.59616 14.4804C5.36874 14.575 5.1249 14.6239 4.87857 14.6243C4.63224 14.6246 4.38825 14.5765 4.16055 14.4825C3.93285 14.3885 3.7259 14.2506 3.55152 14.0766C3.37714 13.9027 3.23875 13.696 3.14426 13.4685C3.04977 13.2411 3.00103 12.9972 3.00082 12.7509C3.00062 12.5045 3.04896 12.2606 3.14308 12.0329C3.23719 11.8053 3.37525 11.5984 3.54934 11.4242L10.0541 4.81131C10.1704 4.69314 10.3288 4.62599 10.4946 4.62463C10.6603 4.62327 10.8198 4.68782 10.938 4.80406C11.0562 4.92031 11.1233 5.07874 11.1247 5.2445C11.126 5.41025 11.0615 5.56976 10.9452 5.68793L4.43683 12.3044C4.37809 12.3621 4.33132 12.4309 4.29922 12.5067C4.26711 12.5825 4.25031 12.6639 4.24977 12.7462C4.24922 12.8286 4.26495 12.9102 4.29605 12.9864C4.32715 13.0627 4.37301 13.132 4.43098 13.1905C4.48896 13.2489 4.55792 13.2954 4.63389 13.3271C4.70987 13.3588 4.79136 13.3752 4.8737 13.3754C4.95603 13.3755 5.03758 13.3594 5.11366 13.3279C5.18975 13.2964 5.25886 13.2502 5.31703 13.192L13.0725 5.32851C13.2471 5.15467 13.3858 4.94812 13.4805 4.72066C13.5753 4.4932 13.6243 4.24929 13.6247 4.00288C13.6251 3.75647 13.577 3.51239 13.483 3.2846C13.389 3.05681 13.2511 2.84978 13.077 2.67534C12.903 2.50091 12.6963 2.36249 12.4687 2.26799C12.2411 2.1735 11.9972 2.1248 11.7508 2.12466C11.5044 2.12452 11.2603 2.17296 11.0327 2.26719C10.805 2.36143 10.5981 2.49962 10.4239 2.67386L2.66849 10.5372C2.37772 10.8271 2.14693 11.1714 1.98931 11.5506C1.83169 11.9297 1.75033 12.3362 1.74988 12.7468C1.74943 13.1574 1.8299 13.564 1.98668 13.9435C2.14347 14.323 2.3735 14.6678 2.66363 14.9584C2.95376 15.2489 3.2983 15.4794 3.67756 15.6367C4.05682 15.7941 4.46337 15.8751 4.87396 15.8752C5.28455 15.8753 5.69115 15.7946 6.0705 15.6375C6.44986 15.4804 6.79454 15.2501 7.08484 14.9597L13.4955 8.55742C13.5536 8.49941 13.6225 8.4534 13.6984 8.42203C13.7742 8.39066 13.8555 8.37453 13.9376 8.37458C14.0197 8.37463 14.1009 8.39085 14.1767 8.42232C14.2526 8.45378 14.3214 8.49987 14.3794 8.55796V8.55796Z" fill="#1A1C1F"/>
<path d="M14.3788 9.44182L15.2622 10.3263L15.2622 10.3263L14.3788 9.44182ZM7.96844 15.8439L7.08513 14.9594L7.0846 14.9599L7.96844 15.8439ZM4.87478 17.1251L4.87484 15.8751L4.87478 17.1251ZM1.78157 9.65636L2.66543 10.5403L2.67154 10.5341L1.78157 9.65636ZM9.53693 1.79305L8.65171 0.910478L8.64696 0.915295L9.53693 1.79305ZM13.9594 6.20932L13.0756 5.32533L13.0694 5.33157L13.9594 6.20932ZM6.20399 14.0727L7.08949 14.955L7.09397 14.9505L6.20399 14.0727ZM3.54934 11.4242L4.43368 12.3076L4.44048 12.3007L3.54934 11.4242ZM10.0541 4.81131L9.16302 3.93471L9.16299 3.93474L10.0541 4.81131ZM10.9452 5.68793L10.0541 4.81132L10.0541 4.81136L10.9452 5.68793ZM4.43683 12.3044L5.31267 13.1963L5.32038 13.1887L5.32796 13.181L4.43683 12.3044ZM5.31703 13.192L6.20161 14.0752L6.20701 14.0697L5.31703 13.192ZM13.0725 5.32851L12.1906 4.44255L12.1825 4.45076L13.0725 5.32851ZM10.4239 2.67386L9.53996 1.78998L9.53391 1.7961L10.4239 2.67386ZM2.66849 10.5372L3.55108 11.4224L3.55846 11.4149L2.66849 10.5372ZM7.08484 14.9597L6.20154 14.0752L6.20087 14.0759L7.08484 14.9597ZM13.4955 8.55742L14.3788 9.44189L14.379 9.44169L13.4955 8.55742ZM13.4949 9.44125C13.3778 9.32397 13.3121 9.16496 13.3122 8.9992L15.8122 9.00082C15.8125 8.50354 15.6153 8.02652 15.2639 7.67466L13.4949 9.44125ZM13.3122 8.9992C13.3123 8.83344 13.3782 8.67452 13.4955 8.55738L15.2622 10.3263C15.614 9.97486 15.8119 9.49808 15.8122 9.00082L13.3122 8.9992ZM13.4955 8.55736L7.08513 14.9594L8.85175 16.7283L15.2622 10.3263L13.4955 8.55736ZM7.0846 14.9599C6.7944 15.2501 6.44989 15.4803 6.07074 15.6373L7.02733 17.9471C7.7098 17.6644 8.32992 17.2501 8.85228 16.7278L7.0846 14.9599ZM6.07074 15.6373C5.69159 15.7943 5.28522 15.8751 4.87484 15.8751L4.87471 18.3751C5.6134 18.3752 6.34486 18.2297 7.02733 17.9471L6.07074 15.6373ZM4.87484 15.8751C4.04604 15.8751 3.2512 15.5458 2.66518 14.9597L0.897317 16.7274C1.95216 17.7823 3.38287 18.375 4.87471 18.3751L4.87484 15.8751ZM2.66518 14.9597C2.07916 14.3736 1.74996 13.5788 1.75 12.75L-0.75 12.7498C-0.750078 14.2417 -0.15752 15.6724 0.897317 16.7274L2.66518 14.9597ZM1.75 12.75C1.75004 11.9212 2.07933 11.1263 2.66541 10.5403L0.897734 8.77243C-0.157214 9.82727 -0.749922 11.258 -0.75 12.7498L1.75 12.75ZM2.67154 10.5341L10.4269 2.6708L8.64696 0.915295L0.8916 8.77861L2.67154 10.5341ZM10.4221 2.6756C10.5961 2.50115 10.8027 2.36268 11.0302 2.26811L10.0704 -0.0403455C9.53966 0.18032 9.05757 0.50342 8.65172 0.910491L10.4221 2.6756ZM11.0302 2.26811C11.2576 2.17354 11.5015 2.12472 11.7479 2.12445L11.7451 -0.375547C11.1703 -0.374915 10.6012 -0.261011 10.0704 -0.0403455L11.0302 2.26811ZM11.7479 2.12445C11.9942 2.12418 12.2382 2.17246 12.4659 2.26653L13.4205 -0.0440293C12.8892 -0.263527 12.3199 -0.376179 11.7451 -0.375547L11.7479 2.12445ZM12.4659 2.26653C12.6936 2.3606 12.9005 2.49861 13.0748 2.67269L14.8413 0.903685C14.4346 0.497508 13.9518 0.175468 13.4205 -0.0440293L12.4659 2.26653ZM13.0748 2.67269C13.2491 2.84676 13.3874 3.05348 13.4818 3.28103L15.791 2.32317C15.5708 1.79221 15.2481 1.30986 14.8413 0.903685L13.0748 2.67269ZM13.4818 3.28103C13.5762 3.50858 13.6248 3.7525 13.6249 3.99885L16.1249 3.99811C16.1247 3.42328 16.0113 2.85413 15.791 2.32317L13.4818 3.28103ZM13.6249 3.99885C13.625 4.2452 13.5765 4.48915 13.4822 4.71676L15.792 5.67324C16.012 5.14215 16.1251 4.57293 16.1249 3.99811L13.6249 3.99885ZM13.4822 4.71676C13.388 4.94437 13.2498 5.15117 13.0756 5.32535L14.8432 7.09329C15.2497 6.68687 15.5721 6.20433 15.792 5.67324L13.4822 4.71676ZM13.0694 5.33157L5.31402 13.195L7.09397 14.9505L14.8494 7.08707L13.0694 5.33157ZM5.31851 13.1904C5.26055 13.2486 5.19171 13.2948 5.1159 13.3263L6.07642 15.6344C6.45546 15.4767 6.7997 15.2458 7.08948 14.955L5.31851 13.1904ZM5.1159 13.3263C5.0401 13.3579 4.95882 13.3742 4.87672 13.3743L4.88042 15.8743C5.29097 15.8737 5.69738 15.7922 6.07642 15.6344L5.1159 13.3263ZM4.87672 13.3743C4.79461 13.3744 4.71328 13.3583 4.63739 13.327L3.68372 15.638C4.06323 15.7946 4.46988 15.8749 4.88042 15.8743L4.87672 13.3743ZM4.63739 13.327C4.56149 13.2957 4.49251 13.2497 4.43438 13.1917L2.66865 14.9615C2.95929 15.2515 3.30421 15.4814 3.68372 15.638L4.63739 13.327ZM4.43438 13.1917C4.37626 13.1337 4.33013 13.0649 4.29863 12.9891L1.98988 13.948C2.14736 14.3272 2.37802 14.6716 2.66865 14.9615L4.43438 13.1917ZM4.29863 12.9891C4.26714 12.9132 4.25089 12.8319 4.25082 12.7498L1.75083 12.7519C1.75116 13.1624 1.83239 13.5689 1.98988 13.948L4.29863 12.9891ZM4.25082 12.7498C4.25076 12.6677 4.26687 12.5864 4.29824 12.5105L1.98792 11.5553C1.83105 11.9347 1.75049 12.3413 1.75083 12.7519L4.25082 12.7498ZM4.29824 12.5105C4.32961 12.4347 4.37563 12.3657 4.43366 12.3076L2.66503 10.5407C2.37486 10.8312 2.14478 11.1759 1.98792 11.5553L4.29824 12.5105ZM4.44048 12.3007L10.9453 5.68788L9.16299 3.93474L2.65821 10.5476L4.44048 12.3007ZM10.9452 5.68792C10.829 5.80608 10.6706 5.87323 10.5048 5.87459L10.4843 3.37468C9.98704 3.37875 9.51176 3.5802 9.16302 3.93471L10.9452 5.68792ZM10.5048 5.87459C10.3391 5.87595 10.1795 5.81141 10.0614 5.69517L11.8146 3.91296C11.4601 3.56422 10.9816 3.3706 10.4843 3.37468L10.5048 5.87459ZM10.0614 5.69517C9.94321 5.57892 9.87607 5.4205 9.87471 5.25475L12.3746 5.23425C12.3705 4.73698 12.1691 4.2617 11.8146 3.91296L10.0614 5.69517ZM9.87471 5.25475C9.87335 5.08899 9.93789 4.92949 10.0541 4.81132L11.8363 6.56453C12.1851 6.21003 12.3787 5.73151 12.3746 5.23425L9.87471 5.25475ZM10.0541 4.81136L3.5457 11.4279L5.32796 13.181L11.8364 6.5645L10.0541 4.81136ZM3.56098 11.4126C3.38475 11.5857 3.24445 11.7919 3.14815 12.0193L5.45029 12.9941C5.41818 13.0699 5.37142 13.1386 5.31267 13.1963L3.56098 11.4126ZM3.14815 12.0193C3.05184 12.2468 3.00142 12.491 2.99979 12.738L5.49974 12.7545C5.4992 12.8368 5.48239 12.9182 5.45029 12.9941L3.14815 12.0193ZM2.99979 12.738C2.99816 12.985 3.04535 13.2299 3.13865 13.4586L5.45345 12.5143C5.48455 12.5905 5.50028 12.6722 5.49974 12.7545L2.99979 12.738ZM3.13865 13.4586C3.23195 13.6873 3.36951 13.8953 3.54344 14.0707L5.31852 12.3103C5.3765 12.3687 5.42235 12.4381 5.45345 12.5143L3.13865 13.4586ZM3.54344 14.0707C3.71738 14.2461 3.92425 14.3854 4.15217 14.4805L5.11561 12.1736C5.19159 12.2054 5.26055 12.2518 5.31852 12.3103L3.54344 14.0707ZM4.15217 14.4805C4.3801 14.5757 4.62459 14.625 4.87159 14.6254L4.87581 12.1254C4.95814 12.1255 5.03963 12.1419 5.11561 12.1736L4.15217 14.4805ZM4.87159 14.6254C5.11859 14.6258 5.36324 14.5774 5.59149 14.483L4.63584 12.1728C4.71192 12.1414 4.79347 12.1252 4.87581 12.1254L4.87159 14.6254ZM5.59149 14.483C5.81973 14.3886 6.02707 14.25 6.20159 14.0752L4.43247 12.3088C4.49065 12.2505 4.55976 12.2043 4.63584 12.1728L5.59149 14.483ZM6.20701 14.0697L13.9624 6.20626L12.1825 4.45076L4.42706 12.3142L6.20701 14.0697ZM13.9543 6.21443C14.2454 5.92471 14.4765 5.58045 14.6344 5.20134L12.3266 4.23997C12.2951 4.31579 12.2488 4.38464 12.1906 4.44258L13.9543 6.21443ZM14.6344 5.20134C14.7923 4.82224 14.874 4.41572 14.8747 4.00504L12.3747 4.00072C12.3746 4.08285 12.3582 4.16415 12.3266 4.23997L14.6344 5.20134ZM14.8747 4.00504C14.8754 3.59435 14.7952 3.18755 14.6385 2.80791L12.3275 3.7613C12.3588 3.83723 12.3748 3.91858 12.3747 4.00072L14.8747 4.00504ZM14.6385 2.80791C14.4819 2.42826 14.252 2.0832 13.9619 1.79247L12.1922 3.55822C12.2502 3.61636 12.2961 3.68537 12.3275 3.7613L14.6385 2.80791ZM13.9619 1.79247C13.6719 1.50174 13.3273 1.27104 12.9481 1.11355L11.9894 3.42244C12.0652 3.45393 12.1341 3.50007 12.1922 3.55822L13.9619 1.79247ZM12.9481 1.11355C12.5688 0.956068 12.1622 0.874889 11.7515 0.874659L11.7501 3.37466C11.8322 3.37471 11.9135 3.39094 11.9894 3.42244L12.9481 1.11355ZM11.7515 0.874659C11.3408 0.87443 10.9341 0.955153 10.5546 1.11221L11.5107 3.42217C11.5866 3.39076 11.6679 3.37461 11.7501 3.37466L11.7515 0.874659ZM10.5546 1.11221C10.1752 1.26927 9.83037 1.49959 9.53998 1.79L11.3078 3.55772C11.3659 3.49964 11.4348 3.45358 11.5107 3.42217L10.5546 1.11221ZM9.53391 1.7961L1.77852 9.65942L3.55846 11.4149L11.3139 3.55162L9.53391 1.7961ZM1.78593 9.65197C1.37886 10.0578 1.05575 10.5399 0.835084 11.0707L3.14354 12.0304C3.23811 11.8029 3.37658 11.5963 3.55105 11.4224L1.78593 9.65197ZM0.835084 11.0707C0.614416 11.6015 0.500512 12.1706 0.49988 12.7454L2.99988 12.7481C3.00015 12.5018 3.04897 12.2579 3.14354 12.0304L0.835084 11.0707ZM0.49988 12.7454C0.499248 13.3202 0.611902 13.8895 0.831402 14.4208L3.14196 13.4662C3.04789 13.2385 2.99961 12.9945 2.99988 12.7481L0.49988 12.7454ZM0.831402 14.4208C1.0509 14.9521 1.37295 15.4349 1.77913 15.8416L3.54813 14.0751C3.37405 13.9008 3.23603 13.6939 3.14196 13.4662L0.831402 14.4208ZM1.77913 15.8416C2.18531 16.2484 2.66767 16.5711 3.19863 16.7914L4.15649 14.4821C3.92893 14.3877 3.72221 14.2494 3.54813 14.0751L1.77913 15.8416ZM3.19863 16.7914C3.72959 17.0116 4.29876 17.1251 4.87359 17.1252L4.87433 14.6252C4.62798 14.6251 4.38405 14.5765 4.15649 14.4821L3.19863 16.7914ZM4.87359 17.1252C5.44842 17.1254 6.01765 17.0123 6.54874 16.7924L5.59226 14.4826C5.36465 14.5768 5.12069 14.6253 4.87433 14.6252L4.87359 17.1252ZM6.54874 16.7924C7.07984 16.5724 7.56239 16.25 7.96881 15.8435L6.20087 14.0759C6.02668 14.2501 5.81988 14.3883 5.59226 14.4826L6.54874 16.7924ZM7.96814 15.8442L14.3788 9.44189L12.6122 7.67296L6.20154 14.0752L7.96814 15.8442ZM14.379 9.44169C14.3209 9.49972 14.252 9.54574 14.1761 9.57713L13.2206 7.26693C12.993 7.36106 12.7862 7.49909 12.612 7.67316L14.379 9.44169ZM14.1761 9.57713C14.1002 9.60851 14.0189 9.62463 13.9368 9.62458L13.9383 7.12458C13.6921 7.12444 13.4482 7.17281 13.2206 7.26693L14.1761 9.57713ZM13.9368 9.62458C13.8547 9.62453 13.7734 9.60831 13.6976 9.57684L14.6559 7.26779C14.4284 7.1734 14.1846 7.12473 13.9383 7.12458L13.9368 9.62458ZM13.6976 9.57684C13.6218 9.54537 13.5529 9.49926 13.4949 9.44116L15.264 7.67475C15.09 7.50047 14.8833 7.36219 14.6559 7.26779L13.6976 9.57684Z" fill="#2F363D" mask="url(#path-1-inside-1_3404_3907)"/>
</svg>
