<svg width="18" height="22" viewBox="0 0 18 22" fill="none" xmlns="http://www.w3.org/2000/svg">
<path d="M15.75 20H11.1131C11.8932 19.3046 12.629 18.5609 13.3159 17.7734C15.8896 14.8136 17.25 11.6934 17.25 8.75C17.25 6.56196 16.3808 4.46354 14.8336 2.91637C13.2864 1.36919 11.188 0.5 8.99997 0.5C6.81193 0.5 4.71351 1.36919 3.16634 2.91637C1.61916 4.46354 0.749969 6.56196 0.749969 8.75C0.749969 11.6934 2.11035 14.8136 4.68399 17.7734C5.37099 18.5609 6.10672 19.3046 6.88687 20H2.24997C2.05106 20 1.86029 20.079 1.71964 20.2197C1.57899 20.3603 1.49997 20.5511 1.49997 20.75C1.49997 20.9489 1.57899 21.1397 1.71964 21.2803C1.86029 21.421 2.05106 21.5 2.24997 21.5H15.75C15.9489 21.5 16.1396 21.421 16.2803 21.2803C16.421 21.1397 16.5 20.9489 16.5 20.75C16.5 20.5511 16.421 20.3603 16.2803 20.2197C16.1396 20.079 15.9489 20 15.75 20ZM8.99999 5.75C9.59334 5.75 10.1734 5.92595 10.6667 6.25559C11.1601 6.58524 11.5446 7.05377 11.7716 7.60195C11.9987 8.15013 12.0581 8.75333 11.9423 9.33527C11.8266 9.91721 11.5409 10.4518 11.1213 10.8713C10.7018 11.2909 10.1672 11.5766 9.58526 11.6924C9.00332 11.8081 8.40012 11.7487 7.85194 11.5216C7.30376 11.2946 6.83523 10.9101 6.50558 10.4167C6.17594 9.92336 5.99999 9.34334 5.99999 8.75C5.99999 8.35603 6.07758 7.96592 6.22835 7.60194C6.37911 7.23797 6.60009 6.90725 6.87866 6.62867C7.15724 6.3501 7.48796 6.12912 7.85194 5.97835C8.21592 5.82759 8.60603 5.75 8.99999 5.75Z" fill="#444D56"/>
</svg>
