<svg width="20" height="19" viewBox="0 0 20 19" fill="none" xmlns="http://www.w3.org/2000/svg">
<path d="M19.7495 7.49281C19.7491 7.43547 19.742 7.37837 19.7283 7.32266C19.7268 7.31621 19.7248 7.30985 19.7231 7.30344C19.7174 7.28243 19.7107 7.26161 19.7032 7.241C19.7003 7.23335 19.6975 7.22585 19.6944 7.21829C19.6866 7.19911 19.6778 7.18021 19.6683 7.16148C19.6646 7.1542 19.6612 7.14683 19.6573 7.13969C19.6461 7.11932 19.6337 7.09946 19.6205 7.07991C19.6175 7.07556 19.6151 7.07098 19.612 7.06673L19.6107 7.06457C19.5945 7.0421 19.5771 7.02052 19.5587 6.99993C19.5546 6.99535 19.5501 6.99124 19.5459 6.98684C19.5301 6.96999 19.5138 6.95393 19.4969 6.93887C19.4911 6.93379 19.4852 6.92902 19.4794 6.92413C19.4621 6.90975 19.4443 6.89622 19.426 6.88352C19.4225 6.88114 19.4195 6.8783 19.416 6.87597L10.416 0.87597C10.2928 0.793856 10.1481 0.750039 10 0.750039C9.85194 0.750039 9.70719 0.793856 9.58398 0.87597L0.583984 6.87597C0.580597 6.87821 0.577714 6.88096 0.574422 6.88325C0.555837 6.89607 0.537816 6.90977 0.52036 6.92436C0.514641 6.92912 0.50887 6.93379 0.503331 6.93868C0.486165 6.95388 0.469685 6.97009 0.453801 6.98712C0.449727 6.99142 0.445378 6.99545 0.441395 6.99984C0.42288 7.02045 0.405505 7.04206 0.389348 7.06457L0.387975 7.06673C0.384953 7.07098 0.382482 7.07556 0.379552 7.07991C0.366276 7.09946 0.353871 7.11932 0.342702 7.13969C0.338811 7.14683 0.335377 7.1542 0.331669 7.16148C0.322194 7.1802 0.313405 7.19911 0.305577 7.21829C0.302556 7.22585 0.299671 7.23335 0.296834 7.241C0.289236 7.26164 0.282598 7.28246 0.276921 7.30344C0.275181 7.30985 0.273213 7.31621 0.271657 7.32266C0.258052 7.37837 0.250939 7.43547 0.250462 7.49281C0.250412 7.49524 0.25 7.49757 0.25 7.5V17.25C0.250455 17.6477 0.408636 18.029 0.689842 18.3102C0.971048 18.5914 1.35231 18.7495 1.75 18.75H18.25C18.6477 18.7495 19.029 18.5914 19.3102 18.3102C19.5914 18.029 19.7495 17.6477 19.75 17.25V7.5C19.75 7.49757 19.7496 7.49524 19.7495 7.49281ZM1.75 17.25V8.95583L7.92825 13.3607C8.05536 13.4513 8.20757 13.5 8.36368 13.5H11.6363C11.7924 13.5 11.9446 13.4513 12.0717 13.3607L18.25 8.95583V17.25H1.75Z" fill="#444D56"/>
</svg>
