<svg width="16" height="16" viewBox="0 0 16 16" fill="none" xmlns="http://www.w3.org/2000/svg">
<path d="M3.51237 7.00011C3.51072 6.40974 3.62558 5.82485 3.85036 5.27894C4.07514 4.73304 4.40543 4.23685 4.8223 3.81881C5.23918 3.40078 5.73444 3.0691 6.27971 2.8428C6.82499 2.61649 7.40956 2.5 7.99993 2.5C8.5903 2.5 9.17487 2.61649 9.72014 2.8428C10.2654 3.0691 10.7607 3.40078 11.1775 3.81881C11.5944 4.23685 11.9247 4.73304 12.1495 5.27894C12.3743 5.82485 12.4891 6.40974 12.4875 7.00011V7.00011C12.4875 9.23859 12.9558 10.5375 13.3683 11.2475C13.4127 11.3234 13.4364 11.4096 13.4368 11.4975C13.4373 11.5854 13.4146 11.6719 13.371 11.7482C13.3274 11.8246 13.2644 11.888 13.1884 11.9323C13.1124 11.9765 13.0261 11.9999 12.9382 12.0001H3.06116C2.97323 11.9999 2.88692 11.9765 2.81093 11.9322C2.73494 11.888 2.67197 11.8245 2.62835 11.7482C2.58473 11.6718 2.56202 11.5853 2.56251 11.4974C2.56299 11.4095 2.58666 11.3232 2.63112 11.2474C3.04382 10.5374 3.51237 9.23847 3.51237 7.00011H3.51237Z" stroke="white" stroke-linecap="round" stroke-linejoin="round"/>
<path d="M6 12V12.5C6 13.0304 6.21071 13.5391 6.58579 13.9142C6.96086 14.2893 7.46957 14.5 8 14.5C8.53043 14.5 9.03914 14.2893 9.41421 13.9142C9.78929 13.5391 10 13.0304 10 12.5V12" stroke="white" stroke-linecap="round" stroke-linejoin="round"/>
<path d="M11.4648 1.49927C12.4823 2.14155 13.3024 3.05248 13.8347 4.13149" stroke="white" stroke-linecap="round" stroke-linejoin="round"/>
<path d="M2.16602 4.13149C2.69836 3.05248 3.51851 2.14155 4.53592 1.49927" stroke="white" stroke-linecap="round" stroke-linejoin="round"/>
</svg>
