<svg width="24" height="24" viewBox="0 0 24 24" fill="none" xmlns="http://www.w3.org/2000/svg">
<path d="M2.19141 9.09155L2.19141 19.8076C2.19141 20.9122 3.08684 21.8076 4.19141 21.8076L10.1404 21.8076C11.245 21.8076 12.1404 20.9122 12.1404 19.8076L12.1404 9.09155C12.1404 7.98698 11.245 7.09155 10.1404 7.09155L4.19141 7.09155C3.08684 7.09155 2.19141 7.98698 2.19141 9.09155Z" stroke="#1A1C1F" stroke-width="1.2" stroke-linecap="round" stroke-linejoin="round"/>
<path d="M13.9067 20.3739L17.1978 8.09107C17.4837 7.02414 16.8505 5.92746 15.7836 5.64158L9.13137 3.85912C8.56478 3.7073 7.9824 4.04354 7.83058 4.61013V4.61013L7.70683 5.07286" stroke="#1A1C1F" stroke-width="1.2" stroke-linecap="round" stroke-linejoin="round"/>
<path d="M15.7815 19.4241L22.1395 8.41163C22.6918 7.45504 22.3641 6.23186 21.4075 5.67958L15.4432 2.23612C14.9352 1.94284 14.2857 2.11689 13.9924 2.62488V2.62488L13.6672 3.20347" stroke="#1A1C1F" stroke-width="1.2" stroke-linecap="round" stroke-linejoin="round"/>
<path d="M7.16321 18.0424L4.32031 14.4495L7.16321 10.8567L10.0061 14.4495L7.16321 18.0424Z" stroke="#1A1C1F" stroke-width="1.2" stroke-linecap="round" stroke-linejoin="round"/>
</svg>
