<svg width="16" height="16" viewBox="0 0 16 16" fill="none" xmlns="http://www.w3.org/2000/svg">
<path fill-rule="evenodd" clip-rule="evenodd" d="M12.3028 7.0827C12.2747 7.42092 12.1269 7.74286 11.8809 8.03719C13.1212 8.52597 13.9232 9.30329 13.9232 10.1787C13.9232 11.658 11.6329 12.8573 8.80777 12.8573C5.98262 12.8573 3.69238 11.658 3.69238 10.1787C3.69238 9.79724 3.84466 9.43442 4.11911 9.10597C3.76523 8.96651 3.44703 8.80355 3.17297 8.62153C2.81498 9.09582 2.61548 9.62316 2.61548 10.1787V11.2501C2.61548 13.3212 5.38798 15.0001 8.80779 15.0001C12.2276 15.0001 15.0001 13.3212 15.0001 11.2501V10.1787C15.0001 8.89294 13.9315 7.75829 12.3028 7.0827Z" fill="#24292E"/>
<path fill-rule="evenodd" clip-rule="evenodd" d="M3.69728 3.86835C2.0686 4.54394 1 5.67858 1 6.96435V8.03578C1 10.1068 3.7725 11.7858 7.19231 11.7858C10.6121 11.7858 13.3846 10.1068 13.3846 8.03578V6.96435C13.3846 6.40878 13.1851 5.88144 12.8271 5.40714C12.553 5.58919 12.2348 5.75216 11.8809 5.89163C12.1554 6.2201 12.3077 6.58296 12.3077 6.96445C12.3077 8.44378 10.0174 9.64302 7.19229 9.64302C4.36714 9.64302 2.0769 8.44378 2.0769 6.96445C2.0769 6.08903 2.87892 5.31169 4.11919 4.82292C3.8732 4.52856 3.72534 4.20659 3.69728 3.86835Z" fill="#24292E"/>
<path fill-rule="evenodd" clip-rule="evenodd" d="M15.0001 4.82143V3.75C15.0001 1.67895 12.2276 0 8.80779 0C5.38798 0 2.61548 1.67895 2.61548 3.75V4.82143C2.61548 6.89248 5.38798 8.57143 8.80779 8.57143C12.2276 8.57143 15.0001 6.89248 15.0001 4.82143ZM8.80777 6.42855C11.6329 6.42855 13.9232 5.22932 13.9232 3.74998C13.9232 2.27065 11.6329 1.07141 8.80777 1.07141C5.98262 1.07141 3.69238 2.27065 3.69238 3.74998C3.69238 5.22932 5.98262 6.42855 8.80777 6.42855Z" fill="#24292E"/>
</svg>
