<svg width="32" height="32" viewBox="0 0 32 32" fill="none" xmlns="http://www.w3.org/2000/svg">
<g clip-path="url(#clip0_2914_134327)">
<path d="M31.9796 16.0056C31.9796 7.16352 24.8251 -0.00439453 15.9996 -0.00439453C7.17403 -0.00439453 0.0195312 7.16352 0.0195312 16.0056C0.0195312 23.9967 5.86319 30.6201 13.5027 31.8211V20.6335H9.44526V16.0056H13.5027V12.4784C13.5027 8.46589 15.8884 6.24952 19.5386 6.24952C21.2869 6.24952 23.1157 6.56221 23.1157 6.56221V10.5022H21.1006C19.1155 10.5022 18.4965 11.7363 18.4965 13.0024V16.0056H22.9284L22.2199 20.6335H18.4964V31.8211C26.1359 30.6201 31.9796 23.9967 31.9796 16.0056Z" fill="#1877F2"/>
<path d="M22.22 20.6335L22.9285 16.0056H18.4965V13.0024C18.4965 11.7363 19.1156 10.5022 21.1007 10.5022H23.1157V6.5622C23.1157 6.5622 21.287 6.24951 19.5386 6.24951C15.8884 6.24951 13.5027 8.46588 13.5027 12.4784V16.0056H9.44531V20.6335H13.5027V31.8211C14.3287 31.9508 15.1635 32.0158 15.9996 32.0156C16.8491 32.0156 17.6829 31.949 18.4965 31.8211V20.6335H22.22Z" fill="white"/>
</g>
<defs>
<clipPath id="clip0_2914_134327">
<rect width="32" height="32" fill="white"/>
</clipPath>
</defs>
</svg>
