<svg width="13" height="12" viewBox="0 0 13 12" fill="none" xmlns="http://www.w3.org/2000/svg">
<g clip-path="url(#clip0_3437_48564)">
<path d="M4.35484 2H10.3272L10.0568 3.28681H5.73118L5.46083 5.2986H7.8725L7.60215 6.94789H5.19048L4.6682 10H3L4.35484 2Z" fill="#FFD5C8"/>
<path d="M7.48147 2H12.3501L12.0845 3.28681H8.83392L8.56826 5.2986H10.9381L10.6724 6.94789H8.3026L7.78939 10H6.15015L7.48147 2Z" fill="#FF784E"/>
<path fill-rule="evenodd" clip-rule="evenodd" d="M2.90015 2H-0.0998535V3.5H2.6189L2.90015 2ZM2.2439 5.5H-0.0998535V7H1.96265L2.2439 5.5ZM1.6814 8.5H-0.0998535V10H1.40015L1.6814 8.5Z" fill="#FFD5C8"/>
</g>
<defs>
<clipPath id="clip0_3437_48564">
<rect width="12" height="12" fill="white" transform="translate(0.400146)"/>
</clipPath>
</defs>
</svg>
