<svg width="16" height="16" viewBox="0 0 16 16" fill="none" xmlns="http://www.w3.org/2000/svg">
<path d="M2.00002 5.33325L6.00202 1.33325H13.332C13.7 1.33325 14 1.63659 14 1.99459V14.0053C13.9998 14.1807 13.93 14.3489 13.8059 14.4729C13.6818 14.5969 13.5135 14.6666 13.338 14.6666H2.66202C2.57447 14.666 2.4879 14.6481 2.40725 14.6141C2.3266 14.58 2.25345 14.5304 2.19197 14.468C2.1305 14.4057 2.08191 14.3319 2.04897 14.2507C2.01604 14.1696 1.9994 14.0828 2.00002 13.9953V5.33325ZM6.66668 2.66659V5.99992H3.33335V13.3333H12.6667V2.66659H6.66668Z" fill="#E1313C"/>
</svg>
