<svg width="16" height="16" viewBox="0 0 16 16" fill="none" xmlns="http://www.w3.org/2000/svg">
<path d="M1.90536 1.91806L10.2854 0.721395C10.3327 0.714611 10.3809 0.718073 10.4267 0.731545C10.4725 0.745018 10.5149 0.768188 10.551 0.799484C10.5871 0.830779 10.6161 0.86947 10.6359 0.912934C10.6558 0.956397 10.666 1.00362 10.666 1.0514V14.9487C10.666 14.9964 10.6558 15.0436 10.636 15.087C10.6162 15.1304 10.5873 15.1691 10.5513 15.2004C10.5152 15.2316 10.4729 15.2548 10.4272 15.2683C10.3814 15.2819 10.3333 15.2854 10.286 15.2787L1.9047 14.0821C1.74578 14.0594 1.60036 13.9802 1.49516 13.859C1.38995 13.7377 1.33203 13.5826 1.33203 13.4221V2.57806C1.33203 2.41754 1.38995 2.2624 1.49516 2.14116C1.60036 2.01991 1.74578 1.9407 1.9047 1.91806H1.90536ZM2.66603 3.15673V12.8434L9.3327 13.7961V2.20406L2.66603 3.15673ZM11.3327 12.6667H13.3327V3.3334H11.3327V2.00006H13.9994C14.1762 2.00006 14.3457 2.0703 14.4708 2.19532C14.5958 2.32035 14.666 2.48992 14.666 2.66673V13.3334C14.666 13.5102 14.5958 13.6798 14.4708 13.8048C14.3457 13.9298 14.1762 14.0001 13.9994 14.0001H11.3327V12.6667ZM6.79937 8.00006L8.66603 10.6667H7.06603L5.99936 9.14273L4.9327 10.6667H3.3327L5.19936 8.00006L3.3327 5.3334H4.9327L5.99936 6.8574L7.06603 5.3334H8.66603L6.79937 8.00006Z" fill="#17A74F"/>
</svg>
