<svg width="22" height="20" viewBox="0 0 22 20" fill="none" xmlns="http://www.w3.org/2000/svg">
<path fill-rule="evenodd" clip-rule="evenodd" d="M2 15V5H4V9.5L8 5H11L7 9.5L10 15H7L5 11L2 15ZM15 13C16.6569 13 18 11.6569 18 10C18 8.34315 16.6569 7 15 7C13.3431 7 12 8.34315 12 10C12 11.6569 13.3431 13 15 13ZM15 15C17.7614 15 20 12.7614 20 10C20 7.23858 17.7614 5 15 5C12.2386 5 10 7.23858 10 10C10 12.7614 12.2386 15 15 15ZM15 12C16.1046 12 17 11.1046 17 10C17 8.89543 16.1046 8 15 8C13.8954 8 13 8.89543 13 10C13 11.1046 13.8954 12 15 12Z" fill="#076EDE"/>
</svg>
