<svg width="12" height="9" viewBox="0 0 12 9" fill="none" xmlns="http://www.w3.org/2000/svg">
<path fill-rule="evenodd" clip-rule="evenodd" d="M6.00003 6.75001C8.73744 6.75001 10.9566 5.49081 10.9566 3.93751C10.9566 3.36711 10.6573 2.83636 10.143 2.39307C10.8826 2.88437 11.3291 3.52198 11.3291 4.21876C11.3291 5.77206 9.11002 7.03126 6.37261 7.03126C4.64043 7.03126 3.11579 6.52707 2.22961 5.7632C3.13871 6.36714 4.49057 6.75001 6.00003 6.75001Z" fill="#24292E"/>
<path fill-rule="evenodd" clip-rule="evenodd" d="M12 5.0625V3.9375C12 1.76289 9.3136 0 6 0C2.6864 0 0 1.76289 0 3.9375V5.0625C0 7.23711 2.6864 9 6 9C9.3136 9 12 7.23711 12 5.0625ZM5.99998 6.75C8.73739 6.75 10.9565 5.4908 10.9565 3.9375C10.9565 2.3842 8.73739 1.125 5.99998 1.125C3.26257 1.125 1.04346 2.3842 1.04346 3.9375C1.04346 5.4908 3.26257 6.75 5.99998 6.75Z" fill="#24292E"/>
</svg>
