<svg width="33" height="32" viewBox="0 0 33 32" fill="none" xmlns="http://www.w3.org/2000/svg">
<g clip-path="url(#clip0_2914_134330)">
<path d="M16.5 0C12.2565 0 8.18687 1.68571 5.18629 4.68629C2.18571 7.68687 0.5 11.7565 0.5 16C0.5 20.2435 2.18571 24.3131 5.18629 27.3137C8.18687 30.3143 12.2565 32 16.5 32C20.7435 32 24.8131 30.3143 27.8137 27.3137C30.8143 24.3131 32.5 20.2435 32.5 16C32.5 11.7565 30.8143 7.68687 27.8137 4.68629C24.8131 1.68571 20.7435 0 16.5 0Z" fill="#0288D1"/>
<path d="M8.5 12.0002H11.7V24.0002H8.5V12.0002ZM10.0904 10.4002H10.0728C9.1176 10.4002 8.5 9.68819 8.5 8.79939C8.5 7.89139 9.1368 7.2002 10.1088 7.2002C11.0824 7.2002 11.6816 7.89139 11.7 8.79939C11.7 9.68819 11.0824 10.4002 10.0904 10.4002ZM25.3 16.4002C25.3 13.9698 23.3304 12.0002 20.9 12.0002C19.4104 12.0002 18.096 12.7426 17.3 13.8754V12.0002H14.1V24.0002H17.3V17.6002C17.3 16.2746 18.3744 15.2002 19.7 15.2002C21.0256 15.2002 22.1 16.2746 22.1 17.6002V24.0002H25.3C25.3 24.0002 25.3 16.737 25.3 16.4002Z" fill="white"/>
</g>
<defs>
<clipPath id="clip0_2914_134330">
<rect width="32" height="32" fill="white" transform="translate(0.5)"/>
</clipPath>
</defs>
</svg>
