<svg width="18" height="14" viewBox="0 0 18 14" fill="none" xmlns="http://www.w3.org/2000/svg">
<path d="M5.25 1C5.25 0.801088 5.32902 0.610324 5.46967 0.469672C5.61032 0.32902 5.80109 0.250002 6 0.25H17.25C17.4489 0.25 17.6397 0.329018 17.7803 0.46967C17.921 0.610322 18 0.801088 18 1C18 1.19891 17.921 1.38968 17.7803 1.53033C17.6397 1.67098 17.4489 1.75 17.25 1.75H6C5.80109 1.75 5.61032 1.67098 5.46967 1.53033C5.32902 1.38968 5.25 1.19891 5.25 1ZM17.25 6.25H6.00055C5.80164 6.25 5.61087 6.32902 5.47022 6.46967C5.32957 6.61032 5.25055 6.80109 5.25055 7C5.25055 7.19891 5.32957 7.38968 5.47022 7.53033C5.61087 7.67098 5.80164 7.75 6.00055 7.75H17.25C17.4489 7.75 17.6397 7.67098 17.7803 7.53033C17.921 7.38968 18 7.19891 18 7C18 6.80109 17.921 6.61032 17.7803 6.46967C17.6397 6.32902 17.4489 6.25 17.25 6.25ZM17.25 12.25H6.00055C5.80164 12.25 5.61087 12.329 5.47022 12.4697C5.32957 12.6103 5.25055 12.8011 5.25055 13C5.25055 13.1989 5.32957 13.3897 5.47022 13.5303C5.61087 13.671 5.80164 13.75 6.00055 13.75H17.25C17.4489 13.75 17.6397 13.671 17.7803 13.5303C17.921 13.3897 18 13.1989 18 13C18 12.8011 17.921 12.6103 17.7803 12.4697C17.6397 12.329 17.4489 12.25 17.25 12.25ZM2.25 0.25H0.75C0.551088 0.25 0.360322 0.329018 0.21967 0.46967C0.0790178 0.610322 0 0.801088 0 1C0 1.19891 0.0790178 1.38968 0.21967 1.53033C0.360322 1.67098 0.551088 1.75 0.75 1.75H2.25C2.44891 1.75 2.63968 1.67098 2.78033 1.53033C2.92098 1.38968 3 1.19891 3 1C3 0.801088 2.92098 0.610322 2.78033 0.46967C2.63968 0.329018 2.44891 0.25 2.25 0.25ZM2.25 6.25H0.750549C0.551637 6.25 0.360872 6.32902 0.220219 6.46967C0.0795671 6.61032 0.000549316 6.80109 0.000549316 7C0.000549316 7.19891 0.0795671 7.38968 0.220219 7.53033C0.360872 7.67098 0.551637 7.75 0.750549 7.75H2.25C2.44891 7.75 2.63968 7.67098 2.78033 7.53033C2.92098 7.38968 3 7.19891 3 7C3 6.80109 2.92098 6.61032 2.78033 6.46967C2.63968 6.32902 2.44891 6.25 2.25 6.25ZM2.25 12.25H0.750549C0.551637 12.25 0.360872 12.329 0.220219 12.4697C0.0795671 12.6103 0.000549316 12.8011 0.000549316 13C0.000549316 13.1989 0.0795671 13.3897 0.220219 13.5303C0.360872 13.671 0.551637 13.75 0.750549 13.75H2.25C2.44891 13.75 2.63968 13.671 2.78033 13.5303C2.92098 13.3897 3 13.1989 3 13C3 12.8011 2.92098 12.6103 2.78033 12.4697C2.63968 12.329 2.44891 12.25 2.25 12.25Z" fill="#1A1C1F"/>
</svg>
