<svg width="100" height="20" viewBox="0 0 100 20" fill="none" xmlns="http://www.w3.org/2000/svg">
<path d="M95.5833 7.52765C95.3395 7.75993 95.1462 8.03987 95.0158 8.34999C94.8853 8.6601 94.8204 8.99372 94.825 9.33C94.8164 9.67744 94.8776 10.0231 95.0053 10.3464C95.133 10.6698 95.3244 10.9643 95.5683 11.2125C95.8034 11.46 96.0879 11.6558 96.4034 11.7872C96.7188 11.9186 97.0584 11.9828 97.4002 11.9757C97.741 11.9806 98.0791 11.9153 98.3935 11.784C98.7079 11.6527 98.9919 11.4582 99.2276 11.2125C99.7132 10.7237 99.9857 10.0633 99.9857 9.37507C99.9857 8.68683 99.7132 8.02644 99.2276 7.5376C98.9891 7.29742 98.7055 7.10658 98.3929 6.97606C98.0803 6.84555 97.745 6.77791 97.4061 6.77705C97.0673 6.77618 96.7315 6.8421 96.4183 6.97102C96.105 7.09994 95.8204 7.28932 95.5807 7.52828L95.5833 7.52765ZM98.7834 9.40086C98.7835 9.66837 98.7041 9.92989 98.5552 10.1524C98.4063 10.3749 98.1945 10.5483 97.9467 10.6507C97.699 10.7532 97.4264 10.7801 97.1633 10.728C96.9003 10.6758 96.6588 10.5471 96.4691 10.358C96.2794 10.1689 96.1501 9.9279 96.0978 9.66555C96.0454 9.40319 96.0723 9.13124 96.1749 8.88409C96.2775 8.63694 96.4513 8.42569 96.6743 8.27706C96.8973 8.12843 97.1594 8.0491 97.4276 8.0491C97.6056 8.04893 97.7819 8.08378 97.9464 8.15165C98.111 8.21952 98.2604 8.31907 98.3864 8.44462C98.5123 8.57017 98.6121 8.71924 98.6802 8.88332C98.7484 9.0474 98.7835 9.22327 98.7834 9.40086Z" fill="#003013"/>
<path d="M99.2289 13.3336C98.8714 12.9572 98.4035 12.7035 97.8924 12.6089V13.9315C98.1901 14.0394 98.4408 14.2478 98.6006 14.5206C98.7605 14.7935 98.8195 15.1135 98.7676 15.4252C98.7158 15.737 98.5564 16.0208 98.3168 16.2275C98.0772 16.4342 97.7725 16.5508 97.4558 16.5571C97.1391 16.5633 96.8301 16.4588 96.5825 16.2617C96.3349 16.0646 96.1641 15.7873 96.1 15.4778C96.0358 15.1684 96.0823 14.8463 96.2313 14.5674C96.3802 14.2885 96.6222 14.0703 96.9155 13.9507V12.6058C96.3274 12.7245 95.7982 13.0417 95.4171 13.504C95.0361 13.9664 94.8263 14.5455 94.8231 15.144C94.8141 15.4947 94.8753 15.8436 95.0029 16.1704C95.1306 16.4973 95.3221 16.7955 95.5665 17.0477C95.8004 17.2974 96.0844 17.4952 96.4 17.6282C96.7156 17.7612 97.0557 17.8264 97.3983 17.8196C97.7399 17.8241 98.0787 17.7578 98.3933 17.625C98.7079 17.4921 98.9914 17.2955 99.2258 17.0477C99.7112 16.5505 99.9829 15.884 99.9829 15.19C99.9829 14.496 99.7112 13.8295 99.2258 13.3323" fill="#003013"/>
<path d="M97.4744 19.9663C97.3741 19.9715 97.2737 19.9559 97.1796 19.9205C97.0856 19.8851 96.9999 19.8306 96.928 19.7605C96.8561 19.6905 96.7996 19.6063 96.7619 19.5134C96.7243 19.4204 96.7064 19.3207 96.7093 19.2205C96.7058 19.0689 96.7477 18.9196 96.8296 18.7919C96.9115 18.6641 97.0298 18.5635 97.1693 18.5031C97.3088 18.4427 97.4631 18.425 97.6127 18.4525C97.7623 18.48 97.9002 18.5512 98.009 18.6572C98.1177 18.7633 98.1923 18.8992 98.2233 19.0477C98.2543 19.1962 98.2402 19.3505 98.1828 19.491C98.1255 19.6315 98.0274 19.7517 97.9013 19.8364C97.7751 19.921 97.6265 19.9663 97.4744 19.9663" fill="#003013"/>
<path d="M96.6693 0.00631803H99.9978V1.20768H96.7154H96.673H96.6307C96.5409 1.2135 96.4533 1.23808 96.3736 1.27984C96.294 1.3216 96.224 1.37959 96.1683 1.45007V1.45007L96.1578 1.46312L96.1483 1.47555C96.0845 1.56433 96.0447 1.668 96.0327 1.77658C96.0207 1.88516 96.037 1.995 96.0799 2.09552C96.1228 2.19604 96.1909 2.28386 96.2776 2.35053C96.3644 2.41719 96.4668 2.46046 96.5752 2.47617H96.5914H96.6032H96.617H96.6301H96.6331H96.673C96.6867 2.47617 96.7011 2.47617 96.7154 2.47617H98.4063H99.999V3.68561H96.6967H96.6699H96.6369C96.4745 3.69374 96.3213 3.76366 96.209 3.88097C96.0967 3.99828 96.0338 4.15406 96.0332 4.31625C96.0325 4.47845 96.0943 4.63472 96.2057 4.7529C96.317 4.87109 96.4696 4.9422 96.6319 4.95161H96.6474H99.9996V6.14738H94.8281V4.95223H95.0056C94.9087 4.8105 94.8487 4.64686 94.8312 4.47616V4.47616C94.8312 4.46311 94.8312 4.45068 94.8312 4.43763C94.8312 4.42457 94.8312 4.41587 94.8312 4.40469C94.8312 4.3935 94.8312 4.39971 94.8312 4.39723C94.8312 4.3705 94.8312 4.3444 94.8312 4.3183C94.8312 4.27852 94.8312 4.23937 94.835 4.20083C94.846 4.02471 94.8828 3.85114 94.944 3.68561C95.0266 3.46301 95.1517 3.25849 95.3123 3.08337C95.0299 2.77572 94.8614 2.38097 94.835 1.96467C94.835 1.92552 94.8312 1.88574 94.8312 1.84596C94.8312 1.80619 94.8312 1.76641 94.835 1.72726C94.8463 1.54959 94.8836 1.37454 94.9459 1.20768C95.0777 0.854669 95.3148 0.550355 95.6251 0.335604C95.9354 0.120853 96.3041 0.00594765 96.6818 0.00631803" fill="#003013"/>
<path d="M13.5519 13.2355C13.5659 12.3485 13.3968 11.4682 13.0549 10.6493C12.7131 9.83033 12.2059 9.09036 11.565 8.4754C10.9461 7.83099 10.2006 7.32083 9.37515 6.97682C8.54966 6.6328 7.66192 6.46232 6.76739 6.47603C5.87765 6.46289 4.99482 6.63376 4.17457 6.97787C3.35432 7.32198 2.61444 7.83187 2.00157 8.4754C1.36765 9.09796 0.864224 9.84009 0.520595 10.6586C0.176966 11.4771 0 12.3556 0 13.2429C0 14.1303 0.176966 15.0088 0.520595 15.8273C0.864224 16.6458 1.36765 17.3879 2.00157 18.0105C2.61659 18.6502 3.35721 19.1566 4.1772 19.498C4.99719 19.8395 5.87893 20.0086 6.76739 19.9949C8.03509 20.0137 9.28084 19.6639 10.3525 18.9881V19.9949H13.5488L13.5519 13.2355ZM6.77736 16.9471C6.0666 16.9481 5.37152 16.7387 4.78007 16.3456C4.18861 15.9524 3.72736 15.3931 3.45468 14.7383C3.18201 14.0836 3.11015 13.3629 3.24821 12.6674C3.38626 11.972 3.72803 11.333 4.23027 10.8313C4.7325 10.3296 5.37263 9.98784 6.06966 9.84916C6.76669 9.71048 7.4893 9.78116 8.14605 10.0522C8.8028 10.3233 9.36418 10.7826 9.75916 11.3721C10.1541 11.9615 10.365 12.6545 10.365 13.3635C10.3653 13.8338 10.2728 14.2995 10.0926 14.7341C9.91252 15.1687 9.64835 15.5637 9.31521 15.8965C8.98207 16.2292 8.58649 16.4933 8.15104 16.6735C7.7156 16.8538 7.24882 16.9468 6.77736 16.9471" fill="#003013"/>
<path d="M59.2618 13.2355C59.2554 11.7465 58.7541 10.3016 57.8364 9.1271C56.9187 7.95264 55.6364 7.11492 54.1904 6.74511C52.7443 6.3753 51.2162 6.4943 49.8452 7.08346C48.4742 7.67262 47.3378 8.69868 46.6139 10.001C45.89 11.3033 45.6196 12.8082 45.8449 14.2803C46.0702 15.7523 46.7785 17.1082 47.859 18.1357C48.9394 19.1632 50.331 19.8043 51.8158 19.9585C53.3006 20.1128 54.7948 19.7715 56.0643 18.9881V19.995H59.2618V13.2355ZM52.4854 16.9471C51.7747 16.9479 51.0797 16.7383 50.4884 16.345C49.8971 15.9517 49.4361 15.3923 49.1636 14.7375C48.8911 14.0828 48.8194 13.3621 48.9576 12.6667C49.0958 11.9713 49.4377 11.3324 49.94 10.8309C50.4423 10.3293 51.0824 9.98768 51.7794 9.8491C52.4764 9.71052 53.199 9.78127 53.8557 10.0524C54.5123 10.3235 55.0736 10.7828 55.4685 11.3722C55.8635 11.9616 56.0743 12.6546 56.0743 13.3635C56.0745 13.8339 55.9819 14.2997 55.8017 14.7343C55.6214 15.169 55.3572 15.564 55.0239 15.8967C54.6906 16.2295 54.2949 16.4935 53.8594 16.6738C53.4238 16.854 52.9569 16.9469 52.4854 16.9471" fill="#003013"/>
<path d="M25.6282 0.00679016V7.46792C24.5707 6.79404 23.3383 6.44421 22.0836 6.4617C21.1891 6.44845 20.3015 6.61913 19.4761 6.96312C18.6507 7.30711 17.9051 7.81702 17.286 8.46107C16.6439 9.07821 16.136 9.82057 15.7939 10.642C15.4519 11.4633 15.283 12.3461 15.2978 13.2354C15.2848 14.1246 15.4545 15.007 15.7964 15.8282C16.1383 16.6494 16.6453 17.3921 17.286 18.0104C17.9128 18.6394 18.6582 19.1385 19.4791 19.4791C20.3001 19.8197 21.1804 19.9951 22.0695 19.9951C22.9587 19.9951 23.839 19.8197 24.66 19.4791C25.4809 19.1385 26.2263 18.6394 26.8531 18.0104C27.4975 17.3942 28.0078 16.6522 28.3523 15.8307C28.6968 15.0092 28.8682 14.1258 28.8557 13.2354V0.00679016H25.6282ZM22.0767 16.9427C21.3669 16.9434 20.6727 16.7342 20.0822 16.3413C19.4916 15.9485 19.0311 15.3897 18.7589 14.7358C18.4868 14.0818 18.4152 13.362 18.5532 12.6675C18.6913 11.9729 19.0327 11.3348 19.5344 10.8339C20.0361 10.333 20.6754 9.99171 21.3716 9.8533C22.0677 9.71489 22.7894 9.78555 23.4453 10.0563C24.1011 10.3271 24.6618 10.7859 25.0562 11.3746C25.4507 11.9633 25.6612 12.6554 25.6612 13.3635C25.6614 13.8334 25.5687 14.2987 25.3886 14.733C25.2084 15.1672 24.9443 15.5617 24.6113 15.8941C24.2782 16.2264 23.8828 16.4901 23.4476 16.67C23.0124 16.85 22.5459 16.9426 22.0748 16.9427" fill="#003013"/>
<path d="M44.1005 0.00679016H40.8805V7.46792C39.8259 6.79425 38.5962 6.44437 37.344 6.46171C36.4511 6.4486 35.5652 6.6194 34.7415 6.96342C33.9178 7.30745 33.1741 7.81729 32.557 8.46108C31.916 9.07886 31.4092 9.82144 31.068 10.6427C30.7267 11.464 30.5583 12.3465 30.5732 13.2355C30.56 14.1242 30.7292 15.0063 31.0704 15.8275C31.4115 16.6486 31.9174 17.3915 32.557 18.0104C33.1817 18.6393 33.9251 19.1384 34.7443 19.4791C35.5635 19.8197 36.4422 19.9951 37.3297 19.9951C38.2172 19.9951 39.0959 19.8197 39.9151 19.4791C40.7343 19.1384 41.4776 18.6393 42.1023 18.0104C42.7456 17.3935 43.2549 16.6513 43.5986 15.8299C43.9423 15.0085 44.1132 14.1255 44.1005 13.2355V0.00679016ZM37.3371 16.9458C36.6263 16.9479 35.9308 16.7395 35.3387 16.3471C34.7466 15.9547 34.2846 15.3958 34.0111 14.7413C33.7376 14.0868 33.6649 13.3661 33.8023 12.6704C33.9397 11.9746 34.281 11.3352 34.7829 10.8331C35.2848 10.3309 35.9248 9.98865 36.6219 9.84954C37.319 9.71043 38.0417 9.78077 38.6987 10.0516C39.3556 10.3225 39.9173 10.7817 40.3124 11.3712C40.7076 11.9606 40.9185 12.6538 40.9185 13.3629C40.9192 13.8327 40.8272 14.2981 40.6476 14.7324C40.468 15.1668 40.2044 15.5616 39.8718 15.8943C39.5393 16.227 39.1443 16.4911 38.7094 16.6715C38.2745 16.852 37.8082 16.9452 37.3371 16.9458" fill="#003013"/>
<path d="M82.6111 16.9696C82.3902 17.1303 82.2698 17.2546 82.2503 17.3425C82.2394 17.3832 82.2407 17.4263 82.2541 17.4663C82.2675 17.5063 82.2925 17.5415 82.3258 17.5674C82.4004 17.6299 82.4874 17.6759 82.5812 17.7023C82.6531 17.7223 82.7235 17.7475 82.7918 17.7775H89.4081C89.8022 17.7861 90.1881 17.6647 90.5059 17.432C90.8174 17.2014 91.1047 16.9398 91.3632 16.6514C91.6233 16.3613 91.8588 16.1009 92.0698 15.8701C92.1388 15.7757 92.2264 15.6963 92.3272 15.6369C92.428 15.5775 92.5399 15.5392 92.6561 15.5246C93.1961 15.5246 93.4661 15.7748 93.4661 16.2753C93.4684 17.1079 93.2508 17.9263 92.835 18.6482C92.6704 19.0287 92.4036 19.3564 92.0639 19.5949C91.7242 19.8335 91.325 19.9737 90.9104 20H78.7911C78.7088 19.999 78.6277 19.9811 78.5527 19.9476C78.4777 19.914 78.4104 19.8654 78.3549 19.8048C78.2204 19.6688 78.1176 19.5047 78.054 19.3244C77.9831 19.127 77.9675 18.9141 78.0091 18.7085C78.0622 18.4677 78.2013 18.2543 78.4004 18.1082C79.4829 17.1875 80.5656 16.2714 81.6485 15.3599C82.6801 14.4975 83.6545 13.5693 84.5657 12.5811C85.3848 11.6999 86.0918 10.7213 86.6709 9.66754C87.2001 8.71089 87.4788 7.63649 87.481 6.54387C87.4797 6.15653 87.4187 5.77168 87.3002 5.4028C87.1822 5.02684 86.9877 4.67921 86.7289 4.38167C86.46 4.0753 86.1328 3.82518 85.7663 3.64581C85.3528 3.44766 84.9016 3.34002 84.4429 3.33009C83.8744 3.30267 83.3045 3.3379 82.7438 3.43512C82.3368 3.50909 81.9454 3.65135 81.5862 3.85588C81.2603 4.05039 80.9703 4.29929 80.7289 4.59174C80.4796 4.89171 80.214 5.24203 79.9319 5.64269C79.7313 5.9232 79.5358 6.04336 79.3456 6.00317C79.1554 5.96298 79.015 5.79724 78.9245 5.50596C78.8292 5.11758 78.814 4.71396 78.8796 4.31952C78.9717 3.72066 79.1648 3.14172 79.4509 2.60728C79.5307 2.44735 79.641 2.20206 79.7818 1.87142C79.9157 1.55298 80.0766 1.2465 80.2628 0.955331C80.4116 0.711158 80.5995 0.49301 80.8191 0.309591C80.8604 0.273591 80.9084 0.246168 80.9604 0.228932C81.0124 0.211695 81.0673 0.204994 81.1219 0.20922C81.1765 0.213447 81.2298 0.228516 81.2785 0.253543C81.3271 0.27857 81.3703 0.313051 81.4055 0.35496C81.5512 0.49954 81.7423 0.589728 81.9468 0.610398C82.1271 0.620756 82.2977 0.635672 82.4584 0.655146C82.6659 0.672023 82.8747 0.65096 83.0746 0.592996C83.3047 0.532917 83.5505 0.467867 83.8118 0.397844C84.0731 0.327822 84.3431 0.257592 84.6218 0.187155C84.9071 0.11662 85.2 0.0813445 85.494 0.0821213C86.4096 0.0747853 87.3213 0.200402 88.2006 0.455022C88.9967 0.682262 89.7418 1.05947 90.3956 1.56627C91.013 2.05239 91.516 2.66762 91.8692 3.36862C92.2372 4.11037 92.4229 4.9289 92.4107 5.75643C92.4011 6.57712 92.2003 7.38435 91.8243 8.11441C91.4157 8.9339 90.9165 9.70522 90.3359 10.414C89.715 11.1758 89.0363 11.8889 88.3059 12.547C87.554 13.2281 86.8122 13.854 86.0803 14.4245C85.3484 14.9951 84.6719 15.4956 84.0504 15.9261C83.4274 16.357 82.9461 16.7023 82.6067 16.9621" fill="#003013"/>
<path d="M77.8323 13.8023C77.8493 14.7209 77.62 15.6275 77.1681 16.4281C76.7135 17.2054 76.0894 17.8707 75.3419 18.3747C74.5094 18.9338 73.5848 19.3425 72.6104 19.5822C71.5156 19.8597 70.3898 19.9965 69.2602 19.9893C67.9132 20.0083 66.5692 19.8561 65.2607 19.5363C64.1218 19.245 63.0838 18.6503 62.2576 17.8159C62.2135 17.7641 62.1801 17.7041 62.1593 17.6394C62.1386 17.5746 62.1308 17.5064 62.1366 17.4387C62.1366 17.2674 62.1725 17.0981 62.242 16.9415C62.2985 16.7987 62.3923 16.6736 62.5137 16.5791C62.5743 16.5398 62.645 16.5189 62.7173 16.5189C62.7897 16.5189 62.8605 16.5398 62.9211 16.5791C63.7178 17.0555 64.5832 17.4069 65.4869 17.6208C66.5452 17.8627 67.6317 17.9591 68.7163 17.9073C69.2621 17.8905 69.802 17.7886 70.3163 17.6052C70.8017 17.434 71.2556 17.1841 71.6596 16.8657C72.0506 16.5551 72.3694 16.1637 72.5942 15.7184C72.8303 15.2451 72.9493 14.7224 72.9413 14.1938C72.98 13.7211 72.9239 13.2453 72.7761 12.7945C72.6284 12.3436 72.392 11.9266 72.0808 11.568C71.4984 10.9507 70.7488 10.5154 69.9231 10.315C69.048 10.1031 68.1378 10.0775 67.2521 10.2398C66.3931 10.3728 65.568 10.6702 64.8221 11.1155C64.7445 11.161 64.6552 11.1826 64.5654 11.1777C64.4488 11.1763 64.3345 11.1453 64.2333 11.0876C64.1141 11.0188 64.0151 10.9197 63.9467 10.8004C63.8584 10.6388 63.8166 10.456 63.8258 10.2722V1.3965C63.8252 1.05603 63.9306 0.723784 64.1274 0.445598C64.268 0.284588 64.4462 0.16065 64.6462 0.0847638C64.8463 0.00887773 65.0621 -0.0166137 65.2744 0.0105476C66.2402 0.0105476 67.1808 0.0204916 68.0963 0.0403797C69.0118 0.0602677 69.9223 0.0753909 70.8278 0.0857493C71.7334 0.0961076 72.654 0.10108 73.5899 0.100665C74.5257 0.100251 75.5066 0.0702117 76.5326 0.0105476C76.8342 -0.0308858 76.9795 0.0998366 76.9687 0.402715C76.941 0.763957 76.8328 1.11449 76.6522 1.42881C76.4412 1.82417 76.1715 2.18541 75.8522 2.50028C75.7343 2.6414 75.5896 2.75795 75.4264 2.84326C75.2633 2.92857 75.0849 2.98098 74.9014 2.99748C73.8347 2.99748 72.9193 2.97677 72.155 2.93533C71.3907 2.8939 70.6814 2.85868 70.0272 2.82968C69.373 2.79943 68.7291 2.79446 68.0957 2.81476C67.4622 2.83506 66.753 2.89535 65.9679 2.99562V8.34053C67.1837 7.90541 68.4639 7.67582 69.7555 7.66123C71.0684 7.62114 72.3776 7.8206 73.6186 8.24979C74.7747 8.64538 75.809 9.33165 76.6217 10.2423C77.4579 11.2365 77.8889 12.5078 77.8292 13.8041" fill="#003013"/>
</svg>
