<svg width="20" height="20" viewBox="0 0 20 20" fill="none" xmlns="http://www.w3.org/2000/svg">
<path d="M18.125 5H1.875C1.52982 5 1.25 5.27982 1.25 5.625V14.375C1.25 14.7202 1.52982 15 1.875 15H18.125C18.4702 15 18.75 14.7202 18.75 14.375V5.625C18.75 5.27982 18.4702 5 18.125 5Z" stroke="url(#paint0_linear_2397_15488)" stroke-width="1.25" stroke-linecap="round" stroke-linejoin="round"/>
<path d="M10 12.5C11.3807 12.5 12.5 11.3807 12.5 10C12.5 8.61929 11.3807 7.5 10 7.5C8.61929 7.5 7.5 8.61929 7.5 10C7.5 11.3807 8.61929 12.5 10 12.5Z" stroke="url(#paint1_linear_2397_15488)" stroke-width="1.25" stroke-linecap="round" stroke-linejoin="round"/>
<path d="M13.75 5L18.75 9.375" stroke="url(#paint2_linear_2397_15488)" stroke-width="1.25" stroke-linecap="round" stroke-linejoin="round"/>
<path d="M13.75 15L18.75 10.625" stroke="url(#paint3_linear_2397_15488)" stroke-width="1.25" stroke-linecap="round" stroke-linejoin="round"/>
<path d="M6.25 5L1.25 9.375" stroke="url(#paint4_linear_2397_15488)" stroke-width="1.25" stroke-linecap="round" stroke-linejoin="round"/>
<path d="M6.25 15L1.25 10.625" stroke="url(#paint5_linear_2397_15488)" stroke-width="1.25" stroke-linecap="round" stroke-linejoin="round"/>
<defs>
<linearGradient id="paint0_linear_2397_15488" x1="1.25" y1="5" x2="19.575" y2="6.85658" gradientUnits="userSpaceOnUse">
<stop stop-color="#1EA5DF"/>
<stop offset="1" stop-color="#0167FF"/>
</linearGradient>
<linearGradient id="paint1_linear_2397_15488" x1="7.5" y1="7.5" x2="12.7718" y2="7.8052" gradientUnits="userSpaceOnUse">
<stop stop-color="#1EA5DF"/>
<stop offset="1" stop-color="#0167FF"/>
</linearGradient>
<linearGradient id="paint2_linear_2397_15488" x1="13.75" y1="5" x2="19.0164" y2="5.34845" gradientUnits="userSpaceOnUse">
<stop stop-color="#1EA5DF"/>
<stop offset="1" stop-color="#0167FF"/>
</linearGradient>
<linearGradient id="paint3_linear_2397_15488" x1="13.75" y1="10.625" x2="19.0164" y2="10.9734" gradientUnits="userSpaceOnUse">
<stop stop-color="#1EA5DF"/>
<stop offset="1" stop-color="#0167FF"/>
</linearGradient>
<linearGradient id="paint4_linear_2397_15488" x1="1.25" y1="5" x2="6.51641" y2="5.34845" gradientUnits="userSpaceOnUse">
<stop stop-color="#1EA5DF"/>
<stop offset="1" stop-color="#0167FF"/>
</linearGradient>
<linearGradient id="paint5_linear_2397_15488" x1="1.25" y1="10.625" x2="6.51641" y2="10.9734" gradientUnits="userSpaceOnUse">
<stop stop-color="#1EA5DF"/>
<stop offset="1" stop-color="#0167FF"/>
</linearGradient>
</defs>
</svg>
