<svg width="35" height="20" viewBox="0 0 35 20" fill="none" xmlns="http://www.w3.org/2000/svg">
<path fill-rule="evenodd" clip-rule="evenodd" d="M4 7L2 5H9C10.6569 5 12 6.34315 12 8C12 9.65685 10.6569 11 9 11H6L4 15V9H9C9.55228 9 10 8.55228 10 8C10 7.44772 9.55228 7 9 7H4ZM14 15V5H16V9.5L20 5H23L19.5 9.5L23.5 15H20.5L17.5 11L14 15ZM28 13.125C29.6569 13.125 31.125 11.6569 31.125 10C31.125 8.34315 29.6569 6.875 28 6.875C26.3431 6.875 24.875 8.34315 24.875 10C24.875 11.6569 26.3431 13.125 28 13.125ZM28 15C30.7614 15 33 12.7614 33 10C33 7.23858 30.7614 5 28 5C25.2386 5 23 7.23858 23 10C23 12.7614 25.2386 15 28 15ZM28 12C29.1046 12 30 11.1046 30 10C30 8.89543 29.1046 8 28 8C26.8954 8 26 8.89543 26 10C26 11.1046 26.8954 12 28 12Z" fill="#076EDE"/>
</svg>
