<svg width="14" height="14" viewBox="0 0 14 14" fill="none" xmlns="http://www.w3.org/2000/svg">
<path d="M7 12.25C9.89949 12.25 12.25 9.89949 12.25 7C12.25 4.1005 9.89949 1.75 7 1.75C4.1005 1.75 1.75 4.1005 1.75 7C1.75 9.89949 4.1005 12.25 7 12.25Z" stroke="#FF7617" stroke-width="0.871032" stroke-linecap="round" stroke-linejoin="round"/>
<path d="M7 10.0625C8.69137 10.0625 10.0625 8.69137 10.0625 7C10.0625 5.30863 8.69137 3.9375 7 3.9375C5.30863 3.9375 3.9375 5.30863 3.9375 7C3.9375 8.69137 5.30863 10.0625 7 10.0625Z" stroke="#FF7617" stroke-width="0.871032" stroke-linecap="round" stroke-linejoin="round"/>
<path d="M7 3.9375V1.75" stroke="#FF7617" stroke-width="0.871032" stroke-linecap="round" stroke-linejoin="round"/>
<path d="M4.83439 4.83449L3.2876 3.28769" stroke="#FF7617" stroke-width="0.871032" stroke-linecap="round" stroke-linejoin="round"/>
<path d="M3.9375 7H1.75" stroke="#FF7617" stroke-width="0.871032" stroke-linecap="round" stroke-linejoin="round"/>
<path d="M4.83439 9.16551L3.2876 10.7123" stroke="#FF7617" stroke-width="0.871032" stroke-linecap="round" stroke-linejoin="round"/>
<path d="M7 10.0625V12.25" stroke="#FF7617" stroke-width="0.871032" stroke-linecap="round" stroke-linejoin="round"/>
<path d="M9.16553 9.16551L10.7123 10.7123" stroke="#FF7617" stroke-width="0.871032" stroke-linecap="round" stroke-linejoin="round"/>
<path d="M10.0625 7H12.25" stroke="#FF7617" stroke-width="0.871032" stroke-linecap="round" stroke-linejoin="round"/>
<path d="M9.16553 4.83449L10.7123 3.28769" stroke="#FF7617" stroke-width="0.871032" stroke-linecap="round" stroke-linejoin="round"/>
</svg>
