<svg width="42" height="16" viewBox="0 0 42 16" fill="none" xmlns="http://www.w3.org/2000/svg">
<rect x="0.499756" y="0.5" width="41.0001" height="15" rx="7.5" fill="white"/>
<path fill-rule="evenodd" clip-rule="evenodd" d="M11.9256 5.32808C11.2773 5.32808 10.7504 4.80198 10.7504 4.16404C10.7504 3.5261 11.2815 3 11.9256 3C12.5697 3 13.1051 3.53024 13.1051 4.16818C13.1051 4.80612 12.5697 5.33222 11.9256 5.33222V5.32808ZM12.4193 12.9999C12.1767 12.888 12.0638 12.6809 11.9592 12.4531C11.7668 12.0223 11.5661 11.5956 11.3402 11.1772C11.2273 10.9659 11.0851 10.7837 10.8843 10.6428C10.3657 10.2783 9.83455 9.93859 9.24064 9.70246C9.16117 9.66932 9.11935 9.67761 9.06079 9.73975C8.34141 10.531 7.44637 10.8748 6.37984 10.7547C5.99087 10.7091 5.627 10.5807 5.2924 10.3777C4.99127 10.1954 4.90762 9.88888 5.06655 9.59476C5.22967 9.2965 5.56426 9.17637 5.87376 9.30893C5.91951 9.32887 5.96446 9.35118 6.0093 9.37345L6.00931 9.37345C6.06696 9.40207 6.12445 9.43061 6.18327 9.45392C6.70607 9.66104 7.18706 9.54919 7.63876 9.25093C7.94826 9.04381 8.19921 8.77869 8.38324 8.45972C8.59094 8.0969 8.7833 7.72564 8.97648 7.3528L8.97649 7.35279C9.21121 6.89979 9.44713 6.44445 9.71326 5.99908C9.32011 5.87067 8.94369 5.86652 8.57145 6.01565C8.2243 6.1565 7.96499 6.40505 7.74332 6.69502C7.60112 6.88143 7.42545 6.99742 7.18287 6.98085C6.93611 6.96428 6.73953 6.85658 6.63079 6.63288C6.52623 6.42162 6.60988 6.23935 6.73953 6.06951C7.11177 5.58069 7.55511 5.17887 8.12811 4.93861C8.87677 4.62792 9.62124 4.67763 10.3574 4.97589C10.62 5.08147 10.8648 5.21907 11.1099 5.35684C11.2591 5.44069 11.4084 5.5246 11.5619 5.6014C12.3942 6.01151 13.1972 5.84167 13.7702 5.11673C13.787 5.10016 13.7995 5.07945 13.8121 5.05874C14.1383 4.54507 14.8326 4.6942 14.9999 5.18716V5.386C14.9889 5.53122 14.904 5.63826 14.8184 5.74616C14.8064 5.76138 14.7943 5.7766 14.7824 5.79196C14.3223 6.36776 13.7535 6.7903 13.0174 6.96014C12.5824 7.05956 12.1433 7.04299 11.7083 6.93943C11.5912 6.91043 11.5284 6.93943 11.4699 7.04299C11.1478 7.60637 10.8342 8.17389 10.5288 8.74969C10.4452 8.90711 10.4452 8.91539 10.5999 9.00238C11.0349 9.25093 11.4406 9.54505 11.8379 9.84745C12.1224 10.067 12.2938 10.3694 12.4569 10.6718C12.6615 11.0499 12.841 11.4391 13.0204 11.828L13.0204 11.828C13.0612 11.9163 13.1019 12.0046 13.1429 12.0927C13.306 12.4365 13.2432 12.7058 12.9839 12.9046C12.9294 12.9478 12.866 12.9611 12.8029 12.9743C12.7693 12.9813 12.7357 12.9884 12.7037 12.9999L12.4998 13L12.4193 12.9999ZM4.24976 8C4.11168 8 3.99976 8.11193 3.99976 8.25C3.99976 8.38807 4.11168 8.5 4.24976 8.5H6.74976C6.88783 8.5 6.99976 8.38807 6.99976 8.25C6.99976 8.11193 6.88783 8 6.74976 8H4.24976ZM5.99976 12.75C5.99976 12.6119 6.11168 12.5 6.24976 12.5H10.7498C10.8878 12.5 10.9998 12.6119 10.9998 12.75C10.9998 12.8881 10.8878 13 10.7498 13H6.24976C6.11168 13 5.99976 12.8881 5.99976 12.75ZM4.24976 5.5C4.11168 5.5 3.99976 5.61193 3.99976 5.75C3.99976 5.88807 4.11168 6 4.24976 6H5.74976C5.88783 6 5.99976 5.88807 5.99976 5.75C5.99976 5.61193 5.88783 5.5 5.74976 5.5H4.24976Z" fill="#076EDE"/>
<path d="M16 13H17.9934L18.5567 9.07143H19.474L21.2146 13H23.5113L21.6913 8.89286C22.8758 8.42143 23.7713 7.35 23.9519 6.03571C24.1902 4.37143 23.0924 3 21.4385 3H17.4228L16 13ZM18.8312 7.1L19.1779 4.68571H20.9618C21.6118 4.68571 22.0813 5.22857 21.9802 5.89286C21.8863 6.56429 21.2724 7.1 20.6224 7.1H18.8312Z" fill="#076EDE"/>
<path d="M24.9767 13H26.9701L28.3929 3H26.3995L24.9767 13Z" fill="#076EDE"/>
<path d="M38 3H30.0553L29.7736 4.97143H32.7493L31.6081 13H33.6015L34.7427 4.97143H37.7183L38 3Z" fill="#076EDE"/>
<rect x="0.499756" y="0.5" width="41.0001" height="15" rx="7.5" stroke="#CBE4FF"/>
</svg>
