<svg width="36" height="12" viewBox="0 0 36 12" fill="none" xmlns="http://www.w3.org/2000/svg">
<rect x="0.5" y="0.5" width="34.4001" height="11" rx="5.5" fill="white"/>
<path fill-rule="evenodd" clip-rule="evenodd" d="M10.3407 3.86246C9.82208 3.86246 9.40048 3.44158 9.40048 2.93123C9.40048 2.42088 9.82542 2 10.3407 2C10.856 2 11.2843 2.42419 11.2843 2.93454C11.2843 3.4449 10.856 3.86577 10.3407 3.86577V3.86246ZM10.7356 9.99991C10.5416 9.91043 10.4512 9.74473 10.3676 9.56246C10.2137 9.2178 10.0531 8.87646 9.87238 8.54175C9.78204 8.37274 9.66828 8.22692 9.50767 8.11425C9.09277 7.82262 8.66783 7.55087 8.19271 7.36197C8.12913 7.33546 8.09567 7.34209 8.04883 7.3918C7.47333 8.02477 6.75729 8.29983 5.90407 8.20372C5.59289 8.16727 5.30179 8.06454 5.03412 7.90215C4.79321 7.75634 4.72629 7.5111 4.85344 7.27581C4.98393 7.0372 5.25161 6.9411 5.49921 7.04714C5.53581 7.06309 5.57176 7.08094 5.60764 7.09876C5.65376 7.12166 5.69976 7.14449 5.74681 7.16313C6.16505 7.32883 6.54984 7.23935 6.9112 7.00075C7.1588 6.83505 7.35956 6.62295 7.50679 6.36778C7.67295 6.07752 7.82684 5.78051 7.98138 5.48224C8.16916 5.11984 8.3579 4.75556 8.5708 4.39927C8.25628 4.29653 7.95514 4.29322 7.65735 4.41252C7.37964 4.5252 7.17219 4.72404 6.99485 4.95602C6.88109 5.10515 6.74056 5.19794 6.54649 5.18468C6.34908 5.17143 6.19182 5.08526 6.10483 4.90631C6.02118 4.73729 6.0881 4.59148 6.19182 4.4556C6.48961 4.06455 6.84428 3.7431 7.30268 3.55089C7.90161 3.30234 8.49719 3.34211 9.08608 3.58071C9.29616 3.66518 9.49201 3.77525 9.68811 3.88547L9.68812 3.88547C9.80747 3.95255 9.92692 4.01968 10.0497 4.08112C10.7156 4.40921 11.358 4.27334 11.8164 3.69339C11.8298 3.68013 11.8398 3.66356 11.8498 3.64699C12.1108 3.23606 12.6663 3.35536 12.8001 3.74973V3.9088C12.7913 4.02498 12.7234 4.11061 12.6549 4.19693C12.6453 4.2091 12.6356 4.22128 12.6261 4.23357C12.2581 4.69421 11.803 5.03224 11.2141 5.16811C10.8661 5.24765 10.5148 5.23439 10.1668 5.15154C10.0731 5.12834 10.0229 5.15154 9.97611 5.23439C9.71847 5.68509 9.46752 6.13911 9.22326 6.59975C9.15634 6.72569 9.15634 6.73231 9.28015 6.80191C9.62813 7.00075 9.95268 7.23604 10.2706 7.47796C10.4981 7.6536 10.6353 7.89552 10.7658 8.13744C10.9294 8.43996 11.073 8.75128 11.2165 9.06243L11.2165 9.06245L11.2167 9.0627L11.2167 9.06278L11.2167 9.06287C11.2493 9.13334 11.2818 9.2038 11.3145 9.27414C11.445 9.5492 11.3948 9.76461 11.1873 9.92368C11.1437 9.95826 11.093 9.96888 11.0425 9.97944C11.0156 9.98507 10.9888 9.99068 10.9632 9.99991L10.8 9.99996L10.7356 9.99991ZM4.2 6C4.08954 6 4 6.08954 4 6.2C4 6.31046 4.08954 6.4 4.2 6.4H6.2C6.31046 6.4 6.4 6.31046 6.4 6.2C6.4 6.08954 6.31046 6 6.2 6H4.2ZM5.6 9.8C5.6 9.68954 5.68954 9.6 5.8 9.6H9.4C9.51046 9.6 9.6 9.68954 9.6 9.8C9.6 9.91046 9.51046 10 9.4 10H5.8C5.68954 10 5.6 9.91046 5.6 9.8ZM4.2 4C4.08954 4 4 4.08954 4 4.2C4 4.31046 4.08954 4.4 4.2 4.4H5.4C5.51046 4.4 5.6 4.31046 5.6 4.2C5.6 4.08954 5.51046 4 5.4 4H4.2Z" fill="#076EDE"/>
<path d="M13.8 10H15.3948L15.8454 6.85714H16.5792L17.9717 10H19.8091L18.3531 6.71429C19.3007 6.33714 20.0171 5.48 20.1616 4.42857C20.3522 3.09714 19.474 2 18.1508 2H14.9383L13.8 10ZM16.065 5.28L16.3423 3.34857H17.7695C18.2895 3.34857 18.6651 3.78286 18.5842 4.31429C18.5091 4.85143 18.018 5.28 17.4979 5.28H16.065Z" fill="#076EDE"/>
<path d="M20.9814 10H22.5761L23.7144 2H22.1197L20.9814 10Z" fill="#076EDE"/>
<path d="M31.4 2H25.0443L24.819 3.57714H27.1995L26.2866 10H27.8813L28.7942 3.57714H31.1747L31.4 2Z" fill="#076EDE"/>
<rect x="0.5" y="0.5" width="34.4001" height="11" rx="5.5" stroke="#CBE4FF"/>
</svg>
