<svg width="10" height="10" viewBox="0 0 10 10" fill="none" xmlns="http://www.w3.org/2000/svg">
<path d="M5 9.875C5.96418 9.875 6.90671 9.58909 7.7084 9.05341C8.51009 8.51774 9.13493 7.75637 9.50391 6.86558C9.87289 5.97479 9.96943 4.99459 9.78133 4.04893C9.59322 3.10328 9.12892 2.23464 8.44714 1.55285C7.76536 0.871074 6.89672 0.406775 5.95106 0.218672C5.0054 0.0305695 4.02521 0.127111 3.13442 0.496089C2.24363 0.865065 1.48225 1.48991 0.946583 2.2916C0.410911 3.09329 0.124998 4.03582 0.124998 5C0.126491 6.29247 0.640586 7.53158 1.5545 8.4455C2.46842 9.35941 3.70753 9.87351 5 9.875ZM3.14404 5.01904C3.17885 4.98421 3.22019 4.95658 3.26568 4.93773C3.31117 4.91888 3.35993 4.90918 3.40918 4.90918C3.45842 4.90918 3.50718 4.91888 3.55268 4.93773C3.59817 4.95658 3.6395 4.98421 3.67431 5.01904L4.625 5.96973L4.625 3.125C4.625 3.02554 4.66451 2.93016 4.73483 2.85984C4.80516 2.78951 4.90054 2.75 5 2.75C5.09945 2.75 5.19484 2.78951 5.26516 2.85984C5.33549 2.93016 5.375 3.02554 5.375 3.125L5.375 5.96973L6.32568 5.01904C6.39603 4.94885 6.49136 4.90945 6.59074 4.9095C6.69011 4.90956 6.7854 4.94906 6.85567 5.01933C6.92594 5.0896 6.96544 5.18489 6.9655 5.28426C6.96555 5.38364 6.92615 5.47897 6.85595 5.54932L5.26559 7.13968C5.19509 7.21 5.09957 7.24948 5 7.24948C4.90042 7.24948 4.80491 7.21 4.7344 7.13968L3.14404 5.54932C3.10921 5.51451 3.08158 5.47317 3.06273 5.42768C3.04388 5.38219 3.03418 5.33342 3.03418 5.28418C3.03418 5.23494 3.04388 5.18617 3.06273 5.14068C3.08158 5.09519 3.10921 5.05386 3.14404 5.01904Z" fill="#2F363D"/>
</svg>
