<svg width="16" height="16" viewBox="0 0 16 16" fill="none" xmlns="http://www.w3.org/2000/svg">
<path fill-rule="evenodd" clip-rule="evenodd" d="M8.00003 9.75001C10.7374 9.75001 12.9566 8.49081 12.9566 6.93751C12.9566 6.36711 12.6573 5.83636 12.143 5.39307C12.8826 5.88437 13.3291 6.52198 13.3291 7.21876C13.3291 8.77206 11.11 10.0313 8.37261 10.0313C6.64043 10.0313 5.11579 9.52707 4.22961 8.7632C5.13871 9.36714 6.49057 9.75001 8.00003 9.75001Z" fill="#24292E"/>
<path fill-rule="evenodd" clip-rule="evenodd" d="M14 8.0625V6.9375C14 4.76289 11.3136 3 8 3C4.6864 3 2 4.76289 2 6.9375V8.0625C2 10.2371 4.6864 12 8 12C11.3136 12 14 10.2371 14 8.0625ZM7.99998 9.75C10.7374 9.75 12.9565 8.4908 12.9565 6.9375C12.9565 5.3842 10.7374 4.125 7.99998 4.125C5.26257 4.125 3.04346 5.3842 3.04346 6.9375C3.04346 8.4908 5.26257 9.75 7.99998 9.75Z" fill="#24292E"/>
</svg>
