<svg width="16" height="16" viewBox="0 0 16 16" fill="none" xmlns="http://www.w3.org/2000/svg">
<g clip-path="url(#clip0_2397_6417)">
<path d="M7.97199 15.9998C7.72928 15.9998 7.49056 15.9592 7.31008 15.877C5.09586 14.8709 3.11413 13.9293 1.25198 12.9989C0.825673 12.7861 0.460711 12.2515 0.438485 11.8078C0.390475 10.867 0.398032 9.91502 0.405145 8.99416C0.407812 8.66544 0.410479 8.32547 0.410479 7.99156C0.410479 7.65202 0.407812 7.30557 0.405589 6.97079C0.398921 6.05599 0.391809 5.11005 0.438929 4.17579C0.4616 3.73028 0.825673 3.19524 1.25109 2.98287C3.13014 2.04428 5.08786 1.11608 7.23585 0.145049C7.64615 -0.0405062 8.29784 -0.0491568 8.68903 0.125585C10.6983 1.02352 12.769 1.99368 14.8436 3.00882C15.2397 3.2026 15.5669 3.70044 15.5726 4.11783C15.6104 6.86568 15.6086 9.40117 15.5664 11.8692C15.5588 12.3285 15.1405 12.8164 14.7574 13.005C12.8481 13.9453 10.8059 14.9068 8.68814 15.8636C8.4881 15.954 8.22805 15.9994 7.97155 15.9994L7.97199 15.9998ZM8.00667 0.821524C7.85375 0.821524 7.69283 0.845313 7.59192 0.890729C5.45371 1.857 3.50577 2.78045 1.6365 3.71385C1.4658 3.79905 1.28932 4.07328 1.28221 4.21601C1.23642 5.12735 1.24309 6.06161 1.2502 6.96473C1.25287 7.30124 1.25554 7.64899 1.25509 7.99156C1.25509 8.32807 1.25243 8.66976 1.24976 9.00022C1.24265 9.90982 1.23509 10.8501 1.28132 11.7671C1.28843 11.9085 1.4658 12.1819 1.63695 12.2675C3.48976 13.1936 5.46216 14.1304 7.6666 15.1322C7.81463 15.1992 8.16892 15.1919 8.33207 15.1183C10.4414 14.1655 12.4747 13.2079 14.3755 12.2719C14.5546 12.1836 14.7173 11.9384 14.7213 11.8553C14.7631 9.39598 14.7649 6.86828 14.7271 4.12907C14.7258 4.027 14.584 3.80251 14.4631 3.74326C12.3978 2.732 10.336 1.76617 8.33562 0.872563C8.25827 0.83796 8.13469 0.821092 8.00533 0.821092L8.00667 0.821524Z" fill="#17A74F"/>
<path d="M10.8762 4.57692C9.951 4.21403 9.11049 3.70321 8.18752 3.336C7.85947 3.20537 7.33238 3.19802 7.00654 3.32691C6.05609 3.70321 5.20051 4.25382 4.23409 4.59033C3.2668 4.92727 3.43658 5.538 3.3825 6.15825C3.33019 6.7573 3.53056 7.1349 4.21548 7.4368C5.97231 8.21017 7.68082 9.05836 9.51035 9.92515C9.13575 10.1133 8.84317 10.2236 8.60334 10.3875C7.90735 10.8624 7.2814 10.7885 6.55304 10.3832C5.61367 9.8607 4.59628 9.43466 3.40023 8.86631C3.40023 9.37627 3.44279 9.67039 3.39181 9.95326C3.26059 10.6795 3.57933 11.1349 4.40433 11.4377C5.15174 11.7119 5.87788 12.0541 6.5424 12.4485C7.30046 12.8988 7.93705 12.8538 8.6756 12.4226C9.36849 12.0182 10.1093 11.6462 10.8868 11.3724C11.7021 11.0852 11.8093 10.6137 11.7836 9.97748C11.7584 9.35637 11.7668 8.8542 10.917 8.49693C9.1721 7.76293 7.50704 6.89744 5.78434 6.07434C7.2907 5.01334 7.42325 5.0034 8.95134 5.73567C9.82864 6.15609 10.7126 6.56699 11.7672 7.06353C11.7672 6.55834 11.726 6.22183 11.7761 5.89441C11.8745 5.25426 11.6045 4.86239 10.8771 4.57736L10.8762 4.57692Z" fill="#17A74F"/>
</g>
<defs>
<clipPath id="clip0_2397_6417">
<rect width="15.9997" height="16" fill="white"/>
</clipPath>
</defs>
</svg>
