<svg width="12" height="12" viewBox="0 0 12 12" fill="none" xmlns="http://www.w3.org/2000/svg">
<g clip-path="url(#clip0_3437_89579)">
<path d="M5.97923 12.0001C5.79719 12.0001 5.61815 11.9696 5.48279 11.908C3.82209 11.1534 2.33576 10.4472 0.939121 9.7494C0.619383 9.5898 0.345656 9.18884 0.328986 8.856C0.292978 8.15042 0.298646 7.43641 0.303981 6.74575C0.305981 6.49921 0.307981 6.24423 0.307981 5.99379C0.307981 5.73913 0.305981 5.47928 0.304314 5.2282C0.299313 4.54208 0.293978 3.83261 0.32932 3.1319C0.346323 2.79777 0.619383 2.39648 0.938454 2.2372C2.34776 1.53324 3.81609 0.837074 5.42711 0.108789C5.73484 -0.0303802 6.22362 -0.0368683 6.51702 0.0941906C8.02402 0.767652 9.57702 1.49529 11.133 2.25666C11.4301 2.402 11.6755 2.77538 11.6798 3.08843C11.7082 5.14937 11.7068 7.05102 11.6752 8.90206C11.6695 9.24658 11.3558 9.61251 11.0684 9.75395C9.63637 10.4592 8.1047 11.1803 6.51635 11.8979C6.36632 11.9657 6.17127 11.9998 5.9789 11.9998L5.97923 12.0001ZM6.00524 0.616155C5.89054 0.616155 5.76985 0.633998 5.69417 0.66806C4.09048 1.39278 2.62949 2.08538 1.22752 2.78544C1.09949 2.84935 0.967127 3.05502 0.961792 3.16207C0.927451 3.84559 0.932452 4.5463 0.937787 5.22365C0.939787 5.47604 0.941788 5.73686 0.941454 5.99379C0.941454 6.24617 0.939454 6.50245 0.937454 6.7503C0.932119 7.43252 0.926451 8.13777 0.961125 8.8255C0.96646 8.93158 1.09949 9.13661 1.22785 9.20084C2.61749 9.89539 4.09682 10.598 5.75018 11.3494C5.86121 11.3996 6.12693 11.3941 6.24929 11.339C7.83131 10.6243 9.35631 9.90609 10.782 9.20408C10.9163 9.1379 11.0383 8.95397 11.0413 8.89168C11.0727 7.04713 11.074 5.15131 11.0457 3.09687C11.0447 3.02031 10.9383 2.85194 10.8476 2.8075C9.29863 2.04904 7.75229 1.32465 6.25196 0.654435C6.19395 0.628483 6.10126 0.615831 6.00424 0.615831L6.00524 0.616155Z" fill="#17A74F"/>
<path d="M8.15725 3.43272C7.46335 3.16055 6.83295 2.77743 6.14071 2.50201C5.89467 2.40404 5.49934 2.39852 5.25496 2.49519C4.54211 2.77743 3.90041 3.19039 3.17558 3.44278C2.4501 3.69549 2.57744 4.15354 2.53688 4.61874C2.49764 5.06804 2.64793 5.35124 3.16162 5.57767C4.47927 6.15771 5.76068 6.79386 7.13285 7.44397C6.8519 7.58508 6.63246 7.6678 6.45258 7.79075C5.93058 8.14695 5.46111 8.09148 4.91483 7.78751C4.21029 7.39563 3.44723 7.07609 2.55017 6.64983C2.55017 7.0323 2.58209 7.25289 2.54386 7.46505C2.44544 8.00973 2.6845 8.35132 3.30326 8.5784C3.86383 8.78408 4.40845 9.04068 4.90685 9.33653C5.4754 9.67424 5.95285 9.6405 6.50678 9.31707C7.02646 9.01375 7.58205 8.73477 8.16523 8.52942C8.77667 8.31402 8.85714 7.96042 8.83785 7.48322C8.8189 7.01738 8.82522 6.64074 8.18784 6.37279C6.87917 5.82227 5.63034 5.17314 4.33829 4.5558C5.46809 3.76004 5.5675 3.75258 6.71359 4.3018C7.37158 4.61712 8.03456 4.9253 8.82555 5.29771C8.82555 4.91881 8.79463 4.66643 8.8322 4.42085C8.90601 3.94074 8.70353 3.64683 8.15791 3.43304L8.15725 3.43272Z" fill="#17A74F"/>
</g>
<defs>
<clipPath id="clip0_3437_89579">
<rect width="12" height="12.0002" fill="white"/>
</clipPath>
</defs>
</svg>
