<svg width="33" height="32" viewBox="0 0 33 32" fill="none" xmlns="http://www.w3.org/2000/svg">
<g clip-path="url(#clip0_2914_134335)">
<path d="M16.5 32C25.3366 32 32.5 24.8366 32.5 16C32.5 7.16344 25.3366 0 16.5 0C7.66344 0 0.5 7.16344 0.5 16C0.5 24.8366 7.66344 32 16.5 32Z" fill="url(#paint0_linear_2914_134335)"/>
<path d="M13.5669 23.3332C13.0485 23.3332 13.1367 23.1374 12.9579 22.6438L11.4336 17.6274L23.1669 10.6665" fill="#C8DAEA"/>
<path d="M13.5664 23.3335C13.9664 23.3335 14.1431 23.1505 14.3664 22.9335L16.4997 20.8591L13.8387 19.2544" fill="#A9C9DD"/>
<path d="M13.8396 19.2547L20.2876 24.0186C21.0235 24.4246 21.5544 24.2143 21.7377 23.3355L24.3624 10.9671C24.6311 9.88976 23.9517 9.40096 23.2477 9.72056L7.83575 15.6634C6.78375 16.0854 6.79002 16.6723 7.64402 16.9338L11.5991 18.1683L20.7555 12.3916C21.1877 12.1295 21.5845 12.2703 21.2589 12.5594" fill="url(#paint1_linear_2914_134335)"/>
</g>
<defs>
<linearGradient id="paint0_linear_2914_134335" x1="21.844" y1="5.344" x2="13.844" y2="24" gradientUnits="userSpaceOnUse">
<stop stop-color="#37AEE2"/>
<stop offset="1" stop-color="#1E96C8"/>
</linearGradient>
<linearGradient id="paint1_linear_2914_134335" x1="18.5068" y1="16.0013" x2="21.0038" y2="21.6905" gradientUnits="userSpaceOnUse">
<stop stop-color="#EFF7FC"/>
<stop offset="1" stop-color="white"/>
</linearGradient>
<clipPath id="clip0_2914_134335">
<rect width="32" height="32" fill="white" transform="translate(0.5)"/>
</clipPath>
</defs>
</svg>
