<svg width="16" height="17" viewBox="0 0 16 17" fill="none" xmlns="http://www.w3.org/2000/svg">
<g clip-path="url(#clip0_2914_122016)">
<path d="M14.0002 2.5C14.177 2.5 14.3465 2.57024 14.4716 2.69526C14.5966 2.82029 14.6668 2.98986 14.6668 3.16667V6.83333C14.2248 6.83333 13.8009 7.00893 13.4883 7.32149C13.1758 7.63405 13.0002 8.05797 13.0002 8.5C13.0002 8.94203 13.1758 9.36595 13.4883 9.67851C13.8009 9.99107 14.2248 10.1667 14.6668 10.1667V13.8333C14.6668 14.0101 14.5966 14.1797 14.4716 14.3047C14.3465 14.4298 14.177 14.5 14.0002 14.5H2.00016C1.82335 14.5 1.65378 14.4298 1.52876 14.3047C1.40373 14.1797 1.3335 14.0101 1.3335 13.8333V10.1667C1.77552 10.1667 2.19945 9.99107 2.51201 9.67851C2.82457 9.36595 3.00016 8.94203 3.00016 8.5C3.00016 8.05797 2.82457 7.63405 2.51201 7.32149C2.19945 7.00893 1.77552 6.83333 1.3335 6.83333V3.16667C1.3335 2.98986 1.40373 2.82029 1.52876 2.69526C1.65378 2.57024 1.82335 2.5 2.00016 2.5H14.0002Z" fill="#FF7617"/>
</g>
<defs>
<clipPath id="clip0_2914_122016">
<rect width="16" height="16" fill="white" transform="translate(0 0.5)"/>
</clipPath>
</defs>
</svg>
