<svg width="32" height="32" viewBox="0 0 32 32" fill="none" xmlns="http://www.w3.org/2000/svg">
<path d="M10.0636 30.2979C22.1397 30.2979 28.7436 19.2974 28.7436 9.75821C28.7436 9.44576 28.7378 9.13473 28.7251 8.8251C30.007 7.80612 31.1212 6.53452 32 5.08696C30.8236 5.6619 29.5577 6.04893 28.2297 6.22346C29.5852 5.32974 30.6258 3.91599 31.1168 2.23064C29.8483 3.0575 28.4435 3.65847 26.9478 3.98293C25.7498 2.57977 24.0441 1.70215 22.1555 1.70215C18.5299 1.70215 15.5898 4.93506 15.5898 8.92008C15.5898 9.48657 15.6474 10.0376 15.7601 10.5661C10.3035 10.2642 5.465 7.39165 2.22682 3.02372C1.66298 4.09054 1.33787 5.32977 1.33787 6.65206C1.33787 9.15658 2.49694 11.3676 4.25949 12.6611C3.18235 12.6245 2.1705 12.2993 1.28611 11.7582C1.28514 11.7885 1.28514 11.818 1.28514 11.8504C1.28514 15.3465 3.5482 18.2654 6.55229 18.9269C6.00061 19.0922 5.42017 19.1809 4.82109 19.1809C4.3987 19.1809 3.98717 19.1352 3.58717 19.0507C4.423 21.919 6.84672 24.0063 9.72024 24.0646C7.47318 26.0012 4.64252 27.1547 1.56605 27.1547C1.03677 27.1547 0.513893 27.1216 0 27.0547C2.90562 29.1026 6.35578 30.2974 10.064 30.2974" fill="#1DA1F2"/>
</svg>
