<svg width="16" height="16" viewBox="0 0 16 16" fill="none" xmlns="http://www.w3.org/2000/svg">
<path d="M14.4962 13.2492C13.5632 11.6423 12.0691 10.4371 10.3012 9.86526C11.1482 9.36131 11.8063 8.59326 12.1744 7.67906C12.5426 6.76487 12.6004 5.75509 12.3391 4.80482C12.0778 3.85456 11.5117 3.01636 10.7279 2.41898C9.94401 1.82159 8.98572 1.49805 8.00018 1.49805C7.01464 1.49805 6.05635 1.82159 5.2725 2.41898C4.48865 3.01636 3.92259 3.85456 3.66126 4.80482C3.39993 5.75509 3.45779 6.76487 3.82595 7.67906C4.1941 8.59326 4.8522 9.36131 5.69915 9.86526C3.93128 10.437 2.43721 11.6422 1.50424 13.249C1.46026 13.3251 1.43707 13.4113 1.43701 13.4991C1.43695 13.5869 1.46001 13.6732 1.50388 13.7492C1.54775 13.8253 1.61087 13.8885 1.68691 13.9324C1.76294 13.9763 1.8492 13.9994 1.93701 13.9994L14.0634 13.9996C14.1513 13.9996 14.2375 13.9765 14.3136 13.9325C14.3896 13.8886 14.4527 13.8254 14.4966 13.7494C14.5405 13.6733 14.5635 13.587 14.5635 13.4992C14.5634 13.4114 14.5402 13.3252 14.4962 13.2492L14.4962 13.2492Z" fill="#1DA7B4"/>
</svg>
