<svg width="16" height="17" viewBox="0 0 16 17" fill="none" xmlns="http://www.w3.org/2000/svg">
<path d="M8 14.5C11.3137 14.5 14 11.8137 14 8.5C14 5.18629 11.3137 2.5 8 2.5C4.68629 2.5 2 5.18629 2 8.5C2 11.8137 4.68629 14.5 8 14.5Z" stroke="#D1D5DA" stroke-width="1.25" stroke-linecap="round" stroke-linejoin="round"/>
<path d="M8 10.5C9.38071 10.5 10.5 9.38071 10.5 8C10.5 6.61929 9.38071 5.5 8 5.5C6.61929 5.5 5.5 6.61929 5.5 8C5.5 9.38071 6.61929 10.5 8 10.5Z" stroke="#D1D5DA" stroke-width="1.25" stroke-linecap="round" stroke-linejoin="round"/>
<path d="M3.9873 12.9609C4.36394 12.2204 4.93813 11.5986 5.64632 11.1642C6.35452 10.7299 7.16908 10.5 7.99986 10.5C8.83063 10.5 9.6452 10.7299 10.3534 11.1642C11.0616 11.5985 11.6358 12.2204 12.0124 12.9609" stroke="#D1D5DA" stroke-width="1.25" stroke-linecap="round" stroke-linejoin="round"/>
</svg>
