<svg width="32" height="32" viewBox="0 0 32 32" fill="none" xmlns="http://www.w3.org/2000/svg">
<rect width="32" height="32" rx="6" fill="url(#paint0_linear_2914_134340)"/>
<path fill-rule="evenodd" clip-rule="evenodd" d="M7.02365 21.0852L5.54688 26.4536L11.0642 25.0126C12.5843 25.8385 14.2962 26.2735 16.0378 26.2741H16.0422C21.7782 26.2741 26.4476 21.6261 26.4498 15.9138C26.4509 13.1452 25.3688 10.5426 23.4041 8.58411C21.4389 6.62614 18.8263 5.54699 16.0422 5.5459C10.305 5.5459 5.63678 10.1933 5.63403 15.9056C5.63349 17.7315 6.11259 19.5142 7.02365 21.0852ZM16.0446 7.2959C18.3557 7.29644 20.527 8.19328 22.1606 9.82101C23.7941 11.4487 24.6926 13.6125 24.692 15.9133C24.6904 20.6616 20.8099 24.5246 16.0419 24.5246H16.0386C14.4862 24.5241 12.9633 24.1092 11.6357 23.3243L11.3194 23.1376L8.04514 23.9924L8.91948 20.815L8.71336 20.4891C7.84725 19.1174 7.39008 17.5333 7.39063 15.9062C7.39282 11.1583 11.2733 7.2959 16.0446 7.2959Z" fill="white"/>
<path fill-rule="evenodd" clip-rule="evenodd" d="M23.4056 8.58406C21.4404 6.62609 18.8279 5.54694 16.0437 5.54585C10.3065 5.54585 5.6383 10.1932 5.63556 15.9056C5.63501 17.7314 6.11411 19.5142 7.02517 21.0852L5.5484 26.4536L11.0657 25.0126C12.5858 25.8384 14.2978 26.2735 16.0393 26.274H16.0437C21.7798 26.274 26.4491 21.6261 26.4513 15.9138C26.4524 13.1452 25.3703 10.5426 23.4056 8.58406ZM5.08738 15.9056C5.09013 9.89192 10.005 5 16.0437 5C18.9726 5.00109 21.7249 6.13701 23.7943 8.19869C25.8625 10.2598 27.0011 13 27 15.9143C26.9973 21.9279 22.0824 26.8204 16.0393 26.8204C14.2857 26.8199 12.548 26.3968 10.9978 25.5955L5.68763 26.982C5.64159 26.994 5.59499 27 5.5484 27C5.40368 27 5.2628 26.9427 5.15865 26.8379C5.02051 26.6992 4.96788 26.4984 5.01941 26.31L6.43644 21.1578C5.55278 19.5546 5.08684 17.7435 5.08738 15.9056Z" fill="#CFD8DC"/>
<path fill-rule="evenodd" clip-rule="evenodd" d="M5.35268 26.6458C5.40476 26.6982 5.47493 26.7266 5.54728 26.7266C5.57086 26.7266 5.59388 26.7238 5.6169 26.7173L11.0301 25.3041C12.565 26.1168 14.2945 26.5464 16.0426 26.547C21.9299 26.547 26.7221 21.7768 26.7242 15.9138C26.7253 13.0732 25.6153 10.4018 23.5986 8.3914C21.5819 6.38157 18.8986 5.27404 16.0426 5.27295C10.1547 5.27295 5.3631 10.0426 5.36091 15.9061C5.35981 17.7347 5.83288 19.536 6.72969 21.1223L5.28307 26.3821C5.2573 26.4755 5.28416 26.5764 5.35268 26.6458ZM16.0446 7.2959C18.3557 7.29644 20.527 8.19328 22.1606 9.82101C23.7941 11.4487 24.6926 13.6125 24.692 15.9133C24.6904 20.6616 20.8099 24.5246 16.0419 24.5246H16.0386C14.4862 24.5241 12.9633 24.1092 11.6357 23.3243L11.3194 23.1376L8.04514 23.9924L8.91948 20.815L8.71336 20.4891C7.84725 19.1174 7.39008 17.5333 7.39063 15.9062C7.39282 11.1583 11.2733 7.2959 16.0446 7.2959Z" fill="white"/>
<path fill-rule="evenodd" clip-rule="evenodd" d="M13.4416 11.5747C13.247 11.1435 13.042 11.1348 12.8561 11.1271C12.7043 11.1206 12.5311 11.1211 12.3579 11.1211C12.1846 11.1211 11.9029 11.1861 11.6644 11.4453C11.426 11.7046 10.7539 12.3307 10.7539 13.6047C10.7539 14.8787 11.6858 16.1102 11.8157 16.2827C11.9456 16.4552 13.6148 19.1533 16.2581 20.1915C18.4546 21.054 18.9019 20.8826 19.3788 20.8394C19.8558 20.7963 20.9176 20.2134 21.1341 19.6086C21.3506 19.0037 21.3506 18.4857 21.2859 18.3777C21.2207 18.2696 21.0475 18.2052 20.7876 18.0753C20.5278 17.9453 19.2489 17.3192 19.0105 17.233C18.772 17.1468 18.5988 17.1036 18.425 17.3629C18.2518 17.6217 17.7535 18.2052 17.6017 18.3777C17.4498 18.5507 17.298 18.5725 17.0381 18.4426C16.7783 18.3127 15.9407 18.0398 14.9469 17.1577C14.1739 16.4715 13.6521 15.6238 13.5002 15.3646C13.3484 15.1058 13.4838 14.9655 13.6143 14.8362C13.731 14.7199 13.8741 14.5338 14.0046 14.3826C14.1345 14.2314 14.1778 14.1233 14.2644 13.9508C14.351 13.7778 14.3077 13.6266 14.2425 13.4972C14.1783 13.3673 13.6729 12.0867 13.4416 11.5747Z" fill="white"/>
<defs>
<linearGradient id="paint0_linear_2914_134340" x1="16" y1="0" x2="16" y2="32" gradientUnits="userSpaceOnUse">
<stop stop-color="#36F46C"/>
<stop offset="1" stop-color="#04D749"/>
</linearGradient>
</defs>
</svg>
