<svg width="20" height="20" viewBox="0 0 20 20" fill="none" xmlns="http://www.w3.org/2000/svg">
<rect width="20" height="20" rx="10" fill="#E9F4FF"/>
<rect x="2" y="2" width="16" height="16" rx="8" fill="#CBE4FF"/>
<path d="M7 13.5V6.5H9.38865C9.88736 6.5 10.3551 6.59167 10.7919 6.775C11.2287 6.955 11.6122 7.20667 11.9424 7.53C12.2726 7.85 12.5305 8.22167 12.7163 8.645C12.9054 9.065 13 9.51667 13 10C13 10.4833 12.9054 10.9367 12.7163 11.36C12.5305 11.78 12.2726 12.1517 11.9424 12.475C11.6122 12.795 11.2287 13.0467 10.7919 13.23C10.3551 13.41 9.88736 13.5 9.38865 13.5H7ZM8.07309 12.46H9.38865C9.73947 12.46 10.0662 12.3967 10.3689 12.27C10.675 12.1433 10.945 11.9667 11.1788 11.74C11.4162 11.5133 11.6002 11.2517 11.7309 10.955C11.8616 10.6583 11.9269 10.34 11.9269 10C11.9269 9.66 11.8616 9.34167 11.7309 9.045C11.6002 8.74833 11.4162 8.48667 11.1788 8.26C10.945 8.03333 10.675 7.85667 10.3689 7.73C10.0662 7.60333 9.73947 7.54 9.38865 7.54H8.07309V12.46Z" fill="#076EDE"/>
<rect x="2" y="2" width="16" height="16" rx="8" stroke="#076EDE" stroke-width="1.5" stroke-miterlimit="5.75877" stroke-linecap="round" stroke-dasharray="3 3"/>
</svg>
