<svg width="168" height="35" viewBox="0 0 168 35" fill="none" xmlns="http://www.w3.org/2000/svg">
<rect x="57" y="0.5" width="17" height="16" rx="8" fill="#2F363D"/>
<path d="M61.75 12.5V5.5H62.97V12.5H61.75ZM64.5246 12.5V5.5H67.0746C67.4446 5.5 67.7779 5.57667 68.0746 5.73C68.3746 5.88 68.6113 6.09667 68.7846 6.38C68.9613 6.66 69.0496 6.99167 69.0496 7.375C69.0496 7.545 69.0246 7.71667 68.9746 7.89C68.9246 8.06333 68.8479 8.22 68.7446 8.36C68.6413 8.49667 68.5079 8.59833 68.3446 8.665C68.5613 8.71833 68.7379 8.815 68.8746 8.955C69.0113 9.095 69.1179 9.26 69.1946 9.45C69.2713 9.63667 69.3229 9.82833 69.3496 10.025C69.3796 10.2183 69.3946 10.3983 69.3946 10.565C69.3946 10.935 69.3029 11.265 69.1196 11.555C68.9363 11.845 68.6896 12.075 68.3796 12.245C68.0729 12.415 67.7329 12.5 67.3596 12.5H64.5246ZM65.7446 11.455H67.2346C67.4346 11.455 67.6146 11.4067 67.7746 11.31C67.9346 11.2133 68.0629 11.08 68.1596 10.91C68.2563 10.74 68.3046 10.5467 68.3046 10.33C68.3046 10.1433 68.2563 9.96667 68.1596 9.8C68.0629 9.63333 67.9346 9.49833 67.7746 9.395C67.6146 9.29167 67.4346 9.24 67.2346 9.24H65.7446V11.455ZM65.7446 8.21H66.9346C67.1813 8.21 67.3913 8.13333 67.5646 7.98C67.7413 7.82667 67.8296 7.62333 67.8296 7.37C67.8296 7.1 67.7413 6.89667 67.5646 6.76C67.3913 6.62 67.1813 6.55 66.9346 6.55H65.7446V8.21Z" fill="#FAFBFC"/>
<path d="M79.8311 13V4.908H78.5991L79.0611 3.2H81.5391V13H79.8311ZM83.2202 13.784L83.6542 11.418H85.3622L84.3612 13.784H83.2202ZM90.4362 13.182C89.8668 13.182 89.3488 13.0513 88.8822 12.79C88.4155 12.524 88.0118 12.1577 87.6712 11.691C87.3352 11.2243 87.0762 10.6853 86.8942 10.074C86.7122 9.458 86.6212 8.8 86.6212 8.1C86.6212 7.4 86.7122 6.74433 86.8942 6.133C87.0762 5.517 87.3352 4.97567 87.6712 4.509C88.0118 4.04233 88.4155 3.67833 88.8822 3.417C89.3488 3.151 89.8668 3.018 90.4362 3.018C91.0055 3.018 91.5235 3.151 91.9902 3.417C92.4568 3.67833 92.8558 4.04233 93.1872 4.509C93.5232 4.97567 93.7822 5.517 93.9642 6.133C94.1508 6.74433 94.2442 7.4 94.2442 8.1C94.2442 8.8 94.1508 9.458 93.9642 10.074C93.7822 10.6853 93.5232 11.2243 93.1872 11.691C92.8558 12.1577 92.4568 12.524 91.9902 12.79C91.5235 13.0513 91.0055 13.182 90.4362 13.182ZM90.4362 11.474C90.9355 11.474 91.3485 11.3153 91.6752 10.998C92.0018 10.6807 92.2445 10.2653 92.4032 9.752C92.5618 9.23867 92.6412 8.688 92.6412 8.1C92.6412 7.47933 92.5572 6.91467 92.3892 6.406C92.2212 5.89267 91.9738 5.48433 91.6472 5.181C91.3205 4.87767 90.9168 4.726 90.4362 4.726C90.0582 4.726 89.7292 4.81933 89.4492 5.006C89.1738 5.188 88.9452 5.43767 88.7632 5.755C88.5812 6.07233 88.4458 6.434 88.3572 6.84C88.2685 7.24133 88.2242 7.66133 88.2242 8.1C88.2242 8.68333 88.3035 9.234 88.4622 9.752C88.6255 10.2653 88.8705 10.6807 89.1972 10.998C89.5285 11.3153 89.9415 11.474 90.4362 11.474ZM98.5846 13.182C98.0153 13.182 97.4973 13.0513 97.0306 12.79C96.5639 12.524 96.1603 12.1577 95.8196 11.691C95.4836 11.2243 95.2246 10.6853 95.0426 10.074C94.8606 9.458 94.7696 8.8 94.7696 8.1C94.7696 7.4 94.8606 6.74433 95.0426 6.133C95.2246 5.517 95.4836 4.97567 95.8196 4.509C96.1603 4.04233 96.5639 3.67833 97.0306 3.417C97.4973 3.151 98.0153 3.018 98.5846 3.018C99.1539 3.018 99.6719 3.151 100.139 3.417C100.605 3.67833 101.004 4.04233 101.336 4.509C101.672 4.97567 101.931 5.517 102.113 6.133C102.299 6.74433 102.393 7.4 102.393 8.1C102.393 8.8 102.299 9.458 102.113 10.074C101.931 10.6853 101.672 11.2243 101.336 11.691C101.004 12.1577 100.605 12.524 100.139 12.79C99.6719 13.0513 99.1539 13.182 98.5846 13.182ZM98.5846 11.474C99.0839 11.474 99.4969 11.3153 99.8236 10.998C100.15 10.6807 100.393 10.2653 100.552 9.752C100.71 9.23867 100.79 8.688 100.79 8.1C100.79 7.47933 100.706 6.91467 100.538 6.406C100.37 5.89267 100.122 5.48433 99.7956 5.181C99.4689 4.87767 99.0653 4.726 98.5846 4.726C98.2066 4.726 97.8776 4.81933 97.5976 5.006C97.3223 5.188 97.0936 5.43767 96.9116 5.755C96.7296 6.07233 96.5943 6.434 96.5056 6.84C96.4169 7.24133 96.3726 7.66133 96.3726 8.1C96.3726 8.68333 96.4519 9.234 96.6106 9.752C96.7739 10.2653 97.0189 10.6807 97.3456 10.998C97.6769 11.3153 98.0899 11.474 98.5846 11.474ZM106.733 13.182C106.164 13.182 105.646 13.0513 105.179 12.79C104.712 12.524 104.309 12.1577 103.968 11.691C103.632 11.2243 103.373 10.6853 103.191 10.074C103.009 9.458 102.918 8.8 102.918 8.1C102.918 7.4 103.009 6.74433 103.191 6.133C103.373 5.517 103.632 4.97567 103.968 4.509C104.309 4.04233 104.712 3.67833 105.179 3.417C105.646 3.151 106.164 3.018 106.733 3.018C107.302 3.018 107.82 3.151 108.287 3.417C108.754 3.67833 109.153 4.04233 109.484 4.509C109.82 4.97567 110.079 5.517 110.261 6.133C110.448 6.74433 110.541 7.4 110.541 8.1C110.541 8.8 110.448 9.458 110.261 10.074C110.079 10.6853 109.82 11.2243 109.484 11.691C109.153 12.1577 108.754 12.524 108.287 12.79C107.82 13.0513 107.302 13.182 106.733 13.182ZM106.733 11.474C107.232 11.474 107.645 11.3153 107.972 10.998C108.299 10.6807 108.541 10.2653 108.7 9.752C108.859 9.23867 108.938 8.688 108.938 8.1C108.938 7.47933 108.854 6.91467 108.686 6.406C108.518 5.89267 108.271 5.48433 107.944 5.181C107.617 4.87767 107.214 4.726 106.733 4.726C106.355 4.726 106.026 4.81933 105.746 5.006C105.471 5.188 105.242 5.43767 105.06 5.755C104.878 6.07233 104.743 6.434 104.654 6.84C104.565 7.24133 104.521 7.66133 104.521 8.1C104.521 8.68333 104.6 9.234 104.759 9.752C104.922 10.2653 105.167 10.6807 105.494 10.998C105.825 11.3153 106.238 11.474 106.733 11.474Z" fill="#24292E"/>
<path d="M49.7903 32V23.6H50.7983V32H49.7903ZM57.7268 28.268V32H56.7188V28.49C56.7188 28.186 56.6448 27.91 56.4968 27.662C56.3488 27.414 56.1508 27.218 55.9028 27.074C55.6548 26.926 55.3788 26.852 55.0748 26.852C54.7748 26.852 54.4988 26.926 54.2468 27.074C53.9988 27.218 53.8008 27.414 53.6528 27.662C53.5048 27.91 53.4308 28.186 53.4308 28.49V32H52.4228V26H53.4308V26.75C53.6428 26.47 53.9108 26.248 54.2348 26.084C54.5588 25.916 54.9108 25.832 55.2908 25.832C55.7388 25.832 56.1468 25.942 56.5148 26.162C56.8868 26.378 57.1808 26.67 57.3968 27.038C57.6168 27.406 57.7268 27.816 57.7268 28.268ZM60.7567 32.114C60.4327 32.102 60.1167 32.042 59.8087 31.934C59.5047 31.822 59.2367 31.672 59.0047 31.484C58.7767 31.292 58.6107 31.072 58.5067 30.824L59.3707 30.452C59.4307 30.588 59.5387 30.716 59.6947 30.836C59.8507 30.956 60.0307 31.052 60.2347 31.124C60.4387 31.196 60.6447 31.232 60.8527 31.232C61.0727 31.232 61.2787 31.198 61.4707 31.13C61.6627 31.062 61.8187 30.962 61.9387 30.83C62.0627 30.694 62.1247 30.532 62.1247 30.344C62.1247 30.144 62.0567 29.988 61.9207 29.876C61.7887 29.76 61.6207 29.67 61.4167 29.606C61.2167 29.538 61.0127 29.474 60.8047 29.414C60.3927 29.31 60.0247 29.186 59.7007 29.042C59.3767 28.894 59.1207 28.708 58.9327 28.484C58.7487 28.256 58.6567 27.966 58.6567 27.614C58.6567 27.242 58.7587 26.92 58.9627 26.648C59.1707 26.376 59.4427 26.166 59.7787 26.018C60.1147 25.87 60.4747 25.796 60.8587 25.796C61.3427 25.796 61.7847 25.9 62.1847 26.108C62.5847 26.316 62.8827 26.598 63.0787 26.954L62.2687 27.428C62.2007 27.284 62.0967 27.158 61.9567 27.05C61.8167 26.938 61.6567 26.85 61.4767 26.786C61.2967 26.722 61.1127 26.688 60.9247 26.684C60.6927 26.676 60.4747 26.706 60.2707 26.774C60.0707 26.842 59.9087 26.946 59.7847 27.086C59.6647 27.222 59.6047 27.392 59.6047 27.596C59.6047 27.796 59.6687 27.948 59.7967 28.052C59.9287 28.156 60.0987 28.24 60.3067 28.304C60.5187 28.364 60.7487 28.434 60.9967 28.514C61.3607 28.63 61.7007 28.764 62.0167 28.916C62.3327 29.068 62.5867 29.258 62.7787 29.486C62.9747 29.714 63.0707 29.996 63.0667 30.332C63.0667 30.7 62.9567 31.022 62.7367 31.298C62.5167 31.57 62.2307 31.778 61.8787 31.922C61.5307 32.066 61.1567 32.13 60.7567 32.114ZM67.2027 27.008H65.8407L65.8347 32H64.8267L64.8327 27.008H63.8007V26H64.8327L64.8267 24.116H65.8347L65.8407 26H67.2027V27.008ZM72.9499 26H73.9579V32H72.9499L72.9079 30.986C72.7199 31.334 72.4599 31.616 72.1279 31.832C71.7999 32.048 71.4079 32.156 70.9519 32.156C70.5119 32.156 70.0999 32.074 69.7159 31.91C69.3319 31.742 68.9919 31.512 68.6959 31.22C68.4039 30.924 68.1759 30.584 68.0119 30.2C67.8479 29.816 67.7659 29.402 67.7659 28.958C67.7659 28.53 67.8459 28.126 68.0059 27.746C68.1659 27.366 68.3879 27.034 68.6719 26.75C68.9599 26.462 69.2919 26.238 69.6679 26.078C70.0439 25.914 70.4479 25.832 70.8799 25.832C71.3519 25.832 71.7659 25.944 72.1219 26.168C72.4779 26.388 72.7659 26.674 72.9859 27.026L72.9499 26ZM70.9339 31.178C71.3299 31.178 71.6719 31.082 71.9599 30.89C72.2519 30.694 72.4759 30.43 72.6319 30.098C72.7919 29.766 72.8719 29.4 72.8719 29C72.8719 28.592 72.7919 28.224 72.6319 27.896C72.4719 27.564 72.2459 27.302 71.9539 27.11C71.6659 26.914 71.3259 26.816 70.9339 26.816C70.5379 26.816 70.1779 26.914 69.8539 27.11C69.5299 27.306 69.2719 27.57 69.0799 27.902C68.8919 28.23 68.7979 28.596 68.7979 29C68.7979 29.404 68.8959 29.772 69.0919 30.104C69.2879 30.432 69.5479 30.694 69.8719 30.89C70.1959 31.082 70.5499 31.178 70.9339 31.178ZM80.4612 28.268V32H79.4532V28.49C79.4532 28.186 79.3792 27.91 79.2312 27.662C79.0832 27.414 78.8852 27.218 78.6372 27.074C78.3892 26.926 78.1132 26.852 77.8092 26.852C77.5092 26.852 77.2332 26.926 76.9812 27.074C76.7332 27.218 76.5352 27.414 76.3872 27.662C76.2392 27.91 76.1652 28.186 76.1652 28.49V32H75.1572V26H76.1652V26.75C76.3772 26.47 76.6452 26.248 76.9692 26.084C77.2932 25.916 77.6452 25.832 78.0252 25.832C78.4732 25.832 78.8812 25.942 79.2492 26.162C79.6212 26.378 79.9152 26.67 80.1312 27.038C80.3512 27.406 80.4612 27.816 80.4612 28.268ZM84.7691 27.008H83.4071L83.4011 32H82.3931L82.3991 27.008H81.3671V26H82.3991L82.3931 24.116H83.4011L83.4071 26H84.7691V27.008ZM88.7275 32V23.6H91.6255C92.0415 23.6 92.4195 23.686 92.7595 23.858C93.1035 24.026 93.3755 24.272 93.5755 24.596C93.7755 24.92 93.8755 25.308 93.8755 25.76C93.8755 26.004 93.8335 26.24 93.7495 26.468C93.6695 26.692 93.5575 26.886 93.4135 27.05C93.2735 27.21 93.1135 27.318 92.9335 27.374C93.1855 27.438 93.3995 27.552 93.5755 27.716C93.7515 27.876 93.8935 28.064 94.0015 28.28C94.1135 28.496 94.1935 28.722 94.2415 28.958C94.2895 29.194 94.3135 29.422 94.3135 29.642C94.3135 30.106 94.2075 30.516 93.9955 30.872C93.7875 31.224 93.5075 31.5 93.1555 31.7C92.8035 31.9 92.4155 32 91.9915 32H88.7275ZM89.7355 31.112H91.9015C92.1775 31.112 92.4275 31.042 92.6515 30.902C92.8795 30.758 93.0615 30.562 93.1975 30.314C93.3335 30.066 93.4015 29.786 93.4015 29.474C93.4015 29.198 93.3335 28.938 93.1975 28.694C93.0615 28.446 92.8795 28.246 92.6515 28.094C92.4275 27.942 92.1775 27.866 91.9015 27.866H89.7355V31.112ZM89.7355 26.996H91.5295C91.8975 26.996 92.2115 26.888 92.4715 26.672C92.7355 26.452 92.8675 26.146 92.8675 25.754C92.8675 25.33 92.7355 25.014 92.4715 24.806C92.2115 24.594 91.8975 24.488 91.5295 24.488H89.7355V26.996ZM97.8948 32.156C97.3428 32.156 96.8388 32.014 96.3828 31.73C95.9308 31.446 95.5688 31.066 95.2968 30.59C95.0288 30.11 94.8948 29.58 94.8948 29C94.8948 28.56 94.9728 28.15 95.1288 27.77C95.2848 27.386 95.4988 27.05 95.7708 26.762C96.0468 26.47 96.3668 26.242 96.7308 26.078C97.0948 25.914 97.4828 25.832 97.8948 25.832C98.4468 25.832 98.9488 25.974 99.4008 26.258C99.8568 26.542 100.219 26.924 100.487 27.404C100.759 27.884 100.895 28.416 100.895 29C100.895 29.436 100.817 29.844 100.661 30.224C100.505 30.604 100.289 30.94 100.013 31.232C99.7408 31.52 99.4228 31.746 99.0588 31.91C98.6988 32.074 98.3108 32.156 97.8948 32.156ZM97.8948 31.148C98.2708 31.148 98.6088 31.05 98.9088 30.854C99.2128 30.654 99.4508 30.392 99.6228 30.068C99.7988 29.74 99.8868 29.384 99.8868 29C99.8868 28.608 99.7968 28.248 99.6168 27.92C99.4408 27.592 99.2028 27.33 98.9028 27.134C98.6028 26.938 98.2668 26.84 97.8948 26.84C97.5188 26.84 97.1808 26.94 96.8808 27.14C96.5808 27.336 96.3428 27.598 96.1668 27.926C95.9908 28.254 95.9028 28.612 95.9028 29C95.9028 29.4 95.9928 29.764 96.1728 30.092C96.3528 30.416 96.5948 30.674 96.8988 30.866C97.2028 31.054 97.5348 31.148 97.8948 31.148ZM107.192 28.268V32H106.184V28.49C106.184 28.186 106.11 27.91 105.962 27.662C105.814 27.414 105.616 27.218 105.368 27.074C105.12 26.926 104.844 26.852 104.54 26.852C104.24 26.852 103.964 26.926 103.712 27.074C103.464 27.218 103.266 27.414 103.118 27.662C102.97 27.91 102.896 28.186 102.896 28.49V32H101.888V26H102.896V26.75C103.108 26.47 103.376 26.248 103.7 26.084C104.024 25.916 104.376 25.832 104.756 25.832C105.204 25.832 105.612 25.942 105.98 26.162C106.352 26.378 106.646 26.67 106.862 27.038C107.082 27.406 107.192 27.816 107.192 28.268ZM108.152 29.72V26H109.16V29.498C109.16 29.802 109.234 30.078 109.382 30.326C109.53 30.574 109.728 30.772 109.976 30.92C110.228 31.064 110.504 31.136 110.804 31.136C111.108 31.136 111.382 31.064 111.626 30.92C111.874 30.772 112.072 30.574 112.22 30.326C112.368 30.078 112.442 29.802 112.442 29.498V26H113.45L113.456 32H112.448L112.442 31.238C112.23 31.518 111.962 31.742 111.638 31.91C111.314 32.074 110.964 32.156 110.588 32.156C110.14 32.156 109.73 32.048 109.358 31.832C108.99 31.612 108.696 31.318 108.476 30.95C108.26 30.582 108.152 30.172 108.152 29.72ZM116.491 32.114C116.167 32.102 115.851 32.042 115.543 31.934C115.239 31.822 114.971 31.672 114.739 31.484C114.511 31.292 114.345 31.072 114.241 30.824L115.105 30.452C115.165 30.588 115.273 30.716 115.429 30.836C115.585 30.956 115.765 31.052 115.969 31.124C116.173 31.196 116.379 31.232 116.587 31.232C116.807 31.232 117.013 31.198 117.205 31.13C117.397 31.062 117.553 30.962 117.673 30.83C117.797 30.694 117.859 30.532 117.859 30.344C117.859 30.144 117.791 29.988 117.655 29.876C117.523 29.76 117.355 29.67 117.151 29.606C116.951 29.538 116.747 29.474 116.539 29.414C116.127 29.31 115.759 29.186 115.435 29.042C115.111 28.894 114.855 28.708 114.667 28.484C114.483 28.256 114.391 27.966 114.391 27.614C114.391 27.242 114.493 26.92 114.697 26.648C114.905 26.376 115.177 26.166 115.513 26.018C115.849 25.87 116.209 25.796 116.593 25.796C117.077 25.796 117.519 25.9 117.919 26.108C118.319 26.316 118.617 26.598 118.813 26.954L118.003 27.428C117.935 27.284 117.831 27.158 117.691 27.05C117.551 26.938 117.391 26.85 117.211 26.786C117.031 26.722 116.847 26.688 116.659 26.684C116.427 26.676 116.209 26.706 116.005 26.774C115.805 26.842 115.643 26.946 115.519 27.086C115.399 27.222 115.339 27.392 115.339 27.596C115.339 27.796 115.403 27.948 115.531 28.052C115.663 28.156 115.833 28.24 116.041 28.304C116.253 28.364 116.483 28.434 116.731 28.514C117.095 28.63 117.435 28.764 117.751 28.916C118.067 29.068 118.321 29.258 118.513 29.486C118.709 29.714 118.805 29.996 118.801 30.332C118.801 30.7 118.691 31.022 118.471 31.298C118.251 31.57 117.965 31.778 117.613 31.922C117.265 32.066 116.891 32.13 116.491 32.114Z" fill="#24292E"/>
</svg>
