<svg width="176" height="32" viewBox="0 0 176 32" fill="none" xmlns="http://www.w3.org/2000/svg">
<rect x="0.393555" width="175.213" height="32" rx="12" fill="#2F363D"/>
<path d="M80.4203 12.0959C80.2772 11.9765 80.1035 11.8997 79.9189 11.8743C79.7343 11.8489 79.5462 11.8759 79.3762 11.9522L76.2147 13.3574L74.374 10.0439C74.2874 9.88804 74.1607 9.75813 74.007 9.66768C73.8533 9.57724 73.6782 9.52954 73.4998 9.52954C73.3215 9.52954 73.1464 9.57724 72.9927 9.66768C72.839 9.75813 72.7123 9.88804 72.6257 10.0439L70.7849 13.3573L67.6229 11.952C67.4527 11.8764 67.2649 11.8498 67.0805 11.8752C66.896 11.9005 66.7224 11.9769 66.579 12.0956C66.4356 12.2144 66.3282 12.3708 66.2689 12.5473C66.2096 12.7237 66.2007 12.9132 66.2433 13.0945L67.8336 19.8653C67.8639 19.9964 67.9205 20.1199 68.0001 20.2284C68.0798 20.3368 68.1806 20.4279 68.2966 20.496C68.4132 20.5647 68.5424 20.6092 68.6766 20.6269C68.8107 20.6446 68.947 20.6352 69.0775 20.5992C71.9706 19.8005 75.026 19.8002 77.9193 20.5984C78.0496 20.6343 78.1859 20.6437 78.32 20.626C78.454 20.6083 78.5832 20.5638 78.6997 20.4952C78.8156 20.4271 78.9165 20.3361 78.9961 20.2277C79.0757 20.1194 79.1324 19.9959 79.1627 19.8649L80.7558 13.095C80.7991 12.9138 80.7907 12.724 80.7313 12.5474C80.672 12.3707 80.5642 12.2143 80.4203 12.0959ZM75.9971 17.6572C75.9903 17.7226 75.9707 17.7859 75.9394 17.8437C75.9081 17.9014 75.8657 17.9524 75.8146 17.9937C75.7636 18.0351 75.7049 18.0659 75.6419 18.0845C75.5789 18.1031 75.5128 18.1091 75.4475 18.1022C74.1526 17.9662 72.847 17.9662 71.5521 18.1022C71.4205 18.1156 71.2889 18.0762 71.1862 17.9928C71.0836 17.9094 71.0181 17.7886 71.0043 17.657C70.9904 17.5255 71.0293 17.3938 71.1124 17.2908C71.1955 17.1878 71.316 17.122 71.4475 17.1077C72.812 16.9644 74.1877 16.9644 75.5521 17.1077C75.6174 17.1145 75.6807 17.1342 75.7384 17.1655C75.7961 17.1969 75.8471 17.2392 75.8884 17.2903C75.9297 17.3413 75.9606 17.4 75.9792 17.4629C75.9979 17.5259 76.0039 17.5919 75.9971 17.6572Z" fill="white"/>
<path d="M89.35 20.182C88.72 20.182 88.1507 20.0303 87.642 19.727C87.1333 19.419 86.7297 19.0107 86.431 18.502C86.137 17.9933 85.99 17.4357 85.99 16.829H87.698C87.698 17.1323 87.7727 17.41 87.922 17.662C88.0713 17.9093 88.2697 18.1077 88.517 18.257C88.769 18.4017 89.0467 18.474 89.35 18.474C89.6533 18.474 89.9287 18.4017 90.176 18.257C90.4233 18.1077 90.6217 17.9093 90.771 17.662C90.9203 17.41 90.995 17.1323 90.995 16.829C90.995 16.5257 90.9297 16.248 90.799 15.996C90.673 15.7393 90.4653 15.5363 90.176 15.387C89.8913 15.233 89.5133 15.156 89.042 15.156H86.522L87.558 10.2H92.374V11.908H88.944L88.629 13.448L89.322 13.455C89.9847 13.4783 90.5703 13.6393 91.079 13.938C91.5877 14.2367 91.9843 14.638 92.269 15.142C92.5583 15.6413 92.703 16.2037 92.703 16.829C92.703 17.2863 92.6167 17.718 92.444 18.124C92.2713 18.53 92.031 18.887 91.723 19.195C91.415 19.503 91.058 19.7457 90.652 19.923C90.2507 20.0957 89.8167 20.182 89.35 20.182ZM97.3502 20.182C96.7809 20.182 96.2629 20.0513 95.7962 19.79C95.3296 19.524 94.9259 19.1577 94.5852 18.691C94.2492 18.2243 93.9902 17.6853 93.8082 17.074C93.6262 16.458 93.5352 15.8 93.5352 15.1C93.5352 14.4 93.6262 13.7443 93.8082 13.133C93.9902 12.517 94.2492 11.9757 94.5852 11.509C94.9259 11.0423 95.3296 10.6783 95.7962 10.417C96.2629 10.151 96.7809 10.018 97.3502 10.018C97.9196 10.018 98.4376 10.151 98.9042 10.417C99.3709 10.6783 99.7699 11.0423 100.101 11.509C100.437 11.9757 100.696 12.517 100.878 13.133C101.065 13.7443 101.158 14.4 101.158 15.1C101.158 15.8 101.065 16.458 100.878 17.074C100.696 17.6853 100.437 18.2243 100.101 18.691C99.7699 19.1577 99.3709 19.524 98.9042 19.79C98.4376 20.0513 97.9196 20.182 97.3502 20.182ZM97.3502 18.474C97.8496 18.474 98.2626 18.3153 98.5892 17.998C98.9159 17.6807 99.1586 17.2653 99.3172 16.752C99.4759 16.2387 99.5552 15.688 99.5552 15.1C99.5552 14.4793 99.4712 13.9147 99.3032 13.406C99.1352 12.8927 98.8879 12.4843 98.5612 12.181C98.2346 11.8777 97.8309 11.726 97.3502 11.726C96.9722 11.726 96.6432 11.8193 96.3632 12.006C96.0879 12.188 95.8592 12.4377 95.6772 12.755C95.4952 13.0723 95.3599 13.434 95.2712 13.84C95.1826 14.2413 95.1382 14.6613 95.1382 15.1C95.1382 15.6833 95.2176 16.234 95.3762 16.752C95.5396 17.2653 95.7846 17.6807 96.1112 17.998C96.4426 18.3153 96.8556 18.474 97.3502 18.474ZM105.499 20.182C104.929 20.182 104.411 20.0513 103.945 19.79C103.478 19.524 103.074 19.1577 102.734 18.691C102.398 18.2243 102.139 17.6853 101.957 17.074C101.775 16.458 101.684 15.8 101.684 15.1C101.684 14.4 101.775 13.7443 101.957 13.133C102.139 12.517 102.398 11.9757 102.734 11.509C103.074 11.0423 103.478 10.6783 103.945 10.417C104.411 10.151 104.929 10.018 105.499 10.018C106.068 10.018 106.586 10.151 107.053 10.417C107.519 10.6783 107.918 11.0423 108.25 11.509C108.586 11.9757 108.845 12.517 109.027 13.133C109.213 13.7443 109.307 14.4 109.307 15.1C109.307 15.8 109.213 16.458 109.027 17.074C108.845 17.6853 108.586 18.2243 108.25 18.691C107.918 19.1577 107.519 19.524 107.053 19.79C106.586 20.0513 106.068 20.182 105.499 20.182ZM105.499 18.474C105.998 18.474 106.411 18.3153 106.738 17.998C107.064 17.6807 107.307 17.2653 107.466 16.752C107.624 16.2387 107.704 15.688 107.704 15.1C107.704 14.4793 107.62 13.9147 107.452 13.406C107.284 12.8927 107.036 12.4843 106.71 12.181C106.383 11.8777 105.979 11.726 105.499 11.726C105.121 11.726 104.792 11.8193 104.512 12.006C104.236 12.188 104.008 12.4377 103.826 12.755C103.644 13.0723 103.508 13.434 103.42 13.84C103.331 14.2413 103.287 14.6613 103.287 15.1C103.287 15.6833 103.366 16.234 103.525 16.752C103.688 17.2653 103.933 17.6807 104.26 17.998C104.591 18.3153 105.004 18.474 105.499 18.474Z" fill="white"/>
</svg>
