<svg width="168" height="35" viewBox="0 0 168 35" fill="none" xmlns="http://www.w3.org/2000/svg">
<path d="M73.069 7.8457C72.9596 8.38802 72.7181 8.83236 72.3444 9.17871C71.9753 9.52507 71.4717 9.77344 70.8337 9.92383L73.5749 13H71.2643L68.7419 10.0264L69.0016 8.68652H69.3639C70.0521 8.68652 70.5078 8.60905 70.7311 8.4541C70.959 8.2946 71.1139 8.0918 71.196 7.8457H68.7419V6.4375H71.1755C71.1025 6.25977 71 6.11393 70.8678 6C70.7402 5.88607 70.5853 5.80859 70.403 5.76758C70.2207 5.72201 69.9382 5.69922 69.5553 5.69922H68.7419V4.29102H75.113V5.69922H72.4675C72.6771 5.86328 72.8457 6.10938 72.9733 6.4375H75.113V7.8457H73.069ZM79.7286 13.182C79.0986 13.182 78.5293 13.0303 78.0206 12.727C77.5119 12.419 77.1083 12.0107 76.8096 11.502C76.5156 10.9933 76.3686 10.4357 76.3686 9.829H78.0766C78.0766 10.1323 78.1513 10.41 78.3006 10.662C78.4499 10.9093 78.6483 11.1077 78.8956 11.257C79.1476 11.4017 79.4253 11.474 79.7286 11.474C80.0319 11.474 80.3073 11.4017 80.5546 11.257C80.8019 11.1077 81.0003 10.9093 81.1496 10.662C81.2989 10.41 81.3736 10.1323 81.3736 9.829C81.3736 9.52567 81.3083 9.248 81.1776 8.996C81.0516 8.73933 80.8439 8.53633 80.5546 8.387C80.2699 8.233 79.8919 8.156 79.4206 8.156H76.9006L77.9366 3.2H82.7526V4.908H79.3226L79.0076 6.448L79.7006 6.455C80.3633 6.47833 80.9489 6.63933 81.4576 6.938C81.9663 7.23667 82.3629 7.638 82.6476 8.142C82.9369 8.64133 83.0816 9.20367 83.0816 9.829C83.0816 10.2863 82.9953 10.718 82.8226 11.124C82.6499 11.53 82.4096 11.887 82.1016 12.195C81.7936 12.503 81.4366 12.7457 81.0306 12.923C80.6293 13.0957 80.1953 13.182 79.7286 13.182ZM87.7288 13.182C87.1595 13.182 86.6415 13.0513 86.1748 12.79C85.7082 12.524 85.3045 12.1577 84.9638 11.691C84.6278 11.2243 84.3688 10.6853 84.1868 10.074C84.0048 9.458 83.9138 8.8 83.9138 8.1C83.9138 7.4 84.0048 6.74433 84.1868 6.133C84.3688 5.517 84.6278 4.97567 84.9638 4.509C85.3045 4.04233 85.7082 3.67833 86.1748 3.417C86.6415 3.151 87.1595 3.018 87.7288 3.018C88.2982 3.018 88.8162 3.151 89.2828 3.417C89.7495 3.67833 90.1485 4.04233 90.4798 4.509C90.8158 4.97567 91.0748 5.517 91.2568 6.133C91.4435 6.74433 91.5368 7.4 91.5368 8.1C91.5368 8.8 91.4435 9.458 91.2568 10.074C91.0748 10.6853 90.8158 11.2243 90.4798 11.691C90.1485 12.1577 89.7495 12.524 89.2828 12.79C88.8162 13.0513 88.2982 13.182 87.7288 13.182ZM87.7288 11.474C88.2282 11.474 88.6412 11.3153 88.9678 10.998C89.2945 10.6807 89.5372 10.2653 89.6958 9.752C89.8545 9.23867 89.9338 8.688 89.9338 8.1C89.9338 7.47933 89.8498 6.91467 89.6818 6.406C89.5138 5.89267 89.2665 5.48433 88.9398 5.181C88.6132 4.87767 88.2095 4.726 87.7288 4.726C87.3508 4.726 87.0218 4.81933 86.7418 5.006C86.4665 5.188 86.2378 5.43767 86.0558 5.755C85.8738 6.07233 85.7385 6.434 85.6498 6.84C85.5612 7.24133 85.5168 7.66133 85.5168 8.1C85.5168 8.68333 85.5962 9.234 85.7548 9.752C85.9182 10.2653 86.1632 10.6807 86.4898 10.998C86.8212 11.3153 87.2342 11.474 87.7288 11.474ZM95.8773 13.182C95.3079 13.182 94.7899 13.0513 94.3233 12.79C93.8566 12.524 93.4529 12.1577 93.1123 11.691C92.7763 11.2243 92.5173 10.6853 92.3353 10.074C92.1533 9.458 92.0623 8.8 92.0623 8.1C92.0623 7.4 92.1533 6.74433 92.3353 6.133C92.5173 5.517 92.7763 4.97567 93.1123 4.509C93.4529 4.04233 93.8566 3.67833 94.3233 3.417C94.7899 3.151 95.3079 3.018 95.8773 3.018C96.4466 3.018 96.9646 3.151 97.4313 3.417C97.8979 3.67833 98.2969 4.04233 98.6283 4.509C98.9643 4.97567 99.2233 5.517 99.4053 6.133C99.5919 6.74433 99.6853 7.4 99.6853 8.1C99.6853 8.8 99.5919 9.458 99.4053 10.074C99.2233 10.6853 98.9643 11.2243 98.6283 11.691C98.2969 12.1577 97.8979 12.524 97.4313 12.79C96.9646 13.0513 96.4466 13.182 95.8773 13.182ZM95.8773 11.474C96.3766 11.474 96.7896 11.3153 97.1163 10.998C97.4429 10.6807 97.6856 10.2653 97.8443 9.752C98.0029 9.23867 98.0823 8.688 98.0823 8.1C98.0823 7.47933 97.9983 6.91467 97.8303 6.406C97.6623 5.89267 97.4149 5.48433 97.0883 5.181C96.7616 4.87767 96.3579 4.726 95.8773 4.726C95.4993 4.726 95.1703 4.81933 94.8903 5.006C94.6149 5.188 94.3863 5.43767 94.2043 5.755C94.0223 6.07233 93.8869 6.434 93.7983 6.84C93.7096 7.24133 93.6653 7.66133 93.6653 8.1C93.6653 8.68333 93.7446 9.234 93.9033 9.752C94.0666 10.2653 94.3116 10.6807 94.6383 10.998C94.9696 11.3153 95.3826 11.474 95.8773 11.474Z" fill="#24292E"/>
<path d="M39.6204 32L41.2464 23.6H42.0204L44.2884 29.564L46.5504 23.6H47.3244L48.9564 32H47.9304L46.7484 25.904L44.6184 31.544H43.9524L41.8224 25.904L40.6464 32H39.6204ZM53.8202 26H54.8882L51.6062 35H50.5382L51.6242 32L49.4702 26H50.5742L52.1282 30.614L53.8202 26ZM61.2486 28.268V32H60.2406V28.49C60.2406 28.186 60.1666 27.91 60.0186 27.662C59.8706 27.414 59.6726 27.218 59.4246 27.074C59.1766 26.926 58.9006 26.852 58.5966 26.852C58.2966 26.852 58.0206 26.926 57.7686 27.074C57.5206 27.218 57.3226 27.414 57.1746 27.662C57.0266 27.91 56.9526 28.186 56.9526 28.49V32H55.9446V26H56.9526V26.75C57.1646 26.47 57.4326 26.248 57.7566 26.084C58.0806 25.916 58.4326 25.832 58.8126 25.832C59.2606 25.832 59.6686 25.942 60.0366 26.162C60.4086 26.378 60.7026 26.67 60.9186 27.038C61.1386 27.406 61.2486 27.816 61.2486 28.268ZM65.5565 27.008H64.1945L64.1885 32H63.1805L63.1865 27.008H62.1545V26H63.1865L63.1805 24.116H64.1885L64.1945 26H65.5565V27.008ZM66.6321 32V26H67.6401V26.75C67.8521 26.47 68.1201 26.248 68.4441 26.084C68.7681 25.916 69.1201 25.832 69.5001 25.832C69.7321 25.832 69.9561 25.862 70.1721 25.922L69.7641 26.93C69.6001 26.878 69.4401 26.852 69.2841 26.852C68.9841 26.852 68.7081 26.926 68.4561 27.074C68.2081 27.218 68.0101 27.414 67.8621 27.662C67.7141 27.91 67.6401 28.186 67.6401 28.49V32H66.6321ZM75.4288 26H76.4368V32H75.4288L75.3868 30.986C75.1988 31.334 74.9388 31.616 74.6068 31.832C74.2788 32.048 73.8868 32.156 73.4308 32.156C72.9908 32.156 72.5788 32.074 72.1948 31.91C71.8108 31.742 71.4708 31.512 71.1748 31.22C70.8828 30.924 70.6548 30.584 70.4908 30.2C70.3268 29.816 70.2448 29.402 70.2448 28.958C70.2448 28.53 70.3248 28.126 70.4848 27.746C70.6448 27.366 70.8668 27.034 71.1508 26.75C71.4388 26.462 71.7708 26.238 72.1468 26.078C72.5228 25.914 72.9268 25.832 73.3588 25.832C73.8308 25.832 74.2448 25.944 74.6008 26.168C74.9568 26.388 75.2448 26.674 75.4648 27.026L75.4288 26ZM73.4128 31.178C73.8088 31.178 74.1508 31.082 74.4388 30.89C74.7308 30.694 74.9548 30.43 75.1108 30.098C75.2708 29.766 75.3508 29.4 75.3508 29C75.3508 28.592 75.2708 28.224 75.1108 27.896C74.9508 27.564 74.7248 27.302 74.4328 27.11C74.1448 26.914 73.8048 26.816 73.4128 26.816C73.0168 26.816 72.6568 26.914 72.3328 27.11C72.0088 27.306 71.7508 27.57 71.5588 27.902C71.3708 28.23 71.2768 28.596 71.2768 29C71.2768 29.404 71.3748 29.772 71.5708 30.104C71.7668 30.432 72.0268 30.694 72.3508 30.89C72.6748 31.082 73.0288 31.178 73.4128 31.178ZM84.4128 32.156C83.8328 32.156 83.2908 32.044 82.7868 31.82C82.2868 31.592 81.8488 31.278 81.4728 30.878C81.1008 30.474 80.8088 30.01 80.5968 29.486C80.3848 28.958 80.2788 28.394 80.2788 27.794C80.2788 27.174 80.3888 26.6 80.6088 26.072C80.8328 25.544 81.1368 25.084 81.5208 24.692C81.9088 24.3 82.3508 23.996 82.8468 23.78C83.3468 23.56 83.8748 23.45 84.4308 23.45C85.0628 23.45 85.6648 23.598 86.2368 23.894C86.8088 24.19 87.3008 24.618 87.7128 25.178L86.8128 25.664C86.5048 25.272 86.1388 24.972 85.7148 24.764C85.2948 24.556 84.8628 24.452 84.4188 24.452C83.9948 24.452 83.5928 24.538 83.2128 24.71C82.8368 24.882 82.5028 25.122 82.2108 25.43C81.9228 25.738 81.6968 26.094 81.5328 26.498C81.3688 26.902 81.2868 27.34 81.2868 27.812C81.2868 28.272 81.3688 28.704 81.5328 29.108C81.6968 29.512 81.9208 29.868 82.2048 30.176C82.4928 30.48 82.8268 30.718 83.2068 30.89C83.5868 31.062 83.9928 31.148 84.4248 31.148C84.7688 31.148 85.0948 31.09 85.4028 30.974C85.7148 30.858 86.0008 30.694 86.2608 30.482C86.5248 30.27 86.7488 30.02 86.9328 29.732C87.1208 29.444 87.2628 29.128 87.3588 28.784H85.2888V27.884H88.5348C88.5308 28.472 88.4188 29.024 88.1988 29.54C87.9828 30.056 87.6848 30.51 87.3048 30.902C86.9288 31.294 86.4928 31.602 85.9968 31.826C85.5048 32.046 84.9768 32.156 84.4128 32.156ZM89.6712 26H90.6792V32H89.6712V26ZM90.1872 25.022C90.0272 25.022 89.8932 24.97 89.7852 24.866C89.6772 24.762 89.6232 24.632 89.6232 24.476C89.6232 24.32 89.6772 24.19 89.7852 24.086C89.8932 23.982 90.0252 23.93 90.1812 23.93C90.3372 23.93 90.4692 23.982 90.5772 24.086C90.6852 24.19 90.7392 24.32 90.7392 24.476C90.7392 24.632 90.6852 24.762 90.5772 24.866C90.4732 24.97 90.3432 25.022 90.1872 25.022ZM93.4824 24.518V26H95.2404V27.008H93.4824V32H92.4744V27.008H91.7004V26H92.4744V24.518C92.4744 24.21 92.5484 23.932 92.6964 23.684C92.8484 23.432 93.0504 23.232 93.3024 23.084C93.5584 22.932 93.8384 22.856 94.1424 22.856C94.3664 22.856 94.5844 22.902 94.7964 22.994C95.0084 23.082 95.1964 23.214 95.3604 23.39L94.6404 24.104C94.5844 24.028 94.5104 23.97 94.4184 23.93C94.3304 23.886 94.2384 23.864 94.1424 23.864C93.9624 23.864 93.8064 23.928 93.6744 24.056C93.5464 24.184 93.4824 24.338 93.4824 24.518ZM99.5175 27.008H98.1555L98.1495 32H97.1415L97.1475 27.008H96.1155V26H97.1475L97.1415 24.116H98.1495L98.1555 26H99.5175V27.008ZM107.364 32.156C106.796 32.156 106.262 32.044 105.762 31.82C105.262 31.592 104.822 31.28 104.442 30.884C104.066 30.484 103.77 30.02 103.554 29.492C103.342 28.964 103.236 28.4 103.236 27.8C103.236 27.2 103.342 26.636 103.554 26.108C103.77 25.58 104.066 25.118 104.442 24.722C104.822 24.322 105.262 24.01 105.762 23.786C106.262 23.558 106.796 23.444 107.364 23.444C108.044 23.444 108.67 23.602 109.242 23.918C109.814 24.234 110.288 24.654 110.664 25.178L109.77 25.658C109.49 25.29 109.136 24.998 108.708 24.782C108.284 24.562 107.836 24.452 107.364 24.452C106.928 24.452 106.52 24.54 106.14 24.716C105.764 24.892 105.434 25.134 105.15 25.442C104.866 25.75 104.644 26.106 104.484 26.51C104.324 26.914 104.244 27.344 104.244 27.8C104.244 28.26 104.324 28.692 104.484 29.096C104.648 29.5 104.872 29.856 105.156 30.164C105.444 30.472 105.776 30.714 106.152 30.89C106.532 31.062 106.936 31.148 107.364 31.148C107.852 31.148 108.304 31.038 108.72 30.818C109.14 30.594 109.49 30.302 109.77 29.942L110.664 30.428C110.288 30.952 109.814 31.372 109.242 31.688C108.67 32 108.044 32.156 107.364 32.156ZM116.362 26H117.37V32H116.362L116.32 30.986C116.132 31.334 115.872 31.616 115.54 31.832C115.212 32.048 114.82 32.156 114.364 32.156C113.924 32.156 113.512 32.074 113.128 31.91C112.744 31.742 112.404 31.512 112.108 31.22C111.816 30.924 111.588 30.584 111.424 30.2C111.26 29.816 111.178 29.402 111.178 28.958C111.178 28.53 111.258 28.126 111.418 27.746C111.578 27.366 111.8 27.034 112.084 26.75C112.372 26.462 112.704 26.238 113.08 26.078C113.456 25.914 113.86 25.832 114.292 25.832C114.764 25.832 115.178 25.944 115.534 26.168C115.89 26.388 116.178 26.674 116.398 27.026L116.362 26ZM114.346 31.178C114.742 31.178 115.084 31.082 115.372 30.89C115.664 30.694 115.888 30.43 116.044 30.098C116.204 29.766 116.284 29.4 116.284 29C116.284 28.592 116.204 28.224 116.044 27.896C115.884 27.564 115.658 27.302 115.366 27.11C115.078 26.914 114.738 26.816 114.346 26.816C113.95 26.816 113.59 26.914 113.266 27.11C112.942 27.306 112.684 27.57 112.492 27.902C112.304 28.23 112.21 28.596 112.21 29C112.21 29.404 112.308 29.772 112.504 30.104C112.7 30.432 112.96 30.694 113.284 30.89C113.608 31.082 113.962 31.178 114.346 31.178ZM118.57 32V26H119.578V26.75C119.79 26.47 120.058 26.248 120.382 26.084C120.706 25.916 121.058 25.832 121.438 25.832C121.67 25.832 121.894 25.862 122.11 25.922L121.702 26.93C121.538 26.878 121.378 26.852 121.222 26.852C120.922 26.852 120.646 26.926 120.394 27.074C120.146 27.218 119.948 27.414 119.8 27.662C119.652 27.91 119.578 28.186 119.578 28.49V32H118.57ZM127.372 23H128.38V32H127.372V30.98C127.168 31.332 126.894 31.616 126.55 31.832C126.206 32.048 125.802 32.156 125.338 32.156C124.902 32.156 124.494 32.074 124.114 31.91C123.734 31.746 123.398 31.52 123.106 31.232C122.818 30.94 122.592 30.604 122.428 30.224C122.264 29.844 122.182 29.436 122.182 29C122.182 28.564 122.264 28.156 122.428 27.776C122.592 27.392 122.818 27.056 123.106 26.768C123.398 26.476 123.734 26.248 124.114 26.084C124.494 25.92 124.902 25.838 125.338 25.838C125.802 25.838 126.206 25.946 126.55 26.162C126.894 26.378 127.168 26.662 127.372 27.014V23ZM125.35 31.178C125.746 31.178 126.088 31.082 126.376 30.89C126.668 30.694 126.892 30.43 127.048 30.098C127.208 29.766 127.288 29.4 127.288 29C127.288 28.592 127.208 28.224 127.048 27.896C126.888 27.564 126.662 27.302 126.37 27.11C126.082 26.914 125.742 26.816 125.35 26.816C124.954 26.816 124.594 26.914 124.27 27.11C123.95 27.306 123.694 27.57 123.502 27.902C123.31 28.23 123.214 28.596 123.214 29C123.214 29.404 123.312 29.772 123.508 30.104C123.704 30.432 123.964 30.694 124.288 30.89C124.612 31.082 124.966 31.178 125.35 31.178Z" fill="#24292E"/>
</svg>
