<svg width="168" height="35" viewBox="0 0 168 35" fill="none" xmlns="http://www.w3.org/2000/svg">
<path d="M74.8327 7.8457C74.7233 8.38802 74.4818 8.83236 74.1081 9.17871C73.7389 9.52507 73.2354 9.77344 72.5973 9.92383L75.3385 13H73.028L70.5055 10.0264L70.7653 8.68652H71.1276C71.8158 8.68652 72.2715 8.60905 72.4948 8.4541C72.7227 8.2946 72.8776 8.0918 72.9596 7.8457H70.5055V6.4375H72.9391C72.8662 6.25977 72.7637 6.11393 72.6315 6C72.5039 5.88607 72.349 5.80859 72.1667 5.76758C71.9844 5.72201 71.7018 5.69922 71.319 5.69922H70.5055V4.29102H76.8766V5.69922H74.2311C74.4408 5.86328 74.6094 6.10938 74.737 6.4375H76.8766V7.8457H74.8327ZM79.4343 13V4.908H78.2023L78.6643 3.2H81.1423V13H79.4343ZM86.1134 13.182C85.4834 13.182 84.914 13.0303 84.4054 12.727C83.8967 12.419 83.493 12.0107 83.1944 11.502C82.9004 10.9933 82.7534 10.4357 82.7534 9.829H84.4614C84.4614 10.1323 84.536 10.41 84.6854 10.662C84.8347 10.9093 85.033 11.1077 85.2804 11.257C85.5324 11.4017 85.81 11.474 86.1134 11.474C86.4167 11.474 86.692 11.4017 86.9394 11.257C87.1867 11.1077 87.385 10.9093 87.5344 10.662C87.6837 10.41 87.7584 10.1323 87.7584 9.829C87.7584 9.52567 87.693 9.248 87.5624 8.996C87.4364 8.73933 87.2287 8.53633 86.9394 8.387C86.6547 8.233 86.2767 8.156 85.8054 8.156H83.2854L84.3214 3.2H89.1374V4.908H85.7074L85.3924 6.448L86.0854 6.455C86.748 6.47833 87.3337 6.63933 87.8424 6.938C88.351 7.23667 88.7477 7.638 89.0324 8.142C89.3217 8.64133 89.4664 9.20367 89.4664 9.829C89.4664 10.2863 89.38 10.718 89.2074 11.124C89.0347 11.53 88.7944 11.887 88.4864 12.195C88.1784 12.503 87.8214 12.7457 87.4154 12.923C87.014 13.0957 86.58 13.182 86.1134 13.182ZM94.1136 13.182C93.5443 13.182 93.0263 13.0513 92.5596 12.79C92.0929 12.524 91.6893 12.1577 91.3486 11.691C91.0126 11.2243 90.7536 10.6853 90.5716 10.074C90.3896 9.458 90.2986 8.8 90.2986 8.1C90.2986 7.4 90.3896 6.74433 90.5716 6.133C90.7536 5.517 91.0126 4.97567 91.3486 4.509C91.6893 4.04233 92.0929 3.67833 92.5596 3.417C93.0263 3.151 93.5443 3.018 94.1136 3.018C94.6829 3.018 95.2009 3.151 95.6676 3.417C96.1343 3.67833 96.5333 4.04233 96.8646 4.509C97.2006 4.97567 97.4596 5.517 97.6416 6.133C97.8283 6.74433 97.9216 7.4 97.9216 8.1C97.9216 8.8 97.8283 9.458 97.6416 10.074C97.4596 10.6853 97.2006 11.2243 96.8646 11.691C96.5333 12.1577 96.1343 12.524 95.6676 12.79C95.2009 13.0513 94.6829 13.182 94.1136 13.182ZM94.1136 11.474C94.6129 11.474 95.0259 11.3153 95.3526 10.998C95.6793 10.6807 95.9219 10.2653 96.0806 9.752C96.2393 9.23867 96.3186 8.688 96.3186 8.1C96.3186 7.47933 96.2346 6.91467 96.0666 6.406C95.8986 5.89267 95.6513 5.48433 95.3246 5.181C94.9979 4.87767 94.5943 4.726 94.1136 4.726C93.7356 4.726 93.4066 4.81933 93.1266 5.006C92.8513 5.188 92.6226 5.43767 92.4406 5.755C92.2586 6.07233 92.1233 6.434 92.0346 6.84C91.9459 7.24133 91.9016 7.66133 91.9016 8.1C91.9016 8.68333 91.9809 9.234 92.1396 9.752C92.3029 10.2653 92.5479 10.6807 92.8746 10.998C93.2059 11.3153 93.6189 11.474 94.1136 11.474Z" fill="#24292E"/>
<path d="M39.0239 23.6H40.2419L43.2959 32H42.2279L41.6039 30.284H37.6619L37.0439 32H35.9699L39.0239 23.6ZM38.0339 29.276H41.2319L39.6299 24.89L38.0339 29.276ZM44.331 32V26H45.339V26.75C45.551 26.47 45.817 26.248 46.137 26.084C46.461 25.916 46.813 25.832 47.193 25.832C47.637 25.832 48.043 25.94 48.411 26.156C48.779 26.372 49.069 26.658 49.281 27.014C49.493 26.658 49.781 26.372 50.145 26.156C50.513 25.94 50.917 25.832 51.357 25.832C51.809 25.832 52.219 25.942 52.587 26.162C52.955 26.378 53.247 26.67 53.463 27.038C53.683 27.406 53.793 27.816 53.793 28.268V32H52.785V28.508C52.785 28.212 52.713 27.938 52.569 27.686C52.425 27.434 52.231 27.232 51.987 27.08C51.743 26.928 51.473 26.852 51.177 26.852C50.881 26.852 50.611 26.924 50.367 27.068C50.123 27.208 49.929 27.404 49.785 27.656C49.641 27.904 49.569 28.188 49.569 28.508V32H48.561V28.508C48.561 28.188 48.489 27.904 48.345 27.656C48.201 27.404 48.005 27.208 47.757 27.068C47.513 26.924 47.243 26.852 46.947 26.852C46.655 26.852 46.385 26.928 46.137 27.08C45.893 27.232 45.699 27.434 45.555 27.686C45.411 27.938 45.339 28.212 45.339 28.508V32H44.331ZM59.7019 26H60.7099V32H59.7019L59.6599 30.986C59.4719 31.334 59.2119 31.616 58.8799 31.832C58.5519 32.048 58.1599 32.156 57.7039 32.156C57.2639 32.156 56.8519 32.074 56.4679 31.91C56.0839 31.742 55.7439 31.512 55.4479 31.22C55.1559 30.924 54.9279 30.584 54.7639 30.2C54.5999 29.816 54.5179 29.402 54.5179 28.958C54.5179 28.53 54.5979 28.126 54.7579 27.746C54.9179 27.366 55.1399 27.034 55.4239 26.75C55.7119 26.462 56.0439 26.238 56.4199 26.078C56.7959 25.914 57.1999 25.832 57.6319 25.832C58.1039 25.832 58.5179 25.944 58.8739 26.168C59.2299 26.388 59.5179 26.674 59.7379 27.026L59.7019 26ZM57.6859 31.178C58.0819 31.178 58.4239 31.082 58.7119 30.89C59.0039 30.694 59.2279 30.43 59.3839 30.098C59.5439 29.766 59.6239 29.4 59.6239 29C59.6239 28.592 59.5439 28.224 59.3839 27.896C59.2239 27.564 58.9979 27.302 58.7059 27.11C58.4179 26.914 58.0779 26.816 57.6859 26.816C57.2899 26.816 56.9299 26.914 56.6059 27.11C56.2819 27.306 56.0239 27.57 55.8319 27.902C55.6439 28.23 55.5499 28.596 55.5499 29C55.5499 29.404 55.6479 29.772 55.8439 30.104C56.0399 30.432 56.2999 30.694 56.6239 30.89C56.9479 31.082 57.3019 31.178 57.6859 31.178ZM66.7931 27.008L63.1031 30.992H66.7931V32H61.6691V30.992L65.3591 27.008H61.6691V26H66.7931V27.008ZM70.5491 32.156C69.9971 32.156 69.4931 32.014 69.0371 31.73C68.5851 31.446 68.2231 31.066 67.9511 30.59C67.6831 30.11 67.5491 29.58 67.5491 29C67.5491 28.56 67.6271 28.15 67.7831 27.77C67.9391 27.386 68.1531 27.05 68.4251 26.762C68.7011 26.47 69.0211 26.242 69.3851 26.078C69.7491 25.914 70.1371 25.832 70.5491 25.832C71.1011 25.832 71.6031 25.974 72.0551 26.258C72.5111 26.542 72.8731 26.924 73.1411 27.404C73.4131 27.884 73.5491 28.416 73.5491 29C73.5491 29.436 73.4711 29.844 73.3151 30.224C73.1591 30.604 72.9431 30.94 72.6671 31.232C72.3951 31.52 72.0771 31.746 71.7131 31.91C71.3531 32.074 70.9651 32.156 70.5491 32.156ZM70.5491 31.148C70.9251 31.148 71.2631 31.05 71.5631 30.854C71.8671 30.654 72.1051 30.392 72.2771 30.068C72.4531 29.74 72.5411 29.384 72.5411 29C72.5411 28.608 72.4511 28.248 72.2711 27.92C72.0951 27.592 71.8571 27.33 71.5571 27.134C71.2571 26.938 70.9211 26.84 70.5491 26.84C70.1731 26.84 69.8351 26.94 69.5351 27.14C69.2351 27.336 68.9971 27.598 68.8211 27.926C68.6451 28.254 68.5571 28.612 68.5571 29C68.5571 29.4 68.6471 29.764 68.8271 30.092C69.0071 30.416 69.2491 30.674 69.5531 30.866C69.8571 31.054 70.1891 31.148 70.5491 31.148ZM79.8459 28.268V32H78.8379V28.49C78.8379 28.186 78.7639 27.91 78.6159 27.662C78.4679 27.414 78.2699 27.218 78.0219 27.074C77.7739 26.926 77.4979 26.852 77.1939 26.852C76.8939 26.852 76.6179 26.926 76.3659 27.074C76.1179 27.218 75.9199 27.414 75.7719 27.662C75.6239 27.91 75.5499 28.186 75.5499 28.49V32H74.5419V26H75.5499V26.75C75.7619 26.47 76.0299 26.248 76.3539 26.084C76.6779 25.916 77.0299 25.832 77.4099 25.832C77.8579 25.832 78.2659 25.942 78.6339 26.162C79.0059 26.378 79.2999 26.67 79.5159 27.038C79.7359 27.406 79.8459 27.816 79.8459 28.268ZM87.8227 32.156C87.2427 32.156 86.7007 32.044 86.1967 31.82C85.6967 31.592 85.2587 31.278 84.8827 30.878C84.5107 30.474 84.2187 30.01 84.0067 29.486C83.7947 28.958 83.6887 28.394 83.6887 27.794C83.6887 27.174 83.7987 26.6 84.0187 26.072C84.2427 25.544 84.5467 25.084 84.9307 24.692C85.3187 24.3 85.7607 23.996 86.2567 23.78C86.7567 23.56 87.2847 23.45 87.8407 23.45C88.4727 23.45 89.0747 23.598 89.6467 23.894C90.2187 24.19 90.7107 24.618 91.1227 25.178L90.2227 25.664C89.9147 25.272 89.5487 24.972 89.1247 24.764C88.7047 24.556 88.2727 24.452 87.8287 24.452C87.4047 24.452 87.0027 24.538 86.6227 24.71C86.2467 24.882 85.9127 25.122 85.6207 25.43C85.3327 25.738 85.1067 26.094 84.9427 26.498C84.7787 26.902 84.6967 27.34 84.6967 27.812C84.6967 28.272 84.7787 28.704 84.9427 29.108C85.1067 29.512 85.3307 29.868 85.6147 30.176C85.9027 30.48 86.2367 30.718 86.6167 30.89C86.9967 31.062 87.4027 31.148 87.8347 31.148C88.1787 31.148 88.5047 31.09 88.8127 30.974C89.1247 30.858 89.4107 30.694 89.6707 30.482C89.9347 30.27 90.1587 30.02 90.3427 29.732C90.5307 29.444 90.6727 29.128 90.7687 28.784H88.6987V27.884H91.9447C91.9407 28.472 91.8287 29.024 91.6087 29.54C91.3927 30.056 91.0947 30.51 90.7147 30.902C90.3387 31.294 89.9027 31.602 89.4067 31.826C88.9147 32.046 88.3867 32.156 87.8227 32.156ZM93.081 26H94.089V32H93.081V26ZM93.597 25.022C93.437 25.022 93.303 24.97 93.195 24.866C93.087 24.762 93.033 24.632 93.033 24.476C93.033 24.32 93.087 24.19 93.195 24.086C93.303 23.982 93.435 23.93 93.591 23.93C93.747 23.93 93.879 23.982 93.987 24.086C94.095 24.19 94.149 24.32 94.149 24.476C94.149 24.632 94.095 24.762 93.987 24.866C93.883 24.97 93.753 25.022 93.597 25.022ZM96.8922 24.518V26H98.6502V27.008H96.8922V32H95.8842V27.008H95.1102V26H95.8842V24.518C95.8842 24.21 95.9582 23.932 96.1062 23.684C96.2582 23.432 96.4602 23.232 96.7122 23.084C96.9682 22.932 97.2482 22.856 97.5522 22.856C97.7762 22.856 97.9942 22.902 98.2062 22.994C98.4182 23.082 98.6062 23.214 98.7702 23.39L98.0502 24.104C97.9942 24.028 97.9202 23.97 97.8282 23.93C97.7402 23.886 97.6482 23.864 97.5522 23.864C97.3722 23.864 97.2162 23.928 97.0842 24.056C96.9562 24.184 96.8922 24.338 96.8922 24.518ZM102.927 27.008H101.565L101.559 32H100.551L100.557 27.008H99.5253V26H100.557L100.551 24.116H101.559L101.565 26H102.927V27.008ZM110.774 32.156C110.206 32.156 109.672 32.044 109.172 31.82C108.672 31.592 108.232 31.28 107.852 30.884C107.476 30.484 107.18 30.02 106.964 29.492C106.752 28.964 106.646 28.4 106.646 27.8C106.646 27.2 106.752 26.636 106.964 26.108C107.18 25.58 107.476 25.118 107.852 24.722C108.232 24.322 108.672 24.01 109.172 23.786C109.672 23.558 110.206 23.444 110.774 23.444C111.454 23.444 112.08 23.602 112.652 23.918C113.224 24.234 113.698 24.654 114.074 25.178L113.18 25.658C112.9 25.29 112.546 24.998 112.118 24.782C111.694 24.562 111.246 24.452 110.774 24.452C110.338 24.452 109.93 24.54 109.55 24.716C109.174 24.892 108.844 25.134 108.56 25.442C108.276 25.75 108.054 26.106 107.894 26.51C107.734 26.914 107.654 27.344 107.654 27.8C107.654 28.26 107.734 28.692 107.894 29.096C108.058 29.5 108.282 29.856 108.566 30.164C108.854 30.472 109.186 30.714 109.562 30.89C109.942 31.062 110.346 31.148 110.774 31.148C111.262 31.148 111.714 31.038 112.13 30.818C112.55 30.594 112.9 30.302 113.18 29.942L114.074 30.428C113.698 30.952 113.224 31.372 112.652 31.688C112.08 32 111.454 32.156 110.774 32.156ZM119.772 26H120.78V32H119.772L119.73 30.986C119.542 31.334 119.282 31.616 118.95 31.832C118.622 32.048 118.23 32.156 117.774 32.156C117.334 32.156 116.922 32.074 116.538 31.91C116.154 31.742 115.814 31.512 115.518 31.22C115.226 30.924 114.998 30.584 114.834 30.2C114.67 29.816 114.588 29.402 114.588 28.958C114.588 28.53 114.668 28.126 114.828 27.746C114.988 27.366 115.21 27.034 115.494 26.75C115.782 26.462 116.114 26.238 116.49 26.078C116.866 25.914 117.27 25.832 117.702 25.832C118.174 25.832 118.588 25.944 118.944 26.168C119.3 26.388 119.588 26.674 119.808 27.026L119.772 26ZM117.756 31.178C118.152 31.178 118.494 31.082 118.782 30.89C119.074 30.694 119.298 30.43 119.454 30.098C119.614 29.766 119.694 29.4 119.694 29C119.694 28.592 119.614 28.224 119.454 27.896C119.294 27.564 119.068 27.302 118.776 27.11C118.488 26.914 118.148 26.816 117.756 26.816C117.36 26.816 117 26.914 116.676 27.11C116.352 27.306 116.094 27.57 115.902 27.902C115.714 28.23 115.62 28.596 115.62 29C115.62 29.404 115.718 29.772 115.914 30.104C116.11 30.432 116.37 30.694 116.694 30.89C117.018 31.082 117.372 31.178 117.756 31.178ZM121.979 32V26H122.987V26.75C123.199 26.47 123.467 26.248 123.791 26.084C124.115 25.916 124.467 25.832 124.847 25.832C125.079 25.832 125.303 25.862 125.519 25.922L125.111 26.93C124.947 26.878 124.787 26.852 124.631 26.852C124.331 26.852 124.055 26.926 123.803 27.074C123.555 27.218 123.357 27.414 123.209 27.662C123.061 27.91 122.987 28.186 122.987 28.49V32H121.979ZM130.782 23H131.79V32H130.782V30.98C130.578 31.332 130.304 31.616 129.96 31.832C129.616 32.048 129.212 32.156 128.748 32.156C128.312 32.156 127.904 32.074 127.524 31.91C127.144 31.746 126.808 31.52 126.516 31.232C126.228 30.94 126.002 30.604 125.838 30.224C125.674 29.844 125.592 29.436 125.592 29C125.592 28.564 125.674 28.156 125.838 27.776C126.002 27.392 126.228 27.056 126.516 26.768C126.808 26.476 127.144 26.248 127.524 26.084C127.904 25.92 128.312 25.838 128.748 25.838C129.212 25.838 129.616 25.946 129.96 26.162C130.304 26.378 130.578 26.662 130.782 27.014V23ZM128.76 31.178C129.156 31.178 129.498 31.082 129.786 30.89C130.078 30.694 130.302 30.43 130.458 30.098C130.618 29.766 130.698 29.4 130.698 29C130.698 28.592 130.618 28.224 130.458 27.896C130.298 27.564 130.072 27.302 129.78 27.11C129.492 26.914 129.152 26.816 128.76 26.816C128.364 26.816 128.004 26.914 127.68 27.11C127.36 27.306 127.104 27.57 126.912 27.902C126.72 28.23 126.624 28.596 126.624 29C126.624 29.404 126.722 29.772 126.918 30.104C127.114 30.432 127.374 30.694 127.698 30.89C128.022 31.082 128.376 31.178 128.76 31.178Z" fill="#24292E"/>
</svg>
