<svg width="168" height="35" viewBox="0 0 168 35" fill="none" xmlns="http://www.w3.org/2000/svg">
<path d="M47.6606 3.2H49.6276L53.1906 13H51.3776L50.7476 11.264H46.5476L45.9176 13H44.1046L47.6606 3.2ZM47.1706 9.556H50.1176L48.6406 5.517L47.1706 9.556ZM55.8133 16.5H54.1053V6H55.8133V6.889C56.042 6.57167 56.322 6.315 56.6533 6.119C56.9893 5.91833 57.3813 5.818 57.8293 5.818C58.3426 5.818 58.821 5.91367 59.2643 6.105C59.7076 6.29633 60.0973 6.56233 60.4333 6.903C60.774 7.239 61.0376 7.62867 61.2243 8.072C61.4156 8.51533 61.5113 8.99133 61.5113 9.5C61.5113 10.0087 61.4156 10.487 61.2243 10.935C61.0376 11.383 60.774 11.7773 60.4333 12.118C60.0973 12.454 59.7076 12.7177 59.2643 12.909C58.821 13.1003 58.3426 13.196 57.8293 13.196C57.3813 13.196 56.9893 13.098 56.6533 12.902C56.322 12.7013 56.042 12.4423 55.8133 12.125V16.5ZM57.8083 7.463C57.4536 7.463 57.1363 7.55633 56.8563 7.743C56.5763 7.925 56.357 8.17 56.1983 8.478C56.0396 8.786 55.9603 9.12667 55.9603 9.5C55.9603 9.87333 56.0396 10.2163 56.1983 10.529C56.357 10.837 56.5763 11.0843 56.8563 11.271C57.1363 11.453 57.4536 11.544 57.8083 11.544C58.1676 11.544 58.4966 11.453 58.7953 11.271C59.094 11.089 59.332 10.844 59.5093 10.536C59.6866 10.2233 59.7753 9.878 59.7753 9.5C59.7753 9.12667 59.6866 8.786 59.5093 8.478C59.332 8.17 59.094 7.925 58.7953 7.743C58.5013 7.55633 58.1723 7.463 57.8083 7.463ZM64.3172 16.5H62.6092V6H64.3172V6.889C64.5459 6.57167 64.8259 6.315 65.1572 6.119C65.4932 5.91833 65.8852 5.818 66.3332 5.818C66.8465 5.818 67.3249 5.91367 67.7682 6.105C68.2115 6.29633 68.6012 6.56233 68.9372 6.903C69.2779 7.239 69.5415 7.62867 69.7282 8.072C69.9195 8.51533 70.0152 8.99133 70.0152 9.5C70.0152 10.0087 69.9195 10.487 69.7282 10.935C69.5415 11.383 69.2779 11.7773 68.9372 12.118C68.6012 12.454 68.2115 12.7177 67.7682 12.909C67.3249 13.1003 66.8465 13.196 66.3332 13.196C65.8852 13.196 65.4932 13.098 65.1572 12.902C64.8259 12.7013 64.5459 12.4423 64.3172 12.125V16.5ZM66.3122 7.463C65.9575 7.463 65.6402 7.55633 65.3602 7.743C65.0802 7.925 64.8609 8.17 64.7022 8.478C64.5435 8.786 64.4642 9.12667 64.4642 9.5C64.4642 9.87333 64.5435 10.2163 64.7022 10.529C64.8609 10.837 65.0802 11.0843 65.3602 11.271C65.6402 11.453 65.9575 11.544 66.3122 11.544C66.6715 11.544 67.0005 11.453 67.2992 11.271C67.5979 11.089 67.8359 10.844 68.0132 10.536C68.1905 10.2233 68.2792 9.878 68.2792 9.5C68.2792 9.12667 68.1905 8.786 68.0132 8.478C67.8359 8.17 67.5979 7.925 67.2992 7.743C67.0052 7.55633 66.6762 7.463 66.3122 7.463ZM71.0037 13V2.5H72.7117V13H71.0037ZM77.365 13.182C76.721 13.182 76.133 13.0163 75.601 12.685C75.0737 12.3537 74.6513 11.908 74.334 11.348C74.0213 10.788 73.865 10.1697 73.865 9.493C73.865 8.98433 73.956 8.50833 74.138 8.065C74.32 7.617 74.5697 7.225 74.887 6.889C75.209 6.54833 75.5823 6.28233 76.007 6.091C76.4317 5.89967 76.8843 5.804 77.365 5.804C77.911 5.804 78.4103 5.92067 78.863 6.154C79.3203 6.38267 79.7077 6.69767 80.025 7.099C80.3423 7.50033 80.5733 7.95767 80.718 8.471C80.8627 8.98433 80.8953 9.521 80.816 10.081H75.699C75.7643 10.3423 75.8717 10.578 76.021 10.788C76.1703 10.9933 76.3593 11.159 76.588 11.285C76.8167 11.4063 77.0757 11.4693 77.365 11.474C77.6637 11.4787 77.9343 11.4087 78.177 11.264C78.4243 11.1147 78.6297 10.914 78.793 10.662L80.536 11.068C80.2513 11.6887 79.8267 12.1973 79.262 12.594C78.6973 12.986 78.065 13.182 77.365 13.182ZM75.643 8.8H79.087C79.0357 8.52 78.926 8.268 78.758 8.044C78.5947 7.81533 78.3917 7.63333 78.149 7.498C77.9063 7.36267 77.645 7.295 77.365 7.295C77.085 7.295 76.826 7.36267 76.588 7.498C76.35 7.62867 76.147 7.80833 75.979 8.037C75.8157 8.261 75.7037 8.51533 75.643 8.8ZM87.7153 13L85.2093 3.2H86.9733L88.6813 9.899L90.3893 3.2H91.9503L93.6583 9.899L95.3593 3.2H97.1233L94.6313 13H92.6923L91.1663 7.064L89.6613 13H87.7153ZM102.614 6H104.322V13H102.614L102.537 12.132C102.345 12.4447 102.091 12.699 101.774 12.895C101.461 13.0863 101.09 13.182 100.661 13.182C100.143 13.182 99.6574 13.084 99.2048 12.888C98.7521 12.692 98.3531 12.4213 98.0078 12.076C97.6671 11.7307 97.3988 11.3317 97.2028 10.879C97.0114 10.4263 96.9158 9.941 96.9158 9.423C96.9158 8.92367 97.0068 8.45467 97.1888 8.016C97.3754 7.57733 97.6344 7.19233 97.9658 6.861C98.2971 6.52967 98.6798 6.27067 99.1138 6.084C99.5478 5.89733 100.014 5.804 100.514 5.804C100.976 5.804 101.389 5.90667 101.753 6.112C102.121 6.31733 102.434 6.57867 102.691 6.896L102.614 6ZM100.619 11.537C100.983 11.537 101.305 11.446 101.585 11.264C101.865 11.082 102.084 10.837 102.243 10.529C102.401 10.2163 102.481 9.87333 102.481 9.5C102.481 9.122 102.401 8.779 102.243 8.471C102.084 8.15833 101.862 7.911 101.578 7.729C101.298 7.547 100.978 7.456 100.619 7.456C100.259 7.456 99.9304 7.54933 99.6318 7.736C99.3378 7.918 99.1021 8.163 98.9248 8.471C98.7521 8.779 98.6658 9.122 98.6658 9.5C98.6658 9.878 98.7544 10.221 98.9318 10.529C99.1091 10.837 99.3448 11.082 99.6388 11.264C99.9374 11.446 100.264 11.537 100.619 11.537ZM109.469 7.708H108.111V13H106.403V7.708H105.367V6H106.403V3.802H108.111V6H109.469V7.708ZM114.91 10.893L116.45 11.726C116.128 12.1647 115.724 12.517 115.239 12.783C114.754 13.049 114.224 13.182 113.65 13.182C113.006 13.182 112.418 13.0163 111.886 12.685C111.359 12.3537 110.936 11.9103 110.619 11.355C110.306 10.795 110.15 10.1767 110.15 9.5C110.15 8.98667 110.241 8.50833 110.423 8.065C110.605 7.617 110.855 7.225 111.172 6.889C111.494 6.54833 111.867 6.28233 112.292 6.091C112.717 5.89967 113.169 5.804 113.65 5.804C114.224 5.804 114.754 5.937 115.239 6.203C115.724 6.469 116.128 6.826 116.45 7.274L114.91 8.1C114.747 7.91333 114.553 7.76867 114.329 7.666C114.11 7.56333 113.883 7.512 113.65 7.512C113.314 7.512 113.011 7.60533 112.74 7.792C112.469 7.974 112.255 8.21667 112.096 8.52C111.937 8.81867 111.858 9.14533 111.858 9.5C111.858 9.85 111.937 10.1767 112.096 10.48C112.255 10.7787 112.469 11.019 112.74 11.201C113.011 11.383 113.314 11.474 113.65 11.474C113.893 11.474 114.124 11.4227 114.343 11.32C114.562 11.2127 114.751 11.0703 114.91 10.893ZM123.9 8.576V13H122.192V9.024C122.192 8.74867 122.124 8.499 121.989 8.275C121.854 8.04633 121.672 7.86667 121.443 7.736C121.219 7.60067 120.969 7.533 120.694 7.533C120.419 7.533 120.167 7.60067 119.938 7.736C119.714 7.86667 119.534 8.04633 119.399 8.275C119.268 8.499 119.203 8.74867 119.203 9.024V13H117.495L117.488 2.5H119.196L119.203 6.623C119.441 6.371 119.726 6.17267 120.057 6.028C120.388 5.87867 120.745 5.804 121.128 5.804C121.637 5.804 122.101 5.93 122.521 6.182C122.941 6.42933 123.275 6.763 123.522 7.183C123.774 7.59833 123.9 8.06267 123.9 8.576Z" fill="#24292E"/>
<path d="M40.1748 32H39.1548L37.1448 26H38.1288L39.6768 30.578L41.2068 26H42.2448L43.7808 30.578L45.3108 26H46.3068L44.2968 32H43.2708L41.7168 27.38L40.1748 32ZM47.2783 26H48.2863V32H47.2783V26ZM47.7943 25.022C47.6343 25.022 47.5003 24.97 47.3923 24.866C47.2843 24.762 47.2303 24.632 47.2303 24.476C47.2303 24.32 47.2843 24.19 47.3923 24.086C47.5003 23.982 47.6323 23.93 47.7883 23.93C47.9443 23.93 48.0763 23.982 48.1843 24.086C48.2923 24.19 48.3463 24.32 48.3463 24.476C48.3463 24.632 48.2923 24.762 48.1843 24.866C48.0803 24.97 47.9503 25.022 47.7943 25.022ZM52.8355 27.008H51.4735L51.4675 32H50.4595L50.4655 27.008H49.4335V26H50.4655L50.4595 24.116H51.4675L51.4735 26H52.8355V27.008ZM59.2151 28.268V32H58.2071V28.49C58.2071 28.186 58.1331 27.91 57.9851 27.662C57.8371 27.414 57.6391 27.218 57.3911 27.074C57.1431 26.926 56.8671 26.852 56.5631 26.852C56.2631 26.852 55.9871 26.926 55.7351 27.074C55.4871 27.218 55.2891 27.414 55.1411 27.662C54.9931 27.91 54.9191 28.186 54.9191 28.49V32H53.9111V23H54.9191V26.75C55.1311 26.47 55.3991 26.248 55.7231 26.084C56.0471 25.916 56.3991 25.832 56.7791 25.832C57.2271 25.832 57.6351 25.942 58.0031 26.162C58.3751 26.378 58.6691 26.67 58.8851 27.038C59.1051 27.406 59.2151 27.816 59.2151 28.268ZM65.1278 32.114C64.8038 32.102 64.4878 32.042 64.1798 31.934C63.8758 31.822 63.6078 31.672 63.3758 31.484C63.1478 31.292 62.9818 31.072 62.8778 30.824L63.7418 30.452C63.8018 30.588 63.9098 30.716 64.0658 30.836C64.2218 30.956 64.4018 31.052 64.6058 31.124C64.8098 31.196 65.0158 31.232 65.2238 31.232C65.4438 31.232 65.6498 31.198 65.8418 31.13C66.0338 31.062 66.1898 30.962 66.3098 30.83C66.4338 30.694 66.4958 30.532 66.4958 30.344C66.4958 30.144 66.4278 29.988 66.2918 29.876C66.1598 29.76 65.9918 29.67 65.7878 29.606C65.5878 29.538 65.3838 29.474 65.1758 29.414C64.7638 29.31 64.3958 29.186 64.0718 29.042C63.7478 28.894 63.4918 28.708 63.3038 28.484C63.1198 28.256 63.0278 27.966 63.0278 27.614C63.0278 27.242 63.1298 26.92 63.3338 26.648C63.5418 26.376 63.8138 26.166 64.1498 26.018C64.4858 25.87 64.8458 25.796 65.2298 25.796C65.7138 25.796 66.1558 25.9 66.5558 26.108C66.9558 26.316 67.2538 26.598 67.4498 26.954L66.6398 27.428C66.5718 27.284 66.4678 27.158 66.3278 27.05C66.1878 26.938 66.0278 26.85 65.8478 26.786C65.6678 26.722 65.4838 26.688 65.2958 26.684C65.0638 26.676 64.8458 26.706 64.6418 26.774C64.4418 26.842 64.2798 26.946 64.1558 27.086C64.0358 27.222 63.9758 27.392 63.9758 27.596C63.9758 27.796 64.0398 27.948 64.1678 28.052C64.2998 28.156 64.4698 28.24 64.6778 28.304C64.8898 28.364 65.1198 28.434 65.3678 28.514C65.7318 28.63 66.0718 28.764 66.3878 28.916C66.7038 29.068 66.9578 29.258 67.1498 29.486C67.3458 29.714 67.4418 29.996 67.4378 30.332C67.4378 30.7 67.3278 31.022 67.1078 31.298C66.8878 31.57 66.6018 31.778 66.2498 31.922C65.9018 32.066 65.5278 32.13 65.1278 32.114ZM68.3837 26H69.3917V32H68.3837V26ZM68.8997 25.022C68.7397 25.022 68.6057 24.97 68.4977 24.866C68.3897 24.762 68.3357 24.632 68.3357 24.476C68.3357 24.32 68.3897 24.19 68.4977 24.086C68.6057 23.982 68.7377 23.93 68.8937 23.93C69.0497 23.93 69.1817 23.982 69.2897 24.086C69.3977 24.19 69.4517 24.32 69.4517 24.476C69.4517 24.632 69.3977 24.762 69.2897 24.866C69.1857 24.97 69.0557 25.022 68.8997 25.022ZM70.8681 32V23H71.8761V32H70.8681ZM73.3173 26H74.3253V32H73.3173V26ZM73.8333 25.022C73.6733 25.022 73.5393 24.97 73.4313 24.866C73.3233 24.762 73.2693 24.632 73.2693 24.476C73.2693 24.32 73.3233 24.19 73.4313 24.086C73.5393 23.982 73.6713 23.93 73.8273 23.93C73.9833 23.93 74.1153 23.982 74.2233 24.086C74.3313 24.19 74.3853 24.32 74.3853 24.476C74.3853 24.632 74.3313 24.762 74.2233 24.866C74.1193 24.97 73.9893 25.022 73.8333 25.022ZM79.8185 30.416L80.7185 30.902C80.4465 31.282 80.1005 31.586 79.6805 31.814C79.2645 32.042 78.8125 32.156 78.3245 32.156C77.7725 32.156 77.2685 32.014 76.8125 31.73C76.3605 31.446 75.9985 31.066 75.7265 30.59C75.4585 30.11 75.3245 29.58 75.3245 29C75.3245 28.56 75.4025 28.15 75.5585 27.77C75.7145 27.386 75.9285 27.05 76.2005 26.762C76.4765 26.47 76.7965 26.242 77.1605 26.078C77.5245 25.914 77.9125 25.832 78.3245 25.832C78.8125 25.832 79.2645 25.946 79.6805 26.174C80.1005 26.402 80.4465 26.708 80.7185 27.092L79.8185 27.578C79.6265 27.342 79.3985 27.16 79.1345 27.032C78.8705 26.904 78.6005 26.84 78.3245 26.84C77.9525 26.84 77.6145 26.94 77.3105 27.14C77.0105 27.336 76.7725 27.598 76.5965 27.926C76.4205 28.254 76.3325 28.612 76.3325 29C76.3325 29.388 76.4205 29.746 76.5965 30.074C76.7765 30.398 77.0165 30.658 77.3165 30.854C77.6205 31.05 77.9565 31.148 78.3245 31.148C78.6205 31.148 78.8985 31.08 79.1585 30.944C79.4185 30.808 79.6385 30.632 79.8185 30.416ZM84.3362 32.156C83.7842 32.156 83.2802 32.014 82.8242 31.73C82.3722 31.446 82.0102 31.066 81.7382 30.59C81.4702 30.11 81.3362 29.58 81.3362 29C81.3362 28.56 81.4142 28.15 81.5702 27.77C81.7262 27.386 81.9402 27.05 82.2122 26.762C82.4882 26.47 82.8082 26.242 83.1722 26.078C83.5362 25.914 83.9242 25.832 84.3362 25.832C84.8882 25.832 85.3902 25.974 85.8422 26.258C86.2982 26.542 86.6602 26.924 86.9282 27.404C87.2002 27.884 87.3362 28.416 87.3362 29C87.3362 29.436 87.2582 29.844 87.1022 30.224C86.9462 30.604 86.7302 30.94 86.4542 31.232C86.1822 31.52 85.8642 31.746 85.5002 31.91C85.1402 32.074 84.7522 32.156 84.3362 32.156ZM84.3362 31.148C84.7122 31.148 85.0502 31.05 85.3502 30.854C85.6542 30.654 85.8922 30.392 86.0642 30.068C86.2402 29.74 86.3282 29.384 86.3282 29C86.3282 28.608 86.2382 28.248 86.0582 27.92C85.8822 27.592 85.6442 27.33 85.3442 27.134C85.0442 26.938 84.7082 26.84 84.3362 26.84C83.9602 26.84 83.6222 26.94 83.3222 27.14C83.0222 27.336 82.7842 27.598 82.6082 27.926C82.4322 28.254 82.3442 28.612 82.3442 29C82.3442 29.4 82.4342 29.764 82.6142 30.092C82.7942 30.416 83.0362 30.674 83.3402 30.866C83.6442 31.054 83.9762 31.148 84.3362 31.148ZM93.6331 28.268V32H92.6251V28.49C92.6251 28.186 92.5511 27.91 92.4031 27.662C92.2551 27.414 92.0571 27.218 91.8091 27.074C91.5611 26.926 91.2851 26.852 90.9811 26.852C90.6811 26.852 90.4051 26.926 90.1531 27.074C89.9051 27.218 89.7071 27.414 89.5591 27.662C89.4111 27.91 89.3371 28.186 89.3371 28.49V32H88.3291V26H89.3371V26.75C89.5491 26.47 89.8171 26.248 90.1411 26.084C90.4651 25.916 90.8171 25.832 91.1971 25.832C91.6451 25.832 92.0531 25.942 92.4211 26.162C92.7931 26.378 93.0871 26.67 93.3031 27.038C93.5231 27.406 93.6331 27.816 93.6331 28.268ZM97.3558 32.156C96.8038 32.156 96.2998 32.014 95.8438 31.73C95.3918 31.446 95.0298 31.066 94.7578 30.59C94.4898 30.11 94.3558 29.58 94.3558 29C94.3558 28.56 94.4338 28.15 94.5898 27.77C94.7458 27.386 94.9598 27.05 95.2318 26.762C95.5078 26.47 95.8278 26.242 96.1918 26.078C96.5558 25.914 96.9438 25.832 97.3558 25.832C97.8078 25.832 98.2218 25.924 98.5978 26.108C98.9778 26.288 99.3018 26.54 99.5698 26.864C99.8418 27.188 100.044 27.564 100.176 27.992C100.312 28.42 100.362 28.878 100.326 29.366H95.4298C95.4778 29.706 95.5898 30.01 95.7658 30.278C95.9418 30.542 96.1658 30.752 96.4378 30.908C96.7138 31.064 97.0198 31.144 97.3558 31.148C97.7158 31.148 98.0418 31.056 98.3338 30.872C98.6258 30.684 98.8618 30.428 99.0418 30.104L100.068 30.344C99.8278 30.876 99.4658 31.312 98.9818 31.652C98.4978 31.988 97.9558 32.156 97.3558 32.156ZM95.3998 28.574H99.3118C99.2798 28.238 99.1718 27.932 98.9878 27.656C98.8038 27.376 98.5698 27.152 98.2858 26.984C98.0018 26.816 97.6918 26.732 97.3558 26.732C97.0198 26.732 96.7118 26.814 96.4318 26.978C96.1518 27.142 95.9198 27.364 95.7358 27.644C95.5558 27.92 95.4438 28.23 95.3998 28.574ZM106.132 32.114C105.808 32.102 105.492 32.042 105.184 31.934C104.88 31.822 104.612 31.672 104.38 31.484C104.152 31.292 103.986 31.072 103.882 30.824L104.746 30.452C104.806 30.588 104.914 30.716 105.07 30.836C105.226 30.956 105.406 31.052 105.61 31.124C105.814 31.196 106.02 31.232 106.228 31.232C106.448 31.232 106.654 31.198 106.846 31.13C107.038 31.062 107.194 30.962 107.314 30.83C107.438 30.694 107.5 30.532 107.5 30.344C107.5 30.144 107.432 29.988 107.296 29.876C107.164 29.76 106.996 29.67 106.792 29.606C106.592 29.538 106.388 29.474 106.18 29.414C105.768 29.31 105.4 29.186 105.076 29.042C104.752 28.894 104.496 28.708 104.308 28.484C104.124 28.256 104.032 27.966 104.032 27.614C104.032 27.242 104.134 26.92 104.338 26.648C104.546 26.376 104.818 26.166 105.154 26.018C105.49 25.87 105.85 25.796 106.234 25.796C106.718 25.796 107.16 25.9 107.56 26.108C107.96 26.316 108.258 26.598 108.454 26.954L107.644 27.428C107.576 27.284 107.472 27.158 107.332 27.05C107.192 26.938 107.032 26.85 106.852 26.786C106.672 26.722 106.488 26.688 106.3 26.684C106.068 26.676 105.85 26.706 105.646 26.774C105.446 26.842 105.284 26.946 105.16 27.086C105.04 27.222 104.98 27.392 104.98 27.596C104.98 27.796 105.044 27.948 105.172 28.052C105.304 28.156 105.474 28.24 105.682 28.304C105.894 28.364 106.124 28.434 106.372 28.514C106.736 28.63 107.076 28.764 107.392 28.916C107.708 29.068 107.962 29.258 108.154 29.486C108.35 29.714 108.446 29.996 108.442 30.332C108.442 30.7 108.332 31.022 108.112 31.298C107.892 31.57 107.606 31.778 107.254 31.922C106.906 32.066 106.532 32.13 106.132 32.114ZM112.578 27.008H111.216L111.21 32H110.202L110.208 27.008H109.176V26H110.208L110.202 24.116H111.21L111.216 26H112.578V27.008ZM113.653 32V26H114.661V26.75C114.873 26.47 115.141 26.248 115.465 26.084C115.789 25.916 116.141 25.832 116.521 25.832C116.753 25.832 116.977 25.862 117.193 25.922L116.785 26.93C116.621 26.878 116.461 26.852 116.305 26.852C116.005 26.852 115.729 26.926 115.477 27.074C115.229 27.218 115.031 27.414 114.883 27.662C114.735 27.91 114.661 28.186 114.661 28.49V32H113.653ZM122.45 26H123.458V32H122.45L122.408 30.986C122.22 31.334 121.96 31.616 121.628 31.832C121.3 32.048 120.908 32.156 120.452 32.156C120.012 32.156 119.6 32.074 119.216 31.91C118.832 31.742 118.492 31.512 118.196 31.22C117.904 30.924 117.676 30.584 117.512 30.2C117.348 29.816 117.266 29.402 117.266 28.958C117.266 28.53 117.346 28.126 117.506 27.746C117.666 27.366 117.888 27.034 118.172 26.75C118.46 26.462 118.792 26.238 119.168 26.078C119.544 25.914 119.948 25.832 120.38 25.832C120.852 25.832 121.266 25.944 121.622 26.168C121.978 26.388 122.266 26.674 122.486 27.026L122.45 26ZM120.434 31.178C120.83 31.178 121.172 31.082 121.46 30.89C121.752 30.694 121.976 30.43 122.132 30.098C122.292 29.766 122.372 29.4 122.372 29C122.372 28.592 122.292 28.224 122.132 27.896C121.972 27.564 121.746 27.302 121.454 27.11C121.166 26.914 120.826 26.816 120.434 26.816C120.038 26.816 119.678 26.914 119.354 27.11C119.03 27.306 118.772 27.57 118.58 27.902C118.392 28.23 118.298 28.596 118.298 29C118.298 29.404 118.396 29.772 118.592 30.104C118.788 30.432 119.048 30.694 119.372 30.89C119.696 31.082 120.05 31.178 120.434 31.178ZM125.665 35H124.657V26H125.665V27.026C125.869 26.674 126.141 26.39 126.481 26.174C126.821 25.954 127.225 25.844 127.693 25.844C128.129 25.844 128.537 25.926 128.917 26.09C129.301 26.254 129.637 26.482 129.925 26.774C130.213 27.062 130.439 27.396 130.603 27.776C130.767 28.156 130.849 28.564 130.849 29C130.849 29.436 130.767 29.846 130.603 30.23C130.439 30.614 130.213 30.952 129.925 31.244C129.637 31.532 129.301 31.758 128.917 31.922C128.537 32.086 128.129 32.168 127.693 32.168C127.225 32.168 126.821 32.06 126.481 31.844C126.141 31.624 125.869 31.338 125.665 30.986V35ZM127.681 26.822C127.293 26.822 126.953 26.92 126.661 27.116C126.369 27.312 126.143 27.574 125.983 27.902C125.827 28.23 125.749 28.596 125.749 29C125.749 29.4 125.827 29.766 125.983 30.098C126.143 30.43 126.367 30.694 126.655 30.89C126.947 31.086 127.289 31.184 127.681 31.184C128.069 31.184 128.425 31.088 128.749 30.896C129.073 30.7 129.333 30.438 129.529 30.11C129.725 29.778 129.823 29.408 129.823 29C129.823 28.6 129.727 28.236 129.535 27.908C129.343 27.576 129.085 27.312 128.761 27.116C128.437 26.92 128.077 26.822 127.681 26.822Z" fill="#24292E"/>
</svg>
