<svg width="19" height="20" viewBox="0 0 19 20" fill="none" xmlns="http://www.w3.org/2000/svg">
<path d="M17.8098 13.3525L13.4188 11.4706C13.1895 11.3719 12.9392 11.3322 12.6907 11.355C12.4421 11.3779 12.2032 11.4626 11.9958 11.6014L9.64801 13.1664C8.21311 12.4685 7.05176 11.3123 6.34753 9.88046L6.34771 9.88028L7.90722 7.49734C8.04297 7.29047 8.12533 7.05318 8.14693 6.80669C8.16853 6.5602 8.1287 6.3122 8.031 6.08487L6.1474 1.69006C6.01918 1.39174 5.79778 1.14298 5.51635 0.981026C5.23492 0.819068 4.9086 0.75263 4.58624 0.791657C3.31956 0.954521 2.15548 1.57296 1.31148 2.53144C0.467486 3.48992 0.00129462 4.72289 0 6C0 13.444 6.05603 19.5 13.5 19.5C14.7771 19.4987 16.0101 19.0325 16.9686 18.1885C17.9271 17.3445 18.5455 16.1804 18.7083 14.9137C18.7473 14.5913 18.6808 14.265 18.5188 13.9836C18.3568 13.7022 18.1081 13.4808 17.8098 13.3525Z" fill="#17A74F"/>
</svg>