<svg width="20" height="20" viewBox="0 0 20 20" fill="none" xmlns="http://www.w3.org/2000/svg">
<path d="M10 1.87497C8.39303 1.87497 6.82214 2.35149 5.486 3.24428C4.14985 4.13707 3.10844 5.40602 2.49348 6.89067C1.87852 8.37532 1.71762 10.009 2.03112 11.5851C2.34463 13.1612 3.11846 14.6089 4.25476 15.7452C5.39106 16.8815 6.8388 17.6553 8.4149 17.9688C9.99099 18.2824 11.6247 18.1215 13.1093 17.5065C14.594 16.8915 15.8629 15.8501 16.7557 14.514C17.6485 13.1778 18.125 11.6069 18.125 9.99997C18.1226 7.84583 17.2658 5.78062 15.7426 4.25742C14.2193 2.73421 12.1541 1.87741 10 1.87497ZM9.8438 5.625C10.0292 5.625 10.2105 5.67998 10.3646 5.783C10.5188 5.88601 10.639 6.03243 10.7099 6.20373C10.7809 6.37504 10.7995 6.56354 10.7633 6.7454C10.7271 6.92725 10.6378 7.0943 10.5067 7.22541C10.3756 7.35652 10.2085 7.44581 10.0267 7.48198C9.84484 7.51816 9.65634 7.49959 9.48503 7.42864C9.31372 7.35768 9.16731 7.23752 9.06429 7.08334C8.96128 6.92917 8.9063 6.74792 8.9063 6.5625C8.9063 6.31386 9.00507 6.0754 9.18088 5.89959C9.3567 5.72377 9.59516 5.625 9.8438 5.625ZM10.625 14.375H10C9.83425 14.375 9.67528 14.3091 9.55807 14.1919C9.44087 14.0747 9.37502 13.9157 9.37501 13.75V9.99997C9.20925 9.99997 9.05028 9.93412 8.93307 9.81691C8.81586 9.6997 8.75001 9.54073 8.75001 9.37497C8.75001 9.20921 8.81586 9.05024 8.93307 8.93303C9.05028 8.81582 9.20925 8.74997 9.37501 8.74997H10C10.1658 8.74998 10.3247 8.81583 10.4419 8.93304C10.5591 9.05025 10.625 9.20921 10.625 9.37497V13.125C10.7908 13.125 10.9497 13.1908 11.0669 13.308C11.1842 13.4252 11.25 13.5842 11.25 13.75C11.25 13.9157 11.1842 14.0747 11.0669 14.1919C10.9497 14.3091 10.7908 14.375 10.625 14.375Z" fill="#586069"/>
</svg>
