<svg width="168" height="35" viewBox="0 0 168 35" fill="none" xmlns="http://www.w3.org/2000/svg">
<path d="M40.9666 6H42.6746V13H40.9666V6ZM41.8346 5.097C41.5826 5.097 41.3703 5.01533 41.1976 4.852C41.025 4.684 40.9386 4.474 40.9386 4.222C40.9386 3.97467 41.025 3.767 41.1976 3.599C41.3703 3.431 41.5803 3.347 41.8276 3.347C42.075 3.347 42.2826 3.431 42.4506 3.599C42.6233 3.767 42.7096 3.97467 42.7096 4.222C42.7096 4.474 42.6256 4.684 42.4576 4.852C42.2896 5.01533 42.082 5.097 41.8346 5.097ZM44.3846 13V3.2H47.8846C48.4166 3.2 48.8973 3.333 49.3266 3.599C49.7606 3.865 50.1036 4.222 50.3556 4.67C50.6076 5.118 50.7336 5.61033 50.7336 6.147C50.7336 6.69767 50.6029 7.197 50.3416 7.645C50.0849 8.08833 49.7396 8.443 49.3056 8.709C48.8716 8.97033 48.3979 9.101 47.8846 9.101H46.0926V13H44.3846ZM46.0926 7.393H47.7026C47.9453 7.393 48.1669 7.33233 48.3676 7.211C48.5683 7.08967 48.7269 6.92633 48.8436 6.721C48.9649 6.51567 49.0256 6.287 49.0256 6.035C49.0256 5.77833 48.9649 5.54733 48.8436 5.342C48.7269 5.13667 48.5683 4.97333 48.3676 4.852C48.1669 4.73067 47.9453 4.67 47.7026 4.67H46.0926V7.393ZM58.4255 8.576V13H56.7175V9.024C56.7175 8.74867 56.6498 8.499 56.5145 8.275C56.3792 8.04633 56.1972 7.86667 55.9685 7.736C55.7445 7.60067 55.4948 7.533 55.2195 7.533C54.9442 7.533 54.6922 7.60067 54.4635 7.736C54.2395 7.86667 54.0598 8.04633 53.9245 8.275C53.7938 8.499 53.7285 8.74867 53.7285 9.024V13H52.0205L52.0135 2.5H53.7215L53.7285 6.623C53.9665 6.371 54.2512 6.17267 54.5825 6.028C54.9138 5.87867 55.2708 5.804 55.6535 5.804C56.1622 5.804 56.6265 5.93 57.0465 6.182C57.4665 6.42933 57.8002 6.763 58.0475 7.183C58.2995 7.59833 58.4255 8.06267 58.4255 8.576ZM62.7634 13.182C62.1194 13.182 61.5314 13.0163 60.9994 12.685C60.4721 12.3537 60.0498 11.9103 59.7324 11.355C59.4198 10.795 59.2634 10.1767 59.2634 9.5C59.2634 8.98667 59.3544 8.50833 59.5364 8.065C59.7184 7.617 59.9681 7.225 60.2854 6.889C60.6074 6.54833 60.9808 6.28233 61.4054 6.091C61.8301 5.89967 62.2828 5.804 62.7634 5.804C63.4074 5.804 63.9931 5.96967 64.5204 6.301C65.0524 6.63233 65.4748 7.078 65.7874 7.638C66.1048 8.198 66.2634 8.81867 66.2634 9.5C66.2634 10.0087 66.1724 10.4847 65.9904 10.928C65.8084 11.3713 65.5564 11.7633 65.2344 12.104C64.9171 12.44 64.5461 12.7037 64.1214 12.895C63.7014 13.0863 63.2488 13.182 62.7634 13.182ZM62.7634 11.474C63.1041 11.474 63.4098 11.383 63.6804 11.201C63.9511 11.019 64.1634 10.7787 64.3174 10.48C64.4761 10.1813 64.5554 9.85467 64.5554 9.5C64.5554 9.136 64.4738 8.80467 64.3104 8.506C64.1518 8.20267 63.9348 7.96233 63.6594 7.785C63.3888 7.603 63.0901 7.512 62.7634 7.512C62.4274 7.512 62.1241 7.603 61.8534 7.785C61.5828 7.967 61.3681 8.20967 61.2094 8.513C61.0508 8.81633 60.9714 9.14533 60.9714 9.5C60.9714 9.86867 61.0531 10.2023 61.2164 10.501C61.3798 10.7997 61.5968 11.0377 61.8674 11.215C62.1428 11.3877 62.4414 11.474 62.7634 11.474ZM73.7654 8.576V13H72.0574V9.024C72.0574 8.74867 71.9897 8.499 71.8544 8.275C71.719 8.04633 71.537 7.86667 71.3084 7.736C71.0844 7.60067 70.8347 7.533 70.5594 7.533C70.284 7.533 70.032 7.60067 69.8034 7.736C69.5794 7.86667 69.3997 8.04633 69.2644 8.275C69.1337 8.499 69.0684 8.74867 69.0684 9.024V13H67.3604L67.3534 6H69.0614L69.0684 6.623C69.3064 6.371 69.591 6.17267 69.9224 6.028C70.2537 5.87867 70.6107 5.804 70.9934 5.804C71.502 5.804 71.9664 5.93 72.3864 6.182C72.8064 6.42933 73.14 6.763 73.3874 7.183C73.6394 7.59833 73.7654 8.06267 73.7654 8.576ZM78.1033 13.182C77.4593 13.182 76.8713 13.0163 76.3393 12.685C75.8119 12.3537 75.3896 11.908 75.0723 11.348C74.7596 10.788 74.6033 10.1697 74.6033 9.493C74.6033 8.98433 74.6943 8.50833 74.8763 8.065C75.0583 7.617 75.3079 7.225 75.6253 6.889C75.9473 6.54833 76.3206 6.28233 76.7453 6.091C77.1699 5.89967 77.6226 5.804 78.1033 5.804C78.6493 5.804 79.1486 5.92067 79.6013 6.154C80.0586 6.38267 80.4459 6.69767 80.7633 7.099C81.0806 7.50033 81.3116 7.95767 81.4563 8.471C81.6009 8.98433 81.6336 9.521 81.5543 10.081H76.4373C76.5026 10.3423 76.6099 10.578 76.7593 10.788C76.9086 10.9933 77.0976 11.159 77.3263 11.285C77.5549 11.4063 77.8139 11.4693 78.1033 11.474C78.4019 11.4787 78.6726 11.4087 78.9153 11.264C79.1626 11.1147 79.3679 10.914 79.5313 10.662L81.2743 11.068C80.9896 11.6887 80.5649 12.1973 80.0003 12.594C79.4356 12.986 78.8033 13.182 78.1033 13.182ZM76.3813 8.8H79.8253C79.7739 8.52 79.6643 8.268 79.4963 8.044C79.3329 7.81533 79.1299 7.63333 78.8873 7.498C78.6446 7.36267 78.3833 7.295 78.1033 7.295C77.8233 7.295 77.5643 7.36267 77.3263 7.498C77.0883 7.62867 76.8853 7.80833 76.7173 8.037C76.5539 8.261 76.4419 8.51533 76.3813 8.8ZM87.1725 13V4.908H85.9405L86.4025 3.2H88.8805V13H87.1725ZM93.5786 13.182C92.986 13.182 92.4516 13.042 91.9756 12.762C91.4996 12.482 91.1216 12.1063 90.8416 11.635C90.5616 11.159 90.4216 10.6317 90.4216 10.053H92.1296C92.1296 10.3143 92.1903 10.5523 92.3116 10.767C92.4376 10.9817 92.6103 11.1543 92.8296 11.285C93.049 11.411 93.2986 11.474 93.5786 11.474C93.8353 11.474 94.0733 11.411 94.2926 11.285C94.5166 11.1543 94.6963 10.9817 94.8316 10.767C94.967 10.5523 95.0346 10.3143 95.0346 10.053C95.0346 9.71233 94.9436 9.43 94.7616 9.206C94.5796 8.97733 94.3253 8.807 93.9986 8.695C93.6766 8.583 93.301 8.527 92.8716 8.527V7.211C93.4503 7.211 93.9076 7.10133 94.2436 6.882C94.5843 6.66267 94.7546 6.34067 94.7546 5.916C94.7546 5.69667 94.6986 5.496 94.5866 5.314C94.4746 5.132 94.3253 4.98733 94.1386 4.88C93.9566 4.768 93.756 4.712 93.5366 4.712C93.3126 4.712 93.0956 4.768 92.8856 4.88C92.6756 4.98733 92.503 5.132 92.3676 5.314C92.237 5.496 92.1716 5.69667 92.1716 5.916H90.4636C90.4636 5.51467 90.5453 5.139 90.7086 4.789C90.872 4.43433 91.096 4.124 91.3806 3.858C91.67 3.592 91.9966 3.38433 92.3606 3.235C92.7293 3.081 93.1143 3.004 93.5156 3.004C94.043 3.004 94.5306 3.13467 94.9786 3.396C95.4266 3.65733 95.786 4.00733 96.0566 4.446C96.3273 4.88467 96.4626 5.37467 96.4626 5.916C96.4626 6.294 96.374 6.665 96.1966 7.029C96.0193 7.393 95.7673 7.64967 95.4406 7.799C95.7253 7.90167 95.9633 8.07433 96.1546 8.317C96.346 8.555 96.4906 8.828 96.5886 9.136C96.6913 9.43933 96.7426 9.745 96.7426 10.053C96.7426 10.627 96.598 11.152 96.3086 11.628C96.0193 12.0993 95.6343 12.4773 95.1536 12.762C94.6776 13.042 94.1526 13.182 93.5786 13.182ZM101.369 13L103.273 3.2H104.687L107.074 9.479L109.461 3.2H110.875L112.779 13H111.036L109.86 6.938L107.655 12.776H106.486L104.281 6.938L103.112 13H101.369ZM114.18 6H115.888V13H114.18V6ZM115.048 5.097C114.796 5.097 114.583 5.01533 114.411 4.852C114.238 4.684 114.152 4.474 114.152 4.222C114.152 3.97467 114.238 3.767 114.411 3.599C114.583 3.431 114.793 3.347 115.041 3.347C115.288 3.347 115.496 3.431 115.664 3.599C115.836 3.767 115.923 3.97467 115.923 4.222C115.923 4.474 115.839 4.684 115.671 4.852C115.503 5.01533 115.295 5.097 115.048 5.097ZM123.927 8.576V13H122.219V9.024C122.219 8.74867 122.152 8.499 122.016 8.275C121.881 8.04633 121.699 7.86667 121.47 7.736C121.246 7.60067 120.997 7.533 120.721 7.533C120.446 7.533 120.194 7.60067 119.965 7.736C119.741 7.86667 119.562 8.04633 119.426 8.275C119.296 8.499 119.23 8.74867 119.23 9.024V13H117.522L117.515 6H119.223L119.23 6.623C119.468 6.371 119.753 6.17267 120.084 6.028C120.416 5.87867 120.773 5.804 121.155 5.804C121.664 5.804 122.128 5.93 122.548 6.182C122.968 6.42933 123.302 6.763 123.549 7.183C123.801 7.59833 123.927 8.06267 123.927 8.576ZM125.322 6H127.03V13H125.322V6ZM126.19 5.097C125.938 5.097 125.726 5.01533 125.553 4.852C125.38 4.684 125.294 4.474 125.294 4.222C125.294 3.97467 125.38 3.767 125.553 3.599C125.726 3.431 125.936 3.347 126.183 3.347C126.43 3.347 126.638 3.431 126.806 3.599C126.979 3.767 127.065 3.97467 127.065 4.222C127.065 4.474 126.981 4.684 126.813 4.852C126.645 5.01533 126.437 5.097 126.19 5.097Z" fill="#24292E"/>
<path d="M72.184 32.156C71.604 32.156 71.062 32.044 70.558 31.82C70.058 31.592 69.62 31.278 69.244 30.878C68.872 30.474 68.58 30.01 68.368 29.486C68.156 28.958 68.05 28.394 68.05 27.794C68.05 27.174 68.16 26.6 68.38 26.072C68.604 25.544 68.908 25.084 69.292 24.692C69.68 24.3 70.122 23.996 70.618 23.78C71.118 23.56 71.646 23.45 72.202 23.45C72.834 23.45 73.436 23.598 74.008 23.894C74.58 24.19 75.072 24.618 75.484 25.178L74.584 25.664C74.276 25.272 73.91 24.972 73.486 24.764C73.066 24.556 72.634 24.452 72.19 24.452C71.766 24.452 71.364 24.538 70.984 24.71C70.608 24.882 70.274 25.122 69.982 25.43C69.694 25.738 69.468 26.094 69.304 26.498C69.14 26.902 69.058 27.34 69.058 27.812C69.058 28.272 69.14 28.704 69.304 29.108C69.468 29.512 69.692 29.868 69.976 30.176C70.264 30.48 70.598 30.718 70.978 30.89C71.358 31.062 71.764 31.148 72.196 31.148C72.54 31.148 72.866 31.09 73.174 30.974C73.486 30.858 73.772 30.694 74.032 30.482C74.296 30.27 74.52 30.02 74.704 29.732C74.892 29.444 75.034 29.128 75.13 28.784H73.06V27.884H76.306C76.302 28.472 76.19 29.024 75.97 29.54C75.754 30.056 75.456 30.51 75.076 30.902C74.7 31.294 74.264 31.602 73.768 31.826C73.276 32.046 72.748 32.156 72.184 32.156ZM77.4658 32V26H78.4738V26.75C78.6858 26.47 78.9538 26.248 79.2778 26.084C79.6018 25.916 79.9538 25.832 80.3338 25.832C80.5658 25.832 80.7898 25.862 81.0058 25.922L80.5978 26.93C80.4338 26.878 80.2738 26.852 80.1178 26.852C79.8178 26.852 79.5418 26.926 79.2898 27.074C79.0418 27.218 78.8438 27.414 78.6958 27.662C78.5478 27.91 78.4738 28.186 78.4738 28.49V32H77.4658ZM84.0784 32.156C83.5264 32.156 83.0224 32.014 82.5664 31.73C82.1144 31.446 81.7524 31.066 81.4804 30.59C81.2124 30.11 81.0784 29.58 81.0784 29C81.0784 28.56 81.1564 28.15 81.3124 27.77C81.4684 27.386 81.6824 27.05 81.9544 26.762C82.2304 26.47 82.5504 26.242 82.9144 26.078C83.2784 25.914 83.6664 25.832 84.0784 25.832C84.5304 25.832 84.9444 25.924 85.3204 26.108C85.7004 26.288 86.0244 26.54 86.2924 26.864C86.5644 27.188 86.7664 27.564 86.8984 27.992C87.0344 28.42 87.0844 28.878 87.0484 29.366H82.1524C82.2004 29.706 82.3124 30.01 82.4884 30.278C82.6644 30.542 82.8884 30.752 83.1604 30.908C83.4364 31.064 83.7424 31.144 84.0784 31.148C84.4384 31.148 84.7644 31.056 85.0564 30.872C85.3484 30.684 85.5844 30.428 85.7644 30.104L86.7904 30.344C86.5504 30.876 86.1884 31.312 85.7044 31.652C85.2204 31.988 84.6784 32.156 84.0784 32.156ZM82.1224 28.574H86.0344C86.0024 28.238 85.8944 27.932 85.7104 27.656C85.5264 27.376 85.2924 27.152 85.0084 26.984C84.7244 26.816 84.4144 26.732 84.0784 26.732C83.7424 26.732 83.4344 26.814 83.1544 26.978C82.8744 27.142 82.6424 27.364 82.4584 27.644C82.2784 27.92 82.1664 28.23 82.1224 28.574ZM90.6644 32.156C90.1124 32.156 89.6084 32.014 89.1524 31.73C88.7004 31.446 88.3384 31.066 88.0664 30.59C87.7984 30.11 87.6644 29.58 87.6644 29C87.6644 28.56 87.7424 28.15 87.8984 27.77C88.0544 27.386 88.2684 27.05 88.5404 26.762C88.8164 26.47 89.1364 26.242 89.5004 26.078C89.8644 25.914 90.2524 25.832 90.6644 25.832C91.1164 25.832 91.5304 25.924 91.9064 26.108C92.2864 26.288 92.6104 26.54 92.8784 26.864C93.1504 27.188 93.3524 27.564 93.4844 27.992C93.6204 28.42 93.6704 28.878 93.6344 29.366H88.7384C88.7864 29.706 88.8984 30.01 89.0744 30.278C89.2504 30.542 89.4744 30.752 89.7464 30.908C90.0224 31.064 90.3284 31.144 90.6644 31.148C91.0244 31.148 91.3504 31.056 91.6424 30.872C91.9344 30.684 92.1704 30.428 92.3504 30.104L93.3764 30.344C93.1364 30.876 92.7744 31.312 92.2904 31.652C91.8064 31.988 91.2644 32.156 90.6644 32.156ZM88.7084 28.574H92.6204C92.5884 28.238 92.4804 27.932 92.2964 27.656C92.1124 27.376 91.8784 27.152 91.5944 26.984C91.3104 26.816 91.0004 26.732 90.6644 26.732C90.3284 26.732 90.0204 26.814 89.7404 26.978C89.4604 27.142 89.2284 27.364 89.0444 27.644C88.8644 27.92 88.7524 28.23 88.7084 28.574ZM99.9495 28.268V32H98.9415V28.49C98.9415 28.186 98.8675 27.91 98.7195 27.662C98.5715 27.414 98.3735 27.218 98.1255 27.074C97.8775 26.926 97.6015 26.852 97.2975 26.852C96.9975 26.852 96.7215 26.926 96.4695 27.074C96.2215 27.218 96.0235 27.414 95.8755 27.662C95.7275 27.91 95.6535 28.186 95.6535 28.49V32H94.6455V26H95.6535V26.75C95.8655 26.47 96.1335 26.248 96.4575 26.084C96.7815 25.916 97.1335 25.832 97.5135 25.832C97.9615 25.832 98.3695 25.942 98.7375 26.162C99.1095 26.378 99.4035 26.67 99.6195 27.038C99.8395 27.406 99.9495 27.816 99.9495 28.268Z" fill="#24292E"/>
</svg>
