<svg width="20" height="20" viewBox="0 0 20 20" fill="none" xmlns="http://www.w3.org/2000/svg">
<path d="M17.9091 4.375H10.3516V2.43789C10.3517 2.27672 10.3201 2.1171 10.2585 1.96816C10.1968 1.81923 10.1065 1.68391 9.99249 1.56995C9.87852 1.45599 9.7432 1.36562 9.59426 1.30401C9.44532 1.24241 9.2857 1.21078 9.12453 1.21094H2.4378C2.27664 1.2108 2.11703 1.24244 1.96812 1.30405C1.8192 1.36566 1.68389 1.45604 1.56994 1.57C1.45598 1.68396 1.36562 1.81928 1.30402 1.9682C1.24242 2.11712 1.21079 2.27673 1.21094 2.43789V17.5621C1.21123 17.8874 1.34057 18.1993 1.57059 18.4293C1.80061 18.6594 2.1125 18.7887 2.4378 18.7891H9.12452C9.44985 18.7888 9.76178 18.6594 9.99184 18.4294C10.2219 18.1994 10.3513 17.8874 10.3516 17.5621V11.4062H17.9093C18.1426 11.4062 18.3664 11.3136 18.5314 11.1486C18.6964 10.9836 18.7891 10.7598 18.7891 10.5265V5.25492C18.7891 5.13937 18.7663 5.02494 18.7221 4.91819C18.6779 4.81143 18.6131 4.71443 18.5313 4.63272C18.4496 4.55101 18.3526 4.4862 18.2459 4.44198C18.1391 4.39776 18.0247 4.375 17.9091 4.375ZM4.90234 1.95625H6.66016C6.77671 1.95625 6.88848 2.00255 6.9709 2.08496C7.05331 2.16738 7.09961 2.27915 7.09961 2.3957C7.09961 2.51225 7.05331 2.62403 6.9709 2.70644C6.88848 2.78886 6.77671 2.83516 6.66016 2.83516H4.90234C4.78579 2.83516 4.67402 2.78886 4.5916 2.70644C4.50919 2.62403 4.46289 2.51225 4.46289 2.3957C4.46289 2.27915 4.50919 2.16738 4.5916 2.08496C4.67402 2.00255 4.78579 1.95625 4.90234 1.95625ZM6.65999 18.0408H4.90217C4.78562 18.0408 4.67385 17.9945 4.59143 17.9121C4.50902 17.8297 4.46272 17.7179 4.46272 17.6014C4.46272 17.4848 4.50902 17.373 4.59143 17.2906C4.67385 17.2082 4.78562 17.1619 4.90217 17.1619H6.65999C6.77654 17.1619 6.88831 17.2082 6.97073 17.2906C7.05314 17.373 7.09944 17.4848 7.09944 17.6014C7.09944 17.7179 7.05314 17.8297 6.97073 17.9121C6.88831 17.9945 6.77654 18.0408 6.65999 18.0408ZM9.57806 16.416H1.98427V3.58398H9.57806V4.375H4.89511C4.66393 4.375 4.44222 4.46684 4.27875 4.63031C4.11528 4.79378 4.02344 5.01549 4.02344 5.24668V10.5338C4.02344 10.6483 4.046 10.7618 4.08985 10.8676C4.1337 10.9735 4.19797 11.0697 4.27898 11.1507C4.36 11.2317 4.45619 11.296 4.56204 11.3398C4.6679 11.3837 4.78136 11.4063 4.89593 11.4062H6.48438V12.8183C6.48438 12.9042 6.50986 12.9882 6.5576 13.0597C6.60534 13.1311 6.67319 13.1868 6.75258 13.2197C6.83197 13.2526 6.91932 13.2612 7.0036 13.2444C7.08788 13.2277 7.16529 13.1863 7.22605 13.1255L8.94531 11.4062H9.57806V16.416ZM8.62532 8.21055C8.72618 8.26911 8.79978 8.36518 8.83008 8.4778C8.86037 8.59043 8.8449 8.71046 8.78704 8.81172C8.75845 8.86209 8.72015 8.90627 8.67435 8.94172C8.62855 8.97717 8.57617 9.00317 8.52025 9.01821C8.46432 9.03326 8.40597 9.03704 8.34857 9.02936C8.29117 9.02167 8.23586 9.00267 8.18587 8.97344L7.62695 8.65V9.29688C7.62695 9.41343 7.58065 9.5252 7.49824 9.60762C7.41583 9.69003 7.30405 9.73633 7.1875 9.73633C7.07095 9.73633 6.95917 9.69003 6.87676 9.60762C6.79435 9.5252 6.74805 9.41343 6.74805 9.29688V8.65L6.18895 8.97344C6.13895 9.00267 6.08365 9.02167 6.02625 9.02936C5.96884 9.03704 5.91049 9.03326 5.85456 9.01821C5.79864 9.00317 5.74626 8.97717 5.70046 8.94172C5.65466 8.90627 5.61636 8.86209 5.58777 8.81172C5.52999 8.71044 5.51457 8.59044 5.54486 8.47784C5.57515 8.36524 5.6487 8.26917 5.74949 8.21055L6.30859 7.89063L5.74949 7.56719C5.64833 7.50891 5.57446 7.41284 5.54414 7.3001C5.51381 7.18736 5.52951 7.06719 5.58779 6.96603C5.64606 6.86487 5.74214 6.791 5.85488 6.76067C5.96762 6.73035 6.08778 6.74605 6.18895 6.80433L6.74805 7.12774V6.48438C6.74805 6.36783 6.79435 6.25605 6.87676 6.17364C6.95917 6.09122 7.07095 6.04492 7.1875 6.04492C7.30405 6.04492 7.41583 6.09122 7.49824 6.17364C7.58065 6.25605 7.62695 6.36783 7.62695 6.48438V7.12774L8.18588 6.80433C8.28705 6.74605 8.40721 6.73035 8.51995 6.76067C8.63269 6.791 8.72877 6.86487 8.78704 6.96603C8.84532 7.06719 8.86102 7.18736 8.83069 7.3001C8.80037 7.41284 8.7265 7.50891 8.62534 7.56719L8.06641 7.89063L8.62532 8.21055ZM12.8441 8.21055C12.9449 8.26911 13.0185 8.36518 13.0488 8.4778C13.0791 8.59043 13.0637 8.71046 13.0058 8.81172C12.9772 8.86209 12.9389 8.90627 12.8931 8.94172C12.8473 8.97717 12.7949 9.00317 12.739 9.01821C12.6831 9.03326 12.6247 9.03704 12.5673 9.02936C12.5099 9.02167 12.4546 9.00267 12.4046 8.97344L11.8457 8.65V9.29688C11.8457 9.41343 11.7994 9.5252 11.717 9.60762C11.6346 9.69003 11.5228 9.73633 11.4062 9.73633C11.2897 9.73633 11.1779 9.69003 11.0955 9.60762C11.0131 9.5252 10.9668 9.41343 10.9668 9.29688V8.65L10.4077 8.97344C10.3577 9.00267 10.3024 9.02167 10.245 9.02936C10.1876 9.03704 10.1292 9.03326 10.0733 9.01821C10.0174 9.00317 9.96501 8.97717 9.91921 8.94172C9.87341 8.90627 9.83511 8.86209 9.80652 8.81172C9.74874 8.71044 9.73332 8.59044 9.76361 8.47784C9.7939 8.36524 9.86745 8.26917 9.96824 8.21055L10.5273 7.89063L9.96824 7.56719C9.86708 7.50891 9.79321 7.41284 9.76289 7.3001C9.73256 7.18736 9.74826 7.06719 9.80654 6.96603C9.86481 6.86487 9.96089 6.791 10.0736 6.76067C10.1864 6.73035 10.3065 6.74605 10.4077 6.80433L10.9668 7.12774V6.48438C10.9668 6.36783 11.0131 6.25605 11.0955 6.17364C11.1779 6.09122 11.2897 6.04492 11.4062 6.04492C11.5228 6.04492 11.6346 6.09122 11.717 6.17364C11.7994 6.25605 11.8457 6.36783 11.8457 6.48438V7.12774L12.4046 6.80433C12.5058 6.74605 12.626 6.73035 12.7387 6.76067C12.8514 6.791 12.9475 6.86487 13.0058 6.96603C13.0641 7.06719 13.0798 7.18736 13.0494 7.3001C13.0191 7.41284 12.9452 7.50891 12.8441 7.56719L12.2852 7.89063L12.8441 8.21055ZM17.0628 8.21055C17.1637 8.26911 17.2373 8.36518 17.2676 8.4778C17.2979 8.59043 17.2824 8.71046 17.2245 8.81172C17.196 8.86209 17.1576 8.90627 17.1119 8.94172C17.0661 8.97717 17.0137 9.00317 16.9577 9.01821C16.9018 9.03326 16.8435 9.03704 16.7861 9.02936C16.7287 9.02167 16.6734 9.00267 16.6234 8.97344L16.0645 8.65V9.29688C16.0645 9.41343 16.0182 9.5252 15.9357 9.60762C15.8533 9.69003 15.7416 9.73633 15.625 9.73633C15.5084 9.73633 15.3967 9.69003 15.3143 9.60762C15.2318 9.5252 15.1855 9.41343 15.1855 9.29688V8.65L14.6264 8.97344C14.5764 9.00267 14.5211 9.02167 14.4637 9.02936C14.4063 9.03704 14.348 9.03326 14.2921 9.01821C14.2361 9.00317 14.1838 8.97717 14.138 8.94172C14.0922 8.90627 14.0539 8.86209 14.0253 8.81172C13.9675 8.71044 13.9521 8.59044 13.9824 8.47784C14.0126 8.36524 14.0862 8.26917 14.187 8.21055L14.7461 7.89063L14.187 7.56719C14.0858 7.50891 14.012 7.41284 13.9816 7.3001C13.9513 7.18736 13.967 7.06719 14.0253 6.96603C14.0836 6.86487 14.1796 6.791 14.2924 6.76067C14.4051 6.73035 14.5253 6.74605 14.6264 6.80433L15.1855 7.12774V6.48438C15.1855 6.36783 15.2318 6.25605 15.3143 6.17364C15.3967 6.09122 15.5084 6.04492 15.625 6.04492C15.7416 6.04492 15.8533 6.09122 15.9357 6.17364C16.0182 6.25605 16.0645 6.36783 16.0645 6.48438V7.12774L16.6234 6.80433C16.6735 6.77547 16.7288 6.75676 16.7861 6.74927C16.8434 6.74178 16.9016 6.74566 16.9575 6.76067C17.0133 6.77569 17.0656 6.80155 17.1114 6.83679C17.1572 6.87202 17.1957 6.91594 17.2245 6.96603C17.2534 7.01612 17.2721 7.0714 17.2796 7.12872C17.2871 7.18604 17.2832 7.24428 17.2682 7.3001C17.2532 7.35592 17.2273 7.40824 17.1921 7.45407C17.1568 7.49989 17.1129 7.53833 17.0628 7.56719L16.5039 7.89063L17.0628 8.21055Z" fill="#24292E"/>
</svg>
