<svg width="20" height="21" viewBox="0 0 20 21" fill="none" xmlns="http://www.w3.org/2000/svg">
<path d="M10.0002 0.75C8.07188 0.75 6.18682 1.32183 4.58344 2.39317C2.98006 3.46451 1.73038 4.98726 0.992423 6.76884C0.254469 8.55042 0.0613861 10.5108 0.437592 12.4021C0.813798 14.2934 1.7424 16.0307 3.10596 17.3943C4.46952 18.7579 6.2068 19.6865 8.09812 20.0627C9.98943 20.4389 11.9498 20.2458 13.7314 19.5078C15.513 18.7699 17.0357 17.5202 18.1071 15.9168C19.1784 14.3134 19.7502 12.4284 19.7502 10.5C19.7473 7.91504 18.7192 5.43679 16.8913 3.60894C15.0635 1.78109 12.5852 0.752926 10.0002 0.75ZM10.0003 16.5C9.77779 16.5 9.56029 16.4341 9.37528 16.3104C9.19028 16.1868 9.04608 16.0111 8.96093 15.8056C8.87579 15.6 8.85351 15.3738 8.89692 15.1556C8.94032 14.9373 9.04747 14.7369 9.2048 14.5795C9.36214 14.4222 9.56259 14.3151 9.78082 14.2717C9.99905 14.2282 10.2253 14.2505 10.4308 14.3357C10.6364 14.4208 10.8121 14.565 10.9357 14.75C11.0593 14.935 11.1253 15.1525 11.1253 15.375C11.1253 15.6734 11.0068 15.9596 10.7958 16.1705C10.5848 16.3815 10.2987 16.5 10.0003 16.5ZM10.7503 11.9165V12.0005C10.7503 12.1994 10.6712 12.3901 10.5306 12.5308C10.3899 12.6714 10.1992 12.7505 10.0003 12.7505C9.80134 12.7505 9.61058 12.6714 9.46992 12.5308C9.32927 12.3901 9.25025 12.1994 9.25025 12.0005V11.2505C9.25026 11.0515 9.32928 10.8608 9.46993 10.7201C9.61058 10.5795 9.80134 10.5005 10.0003 10.5005C10.3711 10.5005 10.7336 10.3905 11.0419 10.1845C11.3503 9.97844 11.5906 9.6856 11.7325 9.34299C11.8744 9.00038 11.9116 8.62338 11.8392 8.25966C11.7669 7.89595 11.5883 7.56186 11.3261 7.29963C11.0639 7.03741 10.7298 6.85883 10.366 6.78649C10.0023 6.71414 9.62533 6.75127 9.28272 6.89318C8.94011 7.0351 8.64727 7.27542 8.44125 7.58376C8.23522 7.89211 8.12525 8.25462 8.12525 8.62546C8.12525 8.82437 8.04624 9.01513 7.90558 9.15579C7.76493 9.29644 7.57417 9.37546 7.37525 9.37546C7.17634 9.37546 6.98558 9.29644 6.84492 9.15579C6.70427 9.01513 6.62525 8.82437 6.62525 8.62546C6.62534 7.99014 6.80474 7.36774 7.14283 6.82985C7.48092 6.29196 7.96397 5.86042 8.53642 5.58487C9.10887 5.30931 9.74748 5.20093 10.3788 5.27219C11.0101 5.34344 11.6085 5.59144 12.1051 5.98767C12.6017 6.38389 12.9764 6.91225 13.1861 7.51196C13.3958 8.11168 13.432 8.75841 13.2904 9.37776C13.1489 9.99712 12.8354 10.5639 12.3861 11.0131C11.9367 11.4622 11.3697 11.7753 10.7503 11.9165Z" fill="#17A74F"/>
</svg>
