<svg width="192" height="48" viewBox="0 0 192 48" fill="none" xmlns="http://www.w3.org/2000/svg">
<rect width="192" height="48" rx="12" fill="url(#paint0_linear_404_183345)"/>
<path d="M52.492 30.208C51.8733 30.208 51.2787 30.112 50.708 29.92C50.1427 29.7227 49.6467 29.4427 49.22 29.08C48.7933 28.712 48.4867 28.272 48.3 27.76L50.132 27.088C50.2067 27.3013 50.3587 27.496 50.588 27.672C50.8173 27.848 51.0973 27.9893 51.428 28.096C51.7587 28.2027 52.1133 28.256 52.492 28.256C52.8813 28.256 53.244 28.1973 53.58 28.08C53.9213 27.9573 54.196 27.7893 54.404 27.576C54.612 27.3573 54.716 27.104 54.716 26.816C54.716 26.5227 54.6067 26.2827 54.388 26.096C54.1693 25.904 53.8893 25.752 53.548 25.64C53.2067 25.528 52.8547 25.4427 52.492 25.384C51.6973 25.2613 50.9853 25.072 50.356 24.816C49.7267 24.56 49.228 24.2053 48.86 23.752C48.4973 23.2987 48.316 22.712 48.316 21.992C48.316 21.3147 48.5107 20.7227 48.9 20.216C49.2893 19.7093 49.8013 19.3147 50.436 19.032C51.0707 18.7493 51.756 18.608 52.492 18.608C53.1053 18.608 53.6973 18.704 54.268 18.896C54.8387 19.088 55.3373 19.368 55.764 19.736C56.196 20.104 56.5053 20.5467 56.692 21.064L54.852 21.728C54.7773 21.5147 54.6253 21.32 54.396 21.144C54.1667 20.968 53.8867 20.8293 53.556 20.728C53.2253 20.6213 52.8707 20.568 52.492 20.568C52.1133 20.5627 51.7533 20.624 51.412 20.752C51.076 20.8747 50.8013 21.0427 50.588 21.256C50.3747 21.4693 50.268 21.7147 50.268 21.992C50.268 22.3493 50.3667 22.6187 50.564 22.8C50.7667 22.9813 51.036 23.1147 51.372 23.2C51.708 23.28 52.0813 23.3547 52.492 23.424C53.2387 23.5413 53.9293 23.7387 54.564 24.016C55.1987 24.2933 55.708 24.664 56.092 25.128C56.476 25.5867 56.668 26.1493 56.668 26.816C56.668 27.4933 56.476 28.088 56.092 28.6C55.708 29.1067 55.1987 29.5013 54.564 29.784C53.9293 30.0667 53.2387 30.208 52.492 30.208ZM62.5449 23.952H60.9929V30H59.0409V23.952H57.8569V22H59.0409V19.488H60.9929V22H62.5449V23.952ZM69.8514 22H71.8034V30H69.8514L69.7634 29.008C69.5447 29.3653 69.254 29.656 68.8914 29.88C68.534 30.0987 68.11 30.208 67.6194 30.208C67.0274 30.208 66.4727 30.096 65.9554 29.872C65.438 29.648 64.982 29.3387 64.5874 28.944C64.198 28.5493 63.8914 28.0933 63.6674 27.576C63.4487 27.0587 63.3394 26.504 63.3394 25.912C63.3394 25.3413 63.4434 24.8053 63.6514 24.304C63.8647 23.8027 64.1607 23.3627 64.5394 22.984C64.918 22.6053 65.3554 22.3093 65.8514 22.096C66.3474 21.8827 66.8807 21.776 67.4514 21.776C67.9794 21.776 68.4514 21.8933 68.8674 22.128C69.2887 22.3627 69.646 22.6613 69.9394 23.024L69.8514 22ZM67.5714 28.328C67.9874 28.328 68.3554 28.224 68.6754 28.016C68.9954 27.808 69.246 27.528 69.4274 27.176C69.6087 26.8187 69.6994 26.4267 69.6994 26C69.6994 25.568 69.6087 25.176 69.4274 24.824C69.246 24.4667 68.9927 24.184 68.6674 23.976C68.3474 23.768 67.982 23.664 67.5714 23.664C67.1607 23.664 66.7847 23.7707 66.4434 23.984C66.1074 24.192 65.838 24.472 65.6354 24.824C65.438 25.176 65.3394 25.568 65.3394 26C65.3394 26.432 65.4407 26.824 65.6434 27.176C65.846 27.528 66.1154 27.808 66.4514 28.016C66.7927 28.224 67.166 28.328 67.5714 28.328ZM73.4055 30L73.3975 22H75.3495L75.3575 22.712C75.6295 22.424 75.9548 22.1973 76.3335 22.032C76.7122 21.8613 77.1202 21.776 77.5575 21.776C77.8508 21.776 78.1442 21.8187 78.4375 21.904L77.6695 23.872C77.4668 23.792 77.2642 23.752 77.0615 23.752C76.7468 23.752 76.4588 23.8293 76.1975 23.984C75.9415 24.1333 75.7362 24.3387 75.5815 24.6C75.4322 24.856 75.3575 25.1413 75.3575 25.456V30H73.4055ZM83.8418 23.952H82.2898V30H80.3378V23.952H79.1538V22H80.3378V19.488H82.2898V22H83.8418V23.952ZM89.1319 30V18.8H96.1559V20.752H91.0839V23.024H95.1079V24.976H91.0839V28.048H96.1559V30H89.1319ZM103.648 22H105.6V30H103.648L103.56 29.008C103.342 29.3653 103.051 29.656 102.688 29.88C102.331 30.0987 101.907 30.208 101.416 30.208C100.824 30.208 100.27 30.096 99.7523 29.872C99.2349 29.648 98.7789 29.3387 98.3843 28.944C97.9949 28.5493 97.6883 28.0933 97.4643 27.576C97.2456 27.0587 97.1363 26.504 97.1363 25.912C97.1363 25.3413 97.2403 24.8053 97.4483 24.304C97.6616 23.8027 97.9576 23.3627 98.3363 22.984C98.7149 22.6053 99.1523 22.3093 99.6483 22.096C100.144 21.8827 100.678 21.776 101.248 21.776C101.776 21.776 102.248 21.8933 102.664 22.128C103.086 22.3627 103.443 22.6613 103.736 23.024L103.648 22ZM101.368 28.328C101.784 28.328 102.152 28.224 102.472 28.016C102.792 27.808 103.043 27.528 103.224 27.176C103.406 26.8187 103.496 26.4267 103.496 26C103.496 25.568 103.406 25.176 103.224 24.824C103.043 24.4667 102.79 24.184 102.464 23.976C102.144 23.768 101.779 23.664 101.368 23.664C100.958 23.664 100.582 23.7707 100.24 23.984C99.9043 24.192 99.6349 24.472 99.4323 24.824C99.2349 25.176 99.1363 25.568 99.1363 26C99.1363 26.432 99.2376 26.824 99.4403 27.176C99.6429 27.528 99.9123 27.808 100.248 28.016C100.59 28.224 100.963 28.328 101.368 28.328ZM107.202 30L107.194 22H109.146L109.154 22.712C109.426 22.424 109.752 22.1973 110.13 22.032C110.509 21.8613 110.917 21.776 111.354 21.776C111.648 21.776 111.941 21.8187 112.234 21.904L111.466 23.872C111.264 23.792 111.061 23.752 110.858 23.752C110.544 23.752 110.256 23.8293 109.994 23.984C109.738 24.1333 109.533 24.3387 109.378 24.6C109.229 24.856 109.154 25.1413 109.154 25.456V30H107.202ZM120.491 24.944V30H118.539V25.456C118.539 25.1413 118.462 24.856 118.307 24.6C118.152 24.3387 117.944 24.1333 117.683 23.984C117.427 23.8293 117.142 23.752 116.827 23.752C116.512 23.752 116.224 23.8293 115.963 23.984C115.707 24.1333 115.502 24.3387 115.347 24.6C115.198 24.856 115.123 25.1413 115.123 25.456V30H113.171L113.163 22H115.115L115.123 22.712C115.395 22.424 115.72 22.1973 116.099 22.032C116.478 21.8613 116.886 21.776 117.323 21.776C117.904 21.776 118.435 21.92 118.915 22.208C119.395 22.4907 119.776 22.872 120.059 23.352C120.347 23.8267 120.491 24.3573 120.491 24.944ZM122.085 22H124.037V30H122.085V22ZM123.077 20.968C122.789 20.968 122.546 20.8747 122.349 20.688C122.152 20.496 122.053 20.256 122.053 19.968C122.053 19.6853 122.152 19.448 122.349 19.256C122.546 19.064 122.786 18.968 123.069 18.968C123.352 18.968 123.589 19.064 123.781 19.256C123.978 19.448 124.077 19.6853 124.077 19.968C124.077 20.256 123.981 20.496 123.789 20.688C123.597 20.8747 123.36 20.968 123.077 20.968ZM133.226 24.944V30H131.274V25.456C131.274 25.1413 131.196 24.856 131.042 24.6C130.887 24.3387 130.679 24.1333 130.418 23.984C130.162 23.8293 129.876 23.752 129.562 23.752C129.247 23.752 128.959 23.8293 128.698 23.984C128.442 24.1333 128.236 24.3387 128.082 24.6C127.932 24.856 127.858 25.1413 127.858 25.456V30H125.906L125.898 22H127.85L127.858 22.712C128.13 22.424 128.455 22.1973 128.834 22.032C129.212 21.8613 129.62 21.776 130.058 21.776C130.639 21.776 131.17 21.92 131.65 22.208C132.13 22.4907 132.511 22.872 132.794 23.352C133.082 23.8267 133.226 24.3573 133.226 24.944ZM140.599 22H142.551V30.152C142.551 30.728 142.434 31.2507 142.199 31.72C141.964 32.1947 141.644 32.6 141.239 32.936C140.834 33.2773 140.37 33.5387 139.847 33.72C139.324 33.9067 138.775 34 138.199 34C137.639 34 137.1 33.8853 136.583 33.656C136.066 33.4267 135.607 33.112 135.207 32.712C134.812 32.3173 134.511 31.8667 134.303 31.36L136.087 30.552C136.194 30.8453 136.354 31.1013 136.567 31.32C136.786 31.544 137.036 31.7173 137.319 31.84C137.602 31.968 137.895 32.032 138.199 32.032C138.508 32.032 138.804 31.9893 139.087 31.904C139.375 31.8187 139.634 31.6933 139.863 31.528C140.092 31.368 140.271 31.1707 140.399 30.936C140.532 30.7067 140.599 30.4453 140.599 30.152V29.024C140.348 29.376 140.034 29.6613 139.655 29.88C139.276 30.0987 138.839 30.208 138.343 30.208C137.767 30.208 137.228 30.0987 136.727 29.88C136.226 29.6613 135.783 29.36 135.399 28.976C135.02 28.5867 134.722 28.1387 134.503 27.632C134.29 27.1253 134.183 26.5813 134.183 26C134.183 25.4187 134.29 24.8747 134.503 24.368C134.722 23.8613 135.02 23.416 135.399 23.032C135.783 22.6427 136.226 22.3387 136.727 22.12C137.228 21.9013 137.767 21.792 138.343 21.792C138.839 21.792 139.276 21.9013 139.655 22.12C140.034 22.3333 140.348 22.616 140.599 22.968V22ZM138.367 28.328C138.778 28.328 139.14 28.224 139.455 28.016C139.775 27.8027 140.026 27.52 140.207 27.168C140.388 26.8107 140.479 26.4213 140.479 26C140.479 25.5733 140.386 25.184 140.199 24.832C140.018 24.48 139.767 24.1973 139.447 23.984C139.132 23.7707 138.772 23.664 138.367 23.664C137.967 23.664 137.602 23.7707 137.271 23.984C136.94 24.192 136.676 24.472 136.479 24.824C136.282 25.176 136.183 25.568 136.183 26C136.183 26.432 136.282 26.824 136.479 27.176C136.676 27.528 136.94 27.808 137.271 28.016C137.602 28.224 137.967 28.328 138.367 28.328Z" fill="white"/>
<defs>
<linearGradient id="paint0_linear_404_183345" x1="0" y1="0" x2="45.121" y2="-60.8724" gradientUnits="userSpaceOnUse">
<stop stop-color="#E1313C"/>
<stop offset="1" stop-color="#CB1B26"/>
</linearGradient>
</defs>
</svg>
