<svg width="168" height="35" viewBox="0 0 168 35" fill="none" xmlns="http://www.w3.org/2000/svg">
<path d="M54.981 13.182C54.4396 13.182 53.9193 13.098 53.42 12.93C52.9253 12.7573 52.4913 12.5123 52.118 12.195C51.7446 11.873 51.4763 11.488 51.313 11.04L52.916 10.452C52.9813 10.6387 53.1143 10.809 53.315 10.963C53.5156 11.117 53.7606 11.2407 54.05 11.334C54.3393 11.4273 54.6496 11.474 54.981 11.474C55.3216 11.474 55.639 11.4227 55.933 11.32C56.2316 11.2127 56.472 11.0657 56.654 10.879C56.836 10.6877 56.927 10.466 56.927 10.214C56.927 9.95733 56.8313 9.74733 56.64 9.584C56.4486 9.416 56.2036 9.283 55.905 9.185C55.6063 9.087 55.2983 9.01233 54.981 8.961C54.2856 8.85367 53.6626 8.688 53.112 8.464C52.5613 8.24 52.125 7.92967 51.803 7.533C51.4856 7.13633 51.327 6.623 51.327 5.993C51.327 5.40033 51.4973 4.88233 51.838 4.439C52.1786 3.99567 52.6266 3.65033 53.182 3.403C53.7373 3.15567 54.337 3.032 54.981 3.032C55.5176 3.032 56.0356 3.116 56.535 3.284C57.0343 3.452 57.4706 3.697 57.844 4.019C58.222 4.341 58.4926 4.72833 58.656 5.181L57.046 5.762C56.9806 5.57533 56.8476 5.405 56.647 5.251C56.4463 5.097 56.2013 4.97567 55.912 4.887C55.6226 4.79367 55.3123 4.747 54.981 4.747C54.6496 4.74233 54.3346 4.796 54.036 4.908C53.742 5.01533 53.5016 5.16233 53.315 5.349C53.1283 5.53567 53.035 5.75033 53.035 5.993C53.035 6.30567 53.1213 6.54133 53.294 6.7C53.4713 6.85867 53.707 6.97533 54.001 7.05C54.295 7.12 54.6216 7.18533 54.981 7.246C55.6343 7.34867 56.2386 7.52133 56.794 7.764C57.3493 8.00667 57.795 8.331 58.131 8.737C58.467 9.13833 58.635 9.63067 58.635 10.214C58.635 10.8067 58.467 11.327 58.131 11.775C57.795 12.2183 57.3493 12.5637 56.794 12.811C56.2386 13.0583 55.6343 13.182 54.981 13.182ZM64.1163 13.182C63.3323 13.182 62.644 12.9907 62.0513 12.608C61.4633 12.2253 61.006 11.712 60.6793 11.068C60.3526 10.4193 60.1893 9.70067 60.1893 8.912V3.2H61.8973V8.912C61.8973 9.37867 61.9836 9.808 62.1563 10.2C62.3336 10.5873 62.5856 10.8977 62.9123 11.131C63.2436 11.3597 63.645 11.474 64.1163 11.474C64.5923 11.474 64.9936 11.3597 65.3203 11.131C65.647 10.8977 65.8943 10.5873 66.0623 10.2C66.235 9.808 66.3213 9.37867 66.3213 8.912V3.2H68.0293V8.912C68.0293 9.50467 67.936 10.06 67.7493 10.578C67.5626 11.0913 67.2966 11.544 66.9513 11.936C66.606 12.328 66.193 12.6337 65.7123 12.853C65.2363 13.0723 64.7043 13.182 64.1163 13.182ZM69.5409 13V3.2H73.0409C73.5729 3.2 74.0535 3.333 74.4829 3.599C74.9169 3.865 75.2599 4.222 75.5119 4.67C75.7639 5.118 75.8899 5.61033 75.8899 6.147C75.8899 6.69767 75.7592 7.197 75.4979 7.645C75.2412 8.08833 74.8959 8.443 74.4619 8.709C74.0279 8.97033 73.5542 9.101 73.0409 9.101H71.2489V13H69.5409ZM71.2489 7.393H72.8589C73.1015 7.393 73.3232 7.33233 73.5239 7.211C73.7245 7.08967 73.8832 6.92633 73.9999 6.721C74.1212 6.51567 74.1819 6.287 74.1819 6.035C74.1819 5.77833 74.1212 5.54733 73.9999 5.342C73.8832 5.13667 73.7245 4.97333 73.5239 4.852C73.3232 4.73067 73.1015 4.67 72.8589 4.67H71.2489V7.393ZM84.3847 3.2V4.908H81.3887V13H79.6807V4.908H76.6847V3.2H84.3847ZM92.944 13H90.718L87.967 9.157L87.491 9.724V13H85.783V3.2H87.491V7.071L90.732 3.2H92.965L89.08 7.82L92.944 13ZM97.0098 13.182C96.3798 13.182 95.8105 13.0303 95.3018 12.727C94.7932 12.419 94.3895 12.0107 94.0908 11.502C93.7968 10.9933 93.6498 10.4357 93.6498 9.829H95.3578C95.3578 10.1323 95.4325 10.41 95.5818 10.662C95.7312 10.9093 95.9295 11.1077 96.1768 11.257C96.4288 11.4017 96.7065 11.474 97.0098 11.474C97.3132 11.474 97.5885 11.4017 97.8358 11.257C98.0832 11.1077 98.2815 10.9093 98.4308 10.662C98.5802 10.41 98.6548 10.1323 98.6548 9.829C98.6548 9.52567 98.5895 9.248 98.4588 8.996C98.3328 8.73933 98.1252 8.53633 97.8358 8.387C97.5512 8.233 97.1732 8.156 96.7018 8.156H94.1818L95.2178 3.2H100.034V4.908H96.6038L96.2888 6.448L96.9818 6.455C97.6445 6.47833 98.2302 6.63933 98.7388 6.938C99.2475 7.23667 99.6442 7.638 99.9288 8.142C100.218 8.64133 100.363 9.20367 100.363 9.829C100.363 10.2863 100.277 10.718 100.104 11.124C99.9312 11.53 99.6908 11.887 99.3828 12.195C99.0748 12.503 98.7178 12.7457 98.3118 12.923C97.9105 13.0957 97.4765 13.182 97.0098 13.182ZM105.01 13.182C104.441 13.182 103.923 13.0513 103.456 12.79C102.989 12.524 102.586 12.1577 102.245 11.691C101.909 11.2243 101.65 10.6853 101.468 10.074C101.286 9.458 101.195 8.8 101.195 8.1C101.195 7.4 101.286 6.74433 101.468 6.133C101.65 5.517 101.909 4.97567 102.245 4.509C102.586 4.04233 102.989 3.67833 103.456 3.417C103.923 3.151 104.441 3.018 105.01 3.018C105.579 3.018 106.097 3.151 106.564 3.417C107.031 3.67833 107.43 4.04233 107.761 4.509C108.097 4.97567 108.356 5.517 108.538 6.133C108.725 6.74433 108.818 7.4 108.818 8.1C108.818 8.8 108.725 9.458 108.538 10.074C108.356 10.6853 108.097 11.2243 107.761 11.691C107.43 12.1577 107.031 12.524 106.564 12.79C106.097 13.0513 105.579 13.182 105.01 13.182ZM105.01 11.474C105.509 11.474 105.922 11.3153 106.249 10.998C106.576 10.6807 106.818 10.2653 106.977 9.752C107.136 9.23867 107.215 8.688 107.215 8.1C107.215 7.47933 107.131 6.91467 106.963 6.406C106.795 5.89267 106.548 5.48433 106.221 5.181C105.894 4.87767 105.491 4.726 105.01 4.726C104.632 4.726 104.303 4.81933 104.023 5.006C103.748 5.188 103.519 5.43767 103.337 5.755C103.155 6.07233 103.02 6.434 102.931 6.84C102.842 7.24133 102.798 7.66133 102.798 8.1C102.798 8.68333 102.877 9.234 103.036 9.752C103.199 10.2653 103.444 10.6807 103.771 10.998C104.102 11.3153 104.515 11.474 105.01 11.474ZM113.159 13.182C112.589 13.182 112.071 13.0513 111.605 12.79C111.138 12.524 110.734 12.1577 110.394 11.691C110.058 11.2243 109.799 10.6853 109.617 10.074C109.435 9.458 109.344 8.8 109.344 8.1C109.344 7.4 109.435 6.74433 109.617 6.133C109.799 5.517 110.058 4.97567 110.394 4.509C110.734 4.04233 111.138 3.67833 111.605 3.417C112.071 3.151 112.589 3.018 113.159 3.018C113.728 3.018 114.246 3.151 114.713 3.417C115.179 3.67833 115.578 4.04233 115.91 4.509C116.246 4.97567 116.505 5.517 116.687 6.133C116.873 6.74433 116.967 7.4 116.967 8.1C116.967 8.8 116.873 9.458 116.687 10.074C116.505 10.6853 116.246 11.2243 115.91 11.691C115.578 12.1577 115.179 12.524 114.713 12.79C114.246 13.0513 113.728 13.182 113.159 13.182ZM113.159 11.474C113.658 11.474 114.071 11.3153 114.398 10.998C114.724 10.6807 114.967 10.2653 115.126 9.752C115.284 9.23867 115.364 8.688 115.364 8.1C115.364 7.47933 115.28 6.91467 115.112 6.406C114.944 5.89267 114.696 5.48433 114.37 5.181C114.043 4.87767 113.639 4.726 113.159 4.726C112.781 4.726 112.452 4.81933 112.172 5.006C111.896 5.188 111.668 5.43767 111.486 5.755C111.304 6.07233 111.168 6.434 111.08 6.84C110.991 7.24133 110.947 7.66133 110.947 8.1C110.947 8.68333 111.026 9.234 111.185 9.752C111.348 10.2653 111.593 10.6807 111.92 10.998C112.251 11.3153 112.664 11.474 113.159 11.474Z" fill="#24292E"/>
<path d="M41.3393 23.6V24.608H38.5433V32H37.5353V24.608H34.7453V23.6H41.3393ZM44.2581 32.156C43.7061 32.156 43.2021 32.014 42.7461 31.73C42.2941 31.446 41.9321 31.066 41.6601 30.59C41.3921 30.11 41.2581 29.58 41.2581 29C41.2581 28.56 41.3361 28.15 41.4921 27.77C41.6481 27.386 41.8621 27.05 42.1341 26.762C42.4101 26.47 42.7301 26.242 43.0941 26.078C43.4581 25.914 43.8461 25.832 44.2581 25.832C44.8101 25.832 45.3121 25.974 45.7641 26.258C46.2201 26.542 46.5821 26.924 46.8501 27.404C47.1221 27.884 47.2581 28.416 47.2581 29C47.2581 29.436 47.1801 29.844 47.0241 30.224C46.8681 30.604 46.6521 30.94 46.3761 31.232C46.1041 31.52 45.7861 31.746 45.4221 31.91C45.0621 32.074 44.6741 32.156 44.2581 32.156ZM44.2581 31.148C44.6341 31.148 44.9721 31.05 45.2721 30.854C45.5761 30.654 45.8141 30.392 45.9861 30.068C46.1621 29.74 46.2501 29.384 46.2501 29C46.2501 28.608 46.1601 28.248 45.9801 27.92C45.8041 27.592 45.5661 27.33 45.2661 27.134C44.9661 26.938 44.6301 26.84 44.2581 26.84C43.8821 26.84 43.5441 26.94 43.2441 27.14C42.9441 27.336 42.7061 27.598 42.5301 27.926C42.3541 28.254 42.2661 28.612 42.2661 29C42.2661 29.4 42.3561 29.764 42.5361 30.092C42.7161 30.416 42.9581 30.674 43.2621 30.866C43.5661 31.054 43.8981 31.148 44.2581 31.148ZM47.9289 29.72V26H48.9369V29.498C48.9369 29.802 49.0109 30.078 49.1589 30.326C49.3069 30.574 49.5049 30.772 49.7529 30.92C50.0049 31.064 50.2809 31.136 50.5809 31.136C50.8849 31.136 51.1589 31.064 51.4029 30.92C51.6509 30.772 51.8489 30.574 51.9969 30.326C52.1449 30.078 52.2189 29.802 52.2189 29.498V26H53.2269L53.2329 32H52.2249L52.2189 31.238C52.0069 31.518 51.7389 31.742 51.4149 31.91C51.0909 32.074 50.7409 32.156 50.3649 32.156C49.9169 32.156 49.5069 32.048 49.1349 31.832C48.7669 31.612 48.4729 31.318 48.2529 30.95C48.0369 30.582 47.9289 30.172 47.9289 29.72ZM54.4384 32V26H55.4464V26.75C55.6584 26.47 55.9264 26.248 56.2504 26.084C56.5744 25.916 56.9264 25.832 57.3064 25.832C57.5384 25.832 57.7624 25.862 57.9784 25.922L57.5704 26.93C57.4064 26.878 57.2464 26.852 57.0904 26.852C56.7904 26.852 56.5144 26.926 56.2624 27.074C56.0144 27.218 55.8164 27.414 55.6684 27.662C55.5204 27.91 55.4464 28.186 55.4464 28.49V32H54.4384ZM64.0432 28.268V32H63.0352V28.49C63.0352 28.186 62.9612 27.91 62.8132 27.662C62.6652 27.414 62.4672 27.218 62.2192 27.074C61.9712 26.926 61.6952 26.852 61.3912 26.852C61.0912 26.852 60.8152 26.926 60.5632 27.074C60.3152 27.218 60.1172 27.414 59.9692 27.662C59.8212 27.91 59.7472 28.186 59.7472 28.49V32H58.7392V26H59.7472V26.75C59.9592 26.47 60.2272 26.248 60.5512 26.084C60.8752 25.916 61.2272 25.832 61.6072 25.832C62.0552 25.832 62.4632 25.942 62.8312 26.162C63.2032 26.378 63.4972 26.67 63.7132 27.038C63.9332 27.406 64.0432 27.816 64.0432 28.268ZM69.9499 26H70.9579V32H69.9499L69.9079 30.986C69.7199 31.334 69.4599 31.616 69.1279 31.832C68.7999 32.048 68.4079 32.156 67.9519 32.156C67.5119 32.156 67.0999 32.074 66.7159 31.91C66.3319 31.742 65.9919 31.512 65.6959 31.22C65.4039 30.924 65.1759 30.584 65.0119 30.2C64.8479 29.816 64.7659 29.402 64.7659 28.958C64.7659 28.53 64.8459 28.126 65.0059 27.746C65.1659 27.366 65.3879 27.034 65.6719 26.75C65.9599 26.462 66.2919 26.238 66.6679 26.078C67.0439 25.914 67.4479 25.832 67.8799 25.832C68.3519 25.832 68.7659 25.944 69.1219 26.168C69.4779 26.388 69.7659 26.674 69.9859 27.026L69.9499 26ZM67.9339 31.178C68.3299 31.178 68.6719 31.082 68.9599 30.89C69.2519 30.694 69.4759 30.43 69.6319 30.098C69.7919 29.766 69.8719 29.4 69.8719 29C69.8719 28.592 69.7919 28.224 69.6319 27.896C69.4719 27.564 69.2459 27.302 68.9539 27.11C68.6659 26.914 68.3259 26.816 67.9339 26.816C67.5379 26.816 67.1779 26.914 66.8539 27.11C66.5299 27.306 66.2719 27.57 66.0799 27.902C65.8919 28.23 65.7979 28.596 65.7979 29C65.7979 29.404 65.8959 29.772 66.0919 30.104C66.2879 30.432 66.5479 30.694 66.8719 30.89C67.1959 31.082 67.5499 31.178 67.9339 31.178ZM72.1572 32V26H73.1652V26.75C73.3772 26.47 73.6432 26.248 73.9632 26.084C74.2872 25.916 74.6392 25.832 75.0192 25.832C75.4632 25.832 75.8692 25.94 76.2372 26.156C76.6052 26.372 76.8952 26.658 77.1072 27.014C77.3192 26.658 77.6072 26.372 77.9712 26.156C78.3392 25.94 78.7432 25.832 79.1832 25.832C79.6352 25.832 80.0452 25.942 80.4132 26.162C80.7812 26.378 81.0732 26.67 81.2892 27.038C81.5092 27.406 81.6192 27.816 81.6192 28.268V32H80.6112V28.508C80.6112 28.212 80.5392 27.938 80.3952 27.686C80.2512 27.434 80.0572 27.232 79.8132 27.08C79.5692 26.928 79.2992 26.852 79.0032 26.852C78.7072 26.852 78.4372 26.924 78.1932 27.068C77.9492 27.208 77.7552 27.404 77.6112 27.656C77.4672 27.904 77.3952 28.188 77.3952 28.508V32H76.3872V28.508C76.3872 28.188 76.3152 27.904 76.1712 27.656C76.0272 27.404 75.8312 27.208 75.5832 27.068C75.3392 26.924 75.0692 26.852 74.7732 26.852C74.4812 26.852 74.2112 26.928 73.9632 27.08C73.7192 27.232 73.5252 27.434 73.3812 27.686C73.2372 27.938 73.1652 28.212 73.1652 28.508V32H72.1572ZM85.3441 32.156C84.7921 32.156 84.2881 32.014 83.8321 31.73C83.3801 31.446 83.0181 31.066 82.7461 30.59C82.4781 30.11 82.3441 29.58 82.3441 29C82.3441 28.56 82.4221 28.15 82.5781 27.77C82.7341 27.386 82.9481 27.05 83.2201 26.762C83.4961 26.47 83.8161 26.242 84.1801 26.078C84.5441 25.914 84.9321 25.832 85.3441 25.832C85.7961 25.832 86.2101 25.924 86.5861 26.108C86.9661 26.288 87.2901 26.54 87.5581 26.864C87.8301 27.188 88.0321 27.564 88.1641 27.992C88.3001 28.42 88.3501 28.878 88.3141 29.366H83.4181C83.4661 29.706 83.5781 30.01 83.7541 30.278C83.9301 30.542 84.1541 30.752 84.4261 30.908C84.7021 31.064 85.0081 31.144 85.3441 31.148C85.7041 31.148 86.0301 31.056 86.3221 30.872C86.6141 30.684 86.8501 30.428 87.0301 30.104L88.0561 30.344C87.8161 30.876 87.4541 31.312 86.9701 31.652C86.4861 31.988 85.9441 32.156 85.3441 32.156ZM83.3881 28.574H87.3001C87.2681 28.238 87.1601 27.932 86.9761 27.656C86.7921 27.376 86.5581 27.152 86.2741 26.984C85.9901 26.816 85.6801 26.732 85.3441 26.732C85.0081 26.732 84.7001 26.814 84.4201 26.978C84.1401 27.142 83.9081 27.364 83.7241 27.644C83.5441 27.92 83.4321 28.23 83.3881 28.574ZM94.6291 28.268V32H93.6211V28.49C93.6211 28.186 93.5471 27.91 93.3991 27.662C93.2511 27.414 93.0531 27.218 92.8051 27.074C92.5571 26.926 92.2811 26.852 91.9771 26.852C91.6771 26.852 91.4011 26.926 91.1491 27.074C90.9011 27.218 90.7031 27.414 90.5551 27.662C90.4071 27.91 90.3331 28.186 90.3331 28.49V32H89.3251V26H90.3331V26.75C90.5451 26.47 90.8131 26.248 91.1371 26.084C91.4611 25.916 91.8131 25.832 92.1931 25.832C92.6411 25.832 93.0491 25.942 93.4171 26.162C93.7891 26.378 94.0831 26.67 94.2991 27.038C94.5191 27.406 94.6291 27.816 94.6291 28.268ZM98.9371 27.008H97.5751L97.5691 32H96.5611L96.5671 27.008H95.5351V26H96.5671L96.5611 24.116H97.5691L97.5751 26H98.9371V27.008ZM109.249 23.6V24.608H106.453V32H105.445V24.608H102.655V23.6H109.249ZM109.774 26H110.782V32H109.774V26ZM110.29 25.022C110.13 25.022 109.996 24.97 109.888 24.866C109.78 24.762 109.726 24.632 109.726 24.476C109.726 24.32 109.78 24.19 109.888 24.086C109.996 23.982 110.128 23.93 110.284 23.93C110.44 23.93 110.572 23.982 110.68 24.086C110.788 24.19 110.842 24.32 110.842 24.476C110.842 24.632 110.788 24.762 110.68 24.866C110.576 24.97 110.446 25.022 110.29 25.022ZM116.276 30.416L117.176 30.902C116.904 31.282 116.558 31.586 116.138 31.814C115.722 32.042 115.27 32.156 114.782 32.156C114.23 32.156 113.726 32.014 113.27 31.73C112.818 31.446 112.456 31.066 112.184 30.59C111.916 30.11 111.782 29.58 111.782 29C111.782 28.56 111.86 28.15 112.016 27.77C112.172 27.386 112.386 27.05 112.658 26.762C112.934 26.47 113.254 26.242 113.618 26.078C113.982 25.914 114.37 25.832 114.782 25.832C115.27 25.832 115.722 25.946 116.138 26.174C116.558 26.402 116.904 26.708 117.176 27.092L116.276 27.578C116.084 27.342 115.856 27.16 115.592 27.032C115.328 26.904 115.058 26.84 114.782 26.84C114.41 26.84 114.072 26.94 113.768 27.14C113.468 27.336 113.23 27.598 113.054 27.926C112.878 28.254 112.79 28.612 112.79 29C112.79 29.388 112.878 29.746 113.054 30.074C113.234 30.398 113.474 30.658 113.774 30.854C114.078 31.05 114.414 31.148 114.782 31.148C115.078 31.148 115.356 31.08 115.616 30.944C115.876 30.808 116.096 30.632 116.276 30.416ZM123.019 32H121.861L120.265 29.246L119.161 30.566V32H118.153V23H119.161V29L121.675 26H122.989L120.949 28.43L123.019 32ZM126.36 32.156C125.808 32.156 125.304 32.014 124.848 31.73C124.396 31.446 124.034 31.066 123.762 30.59C123.494 30.11 123.36 29.58 123.36 29C123.36 28.56 123.438 28.15 123.594 27.77C123.75 27.386 123.964 27.05 124.236 26.762C124.512 26.47 124.832 26.242 125.196 26.078C125.56 25.914 125.948 25.832 126.36 25.832C126.812 25.832 127.226 25.924 127.602 26.108C127.982 26.288 128.306 26.54 128.574 26.864C128.846 27.188 129.048 27.564 129.18 27.992C129.316 28.42 129.366 28.878 129.33 29.366H124.434C124.482 29.706 124.594 30.01 124.77 30.278C124.946 30.542 125.17 30.752 125.442 30.908C125.718 31.064 126.024 31.144 126.36 31.148C126.72 31.148 127.046 31.056 127.338 30.872C127.63 30.684 127.866 30.428 128.046 30.104L129.072 30.344C128.832 30.876 128.47 31.312 127.986 31.652C127.502 31.988 126.96 32.156 126.36 32.156ZM124.404 28.574H128.316C128.284 28.238 128.176 27.932 127.992 27.656C127.808 27.376 127.574 27.152 127.29 26.984C127.006 26.816 126.696 26.732 126.36 26.732C126.024 26.732 125.716 26.814 125.436 26.978C125.156 27.142 124.924 27.364 124.74 27.644C124.56 27.92 124.448 28.23 124.404 28.574ZM133.378 27.008H132.016L132.01 32H131.002L131.008 27.008H129.976V26H131.008L131.002 24.116H132.01L132.016 26H133.378V27.008Z" fill="#24292E"/>
</svg>
