<svg width="24" height="24" viewBox="0 0 24 24" fill="none" xmlns="http://www.w3.org/2000/svg">
<path d="M4.2308 18.3766C4.25418 18.4752 4.29726 18.568 4.35746 18.6495C4.41765 18.731 4.49371 18.7995 4.58107 18.8508C4.66842 18.9022 4.76525 18.9353 4.86574 18.9483C4.96624 18.9612 5.06831 18.9537 5.16582 18.9262C9.63668 17.6917 14.3584 17.6913 18.8295 18.9249C18.927 18.9524 19.029 18.9599 19.1295 18.9469C19.2299 18.934 19.3267 18.9009 19.414 18.8495C19.5014 18.7982 19.5774 18.7298 19.6376 18.6483C19.6978 18.5669 19.7409 18.4741 19.7643 18.3755L22.1539 8.22083C22.1859 8.08489 22.1793 7.94271 22.1348 7.81032C22.0904 7.67793 22.0098 7.56057 21.9023 7.47148C21.7947 7.38238 21.6645 7.32509 21.5261 7.30604C21.3878 7.28699 21.2468 7.30695 21.1192 7.36367L16.377 9.47133C16.2058 9.54744 16.0122 9.55668 15.8345 9.49725C15.6568 9.43782 15.5078 9.31401 15.4168 9.1502L12.6556 4.18011C12.5907 4.06319 12.4956 3.96577 12.3803 3.89794C12.2651 3.83011 12.1337 3.79434 12 3.79434C11.8662 3.79434 11.7349 3.83011 11.6196 3.89794C11.5044 3.96577 11.4093 4.06319 11.3444 4.18011L8.58321 9.1502C8.49221 9.31401 8.34318 9.43782 8.16547 9.49725C7.98775 9.55668 7.79423 9.54744 7.62299 9.47133L2.88004 7.36335C2.75245 7.30664 2.61156 7.28668 2.47323 7.30571C2.3349 7.32474 2.20464 7.382 2.09709 7.47106C1.98955 7.56011 1.909 7.67742 1.86452 7.80978C1.82003 7.94213 1.81338 8.08427 1.84531 8.2202L4.2308 18.3766Z" stroke="#FAFBFC" stroke-width="1.5" stroke-linecap="round" stroke-linejoin="round"/>
<path d="M9 15.1574C10.9945 14.9475 13.0055 14.9475 15 15.1574" stroke="#FAFBFC" stroke-width="1.5" stroke-linecap="round" stroke-linejoin="round"/>
</svg>
