<svg width="58" height="76" viewBox="0 0 58 76" fill="none" xmlns="http://www.w3.org/2000/svg">
<g filter="url(#filter0_d_1584_28438)">
<rect x="9" y="6" width="40" height="58" rx="5" fill="url(#paint0_linear_1584_28438)" stroke="white" stroke-width="2"/>
<rect x="9" y="6" width="40" height="58" rx="5" fill="url(#paint1_linear_1584_28438)" stroke="white" stroke-width="2"/>
<rect x="9" y="6" width="40" height="58" rx="5" fill="url(#paint2_linear_1584_28438)" stroke="white" stroke-width="2"/>
<g opacity="0.3">
<g clip-path="url(#clip0_1584_28438)">
<g style="mix-blend-mode:screen" opacity="0.6">
<path d="M6.33333 12.3398C7.4 13.9359 8.55556 14.7783 9 15C8.55556 15.2217 7.4 16.0641 6.33333 17.6602C5 19.6553 2.86136 19.225 2.4648 17.6602C2.14755 16.4083 3.13386 15.3651 3.66667 15C2.77778 15 1 15.266 1 16.3301L1 13.6699C1 14.734 2.77778 15 3.66667 15C3.13386 14.6349 2.14755 13.5917 2.4648 12.3398C2.86136 10.775 5 10.3447 6.33333 12.3398Z" fill="white"/>
</g>
<g style="mix-blend-mode:screen" opacity="0.6">
<path d="M16.3398 7.66667C17.9359 6.6 18.7783 5.44444 19 5C19.2217 5.44444 20.0641 6.6 21.6602 7.66667C23.6553 9 23.225 11.1386 21.6602 11.5352C20.4083 11.8524 19.3651 10.8661 19 10.3333C19 11.2222 19.266 13 20.3301 13H17.6699C18.734 13 19 11.2222 19 10.3333C18.6349 10.8661 17.5917 11.8524 16.3398 11.5352C14.775 11.1386 14.3447 9 16.3398 7.66667Z" fill="white"/>
</g>
<g style="mix-blend-mode:screen" opacity="0.6">
<path d="M26.3333 12.3398C27.4 13.9359 28.5556 14.7783 29 15C28.5556 15.2217 27.4 16.0641 26.3333 17.6602C25 19.6553 22.8614 19.225 22.4648 17.6602C22.1476 16.4083 23.1339 15.3651 23.6667 15C22.7778 15 21 15.266 21 16.3301L21 13.6699C21 14.734 22.7778 15 23.6667 15C23.1339 14.6349 22.1476 13.5917 22.4648 12.3398C22.8614 10.775 25 10.3447 26.3333 12.3398Z" fill="white"/>
</g>
<g style="mix-blend-mode:screen" opacity="0.6">
<path d="M16.3398 22.3333C17.9359 23.4 18.7783 24.5556 19 25C19.2217 24.5556 20.0641 23.4 21.6602 22.3333C23.6553 21 23.225 18.8614 21.6602 18.4648C20.4083 18.1476 19.3651 19.1339 19 19.6667C19 18.7778 19.266 17 20.3301 17H17.6699C18.734 17 19 18.7778 19 19.6667C18.6349 19.1339 17.5917 18.1476 16.3398 18.4648C14.775 18.8614 14.3447 21 16.3398 22.3333Z" fill="white"/>
</g>
<g style="mix-blend-mode:screen" opacity="0.6">
<path d="M11.6667 12.3398C10.6 13.9359 9.44444 14.7783 9 15C9.44444 15.2217 10.6 16.0641 11.6667 17.6602C13 19.6553 15.1386 19.225 15.5352 17.6602C15.8524 16.4083 14.8661 15.3651 14.3333 15C15.2222 15 17 15.266 17 16.3301L17 13.6699C17 14.734 15.2222 15 14.3333 15C14.8661 14.6349 15.8524 13.5917 15.5352 12.3398C15.1386 10.775 13 10.3447 11.6667 12.3398Z" fill="white"/>
</g>
<g style="mix-blend-mode:screen" opacity="0.6">
<path d="M36.3398 7.66667C37.9359 6.6 38.7783 5.44444 39 5C39.2217 5.44444 40.0641 6.6 41.6602 7.66667C43.6553 9 43.225 11.1386 41.6602 11.5352C40.4083 11.8524 39.3651 10.8661 39 10.3333C39 11.2222 39.266 13 40.3301 13H37.6699C38.734 13 39 11.2222 39 10.3333C38.6349 10.8661 37.5917 11.8524 36.3398 11.5352C34.775 11.1386 34.3447 9 36.3398 7.66667Z" fill="white"/>
</g>
<g style="mix-blend-mode:screen" opacity="0.6">
<path d="M46.3333 12.3398C47.4 13.9359 48.5556 14.7783 49 15C48.5556 15.2217 47.4 16.0641 46.3333 17.6602C45 19.6553 42.8614 19.225 42.4648 17.6602C42.1476 16.4083 43.1339 15.3651 43.6667 15C42.7778 15 41 15.266 41 16.3301L41 13.6699C41 14.734 42.7778 15 43.6667 15C43.1339 14.6349 42.1476 13.5917 42.4648 12.3398C42.8614 10.775 45 10.3447 46.3333 12.3398Z" fill="white"/>
</g>
<g style="mix-blend-mode:screen" opacity="0.6">
<path d="M36.3398 22.3333C37.9359 23.4 38.7783 24.5556 39 25C39.2217 24.5556 40.0641 23.4 41.6602 22.3333C43.6553 21 43.225 18.8614 41.6602 18.4648C40.4083 18.1476 39.3651 19.1339 39 19.6667C39 18.7778 39.266 17 40.3301 17H37.6699C38.734 17 39 18.7778 39 19.6667C38.6349 19.1339 37.5917 18.1476 36.3398 18.4648C34.775 18.8614 34.3447 21 36.3398 22.3333Z" fill="white"/>
</g>
<g style="mix-blend-mode:screen" opacity="0.6">
<path d="M31.6667 12.3398C30.6 13.9359 29.4444 14.7783 29 15C29.4444 15.2217 30.6 16.0641 31.6667 17.6602C33 19.6553 35.1386 19.225 35.5352 17.6602C35.8524 16.4083 34.8661 15.3651 34.3333 15C35.2222 15 37 15.266 37 16.3301L37 13.6699C37 14.734 35.2222 15 34.3333 15C34.8661 14.6349 35.8524 13.5917 35.5352 12.3398C35.1386 10.775 33 10.3447 31.6667 12.3398Z" fill="white"/>
</g>
<g style="mix-blend-mode:screen" opacity="0.6">
<path d="M51.6667 12.3398C50.6 13.9359 49.4444 14.7783 49 15C49.4444 15.2217 50.6 16.0641 51.6667 17.6602C53 19.6553 55.1386 19.225 55.5352 17.6602C55.8524 16.4083 54.8661 15.3651 54.3333 15C55.2222 15 57 15.266 57 16.3301L57 13.6699C57 14.734 55.2222 15 54.3333 15C54.8661 14.6349 55.8524 13.5917 55.5352 12.3398C55.1386 10.775 53 10.3447 51.6667 12.3398Z" fill="white"/>
</g>
<g style="mix-blend-mode:screen" opacity="0.6">
<path d="M6.33984 25.6667C7.93594 24.6 8.77832 23.4444 9 23C9.22168 23.4444 10.0641 24.6 11.6602 25.6667C13.6553 27 13.225 29.1386 11.6602 29.5352C10.4083 29.8524 9.3651 28.8661 9 28.3333C9 29.2222 9.26602 31 10.3301 31H7.66992C8.73398 31 9 29.2222 9 28.3333C8.6349 28.8661 7.59174 29.8524 6.33984 29.5352C4.77496 29.1386 4.34472 27 6.33984 25.6667Z" fill="white"/>
</g>
<g style="mix-blend-mode:screen" opacity="0.6">
<path d="M16.3333 30.3398C17.4 31.9359 18.5556 32.7783 19 33C18.5556 33.2217 17.4 34.0641 16.3333 35.6602C15 37.6553 12.8614 37.225 12.4648 35.6602C12.1476 34.4083 13.1339 33.3651 13.6667 33C12.7778 33 11 33.266 11 34.3301L11 31.6699C11 32.734 12.7778 33 13.6667 33C13.1339 32.6349 12.1476 31.5917 12.4648 30.3398C12.8614 28.775 15 28.3447 16.3333 30.3398Z" fill="white"/>
</g>
<g style="mix-blend-mode:screen" opacity="0.6">
<path d="M6.33984 40.3333C7.93594 41.4 8.77832 42.5556 9 43C9.22168 42.5556 10.0641 41.4 11.6602 40.3333C13.6553 39 13.225 36.8614 11.6602 36.4648C10.4083 36.1476 9.3651 37.1339 9 37.6667C9 36.7778 9.26602 35 10.3301 35H7.66992C8.73398 35 9 36.7778 9 37.6667C8.6349 37.1339 7.59174 36.1476 6.33984 36.4648C4.77496 36.8614 4.34472 39 6.33984 40.3333Z" fill="white"/>
</g>
<g style="mix-blend-mode:screen" opacity="0.6">
<path d="M26.3398 25.6667C27.9359 24.6 28.7783 23.4444 29 23C29.2217 23.4444 30.0641 24.6 31.6602 25.6667C33.6553 27 33.225 29.1386 31.6602 29.5352C30.4083 29.8524 29.3651 28.8661 29 28.3333C29 29.2222 29.266 31 30.3301 31H27.6699C28.734 31 29 29.2222 29 28.3333C28.6349 28.8661 27.5917 29.8524 26.3398 29.5352C24.775 29.1386 24.3447 27 26.3398 25.6667Z" fill="white"/>
</g>
<g style="mix-blend-mode:screen" opacity="0.6">
<path d="M36.3333 30.3398C37.4 31.9359 38.5556 32.7783 39 33C38.5556 33.2217 37.4 34.0641 36.3333 35.6602C35 37.6553 32.8614 37.225 32.4648 35.6602C32.1476 34.4083 33.1339 33.3651 33.6667 33C32.7778 33 31 33.266 31 34.3301L31 31.6699C31 32.734 32.7778 33 33.6667 33C33.1339 32.6349 32.1476 31.5917 32.4648 30.3398C32.8614 28.775 35 28.3447 36.3333 30.3398Z" fill="white"/>
</g>
<g style="mix-blend-mode:screen" opacity="0.6">
<path d="M26.3398 40.3333C27.9359 41.4 28.7783 42.5556 29 43C29.2217 42.5556 30.0641 41.4 31.6602 40.3333C33.6553 39 33.225 36.8614 31.6602 36.4648C30.4083 36.1476 29.3651 37.1339 29 37.6667C29 36.7778 29.266 35 30.3301 35H27.6699C28.734 35 29 36.7778 29 37.6667C28.6349 37.1339 27.5917 36.1476 26.3398 36.4648C24.775 36.8614 24.3447 39 26.3398 40.3333Z" fill="white"/>
</g>
<g style="mix-blend-mode:screen" opacity="0.6">
<path d="M21.6667 30.3398C20.6 31.9359 19.4444 32.7783 19 33C19.4444 33.2217 20.6 34.0641 21.6667 35.6602C23 37.6553 25.1386 37.225 25.5352 35.6602C25.8524 34.4083 24.8661 33.3651 24.3333 33C25.2222 33 27 33.266 27 34.3301L27 31.6699C27 32.734 25.2222 33 24.3333 33C24.8661 32.6349 25.8524 31.5917 25.5352 30.3398C25.1386 28.775 23 28.3447 21.6667 30.3398Z" fill="white"/>
</g>
<g style="mix-blend-mode:screen" opacity="0.6">
<path d="M46.3398 25.6667C47.9359 24.6 48.7783 23.4444 49 23C49.2217 23.4444 50.0641 24.6 51.6602 25.6667C53.6553 27 53.225 29.1386 51.6602 29.5352C50.4083 29.8524 49.3651 28.8661 49 28.3333C49 29.2222 49.266 31 50.3301 31H47.6699C48.734 31 49 29.2222 49 28.3333C48.6349 28.8661 47.5917 29.8524 46.3398 29.5352C44.775 29.1386 44.3447 27 46.3398 25.6667Z" fill="white"/>
</g>
<g style="mix-blend-mode:screen" opacity="0.6">
<path d="M46.3398 40.3333C47.9359 41.4 48.7783 42.5556 49 43C49.2217 42.5556 50.0641 41.4 51.6602 40.3333C53.6553 39 53.225 36.8614 51.6602 36.4648C50.4083 36.1476 49.3651 37.1339 49 37.6667C49 36.7778 49.266 35 50.3301 35H47.6699C48.734 35 49 36.7778 49 37.6667C48.6349 37.1339 47.5917 36.1476 46.3398 36.4648C44.775 36.8614 44.3447 39 46.3398 40.3333Z" fill="white"/>
</g>
<g style="mix-blend-mode:screen" opacity="0.6">
<path d="M41.6667 30.3398C40.6 31.9359 39.4444 32.7783 39 33C39.4444 33.2217 40.6 34.0641 41.6667 35.6602C43 37.6553 45.1386 37.225 45.5352 35.6602C45.8524 34.4083 44.8661 33.3651 44.3333 33C45.2222 33 47 33.266 47 34.3301L47 31.6699C47 32.734 45.2222 33 44.3333 33C44.8661 32.6349 45.8524 31.5917 45.5352 30.3398C45.1386 28.775 43 28.3447 41.6667 30.3398Z" fill="white"/>
</g>
<g style="mix-blend-mode:screen" opacity="0.6">
<path d="M6.33333 48.3398C7.4 49.9359 8.55556 50.7783 9 51C8.55556 51.2217 7.4 52.0641 6.33333 53.6602C5 55.6553 2.86136 55.225 2.4648 53.6602C2.14755 52.4083 3.13386 51.3651 3.66667 51C2.77778 51 1 51.266 1 52.3301L1 49.6699C1 50.734 2.77778 51 3.66667 51C3.13386 50.6349 2.14755 49.5917 2.4648 48.3398C2.86136 46.775 5 46.3447 6.33333 48.3398Z" fill="white"/>
</g>
<g style="mix-blend-mode:screen" opacity="0.6">
<path d="M16.3398 43.6667C17.9359 42.6 18.7783 41.4444 19 41C19.2217 41.4444 20.0641 42.6 21.6602 43.6667C23.6553 45 23.225 47.1386 21.6602 47.5352C20.4083 47.8524 19.3651 46.8661 19 46.3333C19 47.2222 19.266 49 20.3301 49H17.6699C18.734 49 19 47.2222 19 46.3333C18.6349 46.8661 17.5917 47.8524 16.3398 47.5352C14.775 47.1386 14.3447 45 16.3398 43.6667Z" fill="white"/>
</g>
<g style="mix-blend-mode:screen" opacity="0.6">
<path d="M26.3333 48.3398C27.4 49.9359 28.5556 50.7783 29 51C28.5556 51.2217 27.4 52.0641 26.3333 53.6602C25 55.6553 22.8614 55.225 22.4648 53.6602C22.1476 52.4083 23.1339 51.3651 23.6667 51C22.7778 51 21 51.266 21 52.3301L21 49.6699C21 50.734 22.7778 51 23.6667 51C23.1339 50.6349 22.1476 49.5917 22.4648 48.3398C22.8614 46.775 25 46.3447 26.3333 48.3398Z" fill="white"/>
</g>
<g style="mix-blend-mode:screen" opacity="0.6">
<path d="M16.3398 58.3333C17.9359 59.4 18.7783 60.5556 19 61C19.2217 60.5556 20.0641 59.4 21.6602 58.3333C23.6553 57 23.225 54.8614 21.6602 54.4648C20.4083 54.1476 19.3651 55.1339 19 55.6667C19 54.7778 19.266 53 20.3301 53H17.6699C18.734 53 19 54.7778 19 55.6667C18.6349 55.1339 17.5917 54.1476 16.3398 54.4648C14.775 54.8614 14.3447 57 16.3398 58.3333Z" fill="white"/>
</g>
<g style="mix-blend-mode:screen" opacity="0.6">
<path d="M11.6667 48.3398C10.6 49.9359 9.44444 50.7783 9 51C9.44444 51.2217 10.6 52.0641 11.6667 53.6602C13 55.6553 15.1386 55.225 15.5352 53.6602C15.8524 52.4083 14.8661 51.3651 14.3333 51C15.2222 51 17 51.266 17 52.3301L17 49.6699C17 50.734 15.2222 51 14.3333 51C14.8661 50.6349 15.8524 49.5917 15.5352 48.3398C15.1386 46.775 13 46.3447 11.6667 48.3398Z" fill="white"/>
</g>
<g style="mix-blend-mode:screen" opacity="0.6">
<path d="M36.3398 43.6667C37.9359 42.6 38.7783 41.4444 39 41C39.2217 41.4444 40.0641 42.6 41.6602 43.6667C43.6553 45 43.225 47.1386 41.6602 47.5352C40.4083 47.8524 39.3651 46.8661 39 46.3333C39 47.2222 39.266 49 40.3301 49H37.6699C38.734 49 39 47.2222 39 46.3333C38.6349 46.8661 37.5917 47.8524 36.3398 47.5352C34.775 47.1386 34.3447 45 36.3398 43.6667Z" fill="white"/>
</g>
<g style="mix-blend-mode:screen" opacity="0.6">
<path d="M46.3333 48.3398C47.4 49.9359 48.5556 50.7783 49 51C48.5556 51.2217 47.4 52.0641 46.3333 53.6602C45 55.6553 42.8614 55.225 42.4648 53.6602C42.1476 52.4083 43.1339 51.3651 43.6667 51C42.7778 51 41 51.266 41 52.3301L41 49.6699C41 50.734 42.7778 51 43.6667 51C43.1339 50.6349 42.1476 49.5917 42.4648 48.3398C42.8614 46.775 45 46.3447 46.3333 48.3398Z" fill="white"/>
</g>
<g style="mix-blend-mode:screen" opacity="0.6">
<path d="M36.3398 58.3333C37.9359 59.4 38.7783 60.5556 39 61C39.2217 60.5556 40.0641 59.4 41.6602 58.3333C43.6553 57 43.225 54.8614 41.6602 54.4648C40.4083 54.1476 39.3651 55.1339 39 55.6667C39 54.7778 39.266 53 40.3301 53H37.6699C38.734 53 39 54.7778 39 55.6667C38.6349 55.1339 37.5917 54.1476 36.3398 54.4648C34.775 54.8614 34.3447 57 36.3398 58.3333Z" fill="white"/>
</g>
<g style="mix-blend-mode:screen" opacity="0.6">
<path d="M31.6667 48.3398C30.6 49.9359 29.4444 50.7783 29 51C29.4444 51.2217 30.6 52.0641 31.6667 53.6602C33 55.6553 35.1386 55.225 35.5352 53.6602C35.8524 52.4083 34.8661 51.3651 34.3333 51C35.2222 51 37 51.266 37 52.3301L37 49.6699C37 50.734 35.2222 51 34.3333 51C34.8661 50.6349 35.8524 49.5917 35.5352 48.3398C35.1386 46.775 33 46.3447 31.6667 48.3398Z" fill="white"/>
</g>
<g style="mix-blend-mode:screen" opacity="0.6">
<path d="M51.6667 48.3398C50.6 49.9359 49.4444 50.7783 49 51C49.4444 51.2217 50.6 52.0641 51.6667 53.6602C53 55.6553 55.1386 55.225 55.5352 53.6602C55.8524 52.4083 54.8661 51.3651 54.3333 51C55.2222 51 57 51.266 57 52.3301L57 49.6699C57 50.734 55.2222 51 54.3333 51C54.8661 50.6349 55.8524 49.5917 55.5352 48.3398C55.1386 46.775 53 46.3447 51.6667 48.3398Z" fill="white"/>
</g>
<g style="mix-blend-mode:screen" opacity="0.6">
<path d="M6.33984 61.6667C7.93594 60.6 8.77832 59.4444 9 59C9.22168 59.4444 10.0641 60.6 11.6602 61.6667C13.6553 63 13.225 65.1386 11.6602 65.5352C10.4083 65.8524 9.3651 64.8661 9 64.3333C9 65.2222 9.26602 67 10.3301 67H7.66992C8.73398 67 9 65.2222 9 64.3333C8.6349 64.8661 7.59174 65.8524 6.33984 65.5352C4.77496 65.1386 4.34472 63 6.33984 61.6667Z" fill="white"/>
</g>
<g style="mix-blend-mode:screen" opacity="0.6">
<path d="M16.3333 66.3398C17.4 67.9359 18.5556 68.7783 19 69C18.5556 69.2217 17.4 70.0641 16.3333 71.6602C15 73.6553 12.8614 73.225 12.4648 71.6602C12.1476 70.4083 13.1339 69.3651 13.6667 69C12.7778 69 11 69.266 11 70.3301L11 67.6699C11 68.734 12.7778 69 13.6667 69C13.1339 68.6349 12.1476 67.5917 12.4648 66.3398C12.8614 64.775 15 64.3447 16.3333 66.3398Z" fill="white"/>
</g>
<g style="mix-blend-mode:screen" opacity="0.6">
<path d="M26.3398 61.6667C27.9359 60.6 28.7783 59.4444 29 59C29.2217 59.4444 30.0641 60.6 31.6602 61.6667C33.6553 63 33.225 65.1386 31.6602 65.5352C30.4083 65.8524 29.3651 64.8661 29 64.3333C29 65.2222 29.266 67 30.3301 67H27.6699C28.734 67 29 65.2222 29 64.3333C28.6349 64.8661 27.5917 65.8524 26.3398 65.5352C24.775 65.1386 24.3447 63 26.3398 61.6667Z" fill="white"/>
</g>
<g style="mix-blend-mode:screen" opacity="0.6">
<path d="M36.3333 66.3398C37.4 67.9359 38.5556 68.7783 39 69C38.5556 69.2217 37.4 70.0641 36.3333 71.6602C35 73.6553 32.8614 73.225 32.4648 71.6602C32.1476 70.4083 33.1339 69.3651 33.6667 69C32.7778 69 31 69.266 31 70.3301L31 67.6699C31 68.734 32.7778 69 33.6667 69C33.1339 68.6349 32.1476 67.5917 32.4648 66.3398C32.8614 64.775 35 64.3447 36.3333 66.3398Z" fill="white"/>
</g>
<g style="mix-blend-mode:screen" opacity="0.6">
<path d="M21.6667 66.3398C20.6 67.9359 19.4444 68.7783 19 69C19.4444 69.2217 20.6 70.0641 21.6667 71.6602C23 73.6553 25.1386 73.225 25.5352 71.6602C25.8524 70.4083 24.8661 69.3651 24.3333 69C25.2222 69 27 69.266 27 70.3301L27 67.6699C27 68.734 25.2222 69 24.3333 69C24.8661 68.6349 25.8524 67.5917 25.5352 66.3398C25.1386 64.775 23 64.3447 21.6667 66.3398Z" fill="white"/>
</g>
<g style="mix-blend-mode:screen" opacity="0.6">
<path d="M46.3398 61.6667C47.9359 60.6 48.7783 59.4444 49 59C49.2217 59.4444 50.0641 60.6 51.6602 61.6667C53.6553 63 53.225 65.1386 51.6602 65.5352C50.4083 65.8524 49.3651 64.8661 49 64.3333C49 65.2222 49.266 67 50.3301 67H47.6699C48.734 67 49 65.2222 49 64.3333C48.6349 64.8661 47.5917 65.8524 46.3398 65.5352C44.775 65.1386 44.3447 63 46.3398 61.6667Z" fill="white"/>
</g>
<g style="mix-blend-mode:screen" opacity="0.6">
<path d="M41.6667 66.3398C40.6 67.9359 39.4444 68.7783 39 69C39.4444 69.2217 40.6 70.0641 41.6667 71.6602C43 73.6553 45.1386 73.225 45.5352 71.6602C45.8524 70.4083 44.8661 69.3651 44.3333 69C45.2222 69 47 69.266 47 70.3301L47 67.6699C47 68.734 45.2222 69 44.3333 69C44.8661 68.6349 45.8524 67.5917 45.5352 66.3398C45.1386 64.775 43 64.3447 41.6667 66.3398Z" fill="white"/>
</g>
</g>
</g>
<path fill-rule="evenodd" clip-rule="evenodd" d="M29 23C35.6274 23 41 28.3726 41 35V47H29C22.3726 47 17 41.6274 17 35C17 28.3726 22.3726 23 29 23ZM29 40C31.7614 40 34 37.7614 34 35C34 32.2386 31.7614 30 29 30C26.2386 30 24 32.2386 24 35C24 37.7614 26.2386 40 29 40Z" fill="url(#paint3_linear_1584_28438)"/>
<path opacity="0.5" fill-rule="evenodd" clip-rule="evenodd" d="M29 26C33.9706 26 38 30.0294 38 35V44H29C24.0294 44 20 39.9706 20 35C20 30.0294 24.0294 26 29 26ZM29 40C31.7614 40 34 37.7614 34 35C34 32.2386 31.7614 30 29 30C26.2386 30 24 32.2386 24 35C24 37.7614 26.2386 40 29 40Z" fill="white"/>
</g>
<defs>
<filter id="filter0_d_1584_28438" x="0.5" y="0.5" width="57" height="75" filterUnits="userSpaceOnUse" color-interpolation-filters="sRGB">
<feFlood flood-opacity="0" result="BackgroundImageFix"/>
<feColorMatrix in="SourceAlpha" type="matrix" values="0 0 0 0 0 0 0 0 0 0 0 0 0 0 0 0 0 0 127 0" result="hardAlpha"/>
<feOffset dy="3"/>
<feGaussianBlur stdDeviation="3.75"/>
<feComposite in2="hardAlpha" operator="out"/>
<feColorMatrix type="matrix" values="0 0 0 0 0 0 0 0 0 0 0 0 0 0 0 0 0 0 0.3 0"/>
<feBlend mode="normal" in2="BackgroundImageFix" result="effect1_dropShadow_1584_28438"/>
<feBlend mode="normal" in="SourceGraphic" in2="effect1_dropShadow_1584_28438" result="shape"/>
</filter>
<linearGradient id="paint0_linear_1584_28438" x1="8" y1="5" x2="56.3913" y2="13.2812" gradientUnits="userSpaceOnUse">
<stop stop-color="#0ABDBD"/>
<stop offset="1" stop-color="#248080"/>
</linearGradient>
<linearGradient id="paint1_linear_1584_28438" x1="8" y1="5" x2="56.3913" y2="13.2812" gradientUnits="userSpaceOnUse">
<stop stop-color="#0ABDBD"/>
<stop offset="1" stop-color="#248080"/>
</linearGradient>
<linearGradient id="paint2_linear_1584_28438" x1="8" y1="5" x2="56.3913" y2="13.2812" gradientUnits="userSpaceOnUse">
<stop stop-color="#0ABDBD"/>
<stop offset="1" stop-color="#248080"/>
</linearGradient>
<linearGradient id="paint3_linear_1584_28438" x1="17" y1="23" x2="43.8568" y2="29.5657" gradientUnits="userSpaceOnUse">
<stop stop-color="#0ABDBD"/>
<stop offset="1" stop-color="#248080"/>
</linearGradient>
<clipPath id="clip0_1584_28438">
<rect x="8" y="5" width="42" height="60" rx="6" fill="white"/>
</clipPath>
</defs>
</svg>
