<svg width="24" height="24" viewBox="0 0 24 24" fill="none" xmlns="http://www.w3.org/2000/svg">
<mask id="path-1-inside-1_10_38815" fill="white">
<path d="M12.75 7.5V11.567L16.2721 13.6005C16.3574 13.6497 16.4322 13.7153 16.4921 13.7934C16.5521 13.8716 16.5961 13.9607 16.6216 14.0559C16.647 14.151 16.6536 14.2502 16.6407 14.3479C16.6278 14.4455 16.5959 14.5397 16.5466 14.625C16.4974 14.7103 16.4318 14.7851 16.3537 14.845C16.2755 14.905 16.1864 14.949 16.0912 14.9744C15.9961 14.9999 15.8969 15.0064 15.7992 14.9936C15.7016 14.9807 15.6074 14.9488 15.5221 14.8995L11.625 12.6495C11.619 12.6461 11.6136 12.642 11.6078 12.6384C11.595 12.6305 11.5824 12.6226 11.5702 12.6141C11.5605 12.6073 11.5512 12.6001 11.5419 12.593C11.5324 12.5856 11.5229 12.5782 11.5137 12.5704C11.5032 12.5615 11.4933 12.5522 11.4834 12.5429C11.476 12.5358 11.4687 12.5287 11.4615 12.5214C11.4515 12.511 11.442 12.5004 11.4326 12.4896C11.4261 12.4821 11.4197 12.4745 11.4135 12.4667C11.4049 12.4559 11.3967 12.4448 11.3887 12.4336C11.3824 12.4247 11.3762 12.4158 11.3703 12.4066C11.3636 12.3961 11.3571 12.3855 11.3509 12.3747C11.3447 12.3639 11.3387 12.3531 11.3331 12.3421C11.3281 12.3323 11.3234 12.3224 11.3188 12.3125C11.3131 12.3 11.3077 12.2875 11.3026 12.2747C11.2989 12.2653 11.2955 12.2558 11.2922 12.2463C11.2876 12.233 11.2832 12.2195 11.2793 12.2058C11.2764 12.1958 11.274 12.1857 11.2715 12.1756C11.2684 12.1625 11.2654 12.1495 11.2629 12.1362C11.2607 12.1241 11.2591 12.112 11.2574 12.0999C11.2558 12.0884 11.2543 12.077 11.2533 12.0654C11.252 12.0503 11.2515 12.0353 11.251 12.0202C11.2508 12.0134 11.25 12.0068 11.25 12V7.5C11.25 7.30109 11.329 7.11032 11.4697 6.96967C11.6103 6.82902 11.8011 6.75 12 6.75C12.1989 6.75 12.3897 6.82902 12.5303 6.96967C12.671 7.11032 12.75 7.30109 12.75 7.5ZM18.3639 5.63603C16.6748 3.95069 14.3861 3.00419 12 3.00419C9.61384 3.00419 7.32515 3.95069 5.63602 5.63603L4.85933 6.4127L3.51469 5.06804C3.40981 4.96315 3.27617 4.89171 3.13069 4.86277C2.9852 4.83383 2.8344 4.84868 2.69735 4.90545C2.56031 4.96221 2.44318 5.05834 2.36077 5.18168C2.27836 5.30502 2.23437 5.45002 2.23438 5.59836V9.34836C2.23437 9.44685 2.25377 9.54438 2.29146 9.63537C2.32915 9.72637 2.38439 9.80905 2.45404 9.87869C2.52368 9.94834 2.60636 10.0036 2.69736 10.0413C2.78835 10.079 2.88588 10.0984 2.98438 10.0984H6.73438C6.88271 10.0984 7.02772 10.0544 7.15106 9.97197C7.27439 9.88956 7.37052 9.77242 7.42729 9.63538C7.48406 9.49833 7.49891 9.34753 7.46996 9.20205C7.44102 9.05656 7.36959 8.92292 7.26469 8.81804L5.92002 7.47335L6.6967 6.69667C7.7456 5.64777 9.08198 4.93346 10.5368 4.64407C11.9917 4.35467 13.4997 4.5032 14.8702 5.07086C16.2406 5.63851 17.412 6.59981 18.2361 7.83318C19.0602 9.06656 19.5001 10.5166 19.5001 12C19.5001 13.4833 19.0602 14.9334 18.2361 16.1668C17.412 17.4001 16.2406 18.3614 14.8702 18.9291C13.4997 19.4968 11.9917 19.6453 10.5368 19.3559C9.08198 19.0665 7.7456 18.3522 6.6967 17.3033C6.55604 17.1626 6.36527 17.0836 6.16635 17.0836C5.96742 17.0836 5.77665 17.1626 5.63599 17.3033C5.49534 17.444 5.41632 17.6347 5.41633 17.8337C5.41633 18.0326 5.49535 18.2234 5.63602 18.364C7.32385 20.0518 9.61304 21 12 21C14.3869 21 16.6761 20.0518 18.364 18.364C20.0518 16.6761 21 14.3869 21 12C21 9.61304 20.0517 7.32386 18.3639 5.63603Z"/>
</mask>
<path d="M12.75 11.567H11.25V12.433L12 12.866L12.75 11.567ZM16.2721 13.6005L15.5221 14.8995H15.5221L16.2721 13.6005ZM15.5221 14.8995L16.2721 13.6005H16.2721L15.5221 14.8995ZM11.625 12.6495L12.375 11.3505L12.3745 11.3502L11.625 12.6495ZM11.6078 12.6384L10.8211 13.9155L10.8227 13.9165L11.6078 12.6384ZM11.5702 12.6141L12.4329 11.387L12.4292 11.3844L11.5702 12.6141ZM11.5419 12.593L10.6252 13.7802L10.6261 13.7809L11.5419 12.593ZM11.5137 12.5704L12.4886 11.4303L12.4836 11.4261L11.5137 12.5704ZM11.4834 12.5429L10.4491 13.6291L10.4493 13.6294L11.4834 12.5429ZM11.4615 12.5214L12.538 11.4767L12.5378 11.4766L11.4615 12.5214ZM11.4326 12.4896L12.5685 11.5099L12.5678 11.509L11.4326 12.4896ZM11.4135 12.4667L10.2388 13.3996L10.2426 13.4043L11.4135 12.4667ZM11.3887 12.4336L12.613 11.5668L12.6111 11.5642L11.3887 12.4336ZM11.3703 12.4066L12.6311 11.5939L12.6306 11.5931L11.3703 12.4066ZM11.3509 12.3747L10.0513 13.1237L10.0515 13.124L11.3509 12.3747ZM11.3331 12.3421L9.99727 13.0245L9.9987 13.0272L11.3331 12.3421ZM11.3188 12.3125L12.6841 11.6912L12.682 11.6866L11.3188 12.3125ZM11.3026 12.2747L9.90568 12.8212L9.90822 12.8276L11.3026 12.2747ZM11.2922 12.2463L12.7093 11.7545L12.7083 11.7515L11.2922 12.2463ZM11.2793 12.2058L9.83606 12.6146L9.83636 12.6157L11.2793 12.2058ZM11.2715 12.1756L9.81236 12.5234L9.81426 12.5312L11.2715 12.1756ZM11.2629 12.1362L12.7387 11.8673L12.7376 11.8615L11.2629 12.1362ZM11.2574 12.0999L12.7438 11.8982L12.7438 11.898L11.2574 12.0999ZM11.2533 12.0654L12.7477 11.9359L12.7475 11.9332L11.2533 12.0654ZM11.251 12.0202L9.75156 12.0615L9.75169 12.0657L11.251 12.0202ZM5.63602 5.63603L4.57655 4.57418L4.57537 4.57536L5.63602 5.63603ZM4.85933 6.4127L3.79866 7.47335L4.8593 8.53401L5.91997 7.47337L4.85933 6.4127ZM3.51469 5.06804L2.454 6.12867L2.45402 6.12869L3.51469 5.06804ZM2.23438 5.59836H3.73438V5.59832L2.23438 5.59836ZM2.23438 9.34836L3.73438 9.3484V9.34836H2.23438ZM2.98438 10.0984V8.59836H2.98433L2.98438 10.0984ZM6.73438 10.0984L6.73442 8.59836H6.73438V10.0984ZM7.26469 8.81804L6.20403 9.8787L6.20407 9.87874L7.26469 8.81804ZM5.92002 7.47335L4.85936 6.41269L3.79869 7.47334L4.85935 8.53401L5.92002 7.47335ZM6.6967 6.69667L7.75736 7.75733L7.75737 7.75733L6.6967 6.69667ZM19.5001 12H18.0001H19.5001ZM6.6967 17.3033L7.75737 16.2426L7.75734 16.2426L6.6967 17.3033ZM5.63602 18.364L6.69667 17.3033L6.69665 17.3033L5.63602 18.364ZM11.25 7.5V11.567H14.25V7.5H11.25ZM12 12.866L15.5221 14.8995L17.0221 12.3014L13.5 10.2679L12 12.866ZM15.5221 14.8995C15.4368 14.8503 15.3621 14.7847 15.3021 14.7066L17.6822 12.8803C17.5023 12.6459 17.278 12.4492 17.0221 12.3014L15.5221 14.8995ZM15.3021 14.7066C15.2421 14.6284 15.1982 14.5392 15.1727 14.4441L18.0704 13.6677C17.994 13.3823 17.862 13.1147 17.6822 12.8803L15.3021 14.7066ZM15.1727 14.4441C15.1472 14.349 15.1407 14.2498 15.1535 14.1521L18.1279 14.5437C18.1664 14.2507 18.1469 13.9531 18.0704 13.6677L15.1727 14.4441ZM15.1535 14.1521C15.1664 14.0545 15.1983 13.9603 15.2476 13.875L17.8457 15.375C17.9934 15.1191 18.0893 14.8366 18.1279 14.5437L15.1535 14.1521ZM15.2476 13.875C15.2968 13.7897 15.3624 13.7149 15.4405 13.655L17.2668 16.035C17.5012 15.8552 17.6979 15.6309 17.8457 15.375L15.2476 13.875ZM15.4405 13.655C15.5187 13.595 15.6079 13.551 15.703 13.5256L16.4795 16.4233C16.7649 16.3469 17.0324 16.2149 17.2668 16.035L15.4405 13.655ZM15.703 13.5256C15.7981 13.5001 15.8973 13.4936 15.995 13.5064L15.6034 16.4808C15.8964 16.5193 16.1941 16.4998 16.4795 16.4233L15.703 13.5256ZM15.995 13.5064C16.0927 13.5193 16.1868 13.5512 16.2721 13.6005L14.7721 16.1986C15.028 16.3463 15.3105 16.4422 15.6034 16.4808L15.995 13.5064ZM16.2721 13.6005L12.375 11.3505L10.875 13.9486L14.7721 16.1986L16.2721 13.6005ZM12.3745 11.3502C12.3998 11.3648 12.4199 11.3774 12.4331 11.3859C12.4398 11.3902 12.4452 11.3938 12.4488 11.3962C12.4524 11.3986 12.455 11.4004 12.4556 11.4008C12.4559 11.401 12.4561 11.4011 12.4556 11.4008C12.4554 11.4006 12.4544 11.4 12.4534 11.3993C12.4514 11.3979 12.4473 11.3952 12.4423 11.3918C12.4324 11.3852 12.4149 11.3738 12.3929 11.3602L10.8227 13.9165C10.8036 13.9048 10.789 13.8952 10.7819 13.8905C10.7783 13.8881 10.7756 13.8863 10.775 13.8858C10.7747 13.8856 10.7745 13.8855 10.7749 13.8858C10.7752 13.8859 10.7761 13.8866 10.7771 13.8872C10.7804 13.8895 10.7927 13.8978 10.8081 13.9077C10.8241 13.9181 10.8472 13.9325 10.8754 13.9488L12.3745 11.3502ZM12.3945 11.3612C12.389 11.3579 12.3921 11.3597 12.3976 11.3632C12.4036 11.3671 12.4164 11.3754 12.4329 11.387L10.7075 13.8412C10.7611 13.8789 10.8092 13.9082 10.8211 13.9155L12.3945 11.3612ZM12.4292 11.3844C12.4444 11.3951 12.4555 11.4033 12.4598 11.4066C12.462 11.4083 12.4633 11.4093 12.4628 11.4089C12.4618 11.4081 12.4615 11.4079 12.4578 11.405L10.6261 13.7809C10.6266 13.7813 10.6664 13.8125 10.7111 13.8437L12.4292 11.3844ZM12.4587 11.4057C12.454 11.4021 12.4565 11.404 12.4607 11.4073C12.4654 11.411 12.4755 11.4191 12.4885 11.4303L10.5389 13.7104C10.5802 13.7457 10.6176 13.7743 10.6252 13.7802L12.4587 11.4057ZM12.4836 11.4261C12.4958 11.4364 12.505 11.4447 12.5105 11.4497C12.5158 11.4546 12.5188 11.4575 12.5175 11.4563L10.4493 13.6294C10.4654 13.6447 10.5 13.6775 10.5438 13.7146L12.4836 11.4261ZM12.5178 11.4566C12.5147 11.4536 12.5162 11.455 12.5191 11.4578C12.5223 11.461 12.5291 11.4676 12.538 11.4767L10.3851 13.566C10.4151 13.5969 10.4419 13.6223 10.4491 13.6291L12.5178 11.4566ZM12.5378 11.4766C12.5549 11.4942 12.566 11.507 12.5685 11.5099L10.2968 13.4693C10.3179 13.4938 10.3481 13.5279 10.3852 13.5661L12.5378 11.4766ZM12.5678 11.509C12.5672 11.5084 12.5688 11.5102 12.5715 11.5134C12.5742 11.5167 12.5787 11.5221 12.5844 11.5292L10.2426 13.4043C10.2658 13.4333 10.2861 13.4569 10.2975 13.4701L12.5678 11.509ZM12.5882 11.5339C12.6001 11.5489 12.6085 11.5606 12.613 11.5668L10.1645 13.3003C10.1849 13.3291 10.2097 13.3629 10.2388 13.3996L12.5882 11.5339ZM12.6111 11.5642C12.6123 11.5659 12.6202 11.577 12.6311 11.5939L10.1096 13.2193C10.1323 13.2545 10.1526 13.2836 10.1664 13.303L12.6111 11.5642ZM12.6306 11.5931C12.6405 11.6085 12.6473 11.6201 12.6503 11.6253L10.0515 13.124C10.067 13.1508 10.0866 13.1837 10.1101 13.2201L12.6306 11.5931ZM12.6505 11.6257C12.6526 11.6293 12.659 11.6405 12.6674 11.6569L9.9987 13.0272C10.0185 13.0657 10.0369 13.0986 10.0513 13.1237L12.6505 11.6257ZM12.6689 11.6597C12.6758 11.6733 12.6809 11.6841 12.6841 11.6912L9.95356 12.9338C9.96583 12.9607 9.98035 12.9913 9.99728 13.0245L12.6689 11.6597ZM12.682 11.6866C12.6849 11.693 12.6904 11.7051 12.6969 11.7217L9.90822 12.8276C9.92496 12.8698 9.94129 12.9071 9.95563 12.9383L12.682 11.6866ZM12.6995 11.7281C12.7028 11.7367 12.7053 11.7434 12.7069 11.7477C12.7077 11.7499 12.7083 11.7516 12.7087 11.7528C12.7091 11.7539 12.7093 11.7545 12.7093 11.7545L9.87515 12.7381C9.88147 12.7563 9.892 12.7862 9.90569 12.8212L12.6995 11.7281ZM12.7083 11.7515C12.7101 11.7566 12.7156 11.7728 12.7222 11.796L9.83636 12.6157C9.85074 12.6663 9.86509 12.7093 9.8762 12.7411L12.7083 11.7515ZM12.7225 11.7971C12.7259 11.8089 12.7281 11.8177 12.729 11.8212C12.7295 11.8231 12.7297 11.8241 12.7297 11.8238C12.7296 11.8234 12.7294 11.8226 12.7287 11.82L9.81426 12.5312C9.81595 12.5381 9.82459 12.5741 9.83606 12.6146L12.7225 11.7971ZM12.7306 11.8278C12.7297 11.824 12.7305 11.8271 12.7318 11.833C12.7332 11.8394 12.7358 11.8514 12.7386 11.8673L9.78724 12.405C9.79738 12.4607 9.80846 12.5069 9.81238 12.5234L12.7306 11.8278ZM12.7376 11.8615C12.7408 11.879 12.7428 11.892 12.7437 11.8977C12.7439 11.8993 12.7441 11.9004 12.7442 11.9012C12.7443 11.902 12.7444 11.9024 12.7444 11.9025C12.7444 11.9025 12.7443 11.9022 12.7442 11.9014C12.7441 11.9007 12.744 11.8997 12.7438 11.8982L9.77102 12.3015C9.77193 12.3082 9.77821 12.3566 9.78831 12.4108L12.7376 11.8615ZM12.7438 11.898C12.7435 11.8964 12.7434 11.8955 12.7433 11.8947C12.7432 11.8939 12.7432 11.8937 12.7432 11.8937C12.7432 11.8937 12.7432 11.8942 12.7434 11.895C12.7435 11.8958 12.7436 11.8971 12.7438 11.8987C12.7445 11.9046 12.7461 11.918 12.7477 11.9359L9.75888 12.1948C9.76357 12.2489 9.77037 12.2967 9.77104 12.3017L12.7438 11.898ZM12.7475 11.9332C12.7492 11.9525 12.7499 11.9669 12.7502 11.9733C12.7505 11.9789 12.7505 11.982 12.7503 11.9747L9.75169 12.0657C9.75206 12.0781 9.75347 12.1336 9.75911 12.1975L12.7475 11.9332ZM12.7504 11.9788C12.7497 11.954 12.7486 11.934 12.7479 11.9227C12.7476 11.917 12.7472 11.9123 12.7471 11.91C12.747 11.9088 12.7469 11.9078 12.7469 11.9075C12.7469 11.907 12.7469 11.9072 12.7469 11.9076C12.747 11.9083 12.7472 11.9114 12.7474 11.9155C12.7477 11.9198 12.7481 11.9261 12.7484 11.9337C12.7491 11.9488 12.75 11.9718 12.75 12H9.74998C9.74998 12.0316 9.75093 12.058 9.75182 12.0765C9.75266 12.0942 9.75365 12.1085 9.75393 12.1126C9.75401 12.1138 9.75408 12.1149 9.75411 12.1152C9.75415 12.1158 9.75413 12.1156 9.75411 12.1153C9.75407 12.1146 9.75386 12.1116 9.75361 12.1076C9.75312 12.0996 9.75216 12.083 9.75157 12.0615L12.7504 11.9788ZM12.75 12V7.5H9.74998V12H12.75ZM12.75 7.5C12.75 7.69891 12.671 7.88968 12.5303 8.03033L10.409 5.90901C9.98704 6.33097 9.74998 6.90326 9.74998 7.5H12.75ZM12.5303 8.03033C12.3897 8.17098 12.1989 8.25 12 8.25V5.25C11.4032 5.25 10.831 5.48705 10.409 5.90901L12.5303 8.03033ZM12 8.25C11.8011 8.25 11.6103 8.17098 11.4697 8.03033L13.591 5.90901C13.169 5.48705 12.5967 5.25 12 5.25V8.25ZM11.4697 8.03033C11.329 7.88968 11.25 7.69891 11.25 7.5H14.25C14.25 6.90327 14.0129 6.33097 13.591 5.90901L11.4697 8.03033ZM19.4234 4.57418C17.453 2.60826 14.7833 1.50419 12 1.50419V4.50419C13.9888 4.50419 15.8965 5.29311 17.3044 6.69788L19.4234 4.57418ZM12 1.50419C9.2166 1.50419 6.54689 2.60826 4.57655 4.57418L6.69548 6.69788C8.10341 5.29311 10.0111 4.50419 12 4.50419V1.50419ZM4.57537 4.57536L3.79868 5.35202L5.91997 7.47337L6.69666 6.69671L4.57537 4.57536ZM5.92 5.35204L4.57536 4.00739L2.45402 6.12869L3.79866 7.47335L5.92 5.35204ZM4.57539 4.00742C4.26073 3.69273 3.85981 3.47843 3.42335 3.3916L2.83802 6.33394C2.69253 6.305 2.55889 6.23356 2.454 6.12867L4.57539 4.00742ZM3.42335 3.3916C2.98689 3.30477 2.53448 3.34933 2.12334 3.51962L3.27137 6.29127C3.13432 6.34804 2.98351 6.36289 2.83802 6.33394L3.42335 3.3916ZM2.12334 3.51962C1.71219 3.68992 1.36079 3.97832 1.11355 4.34833L3.60798 6.01502C3.52556 6.13837 3.40843 6.2345 3.27137 6.29127L2.12334 3.51962ZM1.11355 4.34833C0.86632 4.71835 0.734364 5.15338 0.734375 5.59839L3.73438 5.59832C3.73438 5.74667 3.69039 5.89168 3.60798 6.01502L1.11355 4.34833ZM0.734375 5.59836V9.34836H3.73438V5.59836H0.734375ZM0.734375 9.34832C0.734367 9.6438 0.79256 9.93639 0.905632 10.2094L3.67729 9.06137C3.71498 9.15237 3.73438 9.2499 3.73438 9.3484L0.734375 9.34832ZM0.905632 10.2094C1.0187 10.4824 1.18444 10.7304 1.39338 10.9394L3.5147 8.81803C3.58435 8.88768 3.6396 8.97037 3.67729 9.06137L0.905632 10.2094ZM1.39338 10.9394C1.60232 11.1483 1.85036 11.314 2.12335 11.4271L3.27136 8.65545C3.36237 8.69314 3.44505 8.74839 3.5147 8.81803L1.39338 10.9394ZM2.12335 11.4271C2.39635 11.5402 2.68894 11.5984 2.98442 11.5984L2.98433 8.59836C3.08283 8.59836 3.18036 8.61775 3.27136 8.65545L2.12335 11.4271ZM2.98438 11.5984H6.73438V8.59836H2.98438V11.5984ZM6.73433 11.5984C7.17935 11.5984 7.61438 11.4664 7.9844 11.2192L6.31772 8.72475C6.44106 8.64234 6.58607 8.59835 6.73442 8.59836L6.73433 11.5984ZM7.9844 11.2192C8.35442 10.9719 8.64281 10.6205 8.81311 10.2094L6.04147 9.06136C6.09824 8.92431 6.19437 8.80717 6.31772 8.72475L7.9844 11.2192ZM8.81311 10.2094C8.98341 9.79826 9.02796 9.34585 8.94114 8.90938L5.99879 9.49471C5.96985 9.34922 5.9847 9.19841 6.04147 9.06136L8.81311 10.2094ZM8.94114 8.90938C8.85431 8.47291 8.64 8.072 8.32531 7.75734L6.20407 9.87874C6.09918 9.77385 6.02774 9.64021 5.99879 9.49471L8.94114 8.90938ZM8.32536 7.75738L6.98068 6.4127L4.85935 8.53401L6.20403 9.8787L8.32536 7.75738ZM6.98067 8.53402L7.75736 7.75733L5.63605 5.63601L4.85936 6.41269L6.98067 8.53402ZM7.75737 7.75733C8.59648 6.91821 9.66559 6.34676 10.8295 6.11524L10.2442 3.17289C8.49837 3.52016 6.89472 4.37733 5.63604 5.63601L7.75737 7.75733ZM10.8295 6.11524C11.9934 5.88373 13.1998 6.00255 14.2961 6.45668L15.4442 3.68504C13.7996 3.00385 11.99 2.82562 10.2442 3.17289L10.8295 6.11524ZM14.2961 6.45668C15.3925 6.9108 16.3296 7.67984 16.9889 8.66654L19.4833 6.99983C18.4943 5.51978 17.0887 4.36623 15.4442 3.68504L14.2961 6.45668ZM16.9889 8.66654C17.6482 9.65324 18.0001 10.8133 18.0001 12H21.0001C21.0001 10.2199 20.4722 8.47988 19.4833 6.99983L16.9889 8.66654ZM18.0001 12C18.0001 13.1867 17.6482 14.3467 16.9889 15.3334L19.4833 17.0001C20.4722 15.5201 21.0001 13.78 21.0001 12H18.0001ZM16.9889 15.3334C16.3296 16.3201 15.3925 17.0892 14.2961 17.5433L15.4442 20.3149C17.0887 19.6337 18.4943 18.4802 19.4833 17.0001L16.9889 15.3334ZM14.2961 17.5433C13.1998 17.9974 11.9934 18.1162 10.8295 17.8847L10.2442 20.8271C11.99 21.1743 13.7996 20.9961 15.4442 20.3149L14.2961 17.5433ZM10.8295 17.8847C9.66559 17.6532 8.59648 17.0817 7.75737 16.2426L5.63604 18.3639C6.89472 19.6226 8.49837 20.4798 10.2442 20.8271L10.8295 17.8847ZM7.75734 16.2426C7.33537 15.8206 6.76306 15.5836 6.16632 15.5836L6.16637 18.5836C5.96747 18.5836 5.77671 18.5046 5.63606 18.364L7.75734 16.2426ZM6.16632 15.5836C5.56957 15.5836 4.99727 15.8207 4.57531 16.2427L6.69668 18.3639C6.55603 18.5046 6.36528 18.5836 6.16637 18.5836L6.16632 15.5836ZM4.57531 16.2427C4.15336 16.6646 3.91631 17.2369 3.91633 17.8337L6.91633 17.8336C6.91633 18.0325 6.83732 18.2233 6.69668 18.3639L4.57531 16.2427ZM3.91633 17.8337C3.91634 18.4304 4.1534 19.0027 4.57538 19.4247L6.69665 17.3033C6.8373 17.444 6.91632 17.6347 6.91633 17.8336L3.91633 17.8337ZM4.57536 19.4247C6.5445 21.3938 9.21522 22.5 12 22.5L12 19.5C10.0109 19.5 8.1032 18.7099 6.69667 17.3033L4.57536 19.4247ZM12 22.5C14.7848 22.5 17.4555 21.3938 19.4246 19.4246L17.3033 17.3033C15.8968 18.7098 13.9891 19.5 12 19.5L12 22.5ZM19.4246 19.4246C21.3937 17.4555 22.5 14.7848 22.5 12L19.5 12C19.5 13.9891 18.7098 15.8968 17.3033 17.3033L19.4246 19.4246ZM22.5 12C22.5 9.21521 21.3937 6.5445 19.4246 4.57537L17.3033 6.6967C18.7098 8.10322 19.5 10.0109 19.5 12L22.5 12Z" fill="#2F363D" mask="url(#path-1-inside-1_10_38815)"/>
</svg>
