<svg width="72" height="72" viewBox="0 0 72 72" fill="none" xmlns="http://www.w3.org/2000/svg">
<rect width="72" height="72" rx="36" fill="#D1D5DA"/>
<path d="M31 31H41" stroke="white" stroke-width="2" stroke-linecap="round" stroke-linejoin="round"/>
<path d="M31 36H41" stroke="white" stroke-width="2" stroke-linecap="round" stroke-linejoin="round"/>
<path d="M31 41H36" stroke="white" stroke-width="2" stroke-linecap="round" stroke-linejoin="round"/>
<path d="M40.4822 49.75H23.5C23.1685 49.75 22.8505 49.6183 22.6161 49.3839C22.3817 49.1495 22.25 48.8315 22.25 48.5V23.5C22.25 23.1685 22.3817 22.8505 22.6161 22.6161C22.8505 22.3817 23.1685 22.25 23.5 22.25H48.5C48.8315 22.25 49.1495 22.3817 49.3839 22.6161C49.6183 22.8505 49.75 23.1685 49.75 23.5V40.4822C49.75 40.6464 49.7177 40.8089 49.6548 40.9606C49.592 41.1122 49.5 41.25 49.3839 41.3661L41.3661 49.3839C41.25 49.5 41.1122 49.592 40.9606 49.6548C40.8089 49.7177 40.6464 49.75 40.4822 49.75V49.75Z" stroke="white" stroke-width="2" stroke-linecap="round" stroke-linejoin="round"/>
<path d="M49.6369 40.9987H41V49.6362" stroke="white" stroke-width="2" stroke-linecap="round" stroke-linejoin="round"/>
</svg>
