<svg width="112" height="113" viewBox="0 0 112 113" fill="none" xmlns="http://www.w3.org/2000/svg">
<rect y="0.5" width="112" height="112" rx="56" fill="#D1D5DA"/>
<path d="M56 80.5C69.2548 80.5 80 69.7548 80 56.5C80 43.2452 69.2548 32.5 56 32.5C42.7452 32.5 32 43.2452 32 56.5C32 69.7548 42.7452 80.5 56 80.5Z" stroke="white" stroke-width="4" stroke-miterlimit="10"/>
<path d="M48 51.5C48 52.0523 47.5523 52.5 47 52.5C46.4477 52.5 46 52.0523 46 51.5C46 50.9477 46.4477 50.5 47 50.5C47.5523 50.5 48 50.9477 48 51.5Z" fill="white" stroke="white" stroke-width="4"/>
<path d="M65 54.5C66.6569 54.5 68 53.1569 68 51.5C68 49.8431 66.6569 48.5 65 48.5C63.3431 48.5 62 49.8431 62 51.5C62 53.1569 63.3431 54.5 65 54.5Z" fill="white"/>
<path d="M47 54.5C48.6569 54.5 50 53.1569 50 51.5C50 49.8431 48.6569 48.5 47 48.5C45.3431 48.5 44 49.8431 44 51.5C44 53.1569 45.3431 54.5 47 54.5Z" fill="white"/>
<path d="M65 54.5C66.6569 54.5 68 53.1569 68 51.5C68 49.8431 66.6569 48.5 65 48.5C63.3431 48.5 62 49.8431 62 51.5C62 53.1569 63.3431 54.5 65 54.5Z" fill="white"/>
<path d="M66.395 68.5C65.3413 66.6755 63.8261 65.1605 62.0014 64.1072C60.1767 63.0539 58.107 62.4993 56.0001 62.4993C53.8932 62.4993 51.8235 63.0538 49.9988 64.1071C48.1741 65.1604 46.6588 66.6754 45.6051 68.4999" stroke="white" stroke-width="4" stroke-linecap="round" stroke-linejoin="round"/>
</svg>
