<svg width="20" height="15" viewBox="0 0 20 15" fill="none" xmlns="http://www.w3.org/2000/svg">
<path d="M18.6508 3.74493C18.472 3.59566 18.2548 3.49966 18.0241 3.46789C17.7933 3.43613 17.5583 3.46986 17.3458 3.56526L13.3939 5.3217L11.0929 1.17993C10.9847 0.985049 10.8263 0.822664 10.6342 0.709605C10.4421 0.596545 10.2232 0.536926 10.0003 0.536926C9.77734 0.536926 9.55847 0.596545 9.36634 0.709605C9.17422 0.822664 9.01582 0.985049 8.90758 1.17993L6.60655 5.32162L2.65407 3.56496C2.44141 3.47047 2.20659 3.43722 1.97606 3.46895C1.74553 3.50068 1.52843 3.59613 1.3492 3.74456C1.16998 3.89299 1.03574 4.0885 0.961611 4.30908C0.887478 4.52966 0.87639 4.76656 0.929596 4.9931L2.91751 13.4566C2.95533 13.6205 3.02616 13.7749 3.12568 13.9104C3.22519 14.046 3.35129 14.1599 3.49628 14.245C3.64202 14.3308 3.80352 14.3865 3.97119 14.4086C4.13886 14.4308 4.30927 14.419 4.47231 14.3741C8.0887 13.3757 11.908 13.3753 15.5246 14.373C15.6875 14.4179 15.8578 14.4297 16.0254 14.4075C16.193 14.3853 16.3544 14.3297 16.5001 14.244C16.645 14.1589 16.7711 14.0451 16.8706 13.9097C16.9701 13.7742 17.041 13.6199 17.0789 13.4562L19.0702 4.99379C19.1244 4.76724 19.1138 4.53002 19.0397 4.30921C18.9655 4.08839 18.8308 3.89286 18.6508 3.74493ZM13.1218 10.6965C13.1133 10.7782 13.0888 10.8574 13.0497 10.9296C13.0106 11.0017 12.9576 11.0655 12.8937 11.1172C12.8299 11.1688 12.7566 11.2074 12.6778 11.2306C12.5991 11.2539 12.5165 11.2614 12.4349 11.2527C10.8162 11.0827 9.18427 11.0827 7.56564 11.2527C7.4011 11.2694 7.23664 11.2203 7.10829 11.116C6.97993 11.0117 6.89814 10.8608 6.88084 10.6963C6.86354 10.5318 6.91214 10.3672 7.01598 10.2385C7.11983 10.1098 7.27046 10.0275 7.43487 10.0096C9.14044 9.83044 10.8601 9.83044 12.5656 10.0096C12.6473 10.0182 12.7264 10.0427 12.7985 10.0819C12.8707 10.1211 12.9344 10.1741 12.986 10.2378C13.0377 10.3016 13.0762 10.375 13.0995 10.4537C13.1229 10.5324 13.1304 10.6149 13.1218 10.6965Z" fill="url(#paint0_linear_7975_11920)"/>
<defs>
<linearGradient id="paint0_linear_7975_11920" x1="0.896484" y1="0.536926" x2="14.2837" y2="18.095" gradientUnits="userSpaceOnUse">
<stop stop-color="#FF9B55"/>
<stop offset="1" stop-color="#DA4F23"/>
</linearGradient>
</defs>
</svg>
