<svg width="18" height="16" viewBox="0 0 18 16" fill="none" xmlns="http://www.w3.org/2000/svg">
<path d="M15.875 4.12503H13.1432C13.5499 3.62876 13.7503 2.99508 13.7028 2.35518C13.6553 1.71527 13.3636 1.11813 12.888 0.687364C12.4124 0.256599 11.7894 0.0251955 11.1479 0.0410543C10.5064 0.0569131 9.89561 0.31882 9.44189 0.772559C9.26094 0.961146 9.11171 1.17779 9 1.41408C8.88825 1.17778 8.739 0.961132 8.55803 0.772521C8.10431 0.318791 7.49349 0.0568954 6.85202 0.0410467C6.21055 0.025198 5.58755 0.25661 5.11197 0.68738C4.6364 1.11815 4.34467 1.71529 4.29717 2.3552C4.24968 2.9951 4.45005 3.62877 4.85682 4.12503H2.125C1.79359 4.12541 1.47587 4.25722 1.24153 4.49156C1.00719 4.7259 0.875376 5.04362 0.875 5.37503V7.87503C0.875376 8.20644 1.00719 8.52416 1.24153 8.7585C1.47587 8.99284 1.79359 9.12465 2.125 9.12503V14.125C2.12538 14.4564 2.2572 14.7742 2.49154 15.0085C2.72587 15.2428 3.0436 15.3747 3.375 15.375H14.625C14.9564 15.3747 15.2741 15.2428 15.5085 15.0085C15.7428 14.7742 15.8746 14.4564 15.875 14.125V9.12503C16.2064 9.12465 16.5241 8.99284 16.7585 8.7585C16.9928 8.52416 17.1246 8.20644 17.125 7.87503V5.37503C17.1246 5.04362 16.9928 4.7259 16.7585 4.49156C16.5241 4.25722 16.2064 4.12541 15.875 4.12503ZM10.3258 1.65644C10.4418 1.54032 10.5796 1.4482 10.7313 1.38534C10.883 1.32248 11.0455 1.29012 11.2097 1.29009C11.3739 1.29007 11.5365 1.32239 11.6882 1.38521C11.8398 1.44803 11.9777 1.54011 12.0938 1.65621C12.2099 1.7723 12.3019 1.91012 12.3648 2.06181C12.4276 2.21349 12.4599 2.37607 12.4599 2.54025C12.4599 2.70443 12.4275 2.867 12.3647 3.01867C12.3018 3.17034 12.2097 3.30815 12.0936 3.42421C11.7076 3.81024 10.5916 4.02701 9.65163 4.09838C9.72304 3.15837 9.93979 2.04243 10.3258 1.65644ZM5.90636 1.65644C6.14097 1.42238 6.45885 1.29093 6.79026 1.29092C7.12166 1.29092 7.43954 1.42237 7.67416 1.65642C8.06021 2.04245 8.27696 3.15848 8.34837 4.09836C7.40836 4.02697 6.2924 3.8102 5.90643 3.42421C5.67237 3.18961 5.54091 2.87174 5.5409 2.54034C5.54088 2.20894 5.67231 1.89107 5.90636 1.65644ZM15.875 7.87503H9.625V13.5C9.625 13.6658 9.55915 13.8248 9.44194 13.942C9.32473 14.0592 9.16576 14.125 9 14.125C8.83424 14.125 8.67527 14.0592 8.55806 13.942C8.44085 13.8248 8.375 13.6658 8.375 13.5V7.87503H2.125V5.37503H8.375V7.87503H9.625V5.37503H15.875L15.8758 7.87499L15.875 7.87503Z" fill="url(#paint0_linear_4507_1778)"/>
<defs>
<linearGradient id="paint0_linear_4507_1778" x1="0.875" y1="0.0402832" x2="16.184" y2="16.263" gradientUnits="userSpaceOnUse">
<stop stop-color="#FF9B55"/>
<stop offset="1" stop-color="#DA4F23"/>
</linearGradient>
</defs>
</svg>
