<svg width="14" height="14" viewBox="0 0 14 14" fill="none" xmlns="http://www.w3.org/2000/svg">
<path d="M7 0.499969C5.71442 0.499969 4.45772 0.881188 3.3888 1.59542C2.31988 2.30965 1.48676 3.32481 0.994786 4.51253C0.502816 5.70025 0.374095 7.00718 0.624899 8.26806C0.875703 9.52893 1.49477 10.6871 2.40381 11.5962C3.31285 12.5052 4.47104 13.1243 5.73192 13.3751C6.99279 13.6259 8.29973 13.4972 9.48744 13.0052C10.6752 12.5132 11.6903 11.6801 12.4046 10.6112C13.1188 9.54226 13.5 8.28555 13.5 6.99997C13.4981 5.27666 12.8126 3.62449 11.594 2.40593C10.3755 1.18737 8.72331 0.50192 7 0.499969ZM6.87504 3.49999C7.02337 3.49999 7.16838 3.54398 7.29171 3.62639C7.41505 3.7088 7.51118 3.82594 7.56795 3.96298C7.62471 4.10002 7.63956 4.25082 7.61063 4.39631C7.58169 4.5418 7.51026 4.67543 7.40537 4.78032C7.30048 4.88521 7.16684 4.95664 7.02135 4.98558C6.87587 5.01452 6.72507 4.99967 6.58802 4.9429C6.45098 4.88614 6.33385 4.79001 6.25143 4.66667C6.16902 4.54333 6.12504 4.39833 6.12504 4.24999C6.12504 4.05108 6.20405 3.86031 6.34471 3.71966C6.48536 3.57901 6.67612 3.49999 6.87504 3.49999ZM7.50001 10.5H7.00001C6.8674 10.5 6.74023 10.4473 6.64646 10.3535C6.55269 10.2597 6.50001 10.1326 6.50001 9.99997V6.99997C6.3674 6.99997 6.24022 6.94729 6.14645 6.85352C6.05268 6.75976 6.00001 6.63258 6.00001 6.49997C6.00001 6.36736 6.05268 6.24018 6.14645 6.14642C6.24022 6.05265 6.3674 5.99997 6.50001 5.99997H7.00001C7.13261 5.99998 7.25979 6.05266 7.35355 6.14642C7.44732 6.24019 7.5 6.36736 7.50001 6.49997V9.49997C7.63261 9.49997 7.75979 9.55265 7.85356 9.64642C7.94733 9.74018 8.00001 9.86736 8.00001 9.99997C8.00001 10.1326 7.94733 10.2598 7.85356 10.3535C7.75979 10.4473 7.63261 10.5 7.50001 10.5Z" fill="#2F363D"/>
</svg>
