<svg width="20" height="20" viewBox="0 0 20 20" fill="none" xmlns="http://www.w3.org/2000/svg">
<circle cx="11.5" cy="8.5" r="6.75" stroke="url(#paint0_linear_5810_10294)" stroke-width="1.5"/>
<circle cx="8.5" cy="11.5" r="7.5" fill="url(#paint1_linear_5810_10294)"/>
<path d="M11.4121 9.48352L11.1429 10.456H6L6.26923 9.48352H11.4121ZM8.92308 15.5L6.15934 12.2418L6.15385 11.4231H7.46703C7.80769 11.4231 8.08791 11.3626 8.30769 11.2418C8.53114 11.1172 8.6978 10.9505 8.80769 10.7418C8.91758 10.5293 8.97253 10.293 8.97253 10.033C8.97253 9.75092 8.92125 9.50183 8.81868 9.28571C8.71612 9.0696 8.55311 8.9011 8.32967 8.78022C8.10623 8.65934 7.81136 8.5989 7.44506 8.5989H6.00549L6.3022 7.5H7.44506C8.09341 7.5 8.63187 7.59707 9.06044 7.79121C9.48901 7.98535 9.80952 8.2674 10.022 8.63736C10.2381 9.00733 10.3462 9.45421 10.3462 9.97802C10.3462 10.4359 10.2674 10.8407 10.1099 11.1923C9.95238 11.5403 9.6978 11.8223 9.34615 12.0385C8.99451 12.2509 8.52747 12.3828 7.94506 12.4341L10.4725 15.4286V15.5H8.92308ZM11.4176 7.5L11.1429 8.47253H6.93956L7.20879 7.5H11.4176Z" fill="white"/>
<defs>
<linearGradient id="paint0_linear_5810_10294" x1="4" y1="1" x2="19" y2="16" gradientUnits="userSpaceOnUse">
<stop stop-color="#FF9B55"/>
<stop offset="1" stop-color="#DA4F23"/>
</linearGradient>
<linearGradient id="paint1_linear_5810_10294" x1="1" y1="4" x2="16" y2="19" gradientUnits="userSpaceOnUse">
<stop stop-color="#FF9B55"/>
<stop offset="1" stop-color="#DA4F23"/>
</linearGradient>
</defs>
</svg>
