<svg width="21" height="20" viewBox="0 0 21 20" fill="none" xmlns="http://www.w3.org/2000/svg">
<path d="M17.375 5.625H14.6432C15.0499 5.12873 15.2503 4.49505 15.2028 3.85515C15.1553 3.21524 14.8636 2.6181 14.388 2.18733C13.9124 1.75657 13.2894 1.52516 12.6479 1.54102C12.0064 1.55688 11.3956 1.81879 10.9419 2.27253C10.7609 2.46112 10.6117 2.67776 10.5 2.91405C10.3882 2.67775 10.239 2.4611 10.058 2.27249C9.60431 1.81876 8.99349 1.55686 8.35202 1.54102C7.71055 1.52517 7.08755 1.75658 6.61197 2.18735C6.1364 2.61812 5.84467 3.21526 5.79717 3.85517C5.74968 4.49507 5.95005 5.12874 6.35682 5.625H3.625C3.29359 5.62537 2.97587 5.75719 2.74153 5.99153C2.50719 6.22587 2.37538 6.54359 2.375 6.875V9.375C2.37538 9.7064 2.50719 10.0241 2.74153 10.2585C2.97587 10.4928 3.29359 10.6246 3.625 10.625V15.625C3.62538 15.9564 3.7572 16.2741 3.99154 16.5085C4.22587 16.7428 4.5436 16.8746 4.875 16.875H16.125C16.4564 16.8746 16.7741 16.7428 17.0085 16.5085C17.2428 16.2741 17.3746 15.9564 17.375 15.625V10.625C17.7064 10.6246 18.0241 10.4928 18.2585 10.2585C18.4928 10.0241 18.6246 9.7064 18.625 9.375V6.875C18.6246 6.54359 18.4928 6.22587 18.2585 5.99153C18.0241 5.75719 17.7064 5.62537 17.375 5.625ZM11.8258 3.15641C11.9418 3.04029 12.0796 2.94817 12.2313 2.88531C12.383 2.82245 12.5455 2.79009 12.7097 2.79006C12.8739 2.79004 13.0365 2.82236 13.1882 2.88518C13.3398 2.948 13.4777 3.04008 13.5938 3.15617C13.7099 3.27227 13.8019 3.41009 13.8648 3.56178C13.9276 3.71346 13.9599 3.87604 13.9599 4.04022C13.9599 4.2044 13.9275 4.36697 13.8647 4.51864C13.8018 4.67031 13.7097 4.80812 13.5936 4.92418C13.2076 5.31021 12.0916 5.52698 11.1516 5.59835C11.223 4.65834 11.4398 3.5424 11.8258 3.15641ZM7.40636 3.15641C7.64097 2.92235 7.95885 2.7909 8.29026 2.79089C8.62166 2.79089 8.93954 2.92233 9.17416 3.15639C9.56021 3.54242 9.77696 4.65845 9.84837 5.59833C8.90836 5.52694 7.7924 5.31017 7.40643 4.92418C7.17237 4.68958 7.04091 4.37171 7.0409 4.04031C7.04088 3.70891 7.17231 3.39104 7.40636 3.15641ZM17.375 9.375H11.125V15C11.125 15.1658 11.0592 15.3247 10.9419 15.4419C10.8247 15.5592 10.6658 15.625 10.5 15.625C10.3342 15.625 10.1753 15.5592 10.0581 15.4419C9.94085 15.3247 9.875 15.1658 9.875 15V9.375H3.625V6.875H9.875V9.375H11.125V6.875H17.375L17.3758 9.37496L17.375 9.375Z" fill="url(#paint0_linear_5810_10320)"/>
<defs>
<linearGradient id="paint0_linear_5810_10320" x1="2.375" y1="1.54025" x2="17.684" y2="17.763" gradientUnits="userSpaceOnUse">
<stop stop-color="#FF9B55"/>
<stop offset="1" stop-color="#DA4F23"/>
</linearGradient>
</defs>
</svg>
