<svg width="20" height="20" viewBox="0 0 20 20" fill="none" xmlns="http://www.w3.org/2000/svg">
<path d="M18.75 10C18.75 10.8158 18.1632 11.4277 17.6455 11.9675C17.3508 12.2749 17.0461 12.5925 16.9309 12.8709C16.8251 13.1267 16.8187 13.5503 16.8125 13.96C16.801 14.7224 16.7879 15.5865 16.1872 16.1872C15.5864 16.7879 14.7223 16.801 13.96 16.8125C13.5503 16.8187 13.1266 16.8251 12.8709 16.9309C12.5925 17.0461 12.2748 17.3508 11.9675 17.6455C11.4277 18.1632 10.8158 18.75 9.99996 18.75C9.18415 18.75 8.57231 18.1632 8.03246 17.6455C7.72518 17.3508 7.40746 17.0461 7.12906 16.9309C6.87336 16.8251 6.44974 16.8187 6.04004 16.8125C5.27763 16.801 4.41353 16.7879 3.81279 16.1872C3.21205 15.5865 3.19901 14.7224 3.18748 13.96C3.1813 13.5503 3.1749 13.1267 3.06908 12.8709C2.95395 12.5925 2.64923 12.2749 2.35451 11.9675C1.83678 11.4277 1.25 10.8158 1.25 10C1.25 9.18419 1.83678 8.57231 2.35451 8.03246C2.64923 7.72514 2.95395 7.40746 3.06908 7.12906C3.1749 6.87332 3.1813 6.44966 3.18748 6.04004C3.19901 5.27763 3.21205 4.41353 3.81283 3.81279C4.41357 3.21205 5.27767 3.19901 6.04004 3.18748C6.44974 3.1813 6.8734 3.1749 7.12914 3.06908C7.40746 2.95395 7.72522 2.64923 8.03246 2.35451C8.57231 1.83678 9.18419 1.25 10 1.25C10.8158 1.25 11.4277 1.83678 11.9675 2.35451C12.2748 2.64923 12.5925 2.95395 12.8709 3.06908C13.1266 3.1749 13.5503 3.1813 13.96 3.18748C14.7224 3.19901 15.5865 3.21205 16.1872 3.81279C16.7879 4.41353 16.801 5.27763 16.8125 6.04004C16.8187 6.44966 16.8251 6.87332 16.9309 7.12906C17.0461 7.40746 17.3508 7.72514 17.6455 8.03246C18.1632 8.57231 18.75 9.18419 18.75 10Z" fill="url(#paint0_linear_5810_10304)"/>
<circle cx="8" cy="8" r="1" stroke="white"/>
<circle cx="12" cy="12" r="1" stroke="white"/>
<path d="M13 7L7 13" stroke="white" stroke-linecap="round"/>
<defs>
<linearGradient id="paint0_linear_5810_10304" x1="1.25" y1="1.25" x2="18.75" y2="18.75" gradientUnits="userSpaceOnUse">
<stop stop-color="#FF9B55"/>
<stop offset="1" stop-color="#DA4F23"/>
</linearGradient>
</defs>
</svg>
