<svg width="21" height="20" viewBox="0 0 21 20" fill="none" xmlns="http://www.w3.org/2000/svg">
<path d="M18.2493 8.1625C18.5314 8.10448 18.7849 7.95109 18.9671 7.72812C19.1494 7.50515 19.2493 7.22622 19.25 6.93825V5C19.2496 4.6686 19.1178 4.35087 18.8835 4.11654C18.6491 3.8822 18.3314 3.75038 18 3.75H3C2.6686 3.75038 2.35087 3.8822 2.11654 4.11654C1.8822 4.35087 1.75038 4.6686 1.75 5V6.93825C1.75074 7.22622 1.85063 7.50515 2.03288 7.72812C2.21512 7.95109 2.4686 8.10448 2.75067 8.1625C3.174 8.2492 3.55441 8.47941 3.8276 8.81421C4.10079 9.14902 4.24999 9.56788 4.24999 10C4.24999 10.4321 4.10079 10.851 3.8276 11.1858C3.55441 11.5206 3.174 11.7508 2.75067 11.8375C2.4686 11.8955 2.21512 12.0489 2.03288 12.2719C1.85063 12.4948 1.75074 12.7738 1.75 13.0618V15C1.75038 15.3314 1.8822 15.6491 2.11654 15.8835C2.35087 16.1178 2.6686 16.2496 3 16.25H18C18.3314 16.2496 18.6491 16.1178 18.8835 15.8835C19.1178 15.6491 19.2496 15.3314 19.25 15V13.0618C19.2493 12.7738 19.1494 12.4948 18.9671 12.2719C18.7849 12.0489 18.5314 11.8955 18.2493 11.8375C17.826 11.7508 17.4456 11.5206 17.1724 11.1858C16.8992 10.851 16.75 10.4321 16.75 10C16.75 9.56788 16.8992 9.14902 17.1724 8.81421C17.4456 8.47941 17.826 8.2492 18.2493 8.1625ZM3 13.0624C3.70576 12.9183 4.34007 12.5348 4.79562 11.9768C5.25118 11.4188 5.5 10.7206 5.5 10.0003C5.5 9.27998 5.25118 8.58178 4.79562 8.02381C4.34007 7.46583 3.70576 7.08236 3 6.93825V5H7.375V15H3V13.0624Z" fill="url(#paint0_linear_5810_10315)"/>
<defs>
<linearGradient id="paint0_linear_5810_10315" x1="1.75" y1="3.75" x2="13.5743" y2="20.3041" gradientUnits="userSpaceOnUse">
<stop stop-color="#FF9B55"/>
<stop offset="1" stop-color="#DA4F23"/>
</linearGradient>
</defs>
</svg>
