<svg width="121" height="80" viewBox="0 0 121 80" fill="none" xmlns="http://www.w3.org/2000/svg">
<rect x="0.333008" width="120.333" height="78" rx="8" fill="#ECF0F3"/>
<g filter="url(#filter0_d_1582_91925)">
<rect x="13.5" y="10" width="40" height="58" rx="5" fill="#ECF0F3" stroke="white" stroke-width="2"/>
<path d="M43.002 44C42.1288 43.9985 41.2674 44.2008 40.4862 44.5907C39.705 44.9807 39.0256 45.5475 38.502 46.2462C37.7928 45.3027 36.8049 44.606 35.678 44.2548C34.5511 43.9036 33.3423 43.9157 32.2227 44.2894C31.103 44.663 30.1292 45.3793 29.4391 46.3368C28.7489 47.2943 28.3774 48.4447 28.377 49.625C28.377 56.3621 37.737 61.6813 38.1355 61.9044C38.2474 61.9671 38.3736 62 38.502 62C38.6303 62 38.7565 61.9671 38.8684 61.9044C40.5899 60.8961 42.2056 59.7173 43.6912 58.3856C46.9663 55.438 48.627 52.4905 48.627 49.625C48.6253 48.1337 48.0321 46.7039 46.9776 45.6494C45.923 44.5949 44.4933 44.0017 43.002 44Z" fill="#E41919"/>
<path d="M21.204 14.8H23.452L27.524 26H25.452L24.732 24.016H19.932L19.212 26H17.14L21.204 14.8ZM20.644 22.064H24.012L22.324 17.448L20.644 22.064Z" fill="#E41919"/>
<path d="M24.751 31.5C24.3144 31.4993 23.8837 31.6004 23.4931 31.7954C23.1025 31.9903 22.7628 32.2738 22.501 32.6231C22.1464 32.1513 21.6524 31.803 21.089 31.6274C20.5255 31.4518 19.9212 31.4579 19.3613 31.6447C18.8015 31.8315 18.3146 32.1896 17.9695 32.6684C17.6245 33.1472 17.4387 33.7223 17.4385 34.3125C17.4385 37.6811 22.1185 40.3406 22.3177 40.4522C22.3737 40.4835 22.4368 40.5 22.501 40.5C22.5651 40.5 22.6282 40.4835 22.6842 40.4522C23.545 39.9481 24.3528 39.3586 25.0956 38.6928C26.7331 37.219 27.5635 35.7452 27.5635 34.3125C27.5626 33.5668 27.266 32.852 26.7388 32.3247C26.2115 31.7974 25.4966 31.5008 24.751 31.5Z" fill="#E41919"/>
</g>
<g filter="url(#filter1_d_1582_91925)">
<rect x="31.5" y="10" width="40" height="58" rx="5" fill="#ECF0F3" stroke="white" stroke-width="2"/>
<path d="M66.25 54.125C66.25 55.0276 66.0173 55.9149 65.5745 56.7013C65.1316 57.4877 64.4934 58.1467 63.7216 58.6145C62.9498 59.0824 62.0704 59.3434 61.1683 59.3723C60.2662 59.4013 59.3719 59.1971 58.5717 58.7797L59.6912 62.1379C59.7288 62.2507 59.739 62.3707 59.7211 62.4882C59.7032 62.6057 59.6576 62.7172 59.5881 62.8136C59.5187 62.91 59.4273 62.9885 59.3215 63.0427C59.2157 63.0968 59.0985 63.1251 58.9797 63.125H54.0203C53.9014 63.1251 53.7843 63.0968 53.6785 63.0427C53.5727 62.9885 53.4813 62.91 53.4118 62.8136C53.3423 62.7172 53.2968 62.6056 53.2788 62.4881C53.2609 62.3706 53.2712 62.2506 53.3088 62.1378L54.4283 58.7797C53.6281 59.1971 52.7338 59.4013 51.8317 59.3723C50.9296 59.3434 50.0502 59.0824 49.2784 58.6145C48.5066 58.1467 47.8684 57.4877 47.4255 56.7013C46.9827 55.9149 46.75 55.0276 46.75 54.125C46.75 49.1026 55.908 43.1837 56.2979 42.9342C56.3582 42.8955 56.4283 42.875 56.5 42.875C56.5717 42.875 56.6418 42.8955 56.7021 42.9342C57.092 43.1837 66.25 49.1026 66.25 54.125Z" fill="black"/>
<path d="M39.204 14.8H41.452L45.524 26H43.452L42.732 24.016H37.932L37.212 26H35.14L39.204 14.8ZM38.644 22.064H42.012L40.324 17.448L38.644 22.064Z" fill="black"/>
<path d="M45.375 36.5625C45.375 37.0138 45.2587 37.4575 45.0372 37.8507C44.8158 38.2439 44.4967 38.5733 44.1108 38.8073C43.7249 39.0412 43.2852 39.1717 42.8342 39.1862C42.3831 39.2006 41.936 39.0986 41.5359 38.8898L42.0956 40.569C42.1144 40.6253 42.1195 40.6854 42.1106 40.7441C42.1016 40.8028 42.0788 40.8586 42.0441 40.9068C42.0093 40.955 41.9636 40.9943 41.9107 41.0213C41.8578 41.0484 41.7993 41.0625 41.7399 41.0625H39.2601C39.2007 41.0625 39.1422 41.0484 39.0893 41.0213C39.0364 40.9943 38.9907 40.955 38.9559 40.9068C38.9212 40.8586 38.8984 40.8028 38.8894 40.7441C38.8805 40.6853 38.8856 40.6253 38.9044 40.5689L39.4641 38.8898C39.064 39.0986 38.6169 39.2006 38.1658 39.1862C37.7148 39.1717 37.2751 39.0412 36.8892 38.8073C36.5033 38.5733 36.1842 38.2439 35.9628 37.8507C35.7413 37.4575 35.625 37.0138 35.625 36.5625C35.625 34.0513 40.204 31.0918 40.3989 30.9671C40.4291 30.9478 40.4642 30.9375 40.5 30.9375C40.5358 30.9375 40.5709 30.9478 40.6011 30.9671C40.796 31.0918 45.375 34.0513 45.375 36.5625Z" fill="black"/>
</g>
<g filter="url(#filter2_d_1582_91925)">
<rect x="49.5" y="10" width="40" height="58" rx="5" fill="#ECF0F3" stroke="white" stroke-width="2"/>
<path d="M84.25 54.8749C84.2499 55.7536 84.0124 56.6159 83.5625 57.3706C83.1126 58.1254 82.4671 58.7446 81.6943 59.1627C80.9215 59.5807 80.05 59.7822 79.1721 59.7457C78.2942 59.7092 77.4424 59.4362 76.707 58.9554L77.7058 62.1511C77.7409 62.2634 77.7491 62.3824 77.7297 62.4984C77.7103 62.6145 77.6639 62.7243 77.5942 62.8191C77.5245 62.9139 77.4335 62.991 77.3285 63.0441C77.2236 63.0972 77.1076 63.1249 76.9899 63.1249H72.0101C71.8924 63.1249 71.7764 63.0972 71.6715 63.0441C71.5665 62.991 71.4755 62.9139 71.4058 62.8191C71.3361 62.7243 71.2897 62.6145 71.2703 62.4984C71.251 62.3824 71.2592 62.2634 71.2943 62.1511L72.2926 58.957C71.4598 59.5029 70.479 59.779 69.4836 59.7479C66.8843 59.6743 64.7608 57.4974 64.75 54.8954C64.7473 54.2535 64.8714 53.6174 65.1152 53.0235C65.359 52.4297 65.7177 51.8899 66.1706 51.435C66.6236 50.9801 67.1619 50.6192 67.7547 50.3729C68.3475 50.1267 68.9831 49.9999 69.625 49.9999C69.7518 49.9999 69.8783 50.0048 70.0046 50.0145C69.6934 49.2735 69.5703 48.467 69.6462 47.6669C69.7221 46.8667 69.9947 46.0978 70.4396 45.4284C70.8845 44.7591 71.488 44.2101 72.1964 43.8304C72.9047 43.4507 73.696 43.252 74.4997 43.252C75.3034 43.252 76.0947 43.4507 76.8031 43.8304C77.5114 44.2101 78.1149 44.7591 78.5599 45.4284C79.0048 46.0978 79.2773 46.8667 79.3532 47.6669C79.4291 48.467 79.306 49.2735 78.9949 50.0145C79.1653 50.0015 79.3363 49.9972 79.5071 50.0016C80.779 50.029 81.9892 50.5553 82.8765 51.467C83.7638 52.3787 84.2572 53.6027 84.25 54.8749Z" fill="#04A105"/>
<path d="M57.204 14.8H59.452L63.524 26H61.452L60.732 24.016H55.932L55.212 26H53.14L57.204 14.8ZM56.644 22.064H60.012L58.324 17.448L56.644 22.064Z" fill="#04A105"/>
<path d="M63.375 36.9374C63.375 37.3768 63.2562 37.8079 63.0312 38.1853C62.8063 38.5627 62.4836 38.8723 62.0971 39.0813C61.7107 39.2904 61.275 39.3911 60.836 39.3728C60.3971 39.3546 59.9712 39.2181 59.6035 38.9777L60.1029 40.5756C60.1204 40.6317 60.1245 40.6912 60.1148 40.7492C60.1051 40.8072 60.0819 40.8622 60.0471 40.9096C60.0123 40.957 59.9668 40.9955 59.9143 41.0221C59.8618 41.0486 59.8038 41.0625 59.745 41.0624H57.255C57.1962 41.0625 57.1382 41.0486 57.0857 41.0221C57.0332 40.9955 56.9877 40.957 56.9529 40.9096C56.9181 40.8622 56.8949 40.8072 56.8852 40.7492C56.8755 40.6912 56.8796 40.6317 56.8971 40.5756L57.3963 38.9785C56.9799 39.2514 56.4895 39.3895 55.9918 39.3739C54.6921 39.3371 53.6304 38.2487 53.625 36.9477C53.6237 36.6267 53.6857 36.3087 53.8076 36.0118C53.9295 35.7149 54.1088 35.4449 54.3353 35.2175C54.5618 34.9901 54.8309 34.8096 55.1273 34.6865C55.4237 34.5633 55.7415 34.4999 56.0625 34.4999C56.1259 34.4999 56.1892 34.5024 56.2523 34.5073C56.0967 34.1367 56.0352 33.7335 56.0731 33.3334C56.1111 32.9334 56.2473 32.5489 56.4698 32.2142C56.6923 31.8795 56.994 31.6051 57.3482 31.4152C57.7024 31.2253 58.098 31.126 58.4999 31.126C58.9017 31.126 59.2974 31.2253 59.6515 31.4152C60.0057 31.6051 60.3075 31.8795 60.5299 32.2142C60.7524 32.5489 60.8887 32.9334 60.9266 33.3334C60.9646 33.7335 60.903 34.1367 60.7474 34.5073C60.8326 34.5007 60.9181 34.4986 61.0036 34.5008C61.6395 34.5145 62.2446 34.7776 62.6883 35.2335C63.1319 35.6893 63.3786 36.3013 63.375 36.9374Z" fill="#04A105"/>
</g>
<g filter="url(#filter3_d_1582_91925)">
<rect x="67.5" y="10" width="40" height="58" rx="5" fill="#ECF0F3" stroke="white" stroke-width="2"/>
<path d="M102.625 54.0608L93.5608 63.1252C93.2793 63.406 92.8978 63.5638 92.5002 63.5638C92.1025 63.5638 91.721 63.406 91.4395 63.1252L82.3752 54.0608C82.0943 53.7793 81.9365 53.3978 81.9365 53.0002C81.9365 52.6025 82.0943 52.221 82.3752 51.9395L91.4395 42.8752C91.721 42.5943 92.1025 42.4365 92.5002 42.4365C92.8978 42.4365 93.2793 42.5943 93.5608 42.8752L102.625 51.9395C102.906 52.221 103.064 52.6025 103.064 53.0002C103.064 53.3978 102.906 53.7793 102.625 54.0608Z" fill="#0E1FD6"/>
<path d="M75.204 14.8H77.452L81.524 26H79.452L78.732 24.016H73.932L73.212 26H71.14L75.204 14.8ZM74.644 22.064H78.012L76.324 17.448L74.644 22.064Z" fill="#0E1FD6"/>
<path d="M81.5621 36.5304L77.0299 41.0626C76.8891 41.203 76.6984 41.2819 76.4996 41.2819C76.3007 41.2819 76.11 41.203 75.9693 41.0626L71.4371 36.5304C71.2966 36.3896 71.2178 36.1989 71.2178 36.0001C71.2178 35.8012 71.2966 35.6105 71.4371 35.4698L75.9693 30.9376C76.11 30.7971 76.3007 30.7183 76.4996 30.7183C76.6984 30.7183 76.8892 30.7971 77.0299 30.9376L81.5621 35.4698C81.7025 35.6105 81.7814 35.8012 81.7814 36.0001C81.7814 36.1989 81.7025 36.3896 81.5621 36.5304Z" fill="#0E1FD6"/>
</g>
<defs>
<filter id="filter0_d_1582_91925" x="5" y="4.5" width="57" height="75" filterUnits="userSpaceOnUse" color-interpolation-filters="sRGB">
<feFlood flood-opacity="0" result="BackgroundImageFix"/>
<feColorMatrix in="SourceAlpha" type="matrix" values="0 0 0 0 0 0 0 0 0 0 0 0 0 0 0 0 0 0 127 0" result="hardAlpha"/>
<feOffset dy="3"/>
<feGaussianBlur stdDeviation="3.75"/>
<feComposite in2="hardAlpha" operator="out"/>
<feColorMatrix type="matrix" values="0 0 0 0 0 0 0 0 0 0 0 0 0 0 0 0 0 0 0.3 0"/>
<feBlend mode="normal" in2="BackgroundImageFix" result="effect1_dropShadow_1582_91925"/>
<feBlend mode="normal" in="SourceGraphic" in2="effect1_dropShadow_1582_91925" result="shape"/>
</filter>
<filter id="filter1_d_1582_91925" x="23" y="4.5" width="57" height="75" filterUnits="userSpaceOnUse" color-interpolation-filters="sRGB">
<feFlood flood-opacity="0" result="BackgroundImageFix"/>
<feColorMatrix in="SourceAlpha" type="matrix" values="0 0 0 0 0 0 0 0 0 0 0 0 0 0 0 0 0 0 127 0" result="hardAlpha"/>
<feOffset dy="3"/>
<feGaussianBlur stdDeviation="3.75"/>
<feComposite in2="hardAlpha" operator="out"/>
<feColorMatrix type="matrix" values="0 0 0 0 0 0 0 0 0 0 0 0 0 0 0 0 0 0 0.3 0"/>
<feBlend mode="normal" in2="BackgroundImageFix" result="effect1_dropShadow_1582_91925"/>
<feBlend mode="normal" in="SourceGraphic" in2="effect1_dropShadow_1582_91925" result="shape"/>
</filter>
<filter id="filter2_d_1582_91925" x="41" y="4.5" width="57" height="75" filterUnits="userSpaceOnUse" color-interpolation-filters="sRGB">
<feFlood flood-opacity="0" result="BackgroundImageFix"/>
<feColorMatrix in="SourceAlpha" type="matrix" values="0 0 0 0 0 0 0 0 0 0 0 0 0 0 0 0 0 0 127 0" result="hardAlpha"/>
<feOffset dy="3"/>
<feGaussianBlur stdDeviation="3.75"/>
<feComposite in2="hardAlpha" operator="out"/>
<feColorMatrix type="matrix" values="0 0 0 0 0 0 0 0 0 0 0 0 0 0 0 0 0 0 0.3 0"/>
<feBlend mode="normal" in2="BackgroundImageFix" result="effect1_dropShadow_1582_91925"/>
<feBlend mode="normal" in="SourceGraphic" in2="effect1_dropShadow_1582_91925" result="shape"/>
</filter>
<filter id="filter3_d_1582_91925" x="59" y="4.5" width="57" height="75" filterUnits="userSpaceOnUse" color-interpolation-filters="sRGB">
<feFlood flood-opacity="0" result="BackgroundImageFix"/>
<feColorMatrix in="SourceAlpha" type="matrix" values="0 0 0 0 0 0 0 0 0 0 0 0 0 0 0 0 0 0 127 0" result="hardAlpha"/>
<feOffset dy="3"/>
<feGaussianBlur stdDeviation="3.75"/>
<feComposite in2="hardAlpha" operator="out"/>
<feColorMatrix type="matrix" values="0 0 0 0 0 0 0 0 0 0 0 0 0 0 0 0 0 0 0.3 0"/>
<feBlend mode="normal" in2="BackgroundImageFix" result="effect1_dropShadow_1582_91925"/>
<feBlend mode="normal" in="SourceGraphic" in2="effect1_dropShadow_1582_91925" result="shape"/>
</filter>
</defs>
</svg>
