<svg width="25" height="24" viewBox="0 0 25 24" fill="none" xmlns="http://www.w3.org/2000/svg">
<path d="M22.584 13.8751C22.5839 14.7537 22.3464 15.6161 21.8965 16.3708C21.4466 17.1256 20.8011 17.7448 20.0283 18.1628C19.2554 18.5809 18.384 18.7824 17.5061 18.7459C16.6282 18.7094 15.7764 18.4363 15.041 17.9556L16.0397 21.1513C16.0748 21.2636 16.083 21.3826 16.0637 21.4986C16.0443 21.6147 15.9979 21.7245 15.9282 21.8193C15.8585 21.9141 15.7675 21.9912 15.6625 22.0443C15.5575 22.0974 15.4415 22.1251 15.3239 22.1251H10.3441C10.2264 22.1251 10.1104 22.0974 10.0054 22.0443C9.90047 21.9912 9.80947 21.9141 9.73979 21.8193C9.67011 21.7245 9.6237 21.6147 9.60433 21.4986C9.58496 21.3826 9.59315 21.2636 9.62826 21.1513L10.6266 17.9571C9.79375 18.5031 8.81296 18.7792 7.81762 18.7481C5.21826 18.6745 3.09478 16.4976 3.08403 13.8956C3.08132 13.2537 3.20542 12.6175 3.4492 12.0237C3.69298 11.4299 4.05164 10.89 4.50459 10.4352C4.95754 9.98033 5.49586 9.6194 6.08866 9.37313C6.68146 9.12685 7.31706 9.00008 7.95898 9.00008C8.08578 9.00008 8.21231 9.00496 8.33856 9.01473C8.02742 8.27367 7.90432 7.46718 7.98022 6.66705C8.05611 5.86691 8.32865 5.09795 8.77357 4.4286C9.21848 3.75926 9.82198 3.21029 10.5304 2.83057C11.2387 2.45084 12.03 2.25214 12.8337 2.25214C13.6374 2.25214 14.4287 2.45084 15.1371 2.83057C15.8454 3.21029 16.4489 3.75926 16.8938 4.4286C17.3388 5.09795 17.6113 5.86691 17.6872 6.66705C17.7631 7.46718 17.64 8.27367 17.3289 9.01473C17.4993 9.00167 17.6702 8.99736 17.8411 9.00182C19.113 9.02916 20.3232 9.55546 21.2105 10.4672C22.0978 11.3789 22.5911 12.6029 22.584 13.8751Z" fill="white"/>
</svg>
