<svg width="23" height="24" viewBox="0 0 23 24" fill="none" xmlns="http://www.w3.org/2000/svg">
<path d="M16.7499 8.89608C16.1665 8.89608 15.6037 8.97967 15.0735 9.13439C16.1845 8.19655 16.8852 6.83201 16.8852 5.31196C16.8852 2.48427 14.4636 0.191895 11.4766 0.191895C8.4895 0.191895 6.06792 2.48427 6.06792 5.31196C6.06792 6.83201 6.76822 8.19661 7.87969 9.13439C7.34986 8.97968 6.78707 8.89608 6.20322 8.89608C3.06679 8.89608 0.524414 11.3032 0.524414 14.2719C0.524414 17.241 3.06723 19.6481 6.20322 19.6481C8.5752 19.6481 10.6045 18.2699 11.4542 16.3147C11.4542 19.4347 7.87013 23.6586 6.09784 23.6586H16.6444C14.9525 23.6586 11.4959 19.4347 11.4959 16.3085C12.3443 18.267 14.3754 19.6477 16.7499 19.6477C19.8864 19.6477 22.4292 17.2405 22.4292 14.2715C22.4292 11.3032 19.8864 8.89608 16.7499 8.89608Z" fill="black"/>
</svg>
