<svg width="25" height="24" viewBox="0 0 25 24" fill="none" xmlns="http://www.w3.org/2000/svg">
<path d="M22.25 13.8751C22.2499 14.7537 22.0124 15.6161 21.5625 16.3708C21.1126 17.1256 20.4671 17.7448 19.6943 18.1628C18.9215 18.5809 18.05 18.7824 17.1721 18.7459C16.2942 18.7094 15.4424 18.4363 14.707 17.9556L15.7058 21.1513C15.7409 21.2636 15.7491 21.3826 15.7297 21.4986C15.7103 21.6147 15.6639 21.7245 15.5942 21.8193C15.5245 21.9141 15.4335 21.9912 15.3285 22.0443C15.2236 22.0974 15.1076 22.1251 14.9899 22.1251H10.0101C9.89244 22.1251 9.77644 22.0974 9.67146 22.0443C9.56649 21.9912 9.47548 21.9141 9.4058 21.8193C9.33612 21.7245 9.28972 21.6147 9.27035 21.4986C9.25097 21.3826 9.25917 21.2636 9.29428 21.1513L10.2926 17.9571C9.45976 18.5031 8.47898 18.7792 7.48364 18.7481C4.88427 18.6745 2.7608 16.4976 2.75004 13.8956C2.74734 13.2537 2.87144 12.6175 3.11522 12.0237C3.359 11.4299 3.71765 10.89 4.1706 10.4352C4.62355 9.98033 5.16188 9.6194 5.75468 9.37313C6.34748 9.12685 6.98308 9.00008 7.625 9.00008C7.7518 9.00008 7.87832 9.00496 8.00457 9.01473C7.69344 8.27367 7.57034 7.46718 7.64623 6.66705C7.72213 5.86691 7.99466 5.09795 8.43958 4.4286C8.8845 3.75926 9.488 3.21029 10.1964 2.83057C10.9047 2.45084 11.696 2.25214 12.4997 2.25214C13.3034 2.25214 14.0947 2.45084 14.8031 2.83057C15.5114 3.21029 16.1149 3.75926 16.5599 4.4286C17.0048 5.09795 17.2773 5.86691 17.3532 6.66705C17.4291 7.46718 17.306 8.27367 16.9949 9.01473C17.1653 9.00167 17.3363 8.99736 17.5071 9.00182C18.779 9.02916 19.9892 9.55546 20.8765 10.4672C21.7638 11.3789 22.2572 12.6029 22.25 13.8751Z" fill="#04A105"/>
</svg>
