<svg width="25" height="24" viewBox="0 0 25 24" fill="none" xmlns="http://www.w3.org/2000/svg">
<path d="M22.6252 13.0607L13.5608 22.1251C13.2793 22.4059 12.8978 22.5637 12.5002 22.5637C12.1025 22.5637 11.721 22.4059 11.4395 22.1251L2.37515 13.0607C2.09427 12.7792 1.93652 12.3977 1.93652 12.0001C1.93652 11.6024 2.09427 11.2209 2.37515 10.9394L11.4395 1.87506C11.721 1.59418 12.1025 1.43643 12.5002 1.43643C12.8978 1.43643 13.2793 1.59418 13.5608 1.87506L22.6252 10.9394C22.906 11.2209 23.0638 11.6024 23.0638 12.0001C23.0638 12.3977 22.906 12.7792 22.6252 13.0607Z" fill="#0E1FD6"/>
</svg>
