<svg width="25" height="24" viewBox="0 0 25 24" fill="none" xmlns="http://www.w3.org/2000/svg">
<path d="M22.9591 13.0607L13.8948 22.1251C13.6133 22.4059 13.2318 22.5637 12.8341 22.5637C12.4365 22.5637 12.055 22.4059 11.7735 22.1251L2.70914 13.0607C2.42825 12.7792 2.27051 12.3977 2.27051 12.0001C2.27051 11.6024 2.42825 11.2209 2.70914 10.9394L11.7735 1.87506C12.055 1.59418 12.4365 1.43643 12.8341 1.43643C13.2318 1.43643 13.6133 1.59418 13.8948 1.87506L22.9591 10.9394C23.24 11.2209 23.3978 11.6024 23.3978 12.0001C23.3978 12.3977 23.24 12.7792 22.9591 13.0607Z" fill="white"/>
</svg>
