<svg width="121" height="80" viewBox="0 0 121 80" fill="none" xmlns="http://www.w3.org/2000/svg">
<rect x="0.666992" y="6.10352e-05" width="120.333" height="78" rx="8" fill="#ECF0F3"/>
<g filter="url(#filter0_d_1822_26820)">
<rect x="12.834" y="9.00006" width="42" height="60" rx="6" fill="#E41919"/>
<path d="M43.3359 44.0001C42.4628 43.9986 41.6014 44.2008 40.8202 44.5908C40.039 44.9807 39.3596 45.5476 38.8359 46.2463C38.1268 45.3027 37.1389 44.6061 36.012 44.2549C34.8851 43.9037 33.6763 43.9158 32.5567 44.2894C31.437 44.6631 30.4632 45.3793 29.7731 46.3369C29.0829 47.2944 28.7113 48.4447 28.7109 49.6251C28.7109 56.3622 38.071 61.6813 38.4695 61.9044C38.5814 61.9671 38.7076 62.0001 38.8359 62.0001C38.9643 62.0001 39.0905 61.9671 39.2024 61.9044C40.9239 60.8962 42.5396 59.7173 44.0251 58.3857C47.3003 55.438 48.9609 52.4905 48.9609 49.6251C48.9592 48.1337 48.3661 46.704 47.3115 45.6495C46.257 44.5949 44.8273 44.0018 43.3359 44.0001Z" fill="white"/>
<path d="M23.0225 31.1251C22.695 31.1245 22.372 31.2004 22.0791 31.3466C21.7861 31.4928 21.5313 31.7054 21.335 31.9674C21.069 31.6136 20.6986 31.3523 20.276 31.2206C19.8534 31.0889 19.4001 31.0935 18.9802 31.2336C18.5604 31.3737 18.1952 31.6423 17.9364 32.0014C17.6776 32.3604 17.5382 32.7918 17.5381 33.2344C17.5381 35.7609 21.0481 37.7555 21.1975 37.8392C21.2395 37.8627 21.2868 37.8751 21.335 37.8751C21.3831 37.8751 21.4304 37.8627 21.4724 37.8392C22.118 37.4611 22.7238 37.019 23.2809 36.5197C24.5091 35.4143 25.1318 34.309 25.1318 33.2344C25.1312 32.6752 24.9088 32.139 24.5133 31.7436C24.1179 31.3481 23.5817 31.1257 23.0225 31.1251Z" fill="white"/>
<path d="M21.538 14.8001H23.786L27.858 26.0001H25.786L25.066 24.0161H20.266L19.546 26.0001H17.474L21.538 14.8001ZM20.978 22.0641H24.346L22.658 17.4481L20.978 22.0641Z" fill="white"/>
</g>
<g filter="url(#filter1_d_1822_26820)">
<rect x="30.834" y="9.00006" width="42" height="60" rx="6" fill="black"/>
<path d="M66.584 54.125C66.584 55.0276 66.3513 55.9149 65.9084 56.7013C65.4656 57.4877 64.8274 58.1467 64.0556 58.6145C63.2838 59.0824 62.4044 59.3434 61.5023 59.3723C60.6002 59.4013 59.7059 59.1971 58.9057 58.7797L60.0252 62.1379C60.0628 62.2507 60.073 62.3707 60.0551 62.4882C60.0372 62.6057 59.9916 62.7172 59.9221 62.8136C59.8526 62.91 59.7612 62.9885 59.6555 63.0427C59.5497 63.0968 59.4325 63.1251 59.3137 63.125H54.3543C54.2354 63.1251 54.1183 63.0968 54.0125 63.0427C53.9067 62.9885 53.8153 62.91 53.7458 62.8136C53.6763 62.7172 53.6307 62.6056 53.6128 62.4881C53.5949 62.3706 53.6052 62.2506 53.6428 62.1378L54.7622 58.7797C53.962 59.1971 53.0677 59.4013 52.1657 59.3723C51.2636 59.3434 50.3842 59.0824 49.6124 58.6145C48.8406 58.1467 48.2024 57.4877 47.7595 56.7013C47.3166 55.9149 47.084 55.0276 47.084 54.125C47.084 49.1026 56.242 43.1837 56.6318 42.9342C56.6922 42.8955 56.7623 42.875 56.834 42.875C56.9056 42.875 56.9758 42.8955 57.0361 42.9342C57.426 43.1837 66.584 49.1026 66.584 54.125Z" fill="white"/>
<path d="M42.9902 34.922C42.9902 35.2604 42.903 35.5931 42.7369 35.8881C42.5708 36.183 42.3315 36.4301 42.0421 36.6055C41.7527 36.781 41.4229 36.8788 41.0846 36.8897C40.7463 36.9005 40.411 36.824 40.1109 36.6674L40.5307 37.9268C40.5448 37.9691 40.5486 38.0141 40.5419 38.0581C40.5352 38.1022 40.5181 38.144 40.492 38.1802C40.466 38.2163 40.4317 38.2458 40.392 38.2661C40.3524 38.2864 40.3084 38.297 40.2639 38.297H38.4041C38.3595 38.297 38.3156 38.2864 38.2759 38.2661C38.2363 38.2458 38.202 38.2163 38.1759 38.1802C38.1499 38.144 38.1328 38.1022 38.1261 38.0581C38.1193 38.0141 38.1232 37.969 38.1373 37.9267L38.5571 36.6674C38.257 36.824 37.9216 36.9005 37.5834 36.8897C37.2451 36.8788 36.9153 36.781 36.6259 36.6055C36.3365 36.4301 36.0971 36.183 35.9311 35.8881C35.765 35.5931 35.6777 35.2604 35.6777 34.922C35.6777 33.0385 39.112 30.8189 39.2582 30.7254C39.2808 30.7109 39.3071 30.7032 39.334 30.7032C39.3609 30.7032 39.3872 30.7109 39.4098 30.7254C39.556 30.8189 42.9902 33.0385 42.9902 34.922Z" fill="white"/>
<path d="M39.538 14.8001H41.786L45.858 26.0001H43.786L43.066 24.0161H38.266L37.546 26.0001H35.474L39.538 14.8001ZM38.978 22.0641H42.346L40.658 17.4481L38.978 22.0641Z" fill="white"/>
</g>
<g filter="url(#filter2_d_1822_26820)">
<rect x="48.834" y="9.00006" width="42" height="60" rx="6" fill="#04A105"/>
<path d="M84.584 54.8751C84.5839 55.7537 84.3464 56.6161 83.8965 57.3708C83.4466 58.1256 82.8011 58.7448 82.0283 59.1628C81.2554 59.5809 80.384 59.7824 79.5061 59.7459C78.6282 59.7094 77.7764 59.4363 77.041 58.9556L78.0397 62.1513C78.0748 62.2636 78.083 62.3826 78.0637 62.4986C78.0443 62.6147 77.9979 62.7245 77.9282 62.8193C77.8585 62.9141 77.7675 62.9912 77.6625 63.0443C77.5575 63.0974 77.4415 63.1251 77.3239 63.1251H72.3441C72.2264 63.1251 72.1104 63.0974 72.0054 63.0443C71.9005 62.9912 71.8095 62.9141 71.7398 62.8193C71.6701 62.7245 71.6237 62.6147 71.6043 62.4986C71.585 62.3826 71.5932 62.2636 71.6283 62.1513L72.6266 58.9571C71.7937 59.5031 70.813 59.7792 69.8176 59.7481C67.2183 59.6745 65.0948 57.4976 65.084 54.8956C65.0813 54.2537 65.2054 53.6175 65.4492 53.0237C65.693 52.4299 66.0516 51.89 66.5046 51.4352C66.9575 50.9803 67.4959 50.6194 68.0887 50.3731C68.6815 50.1269 69.3171 50.0001 69.959 50.0001C70.0858 50.0001 70.2123 50.005 70.3386 50.0147C70.0274 49.2737 69.9043 48.4672 69.9802 47.667C70.0561 46.8669 70.3286 46.0979 70.7736 45.4286C71.2185 44.7593 71.822 44.2103 72.5304 43.8306C73.2387 43.4508 74.03 43.2521 74.8337 43.2521C75.6374 43.2521 76.4287 43.4508 77.1371 43.8306C77.8454 44.2103 78.4489 44.7593 78.8938 45.4286C79.3388 46.0979 79.6113 46.8669 79.6872 47.667C79.7631 48.4672 79.64 49.2737 79.3289 50.0147C79.4993 50.0017 79.6702 49.9974 79.8411 50.0018C81.113 50.0292 82.3232 50.5555 83.2105 51.4672C84.0978 52.3789 84.5911 53.6029 84.584 54.8751Z" fill="white"/>
<path d="M60.9902 35.2032C60.9902 35.5327 60.9011 35.8561 60.7324 36.1391C60.5637 36.4222 60.3217 36.6543 60.0318 36.8111C59.742 36.9679 59.4152 37.0434 59.086 37.0298C58.7568 37.0161 58.4374 36.9137 58.1616 36.7334L58.5361 37.9318C58.5493 37.9739 58.5524 38.0185 58.5451 38.062C58.5378 38.1056 58.5204 38.1468 58.4943 38.1823C58.4682 38.2178 58.4341 38.2467 58.3947 38.2667C58.3553 38.2866 58.3118 38.297 58.2677 38.297H56.4003C56.3561 38.297 56.3126 38.2866 56.2733 38.2667C56.2339 38.2467 56.1998 38.2178 56.1737 38.1823C56.1475 38.1467 56.1301 38.1056 56.1229 38.062C56.1156 38.0185 56.1187 37.9739 56.1318 37.9318L56.5062 36.734C56.1939 36.9387 55.8261 37.0423 55.4528 37.0306C54.4781 37.003 53.6818 36.1867 53.6778 35.2109C53.6767 34.9702 53.7233 34.7316 53.8147 34.5089C53.9061 34.2863 54.0406 34.0838 54.2105 33.9132C54.3803 33.7427 54.5822 33.6073 54.8045 33.515C55.0268 33.4226 55.2651 33.3751 55.5059 33.3751C55.5534 33.3751 55.6009 33.3769 55.6482 33.3806C55.5315 33.1027 55.4854 32.8002 55.5138 32.5002C55.5423 32.2001 55.6445 31.9118 55.8113 31.6608C55.9782 31.4098 56.2045 31.2039 56.4701 31.0615C56.7358 30.9191 57.0325 30.8446 57.3339 30.8446C57.6353 30.8446 57.932 30.9191 58.1976 31.0615C58.4633 31.2039 58.6896 31.4098 58.8564 31.6608C59.0233 31.9118 59.1255 32.2001 59.1539 32.5002C59.1824 32.8002 59.1362 33.1027 59.0196 33.3806C59.0835 33.3757 59.1476 33.3741 59.2116 33.3757C59.6886 33.386 60.1424 33.5834 60.4752 33.9252C60.8079 34.2671 60.9929 34.7261 60.9902 35.2032Z" fill="white"/>
<path d="M57.538 14.8001H59.786L63.858 26.0001H61.786L61.066 24.0161H56.266L55.546 26.0001H53.474L57.538 14.8001ZM56.978 22.0641H60.346L58.658 17.4481L56.978 22.0641Z" fill="white"/>
</g>
<g filter="url(#filter3_d_1822_26820)">
<rect x="66.834" y="9.00006" width="42" height="60" rx="6" fill="#0E1FD6"/>
<path d="M102.959 54.0607L93.8948 63.1251C93.6133 63.4059 93.2318 63.5637 92.8341 63.5637C92.4365 63.5637 92.055 63.4059 91.7735 63.1251L82.7091 54.0607C82.4283 53.7792 82.2705 53.3977 82.2705 53.0001C82.2705 52.6024 82.4283 52.2209 82.7091 51.9394L91.7735 42.8751C92.055 42.5942 92.4365 42.4364 92.8341 42.4364C93.2318 42.4364 93.6133 42.5942 93.8948 42.8751L102.959 51.9394C103.24 52.2209 103.398 52.6024 103.398 53.0001C103.398 53.3977 103.24 53.7792 102.959 54.0607Z" fill="white"/>
<path d="M79.1313 34.8978L75.7321 38.2969C75.6266 38.4023 75.4835 38.4614 75.3344 38.4614C75.1853 38.4614 75.0422 38.4023 74.9367 38.2969L71.5375 34.8978C71.4322 34.7922 71.373 34.6492 71.373 34.5001C71.373 34.3509 71.4322 34.2079 71.5375 34.1023L74.9367 30.7032C75.0422 30.5979 75.1853 30.5387 75.3344 30.5387C75.4835 30.5387 75.6266 30.5979 75.7321 30.7032L79.1313 34.1023C79.2366 34.2079 79.2958 34.3509 79.2958 34.5001C79.2958 34.6492 79.2366 34.7922 79.1313 34.8978Z" fill="white"/>
<path d="M75.538 14.8001H77.786L81.858 26.0001H79.786L79.066 24.0161H74.266L73.546 26.0001H71.474L75.538 14.8001ZM74.978 22.0641H78.346L76.658 17.4481L74.978 22.0641Z" fill="white"/>
</g>
<defs>
<filter id="filter0_d_1822_26820" x="5.33398" y="4.50006" width="57" height="75" filterUnits="userSpaceOnUse" color-interpolation-filters="sRGB">
<feFlood flood-opacity="0" result="BackgroundImageFix"/>
<feColorMatrix in="SourceAlpha" type="matrix" values="0 0 0 0 0 0 0 0 0 0 0 0 0 0 0 0 0 0 127 0" result="hardAlpha"/>
<feOffset dy="3"/>
<feGaussianBlur stdDeviation="3.75"/>
<feComposite in2="hardAlpha" operator="out"/>
<feColorMatrix type="matrix" values="0 0 0 0 0 0 0 0 0 0 0 0 0 0 0 0 0 0 0.3 0"/>
<feBlend mode="normal" in2="BackgroundImageFix" result="effect1_dropShadow_1822_26820"/>
<feBlend mode="normal" in="SourceGraphic" in2="effect1_dropShadow_1822_26820" result="shape"/>
</filter>
<filter id="filter1_d_1822_26820" x="23.334" y="4.50006" width="57" height="75" filterUnits="userSpaceOnUse" color-interpolation-filters="sRGB">
<feFlood flood-opacity="0" result="BackgroundImageFix"/>
<feColorMatrix in="SourceAlpha" type="matrix" values="0 0 0 0 0 0 0 0 0 0 0 0 0 0 0 0 0 0 127 0" result="hardAlpha"/>
<feOffset dy="3"/>
<feGaussianBlur stdDeviation="3.75"/>
<feComposite in2="hardAlpha" operator="out"/>
<feColorMatrix type="matrix" values="0 0 0 0 0 0 0 0 0 0 0 0 0 0 0 0 0 0 0.3 0"/>
<feBlend mode="normal" in2="BackgroundImageFix" result="effect1_dropShadow_1822_26820"/>
<feBlend mode="normal" in="SourceGraphic" in2="effect1_dropShadow_1822_26820" result="shape"/>
</filter>
<filter id="filter2_d_1822_26820" x="41.334" y="4.50006" width="57" height="75" filterUnits="userSpaceOnUse" color-interpolation-filters="sRGB">
<feFlood flood-opacity="0" result="BackgroundImageFix"/>
<feColorMatrix in="SourceAlpha" type="matrix" values="0 0 0 0 0 0 0 0 0 0 0 0 0 0 0 0 0 0 127 0" result="hardAlpha"/>
<feOffset dy="3"/>
<feGaussianBlur stdDeviation="3.75"/>
<feComposite in2="hardAlpha" operator="out"/>
<feColorMatrix type="matrix" values="0 0 0 0 0 0 0 0 0 0 0 0 0 0 0 0 0 0 0.3 0"/>
<feBlend mode="normal" in2="BackgroundImageFix" result="effect1_dropShadow_1822_26820"/>
<feBlend mode="normal" in="SourceGraphic" in2="effect1_dropShadow_1822_26820" result="shape"/>
</filter>
<filter id="filter3_d_1822_26820" x="59.334" y="4.50006" width="57" height="75" filterUnits="userSpaceOnUse" color-interpolation-filters="sRGB">
<feFlood flood-opacity="0" result="BackgroundImageFix"/>
<feColorMatrix in="SourceAlpha" type="matrix" values="0 0 0 0 0 0 0 0 0 0 0 0 0 0 0 0 0 0 127 0" result="hardAlpha"/>
<feOffset dy="3"/>
<feGaussianBlur stdDeviation="3.75"/>
<feComposite in2="hardAlpha" operator="out"/>
<feColorMatrix type="matrix" values="0 0 0 0 0 0 0 0 0 0 0 0 0 0 0 0 0 0 0.3 0"/>
<feBlend mode="normal" in2="BackgroundImageFix" result="effect1_dropShadow_1822_26820"/>
<feBlend mode="normal" in="SourceGraphic" in2="effect1_dropShadow_1822_26820" result="shape"/>
</filter>
</defs>
</svg>
