<svg width="25" height="24" viewBox="0 0 25 24" fill="none" xmlns="http://www.w3.org/2000/svg">
<path d="M17.3359 3.00007C16.4628 2.99857 15.6014 3.20084 14.8202 3.59078C14.039 3.98072 13.3596 4.54758 12.8359 5.24627C12.1268 4.30272 11.1389 3.60606 10.012 3.25488C8.88508 2.90371 7.6763 2.91579 6.55665 3.28942C5.43701 3.66306 4.46322 4.37932 3.77306 5.33686C3.0829 6.2944 2.71134 7.44473 2.71094 8.62507C2.71094 15.3622 12.071 20.6813 12.4695 20.9044C12.5814 20.9671 12.7076 21.0001 12.8359 21.0001C12.9643 21.0001 13.0905 20.9671 13.2024 20.9044C14.9239 19.8962 16.5396 18.7173 18.0251 17.3857C21.3003 14.438 22.9609 11.4905 22.9609 8.62507C22.9592 7.13375 22.3661 5.70399 21.3115 4.64946C20.257 3.59493 18.8273 3.00176 17.3359 3.00007Z" fill="white"/>
</svg>
