<svg width="25" height="24" viewBox="0 0 25 24" fill="none" xmlns="http://www.w3.org/2000/svg">
<path d="M22.584 13.125C22.584 14.0276 22.3513 14.9149 21.9084 15.7013C21.4656 16.4877 20.8274 17.1467 20.0556 17.6145C19.2838 18.0824 18.4044 18.3434 17.5023 18.3723C16.6002 18.4013 15.7059 18.1971 14.9057 17.7797L16.0252 21.1379C16.0628 21.2507 16.073 21.3707 16.0551 21.4882C16.0372 21.6057 15.9916 21.7172 15.9221 21.8136C15.8526 21.91 15.7612 21.9885 15.6555 22.0427C15.5497 22.0968 15.4325 22.1251 15.3137 22.125H10.3543C10.2354 22.1251 10.1183 22.0968 10.0125 22.0427C9.90671 21.9885 9.8153 21.91 9.74581 21.8136C9.67633 21.7172 9.63075 21.6056 9.61283 21.4881C9.59492 21.3706 9.60518 21.2506 9.64278 21.1378L10.7622 17.7797C9.96204 18.1971 9.06774 18.4013 8.16565 18.3723C7.26357 18.3434 6.38418 18.0824 5.61237 17.6145C4.84057 17.1467 4.20242 16.4877 3.75953 15.7013C3.31664 14.9149 3.08397 14.0276 3.08398 13.125C3.08398 8.10255 12.242 2.18367 12.6318 1.93419C12.6922 1.89554 12.7623 1.875 12.834 1.875C12.9056 1.875 12.9758 1.89554 13.0361 1.93419C13.426 2.18367 22.584 8.10255 22.584 13.125Z" fill="white"/>
</svg>
