<svg width="152" height="31" viewBox="0 0 152 31" fill="none" xmlns="http://www.w3.org/2000/svg">
<g clip-path="url(#clip0_2358_85926)">
<path d="M144.651 12.0307C144.285 12.3811 143.994 12.8033 143.798 13.2711C143.601 13.7389 143.504 14.2422 143.51 14.7494C143.497 15.2735 143.59 15.7949 143.782 16.2827C143.974 16.7705 144.262 17.2147 144.629 17.5891C144.983 17.9625 145.411 18.2577 145.885 18.456C146.36 18.6542 146.871 18.7511 147.385 18.7404C147.898 18.7477 148.407 18.6493 148.88 18.4512C149.353 18.2531 149.78 17.9597 150.135 17.5891C150.866 16.8518 151.276 15.8556 151.276 14.8174C151.276 13.7792 150.866 12.7831 150.135 12.0457C149.776 11.6834 149.349 11.3955 148.879 11.1987C148.409 11.0018 147.904 10.8998 147.394 10.8985C146.884 10.8971 146.379 10.9966 145.908 11.191C145.436 11.3855 145.008 11.6712 144.648 12.0316L144.651 12.0307ZM149.466 14.8563C149.467 15.2598 149.347 15.6543 149.123 15.9899C148.899 16.3255 148.58 16.5872 148.208 16.7417C147.835 16.8962 147.425 16.9368 147.029 16.8582C146.633 16.7796 146.27 16.5854 145.984 16.3001C145.699 16.0148 145.504 15.6513 145.426 15.2556C145.347 14.8598 145.387 14.4496 145.542 14.0768C145.696 13.704 145.958 13.3853 146.293 13.1611C146.629 12.9369 147.023 12.8173 147.426 12.8173C147.694 12.817 147.96 12.8696 148.207 12.972C148.455 13.0743 148.68 13.2245 148.869 13.4139C149.059 13.6033 149.209 13.8281 149.311 14.0756C149.414 14.3232 149.467 14.5884 149.466 14.8563Z" fill="#003013"/>
<path d="M150.138 20.7887C149.6 20.2209 148.896 19.8382 148.127 19.6956V21.6906C148.575 21.8534 148.952 22.1678 149.193 22.5794C149.433 22.9909 149.522 23.4736 149.444 23.9439C149.366 24.4141 149.126 24.8422 148.766 25.1541C148.405 25.4659 147.947 25.6418 147.47 25.6512C146.994 25.6606 146.529 25.503 146.156 25.2057C145.784 24.9083 145.527 24.49 145.43 24.0232C145.334 23.5564 145.404 23.0705 145.628 22.6498C145.852 22.2291 146.216 21.9 146.657 21.7197V19.6909C145.773 19.87 144.976 20.3485 144.403 21.0459C143.83 21.7432 143.514 22.6168 143.509 23.5197C143.496 24.0486 143.588 24.5749 143.78 25.068C143.972 25.561 144.26 26.0108 144.628 26.3912C144.98 26.768 145.407 27.0663 145.882 27.2669C146.357 27.4676 146.868 27.5659 147.384 27.5556C147.898 27.5625 148.408 27.4625 148.881 27.262C149.354 27.0616 149.781 26.7651 150.134 26.3912C150.864 25.6413 151.273 24.6359 151.273 23.589C151.273 22.5422 150.864 21.5368 150.134 20.7869" fill="#003013"/>
<path d="M147.497 30.7937C147.346 30.8015 147.195 30.778 147.053 30.7246C146.912 30.6712 146.783 30.589 146.675 30.4833C146.567 30.3776 146.482 30.2507 146.425 30.1105C146.368 29.9703 146.341 29.8199 146.346 29.6687C146.34 29.44 146.403 29.2149 146.527 29.0221C146.65 28.8294 146.828 28.6777 147.038 28.5866C147.248 28.4954 147.48 28.4688 147.705 28.5102C147.93 28.5516 148.138 28.6592 148.301 28.8191C148.465 28.979 148.577 29.184 148.624 29.408C148.67 29.6321 148.649 29.8649 148.563 30.0768C148.477 30.2886 148.329 30.47 148.139 30.5977C147.949 30.7254 147.726 30.7936 147.497 30.7937Z" fill="#003013"/>
<path d="M146.286 0.68506H151.294V2.49725H146.355H146.291H146.227C146.092 2.50602 145.96 2.54311 145.841 2.60609C145.721 2.66908 145.615 2.75657 145.532 2.86287L145.516 2.88256L145.502 2.90131C145.406 3.03523 145.346 3.19161 145.328 3.3554C145.31 3.51919 145.334 3.68487 145.399 3.8365C145.463 3.98813 145.566 4.1206 145.696 4.22116C145.827 4.32173 145.981 4.38699 146.144 4.41069H146.168H146.186H146.207H146.226H146.231H146.291C146.312 4.41069 146.333 4.41069 146.355 4.41069H148.899H151.296V6.23506H146.327H146.286H146.237C145.992 6.24733 145.762 6.35279 145.593 6.52975C145.424 6.70671 145.329 6.94169 145.328 7.18635C145.327 7.43101 145.42 7.66674 145.588 7.84501C145.755 8.02329 145.985 8.13056 146.229 8.14475H146.253H151.296V9.9485H143.515V8.14569H143.782C143.636 7.9319 143.546 7.68506 143.52 7.42756C143.52 7.40787 143.52 7.38912 143.52 7.36944C143.52 7.34975 143.52 7.33662 143.52 7.31975C143.52 7.30287 143.52 7.31225 143.52 7.3085C143.52 7.26819 143.52 7.22881 143.52 7.18944C143.52 7.12944 143.52 7.07037 143.525 7.01225C143.542 6.74658 143.597 6.48476 143.69 6.23506C143.814 5.89928 144.002 5.59078 144.244 5.32662C143.819 4.86255 143.565 4.26709 143.525 3.63912C143.525 3.58006 143.52 3.52006 143.52 3.46006C143.52 3.40006 143.52 3.34006 143.525 3.281C143.542 3.013 143.599 2.74894 143.692 2.49725C143.891 1.96475 144.247 1.50571 144.714 1.18177C145.181 0.857829 145.736 0.684501 146.304 0.68506" fill="#003013"/>
<path d="M21.2216 20.6408C21.2427 19.3028 20.9881 17.9749 20.4738 16.7396C19.9594 15.5043 19.1963 14.3881 18.2319 13.4604C17.3007 12.4884 16.179 11.7189 14.937 11.1999C13.6949 10.681 12.3591 10.4238 11.0132 10.4445C9.67442 10.4247 8.34606 10.6824 7.11187 11.2015C5.87767 11.7206 4.7644 12.4897 3.84224 13.4604C2.88841 14.3995 2.13093 15.519 1.61388 16.7537C1.09684 17.9883 0.830566 19.3135 0.830566 20.652C0.830566 21.9906 1.09684 23.3157 1.61388 24.5504C2.13093 25.785 2.88841 26.9045 3.84224 27.8436C4.76764 28.8086 5.88202 29.5724 7.11582 30.0874C8.34962 30.6025 9.67635 30.8576 11.0132 30.837C12.9206 30.8654 14.7951 30.3376 16.4076 29.3183V30.837H21.2169L21.2216 20.6408ZM11.0282 26.2395C9.95873 26.241 8.91287 25.9252 8.02293 25.3322C7.133 24.7391 6.43898 23.8954 6.02869 22.9077C5.6184 21.9201 5.51028 20.833 5.71801 19.7839C5.92574 18.7348 6.43998 17.7709 7.19567 17.0142C7.95136 16.2575 8.91454 15.7419 9.96333 15.5327C11.0121 15.3235 12.0994 15.4301 13.0876 15.839C14.0758 16.2479 14.9205 16.9408 15.5148 17.8299C16.1091 18.719 16.4263 19.7644 16.4263 20.8339C16.4268 21.5433 16.2876 22.2458 16.0165 22.9014C15.7455 23.557 15.348 24.1527 14.8468 24.6547C14.3455 25.1566 13.7503 25.555 13.0951 25.8269C12.4399 26.0988 11.7376 26.239 11.0282 26.2395Z" fill="#003013"/>
<path d="M90.0001 20.6407C89.9904 18.3945 89.2362 16.215 87.8553 14.4434C86.4745 12.6718 84.5451 11.4081 82.3693 10.8503C80.1934 10.2925 77.8941 10.472 75.8312 11.3607C73.7684 12.2494 72.0584 13.7971 70.9692 15.7616C69.88 17.726 69.4731 19.9962 69.8121 22.2166C70.1511 24.4371 71.2169 26.4824 72.8426 28.0323C74.4684 29.5823 76.5622 30.5493 78.7963 30.782C81.0304 31.0147 83.2786 30.4999 85.1888 29.3182V30.8369H90.0001V20.6407ZM79.8038 26.2394C78.7345 26.2406 77.6888 25.9245 76.7991 25.3312C75.9094 24.7379 75.2156 23.894 74.8056 22.9064C74.3956 21.9187 74.2878 20.8316 74.4957 19.7827C74.7037 18.7337 75.2181 17.77 75.9738 17.0135C76.7296 16.2569 77.6928 15.7415 78.7416 15.5325C79.7903 15.3234 80.8775 15.4302 81.8656 15.8391C82.8537 16.2481 83.6982 16.941 84.2924 17.83C84.8867 18.7191 85.2038 19.7645 85.2038 20.8338C85.2042 21.5433 85.0649 22.246 84.7937 22.9016C84.5225 23.5572 84.1248 24.1531 83.6234 24.655C83.122 25.157 82.5266 25.5553 81.8712 25.8271C81.2158 26.099 80.5133 26.2391 79.8038 26.2394Z" fill="#003013"/>
<path d="M39.3898 0.686035V11.9407C37.7986 10.9242 35.9443 10.3965 34.0564 10.4229C32.7105 10.4029 31.375 10.6604 30.133 11.1793C28.891 11.6982 27.7693 12.4673 26.8376 13.4388C25.8715 14.3698 25.1073 15.4896 24.5927 16.7286C24.078 17.9676 23.8238 19.2993 23.8461 20.6407C23.8265 21.982 24.0818 23.313 24.5963 24.5518C25.1108 25.7905 25.8736 26.9108 26.8376 27.8435C27.7809 28.7923 28.9023 29.5452 30.1376 30.059C31.3728 30.5727 32.6975 30.8372 34.0353 30.8372C35.3731 30.8372 36.6978 30.5727 37.933 30.059C39.1682 29.5452 40.2897 28.7923 41.2329 27.8435C42.2025 26.9139 42.9704 25.7947 43.4887 24.5556C44.0071 23.3164 44.2649 21.9838 44.2461 20.6407V0.686035H39.3898ZM34.0461 26.2329C32.978 26.234 31.9336 25.9183 31.045 25.3257C30.1564 24.7332 29.4635 23.8903 29.054 22.9039C28.6445 21.9174 28.5367 20.8317 28.7444 19.784C28.9521 18.7363 29.4659 17.7738 30.2207 17.0181C30.9756 16.2625 31.9376 15.7477 32.9851 15.5389C34.0325 15.3302 35.1184 15.4367 36.1053 15.8452C37.0921 16.2537 37.9357 16.9457 38.5292 17.8337C39.1227 18.7217 39.4395 19.7658 39.4395 20.8338C39.4397 21.5427 39.3003 22.2446 39.0293 22.8996C38.7582 23.5546 38.3608 24.1498 37.8597 24.6511C37.3586 25.1525 36.7636 25.5502 36.1088 25.8216C35.454 26.093 34.7521 26.2328 34.0432 26.2329" fill="#003013"/>
<path d="M67.1879 0.686035H62.3429V11.9407C60.7561 10.9245 58.9058 10.3968 57.0216 10.4229C55.6782 10.4031 54.3451 10.6608 53.1058 11.1797C51.8664 11.6987 50.7474 12.4677 49.8188 13.4389C48.8544 14.3707 48.0919 15.4909 47.5784 16.7298C47.0649 17.9686 46.8115 19.2998 46.8339 20.6407C46.8141 21.9814 47.0687 23.312 47.582 24.5506C48.0953 25.7893 48.8565 26.9099 49.8188 27.8435C50.7588 28.7921 51.8774 29.545 53.11 30.0589C54.3426 30.5727 55.6647 30.8372 57.0001 30.8372C58.3355 30.8372 59.6577 30.5727 60.8903 30.0589C62.1228 29.545 63.2414 28.7921 64.1814 27.8435C65.1492 26.913 65.9155 25.7934 66.4327 24.5544C66.9499 23.3153 67.207 21.9832 67.1879 20.6407V0.686035ZM57.0113 26.2376C55.9417 26.2408 54.8952 25.9265 54.0044 25.3345C53.1135 24.7426 52.4182 23.8996 52.0067 22.9123C51.5952 21.925 51.4859 20.8378 51.6926 19.7883C51.8994 18.7389 52.4129 17.7743 53.1681 17.0169C53.9233 16.2594 54.8863 15.7431 55.9351 15.5333C56.984 15.3234 58.0715 15.4295 59.06 15.8381C60.0485 16.2467 60.8936 16.9394 61.4882 17.8286C62.0827 18.7177 62.4001 19.7633 62.4001 20.8329C62.4012 21.5416 62.2627 22.2436 61.9925 22.8988C61.7223 23.554 61.3256 24.1496 60.8252 24.6514C60.3248 25.1533 59.7305 25.5517 59.0761 25.8239C58.4217 26.096 57.7201 26.2366 57.0113 26.2376Z" fill="#003013"/>
<path d="M125.134 26.273C124.801 26.5155 124.62 26.703 124.591 26.8355C124.574 26.897 124.576 26.9619 124.596 27.0223C124.617 27.0826 124.654 27.1357 124.704 27.1749C124.816 27.2691 124.947 27.3384 125.088 27.3784C125.197 27.4086 125.303 27.4465 125.405 27.4918H135.361C135.954 27.5048 136.534 27.3216 137.013 26.9705C137.481 26.6227 137.913 26.2282 138.303 25.793C138.694 25.3555 139.048 24.9627 139.366 24.6146C139.469 24.4721 139.601 24.3524 139.753 24.2628C139.905 24.1731 140.073 24.1155 140.248 24.0934C141.06 24.0934 141.467 24.4709 141.467 25.2259C141.47 26.4817 141.143 27.7163 140.517 28.8052C140.269 29.3792 139.868 29.8734 139.357 30.2333C138.846 30.5932 138.245 30.8046 137.621 30.8443H119.386C119.262 30.8428 119.14 30.8158 119.027 30.7652C118.914 30.7146 118.813 30.6413 118.729 30.5499C118.527 30.3447 118.372 30.0972 118.277 29.8252C118.17 29.5275 118.147 29.2062 118.209 28.8962C118.289 28.5329 118.498 28.211 118.798 27.9905C120.427 26.6018 122.056 25.2199 123.685 23.8449C125.237 22.5441 126.703 21.144 128.074 19.6534C129.307 18.324 130.371 16.8479 131.242 15.2583C132.038 13.8153 132.458 12.1946 132.461 10.5465C132.459 9.96219 132.367 9.38167 132.189 8.82522C132.012 8.25811 131.719 7.73374 131.329 7.28491C130.925 6.82277 130.432 6.44549 129.881 6.17491C129.259 5.87602 128.58 5.71364 127.89 5.69866C127.034 5.65731 126.177 5.71044 125.333 5.8571C124.721 5.96867 124.132 6.18327 123.591 6.49179C123.101 6.7852 122.665 7.16065 122.301 7.60179C121.926 8.05429 121.527 8.58272 121.102 9.1871C120.8 9.61022 120.506 9.79148 120.22 9.73085C119.934 9.67023 119.723 9.42023 119.586 8.98085C119.443 8.39499 119.42 7.78615 119.519 7.19116C119.657 6.28782 119.948 5.41451 120.379 4.60835C120.499 4.3671 120.664 3.9971 120.876 3.49835C121.078 3.01799 121.32 2.55569 121.6 2.11647C121.824 1.74815 122.107 1.41909 122.437 1.14241C122.499 1.08811 122.572 1.04674 122.65 1.02074C122.728 0.994741 122.811 0.984633 122.893 0.991008C122.975 0.997383 123.055 1.02011 123.128 1.05787C123.202 1.09562 123.267 1.14763 123.319 1.21085C123.539 1.42894 123.826 1.56498 124.134 1.59616C124.405 1.61179 124.662 1.63429 124.904 1.66366C125.216 1.68912 125.53 1.65735 125.831 1.56991C126.177 1.47929 126.547 1.38116 126.94 1.27554C127.333 1.16991 127.74 1.06397 128.159 0.957724C128.588 0.851326 129.029 0.798114 129.471 0.799286C130.849 0.78822 132.221 0.977706 133.544 1.36179C134.742 1.70457 135.863 2.27356 136.847 3.03804C137.775 3.77133 138.532 4.69937 139.064 5.75679C139.618 6.87568 139.897 8.11037 139.879 9.35866C139.864 10.5966 139.562 11.8143 138.996 12.9155C138.381 14.1517 137.63 15.3152 136.757 16.3843C135.822 17.5335 134.801 18.6091 133.702 19.6018C132.571 20.6293 131.455 21.5734 130.353 22.434C129.252 23.2946 128.234 24.0496 127.299 24.699C126.362 25.349 125.638 25.8699 125.127 26.2618" fill="#003013"/>
<path d="M117.941 21.4957C117.966 22.8815 117.621 24.2489 116.941 25.4567C116.257 26.6292 115.318 27.6328 114.194 28.3929C112.941 29.2363 111.55 29.8529 110.084 30.2145C108.436 30.633 106.742 30.8394 105.043 30.8286C103.016 30.8572 100.994 30.6275 99.0248 30.1451C97.3111 29.7057 95.7492 28.8088 94.5061 27.5501C94.4397 27.472 94.3894 27.3815 94.3582 27.2838C94.327 27.1861 94.3153 27.0832 94.3241 26.9811C94.324 26.7227 94.3781 26.4673 94.4826 26.2311C94.5676 26.0156 94.7088 25.8269 94.8914 25.6845C94.9827 25.6252 95.0891 25.5936 95.1979 25.5936C95.3067 25.5936 95.4132 25.6252 95.5045 25.6845C96.7032 26.4031 98.0053 26.9331 99.3651 27.2557C100.958 27.6207 102.592 27.7661 104.224 27.6879C105.046 27.6626 105.858 27.5089 106.632 27.2323C107.362 26.9739 108.045 26.597 108.653 26.1167C109.241 25.6482 109.721 25.0577 110.059 24.3861C110.414 23.6722 110.593 22.8836 110.581 22.0864C110.64 21.3732 110.555 20.6556 110.333 19.9755C110.111 19.2954 109.755 18.6665 109.287 18.1254C108.41 17.1943 107.283 16.5377 106.04 16.2354C104.723 15.9158 103.354 15.8771 102.021 16.122C100.729 16.3226 99.4871 16.7712 98.3648 17.4429C98.2481 17.5115 98.1137 17.5442 97.9786 17.5367C97.8032 17.5346 97.6312 17.4878 97.4789 17.4007C97.2994 17.297 97.1506 17.1475 97.0476 16.9676C96.9147 16.7238 96.8518 16.4481 96.8657 16.1707V2.78232C96.8649 2.26875 97.0234 1.76757 97.3195 1.34794C97.531 1.10507 97.7992 0.918113 98.1002 0.803643C98.4013 0.689173 98.7259 0.65072 99.0454 0.691692C100.499 0.691692 101.914 0.706692 103.291 0.736692C104.669 0.766692 106.039 0.789504 107.401 0.805129C108.764 0.820754 110.149 0.828254 111.557 0.827629C112.965 0.827004 114.441 0.781692 115.985 0.691692C116.439 0.629192 116.658 0.826379 116.641 1.28325C116.6 1.82817 116.437 2.35692 116.165 2.83107C115.848 3.42744 115.442 3.97235 114.961 4.44732C114.784 4.66019 114.566 4.83599 114.321 4.96468C114.075 5.09337 113.807 5.17242 113.531 5.19732C111.926 5.19732 110.548 5.16607 109.398 5.10357C108.248 5.04107 107.181 4.98794 106.197 4.94419C105.212 4.89857 104.244 4.89107 103.29 4.92169C102.337 4.95232 101.27 5.04325 100.089 5.1945V13.257C101.918 12.6006 103.844 12.2543 105.788 12.2323C107.763 12.1718 109.733 12.4727 111.6 13.1201C113.34 13.7169 114.896 14.752 116.119 16.1257C117.377 17.6253 118.026 19.5431 117.936 21.4986" fill="#003013"/>
</g>
<defs>
<clipPath id="clip0_2358_85926">
<rect width="150.789" height="30" fill="white" transform="translate(0.505859 0.850098)"/>
</clipPath>
</defs>
</svg>
