<svg width="112" height="22" viewBox="0 0 112 22" fill="none" xmlns="http://www.w3.org/2000/svg">
<path d="M106.772 8.19912C106.5 8.45606 106.285 8.76573 106.139 9.10878C105.994 9.45183 105.921 9.82087 105.927 10.1929C105.917 10.5772 105.985 10.9595 106.127 11.3172C106.27 11.6749 106.483 12.0007 106.755 12.2753C107.017 12.5491 107.334 12.7656 107.686 12.911C108.037 13.0564 108.416 13.1274 108.797 13.1196C109.177 13.1249 109.553 13.0528 109.904 12.9075C110.254 12.7622 110.571 12.547 110.833 12.2753C111.375 11.7346 111.678 11.004 111.678 10.2427C111.678 9.48139 111.375 8.75088 110.833 8.21013C110.568 7.94444 110.251 7.73334 109.903 7.58896C109.555 7.44458 109.181 7.36976 108.803 7.36881C108.426 7.36785 108.051 7.44077 107.702 7.58338C107.353 7.72599 107.036 7.93548 106.769 8.19982L106.772 8.19912ZM110.338 10.2713C110.338 10.5672 110.25 10.8565 110.084 11.1026C109.918 11.3487 109.682 11.5405 109.406 11.6539C109.13 11.7672 108.826 11.7969 108.533 11.7393C108.24 11.6816 107.97 11.5392 107.759 11.33C107.548 11.1208 107.403 10.8543 107.345 10.564C107.287 10.2738 107.317 9.973 107.431 9.6996C107.545 9.4262 107.739 9.19252 107.988 9.02811C108.236 8.86369 108.528 8.77594 108.827 8.77594C109.026 8.77576 109.222 8.81431 109.405 8.88938C109.589 8.96446 109.755 9.07458 109.896 9.21346C110.036 9.35234 110.147 9.51724 110.223 9.69875C110.299 9.88025 110.338 10.0748 110.338 10.2713Z" fill="white"/>
<path d="M110.836 14.6218C110.438 14.2054 109.916 13.9247 109.346 13.8201V15.2831C109.678 15.4025 109.958 15.6331 110.136 15.9349C110.314 16.2367 110.38 16.5907 110.322 16.9355C110.264 17.2804 110.086 17.5943 109.819 17.823C109.552 18.0517 109.213 18.1806 108.86 18.1875C108.507 18.1945 108.163 18.0789 107.887 17.8608C107.611 17.6428 107.42 17.336 107.349 16.9937C107.277 16.6514 107.329 16.2951 107.495 15.9866C107.661 15.678 107.931 15.4367 108.258 15.3044V13.8167C107.602 13.948 107.012 14.2989 106.588 14.8103C106.163 15.3217 105.929 15.9624 105.926 16.6244C105.916 17.0123 105.984 17.3983 106.126 17.7599C106.268 18.1214 106.482 18.4513 106.754 18.7303C107.015 19.0065 107.331 19.2253 107.683 19.3724C108.035 19.5196 108.414 19.5917 108.796 19.5841C109.176 19.5892 109.554 19.5158 109.905 19.3689C110.255 19.2219 110.571 19.0044 110.833 18.7303C111.374 18.1803 111.676 17.443 111.676 16.6753C111.676 15.9076 111.374 15.1703 110.833 14.6204" fill="white"/>
<path d="M108.88 21.9587C108.768 21.9645 108.656 21.9472 108.551 21.908C108.447 21.8689 108.351 21.8086 108.271 21.7311C108.191 21.6536 108.128 21.5605 108.086 21.4577C108.044 21.3549 108.024 21.2446 108.027 21.1337C108.023 20.966 108.07 20.8009 108.161 20.6596C108.253 20.5182 108.384 20.407 108.54 20.3402C108.695 20.2733 108.867 20.2538 109.034 20.2842C109.201 20.3146 109.354 20.3934 109.476 20.5107C109.597 20.6279 109.68 20.7783 109.715 20.9426C109.749 21.1069 109.733 21.2776 109.669 21.433C109.606 21.5884 109.496 21.7214 109.356 21.815C109.215 21.9087 109.049 21.9587 108.88 21.9587Z" fill="white"/>
<path d="M107.983 -0.121001H111.692V1.20794H108.034H107.987H107.94C107.84 1.21437 107.742 1.24157 107.653 1.28776C107.564 1.33395 107.486 1.39811 107.424 1.47606L107.413 1.4905L107.402 1.50425C107.331 1.60246 107.287 1.71714 107.273 1.83725C107.26 1.95736 107.278 2.07886 107.326 2.19006C107.374 2.30125 107.449 2.3984 107.546 2.47214C107.643 2.54589 107.757 2.59375 107.878 2.61112H107.896H107.909H107.924H107.939H107.942H107.987C108.002 2.61112 108.018 2.61112 108.034 2.61112H109.919H111.694V3.949H108.013H107.983H107.947C107.766 3.958 107.595 4.03534 107.47 4.1651C107.345 4.29487 107.274 4.4672 107.274 4.64661C107.273 4.82603 107.342 4.99889 107.466 5.12963C107.59 5.26037 107.76 5.33903 107.941 5.34944H107.958H111.694V6.67219H105.931V5.35012H106.129C106.02 5.19335 105.954 5.01233 105.934 4.8235C105.934 4.80906 105.934 4.79531 105.934 4.78087C105.934 4.76644 105.934 4.75681 105.934 4.74444C105.934 4.73206 105.934 4.73894 105.934 4.73619C105.934 4.70662 105.934 4.67775 105.934 4.64887C105.934 4.60487 105.934 4.56156 105.938 4.51894C105.951 4.32412 105.992 4.13211 106.06 3.949C106.152 3.70276 106.291 3.47652 106.47 3.28281C106.156 2.94249 105.968 2.50582 105.938 2.04531C105.938 2.002 105.934 1.958 105.934 1.914C105.934 1.87 105.934 1.826 105.938 1.78269C105.951 1.58615 105.993 1.39251 106.062 1.20794C106.209 0.817438 106.473 0.480808 106.819 0.243252C107.165 0.00569643 107.576 -0.121411 107.997 -0.121001" fill="white"/>
<path d="M15.3453 14.5131C15.3609 13.532 15.1724 12.5581 14.7914 11.6523C14.4104 10.7464 13.8452 9.92782 13.1308 9.24756C12.4411 8.53472 11.6102 7.97039 10.6902 7.58984C9.77016 7.20929 8.78074 7.02071 7.78377 7.03587C6.79213 7.02133 5.80819 7.21035 4.894 7.59101C3.97981 7.97166 3.15519 8.53569 2.47213 9.24756C1.76562 9.93623 1.20453 10.7572 0.82155 11.6626C0.438566 12.568 0.241333 13.5398 0.241333 14.5214C0.241333 15.503 0.438566 16.4748 0.82155 17.3802C1.20453 18.2856 1.76562 19.1065 2.47213 19.7952C3.15759 20.5028 3.98303 21.063 4.89693 21.4407C5.81083 21.8184 6.79356 22.0055 7.78377 21.9904C9.19666 22.0112 10.5851 21.6242 11.7795 20.8766V21.9904H15.3419L15.3453 14.5131ZM7.79488 18.6189C7.00272 18.62 6.22803 18.3884 5.56884 17.9535C4.90965 17.5185 4.39558 16.8998 4.09167 16.1756C3.78776 15.4513 3.70768 14.6541 3.86155 13.8848C4.01541 13.1154 4.39632 12.4086 4.95608 11.8536C5.51583 11.2987 6.22927 10.9206 7.00613 10.7672C7.78299 10.6138 8.58835 10.692 9.32032 10.9919C10.0523 11.2917 10.678 11.7998 11.1182 12.4518C11.5584 13.1038 11.7934 13.8705 11.7934 14.6547C11.7937 15.175 11.6906 15.6902 11.4899 16.1709C11.2891 16.6517 10.9947 17.0886 10.6234 17.4567C10.2521 17.8248 9.8112 18.1169 9.32589 18.3163C8.84057 18.5157 8.32033 18.6185 7.79488 18.6189Z" fill="white"/>
<path d="M66.2903 14.5131C66.2831 12.8659 65.7244 11.2676 64.7016 9.96844C63.6788 8.66925 62.2497 7.74258 60.638 7.3335C59.0263 6.92442 57.3232 7.05605 55.7952 7.70777C54.2672 8.3595 53.0006 9.49452 52.1938 10.9351C51.387 12.3757 51.0856 14.0405 51.3367 15.6688C51.5878 17.2971 52.3772 18.7971 53.5815 19.9337C54.7857 21.0703 56.3366 21.7794 57.9914 21.9501C59.6463 22.1207 61.3116 21.7432 62.7265 20.8766V21.9904H66.2903V14.5131ZM58.7377 18.6189C57.9456 18.6197 57.1711 18.3879 56.5121 17.9528C55.8531 17.5177 55.3392 16.8989 55.0355 16.1746C54.7318 15.4503 54.6519 14.6532 54.8059 13.8839C54.96 13.1147 55.341 12.408 55.9008 11.8532C56.4606 11.2984 57.1741 10.9204 57.9509 10.7671C58.7277 10.6138 59.533 10.6921 60.2649 10.992C60.9968 11.2919 61.6224 11.8 62.0625 12.452C62.5027 13.104 62.7376 13.8706 62.7376 14.6548C62.7379 15.1751 62.6347 15.6903 62.4338 16.1711C62.2329 16.6519 61.9384 17.0889 61.567 17.457C61.1955 17.8251 60.7545 18.1171 60.2691 18.3165C59.7836 18.5159 59.2633 18.6186 58.7377 18.6189Z" fill="white"/>
<path d="M28.8032 -0.120308V8.13313C27.6246 7.3877 26.2511 7.00072 24.8527 7.02007C23.8558 7.0054 22.8665 7.19421 21.9466 7.57473C21.0266 7.95525 20.1957 8.51931 19.5056 9.23175C18.79 9.91442 18.2239 10.7356 17.8427 11.6442C17.4615 12.5528 17.2733 13.5294 17.2897 14.5131C17.2752 15.4967 17.4644 16.4728 17.8455 17.3812C18.2266 18.2897 18.7916 19.1112 19.5056 19.7952C20.2043 20.4909 21.035 21.0431 21.9499 21.4198C22.8649 21.7966 23.8461 21.9906 24.8371 21.9906C25.828 21.9906 26.8092 21.7966 27.7242 21.4198C28.6391 21.0431 29.4698 20.4909 30.1685 19.7952C30.8866 19.1135 31.4554 18.2927 31.8394 17.384C32.2234 16.4753 32.4143 15.4981 32.4004 14.5131V-0.120308H28.8032ZM24.845 18.6141C24.0539 18.6149 23.2803 18.3834 22.6221 17.9488C21.9639 17.5143 21.4506 16.8962 21.1473 16.1728C20.844 15.4494 20.7642 14.6532 20.918 13.8849C21.0719 13.1166 21.4524 12.4107 22.0116 11.8566C22.5707 11.3024 23.2833 10.9249 24.0591 10.7718C24.835 10.6187 25.6393 10.6969 26.3703 10.9964C27.1013 11.296 27.7262 11.8035 28.1658 12.4546C28.6054 13.1058 28.84 13.8715 28.84 14.6548C28.8402 15.1746 28.737 15.6893 28.5362 16.1697C28.3354 16.65 28.041 17.0864 27.6699 17.4541C27.2987 17.8218 26.858 18.1134 26.3729 18.3125C25.8879 18.5115 25.368 18.614 24.8429 18.6141" fill="white"/>
<path d="M49.3936 -0.120308H45.8048V8.13313C44.6294 7.38793 43.2588 7.00089 41.8632 7.02007C40.8681 7.00557 39.8807 7.19451 38.9627 7.57506C38.0447 7.95562 37.2158 8.51961 36.528 9.23175C35.8137 9.91514 35.2488 10.7366 34.8685 11.6451C34.4881 12.5536 34.3004 13.5298 34.317 14.5131C34.3023 15.4963 34.4909 16.472 34.8711 17.3804C35.2514 18.2887 35.8152 19.1105 36.528 19.7952C37.2243 20.4908 38.0528 21.0429 38.9658 21.4198C39.8788 21.7966 40.8582 21.9906 41.8473 21.9906C42.8365 21.9906 43.8158 21.7966 44.7288 21.4198C45.6418 21.0429 46.4703 20.4908 47.1666 19.7952C47.8835 19.1128 48.4511 18.2918 48.8342 17.3831C49.2173 16.4745 49.4077 15.4976 49.3936 14.5131V-0.120308ZM41.8556 18.6175C41.0633 18.6198 40.2882 18.3893 39.6283 17.9552C38.9684 17.5211 38.4534 16.9029 38.1486 16.1789C37.8438 15.4549 37.7628 14.6576 37.916 13.888C38.0691 13.1184 38.4494 12.4111 39.0088 11.8557C39.5682 11.3002 40.2816 10.9215 41.0584 10.7677C41.8353 10.6138 42.6409 10.6916 43.3731 10.9912C44.1053 11.2909 44.7312 11.7989 45.1717 12.4509C45.6121 13.1029 45.8471 13.8697 45.8471 14.6541C45.848 15.1738 45.7454 15.6886 45.5452 16.1691C45.3451 16.6495 45.0513 17.0863 44.6806 17.4543C44.3099 17.8224 43.8697 18.1145 43.385 18.3141C42.9003 18.5137 42.3806 18.6168 41.8556 18.6175Z" fill="white"/>
<path d="M92.3144 18.6436C92.0681 18.8215 91.934 18.959 91.9123 19.0561C91.9001 19.1012 91.9016 19.1488 91.9165 19.1931C91.9315 19.2373 91.9593 19.2762 91.9964 19.305C92.0796 19.3741 92.1765 19.4249 92.281 19.4542C92.3612 19.4763 92.4397 19.5041 92.5158 19.5374H99.8898C100.329 19.5469 100.759 19.4125 101.113 19.1551C101.461 18.9 101.781 18.6107 102.069 18.2916C102.359 17.9708 102.621 17.6827 102.856 17.4274C102.933 17.323 103.031 17.2352 103.143 17.1694C103.256 17.1037 103.38 17.0614 103.51 17.0452C104.112 17.0452 104.413 17.322 104.413 17.8757C104.415 18.7966 104.173 19.702 103.709 20.5006C103.526 20.9215 103.228 21.2839 102.85 21.5478C102.471 21.8117 102.026 21.9668 101.564 21.9959H88.0569C87.9652 21.9947 87.8748 21.975 87.7912 21.9379C87.7076 21.9007 87.6326 21.847 87.5708 21.78C87.4208 21.6295 87.3062 21.448 87.2354 21.2486C87.1563 21.0302 87.139 20.7946 87.1853 20.5672C87.2445 20.3008 87.3995 20.0648 87.6215 19.9031C88.8279 18.8847 90.0346 17.8713 91.2415 16.863C92.3913 15.9091 93.4773 14.8823 94.4928 13.7892C95.4057 12.8144 96.1937 11.7319 96.8392 10.5662C97.429 9.50795 97.7395 8.31946 97.742 7.11081C97.7405 6.68234 97.6726 6.25662 97.5406 5.84856C97.4091 5.43268 97.1923 5.04814 96.9038 4.719C96.6041 4.38009 96.2394 4.10342 95.831 3.905C95.3701 3.68581 94.8672 3.56673 94.356 3.55575C93.7224 3.52542 93.0873 3.56439 92.4623 3.67194C92.0087 3.75376 91.5725 3.91113 91.1721 4.13737C90.8089 4.35254 90.4857 4.62788 90.2166 4.95138C89.9388 5.28321 89.6427 5.67073 89.3284 6.11394C89.1048 6.42423 88.8869 6.55715 88.6749 6.51269C88.4629 6.46823 88.3065 6.2849 88.2055 5.96269C88.0994 5.53306 88.0824 5.08658 88.1555 4.65025C88.2581 3.9878 88.4734 3.34737 88.7923 2.75619C88.8812 2.57927 89.0041 2.30794 89.161 1.94219C89.3103 1.58992 89.4897 1.2509 89.6971 0.928813C89.8629 0.658711 90.0724 0.417397 90.3172 0.214501C90.3631 0.174678 90.4167 0.144342 90.4746 0.125276C90.5326 0.106209 90.5938 0.0987962 90.6547 0.103471C90.7155 0.108147 90.7748 0.124816 90.8291 0.152501C90.8834 0.180186 90.9315 0.218328 90.9707 0.264688C91.1331 0.424621 91.3461 0.524386 91.5741 0.547251C91.775 0.558709 91.9651 0.575209 92.1442 0.59675C92.3755 0.61542 92.6082 0.592121 92.831 0.528001C93.0875 0.461542 93.3614 0.389584 93.6526 0.312126C93.9438 0.234667 94.2447 0.15698 94.5554 0.079063C94.8734 0.00103805 95.1998 -0.0379837 95.5275 -0.0371244C96.5479 -0.0452395 97.5641 0.0937168 98.5441 0.375376C99.4313 0.626747 100.262 1.04401 100.99 1.60463C101.679 2.14237 102.239 2.82293 102.633 3.59838C103.043 4.41889 103.25 5.32434 103.236 6.23975C103.226 7.14759 103.002 8.04054 102.583 8.84812C102.127 9.75464 101.571 10.6079 100.924 11.3919C100.232 12.2346 99.4755 13.0234 98.6614 13.7514C97.8234 14.5049 96.9966 15.1972 96.1809 15.8283C95.3652 16.4594 94.6112 17.0131 93.9186 17.4893C93.2242 17.966 92.6877 18.348 92.3095 18.6354" fill="white"/>
<path d="M86.9868 15.1401C87.0057 16.1563 86.7501 17.1591 86.2465 18.0448C85.7399 18.9047 85.0443 19.6406 84.2112 20.1981C83.2833 20.8165 82.2529 21.2687 81.1668 21.5339C79.9467 21.8408 78.6919 21.9921 77.433 21.9842C75.9317 22.0052 74.4337 21.8368 72.9754 21.483C71.7061 21.1608 70.5492 20.503 69.6283 19.58C69.5792 19.5227 69.5419 19.4563 69.5188 19.3847C69.4957 19.3131 69.4871 19.2376 69.4936 19.1627C69.4935 18.9733 69.5335 18.7859 69.611 18.6127C69.6739 18.4547 69.7785 18.3163 69.9138 18.2119C69.9813 18.1684 70.0602 18.1452 70.1408 18.1452C70.2214 18.1452 70.3003 18.1684 70.3679 18.2119C71.2557 18.7389 72.2203 19.1275 73.2275 19.3641C74.407 19.6318 75.618 19.7384 76.8267 19.6811C77.4351 19.6625 78.0368 19.5497 78.61 19.3469C79.151 19.1575 79.6568 18.8811 80.1072 18.5288C80.5429 18.1852 80.8983 17.7523 81.1488 17.2597C81.4119 16.7362 81.5445 16.1579 81.5356 15.5733C81.5788 15.0503 81.5162 14.524 81.3516 14.0253C81.1869 13.5265 80.9234 13.0653 80.5766 12.6686C79.9275 11.9857 79.0921 11.5042 78.1718 11.2826C77.1964 11.0481 76.182 11.0198 75.1948 11.1994C74.2375 11.3465 73.3178 11.6754 72.4866 12.1681C72.4001 12.2184 72.3006 12.2423 72.2005 12.2368C72.0705 12.2353 71.9432 12.201 71.8304 12.1371C71.6974 12.061 71.5871 11.9514 71.5109 11.8195C71.4125 11.6407 71.3659 11.4385 71.3762 11.2351V1.41694C71.3755 1.04032 71.493 0.672791 71.7123 0.365064C71.869 0.186956 72.0676 0.0498563 72.2906 -0.0340883C72.5136 -0.118033 72.754 -0.146231 72.9907 -0.116186C74.067 -0.116186 75.1154 -0.105186 76.1358 -0.0831857C77.1561 -0.0611857 78.1709 -0.0444565 79.1801 -0.0329982C80.1894 -0.0215399 81.2155 -0.0160399 82.2585 -0.0164982C83.3015 -0.0169565 84.3948 -0.0501857 85.5383 -0.116186C85.8744 -0.162019 86.0364 -0.0174148 86.0243 0.317627C85.9934 0.71723 85.8728 1.10498 85.6715 1.45269C85.4364 1.89003 85.1358 2.28963 84.7799 2.63794C84.6484 2.79404 84.4872 2.92297 84.3054 3.01734C84.1236 3.11171 83.9247 3.16968 83.7202 3.18794C82.5314 3.18794 81.5111 3.16502 80.6592 3.11919C79.8074 3.07336 79.0169 3.0344 78.2878 3.00231C77.5586 2.96886 76.8411 2.96336 76.1351 2.98581C75.4291 3.00827 74.6386 3.07496 73.7636 3.18588V9.09838C75.1187 8.61705 76.5454 8.36308 77.985 8.34694C79.4482 8.3026 80.9073 8.52324 82.2904 8.998C83.579 9.4356 84.7318 10.1947 85.6375 11.2021C86.5695 12.3018 87.0499 13.7082 86.9833 15.1422" fill="white"/>
</svg>
