<svg width="64" height="16" viewBox="0 0 64 16" fill="none" xmlns="http://www.w3.org/2000/svg">
<path d="M8.27569 12.4208L11.4279 14.4179C11.8308 14.6732 12.3311 14.2935 12.2115 13.8232L11.3008 10.2405C11.2752 10.1407 11.2782 10.0357 11.3096 9.9376C11.3409 9.83946 11.3994 9.75218 11.4781 9.68577L14.3049 7.33306C14.6763 7.02392 14.4846 6.40751 14.0074 6.37654L10.3159 6.13696C10.2165 6.12986 10.1211 6.09465 10.0409 6.03545C9.96069 5.97625 9.89896 5.89548 9.86289 5.80255L8.48612 2.33549C8.44869 2.23685 8.38215 2.15194 8.29532 2.09201C8.2085 2.03209 8.1055 2 8 2C7.89451 2 7.79151 2.03209 7.70468 2.09201C7.61786 2.15194 7.55131 2.23685 7.51389 2.33549L6.13712 5.80255C6.10104 5.89548 6.03931 5.97625 5.95912 6.03545C5.87892 6.09465 5.78355 6.12986 5.68412 6.13696L1.99263 6.37654C1.51544 6.40751 1.32373 7.02392 1.69515 7.33306L4.52185 9.68577C4.60063 9.75218 4.65906 9.83946 4.69044 9.9376C4.72181 10.0357 4.72485 10.1407 4.6992 10.2405L3.85459 13.563C3.71111 14.1274 4.31143 14.583 4.79495 14.2767L7.72431 12.4208C7.8067 12.3683 7.90234 12.3405 8 12.3405C8.09767 12.3405 8.1933 12.3683 8.27569 12.4208Z" stroke="#1A1C1F" stroke-width="1.2" stroke-linecap="round" stroke-linejoin="round"/>
<path d="M30.9484 6.27703C30.886 6.07377 30.7659 5.89473 30.6039 5.7633C30.4419 5.63186 30.2455 5.55411 30.0402 5.54021L26.3283 5.2708L24.9513 1.67485C24.8768 1.47605 24.7461 1.30523 24.5764 1.18478C24.4067 1.06432 24.2058 0.999853 24.0002 0.999817C23.7949 1.00019 23.5934 1.06483 23.424 1.18527C23.2547 1.30571 23.1243 1.47633 23.05 1.67485L21.6525 5.29157L17.9611 5.54021C17.7559 5.55411 17.5594 5.63185 17.3974 5.7633C17.2354 5.89473 17.1153 6.07377 17.0529 6.27703C16.9871 6.48317 16.9826 6.70511 17.0401 6.91394C17.0975 7.12276 17.2143 7.3088 17.3752 7.44782L20.215 9.93729L19.3703 13.3833C19.3121 13.6155 19.3228 13.8604 19.401 14.0862C19.4792 14.3118 19.6214 14.5078 19.8088 14.6484C19.9897 14.7849 20.2061 14.8617 20.4297 14.869C20.6533 14.8762 20.8739 14.8135 21.0627 14.6888L23.9924 12.764C23.9963 12.761 24.0002 12.759 24.009 12.764L27.1613 14.8353C27.3324 14.9486 27.5326 15.0058 27.7356 14.9993C27.9386 14.9928 28.1349 14.9229 28.299 14.7988C28.4688 14.6714 28.5976 14.4939 28.6685 14.2894C28.7394 14.085 28.7492 13.8631 28.6965 13.6527L27.799 9.88817L30.6262 7.44782C30.787 7.3088 30.9038 7.12276 30.9613 6.91394C31.0188 6.70511 31.0143 6.48317 30.9484 6.27703Z" fill="url(#paint0_linear_2523_44)"/>
<path d="M40.7968 12.6713L44.1915 14.908C44.6254 15.194 45.1642 14.7687 45.0354 14.242L44.0546 10.2294C44.0271 10.1176 44.0303 10 44.0641 9.89011C44.0978 9.7802 44.1608 9.68244 44.2456 9.60806L47.2898 6.97303C47.6898 6.62679 47.4833 5.93641 46.9694 5.90173L42.994 5.6334C42.8869 5.62544 42.7842 5.58601 42.6978 5.5197C42.6115 5.4534 42.545 5.36294 42.5061 5.25886L41.0234 1.37575C40.9832 1.26527 40.9114 1.17017 40.818 1.10305C40.7245 1.03594 40.6136 1 40.4999 1C40.3863 1 40.2754 1.03594 40.1819 1.10305C40.0884 1.17017 40.0167 1.26527 39.9765 1.37575L38.4938 5.25886C38.4549 5.36294 38.3884 5.4534 38.3021 5.5197C38.2157 5.58601 38.1131 5.62544 38.0059 5.6334L34.0305 5.90173C33.5166 5.93641 33.3101 6.62679 33.7101 6.97303L36.7543 9.60806C36.8391 9.68244 36.9021 9.7802 36.9358 9.89011C36.9696 10 36.9728 10.1176 36.9453 10.2294L36.0357 13.9506C35.8811 14.5827 36.5276 15.093 37.0484 14.7499L40.203 12.6713C40.2918 12.6125 40.3947 12.5814 40.4999 12.5814C40.6052 12.5814 40.7081 12.6125 40.7968 12.6713Z" fill="#D1D5DA"/>
<defs>
<linearGradient id="paint0_linear_2523_44" x1="17" y1="0.999817" x2="31" y2="15.0011" gradientUnits="userSpaceOnUse">
<stop stop-color="#FF9B55"/>
<stop offset="1" stop-color="#DA4F23"/>
</linearGradient>
</defs>
</svg>
