<svg width="44" height="20" viewBox="0 0 44 20" fill="none" xmlns="http://www.w3.org/2000/svg">
<path d="M2.89911 3H16.3195C16.4405 3 16.5589 3.03516 16.6604 3.10122C16.7618 3.16727 16.8419 3.26138 16.8908 3.37209C16.9398 3.48281 16.9556 3.60537 16.9362 3.72487C16.9168 3.84437 16.8633 3.95568 16.7818 4.04526L11.6462 9.69517C11.5416 9.81025 11.4837 9.96012 11.4837 10.1155V14.5387C11.4837 14.6416 11.4583 14.7429 11.4098 14.8336C11.3613 14.9243 11.2911 15.0016 11.2055 15.0586L8.70625 16.7251C8.61214 16.7879 8.50279 16.8239 8.38982 16.8293C8.27686 16.8348 8.16455 16.8095 8.06484 16.7561C7.96512 16.7027 7.88177 16.6233 7.82365 16.5263C7.76553 16.4292 7.73484 16.3182 7.73484 16.2052V10.1155C7.73484 9.96012 7.67691 9.81025 7.57235 9.69517L2.43678 4.04526C2.35536 3.95568 2.3017 3.84437 2.28234 3.72487C2.26297 3.60537 2.27874 3.48281 2.3277 3.37209C2.37667 3.26138 2.45675 3.16727 2.55819 3.10122C2.65963 3.03516 2.77806 3 2.89911 3Z" stroke="#1A1C1F" stroke-width="1.5" stroke-linecap="round" stroke-linejoin="round"/>
<path d="M26.0651 3H39.4854C39.6065 3 39.725 3.03516 39.8263 3.10122C39.9278 3.16727 40.0079 3.26138 40.0569 3.37209C40.1059 3.48281 40.1216 3.60537 40.1023 3.72487C40.0829 3.84437 40.0292 3.95568 39.9478 4.04526L34.8122 9.69517C34.7076 9.81025 34.6498 9.96012 34.6498 10.1155V14.5387C34.6498 14.6416 34.6244 14.7429 34.5758 14.8336C34.5273 14.9243 34.4571 15.0016 34.3715 15.0586L31.8722 16.7251C31.7781 16.7879 31.6688 16.8239 31.5558 16.8293C31.4429 16.8348 31.3305 16.8095 31.2308 16.7561C31.1311 16.7027 31.0478 16.6233 30.9896 16.5263C30.9315 16.4292 30.9008 16.3182 30.9008 16.2052V10.1155C30.9008 9.96012 30.8429 9.81025 30.7383 9.69517L25.6028 4.04526C25.5213 3.95568 25.4677 3.84437 25.4483 3.72487C25.429 3.60537 25.4447 3.48281 25.4937 3.37209C25.5427 3.26138 25.6227 3.16727 25.7242 3.10122C25.8256 3.03516 25.944 3 26.0651 3Z" fill="url(#paint0_linear_2524_50)" stroke="url(#paint1_linear_2524_50)" stroke-width="1.5" stroke-linecap="round" stroke-linejoin="round"/>
<defs>
<linearGradient id="paint0_linear_2524_50" x1="25.4403" y1="3" x2="34.0593" y2="-0.0835281" gradientUnits="userSpaceOnUse">
<stop stop-color="#E1313C"/>
<stop offset="1" stop-color="#CB1B26"/>
</linearGradient>
<linearGradient id="paint1_linear_2524_50" x1="25.4403" y1="3" x2="34.0593" y2="-0.0835281" gradientUnits="userSpaceOnUse">
<stop stop-color="#E1313C"/>
<stop offset="1" stop-color="#CB1B26"/>
</linearGradient>
</defs>
</svg>
