<svg width="700" height="20" viewBox="0 0 700 20" fill="none" xmlns="http://www.w3.org/2000/svg">
<path d="M564.167 3.13725V8.35937C564.167 11.5218 566.739 14.1431 569.956 14.1665C570.725 14.1722 571.489 14.0281 572.202 13.7425C572.914 13.4568 573.563 13.0353 574.109 12.5022C574.655 11.9691 575.089 11.3349 575.385 10.6362C575.681 9.93754 575.833 9.1882 575.833 8.43137V3.13725C575.833 2.96824 575.765 2.80616 575.643 2.68665C575.522 2.56714 575.357 2.5 575.185 2.5H564.815C564.643 2.5 564.478 2.56714 564.356 2.68665C564.235 2.80616 564.167 2.96824 564.167 3.13725Z" stroke="white" stroke-width="1.5" stroke-linecap="round" stroke-linejoin="round"/>
<path d="M567.5 17.5H572.5" stroke="white" stroke-width="1.5" stroke-linecap="round" stroke-linejoin="round"/>
<path d="M570 14.5833V17.5" stroke="white" stroke-width="1.5" stroke-linecap="round" stroke-linejoin="round"/>
<path d="M575.833 9.79169H576.197C576.874 9.79169 577.524 9.5283 578.002 9.05945C578.481 8.59061 578.75 7.95473 578.75 7.29169V6.04169C578.75 5.87593 578.683 5.71696 578.563 5.59975C578.443 5.48254 578.281 5.41669 578.112 5.41669H575.833" stroke="white" stroke-width="1.5" stroke-linecap="round" stroke-linejoin="round"/>
<path d="M564.167 9.79169H563.784C563.112 9.79169 562.467 9.5283 561.992 9.05945C561.517 8.59061 561.25 7.95473 561.25 7.29169V6.04169C561.25 5.87593 561.317 5.71696 561.436 5.59975C561.554 5.48254 561.716 5.41669 561.884 5.41669H564.167" stroke="white" stroke-width="1.5" stroke-linecap="round" stroke-linejoin="round"/>
<mask id="path-6-inside-1_2628_299" fill="white">
<path d="M532 10C532 8.89543 532.895 8 534 8H546C547.105 8 548 8.89543 548 10V12H532V10Z"/>
</mask>
<path d="M530.5 10C530.5 8.067 532.067 6.5 534 6.5H546C547.933 6.5 549.5 8.067 549.5 10H546.5C546.5 9.72386 546.276 9.5 546 9.5H534C533.724 9.5 533.5 9.72386 533.5 10H530.5ZM548 12H532H548ZM530.5 12V10C530.5 8.067 532.067 6.5 534 6.5V9.5C533.724 9.5 533.5 9.72386 533.5 10V12H530.5ZM546 6.5C547.933 6.5 549.5 8.067 549.5 10V12H546.5V10C546.5 9.72386 546.276 9.5 546 9.5V6.5Z" fill="white" mask="url(#path-6-inside-1_2628_299)"/>
<path d="M532.75 12.75H547.25V18C547.25 18.6904 546.69 19.25 546 19.25H534C533.31 19.25 532.75 18.6904 532.75 18V12.75Z" stroke="white" stroke-width="1.5"/>
<mask id="path-9-inside-2_2628_299" fill="white">
<path d="M536 2C536 0.895431 536.895 0 538 0H550C551.105 0 552 0.895431 552 2V4H536V2Z"/>
</mask>
<path d="M534.5 2C534.5 0.0670034 536.067 -1.5 538 -1.5H550C551.933 -1.5 553.5 0.0670034 553.5 2H550.5C550.5 1.72386 550.276 1.5 550 1.5H538C537.724 1.5 537.5 1.72386 537.5 2H534.5ZM552 4H536H552ZM534.5 4V2C534.5 0.0670034 536.067 -1.5 538 -1.5V1.5C537.724 1.5 537.5 1.72386 537.5 2V4H534.5ZM550 -1.5C551.933 -1.5 553.5 0.0670034 553.5 2V4H550.5V2C550.5 1.72386 550.276 1.5 550 1.5V-1.5Z" fill="white" mask="url(#path-9-inside-2_2628_299)"/>
<mask id="path-11-inside-3_2628_299" fill="white">
<path d="M536 4H552V12C552 13.1046 551.105 14 550 14H536V4Z"/>
</mask>
<path d="M536 2.5H553.5L550.5 5.5H536V2.5ZM552 14H536H552ZM536 14V4V14ZM553.5 2.5V10.5C553.5 12.433 551.933 14 550 14C550.276 14 550.5 13.1046 550.5 12V5.5L553.5 2.5Z" fill="white" mask="url(#path-11-inside-3_2628_299)"/>
<rect x="504.75" y="0.75" width="7.5" height="7.5" rx="1.25" stroke="white" stroke-width="1.5"/>
<rect x="515.75" y="0.75" width="7.5" height="7.5" rx="1.25" stroke="white" stroke-width="1.5"/>
<rect x="504.75" y="11.75" width="7.5" height="7.5" rx="1.25" stroke="white" stroke-width="1.5"/>
<rect x="515.75" y="11.75" width="7.5" height="7.5" rx="1.25" stroke="white" stroke-width="1.5"/>
<path d="M486 18.1818C490.519 18.1818 494.182 14.5187 494.182 9.99999C494.182 5.4813 490.519 1.81818 486 1.81818C481.481 1.81818 477.818 5.4813 477.818 9.99999C477.818 14.5187 481.481 18.1818 486 18.1818Z" stroke="white" stroke-width="1.5" stroke-linecap="round" stroke-linejoin="round"/>
<path d="M485.318 9.31818H486V14.0909H486.682" stroke="white" stroke-width="1.5" stroke-linecap="round" stroke-linejoin="round"/>
<path d="M486.102 6.25002C486.102 6.40065 485.98 6.52275 485.829 6.52275C485.679 6.52275 485.557 6.40065 485.557 6.25002C485.557 6.0994 485.679 5.97729 485.829 5.97729C485.98 5.97729 486.102 6.0994 486.102 6.25002Z" fill="white" stroke="white" stroke-width="1.5"/>
<path d="M465.727 5.22727H450.955C450.774 5.22727 450.6 5.15544 450.472 5.02757C450.345 4.89971 450.273 4.72628 450.273 4.54545C450.273 4.36463 450.345 4.1912 450.472 4.06334C450.6 3.93547 450.774 3.86364 450.955 3.86364H463.455C463.635 3.86364 463.809 3.7918 463.937 3.66394C464.064 3.53607 464.136 3.36265 464.136 3.18182C464.136 3.00099 464.064 2.82757 463.937 2.6997C463.809 2.57183 463.635 2.5 463.455 2.5H450.955C450.412 2.50062 449.892 2.71632 449.509 3.09978C449.125 3.48325 448.91 4.00316 448.909 4.54545V15.4545C448.91 15.9968 449.125 16.5168 449.509 16.9002C449.892 17.2837 450.412 17.4994 450.955 17.5H465.727C466.089 17.4996 466.435 17.3558 466.691 17.1001C466.947 16.8445 467.09 16.4979 467.091 16.1364V6.59091C467.09 6.22938 466.947 5.88277 466.691 5.62713C466.435 5.37149 466.089 5.22769 465.727 5.22727Z" fill="white"/>
<path d="M454.562 11H461.438" stroke="#17A74F" stroke-width="1.5" stroke-linecap="round" stroke-linejoin="round"/>
<path d="M458 7.5625V14.4375" stroke="#17A74F" stroke-width="1.5" stroke-linecap="round" stroke-linejoin="round"/>
<path d="M430 13.75C432.071 13.75 433.75 12.0711 433.75 10C433.75 7.92893 432.071 6.25 430 6.25C427.929 6.25 426.25 7.92893 426.25 10C426.25 12.0711 427.929 13.75 430 13.75Z" stroke="white" stroke-width="1.5" stroke-linecap="round" stroke-linejoin="round"/>
<path d="M434.349 5.08487C434.549 5.26208 434.738 5.45129 434.915 5.65144L437.05 5.95625C437.396 6.55902 437.663 7.20396 437.844 7.87507L436.55 9.59943C436.55 9.59943 436.567 10.1338 436.55 10.4006L437.844 12.1255C437.663 12.7965 437.396 13.4412 437.049 14.0437L434.915 14.3485C434.915 14.3485 434.549 14.7379 434.349 14.9151L434.044 17.0496C433.441 17.3958 432.796 17.6627 432.125 17.8437L430.401 16.5504C430.134 16.5666 429.866 16.5666 429.6 16.5504L427.875 17.8442C427.204 17.6628 426.559 17.3955 425.956 17.0489L425.652 14.9152C425.451 14.738 425.262 14.5488 425.085 14.3486L422.95 14.0438C422.604 13.441 422.337 12.7961 422.156 12.125L423.45 10.4006C423.45 10.4006 423.433 9.8663 423.45 9.59948L422.156 7.87459C422.337 7.2036 422.605 6.55884 422.951 5.95631L425.085 5.65156C425.262 5.45141 425.451 5.2622 425.652 5.08498L425.956 2.95042C426.559 2.60427 427.204 2.33738 427.875 2.15638L429.599 3.44966C429.866 3.43344 430.134 3.43343 430.401 3.44965L432.126 2.15582C432.797 2.33728 433.441 2.6046 434.044 2.95116L434.349 5.08487Z" stroke="white" stroke-width="1.25" stroke-linecap="round" stroke-linejoin="round"/>
<path d="M402 6.25V10" stroke="white" stroke-width="1.5" stroke-linecap="round" stroke-linejoin="round"/>
<path d="M405.248 11.875L402 10" stroke="white" stroke-width="1.5" stroke-linecap="round" stroke-linejoin="round"/>
<path d="M397.612 7.79028H394.487V4.66528" stroke="white" stroke-width="1.5" stroke-linecap="round" stroke-linejoin="round"/>
<path d="M397.139 14.8614C398.1 15.8229 399.325 16.4776 400.659 16.7429C401.992 17.0082 403.375 16.872 404.631 16.3517C405.887 15.8313 406.961 14.9501 407.716 13.8196C408.472 12.689 408.875 11.3598 408.875 10C408.875 8.64026 408.472 7.31105 407.716 6.18046C406.961 5.04987 405.887 4.16868 404.631 3.64833C403.375 3.12798 401.992 2.99183 400.659 3.2571C399.325 3.52238 398.1 4.17716 397.139 5.13864L394.487 7.79029" stroke="white" stroke-width="1.5" stroke-linecap="round" stroke-linejoin="round"/>
<path d="M380.636 3.37915L380.659 3.40871L380.685 3.43534C382.409 5.18567 383.375 7.54357 383.375 10C383.375 12.4564 382.409 14.8143 380.685 16.5647L380.659 16.5913L380.636 16.6209C380.632 16.6266 380.627 16.6318 380.621 16.6363L380.591 16.6592L380.565 16.6854C378.814 18.409 376.456 19.375 374 19.375C371.544 19.375 369.186 18.409 367.435 16.6854L367.409 16.6592L367.379 16.6363C367.373 16.6318 367.368 16.6266 367.364 16.6209L367.341 16.5913L367.315 16.5647C365.591 14.8143 364.625 12.4564 364.625 10C364.625 7.54357 365.591 5.18567 367.315 3.43534L367.341 3.40871L367.364 3.37914C367.368 3.37336 367.373 3.36816 367.379 3.36368L367.409 3.34082L367.435 3.3146C369.186 1.59106 371.544 0.625 374 0.625C376.456 0.625 378.814 1.59106 380.565 3.3146L380.591 3.34083L380.621 3.36369C380.627 3.36817 380.632 3.37336 380.636 3.37915ZM368.516 10.6914L368.447 10.1442H367.896H365.574H364.89L364.951 10.8257C365.118 12.6598 365.84 14.3996 367.021 15.8125L367.459 16.3367L367.942 15.8536L369.584 14.2123L369.974 13.8218L369.635 13.3862C369.026 12.6051 368.639 11.674 368.516 10.6914ZM369.635 6.61381L369.974 6.17819L369.584 5.78766L367.942 4.14645L367.5 4.58839L367.021 4.18751C365.84 5.60044 365.118 7.34018 364.951 9.17433L364.89 9.85577H365.574H367.896H368.447L368.516 9.3086C368.639 8.32598 369.026 7.39492 369.635 6.61381ZM379.484 9.3086L379.553 9.85577H380.104H382.426V9.23077L383.049 9.17433C382.882 7.34018 382.16 5.60044 380.979 4.18751L380.541 3.66329L380.058 4.14645L378.416 5.78766L378.026 6.17819L378.365 6.61381C378.974 7.39492 379.361 8.32598 379.484 9.3086ZM377.386 5.63463L377.822 5.97415L378.212 5.58362L379.854 3.94241L380.337 3.45924L379.812 3.02096C378.4 1.83969 376.66 1.11767 374.826 0.951347L374.144 0.889553V1.57379V3.89595V4.44742L374.691 4.51608C375.674 4.63938 376.605 5.02585 377.386 5.63463ZM373.309 4.51608L373.856 4.44742V3.89595V1.57379V0.889553L373.174 0.951347C371.34 1.11767 369.6 1.83969 368.188 3.02096L367.663 3.45924L368.146 3.94241L369.788 5.58362L370.178 5.97415L370.614 5.63463C371.395 5.02585 372.326 4.63938 373.309 4.51608ZM370.614 14.3654L370.178 14.0259L369.788 14.4164L368.146 16.0576L367.663 16.5408L368.188 16.979C369.6 18.1603 371.34 18.8823 373.174 19.0487L373.856 19.1105V18.4262V16.1041V15.5526L373.309 15.4839C372.326 15.3606 371.395 14.9742 370.614 14.3654ZM374.691 15.4839L374.144 15.5526V16.1041V18.4262V19.1105L374.826 19.0487C376.66 18.8823 378.4 18.1603 379.812 16.979L380.337 16.5408L379.854 16.0576L378.212 14.4164L377.822 14.0259L377.386 14.3654C376.605 14.9742 375.674 15.3606 374.691 15.4839ZM378.365 13.3862L378.026 13.8218L378.416 14.2124L380.058 15.8536L380.541 16.3367L380.979 15.8125C382.16 14.3996 382.882 12.6598 383.049 10.8257L383.11 10.1442H382.426H380.104H379.553L379.484 10.6914C379.361 11.674 378.974 12.6051 378.365 13.3862Z" fill="white" stroke="white" stroke-width="1.25"/>
<g filter="url(#filter0_d_2628_299)">
<rect x="367" y="3" width="14" height="14" rx="7" fill="white" shape-rendering="crispEdges"/>
<path d="M369.875 10H378.125" stroke="url(#paint0_linear_2628_299)" stroke-width="2" stroke-linecap="round" stroke-linejoin="round"/>
<path d="M374 5.875V14.125" stroke="url(#paint1_linear_2628_299)" stroke-width="2" stroke-linecap="round" stroke-linejoin="round"/>
</g>
<rect x="336.75" y="2.75" width="18.5" height="14.5" rx="7.25" stroke="white" stroke-width="1.5"/>
<rect x="341" y="7.60004" width="10" height="4.8" rx="2.4" stroke="white" stroke-width="1.5"/>
<circle cx="346" cy="5" r="1" fill="white"/>
<circle cx="1" cy="1" r="1" transform="matrix(1 0 0 -1 345 16)" fill="white"/>
<circle cx="339" cy="8" r="1" fill="white"/>
<circle cx="1" cy="1" r="1" transform="matrix(1 0 0 -1 338 13)" fill="white"/>
<circle cx="353" cy="8" r="1" fill="white"/>
<circle cx="1" cy="1" r="1" transform="matrix(1 0 0 -1 352 13)" fill="white"/>
<path d="M324.875 16.875V9.02648C324.875 8.9394 324.857 8.85328 324.822 8.77364C324.786 8.69401 324.735 8.62261 324.67 8.56403L318.42 2.8816C318.305 2.777 318.155 2.71905 318 2.71906C317.844 2.71906 317.694 2.77703 317.579 2.88163L311.33 8.56403C311.265 8.62261 311.214 8.69401 311.178 8.77364C311.143 8.85327 311.125 8.93939 311.125 9.02646V16.875" stroke="white" stroke-width="1.5" stroke-linecap="round" stroke-linejoin="round"/>
<path d="M309.25 16.875H326.75" stroke="white" stroke-width="1.5" stroke-linecap="round" stroke-linejoin="round"/>
<path d="M319.875 16.8743V12.4993C319.875 12.3336 319.809 12.1746 319.691 12.0574C319.574 11.9402 319.415 11.8743 319.25 11.8743H316.75C316.584 11.8743 316.425 11.9402 316.308 12.0574C316.19 12.1746 316.125 12.3336 316.125 12.4993V16.8743" stroke="white" stroke-width="1.5" stroke-linecap="round" stroke-linejoin="round"/>
<path d="M287.5 3.75L293.75 10L287.5 16.25" stroke="white" stroke-width="1.5" stroke-linecap="round" stroke-linejoin="round"/>
<path d="M264.5 3.75L258.25 10L264.5 16.25" stroke="white" stroke-width="1.5" stroke-linecap="round" stroke-linejoin="round"/>
<path d="M225.875 7.5H242.125L234 2.5L225.875 7.5Z" stroke="url(#paint2_linear_2628_299)" stroke-width="1.25" stroke-linecap="round" stroke-linejoin="round"/>
<path d="M228.375 7.5V13.75" stroke="url(#paint3_linear_2628_299)" stroke-width="1.25" stroke-linecap="round" stroke-linejoin="round"/>
<path d="M232.125 7.5V13.75" stroke="url(#paint4_linear_2628_299)" stroke-width="1.25" stroke-linecap="round" stroke-linejoin="round"/>
<path d="M235.875 7.5V13.75" stroke="url(#paint5_linear_2628_299)" stroke-width="1.25" stroke-linecap="round" stroke-linejoin="round"/>
<path d="M239.625 7.5V13.75" stroke="url(#paint6_linear_2628_299)" stroke-width="1.25" stroke-linecap="round" stroke-linejoin="round"/>
<path d="M226.5 13.75H241.5" stroke="url(#paint7_linear_2628_299)" stroke-width="1.25" stroke-linecap="round" stroke-linejoin="round"/>
<path d="M225.25 16.25H242.75" stroke="url(#paint8_linear_2628_299)" stroke-width="1.25" stroke-linecap="round" stroke-linejoin="round"/>
<path d="M206 17.5C210.142 17.5 213.5 14.1421 213.5 10C213.5 5.85786 210.142 2.5 206 2.5C201.858 2.5 198.5 5.85786 198.5 10C198.5 14.1421 201.858 17.5 206 17.5Z" stroke="url(#paint9_linear_2628_299)" stroke-width="1.25" stroke-miterlimit="10"/>
<path d="M202.875 10H209.125" stroke="url(#paint10_linear_2628_299)" stroke-width="1.25" stroke-linecap="round" stroke-linejoin="round"/>
<path d="M206 6.875V13.125" stroke="url(#paint11_linear_2628_299)" stroke-width="1.25" stroke-linecap="round" stroke-linejoin="round"/>
<path d="M178 1.875C176.393 1.875 174.822 2.35152 173.486 3.24431C172.15 4.1371 171.108 5.40605 170.493 6.8907C169.879 8.37535 169.718 10.009 170.031 11.5851C170.345 13.1612 171.118 14.6089 172.255 15.7452C173.391 16.8815 174.839 17.6554 176.415 17.9689C177.991 18.2824 179.625 18.1215 181.109 17.5065C182.594 16.8916 183.863 15.8502 184.756 14.514C185.648 13.1779 186.125 11.607 186.125 10C186.123 7.84588 185.266 5.7807 183.742 4.25751C182.219 2.73431 180.154 1.87749 178 1.875V1.875ZM180.942 12.0581C181 12.1161 181.046 12.185 181.078 12.2609C181.109 12.3367 181.125 12.418 181.125 12.5001C181.125 12.5823 181.109 12.6636 181.078 12.7395C181.046 12.8153 181 12.8843 180.942 12.9424C180.884 13.0004 180.815 13.0465 180.739 13.0779C180.664 13.1093 180.582 13.1254 180.5 13.1254C180.418 13.1254 180.337 13.1091 180.261 13.0776C180.185 13.0462 180.116 13 180.058 12.9419L178 10.8838L175.942 12.9419C175.825 13.0589 175.666 13.1246 175.5 13.1245C175.335 13.1244 175.176 13.0585 175.059 12.9414C174.941 12.8243 174.876 12.6655 174.876 12.4999C174.875 12.3342 174.941 12.1753 175.058 12.0581L177.116 10L175.058 7.94189C174.941 7.82465 174.875 7.66577 174.876 7.50014C174.876 7.33451 174.941 7.17569 175.059 7.05858C175.176 6.94146 175.335 6.87563 175.5 6.87554C175.666 6.87545 175.825 6.94111 175.942 7.05811L178 9.11621L180.058 7.05811C180.175 6.94111 180.334 6.87545 180.5 6.87554C180.665 6.87563 180.824 6.94146 180.941 7.05858C181.059 7.17569 181.124 7.33451 181.124 7.50014C181.125 7.66577 181.059 7.82465 180.942 7.94189L178.884 10L180.942 12.0581Z" fill="#444D56"/>
<path d="M150.243 5.75736L154.485 10L150.243 14.2426" stroke="url(#paint12_linear_2628_299)" stroke-width="1.5" stroke-linecap="round"/>
<path d="M128.25 7.5L122 13.75L115.75 7.5" stroke="#6A737D" stroke-width="1.5" stroke-linecap="round" stroke-linejoin="round"/>
<path d="M94 1.875C92.393 1.875 90.8221 2.35152 89.486 3.24431C88.1498 4.1371 87.1084 5.40605 86.4935 6.8907C85.8785 8.37535 85.7176 10.009 86.0311 11.5851C86.3446 13.1612 87.1185 14.6089 88.2548 15.7452C89.3911 16.8815 90.8388 17.6554 92.4149 17.9689C93.991 18.2824 95.6247 18.1215 97.1093 17.5065C98.594 16.8916 99.8629 15.8502 100.756 14.514C101.648 13.1779 102.125 11.607 102.125 10C102.123 7.84588 101.266 5.7807 99.7425 4.25751C98.2193 2.73431 96.1541 1.87749 94 1.875V1.875ZM96.9419 12.0581C97 12.1161 97.0462 12.185 97.0776 12.2609C97.1091 12.3367 97.1254 12.418 97.1254 12.5001C97.1255 12.5823 97.1093 12.6636 97.0779 12.7395C97.0465 12.8153 97.0004 12.8843 96.9424 12.9424C96.8843 13.0004 96.8154 13.0465 96.7395 13.0779C96.6636 13.1093 96.5823 13.1254 96.5001 13.1254C96.418 13.1254 96.3367 13.1091 96.2609 13.0776C96.185 13.0462 96.1161 13 96.0581 12.9419L94 10.8838L91.9419 12.9419C91.8247 13.0589 91.6658 13.1246 91.5001 13.1245C91.3345 13.1244 91.1757 13.0585 91.0586 12.9414C90.9415 12.8243 90.8756 12.6655 90.8755 12.4999C90.8755 12.3342 90.9411 12.1753 91.0581 12.0581L93.1162 10L91.0581 7.94189C90.9411 7.82465 90.8755 7.66577 90.8755 7.50014C90.8756 7.33451 90.9415 7.17569 91.0586 7.05858C91.1757 6.94146 91.3345 6.87563 91.5001 6.87554C91.6658 6.87545 91.8247 6.94111 91.9419 7.05811L94 9.11621L96.0581 7.05811C96.1753 6.94111 96.3342 6.87545 96.4999 6.87554C96.6655 6.87563 96.8243 6.94146 96.9414 7.05858C97.0585 7.17569 97.1244 7.33451 97.1245 7.50014C97.1246 7.66577 97.0589 7.82465 96.9419 7.94189L94.8838 10L96.9419 12.0581Z" fill="#FAFBFC"/>
<path d="M73.6455 8.03246C73.3508 7.72514 73.0461 7.40746 72.9309 7.12906C72.8251 6.87332 72.8187 6.44974 72.8125 6.04004C72.801 5.27763 72.7879 4.41353 72.1872 3.81279C71.5865 3.21205 70.7224 3.19901 69.96 3.18748C69.5503 3.1813 69.1267 3.1749 68.8709 3.06908C68.5926 2.95395 68.2749 2.64923 67.9675 2.35451C67.4278 1.83678 66.8158 1.25 66 1.25C65.1842 1.25 64.5723 1.83678 64.0325 2.35451C63.7251 2.64923 63.4075 2.95395 63.1291 3.06908C62.8733 3.1749 62.4497 3.1813 62.04 3.18748C61.2776 3.19901 60.4135 3.21205 59.8128 3.81279C59.2121 4.41353 59.199 5.27763 59.1875 6.04004C59.1813 6.44974 59.1749 6.87332 59.0691 7.12906C58.9539 7.40738 58.6492 7.72514 58.3545 8.03246C57.8368 8.57224 57.25 9.18419 57.25 10C57.25 10.8158 57.8368 11.4277 58.3545 11.9675C58.6492 12.2749 58.9539 12.5925 59.0691 12.8709C59.1749 13.1267 59.1813 13.5503 59.1875 13.96C59.199 14.7224 59.2121 15.5865 59.8128 16.1872C60.4135 16.7879 61.2776 16.801 62.04 16.8125C62.4497 16.8187 62.8733 16.8251 63.1291 16.9309C63.4074 17.0461 63.7251 17.3508 64.0325 17.6455C64.5722 18.1632 65.1842 18.75 66 18.75C66.8158 18.75 67.4277 18.1632 67.9675 17.6455C68.2749 17.3508 68.5925 17.0461 68.8709 16.9309C69.1267 16.8251 69.5503 16.8187 69.96 16.8125C70.7224 16.801 71.5865 16.7879 72.1872 16.1872C72.7879 15.5865 72.801 14.7224 72.8125 13.96C72.8187 13.5503 72.8251 13.1267 72.9309 12.8709C73.0461 12.5926 73.3508 12.2749 73.6455 11.9675C74.1632 11.4278 74.75 10.8158 74.75 10C74.75 9.18419 74.1632 8.57231 73.6455 8.03246ZM69.869 8.57712L65.2857 12.9521C65.1694 13.0631 65.0149 13.125 64.8541 13.125C64.6934 13.125 64.5389 13.0631 64.4226 12.9521L62.131 10.7646C62.0716 10.708 62.0239 10.6402 61.9907 10.5651C61.9575 10.49 61.9394 10.4091 61.9375 10.327C61.9356 10.245 61.9498 10.1633 61.9795 10.0867C62.0091 10.0102 62.0535 9.94021 62.1102 9.88082C62.1669 9.82144 62.2347 9.7738 62.3098 9.74063C62.3849 9.70746 62.4658 9.68941 62.5479 9.68752C62.63 9.68562 62.7116 9.69991 62.7881 9.72957C62.8647 9.75923 62.9347 9.80368 62.994 9.86038L64.8541 11.636L69.006 7.67288C69.0653 7.61618 69.1353 7.57173 69.2119 7.54207C69.2884 7.51241 69.37 7.49812 69.4521 7.50002C69.5342 7.50191 69.6151 7.51996 69.6902 7.55313C69.7653 7.5863 69.8331 7.63394 69.8898 7.69332C69.9465 7.75271 69.9909 7.82268 70.0205 7.89924C70.0502 7.9758 70.0644 8.05745 70.0625 8.13952C70.0606 8.22159 70.0425 8.30248 70.0093 8.37757C69.9761 8.45265 69.9284 8.52046 69.869 8.57712V8.57712Z" fill="#FAFBFC"/>
<path d="M38.125 2C36.518 2 34.9471 2.47652 33.611 3.36931C32.2749 4.2621 31.2334 5.53105 30.6185 7.0157C30.0035 8.50035 29.8426 10.134 30.1561 11.7101C30.4696 13.2862 31.2435 14.7339 32.3798 15.8702C33.5161 17.0065 34.9638 17.7804 36.5399 18.0939C38.116 18.4074 39.7497 18.2465 41.2343 17.6315C42.719 17.0166 43.9879 15.9752 44.8807 14.639C45.7735 13.3029 46.25 11.732 46.25 10.125C46.2475 7.97088 45.3907 5.9057 43.8675 4.38251C42.3443 2.85931 40.2791 2.00249 38.125 2ZM41.0669 12.1831C41.125 12.2411 41.1712 12.31 41.2026 12.3859C41.2341 12.4617 41.2504 12.543 41.2504 12.6251C41.2505 12.7073 41.2343 12.7886 41.2029 12.8645C41.1715 12.9403 41.1254 13.0093 41.0674 13.0674C41.0093 13.1254 40.9404 13.1715 40.8645 13.2029C40.7886 13.2343 40.7073 13.2504 40.6251 13.2504C40.543 13.2504 40.4617 13.2341 40.3859 13.2026C40.31 13.1712 40.2411 13.125 40.1831 13.0669L38.125 11.0088L36.0669 13.0669C35.9497 13.1839 35.7908 13.2496 35.6251 13.2495C35.4595 13.2494 35.3007 13.1835 35.1836 13.0664C35.0665 12.9493 35.0006 12.7905 35.0005 12.6249C35.0005 12.4592 35.0661 12.3003 35.1831 12.1831L37.2412 10.125L35.1831 8.06689C35.0661 7.94965 35.0005 7.79076 35.0005 7.62514C35.0006 7.45951 35.0665 7.30069 35.1836 7.18358C35.3007 7.06646 35.4595 7.00063 35.6251 7.00054C35.7908 7.00045 35.9497 7.06611 36.0669 7.18311L38.125 9.24121L40.1831 7.18311C40.3004 7.06611 40.4592 7.00045 40.6249 7.00054C40.7905 7.00063 40.9493 7.06646 41.0664 7.18358C41.1835 7.30069 41.2494 7.45951 41.2495 7.62514C41.2496 7.79076 41.1839 7.94965 41.0669 8.06689L39.0088 10.125L41.0669 12.1831Z" fill="url(#paint13_linear_2628_299)"/>
<path d="M10.5 18C14.6421 18 18 14.6421 18 10.5C18 6.35786 14.6421 3 10.5 3C6.35786 3 3 6.35786 3 10.5C3 14.6421 6.35786 18 10.5 18Z" stroke="#586069" stroke-width="1.245" stroke-miterlimit="10"/>
<path d="M10.5 6.125V10.5H14.875" stroke="#586069" stroke-width="1.245" stroke-linecap="round" stroke-linejoin="round"/>
<defs>
<filter id="filter0_d_2628_299" x="366" y="2" width="16" height="16" filterUnits="userSpaceOnUse" color-interpolation-filters="sRGB">
<feFlood flood-opacity="0" result="BackgroundImageFix"/>
<feColorMatrix in="SourceAlpha" type="matrix" values="0 0 0 0 0 0 0 0 0 0 0 0 0 0 0 0 0 0 127 0" result="hardAlpha"/>
<feOffset/>
<feGaussianBlur stdDeviation="0.5"/>
<feComposite in2="hardAlpha" operator="out"/>
<feColorMatrix type="matrix" values="0 0 0 0 0 0 0 0 0 0 0 0 0 0 0 0 0 0 0.16 0"/>
<feBlend mode="normal" in2="BackgroundImageFix" result="effect1_dropShadow_2628_299"/>
<feBlend mode="normal" in="SourceGraphic" in2="effect1_dropShadow_2628_299" result="shape"/>
</filter>
<linearGradient id="paint0_linear_2628_299" x1="369.875" y1="10" x2="370.114" y2="11.971" gradientUnits="userSpaceOnUse">
<stop stop-color="#FF9B55"/>
<stop offset="1" stop-color="#DA4F23"/>
</linearGradient>
<linearGradient id="paint1_linear_2628_299" x1="374" y1="5.875" x2="375.971" y2="6.11391" gradientUnits="userSpaceOnUse">
<stop stop-color="#FF9B55"/>
<stop offset="1" stop-color="#DA4F23"/>
</linearGradient>
<linearGradient id="paint2_linear_2628_299" x1="225.875" y1="2.5" x2="230.767" y2="-2.86205" gradientUnits="userSpaceOnUse">
<stop stop-color="#E1313C"/>
<stop offset="1" stop-color="#CB1B26"/>
</linearGradient>
<linearGradient id="paint3_linear_2628_299" x1="228.375" y1="7.5" x2="229.036" y2="7.46434" gradientUnits="userSpaceOnUse">
<stop stop-color="#E1313C"/>
<stop offset="1" stop-color="#CB1B26"/>
</linearGradient>
<linearGradient id="paint4_linear_2628_299" x1="232.125" y1="7.5" x2="232.786" y2="7.46434" gradientUnits="userSpaceOnUse">
<stop stop-color="#E1313C"/>
<stop offset="1" stop-color="#CB1B26"/>
</linearGradient>
<linearGradient id="paint5_linear_2628_299" x1="235.875" y1="7.5" x2="236.536" y2="7.46434" gradientUnits="userSpaceOnUse">
<stop stop-color="#E1313C"/>
<stop offset="1" stop-color="#CB1B26"/>
</linearGradient>
<linearGradient id="paint6_linear_2628_299" x1="239.625" y1="7.5" x2="240.286" y2="7.46434" gradientUnits="userSpaceOnUse">
<stop stop-color="#E1313C"/>
<stop offset="1" stop-color="#CB1B26"/>
</linearGradient>
<linearGradient id="paint7_linear_2628_299" x1="226.5" y1="13.75" x2="226.874" y2="11.8589" gradientUnits="userSpaceOnUse">
<stop stop-color="#E1313C"/>
<stop offset="1" stop-color="#CB1B26"/>
</linearGradient>
<linearGradient id="paint8_linear_2628_299" x1="225.25" y1="16.25" x2="225.574" y2="14.3399" gradientUnits="userSpaceOnUse">
<stop stop-color="#E1313C"/>
<stop offset="1" stop-color="#CB1B26"/>
</linearGradient>
<linearGradient id="paint9_linear_2628_299" x1="198.5" y1="2.5" x2="207.426" y2="-0.510361" gradientUnits="userSpaceOnUse">
<stop stop-color="#E1313C"/>
<stop offset="1" stop-color="#CB1B26"/>
</linearGradient>
<linearGradient id="paint10_linear_2628_299" x1="202.875" y1="10" x2="203.636" y2="8.39602" gradientUnits="userSpaceOnUse">
<stop stop-color="#E1313C"/>
<stop offset="1" stop-color="#CB1B26"/>
</linearGradient>
<linearGradient id="paint11_linear_2628_299" x1="206" y1="6.875" x2="206.661" y2="6.83934" gradientUnits="userSpaceOnUse">
<stop stop-color="#E1313C"/>
<stop offset="1" stop-color="#CB1B26"/>
</linearGradient>
<linearGradient id="paint12_linear_2628_299" x1="146" y1="10" x2="147.673" y2="6.624" gradientUnits="userSpaceOnUse">
<stop stop-color="#E1313C"/>
<stop offset="1" stop-color="#CB1B26"/>
</linearGradient>
<linearGradient id="paint13_linear_2628_299" x1="30" y1="2" x2="41.1402" y2="21.2128" gradientUnits="userSpaceOnUse">
<stop stop-color="#9574EB"/>
<stop offset="1" stop-color="#582CD0"/>
</linearGradient>
</defs>
</svg>
