<svg width="500" height="24" viewBox="0 0 500 24" fill="none" xmlns="http://www.w3.org/2000/svg">
<path d="M466.75 5.25L453.25 18.75" stroke="white" stroke-width="2" stroke-linecap="round" stroke-linejoin="round"/>
<path d="M466.75 18.75L453.25 5.25" stroke="white" stroke-width="2" stroke-linecap="round" stroke-linejoin="round"/>
<path d="M436.25 12H419.75" stroke="#444D56" stroke-width="1.5" stroke-linecap="round" stroke-linejoin="round"/>
<path d="M426.5 5.25L419.75 12L426.5 18.75" stroke="#444D56" stroke-width="1.5" stroke-linecap="round" stroke-linejoin="round"/>
<path d="M404.25 12H387.75" stroke="white" stroke-width="1.5" stroke-linecap="round" stroke-linejoin="round"/>
<path d="M394.5 5.25L387.75 12L394.5 18.75" stroke="white" stroke-width="1.5" stroke-linecap="round" stroke-linejoin="round"/>
<path d="M265.75 4.5H261.25C260.836 4.5 260.5 4.83579 260.5 5.25V9.75C260.5 10.1642 260.836 10.5 261.25 10.5H265.75C266.164 10.5 266.5 10.1642 266.5 9.75V5.25C266.5 4.83579 266.164 4.5 265.75 4.5Z" stroke="#586069" stroke-width="1.5" stroke-linecap="round" stroke-linejoin="round"/>
<path d="M265.75 13.5H261.25C260.836 13.5 260.5 13.8358 260.5 14.25V18.75C260.5 19.1642 260.836 19.5 261.25 19.5H265.75C266.164 19.5 266.5 19.1642 266.5 18.75V14.25C266.5 13.8358 266.164 13.5 265.75 13.5Z" stroke="#586069" stroke-width="1.5" stroke-linecap="round" stroke-linejoin="round"/>
<path d="M274.75 4.5H270.25C269.836 4.5 269.5 4.83579 269.5 5.25V9.75C269.5 10.1642 269.836 10.5 270.25 10.5H274.75C275.164 10.5 275.5 10.1642 275.5 9.75V5.25C275.5 4.83579 275.164 4.5 274.75 4.5Z" stroke="#586069" stroke-width="1.5" stroke-linecap="round" stroke-linejoin="round"/>
<path d="M269.5 13.5V16.5" stroke="#586069" stroke-width="1.5" stroke-linecap="round" stroke-linejoin="round"/>
<path d="M269.5 19.5H272.5V13.5" stroke="#586069" stroke-width="1.5" stroke-linecap="round" stroke-linejoin="round"/>
<path d="M272.5 15H275.5" stroke="#586069" stroke-width="1.5" stroke-linecap="round" stroke-linejoin="round"/>
<path d="M275.5 18V19.5" stroke="#586069" stroke-width="1.5" stroke-linecap="round" stroke-linejoin="round"/>
<path d="M236 0C233.627 0 231.307 0.703791 229.333 2.02237C227.36 3.34094 225.822 5.21509 224.913 7.4078C224.005 9.60055 223.768 12.0133 224.231 14.3411C224.694 16.6688 225.836 18.807 227.515 20.4853C229.193 22.1635 231.331 23.3064 233.659 23.7694C235.987 24.2324 238.4 23.9948 240.592 23.0865C242.785 22.1783 244.659 20.6403 245.978 18.6668C247.296 16.6935 248 14.3734 248 12C247.996 8.81852 246.731 5.76842 244.481 3.51878C242.232 1.26914 239.181 0.00367754 236 0ZM240.615 12.9231H236.923V16.6154C236.923 16.8602 236.826 17.095 236.653 17.2681C236.48 17.4412 236.245 17.5385 236 17.5385C235.755 17.5385 235.52 17.4412 235.347 17.2681C235.174 17.095 235.077 16.8602 235.077 16.6154V12.9231H231.385C231.14 12.9231 230.905 12.8258 230.732 12.6527C230.559 12.4796 230.462 12.2448 230.462 12C230.462 11.7552 230.559 11.5204 230.732 11.3473C230.905 11.1742 231.14 11.0769 231.385 11.0769H235.077V7.38461C235.077 7.1398 235.174 6.90501 235.347 6.7319C235.52 6.55879 235.755 6.46154 236 6.46154C236.245 6.46154 236.48 6.55879 236.653 6.7319C236.826 6.90501 236.923 7.1398 236.923 7.38461V11.0769H240.615C240.86 11.0769 241.095 11.1742 241.268 11.3473C241.441 11.5204 241.538 11.7552 241.538 12C241.538 12.2448 241.441 12.4796 241.268 12.6527C241.095 12.8258 240.86 12.9231 240.615 12.9231Z" fill="#076EDE"/>
<path d="M207 19.5L199.5 12L207 4.5" stroke="#FAFBFC" stroke-width="1.5" stroke-linecap="round" stroke-linejoin="round"/>
<path d="M172.75 2C170.822 2 168.937 2.57183 167.333 3.64317C165.73 4.71451 164.48 6.23726 163.742 8.01884C163.004 9.8004 162.811 11.7608 163.187 13.6521C163.564 15.5434 164.492 17.2807 165.856 18.6443C167.219 20.0079 168.957 20.9365 170.848 21.3127C172.739 21.6889 174.7 21.4958 176.481 20.7578C178.263 20.0199 179.786 18.7702 180.857 17.1668C181.928 15.5634 182.5 13.6784 182.5 11.75C182.497 9.16506 181.469 6.68684 179.641 4.85901C177.813 3.03118 175.335 2.00299 172.75 2ZM176.28 14.2197C176.35 14.2893 176.405 14.372 176.443 14.463C176.481 14.554 176.5 14.6516 176.501 14.7502C176.501 14.8487 176.481 14.9463 176.444 15.0374C176.406 15.1284 176.351 15.2112 176.281 15.2808C176.211 15.3505 176.128 15.4058 176.037 15.4435C175.946 15.4812 175.849 15.5005 175.75 15.5005C175.652 15.5004 175.554 15.481 175.463 15.4432C175.372 15.4054 175.289 15.35 175.22 15.2803L172.75 12.8105L170.28 15.2803C170.14 15.4207 169.949 15.4995 169.75 15.4994C169.551 15.4992 169.361 15.4202 169.22 15.2797C169.08 15.1392 169.001 14.9486 169.001 14.7498C169.001 14.5511 169.079 14.3604 169.22 14.2197L171.69 11.75L169.22 9.28027C169.079 9.13958 169.001 8.94892 169.001 8.75016C169.001 8.55141 169.08 8.36083 169.22 8.22029C169.361 8.07975 169.551 8.00075 169.75 8.00064C169.949 8.00054 170.14 8.07934 170.28 8.21973L172.75 10.6895L175.22 8.21973C175.36 8.07934 175.551 8.00054 175.75 8.00064C175.949 8.00075 176.139 8.07975 176.28 8.22029C176.42 8.36083 176.499 8.55141 176.499 8.75016C176.5 8.94892 176.421 9.13958 176.28 9.28027L173.811 11.75L176.28 14.2197Z" fill="#F3473C"/>
<path d="M128 12C128 18.6274 133.373 24 140 24C146.627 24 152 18.6274 152 12C152 5.37258 146.627 0 140 0C133.373 0 128 5.37258 128 12Z" fill="#D1D5DA"/>
<path d="M144 8L136 16" stroke="#24292E" stroke-width="2" stroke-linecap="round" stroke-linejoin="round"/>
<path d="M144 16L136 8" stroke="#24292E" stroke-width="2" stroke-linecap="round" stroke-linejoin="round"/>
<path d="M96 12C96 18.6274 101.373 24 108 24C114.627 24 120 18.6274 120 12C120 5.37258 114.627 0 108 0C101.373 0 96 5.37258 96 12Z" fill="#ECF0F3"/>
<path d="M112 8L104 16" stroke="#24292E" stroke-width="2" stroke-linecap="round" stroke-linejoin="round"/>
<path d="M112 16L104 8" stroke="#24292E" stroke-width="2" stroke-linecap="round" stroke-linejoin="round"/>
<path d="M82.75 5.25L69.25 18.75" stroke="#1A1C1F" stroke-width="2" stroke-linecap="round" stroke-linejoin="round"/>
<path d="M82.75 18.75L69.25 5.25" stroke="#1A1C1F" stroke-width="2" stroke-linecap="round" stroke-linejoin="round"/>
<path d="M40 4L47.5 11.5L40 19" stroke="#1A1C1F" stroke-width="2" stroke-linecap="round" stroke-linejoin="round"/>
<path d="M15.5 19L8 11.5L15.5 4" stroke="#1A1C1F" stroke-width="2" stroke-linecap="round" stroke-linejoin="round"/>
<path d="M307.5 19.5H292.5C292.102 19.5 291.721 19.342 291.439 19.0607C291.158 18.7794 291 18.3978 291 18V7.5C291 7.10218 291.158 6.72064 291.439 6.43934C291.721 6.15804 292.102 6 292.5 6H295.499L296.999 3.75H302.999L304.499 6H307.5C307.898 6 308.279 6.15804 308.561 6.43934C308.842 6.72064 309 7.10218 309 7.5V18C309 18.3978 308.842 18.7794 308.561 19.0607C308.279 19.342 307.898 19.5 307.5 19.5Z" stroke="url(#paint0_linear_2599_201)" stroke-width="1.5" stroke-linecap="round" stroke-linejoin="round"/>
<path d="M300 15.75C301.864 15.75 303.375 14.239 303.375 12.375C303.375 10.511 301.864 9 300 9C298.136 9 296.625 10.511 296.625 12.375C296.625 14.239 298.136 15.75 300 15.75Z" stroke="url(#paint1_linear_2599_201)" stroke-width="1.5" stroke-linecap="round" stroke-linejoin="round"/>
<path d="M332 21C336.971 21 341 16.9706 341 12C341 7.02944 336.971 3 332 3C327.029 3 323 7.02944 323 12C323 16.9706 327.029 21 332 21Z" stroke="white" stroke-width="1.5" stroke-linecap="round" stroke-linejoin="round"/>
<path d="M331.25 11.25H332V16.5H332.75" stroke="white" stroke-width="1.5" stroke-linecap="round" stroke-linejoin="round"/>
<path d="M332.188 7.875C332.188 8.08211 332.02 8.25 331.812 8.25C331.605 8.25 331.438 8.08211 331.438 7.875C331.438 7.66789 331.605 7.5 331.812 7.5C332.02 7.5 332.188 7.66789 332.188 7.875Z" fill="#1A1C1F" stroke="white" stroke-width="1.5"/>
<path d="M361 4.5L368.5 12L361 19.5" stroke="#6A737D" stroke-width="1.5" stroke-linecap="round" stroke-linejoin="round"/>
<defs>
<linearGradient id="paint0_linear_2599_201" x1="291" y1="3.75" x2="301.386" y2="-0.253328" gradientUnits="userSpaceOnUse">
<stop stop-color="#E1313C"/>
<stop offset="1" stop-color="#CB1B26"/>
</linearGradient>
<linearGradient id="paint1_linear_2599_201" x1="296.625" y1="9" x2="300.642" y2="7.64534" gradientUnits="userSpaceOnUse">
<stop stop-color="#E1313C"/>
<stop offset="1" stop-color="#CB1B26"/>
</linearGradient>
</defs>
</svg>
