<svg width="48" height="16" viewBox="0 0 48 16" fill="none" xmlns="http://www.w3.org/2000/svg">
<path d="M11.6112 13.4045C10.5423 14.1188 9.28557 14.5 8 14.5C6.27671 14.498 4.62456 13.8125 3.406 12.594C2.18745 11.3754 1.50199 9.7233 1.5 8C1.5 6.71443 1.88121 5.45772 2.59544 4.3888C3.30968 3.31988 4.32484 2.48676 5.51256 1.99479C6.70028 1.50282 8.00721 1.3741 9.26808 1.6249C10.529 1.8757 11.6871 2.49476 12.5962 3.4038C13.5052 4.31286 14.1243 5.47104 14.3751 6.73191C14.6259 7.99279 14.4972 9.29972 14.0052 10.4874C13.5132 11.6752 12.6801 12.6903 11.6112 13.4045Z" fill="#2F363D"/>
<path d="M5.52453 8.02539C5.57095 7.97895 5.62605 7.94211 5.68672 7.91697C5.74737 7.89184 5.81239 7.87891 5.87805 7.87891C5.94371 7.87891 6.00872 7.89184 6.06937 7.91697C6.13004 7.94211 6.18514 7.97895 6.23156 8.02539L7.49914 9.29297V5.5C7.49914 5.36739 7.55181 5.24021 7.64558 5.14644C7.73936 5.05268 7.86653 5 7.99914 5C8.13174 5 8.25892 5.05268 8.35269 5.14644C8.44647 5.24021 8.49914 5.36739 8.49914 5.5V9.29297L9.76672 8.02539C9.8605 7.9318 9.98762 7.87927 10.1201 7.87933C10.2526 7.8794 10.3797 7.93207 10.4734 8.02576C10.5671 8.11945 10.6197 8.24651 10.6198 8.37901C10.6199 8.51152 10.5673 8.63863 10.4737 8.73243L8.35326 10.8529C8.25925 10.9467 8.1319 10.9993 7.99914 10.9993C7.86637 10.9993 7.73902 10.9467 7.64501 10.8529L5.52453 8.73243C5.47809 8.686 5.44125 8.63089 5.41612 8.57024C5.39098 8.50957 5.37805 8.44456 5.37805 8.37891C5.37805 8.31325 5.39098 8.24823 5.41612 8.18757C5.44125 8.12692 5.47809 8.0718 5.52453 8.02539Z" fill="#FAFBFC"/>
<path d="M24 14.6666C25.3186 14.6666 26.6075 14.2756 27.7038 13.543C28.8001 12.8105 29.6547 11.7693 30.1592 10.5511C30.6637 9.33297 30.7957 7.99252 30.5385 6.69932C30.2813 5.4061 29.6464 4.21822 28.7141 3.28588C27.7817 2.35353 26.5938 1.71858 25.3006 1.46136C24.0074 1.20412 22.667 1.33614 21.4488 1.84073C20.2306 2.3453 19.1894 3.1998 18.4569 4.29612C17.7243 5.39245 17.3333 6.68138 17.3333 7.99992C17.3354 9.7674 18.0384 11.4619 19.2882 12.7117C20.538 13.9615 22.2325 14.6646 24 14.6666ZM21.4619 8.02596C21.5096 7.97833 21.5661 7.94054 21.6283 7.91477C21.6905 7.88898 21.7572 7.87572 21.8245 7.87572C21.8919 7.87572 21.9586 7.88898 22.0208 7.91477C22.083 7.94054 22.1395 7.97833 22.1871 8.02596L23.4872 9.32604V5.43581C23.4872 5.29981 23.5412 5.16937 23.6374 5.0732C23.7336 4.97702 23.864 4.923 24 4.923C24.136 4.923 24.2665 4.97702 24.3626 5.0732C24.4588 5.16937 24.5128 5.29981 24.5128 5.43581V9.32604L25.8129 8.02596C25.9091 7.92997 26.0395 7.87609 26.1754 7.87616C26.3113 7.87624 26.4416 7.93025 26.5377 8.02634C26.6338 8.12244 26.6878 8.25276 26.6879 8.38865C26.6879 8.52456 26.6341 8.65492 26.5381 8.75112L24.3632 10.926C24.2668 11.0221 24.1362 11.0761 24 11.0761C23.8638 11.0761 23.7332 11.0221 23.6368 10.926L21.4619 8.75112C21.4143 8.70352 21.3765 8.647 21.3508 8.58478C21.325 8.52257 21.3117 8.45588 21.3117 8.38854C21.3117 8.3212 21.325 8.25452 21.3508 8.1923C21.3765 8.13009 21.4143 8.07357 21.4619 8.02596Z" fill="#ECF0F3"/>
<path d="M21.4616 8.02606C21.5092 7.97843 21.5657 7.94064 21.6279 7.91486C21.6901 7.88908 21.7568 7.87582 21.8242 7.87582C21.8915 7.87582 21.9582 7.88908 22.0204 7.91486C22.0826 7.94064 22.1391 7.97843 22.1867 8.02606L23.4868 9.32614V5.43591C23.4868 5.2999 23.5409 5.16947 23.637 5.0733C23.7332 4.97712 23.8636 4.9231 23.9996 4.9231C24.1357 4.9231 24.2661 4.97712 24.3623 5.0733C24.4584 5.16947 24.5125 5.2999 24.5125 5.43591L24.5125 9.32614L25.8125 8.02606C25.9087 7.93006 26.0391 7.87618 26.175 7.87626C26.3109 7.87632 26.4412 7.93035 26.5373 8.02644C26.6334 8.12254 26.6874 8.25284 26.6875 8.38875C26.6876 8.52464 26.6337 8.65502 26.5377 8.75122L24.3628 10.9261C24.2664 11.0222 24.1358 11.0762 23.9996 11.0762C23.8635 11.0762 23.7329 11.0222 23.6364 10.9261L21.4616 8.75122C21.414 8.7036 21.3762 8.64708 21.3504 8.58487C21.3246 8.52266 21.3113 8.45598 21.3113 8.38863C21.3113 8.3213 21.3246 8.25462 21.3504 8.1924C21.3762 8.13019 21.414 8.07366 21.4616 8.02606Z" fill="#24292E"/>
<path d="M36.3888 13.4045C37.4577 14.1188 38.7144 14.5 40 14.5C41.7233 14.498 43.3754 13.8125 44.594 12.594C45.8125 11.3754 46.498 9.7233 46.5 8C46.5 6.71443 46.1188 5.45772 45.4045 4.3888C44.6903 3.31988 43.6752 2.48676 42.4874 1.99479C41.2997 1.50282 39.9928 1.3741 38.7319 1.6249C37.471 1.8757 36.3129 2.49476 35.4038 3.4038C34.4948 4.31286 33.8757 5.47104 33.6249 6.73191C33.3741 7.99279 33.5028 9.29972 33.9948 10.4874C34.4868 11.6752 35.3199 12.6903 36.3888 13.4045Z" fill="#429CFF"/>
<path d="M42.4755 7.97392C42.4291 8.02036 42.374 8.0572 42.3133 8.08233C42.2526 8.10747 42.1876 8.1204 42.122 8.1204C42.0563 8.1204 41.9913 8.10747 41.9306 8.08233C41.87 8.0572 41.8149 8.02036 41.7685 7.97392L40.5009 6.70635V10.4993C40.5009 10.6319 40.4482 10.7591 40.3544 10.8529C40.2607 10.9466 40.1335 10.9993 40.0009 10.9993C39.8683 10.9993 39.7411 10.9466 39.6473 10.8529C39.5536 10.7591 39.5009 10.6319 39.5009 10.4993V6.70635L38.2333 7.97392C38.1395 8.06751 38.0124 8.12004 37.8799 8.11997C37.7474 8.11991 37.6203 8.06724 37.5266 7.97355C37.433 7.87985 37.3803 7.7528 37.3802 7.62029C37.3801 7.48779 37.4327 7.36068 37.5263 7.26689L39.6468 5.1464C39.7408 5.05265 39.8681 5 40.0009 5C40.1336 5 40.261 5.05265 40.355 5.1464L42.4755 7.26689C42.5219 7.31331 42.5588 7.36841 42.5839 7.42907C42.609 7.48973 42.622 7.55475 42.622 7.6204C42.622 7.68607 42.609 7.75108 42.5839 7.81173C42.5588 7.87239 42.5219 7.92751 42.4755 7.97392Z" fill="#FAFBFC"/>
</svg>
