<svg width="14" height="13" viewBox="0 0 14 13" fill="none" xmlns="http://www.w3.org/2000/svg">
<path fill-rule="evenodd" clip-rule="evenodd" d="M2.69728 4.43848C1.0686 5.12635 0 6.28161 0 7.59075V8.68166C0 10.7904 2.7725 12.4998 6.19231 12.4998C9.61212 12.4998 12.3846 10.7904 12.3846 8.68166V7.59075C12.3846 7.02509 12.1851 6.48816 11.8271 6.00524C11.553 6.19059 11.2348 6.35652 10.8809 6.49852C11.1554 6.83296 11.3077 7.2024 11.3077 7.59081C11.3077 9.09703 9.01744 10.3181 6.19229 10.3181C3.36714 10.3181 1.0769 9.09703 1.0769 7.59081C1.0769 6.69948 1.87891 5.90803 3.11916 5.41037C2.87319 5.11067 2.72534 4.78286 2.69728 4.43848Z" fill="#24292E"/>
<path fill-rule="evenodd" clip-rule="evenodd" d="M14 5.40907V4.31816C14 2.20946 11.2275 0.5 7.80766 0.5C4.38785 0.5 1.61536 2.20946 1.61536 4.31816V5.40907C1.61536 7.51776 4.38785 9.22723 7.80766 9.22723C11.2275 9.22723 14 7.51776 14 5.40907ZM7.80765 7.0454C10.6328 7.0454 12.923 5.82437 12.923 4.31814C12.923 2.81192 10.6328 1.59089 7.80765 1.59089C4.9825 1.59089 2.69226 2.81192 2.69226 4.31814C2.69226 5.82437 4.9825 7.0454 7.80765 7.0454Z" fill="#24292E"/>
</svg>
