<svg width="16" height="17" viewBox="0 0 16 17" fill="none" xmlns="http://www.w3.org/2000/svg">
<path fill-rule="evenodd" clip-rule="evenodd" d="M12.3028 7.58252C12.2747 7.92073 12.1269 8.24268 11.8809 8.53701C13.1212 9.02579 13.9232 9.80311 13.9232 10.6785C13.9232 12.1578 11.6329 13.3571 8.80777 13.3571C5.98262 13.3571 3.69238 12.1578 3.69238 10.6785C3.69238 10.2971 3.84466 9.93423 4.11911 9.60579C3.76523 9.46632 3.44703 9.30337 3.17297 9.12134C2.81498 9.59563 2.61548 10.123 2.61548 10.6785V11.75C2.61548 13.821 5.38798 15.5 8.80779 15.5C12.2276 15.5 15.0001 13.821 15.0001 11.75V10.6785C15.0001 9.39276 13.9315 8.25811 12.3028 7.58252Z" fill="#24292E"/>
<path fill-rule="evenodd" clip-rule="evenodd" d="M3.69728 4.36816C2.0686 5.04375 1 6.1784 1 7.46417V8.53559C1 10.6066 3.7725 12.2856 7.19231 12.2856C10.6121 12.2856 13.3846 10.6066 13.3846 8.53559V7.46417C13.3846 6.9086 13.1851 6.38125 12.8271 5.90696C12.553 6.089 12.2348 6.25197 11.8809 6.39145C12.1554 6.71992 12.3077 7.08278 12.3077 7.46426C12.3077 8.9436 10.0174 10.1428 7.19229 10.1428C4.36714 10.1428 2.0769 8.9436 2.0769 7.46426C2.0769 6.58884 2.87892 5.81151 4.11919 5.32274C3.8732 5.02838 3.72534 4.70641 3.69728 4.36816Z" fill="#24292E"/>
<path fill-rule="evenodd" clip-rule="evenodd" d="M15 5.32143V4.25C15 2.17895 12.2275 0.5 8.80769 0.5C5.38789 0.5 2.61539 2.17895 2.61539 4.25V5.32143C2.61539 7.39248 5.38789 9.07143 8.80769 9.07143C12.2275 9.07143 15 7.39248 15 5.32143ZM8.80768 6.92855C11.6328 6.92855 13.9231 5.72932 13.9231 4.24998C13.9231 2.77065 11.6328 1.57141 8.80768 1.57141C5.98253 1.57141 3.69229 2.77065 3.69229 4.24998C3.69229 5.72932 5.98253 6.92855 8.80768 6.92855Z" fill="#24292E"/>
</svg>
