<svg width="16" height="16" viewBox="0 0 16 16" fill="none" xmlns="http://www.w3.org/2000/svg">
<g clip-path="url(#clip0_314_270750)">
<path d="M14 2C14.1768 2 14.3464 2.07024 14.4714 2.19526C14.5964 2.32029 14.6666 2.48986 14.6666 2.66667V6.33333C14.2246 6.33333 13.8007 6.50893 13.4881 6.82149C13.1756 7.13405 13 7.55797 13 8C13 8.44203 13.1756 8.86595 13.4881 9.17851C13.8007 9.49107 14.2246 9.66667 14.6666 9.66667V13.3333C14.6666 13.5101 14.5964 13.6797 14.4714 13.8047C14.3464 13.9298 14.1768 14 14 14H1.99998C1.82317 14 1.6536 13.9298 1.52858 13.8047C1.40355 13.6797 1.33331 13.5101 1.33331 13.3333V9.66667C1.77534 9.66667 2.19926 9.49107 2.51182 9.17851C2.82439 8.86595 2.99998 8.44203 2.99998 8C2.99998 7.55797 2.82439 7.13405 2.51182 6.82149C2.19926 6.50893 1.77534 6.33333 1.33331 6.33333V2.66667C1.33331 2.48986 1.40355 2.32029 1.52858 2.19526C1.6536 2.07024 1.82317 2 1.99998 2H14Z" fill="#1C83F4"/>
</g>
<defs>
<clipPath id="clip0_314_270750">
<rect width="16" height="16" fill="white"/>
</clipPath>
</defs>
</svg>
