<svg width="19" height="20" viewBox="0 0 19 20" fill="none" xmlns="http://www.w3.org/2000/svg">
<path d="M9.375 0.749268C6.88946 0.752071 4.50652 1.74069 2.74897 3.49824C0.991425 5.25578 0.00280391 7.63872 0 10.1243V18.0305C0.000446154 18.4199 0.155337 18.7933 0.430692 19.0686C0.706046 19.344 1.07938 19.4988 1.46878 19.4993H9.375C11.8614 19.4993 14.246 18.5115 16.0041 16.7534C17.7623 14.9952 18.75 12.6107 18.75 10.1243C18.75 7.63786 17.7623 5.25329 16.0041 3.49514C14.246 1.73699 11.8614 0.749268 9.375 0.749268ZM11.9998 12.7493H6.37482C6.1759 12.7493 5.98514 12.6703 5.84449 12.5296C5.70383 12.3889 5.62482 12.1982 5.62482 11.9993C5.62482 11.8004 5.70383 11.6096 5.84449 11.4689C5.98514 11.3283 6.1759 11.2493 6.37482 11.2493H11.9998C12.1987 11.2493 12.3895 11.3283 12.5301 11.4689C12.6708 11.6096 12.7498 11.8004 12.7498 11.9993C12.7498 12.1982 12.6708 12.3889 12.5301 12.5296C12.3895 12.6703 12.1987 12.7493 11.9998 12.7493ZM11.9998 9.74927H6.37482C6.1759 9.74927 5.98514 9.67025 5.84449 9.5296C5.70383 9.38895 5.62482 9.19818 5.62482 8.99927C5.62482 8.80035 5.70383 8.60959 5.84449 8.46894C5.98514 8.32829 6.1759 8.24927 6.37482 8.24927H11.9998C12.1987 8.24927 12.3895 8.32829 12.5301 8.46894C12.6708 8.60959 12.7498 8.80035 12.7498 8.99927C12.7498 9.19818 12.6708 9.38895 12.5301 9.5296C12.3895 9.67025 12.1987 9.74927 11.9998 9.74927Z" fill="#17A74F"/>
</svg>
