<svg width="176" height="232" viewBox="0 0 176 232" fill="none" xmlns="http://www.w3.org/2000/svg">
<path d="M7.79921 17.7067L88 0L168.201 17.7067C170.368 18.1853 172.307 19.3839 173.696 21.1045C175.085 22.8252 175.843 24.965 175.843 27.1709V124.015C175.842 133.593 173.462 143.022 168.912 151.467C164.363 159.911 157.785 167.109 149.763 172.422L88 213.333L26.2365 172.422C18.2162 167.11 11.6395 159.914 7.09011 151.471C2.54069 143.028 0.159167 133.601 0.15686 124.024V27.1709C0.157241 24.965 0.914634 22.8252 2.30404 21.1045C3.69344 19.3839 5.6318 18.1853 7.79921 17.7067V17.7067Z" fill="#222428"/>
<g filter="url(#filter0_d_2302_1902)">
<path d="M16.3905 26.8624L87.9984 10.9785L159.606 26.8624C161.541 27.2918 163.272 28.367 164.513 29.9105C165.753 31.454 166.429 33.3736 166.43 35.3524V122.227C166.429 130.819 164.303 139.278 160.241 146.853C156.179 154.428 150.307 160.885 143.144 165.651L87.9984 202.351L32.8524 165.651C25.6914 160.886 19.8194 154.43 15.7574 146.857C11.6954 139.283 9.56908 130.826 9.56702 122.236V35.3524C9.56736 33.3736 10.2436 31.454 11.4841 29.9105C12.7247 28.367 14.4554 27.2918 16.3905 26.8624V26.8624Z" fill="url(#paint0_radial_2302_1902)"/>
<path d="M87.9984 12.0028L16.6072 27.8387C16.6071 27.8387 16.6071 27.8387 16.6071 27.8387C14.8936 28.2189 13.3616 29.1709 12.2636 30.537C11.1657 31.903 10.5674 33.6016 10.567 35.3524L87.9984 12.0028ZM87.9984 12.0028L159.39 27.8387C161.103 28.2189 162.635 29.1709 163.733 30.537C164.831 31.9031 165.429 33.6017 165.43 35.3526V122.227C165.429 130.654 163.344 138.951 159.36 146.381C155.376 153.81 149.616 160.144 142.59 164.818L143.144 165.651L142.59 164.819L87.9984 201.15L33.4064 164.819L32.8579 165.643L33.4064 164.818C26.3823 160.145 20.6228 153.813 16.6387 146.384C12.6546 138.956 10.5691 130.661 10.567 122.236C10.567 122.235 10.567 122.235 10.567 122.235V35.3526L87.9984 12.0028Z" stroke="url(#paint1_linear_2302_1902)" stroke-width="2"/>
</g>
<path opacity="0.1" fill-rule="evenodd" clip-rule="evenodd" d="M16.2548 147.758C48.5589 147.207 81.0653 117.424 93.3493 74.2518C99.5633 52.4125 99.5739 30.7622 94.5493 12.436L88.004 10.9842L16.3962 26.8681C14.461 27.2975 12.7303 28.3727 11.4898 29.9162C10.2492 31.4597 9.573 33.3792 9.57266 35.3581V122.241C9.57472 130.832 11.7011 139.289 15.7631 146.863C15.9241 147.163 16.0881 147.462 16.2548 147.758Z" fill="white" fill-opacity="0.76"/>
<path d="M30.9131 121.307H31.7781L30.9667 124.667C30.9014 124.85 30.8738 125.043 30.8857 125.237C30.8975 125.43 30.9484 125.619 31.0355 125.792C31.1443 125.927 31.2859 126.032 31.4466 126.097C31.6074 126.162 31.7821 126.185 31.9542 126.164C32.354 126.178 32.745 126.046 33.0539 125.792C33.3668 125.488 33.578 125.096 33.6586 124.667L34.47 121.307H35.3478L34.5236 124.752C34.401 125.402 34.0631 125.992 33.5643 126.427C33.0493 126.819 32.4125 127.019 31.7653 126.99C31.4847 127.026 31.1997 126.995 30.9335 126.899C30.6673 126.803 30.4277 126.646 30.2344 126.439C30.0883 126.189 29.9989 125.91 29.9724 125.621C29.946 125.333 29.9832 125.042 30.0813 124.769L30.9131 121.307Z" fill="white"/>
<path d="M35.2302 126.834L36.603 121.087L39.2108 124.466C39.2797 124.56 39.3485 124.657 39.4174 124.767C39.4863 124.876 39.5552 124.999 39.6369 125.136L40.5554 121.312H41.3668L39.9941 127.046L37.3327 123.606L37.126 123.318C37.057 123.215 37.0012 123.104 36.9602 122.987L36.0416 126.827H35.2302V126.834Z" fill="white"/>
<path d="M41.284 126.835L42.6021 121.307H43.4792L42.1636 126.835H41.284Z" fill="white"/>
<path d="M43.4277 126.835L44.7443 121.307H47.7527L47.5741 122.072H45.4434L45.1168 123.444H47.2449L47.0536 124.224H44.9229L44.3054 126.817H43.4277V126.835Z" fill="white"/>
<path d="M47.419 126.835L48.7346 121.307H49.6142L48.2961 126.835H47.419Z" fill="white"/>
<path d="M49.5245 126.835L50.8436 121.307H53.8469L53.6683 122.072H51.5402L51.2085 123.456H53.3392L53.1451 124.239H51.0197L50.5935 126.024H52.7217L52.5303 126.83L49.5245 126.835Z" fill="white"/>
<path d="M53.5492 126.833L54.8685 121.305H56.0473C56.582 121.284 57.1173 121.326 57.6421 121.43C57.9143 121.499 58.1646 121.636 58.3694 121.828C58.6204 122.083 58.7877 122.408 58.8491 122.761C58.9145 123.195 58.8912 123.639 58.7802 124.064C58.673 124.526 58.4883 124.966 58.2341 125.367C57.9911 125.739 57.6731 126.057 57.3002 126.3C57.0261 126.488 56.7186 126.623 56.3943 126.698C55.9254 126.795 55.4467 126.837 54.968 126.823H53.5519L53.5492 126.833ZM54.621 126.009H55.361C55.6742 126.018 55.9876 125.992 56.2949 125.93C56.5069 125.874 56.7073 125.781 56.8869 125.655C57.1359 125.475 57.3459 125.247 57.5044 124.984C57.6797 124.696 57.8047 124.381 57.8743 124.051C57.9552 123.752 57.9787 123.441 57.9433 123.133C57.9115 122.884 57.8066 122.65 57.6421 122.46C57.5136 122.323 57.3463 122.227 57.1624 122.187C56.8421 122.12 56.5147 122.093 56.1876 122.106H55.5575L54.621 126.009Z" fill="white"/>
<path d="M62.8141 124.355L62.222 126.836H61.403L62.7222 121.308H64.0541C64.339 121.301 64.6239 121.324 64.9038 121.377C65.0639 121.408 65.2117 121.484 65.33 121.596C65.4745 121.732 65.5704 121.911 65.603 122.106C65.6414 122.344 65.6327 122.586 65.5774 122.82C65.5133 123.079 65.4054 123.325 65.2585 123.547C65.1401 123.734 64.9858 123.896 64.8045 124.022C64.6232 124.149 64.4184 124.239 64.2021 124.286C63.9124 124.337 63.6184 124.359 63.3243 124.353H62.8141V124.355ZM63.0462 123.616H63.2658C63.6143 123.642 63.964 123.585 64.2863 123.45C64.3866 123.385 64.4725 123.301 64.5388 123.202C64.6051 123.103 64.6502 122.991 64.6716 122.874C64.712 122.77 64.7229 122.658 64.7031 122.548C64.6833 122.439 64.6335 122.337 64.5594 122.254C64.283 122.103 63.9667 122.041 63.6536 122.076H63.4442L63.0462 123.616Z" fill="white"/>
<path d="M68.5594 126.834L68.2838 125.409H66.1429L65.1836 126.834H64.2675L68.2481 121.087L69.4856 126.834H68.5594ZM66.6634 124.654H68.1613L67.9061 123.392C67.8897 123.301 67.8804 123.209 67.8781 123.117C67.8668 123.002 67.8626 122.888 67.8653 122.773C67.814 122.891 67.7543 123.006 67.6866 123.117C67.6364 123.216 67.581 123.312 67.5208 123.405L66.6634 124.654Z" fill="white"/>
<path d="M70.7374 126.836L71.3422 124.314L70.245 121.326H71.1635L71.8499 123.203C71.8499 123.259 71.8779 123.315 71.9034 123.396C71.929 123.478 71.9443 123.562 71.9749 123.651L72.1408 123.396C72.1912 123.32 72.2466 123.246 72.3067 123.177L73.9117 121.326H74.7895L72.2224 124.301L71.6177 126.823H70.7374V126.836Z" fill="white"/>
<path d="M79.1142 124.094C79.1217 123.975 79.1353 123.856 79.155 123.738C79.1678 123.572 79.1831 123.449 79.1958 123.34C79.1423 123.465 79.0837 123.595 79.0174 123.725C78.9404 123.858 78.8551 123.987 78.7621 124.11L76.6468 127.057L75.9605 124.051C75.935 123.926 75.9069 123.796 75.8941 123.694C75.8766 123.58 75.8671 123.465 75.8659 123.35C75.8379 123.462 75.797 123.585 75.7537 123.722C75.7082 123.858 75.6545 123.991 75.5929 124.12L74.3554 126.835H73.544L76.1952 121.073L76.9606 124.559C76.9793 124.649 76.9929 124.74 77.0014 124.831C77.0014 124.956 77.0424 125.119 77.0704 125.313C77.1674 125.148 77.2898 124.954 77.4531 124.706C77.4895 124.658 77.5227 124.608 77.5526 124.556L79.9411 121.071L79.8593 126.833H79.0479L79.1142 124.094Z" fill="white"/>
<path d="M80.5575 126.835L81.8741 121.307H84.8825L84.7039 122.072H82.5732L82.2466 123.456H84.3747L84.1834 124.239H82.0527L81.6266 126.024H83.7573L83.5633 126.83L80.5575 126.835Z" fill="white"/>
<path d="M84.5679 126.834L85.9406 121.087L88.5509 124.466C88.6173 124.56 88.6887 124.657 88.7576 124.767C88.8265 124.876 88.8954 124.999 88.977 125.136L89.8958 121.312H90.7072L89.3343 127.046L86.6704 123.606L86.4637 123.318C86.3956 123.215 86.34 123.103 86.2978 122.987L85.3793 126.827H84.5679V126.834Z" fill="white"/>
<path d="M93.4988 122.065L92.3606 126.825H91.4829L92.621 122.065H91.1946L91.3732 121.3H95.1012L94.9201 122.065H93.4988Z" fill="white"/>
<path d="M94.4127 125.726L95.1934 125.394C95.1898 125.499 95.2086 125.604 95.2487 125.701C95.2887 125.798 95.3491 125.886 95.4256 125.958C95.6071 126.095 95.8312 126.164 96.0584 126.152C96.3008 126.159 96.5381 126.081 96.7295 125.932C96.9215 125.787 97.054 125.577 97.102 125.341C97.1837 125.009 96.995 124.721 96.5255 124.476C96.4773 124.444 96.4261 124.417 96.3724 124.395C95.9816 124.21 95.6423 123.931 95.3848 123.584C95.2448 123.313 95.2156 122.999 95.3032 122.707C95.4048 122.268 95.6577 121.879 96.0176 121.608C96.3837 121.328 96.8326 121.179 97.2934 121.182C97.6243 121.167 97.9525 121.248 98.2375 121.417C98.3506 121.492 98.4454 121.591 98.5147 121.708C98.5841 121.824 98.6263 121.955 98.6382 122.09L97.8726 122.447C97.8244 122.298 97.7362 122.164 97.6175 122.062C97.4973 121.976 97.352 121.932 97.2042 121.937C96.9874 121.935 96.7756 122.002 96.5994 122.128C96.4326 122.253 96.3166 122.434 96.2728 122.638C96.1912 122.97 96.4208 123.283 96.9567 123.571C96.9882 123.592 97.0213 123.61 97.0561 123.625C97.4228 123.785 97.7401 124.04 97.9748 124.364C98.116 124.645 98.1451 124.968 98.0564 125.269C97.9489 125.764 97.6729 126.205 97.2757 126.519C96.8694 126.829 96.3704 126.993 95.8593 126.985C95.4782 127.01 95.1014 126.892 94.803 126.654C94.666 126.544 94.5587 126.401 94.4905 126.239C94.4224 126.077 94.3957 125.901 94.4127 125.726Z" fill="white"/>
<path d="M100.877 126.835L102.195 121.307H103.072L101.757 126.835H100.877Z" fill="white"/>
<path d="M103.021 126.834L104.393 121.087L107.001 124.466C107.07 124.56 107.136 124.657 107.208 124.767C107.279 124.876 107.346 124.999 107.427 125.136L108.346 121.312H109.157L107.785 127.046L105.123 123.606L104.916 123.318C104.847 123.215 104.792 123.104 104.751 122.987L103.832 126.827H103.021V126.834Z" fill="white"/>
<path d="M111.959 122.065L110.821 126.825H109.94L111.081 122.065H109.652L109.831 121.3H113.564L113.385 122.065H111.959Z" fill="white"/>
<path d="M112.918 126.835L114.234 121.307H117.256L117.077 122.072H114.959L114.627 123.456H116.758L116.564 124.239H114.436L114.01 126.024H116.138L115.947 126.83L112.918 126.835Z" fill="white"/>
<path d="M118.33 124.351L117.743 126.819H116.919L118.235 121.291H119.46C119.731 121.285 120.001 121.308 120.266 121.36C120.437 121.392 120.594 121.473 120.721 121.592C120.856 121.731 120.945 121.91 120.976 122.102C121.013 122.334 121.003 122.572 120.948 122.8C120.871 123.198 120.674 123.562 120.384 123.843C120.099 124.096 119.742 124.255 119.363 124.297L120.613 126.806H119.623L118.432 124.338L118.33 124.351ZM118.552 123.652H118.712C119.043 123.679 119.375 123.622 119.677 123.486C119.775 123.418 119.858 123.33 119.921 123.228C119.985 123.127 120.026 123.013 120.044 122.895C120.113 122.594 120.085 122.385 119.95 122.25C119.691 122.092 119.386 122.025 119.085 122.058H118.919L118.552 123.652Z" fill="white"/>
<path d="M121.139 126.835L122.456 121.307H125.464L125.286 122.072H123.155L122.828 123.444H124.956L124.765 124.224H122.634L122.017 126.817H121.139V126.835Z" fill="white"/>
<path d="M128.396 126.834L128.123 125.409H125.982L125.018 126.834H124.099L128.08 121.087L129.317 126.834H128.396ZM126.49 124.654H127.988L127.733 123.392C127.717 123.301 127.709 123.209 127.707 123.117C127.744 123.096 127.773 123.063 127.789 123.023C127.806 122.984 127.809 122.94 127.797 122.899C127.786 122.858 127.762 122.821 127.728 122.795C127.694 122.769 127.653 122.755 127.61 122.755C127.568 122.755 127.526 122.769 127.492 122.795C127.458 122.821 127.434 122.858 127.423 122.899C127.412 122.94 127.415 122.984 127.431 123.023C127.447 123.063 127.476 123.096 127.513 123.117C127.466 123.217 127.41 123.313 127.347 123.405L126.49 124.654Z" fill="white"/>
<path d="M135.03 122.654C134.848 122.442 134.618 122.277 134.359 122.172C134.094 122.06 133.808 122.004 133.52 122.009C132.941 122.005 132.38 122.209 131.94 122.585C131.477 122.974 131.154 123.504 131.021 124.094C130.945 124.34 130.922 124.6 130.956 124.856C130.989 125.112 131.078 125.357 131.215 125.576C131.352 125.769 131.536 125.924 131.75 126.025C131.965 126.127 132.201 126.171 132.438 126.154C132.762 126.154 133.083 126.093 133.384 125.973C133.727 125.85 134.05 125.679 134.344 125.463L134.089 126.483C133.822 126.656 133.53 126.786 133.224 126.868C132.92 126.952 132.607 126.994 132.292 126.993C131.915 127 131.541 126.93 131.192 126.787C130.883 126.653 130.613 126.44 130.412 126.17C130.205 125.897 130.072 125.575 130.026 125.236C129.968 124.852 129.992 124.459 130.095 124.084C130.192 123.681 130.354 123.297 130.575 122.947C130.798 122.59 131.081 122.274 131.412 122.014C131.73 121.747 132.093 121.538 132.484 121.397C132.857 121.261 133.252 121.191 133.65 121.19C133.949 121.186 134.246 121.233 134.53 121.328C134.795 121.425 135.04 121.57 135.255 121.754L135.03 122.654Z" fill="white"/>
<path d="M135.104 126.835L136.421 121.307H139.429L139.25 122.072H137.122L136.791 123.456H138.919L138.727 124.239H136.599L136.173 126.024H138.301L138.11 126.83L135.104 126.835Z" fill="white"/>
<path d="M119.133 116.497H113.106L121.48 86.2776H127.497L119.133 116.497Z" fill="white"/>
<path d="M115.997 87.222C115.773 86.928 115.478 86.6948 115.14 86.5438C114.803 86.3928 114.432 86.3288 114.063 86.3577H80.958L79.3251 92.2858H109.435L107.679 98.6091H83.5863H77.5593L72.5631 116.648H78.5876L81.9379 104.55H109.026C109.898 104.542 110.74 104.237 111.415 103.686C112.128 103.154 112.645 102.401 112.884 101.544L116.235 89.4454C116.374 89.0824 116.425 88.6917 116.384 88.3052C116.342 87.9187 116.21 87.5475 115.997 87.222Z" fill="white"/>
<path d="M69.0499 114.602C68.8904 115.186 68.5438 115.702 68.0631 116.07C67.5825 116.439 66.9942 116.639 66.3885 116.642H35.3194C34.9568 116.667 34.5936 116.601 34.2629 116.45C33.9322 116.299 33.6446 116.068 33.4263 115.778C33.2186 115.466 33.0873 115.109 33.043 114.737C32.9987 114.365 33.0425 113.988 33.171 113.636L40.7495 86.3539H46.7739L40.0094 110.719H64.115L70.8845 86.3539H76.9089L69.0499 114.602Z" fill="white"/>
<path d="M137.919 86.3299L145.539 101.475L129.519 116.62L137.919 86.3299Z" fill="#098041"/>
<path d="M132.554 86.3299L140.173 101.475L124.139 116.62L132.554 86.3299Z" fill="#E97626"/>
<g filter="url(#filter1_f_2302_1902)">
<ellipse cx="88.0006" cy="216.666" rx="74.6667" ry="3.33333" fill="black"/>
</g>
<defs>
<filter id="filter0_d_2302_1902" x="3.56702" y="4.97852" width="168.863" height="203.373" filterUnits="userSpaceOnUse" color-interpolation-filters="sRGB">
<feFlood flood-opacity="0" result="BackgroundImageFix"/>
<feColorMatrix in="SourceAlpha" type="matrix" values="0 0 0 0 0 0 0 0 0 0 0 0 0 0 0 0 0 0 127 0" result="hardAlpha"/>
<feOffset/>
<feGaussianBlur stdDeviation="3"/>
<feComposite in2="hardAlpha" operator="out"/>
<feColorMatrix type="matrix" values="0 0 0 0 0 0 0 0 0 0 0 0 0 0 0 0 0 0 0.25 0"/>
<feBlend mode="normal" in2="BackgroundImageFix" result="effect1_dropShadow_2302_1902"/>
<feBlend mode="normal" in="SourceGraphic" in2="effect1_dropShadow_2302_1902" result="shape"/>
</filter>
<filter id="filter1_f_2302_1902" x="1.33395" y="201.333" width="173.333" height="30.6667" filterUnits="userSpaceOnUse" color-interpolation-filters="sRGB">
<feFlood flood-opacity="0" result="BackgroundImageFix"/>
<feBlend mode="normal" in="SourceGraphic" in2="BackgroundImageFix" result="shape"/>
<feGaussianBlur stdDeviation="6" result="effect1_foregroundBlur_2302_1902"/>
</filter>
<radialGradient id="paint0_radial_2302_1902" cx="0" cy="0" r="1" gradientUnits="userSpaceOnUse" gradientTransform="translate(26.8219 39.9981) rotate(57.5502) scale(160.792 273.832)">
<stop stop-color="#D2CDFD"/>
<stop offset="1" stop-color="#5643D0"/>
</radialGradient>
<linearGradient id="paint1_linear_2302_1902" x1="87.9984" y1="10.9785" x2="87.9984" y2="202.351" gradientUnits="userSpaceOnUse">
<stop stop-color="#151619"/>
<stop offset="1" stop-color="#2E3033"/>
</linearGradient>
</defs>
</svg>
