<svg width="18" height="18" viewBox="0 0 18 18" fill="none" xmlns="http://www.w3.org/2000/svg">
<path d="M16.6455 7.03246C16.3508 6.72514 16.0461 6.40746 15.9309 6.12906C15.8251 5.87332 15.8187 5.44974 15.8125 5.04004C15.801 4.27763 15.7879 3.41353 15.1872 2.81279C14.5865 2.21205 13.7224 2.19901 12.96 2.18748C12.5503 2.1813 12.1267 2.1749 11.8709 2.06908C11.5926 1.95395 11.2749 1.64923 10.9675 1.35451C10.4278 0.836776 9.81581 0.25 9 0.25C8.18419 0.25 7.57231 0.836776 7.03246 1.35451C6.72514 1.64923 6.40746 1.95395 6.12906 2.06908C5.87332 2.1749 5.44974 2.1813 5.04004 2.18748C4.27763 2.19901 3.41353 2.21205 2.81279 2.81279C2.21205 3.41353 2.19901 4.27763 2.18748 5.04004C2.1813 5.44974 2.1749 5.87332 2.06908 6.12906C1.95395 6.40738 1.64923 6.72514 1.35451 7.03246C0.836776 7.57224 0.25 8.18419 0.25 9C0.25 9.81581 0.836776 10.4277 1.35451 10.9675C1.64923 11.2749 1.95395 11.5925 2.06908 11.8709C2.1749 12.1267 2.1813 12.5503 2.18748 12.96C2.19901 13.7224 2.21205 14.5865 2.81279 15.1872C3.41353 15.7879 4.27763 15.801 5.04004 15.8125C5.44974 15.8187 5.87332 15.8251 6.12906 15.9309C6.40738 16.0461 6.72514 16.3508 7.03246 16.6455C7.57224 17.1632 8.18419 17.75 9 17.75C9.81581 17.75 10.4277 17.1632 10.9675 16.6455C11.2749 16.3508 11.5925 16.0461 11.8709 15.9309C12.1267 15.8251 12.5503 15.8187 12.96 15.8125C13.7224 15.801 14.5865 15.7879 15.1872 15.1872C15.7879 14.5865 15.801 13.7224 15.8125 12.96C15.8187 12.5503 15.8251 12.1267 15.9309 11.8709C16.0461 11.5926 16.3508 11.2749 16.6455 10.9675C17.1632 10.4278 17.75 9.81581 17.75 9C17.75 8.18419 17.1632 7.57231 16.6455 7.03246ZM12.869 7.57712L8.28566 11.9521C8.1694 12.0631 8.01486 12.125 7.85414 12.125C7.69342 12.125 7.53888 12.0631 7.42262 11.9521L5.13098 9.76462C5.07157 9.70796 5.02391 9.64015 4.99072 9.56507C4.95752 9.48998 4.93944 9.40909 4.93751 9.32702C4.93559 9.24495 4.94984 9.1633 4.97948 9.08674C5.00911 9.01018 5.05354 8.94021 5.11022 8.88083C5.1669 8.82144 5.23472 8.7738 5.30982 8.74063C5.38492 8.70746 5.46581 8.68941 5.54788 8.68752C5.62996 8.68562 5.7116 8.69991 5.78815 8.72957C5.8647 8.75923 5.93465 8.80368 5.99402 8.86038L7.85414 10.636L12.006 6.67288C12.0653 6.61618 12.1353 6.57173 12.2119 6.54207C12.2884 6.51241 12.37 6.49812 12.4521 6.50002C12.5342 6.50191 12.6151 6.51996 12.6902 6.55313C12.7653 6.5863 12.8331 6.63394 12.8898 6.69332C12.9465 6.75271 12.9909 6.82268 13.0205 6.89924C13.0502 6.9758 13.0644 7.05745 13.0625 7.13952C13.0606 7.22159 13.0425 7.30248 13.0093 7.37757C12.9761 7.45265 12.9284 7.52046 12.869 7.57712Z" fill="#FAFBFC"/>
</svg>
