<svg width="24" height="24" viewBox="0 0 24 24" fill="none" xmlns="http://www.w3.org/2000/svg">
<path fill-rule="evenodd" clip-rule="evenodd" d="M12.3931 2.36126C12.152 2.21291 11.848 2.21291 11.6069 2.36126L1.85693 8.36126C1.57115 8.53712 1.43697 8.88139 1.52835 9.20426C1.61973 9.52712 1.91445 9.75 2.25 9.75H4.5V15.75H3C2.58579 15.75 2.25 16.0858 2.25 16.5C2.25 16.9142 2.58579 17.25 3 17.25H5.25H9.11129C9.03817 16.8444 9 16.4267 9 16C9 14.365 9.56057 12.8609 10.5 11.6694V9.75H12.8443C13.7925 9.27028 14.8647 9 16 9C17.275 9 18.4704 9.34088 19.5 9.93648V9.75H21.75C22.0855 9.75 22.3803 9.52712 22.4717 9.20426C22.563 8.88139 22.4288 8.53712 22.1431 8.36126L12.3931 2.36126ZM9.56085 18.75C9.79091 19.288 10.0864 19.7913 10.4374 20.25H1.5C1.08579 20.25 0.75 19.9142 0.75 19.5C0.75 19.0858 1.08579 18.75 1.5 18.75H9.56085ZM9 15.75V9.75H6V15.75H9ZM19.1002 8.25H18.75H14.25H9.75H5.25H4.89978L12 3.88063L19.1002 8.25Z" fill="#586069"/>
<path d="M16 21C18.7614 21 21 18.7614 21 16C21 13.2386 18.7614 11 16 11C13.2386 11 11 13.2386 11 16C11 18.7614 13.2386 21 16 21Z" stroke="#586069" stroke-width="1.5" stroke-miterlimit="10"/>
<path d="M13.9165 16H18.0832" stroke="#586069" stroke-width="1.5" stroke-linecap="round" stroke-linejoin="round"/>
<path d="M16 13.9165V18.0832" stroke="#586069" stroke-width="1.5" stroke-linecap="round" stroke-linejoin="round"/>
</svg>
