<svg width="24" height="25" viewBox="0 0 24 25" fill="none" xmlns="http://www.w3.org/2000/svg">
<path d="M12.375 2.75C9.88946 2.7528 7.50652 3.74142 5.74897 5.49897C3.99142 7.25652 3.0028 9.63946 3 12.125V20.0313C3.00045 20.4207 3.15534 20.794 3.43069 21.0693C3.70605 21.3447 4.07938 21.4996 4.46878 21.5H12.375C14.8614 21.5 17.246 20.5123 19.0041 18.7541C20.7623 16.996 21.75 14.6114 21.75 12.125C21.75 9.6386 20.7623 7.25403 19.0041 5.49587C17.246 3.73772 14.8614 2.75 12.375 2.75ZM14.9998 14.75H9.37482C9.1759 14.75 8.98514 14.671 8.84449 14.5303C8.70383 14.3897 8.62482 14.1989 8.62482 14C8.62482 13.8011 8.70383 13.6103 8.84449 13.4697C8.98514 13.329 9.1759 13.25 9.37482 13.25H14.9998C15.1987 13.25 15.3895 13.329 15.5301 13.4697C15.6708 13.6103 15.7498 13.8011 15.7498 14C15.7498 14.1989 15.6708 14.3897 15.5301 14.5303C15.3895 14.671 15.1987 14.75 14.9998 14.75ZM14.9998 11.75H9.37482C9.1759 11.75 8.98514 11.671 8.84449 11.5303C8.70383 11.3897 8.62482 11.1989 8.62482 11C8.62482 10.8011 8.70383 10.6103 8.84449 10.4697C8.98514 10.329 9.1759 10.25 9.37482 10.25H14.9998C15.1987 10.25 15.3895 10.329 15.5301 10.4697C15.6708 10.6103 15.7498 10.8011 15.7498 11C15.7498 11.1989 15.6708 11.3897 15.5301 11.5303C15.3895 11.671 15.1987 11.75 14.9998 11.75Z" fill="#17A74F"/>
</svg>
