<svg width="24" height="24" viewBox="0 0 24 24" fill="none" xmlns="http://www.w3.org/2000/svg">
<path d="M20.125 20.1114C20.2849 19.9479 20.3747 19.7282 20.375 19.4993V14.25C20.375 14.2169 20.3618 14.1851 20.3384 14.1616C20.3149 14.1382 20.2832 14.125 20.25 14.125L20.125 20.1114ZM20.125 20.1114V19.5V14.25C20.125 14.2169 20.1382 14.1851 20.1616 14.1616C20.1851 14.1382 20.2168 14.125 20.25 14.125L20.125 20.1114ZM12.75 10.1885H15.9375C15.9375 10.1885 15.9375 10.1885 15.9375 10.1885C15.9622 10.1885 15.9864 10.1958 16.0069 10.2096C16.0275 10.2233 16.0435 10.2428 16.053 10.2657C16.0624 10.2885 16.0649 10.3137 16.0601 10.3379C16.0553 10.3621 16.0434 10.3844 16.0259 10.4019C16.0259 10.4019 16.0259 10.4019 16.0259 10.4019L12.0884 14.3384L12.0883 14.3384C12.0649 14.3618 12.0331 14.375 12 14.375C11.9669 14.375 11.9351 14.3618 11.9117 14.3384L11.9116 14.3384L7.97414 10.4019C7.97413 10.4019 7.97412 10.4019 7.97412 10.4019C7.95664 10.3844 7.94474 10.3621 7.93992 10.3379C7.9351 10.3137 7.93757 10.2885 7.94703 10.2657L7.3696 10.0265L7.94703 10.2657C7.95649 10.2428 7.97251 10.2233 7.99307 10.2096C8.01362 10.1958 8.03778 10.1885 8.0625 10.1885C8.06251 10.1885 8.06251 10.1885 8.06252 10.1885H11.25H11.875V9.56351V3.75C11.875 3.71685 11.8882 3.68505 11.9116 3.66161C11.9351 3.63817 11.9668 3.625 12 3.625C12.0332 3.625 12.0649 3.63817 12.0884 3.66161C12.1118 3.68505 12.125 3.71685 12.125 3.75V9.56351V10.1885H12.75ZM19.5 20.125H20.1114C19.9479 20.2849 19.7282 20.3747 19.4993 20.375H4.50071C4.27176 20.3747 4.05213 20.2849 3.88864 20.125H4.5H19.5ZM3.875 19.5V20.1114C3.71514 19.9479 3.62534 19.7284 3.625 19.4996V14.25C3.625 14.2168 3.63817 14.1851 3.66161 14.1616C3.68505 14.1382 3.71685 14.125 3.75 14.125C3.78315 14.125 3.81495 14.1382 3.83839 14.1616C3.86183 14.1851 3.875 14.2168 3.875 14.25V19.5Z" stroke="#2F363D" stroke-width="1.25"/>
</svg>
