<svg width="24" height="25" viewBox="0 0 24 25" fill="none" xmlns="http://www.w3.org/2000/svg">
<path d="M21.7495 9.49277C21.7491 9.43543 21.742 9.37833 21.7283 9.32262C21.7268 9.31617 21.7248 9.30981 21.7231 9.3034C21.7174 9.28239 21.7107 9.26157 21.7032 9.24096C21.7003 9.23332 21.6975 9.22581 21.6944 9.21826C21.6866 9.19908 21.6778 9.18017 21.6683 9.16144C21.6646 9.15416 21.6612 9.1468 21.6573 9.13965C21.6461 9.11928 21.6337 9.09942 21.6205 9.07987C21.6175 9.07552 21.6151 9.07094 21.612 9.06669L21.6107 9.06453C21.5945 9.04206 21.5771 9.02049 21.5587 8.99989C21.5546 8.99532 21.5501 8.9912 21.5459 8.9868C21.5301 8.96996 21.5138 8.95389 21.4969 8.93883C21.4911 8.93375 21.4852 8.92898 21.4794 8.92409C21.4621 8.90971 21.4443 8.89618 21.426 8.88348C21.4225 8.8811 21.4195 8.87827 21.416 8.87593L12.416 2.87593C12.2928 2.79382 12.1481 2.75 12 2.75C11.8519 2.75 11.7072 2.79382 11.584 2.87593L2.58398 8.87593C2.5806 8.87817 2.57771 8.88092 2.57442 8.88321C2.55584 8.89603 2.53782 8.90973 2.52036 8.92432C2.51464 8.92908 2.50887 8.93375 2.50333 8.93865C2.48616 8.95384 2.46969 8.97005 2.4538 8.98708C2.44973 8.99138 2.44538 8.99541 2.4414 8.9998C2.42288 9.02041 2.40551 9.04202 2.38935 9.06453L2.38797 9.06669C2.38495 9.07094 2.38248 9.07552 2.37955 9.07987C2.36628 9.09942 2.35387 9.11928 2.3427 9.13965C2.33881 9.1468 2.33538 9.15416 2.33167 9.16144C2.32219 9.18017 2.3134 9.19907 2.30558 9.21826C2.30256 9.22581 2.29967 9.23332 2.29683 9.24096C2.28924 9.26161 2.2826 9.28242 2.27692 9.3034C2.27518 9.30981 2.27321 9.31617 2.27166 9.32262C2.25805 9.37833 2.25094 9.43543 2.25046 9.49277C2.25041 9.4952 2.25 9.49754 2.25 9.49996V19.25C2.25045 19.6476 2.40864 20.0289 2.68984 20.3101C2.97105 20.5913 3.35231 20.7495 3.75 20.75H20.25C20.6477 20.7495 21.029 20.5913 21.3102 20.3101C21.5914 20.0289 21.7495 19.6476 21.75 19.25V9.49996C21.75 9.49754 21.7496 9.4952 21.7495 9.49277ZM3.75 19.25V10.9558L9.92825 15.3606C10.0554 15.4512 10.2076 15.5 10.3637 15.5H13.6363C13.7924 15.5 13.9446 15.4512 14.0717 15.3606L20.25 10.9558V19.25H3.75Z" fill="#444D56"/>
</svg>
