<svg width="9" height="8" viewBox="0 0 9 8" fill="none" xmlns="http://www.w3.org/2000/svg">
<path d="M5.93103 1.60883C5.54241 1.19918 5.10502 0.838751 4.62863 0.535614C4.58977 0.51231 4.54531 0.5 4.5 0.5C4.45469 0.5 4.41023 0.51231 4.37137 0.535614C3.89499 0.838751 3.45759 1.19918 3.06897 1.60883C2.20609 2.51486 1.75 3.51459 1.75 4.5C1.75 5.22935 2.03973 5.92882 2.55546 6.44454C3.07118 6.96027 3.77065 7.25 4.5 7.25C5.22935 7.25 5.92882 6.96027 6.44454 6.44454C6.96027 5.92882 7.25 5.22935 7.25 4.5C7.25 3.51459 6.79391 2.51486 5.93103 1.60883ZM3.5 5.75C3.5 4.88522 4.20395 4.27258 4.49997 4.05322C4.79631 4.2728 5.5 4.88538 5.5 5.75C5.5 6.01522 5.39464 6.26957 5.20711 6.45711C5.01957 6.64464 4.76522 6.75 4.5 6.75C4.23478 6.75 3.98043 6.64464 3.79289 6.45711C3.60536 6.26957 3.5 6.01522 3.5 5.75Z" fill="white"/>
</svg>
