<svg width="40" height="16" viewBox="0 0 40 16" fill="none" xmlns="http://www.w3.org/2000/svg">
<path d="M19.0925 7.83263V12.1085H17.6747V1.55325H21.4352C21.8846 1.54561 22.3312 1.62271 22.7493 1.78014C23.1675 1.93758 23.5491 2.17225 23.8723 2.47074C24.1983 2.74981 24.4576 3.09279 24.6323 3.47628C24.8071 3.85976 24.8932 4.27475 24.8849 4.69294C24.8938 5.11415 24.808 5.53228 24.6333 5.9191C24.4586 6.30591 24.1991 6.65241 23.8723 6.93518C23.5487 7.23044 23.1675 7.4619 22.7503 7.61635C22.3331 7.7708 21.8882 7.84522 21.4409 7.83536L19.0925 7.83263ZM19.0925 2.84976V6.53612H21.4705C21.731 6.54419 21.9905 6.49968 22.2318 6.40548C22.4732 6.31129 22.691 6.16953 22.8711 5.98945C23.0484 5.82488 23.1899 5.62853 23.2876 5.41163C23.3853 5.19474 23.4372 4.96156 23.4405 4.72544C23.4438 4.48933 23.3983 4.25492 23.3067 4.03562C23.215 3.81633 23.079 3.61646 22.9064 3.44745L22.8711 3.41374C22.6928 3.23085 22.4755 3.0866 22.2339 2.99073C21.9923 2.89486 21.7319 2.84959 21.4705 2.85796L19.0925 2.84976ZM28.1553 4.65103C29.0582 4.60594 29.945 4.8921 30.6344 5.45098C30.9419 5.73501 31.1821 6.07886 31.3385 6.45927C31.495 6.83967 31.5641 7.24774 31.5411 7.65587V12.0994H30.1843V11.0971H30.1224C29.8775 11.4796 29.5328 11.7947 29.1221 12.0116C28.7114 12.2285 28.2488 12.3397 27.7797 12.3344C27.0157 12.3577 26.2705 12.1053 25.6925 11.6274C25.4228 11.412 25.2074 11.1411 25.0624 10.8351C24.9175 10.529 24.8467 10.1957 24.8553 9.85985C24.844 9.51626 24.9189 9.17506 25.0736 8.86473C25.2284 8.5544 25.4585 8.28393 25.7449 8.0759C26.4324 7.60275 27.2683 7.3681 28.1143 7.41079C28.8347 7.38664 29.5498 7.53709 30.1929 7.84812V7.53652C30.194 7.30865 30.1424 7.08338 30.0418 6.87675C29.9413 6.67013 29.7943 6.48724 29.6113 6.34114C29.2349 6.0219 28.7492 5.84528 28.2459 5.84458C27.872 5.83677 27.5023 5.9209 27.1722 6.0889C26.8421 6.2569 26.5627 6.50314 26.3609 6.80398L25.1099 6.05505C25.4485 5.59212 25.9056 5.21983 26.4375 4.97371C26.9695 4.7276 27.5586 4.61587 28.1487 4.64921L28.1553 4.65103ZM26.3237 9.89447C26.3233 10.0665 26.3654 10.2362 26.4466 10.3898C26.5278 10.5434 26.6457 10.6765 26.7909 10.7783C27.1044 11.0138 27.4934 11.1386 27.8922 11.1318C28.1883 11.1318 28.4815 11.076 28.755 10.9677C29.0286 10.8594 29.2771 10.7006 29.4864 10.5004C29.7077 10.314 29.8849 10.0848 30.0064 9.82798C30.1279 9.57114 30.1908 9.29255 30.191 9.0107C29.6528 8.64553 29.0001 8.46741 28.3413 8.50594C27.8283 8.49019 27.3231 8.62848 26.8967 8.90136C26.7231 9.0091 26.58 9.15609 26.48 9.32932C26.3801 9.50255 26.3264 9.69667 26.3237 9.89447ZM39.333 4.88336L34.5942 15.2864H33.1325L34.8945 11.6502L31.7766 4.89156H33.3184L35.5648 10.0758H35.6001L37.7931 4.89156L39.333 4.88336Z" fill="#5F6368"/>
<path d="M13.3576 6.90682C13.3577 6.49504 13.3223 6.08395 13.2517 5.67773H7.27148V8.00927H10.6973C10.6272 8.38242 10.4787 8.73813 10.2607 9.05491C10.0428 9.3717 9.75992 9.64301 9.42921 9.85245V11.3676H11.4725C12.0964 10.7919 12.5866 10.0972 12.9113 9.32872C13.2361 8.56023 13.3881 7.73508 13.3576 6.90682Z" fill="#4285F4"/>
<path d="M7.27207 12.8317C8.81644 12.8727 10.319 12.349 11.4731 11.3676L9.42693 9.85239C8.93519 10.1548 8.37769 10.3459 7.79692 10.4112C7.21615 10.4765 6.62744 10.4143 6.07566 10.2292C5.52389 10.0442 5.02361 9.74117 4.61296 9.34334C4.20231 8.94551 3.89213 8.46334 3.70605 7.93359H1.6084V9.49888C2.13776 10.5004 2.94732 11.3421 3.94713 11.9304C4.94695 12.5188 6.09788 12.8308 7.27207 12.8317Z" fill="#34A853"/>
<path d="M3.71726 7.93316C3.45292 7.17931 3.45292 6.36367 3.71726 5.60982V4.05273H1.60912C1.16229 4.89525 0.929443 5.8265 0.929443 6.77103C0.929443 7.71556 1.16229 8.64682 1.60912 9.48933L3.71726 7.93316Z" fill="#FBBC04"/>
<path d="M7.27207 3.11064C8.1769 3.09426 9.05148 3.42199 9.70344 4.02175L11.5093 2.29611C10.3657 1.26286 8.84584 0.695868 7.27207 0.715329C6.09717 0.715774 4.9455 1.02805 3.94546 1.61734C2.94542 2.20663 2.13633 3.04976 1.6084 4.05273L3.71368 5.61802C3.95778 4.89692 4.43241 4.26713 5.07076 3.81733C5.7091 3.36753 6.479 3.12036 7.27207 3.11064Z" fill="#EA4335"/>
</svg>
