<svg width="26" height="16" viewBox="0 0 26 16" fill="none" xmlns="http://www.w3.org/2000/svg">
<path fill-rule="evenodd" clip-rule="evenodd" d="M17.8693 15.289L18.2631 15.279L18.6521 15.2516L19.0335 15.2052L19.4149 15.1414L19.7829 15.0603L20.1462 14.9619L20.5009 14.8462L20.8479 14.7159L21.1874 14.5683L21.5163 14.4088L21.8358 14.2321L22.1476 14.0426L22.446 13.8385L22.732 13.6225L23.0095 13.3939L23.2746 13.1506L23.5291 12.8973L23.7684 12.6322L23.9954 12.3588L24.209 12.0737L24.4073 11.7757L24.5923 11.4705L24.7601 11.1562L24.9145 10.8318L25.0509 10.5002L25.172 10.1612L25.275 9.81503L25.3598 9.46334L25.4266 9.09888L25.4752 8.73445L25.5038 8.36271L25.5143 7.98642L25.5038 7.61287L25.4752 7.24843L25.4266 6.88397L25.3598 6.52774L25.275 6.17605L25.172 5.83164L25.0509 5.49271L24.9145 5.16289L24.7601 4.84035L24.5923 4.52602L24.4073 4.22353L24.209 3.9256L23.9954 3.64042L23.7684 3.36708L23.5291 3.10195L23.2746 2.84866L23.0095 2.60814L22.732 2.37944L22.446 2.16351L22.1476 1.95942L21.8358 1.76991L21.5163 1.59498L21.1874 1.43553L20.8479 1.28793L20.5009 1.15764L20.1462 1.04193L19.7829 0.943539L19.4149 0.862446L19.0335 0.798662L18.6521 0.7522L18.2631 0.724867L17.8693 0.714844L17.4783 0.724867L17.0903 0.7522L16.7089 0.798662L16.3332 0.862446L15.9652 0.943539L15.6029 1.04193L15.2501 1.15764L14.903 1.28793L14.5655 1.43553L14.2384 1.59498L13.919 1.76991L13.6101 1.95942L13.3116 2.16351L13.0256 2.37944L12.7501 2.60814L12.485 2.84866L12.2323 3.10195L11.993 3.36708L11.767 3.64042L11.5563 3.9256L11.358 4.22353L11.1749 4.52602L11.0052 4.84035L10.8536 5.16289L10.7172 5.49271L10.599 5.83164L10.496 6.17605L10.4112 6.52774L10.3444 6.88397L10.2958 7.24843L10.2672 7.61287L10.2567 7.98642L10.2672 8.36271L10.2958 8.73445L10.3444 9.09888L10.4112 9.46334L10.496 9.81503L10.599 10.1612L10.7172 10.5002L10.8536 10.8318L11.0052 11.1562L11.1749 11.4705L11.358 11.7757L11.5563 12.0737L11.767 12.3588L11.993 12.6322L12.2323 12.8973L12.485 13.1506L12.7501 13.3939L13.0256 13.6225L13.3116 13.8385L13.6101 14.0426L13.919 14.2321L14.2384 14.4088L14.5655 14.5683L14.903 14.7159L15.2501 14.8462L15.6029 14.9619L15.9652 15.0603L16.3332 15.1414L16.7089 15.2052L17.0903 15.2516L17.4783 15.279L17.8693 15.289Z" fill="#F9B41D"/>
<path fill-rule="evenodd" clip-rule="evenodd" d="M7.66494 15.289L8.0559 15.279L8.44395 15.2516L8.82536 15.2052L9.20102 15.1414L9.56905 15.0603L9.93137 14.9619L10.2842 14.8462L10.6312 14.7159L10.9688 14.5683L11.2958 14.4088L11.6152 14.2321L11.9242 14.0426L12.2226 13.8385L12.5086 13.6225L12.7842 13.3939L13.0493 13.1506L13.302 12.8973L13.5413 12.6322L13.7682 12.3588L13.9789 12.0737L14.1772 11.7757L14.3603 11.4705L14.53 11.1562L14.6816 10.8318L14.818 10.5002L14.9362 10.1612L15.0392 9.81503L15.124 9.46334L15.1908 9.09888L15.2394 8.73445L15.268 8.36271L15.2785 7.98642L15.268 7.61287L15.2394 7.24843L15.1908 6.88397L15.124 6.52774L15.0392 6.17605L14.9362 5.83164L14.818 5.49271L14.6816 5.16289L14.53 4.84035L14.3603 4.52602L14.1772 4.22353L13.9789 3.9256L13.7682 3.64042L13.5413 3.36708L13.302 3.10195L13.0493 2.84866L12.7842 2.60814L12.5086 2.37944L12.2226 2.16351L11.9242 1.95942L11.6152 1.76991L11.2958 1.59498L10.9688 1.43553L10.6312 1.28793L10.2842 1.15764L9.93137 1.04193L9.56905 0.943539L9.20102 0.862446L8.82536 0.798662L8.44395 0.7522L8.0559 0.724867L7.66494 0.714844L7.27119 0.724867L6.88314 0.7522L6.50172 0.798662L6.12031 0.862446L5.75227 0.943539L5.38902 1.04193L5.03431 1.15764L4.68723 1.28793L4.34778 1.43553L4.01885 1.59498L3.69942 1.76991L3.38859 1.95942L3.09017 2.16351L2.80413 2.37944L2.52573 2.60814L2.26064 2.84866L2.00604 3.10195L1.76674 3.36708L1.54076 3.64042L1.32718 3.9256L1.12885 4.22353L0.943905 4.52602L0.776068 4.84035L0.621617 5.16289L0.485264 5.49271L0.364158 5.83164L0.26121 6.17605L0.176302 6.52774L0.10961 6.88397L0.0609582 7.24843L0.0323258 7.61287L0.0218506 7.98642L0.0323258 8.36271L0.0609582 8.73445L0.10961 9.09888L0.176302 9.46334L0.26121 9.81503L0.364158 10.1612L0.485264 10.5002L0.621617 10.8318L0.776068 11.1562L0.943905 11.4705L1.12885 11.7757L1.32718 12.0737L1.54076 12.3588L1.76674 12.6322L2.00604 12.8973L2.26064 13.1506L2.52573 13.3939L2.80413 13.6225L3.09017 13.8385L3.38859 14.0426L3.69942 14.2321L4.01885 14.4088L4.34778 14.5683L4.68723 14.7159L5.03431 14.8462L5.38902 14.9619L5.75227 15.0603L6.12031 15.1414L6.50172 15.2052L6.88314 15.2516L7.27119 15.279L7.66494 15.289Z" fill="#E30520"/>
<path fill-rule="evenodd" clip-rule="evenodd" d="M11.8751 3.50572H15.9274V3.10938H12.2251L11.8751 3.50572Z" fill="#F9B41D"/>
<path fill-rule="evenodd" clip-rule="evenodd" d="M11.2668 4.38559H15.9265V3.98926H11.5109L11.2668 4.38559Z" fill="#F9B41D"/>
<path fill-rule="evenodd" clip-rule="evenodd" d="M10.814 5.26254H15.9265V4.86621H10.998L10.8177 5.26254H10.814Z" fill="#F9B41D"/>
<path fill-rule="evenodd" clip-rule="evenodd" d="M10.5021 6.14444H15.9264V5.74902H10.6308L10.5021 6.14444Z" fill="#F9B41D"/>
<path fill-rule="evenodd" clip-rule="evenodd" d="M10.6834 10.3984H15.94V10.0029H10.5547L10.6834 10.3984Z" fill="#F9B41D"/>
<path fill-rule="evenodd" clip-rule="evenodd" d="M11.0715 11.2773H15.94V10.8818H10.8789L11.0696 11.2773H11.0715Z" fill="#F9B41D"/>
<path fill-rule="evenodd" clip-rule="evenodd" d="M11.6172 12.1562H15.9403V11.7607H11.3569L11.6172 12.1562Z" fill="#F9B41D"/>
<path fill-rule="evenodd" clip-rule="evenodd" d="M12.3682 13.0358H15.9399V12.6377H12.0059L12.3682 13.0358Z" fill="#F9B41D"/>
<path fill-rule="evenodd" clip-rule="evenodd" d="M10.3199 7.0214H15.9264V6.62598H10.3962L10.3162 7.0214H10.3199Z" fill="#F9B41D"/>
<path fill-rule="evenodd" clip-rule="evenodd" d="M13.7374 9.52041H15.8761V9.125H13.8147L13.7374 9.52041Z" fill="#F9B41D"/>
<path fill-rule="evenodd" clip-rule="evenodd" d="M13.9069 8.64242H15.8749V8.24609H13.9841L13.9069 8.64425V8.64242Z" fill="#F9B41D"/>
<path fill-rule="evenodd" clip-rule="evenodd" d="M10.1785 8.24609H10.7344V8.64425H10.2061L10.1804 8.24609H10.1785Z" fill="#F9B41D"/>
<path fill-rule="evenodd" clip-rule="evenodd" d="M9.14134 7.76564H9.10508L9.06888 7.7611L9.03548 7.75654L9.00213 7.75198L8.97164 7.74743L8.93823 7.74287L8.90489 7.73831L8.86863 7.73377L8.83237 7.72921H8.7914H8.74467H8.69608H8.64172H8.5826L8.51585 7.73377L8.44147 7.73831L8.38997 7.74561L8.34138 7.75289L8.2975 7.76746L8.25938 7.78205L8.22312 7.79936L8.18978 7.8194L8.164 7.844L8.14112 7.86587L8.12588 7.8932L8.11348 7.92053L8.10871 7.9497V7.97885L8.11633 8.01074L8.12681 8.04262L8.14683 8.07451L8.17261 8.10641L8.22405 8.15287L8.28603 8.19022L8.35854 8.22212L8.43577 8.24945L8.51777 8.27404L8.60262 8.30139L8.68747 8.33054L8.76946 8.36242L8.84669 8.40434L8.91821 8.45628L8.98304 8.51732L9.0374 8.59385L9.07843 8.68496L9.10415 8.7952L9.11462 8.92822L9.10415 9.08311L9.08605 9.19882L9.0555 9.29996L9.01453 9.39108L8.96302 9.47216L8.9039 9.54322L8.83715 9.60427L8.76469 9.65803L8.68462 9.70449L8.60262 9.74093L8.51777 9.77282L8.43001 9.79743L8.34039 9.81746L8.25269 9.83205L8.16784 9.83933L8.08299 9.84389H8.00285H7.89228H7.78927H7.69965H7.6148H7.53758L7.46797 9.83933L7.406 9.83479L7.34687 9.82749L7.29251 9.82294L7.24392 9.81292L7.19527 9.80562L7.15139 9.79287L7.10757 9.78285L7.06654 9.76826L7.02557 9.75369L6.98169 9.73911L7.09709 9.19245L7.11996 9.197L7.14854 9.2043L7.18479 9.21432L7.22867 9.22433L7.27441 9.23435L7.32592 9.24438L7.38213 9.25622L7.44411 9.26625L7.50801 9.27627L7.57476 9.28629L7.64437 9.29358L7.71589 9.30088H7.79026H7.86464H7.93901H8.01338L8.08776 9.28629L8.14683 9.26625L8.19356 9.23891L8.22981 9.2043L8.25554 9.16967L8.27655 9.13049L8.28987 9.09131L8.30035 9.05487L8.30605 8.9838L8.28318 8.92276L8.23936 8.87356L8.17447 8.83164L8.09724 8.7943L8.00762 8.75785L7.90753 8.72323L7.80743 8.68405L7.70442 8.6394L7.6091 8.58747L7.51948 8.52369L7.43748 8.44716L7.37265 8.35605L7.32592 8.24581L7.30305 8.11279V7.95516L7.31544 7.8595L7.33354 7.76838L7.35926 7.68456L7.39075 7.60621L7.43172 7.5324L7.47845 7.46863L7.5328 7.40759L7.59763 7.35382L7.67201 7.30736L7.75401 7.26819L7.84939 7.23083L7.95234 7.2035L8.06768 7.18163L8.19356 7.16432L8.33276 7.1543H8.48436H8.57975H8.66745H8.74752H8.81905L8.88388 7.15884L8.943 7.1634L8.99451 7.16796L9.04124 7.17251L9.08506 7.17707L9.12132 7.18435L9.15466 7.18891L9.18522 7.19347L9.21094 7.19802H9.23381L9.25668 7.20258H9.27769L9.14611 7.75836L9.14134 7.76564Z" fill="white"/>
<path d="M9.14134 7.76564H9.10508L9.06888 7.7611L9.03548 7.75654L9.00213 7.75198L8.97164 7.74743L8.93823 7.74287L8.90489 7.73831L8.86863 7.73376L8.83237 7.7292H8.7914H8.74467H8.69608H8.64172H8.5826L8.51585 7.73376L8.44147 7.73831L8.38997 7.74561L8.34138 7.75289L8.2975 7.76746L8.25938 7.78205L8.22312 7.79936L8.18978 7.8194L8.164 7.844L8.14112 7.86587L8.12588 7.8932L8.11348 7.92053L8.10871 7.9497V7.97885L8.11633 8.01074L8.12681 8.04262L8.14683 8.07451L8.17261 8.10641L8.22405 8.15287L8.28603 8.19022L8.35854 8.22212L8.43577 8.24945L8.51777 8.27404L8.60262 8.30139L8.68747 8.33054L8.76946 8.36242L8.84669 8.40434L8.91821 8.45628L8.98304 8.51732L9.0374 8.59385L9.07843 8.68496L9.10415 8.7952L9.11462 8.92822L9.10415 9.08311L9.08605 9.19882L9.0555 9.29996L9.01453 9.39108L8.96302 9.47216L8.9039 9.54322L8.83715 9.60427L8.76469 9.65803L8.68462 9.70449L8.60262 9.74093L8.51777 9.77282L8.43001 9.79743L8.34039 9.81746L8.25269 9.83205L8.16784 9.83933L8.08299 9.84389H8.00285H7.89228H7.78927H7.69965H7.6148H7.53758L7.46797 9.83933L7.406 9.83479L7.34687 9.82749L7.29251 9.82294L7.24392 9.81292L7.19527 9.80562L7.15139 9.79287L7.10757 9.78285L7.06654 9.76826L7.02557 9.75369L6.98169 9.73911L7.09709 9.19245L7.11996 9.197L7.14854 9.2043L7.18479 9.21432L7.22867 9.22433L7.27441 9.23435L7.32592 9.24438L7.38213 9.25622L7.44411 9.26625L7.50801 9.27627L7.57476 9.28629L7.64437 9.29358L7.71589 9.30088H7.79026H7.86464H7.93901H8.01338L8.08776 9.28629L8.14683 9.26625L8.19356 9.23891L8.22981 9.2043L8.25554 9.16967L8.27655 9.13049L8.28987 9.09131L8.30035 9.05487L8.30605 8.9838L8.28318 8.92276L8.23936 8.87356L8.17447 8.83164L8.09724 8.7943L8.00762 8.75785L7.90753 8.72323L7.80743 8.68405L7.70442 8.6394L7.6091 8.58747L7.51948 8.52369L7.43748 8.44716L7.37265 8.35605L7.32592 8.24581L7.30305 8.11279V7.95516L7.31544 7.8595L7.33354 7.76838L7.35926 7.68456L7.39075 7.60621L7.43172 7.5324L7.47845 7.46863L7.5328 7.40759L7.59763 7.35382L7.67201 7.30736L7.75401 7.26819L7.84939 7.23083L7.95234 7.2035L8.06768 7.18163L8.19356 7.16432L8.33276 7.1543H8.48436H8.57975H8.66745H8.74752H8.81905L8.88388 7.15884L8.943 7.1634L8.99451 7.16796L9.04124 7.17251L9.08506 7.17707L9.12132 7.18435L9.15466 7.18891L9.18522 7.19347L9.21094 7.19802H9.23381L9.25668 7.20258H9.27769L9.14611 7.75836" stroke="white" stroke-width="0.112067" stroke-miterlimit="2.613"/>
<path fill-rule="evenodd" clip-rule="evenodd" d="M9.75101 6.60156H10.4642L10.3583 7.19652H10.7884L10.693 7.7523L10.2401 7.74045L9.99316 9.11258V9.16178L10.0056 9.2037L10.0313 9.23559L10.0647 9.26292L10.1104 9.28023L10.1619 9.29482L10.2182 9.30482L10.2802 9.30938H10.3364L10.3879 9.30482L10.4336 9.29754L10.4747 9.28752L10.508 9.27749L10.531 9.27021L10.5462 9.26565H10.5519L10.4623 9.7212L10.4442 9.73305L10.426 9.74307L10.4079 9.7531L10.3898 9.76312L10.3717 9.7704L10.3516 9.7777L10.3288 9.78499L10.3059 9.79227L10.2802 9.79956L10.2544 9.80412L10.2239 9.80868L10.1934 9.81324L10.16 9.81778L10.1219 9.82234L10.0809 9.8269L10.037 9.83145H9.84156L9.73861 9.82416L9.648 9.81414L9.56601 9.79956L9.4964 9.78225L9.43728 9.76038L9.38868 9.73579L9.3448 9.70663L9.31146 9.67474L9.28568 9.64012L9.26758 9.59821L9.25518 9.55629L9.24756 9.50983V9.45789V9.40414L9.25518 9.34766L9.25803 9.28843L9.74909 6.60612L9.75101 6.60156Z" fill="white"/>
<path d="M9.75101 6.60156H10.4642L10.3583 7.19652H10.7884L10.693 7.7523L10.2401 7.74045L9.99316 9.11258V9.16178L10.0056 9.2037L10.0313 9.23559L10.0647 9.26292L10.1104 9.28023L10.1619 9.29482L10.2182 9.30482L10.2802 9.30938H10.3364L10.3879 9.30482L10.4336 9.29754L10.4747 9.28752L10.508 9.27749L10.531 9.27021L10.5462 9.26565H10.5519L10.4623 9.7212L10.4442 9.73305L10.426 9.74307L10.4079 9.7531L10.3898 9.76312L10.3717 9.7704L10.3516 9.7777L10.3288 9.78499L10.3059 9.79227L10.2802 9.79956L10.2544 9.80412L10.2239 9.80868L10.1934 9.81324L10.16 9.81778L10.1219 9.82234L10.0809 9.8269L10.037 9.83145H9.84156L9.73861 9.82416L9.648 9.81414L9.56601 9.79956L9.4964 9.78225L9.43728 9.76038L9.38868 9.73579L9.3448 9.70663L9.31146 9.67474L9.28568 9.64012L9.26758 9.59821L9.25518 9.55629L9.24756 9.50983V9.45789V9.40414L9.25518 9.34766L9.25803 9.28843L9.74909 6.60612" stroke="white" stroke-width="0.112067" stroke-miterlimit="2.613"/>
<path fill-rule="evenodd" clip-rule="evenodd" d="M11.3566 8.67892L11.349 8.72082V8.76546L11.3538 8.81194L11.3642 8.8584L11.3823 8.90486L11.4024 8.94952L11.431 8.99598L11.4615 9.0379L11.4977 9.0798L11.5368 9.11625L11.5778 9.15361L11.6246 9.18276L11.6713 9.21009L11.7227 9.23196L11.7742 9.24927L11.8257 9.25929L11.8925 9.26932L11.9563 9.2766L12.0231 9.28389L12.0898 9.28845H12.1566H12.2262H12.2929L12.3625 9.28389L12.4321 9.27388L12.5017 9.26203L12.5742 9.24745L12.6438 9.22558L12.7163 9.19825L12.7906 9.16909L12.8621 9.12992L12.9365 9.088L12.8336 9.69298L12.7925 9.71303L12.7516 9.73307L12.7105 9.74764L12.6724 9.76223L12.6333 9.77498L12.5924 9.78682L12.5513 9.79684L12.5074 9.80413L12.4608 9.81143L12.4093 9.81597L12.3549 9.82053L12.2958 9.82509H12.229H12.1594H12.0794H11.9945H11.8686L11.7399 9.81233L11.6112 9.79502L11.4825 9.76587L11.3566 9.72851L11.2355 9.68205L11.1192 9.62101L11.0115 9.54994L10.9114 9.46612L10.8236 9.36498L10.7492 9.25201L10.6873 9.12171L10.6434 8.97685L10.6148 8.81194L10.6072 8.62972L10.6196 8.42836L10.63 8.35L10.6453 8.25889L10.6663 8.16322L10.6949 8.06028L10.7331 7.95457L10.7798 7.84889L10.8389 7.74046L10.9114 7.63752L10.9934 7.53911L11.0935 7.448L11.2069 7.36418L11.3356 7.29039L11.4844 7.22934L11.6522 7.18468L11.8371 7.15553L12.046 7.14551H12.1461L12.2519 7.15553L12.3578 7.17284L12.4636 7.19745L12.5666 7.2348L12.6667 7.27944L12.7621 7.33867L12.8469 7.40792L12.9241 7.49173L12.989 7.59014L13.0405 7.70311L13.0767 7.8334L13.0977 7.981V8.14774L13.0796 8.33452L13.0405 8.54134L13.0281 8.69167H11.1478L11.266 8.20696H12.393L12.3988 8.14591V8.08669L12.3873 8.02838L12.3769 7.97918L12.3587 7.93272L12.3406 7.8908L12.3149 7.85435L12.2891 7.81974L12.2586 7.79058L12.2253 7.76597L12.1861 7.74412L12.148 7.72407L12.107 7.70949L12.066 7.69946L12.0222 7.69218L11.9754 7.68762H11.9268L11.8801 7.69492L11.8362 7.70494L11.7923 7.71951L11.7485 7.73956L11.7103 7.76143L11.6713 7.78876L11.6379 7.81791L11.6045 7.85253L11.574 7.88898L11.5454 7.92816L11.5225 7.97006L11.4996 8.01472L11.4815 8.06392L11.4663 8.11312L11.4558 8.16504L11.3528 8.67436L11.3566 8.67892Z" fill="white"/>
<path d="M11.3566 8.67892L11.349 8.72082V8.76546L11.3538 8.81194L11.3642 8.8584L11.3823 8.90486L11.4024 8.94952L11.431 8.99598L11.4615 9.0379L11.4977 9.0798L11.5368 9.11625L11.5778 9.15361L11.6246 9.18276L11.6713 9.21009L11.7227 9.23196L11.7742 9.24927L11.8257 9.25929L11.8925 9.26932L11.9563 9.2766L12.0231 9.28389L12.0898 9.28845H12.1566H12.2262H12.2929L12.3625 9.28389L12.4321 9.27388L12.5017 9.26203L12.5742 9.24745L12.6438 9.22558L12.7163 9.19825L12.7906 9.16909L12.8621 9.12992L12.9365 9.088L12.8336 9.69298L12.7925 9.71303L12.7516 9.73307L12.7105 9.74764L12.6724 9.76223L12.6333 9.77498L12.5924 9.78682L12.5513 9.79684L12.5074 9.80413L12.4608 9.81143L12.4093 9.81597L12.3549 9.82053L12.2958 9.82509H12.229H12.1594H12.0794H11.9945H11.8686L11.7399 9.81233L11.6112 9.79502L11.4825 9.76587L11.3566 9.72851L11.2355 9.68205L11.1192 9.62101L11.0115 9.54994L10.9114 9.46612L10.8236 9.36498L10.7492 9.25201L10.6873 9.12171L10.6434 8.97685L10.6148 8.81194L10.6072 8.62972L10.6196 8.42836L10.63 8.35L10.6453 8.25889L10.6663 8.16322L10.6949 8.06028L10.7331 7.95457L10.7798 7.84889L10.8389 7.74046L10.9114 7.63752L10.9934 7.53911L11.0935 7.448L11.2069 7.36418L11.3356 7.29039L11.4844 7.22934L11.6522 7.18468L11.8371 7.15553L12.046 7.14551H12.1461L12.2519 7.15553L12.3578 7.17284L12.4636 7.19745L12.5666 7.2348L12.6667 7.27944L12.7621 7.33867L12.8469 7.40792L12.9241 7.49173L12.989 7.59014L13.0405 7.70311L13.0767 7.8334L13.0977 7.981V8.14774L13.0796 8.33452L13.0405 8.54134L13.0281 8.69167H11.1478L11.266 8.20696H12.393L12.3988 8.14591V8.08669L12.3873 8.02838L12.3769 7.97918L12.3587 7.93272L12.3406 7.8908L12.3149 7.85435L12.2891 7.81974L12.2586 7.79058L12.2253 7.76597L12.1861 7.74412L12.148 7.72407L12.107 7.70949L12.066 7.69946L12.0222 7.69218L11.9754 7.68762H11.9268L11.8801 7.69492L11.8362 7.70494L11.7923 7.71951L11.7485 7.73956L11.7103 7.76143L11.6713 7.78876L11.6379 7.81791L11.6045 7.85253L11.574 7.88898L11.5454 7.92816L11.5225 7.97006L11.4996 8.01472L11.4815 8.06392L11.4663 8.11312L11.4558 8.16504L11.3528 8.67436" stroke="white" stroke-width="0.112067" stroke-miterlimit="2.613"/>
<path fill-rule="evenodd" clip-rule="evenodd" d="M17.4928 7.34421L17.4594 7.3269L17.426 7.31231L17.3898 7.29501L17.3507 7.2777L17.3116 7.26311L17.2678 7.24854L17.2239 7.23396L17.1772 7.21938L17.1286 7.20753L17.0799 7.19752L17.0265 7.1875L16.9722 7.1802L16.9131 7.17565L16.8539 7.17109H16.6632L16.5965 7.17565L16.5269 7.18294L16.4544 7.19478L16.382 7.21483L16.3095 7.24216L16.2371 7.27678L16.1646 7.32142L16.095 7.37518L16.0282 7.43897L15.9644 7.51732L15.9024 7.60842L15.8461 7.71685L15.7918 7.83984L15.7432 7.97742L15.7021 8.13505L15.6869 8.22616L15.6764 8.3118L15.6716 8.39744V8.48127L15.6793 8.56509L15.6974 8.64345L15.7202 8.71725L15.7489 8.79105L15.788 8.85756L15.8337 8.92134L15.8881 8.97783L15.9501 9.02975L16.0197 9.07441L16.0997 9.11176L16.1875 9.14364L16.2828 9.16551L16.3162 9.17281L16.3553 9.18009L16.402 9.18465L16.4535 9.1892L16.5097 9.19376H16.6337L16.6976 9.1892L16.7643 9.18192L16.8311 9.16915L16.8959 9.15184L16.9598 9.1318L17.0246 9.10447L17.0838 9.07259L17.1381 9.03341L17.1896 8.98875L17.0742 9.64567L17.059 9.65752L17.0437 9.67209L17.0236 9.68941L17.0008 9.70398L16.9722 9.72403L16.9359 9.74134L16.8949 9.75865L16.8482 9.77323L16.7891 9.79054L16.7224 9.80238L16.6451 9.81241L16.5555 9.82243L16.4554 9.82698H16.3391H16.2075L16.0635 9.81969L15.9453 9.80694L15.827 9.78233L15.7088 9.74498L15.5906 9.69578L15.4771 9.63655L15.3694 9.56276L15.2664 9.47712L15.171 9.37872L15.0862 9.26847L15.0137 9.14548L14.9518 9.0079L14.906 8.85756L14.8755 8.69265L14.865 8.51771L14.8707 8.32639L14.8993 8.1223L14.9203 8.02116L14.9431 7.92276L14.9689 7.82709L14.9947 7.73598L15.0233 7.65034L15.0566 7.5647L15.09 7.48361L15.1262 7.40707L15.1653 7.33054L15.2035 7.25947L15.2473 7.19022L15.2941 7.12645L15.3398 7.06541L15.3913 7.00618L15.4428 6.95242L15.4972 6.9005L15.5562 6.85129L15.6154 6.80483L15.6773 6.76292L15.7412 6.72374L15.8108 6.68638L15.8804 6.65449L15.9529 6.62534L16.0273 6.59801L16.1074 6.5734L16.1875 6.55337L16.2695 6.53604L16.3572 6.52147L16.4449 6.50871L16.5403 6.49869L16.6356 6.49414H16.7309H16.8139L16.8931 6.49869L16.9703 6.50599L17.0475 6.51601L17.12 6.52603L17.1896 6.5406L17.2563 6.55245L17.3183 6.56703L17.3774 6.5816L17.4289 6.59618L17.4775 6.61075L17.5185 6.62534L17.5547 6.63718L17.5852 6.64721L17.6082 6.65723L17.6234 6.66178L17.4947 7.34238L17.4928 7.34421Z" fill="white"/>
<path d="M17.4928 7.34421L17.4594 7.3269L17.426 7.31231L17.3898 7.29501L17.3507 7.2777L17.3116 7.26311L17.2678 7.24854L17.2239 7.23396L17.1772 7.21938L17.1286 7.20753L17.0799 7.19752L17.0265 7.1875L16.9722 7.1802L16.9131 7.17565L16.8539 7.17109H16.6632L16.5965 7.17565L16.5269 7.18294L16.4544 7.19478L16.382 7.21483L16.3095 7.24216L16.2371 7.27678L16.1646 7.32142L16.095 7.37518L16.0282 7.43897L15.9644 7.51732L15.9024 7.60842L15.8461 7.71685L15.7918 7.83984L15.7432 7.97742L15.7021 8.13505L15.6869 8.22616L15.6764 8.3118L15.6716 8.39744V8.48127L15.6793 8.56509L15.6974 8.64345L15.7202 8.71725L15.7489 8.79105L15.788 8.85756L15.8337 8.92134L15.8881 8.97783L15.9501 9.02975L16.0197 9.07441L16.0997 9.11176L16.1875 9.14364L16.2828 9.16551L16.3162 9.17281L16.3553 9.18009L16.402 9.18465L16.4535 9.1892L16.5097 9.19376H16.6337L16.6976 9.1892L16.7643 9.18192L16.8311 9.16915L16.8959 9.15184L16.9598 9.1318L17.0246 9.10447L17.0838 9.07259L17.1381 9.03341L17.1896 8.98875L17.0742 9.64567L17.059 9.65752L17.0437 9.67209L17.0236 9.68941L17.0008 9.70398L16.9722 9.72403L16.9359 9.74134L16.8949 9.75864L16.8482 9.77323L16.7891 9.79054L16.7224 9.80238L16.6451 9.81241L16.5555 9.82243L16.4554 9.82698H16.3391H16.2075L16.0635 9.81969L15.9453 9.80694L15.827 9.78233L15.7088 9.74498L15.5906 9.69578L15.4771 9.63655L15.3694 9.56276L15.2664 9.47712L15.171 9.37872L15.0862 9.26847L15.0137 9.14548L14.9518 9.0079L14.906 8.85756L14.8755 8.69265L14.865 8.51771L14.8707 8.32639L14.8993 8.1223L14.9203 8.02116L14.9431 7.92276L14.9689 7.82709L14.9947 7.73598L15.0233 7.65034L15.0566 7.5647L15.09 7.48361L15.1262 7.40707L15.1653 7.33054L15.2035 7.25947L15.2473 7.19022L15.2941 7.12645L15.3398 7.06541L15.3913 7.00618L15.4428 6.95242L15.4972 6.9005L15.5562 6.85129L15.6154 6.80483L15.6773 6.76292L15.7412 6.72374L15.8108 6.68638L15.8804 6.65449L15.9529 6.62534L16.0273 6.59801L16.1074 6.5734L16.1875 6.55337L16.2695 6.53604L16.3572 6.52147L16.4449 6.50871L16.5403 6.49869L16.6356 6.49414H16.7309H16.8139L16.8931 6.49869L16.9703 6.50599L17.0475 6.51601L17.12 6.52603L17.1896 6.5406L17.2563 6.55245L17.3183 6.56703L17.3774 6.5816L17.4289 6.59618L17.4775 6.61075L17.5185 6.62534L17.5547 6.63718L17.5852 6.64721L17.6082 6.65723L17.6234 6.66178L17.4947 7.34238" stroke="white" stroke-width="0.112067" stroke-miterlimit="2.613"/>
<path fill-rule="evenodd" clip-rule="evenodd" d="M23.8282 9.82989H23.114L23.1655 9.55656V9.53196L23.1245 9.58116L23.0807 9.6258L23.0368 9.66498L22.9901 9.6996L22.9433 9.73149L22.8966 9.75882L22.8499 9.78069L22.8013 9.80256L22.7517 9.81987L22.703 9.83171L22.6545 9.84448L22.6029 9.85176L22.5514 9.85905L22.5029 9.86361H22.4513H22.3998L22.2664 9.85358L22.1434 9.82625L22.0299 9.78433L21.9269 9.72785L21.8316 9.65678L21.7496 9.57296L21.6771 9.48184L21.6151 9.3789L21.5637 9.26865L21.5227 9.15294L21.4941 9.03267L21.4731 8.90694L21.4655 8.7812V8.65365L21.4778 8.52791L21.5007 8.40218L21.5389 8.25732L21.5856 8.11974L21.6399 7.994L21.7038 7.87647L21.7706 7.76623L21.8478 7.66782L21.9279 7.57672L22.0127 7.49563L22.1024 7.42456L22.1977 7.36351L22.2931 7.30977L22.3884 7.26785L22.4914 7.23323L22.5944 7.21137L22.6973 7.19678L22.8032 7.19222H22.8776L22.95 7.19952L23.0168 7.21137L23.0788 7.22867L23.1379 7.24872L23.1893 7.27058L23.2408 7.29792L23.2876 7.32525L23.3285 7.35441L23.3667 7.3863L23.4001 7.41818L23.4306 7.45007L23.4563 7.48196L23.4792 7.51385L23.5002 7.54301L23.5155 7.57216L23.6956 6.60547H24.3955L23.8139 9.82169L23.8282 9.82989Z" fill="white"/>
<path d="M23.8282 9.82989H23.114L23.1655 9.55656V9.53196L23.1245 9.58116L23.0807 9.6258L23.0368 9.66498L22.9901 9.6996L22.9433 9.73149L22.8966 9.75882L22.8499 9.78069L22.8013 9.80256L22.7517 9.81987L22.703 9.83171L22.6545 9.84448L22.6029 9.85176L22.5514 9.85905L22.5029 9.86361H22.4513H22.3998L22.2664 9.85358L22.1434 9.82625L22.0299 9.78433L21.9269 9.72785L21.8316 9.65678L21.7496 9.57296L21.6771 9.48184L21.6151 9.3789L21.5637 9.26865L21.5227 9.15294L21.4941 9.03267L21.4731 8.90694L21.4655 8.7812V8.65365L21.4778 8.52791L21.5007 8.40218L21.5389 8.25732L21.5856 8.11974L21.6399 7.994L21.7038 7.87647L21.7706 7.76623L21.8478 7.66782L21.9279 7.57672L22.0127 7.49563L22.1024 7.42456L22.1977 7.36351L22.2931 7.30977L22.3884 7.26785L22.4914 7.23323L22.5944 7.21137L22.6973 7.19678L22.8032 7.19222H22.8776L22.95 7.19952L23.0168 7.21137L23.0788 7.22867L23.1379 7.24872L23.1893 7.27058L23.2408 7.29792L23.2876 7.32525L23.3285 7.35441L23.3667 7.3863L23.4001 7.41818L23.4306 7.45007L23.4563 7.48196L23.4792 7.51385L23.5002 7.54301L23.5155 7.57216L23.6956 6.60547H24.3955L23.8139 9.82169" stroke="white" stroke-width="0.112067" stroke-miterlimit="2.613"/>
<path fill-rule="evenodd" clip-rule="evenodd" d="M22.6629 9.23435L22.7354 9.2298L22.8021 9.21522L22.8641 9.19791L22.9232 9.17058L22.9776 9.14142L23.0291 9.10497L23.0777 9.06307L23.1215 9.01841L23.1606 8.96921L23.1968 8.91547L23.2302 8.85898L23.2588 8.79976L23.2846 8.73871L23.3046 8.67493L23.3227 8.60842L23.336 8.54191L23.3484 8.47266L23.3561 8.4016V8.33782V8.26857L23.3484 8.2048L23.338 8.14376L23.3199 8.08453L23.2989 8.02805L23.2731 7.97884L23.2417 7.93237L23.2083 7.89319L23.1702 7.85857L23.1263 7.82942L23.0796 7.80937L23.031 7.79753L22.9766 7.79297L22.907 7.79753L22.8431 7.80755L22.784 7.8276L22.7249 7.85219L22.6734 7.88409L22.6219 7.92326L22.578 7.96518L22.5342 8.01164L22.4951 8.0654L22.4589 8.12189L22.4255 8.18111L22.3969 8.24488L22.3712 8.31139L22.3511 8.37791L22.3301 8.44897L22.3149 8.52004L22.3025 8.62846L22.3082 8.74691L22.3264 8.86717L22.3597 8.98288L22.4112 9.08402L22.478 9.16511L22.5628 9.21886L22.6657 9.23891L22.6629 9.23435Z" fill="#F9B41D"/>
<path fill-rule="evenodd" clip-rule="evenodd" d="M6.86156 9.28384L6.75856 9.8305H6.1102L6.12829 9.72938L6.14069 9.63826L6.15117 9.56901L6.1617 9.53257L6.12544 9.57175L6.08447 9.61093L6.03582 9.64828L5.98147 9.6829L5.91949 9.71753L5.85559 9.74668L5.7889 9.77584L5.71929 9.80045L5.64492 9.82231L5.57055 9.83962L5.49617 9.85419L5.41895 9.86422L5.34457 9.86878H5.2702L5.19867 9.86149L5.12907 9.85147L5.03945 9.8296L4.95745 9.80499L4.885 9.77311L4.8211 9.73666L4.76483 9.69748L4.71332 9.65284L4.67235 9.60637L4.6361 9.55718L4.6056 9.50524L4.57988 9.45148L4.55887 9.39773L4.54362 9.34397L4.53315 9.28749L4.52552 9.231L4.52075 9.17724V9.12622L4.52838 9.03056L4.54362 8.93944L4.56935 8.8538L4.60275 8.76997L4.64372 8.69161L4.69045 8.62056L4.74481 8.55131L4.80678 8.49026L4.87161 8.43378L4.94407 8.38184L5.01844 8.33538L5.09567 8.2962L5.17767 8.26157L5.26257 8.23424L5.35027 8.21237L5.4399 8.1978H5.44467H5.458H5.47615H5.50473L5.53522 8.19324H5.57148L5.6096 8.18868L5.65348 8.18413L5.69735 8.17957L5.74118 8.17501H5.78791L5.82894 8.17047H5.86991H5.90808H5.94428H6.03198H6.09396H6.15023H6.20651H6.25324H6.28944H6.31522H6.32284L6.32762 8.15316L6.34286 8.1085L6.35619 8.05658L6.36096 8.0101L6.35049 7.95635L6.32762 7.90715L6.29706 7.86251L6.25609 7.82606L6.20744 7.79417L6.15309 7.77231L6.09111 7.75773L6.02436 7.75317H5.9519H5.87468H5.7946H5.7126L5.62775 7.75773L5.54575 7.76502L5.46376 7.77231L5.38362 7.78232L5.3064 7.79235L5.23202 7.80511L5.16527 7.81695L5.10329 7.8297L5.04609 7.84429L4.99941 7.85886L4.96316 7.87618L4.93452 7.89075L5.11761 7.29853L5.17388 7.27666L5.23016 7.25662L5.29208 7.23931L5.35406 7.22746L5.41604 7.2147L5.48279 7.20469L5.54954 7.19467L5.61914 7.19011L5.69159 7.18555H5.76597H5.84319H6.09018H6.1798H6.26942L6.34187 7.19011L6.4191 7.20195L6.49923 7.21926L6.58123 7.24113L6.66131 7.27028L6.73854 7.30491L6.81576 7.34682L6.88822 7.39329L6.95211 7.44704L7.00839 7.50626L7.05983 7.57277L7.09801 7.64658L7.12373 7.72493L7.13898 7.80875V7.89987L7.12373 7.99826L6.86342 9.29659L6.86156 9.28384Z" fill="white"/>
<path d="M6.86156 9.28384L6.75856 9.8305H6.1102L6.12829 9.72938L6.14069 9.63826L6.15117 9.56901L6.1617 9.53257L6.12544 9.57175L6.08447 9.61093L6.03582 9.64828L5.98147 9.6829L5.91949 9.71753L5.85559 9.74668L5.7889 9.77584L5.71929 9.80045L5.64492 9.82231L5.57055 9.83962L5.49617 9.85419L5.41895 9.86422L5.34457 9.86878H5.2702L5.19867 9.86149L5.12907 9.85147L5.03945 9.8296L4.95745 9.80499L4.885 9.77311L4.8211 9.73666L4.76483 9.69748L4.71332 9.65284L4.67235 9.60637L4.6361 9.55718L4.6056 9.50524L4.57988 9.45148L4.55887 9.39773L4.54362 9.34397L4.53315 9.28749L4.52552 9.231L4.52075 9.17724V9.12622L4.52838 9.03056L4.54362 8.93944L4.56935 8.8538L4.60275 8.76997L4.64372 8.69161L4.69045 8.62056L4.74481 8.55131L4.80678 8.49026L4.87161 8.43378L4.94407 8.38184L5.01844 8.33538L5.09567 8.2962L5.17767 8.26157L5.26257 8.23424L5.35027 8.21237L5.4399 8.1978H5.44467H5.458H5.47615H5.50473L5.53522 8.19324H5.57148L5.6096 8.18868L5.65348 8.18413L5.69735 8.17957L5.74118 8.17501H5.78791L5.82894 8.17047H5.86991H5.90808H5.94428H6.03198H6.09396H6.15023H6.20651H6.25324H6.28944H6.31522H6.32284L6.32762 8.15316L6.34286 8.1085L6.35619 8.05658L6.36096 8.0101L6.35049 7.95635L6.32762 7.90715L6.29706 7.86251L6.25609 7.82606L6.20744 7.79417L6.15309 7.77231L6.09111 7.75773L6.02436 7.75317H5.9519H5.87468H5.7946H5.7126L5.62775 7.75773L5.54575 7.76501L5.46376 7.77231L5.38362 7.78232L5.3064 7.79235L5.23202 7.80511L5.16527 7.81695L5.10329 7.8297L5.04609 7.84429L4.99941 7.85886L4.96316 7.87618L4.93452 7.89075L5.11761 7.29853L5.17388 7.27666L5.23016 7.25662L5.29208 7.23931L5.35406 7.22746L5.41604 7.2147L5.48279 7.20469L5.54954 7.19467L5.61914 7.19011L5.69159 7.18555H5.76597H5.84319H6.09018H6.1798H6.26942L6.34187 7.19011L6.4191 7.20195L6.49923 7.21926L6.58123 7.24113L6.66131 7.27028L6.73854 7.30491L6.81576 7.34682L6.88822 7.39329L6.95211 7.44704L7.00839 7.50626L7.05983 7.57277L7.09801 7.64658L7.12373 7.72493L7.13898 7.80875V7.89987L7.12373 7.99826L6.86342 9.29659" stroke="white" stroke-width="0.112067" stroke-miterlimit="2.613"/>
<path fill-rule="evenodd" clip-rule="evenodd" d="M6.24198 8.64153V8.62876L6.2315 8.61601L6.21625 8.60872L6.19047 8.60417L6.1619 8.59961H6.12855H6.05127H6.0103L5.96642 8.60417L5.92545 8.60872L5.88442 8.61328L5.8463 8.61784L5.81005 8.62512L5.77955 8.63241L5.75092 8.6397L5.73282 8.64425L5.71187 8.65155L5.68324 8.66156L5.65466 8.6734L5.62126 8.68799L5.58791 8.7053L5.55166 8.7226L5.51831 8.74265L5.48205 8.76726L5.44871 8.79185L5.41722 8.82101L5.38865 8.85016L5.36287 8.88205L5.34477 8.91668L5.32952 8.95586L5.3219 8.99504V9.07885L5.33523 9.14536L5.36095 9.19456L5.39435 9.23192L5.43247 9.25651L5.47635 9.2711L5.51732 9.27838H5.55835H5.63557L5.70518 9.2711L5.77193 9.26107L5.83105 9.2465L5.8825 9.22918L5.93115 9.20733L5.97503 9.18546L6.01315 9.15813L6.0465 9.13352L6.07705 9.10437L6.10277 9.07703L6.12378 9.04788L6.14188 9.01873L6.15713 8.98956L6.16952 8.96223L6.17715 8.93489L6.19716 8.86383L6.21526 8.78275L6.23057 8.70439L6.2439 8.64061L6.24198 8.64153Z" fill="#E30520"/>
<path fill-rule="evenodd" clip-rule="evenodd" d="M1.44828 9.82963H0.748413L1.33293 6.60156H2.54957L2.66492 8.5149L3.5059 6.60156H4.7769L4.17999 9.82963H3.48111L3.92352 7.41791H3.89489L2.84608 9.82963H2.0566L2.05182 9.7285L2.03373 9.46063L2.01085 9.07979L1.98507 8.64246L1.95935 8.20239L1.93648 7.81608L1.91832 7.53546L1.91361 7.41701H1.87543L1.44828 9.82872V9.82963Z" fill="white"/>
<path d="M1.44828 9.82963H0.748413L1.33293 6.60156H2.54957L2.66492 8.5149L3.5059 6.60156H4.7769L4.17999 9.82963H3.48111L3.92352 7.41791H3.89489L2.84608 9.82963H2.0566L2.05182 9.7285L2.03373 9.46063L2.01085 9.07979L1.98507 8.64246L1.95935 8.20239L1.93648 7.81608L1.91832 7.53546L1.91361 7.41701H1.87543L1.44828 9.82872" stroke="white" stroke-width="0.112067" stroke-miterlimit="2.613"/>
<path fill-rule="evenodd" clip-rule="evenodd" d="M19.6319 9.28384L19.5261 9.8305H18.8806L18.8853 9.72938V9.63826V9.57175L18.8901 9.5426L18.8567 9.57903L18.8176 9.61549L18.7719 9.6501L18.7204 9.68474L18.666 9.71661L18.604 9.74577L18.5402 9.77493L18.4754 9.79953L18.4058 9.81957L18.3332 9.83962L18.2608 9.85147L18.1893 9.86149L18.1149 9.86604H18.0434L17.9738 9.85875L17.9042 9.84873L17.8088 9.82686L17.7268 9.80227L17.6544 9.77037L17.5876 9.73394L17.5314 9.69474L17.4828 9.6501L17.4417 9.60364L17.4055 9.55444L17.375 9.5025L17.3521 9.44875L17.3321 9.39499L17.3188 9.34123L17.3083 9.28475L17.3007 9.22826L17.2959 9.1745V9.12622L17.3007 9.03056L17.3159 8.93944L17.3388 8.8538L17.3721 8.76997L17.4103 8.69161L17.4589 8.62056L17.5133 8.55131L17.5724 8.49026L17.6391 8.43378L17.7087 8.38184L17.7831 8.33538L17.8632 8.2962L17.9423 8.26157L18.0272 8.23424L18.112 8.21237L18.1998 8.1978H18.2046H18.217H18.2351H18.2608L18.2942 8.19324H18.3304L18.3686 8.18868L18.4095 8.18413L18.4534 8.17957L18.5001 8.17501H18.544L18.5878 8.17047H18.6288H18.6651H18.7013H18.7909H18.8529H18.912H18.9683H19.0169H19.0579H19.0808H19.0913L19.0961 8.15316L19.1037 8.1085L19.1113 8.05658L19.117 8.0101L19.1065 7.95635L19.0855 7.90715L19.0522 7.86251L19.0141 7.82606L18.9673 7.79417L18.913 7.77231L18.8567 7.75773L18.7947 7.75317H18.7223H18.6451H18.5716H18.4896L18.4048 7.75773L18.3228 7.76501L18.2408 7.77231L18.1607 7.78232L18.0835 7.79235L18.0091 7.80511L17.9423 7.81695L17.8804 7.8297L17.8241 7.84429L17.7774 7.85886L17.7412 7.87618L17.7125 7.89075L17.8928 7.29853L17.949 7.27666L18.0081 7.25662L18.0672 7.23931L18.1292 7.22746L18.1931 7.2147L18.2579 7.20469L18.3247 7.19467L18.3943 7.19011L18.4667 7.18555H18.5411H18.6155H18.8577H18.9454H19.0331L19.1056 7.19011L19.1828 7.20195L19.2629 7.21926L19.3449 7.24113L19.425 7.27028L19.5051 7.30491L19.5823 7.34682L19.6548 7.39329L19.7196 7.44704L19.7788 7.50626L19.8302 7.57277L19.8693 7.64658L19.8979 7.72493L19.916 7.80875V7.89987L19.9037 7.99826L19.6338 9.29659L19.6319 9.28384Z" fill="white"/>
<path fill-rule="evenodd" clip-rule="evenodd" d="M19.5256 9.84705L19.5409 9.83247L19.6467 9.28581L19.6162 9.28125L19.5104 9.82792L19.5256 9.81334V9.84796H19.538V9.83612L19.5228 9.85069L19.5256 9.84705Z" fill="white"/>
<path fill-rule="evenodd" clip-rule="evenodd" d="M18.8646 9.83176L18.8799 9.84907H19.5254V9.81445H18.8799L18.8952 9.83176H18.8646V9.84907H18.8828L18.8675 9.83176H18.8646Z" fill="white"/>
<path fill-rule="evenodd" clip-rule="evenodd" d="M18.9062 9.55415L18.8829 9.53412L18.8722 9.5733V9.63981V9.73091L18.8673 9.83205H18.8984L18.9033 9.73091L18.9091 9.63981V9.5733V9.55325L18.8858 9.5332L18.912 9.55325L18.9062 9.55415Z" fill="white"/>
<path fill-rule="evenodd" clip-rule="evenodd" d="M17.9048 9.86772L17.9763 9.87774L18.0459 9.88503H18.1184L18.1927 9.88047L18.2671 9.87044L18.3386 9.85769L18.4111 9.83765L18.4835 9.8176L18.5484 9.79301L18.6151 9.76385L18.6771 9.7347L18.7315 9.70007L18.7858 9.66545L18.8325 9.63082L18.8735 9.59164L18.9069 9.5552L18.8811 9.53516L18.8478 9.57161L18.8115 9.60623L18.7658 9.64084L18.7171 9.67547L18.6638 9.70463L18.6018 9.73378L18.5398 9.76293L18.475 9.78754L18.4082 9.80757L18.3358 9.82762L18.2633 9.84038L18.1937 9.85041L18.1193 9.85495H18.0468L17.9772 9.84767L17.9105 9.83765L17.9057 9.8668L17.9048 9.86772Z" fill="white"/>
<path fill-rule="evenodd" clip-rule="evenodd" d="M17.2822 9.12305V9.17681L17.2869 9.23055L17.2946 9.28978L17.3051 9.34626L17.3175 9.40003L17.3375 9.45651L17.3604 9.51301L17.3937 9.56494L17.43 9.61688L17.4709 9.66334L17.5225 9.7098L17.5816 9.74898L17.6483 9.78815L17.7227 9.82005L17.8076 9.84465L17.9029 9.86652L17.9076 9.83735L17.8123 9.81549L17.7322 9.79089L17.6626 9.759L17.5959 9.72438L17.5415 9.68521L17.4957 9.64329L17.4548 9.59683L17.4185 9.55037L17.3899 9.49843L17.3671 9.44649L17.3461 9.39456L17.3337 9.3408L17.3232 9.28432L17.3156 9.23055L17.3108 9.17681V9.12305H17.2745H17.2822Z" fill="white"/>
<path fill-rule="evenodd" clip-rule="evenodd" d="M18.2065 8.17948L18.1169 8.19407L18.0292 8.21593L17.9443 8.24327L17.8623 8.27788L17.7822 8.31706L17.705 8.36626L17.6354 8.4182L17.5687 8.47741L17.5067 8.53846L17.4523 8.60771L17.4008 8.68151L17.3627 8.76259L17.3293 8.84643L17.3064 8.93753L17.2912 9.02864L17.2836 9.12431H17.3198V9.02864L17.3351 8.93753L17.3579 8.85371L17.3913 8.76989L17.4304 8.69335L17.4761 8.62411L17.5305 8.55486L17.5868 8.49382L17.6535 8.44006L17.7231 8.38813L17.7956 8.34349L17.8747 8.30431L17.9519 8.26968L18.0368 8.24235L18.1188 8.22048L18.2036 8.20591V8.17676L18.2065 8.17948Z" fill="white"/>
<path fill-rule="evenodd" clip-rule="evenodd" d="M18.7365 8.13184H18.7079L18.6717 8.1364H18.6355H18.5944L18.5506 8.14096H18.5067L18.46 8.1455L18.4162 8.15006L18.3751 8.15462L18.336 8.15917H18.2998L18.2664 8.16373H18.2407H18.2207H18.2102H18.2054V8.19288H18.2102H18.2255H18.2407H18.2664L18.2998 8.18832H18.336L18.3751 8.18378L18.4162 8.17922L18.46 8.17466L18.5067 8.17011H18.5506L18.5944 8.16555H18.6355H18.6717H18.7365V8.13184Z" fill="white"/>
<path fill-rule="evenodd" clip-rule="evenodd" d="M19.0835 8.15566L19.0988 8.14291H19.0883H19.0654H19.0244L18.9758 8.13835H18.8556L18.7937 8.13379H18.7317V8.16842H18.8556L18.9148 8.17297H19.0206H19.0616H19.0845H19.095L19.1103 8.16022L19.095 8.17297H19.1074V8.1584L19.0768 8.15384L19.0835 8.15566Z" fill="white"/>
<path fill-rule="evenodd" clip-rule="evenodd" d="M19.1091 7.99805V8.04452L19.1015 8.09372L19.0939 8.13836L19.0891 8.15567L19.1196 8.16023L19.1244 8.14292L19.132 8.09827L19.1396 8.04452L19.1472 7.99805H19.1139H19.1091Z" fill="white"/>
<path fill-rule="evenodd" clip-rule="evenodd" d="M18.8035 7.75525H18.8626L18.9169 7.76983L18.9684 7.7917L19.0123 7.82085L19.0485 7.85547L19.079 7.89739L19.1 7.94203L19.1105 7.99397H19.141L19.1305 7.93748L19.1105 7.88372L19.0743 7.83726L19.0332 7.79808L18.9846 7.76345L18.9284 7.74158L18.8692 7.72701L18.8044 7.71973V7.7516L18.8035 7.75525Z" fill="white"/>
<path fill-rule="evenodd" clip-rule="evenodd" d="M17.6974 7.86883L17.7232 7.88341L17.7489 7.87065L17.7823 7.85334L17.8261 7.83876L17.8824 7.82419L17.9444 7.81142L18.0111 7.79958L18.0855 7.78773L18.1599 7.77771L18.239 7.7677L18.321 7.7604L18.403 7.75312L18.4879 7.74856H18.7272H18.7996V7.7194H18.7272L18.6499 7.71484H18.5699L18.4879 7.7194L18.403 7.72396L18.321 7.73125L18.239 7.73853L18.1599 7.74856L18.0797 7.75858L18.0054 7.77043L17.9387 7.78227L17.8767 7.79503L17.8204 7.8096L17.7718 7.82419L17.7336 7.8415L17.7031 7.8588L17.7289 7.87339L17.6974 7.86883Z" fill="white"/>
<path fill-rule="evenodd" clip-rule="evenodd" d="M17.8881 7.26745L17.8776 7.27929L17.6974 7.87151L17.7279 7.87607L17.9081 7.28384L17.8976 7.2966L17.8872 7.26745H17.8795V7.27747L17.89 7.26562L17.8881 7.26745Z" fill="white"/>
<path fill-rule="evenodd" clip-rule="evenodd" d="M19.0352 7.15494L18.9475 7.15039H18.8598H18.6176L18.5432 7.15494H18.4688L18.3964 7.1595L18.3268 7.16406L18.2572 7.17407L18.1924 7.18409L18.1285 7.19685L18.0665 7.2087L18.0045 7.22601L17.9454 7.24605L17.8892 7.26792L17.8996 7.29708L17.9559 7.27521L18.015 7.25516L18.0713 7.23785L18.1332 7.2251L18.1981 7.21326L18.262 7.20323L18.3268 7.19321L18.3964 7.18865L18.4688 7.18409H18.5432H18.8598H18.9475H19.0352V7.15494Z" fill="white"/>
<path fill-rule="evenodd" clip-rule="evenodd" d="M19.9178 7.98816L19.9302 7.88702V7.79592L19.9121 7.70936L19.8835 7.62827L19.8425 7.55174L19.791 7.48249L19.729 7.42144L19.6652 7.3677L19.5908 7.32122L19.5136 7.27658L19.4316 7.24196L19.3515 7.21279L19.2666 7.19094L19.1865 7.17362L19.1064 7.16177L19.0339 7.15723V7.18638L19.1064 7.19094L19.1808 7.20278L19.2609 7.22009L19.341 7.24196L19.4211 7.27112L19.4983 7.30573L19.5756 7.34491L19.6452 7.39139L19.71 7.44513L19.7662 7.50162L19.8177 7.5654L19.854 7.63647L19.8825 7.713L19.9006 7.79408V7.8852L19.8873 7.98086L19.9178 7.98542V7.98816Z" fill="white"/>
<path fill-rule="evenodd" clip-rule="evenodd" d="M19.6465 9.28823L19.9163 7.9899L19.8858 7.98535L19.616 9.28367L19.6465 9.28823Z" fill="white"/>
<path fill-rule="evenodd" clip-rule="evenodd" d="M19.0088 8.64256L19.0041 8.62799L18.9936 8.61615L18.9754 8.60885L18.9497 8.60156H18.9211H18.8877H18.8486H18.8105L18.7695 8.60612L18.7285 8.61067L18.6866 8.61523L18.6484 8.61979L18.6103 8.62707L18.5769 8.63163L18.5436 8.63892L18.5178 8.64348H18.4997L18.4787 8.65076L18.453 8.65805L18.4244 8.66807L18.391 8.68266L18.3605 8.69723L18.3242 8.71455L18.2909 8.7364L18.2575 8.75827L18.2241 8.7856L18.1955 8.81294L18.1669 8.84483L18.1441 8.87946L18.1259 8.91681L18.1107 8.95599L18.103 8.99789V9.08173L18.1154 9.14823L18.1364 9.19744L18.1669 9.23479L18.205 9.25938L18.2489 9.27397L18.2928 9.28125H18.3366H18.4139L18.4854 9.27397L18.5521 9.26121L18.6113 9.2439L18.6675 9.22385L18.7161 9.20198L18.7629 9.17739L18.8038 9.14823L18.8401 9.1209L18.8706 9.08901L18.8992 9.05986L18.9221 9.02796L18.9402 8.99881L18.9526 8.96966L18.963 8.94049L18.9707 8.91316L18.9812 8.84392L18.9936 8.77285L19.0041 8.70361L19.0088 8.64256Z" fill="#F9B41D"/>
<path fill-rule="evenodd" clip-rule="evenodd" d="M24.3105 9.49272L24.3153 9.43623L24.3363 9.36972L24.3725 9.3105L24.4164 9.25856L24.4708 9.21666L24.5327 9.18749L24.5994 9.16746L24.6719 9.16016L24.7444 9.16746L24.8111 9.18749L24.8731 9.21666L24.9275 9.25856L24.9713 9.3105L25.0076 9.36972L25.0285 9.43623L25.0333 9.49272H24.9561V9.44808L24.9408 9.39432L24.9151 9.34511L24.8817 9.3032L24.8407 9.26858L24.7921 9.24399L24.7358 9.22667L24.6767 9.22212L24.6176 9.22667L24.5613 9.24399L24.5127 9.26858L24.4717 9.3032L24.4383 9.34511L24.4126 9.39432L24.3973 9.44808L24.3925 9.49272H24.3105Z" fill="white"/>
<path fill-rule="evenodd" clip-rule="evenodd" d="M24.541 9.49329V9.3457H24.6821H24.7126L24.7413 9.35025L24.7613 9.35755L24.7794 9.36757L24.7918 9.38214L24.8023 9.39673L24.807 9.41403V9.43134V9.45321L24.8023 9.47052L24.7946 9.4851L24.7899 9.48965H24.6812H24.6917H24.7098L24.725 9.4851L24.7374 9.48054L24.7479 9.47326L24.7527 9.46596L24.7574 9.45411V9.43681V9.42496L24.7527 9.41494L24.7451 9.41039L24.7374 9.40583H24.725H24.7126H24.6068V9.50149L24.541 9.49329Z" fill="white"/>
<path fill-rule="evenodd" clip-rule="evenodd" d="M24.309 9.49414V9.50872L24.3166 9.57979L24.3376 9.6463L24.3738 9.70553L24.4177 9.75473L24.472 9.79663L24.534 9.82852L24.6008 9.84857L24.6732 9.85585L24.7457 9.84857L24.8124 9.82852L24.8744 9.79663L24.9287 9.75473L24.9726 9.70553L25.0088 9.6463L25.0298 9.57979L25.0375 9.50872V9.49414H24.9602V9.50872L24.9554 9.56795L24.9402 9.6217L24.9144 9.66817L24.8811 9.71007L24.8401 9.7447L24.7914 9.77204L24.7352 9.78935L24.6761 9.79391L24.6169 9.78935L24.5607 9.77204L24.5121 9.7447L24.471 9.71007L24.4377 9.66817L24.412 9.6217L24.3967 9.56795L24.3919 9.50872V9.49414H24.309Z" fill="white"/>
<path fill-rule="evenodd" clip-rule="evenodd" d="M24.541 9.49414V9.64448H24.6049V9.52147H24.6726L24.7498 9.64448H24.8013L24.7241 9.52147H24.7422L24.7603 9.51693L24.7755 9.51237L24.7879 9.50234L24.7927 9.49506H24.6841H24.6717H24.6078L24.541 9.49414Z" fill="white"/>
<path d="M24.6063 9.64331H24.5414V9.34628H24.6835H24.714L24.7417 9.35175L24.7627 9.35813L24.7808 9.36815L24.7941 9.38273L24.8036 9.3973L24.8093 9.41461V9.43192V9.45471L24.8036 9.47202L24.796 9.4866L24.7855 9.49753L24.7722 9.50755L24.7569 9.51211L24.7388 9.51757H24.7226L24.7999 9.64057H24.7484L24.6711 9.51757H24.6072V9.64057M24.6711 9.49297H24.694H24.7121L24.7273 9.4875L24.7407 9.48294L24.7512 9.47658L24.756 9.46837L24.7617 9.45561V9.4383V9.42555L24.7569 9.41643L24.7503 9.41097L24.7417 9.40641H24.7283H24.715H24.6101V9.50391H24.674M24.3069 9.50845L24.3154 9.4374L24.3355 9.37179L24.3708 9.31257L24.4146 9.26064L24.469 9.21873L24.5309 9.18957L24.5977 9.17044L24.6701 9.16406L24.7417 9.17044L24.8093 9.18957L24.8713 9.21873L24.9247 9.26064L24.9686 9.31257L25.0039 9.37179L25.0248 9.4374L25.0325 9.50845L25.0248 9.58044L25.0039 9.64603L24.9686 9.70526L24.9247 9.75538L24.8713 9.79637L24.8093 9.82917L24.7417 9.8483L24.6701 9.85468L24.5977 9.8483L24.5309 9.82917L24.469 9.79637L24.4146 9.75538L24.3708 9.70526L24.3355 9.64603L24.3154 9.58044L24.3069 9.50845ZM24.674 9.80093L24.7331 9.79637L24.7893 9.77907L24.838 9.75173L24.8799 9.71802L24.9133 9.6761L24.9391 9.62964L24.9543 9.57498L24.9591 9.51575L24.9543 9.45653L24.9391 9.40186L24.9133 9.35266L24.8799 9.31075L24.838 9.27703L24.7893 9.25244L24.7331 9.23513L24.674 9.23057L24.6149 9.23513L24.5577 9.25244L24.509 9.27703L24.467 9.31075L24.4337 9.35266L24.4089 9.40186L24.3937 9.45653L24.388 9.51575L24.3937 9.57498L24.4089 9.62964L24.4337 9.6761L24.467 9.71802L24.509 9.75173L24.5577 9.77907L24.6149 9.79637L24.674 9.80093Z" stroke="white" stroke-width="0.112067" stroke-miterlimit="2.613"/>
<path fill-rule="evenodd" clip-rule="evenodd" d="M19.8245 9.82952H20.55L20.8104 8.43096L20.8208 8.37721L20.8361 8.32345L20.8514 8.26971L20.8714 8.21595L20.8971 8.16219L20.9276 8.11026L20.961 8.06106L21.002 8.0146L21.0487 7.97268L21.1002 7.9335L21.1594 7.89615L21.2261 7.86699L21.3005 7.84239L21.3825 7.82234L21.4721 7.80777L21.5722 7.80321H21.637L21.7524 7.1709L21.6809 7.17546L21.6113 7.18274L21.5474 7.19459L21.4854 7.2119L21.4292 7.23194L21.3749 7.25655L21.3234 7.28388L21.2747 7.31304L21.228 7.34765L21.1841 7.38229L21.1431 7.42146L21.1022 7.46064L21.063 7.50254L21.0249 7.54902L20.9858 7.59366L20.9496 7.64286L21.0268 7.19823H20.3098L19.8331 9.83134L19.8245 9.82952Z" fill="white"/>
<path d="M19.8245 9.82952H20.55L20.8104 8.43096L20.8208 8.37721L20.8361 8.32345L20.8514 8.26971L20.8714 8.21595L20.8971 8.16218L20.9276 8.11026L20.961 8.06106L21.002 8.0146L21.0487 7.97268L21.1002 7.9335L21.1594 7.89615L21.2261 7.86699L21.3005 7.84239L21.3825 7.82234L21.4721 7.80777L21.5722 7.80321H21.637L21.7524 7.1709L21.6809 7.17546L21.6113 7.18274L21.5474 7.19459L21.4854 7.2119L21.4292 7.23194L21.3749 7.25655L21.3234 7.28388L21.2747 7.31304L21.228 7.34765L21.1841 7.38229L21.1431 7.42146L21.1022 7.46064L21.063 7.50254L21.0249 7.54902L20.9858 7.59366L20.9496 7.64286L21.0268 7.19823H20.3098L19.8331 9.83134" stroke="white" stroke-width="0.112067" stroke-miterlimit="2.613"/>
<path fill-rule="evenodd" clip-rule="evenodd" d="M13.0107 9.82939H13.7487L13.9957 8.43083L14.0062 8.37708L14.0195 8.32514L14.0319 8.27322L14.05 8.22402L14.0701 8.17482L14.0958 8.12835L14.1263 8.0837L14.1626 8.0418L14.2035 8.00444L14.2503 7.96799L14.3065 7.93884L14.3685 7.9115L14.441 7.88963L14.521 7.86959L14.6087 7.85684L14.7089 7.84955H14.7165H14.727H14.7394H14.7518H14.7651H14.7756H14.7833V7.83953L14.7909 7.81036L14.8014 7.76572L14.8138 7.71198L14.8319 7.64819L14.85 7.57894L14.8729 7.50971L14.8958 7.44046L14.9168 7.394L14.9425 7.34752L14.9682 7.30106L14.994 7.25914L15.0169 7.22271L15.035 7.19355L15.0474 7.17623L15.0531 7.16895H15.0426H15.0302H15.0121H14.994H14.973H14.9549H14.9368L14.8567 7.17351L14.7842 7.18079L14.7175 7.19264L14.6555 7.20722L14.5963 7.22725L14.542 7.25186L14.4934 7.27645L14.4477 7.30562L14.4038 7.3375L14.3627 7.37395L14.3246 7.41131L14.2865 7.45321L14.2474 7.49512L14.2111 7.54159L14.173 7.59079L14.1349 7.63999L14.2302 7.19537H13.4923L13.0155 9.82848L13.0107 9.82939Z" fill="white"/>
<path d="M13.0107 9.82939H13.7487L13.9957 8.43083L14.0062 8.37708L14.0195 8.32514L14.0319 8.27322L14.05 8.22402L14.0701 8.17482L14.0958 8.12835L14.1263 8.0837L14.1626 8.0418L14.2035 8.00444L14.2503 7.96799L14.3065 7.93884L14.3685 7.9115L14.441 7.88963L14.521 7.86959L14.6087 7.85684L14.7089 7.84955H14.7165H14.727H14.7394H14.7518H14.7651H14.7756H14.7833V7.83953L14.7909 7.81036L14.8014 7.76572L14.8138 7.71198L14.8319 7.64819L14.85 7.57894L14.8729 7.50971L14.8958 7.44046L14.9168 7.394L14.9425 7.34752L14.9682 7.30106L14.994 7.25914L15.0169 7.22271L15.035 7.19355L15.0474 7.17623L15.0531 7.16895H15.0426H15.0302H15.0121H14.994H14.973H14.9549H14.9368L14.8567 7.17351L14.7842 7.18079L14.7175 7.19264L14.6555 7.20722L14.5963 7.22725L14.542 7.25186L14.4934 7.27645L14.4477 7.30562L14.4038 7.3375L14.3627 7.37395L14.3246 7.41131L14.2865 7.45321L14.2474 7.49512L14.2111 7.54159L14.173 7.59079L14.1349 7.63999L14.2302 7.19537H13.4923L13.0155 9.82848" stroke="white" stroke-width="0.112067" stroke-miterlimit="2.613"/>
<path fill-rule="evenodd" clip-rule="evenodd" d="M24.3148 12.416V12.4059L24.3358 12.3422L24.372 12.2857L24.4158 12.2365L24.4702 12.1973L24.5322 12.1681L24.5989 12.1508L24.6714 12.1436L24.7438 12.1508L24.8106 12.1681L24.8726 12.1973L24.9269 12.2365L24.9708 12.2857L25.007 12.3422L25.028 12.4059V12.416H24.9536L24.9384 12.364L24.9126 12.3176L24.8793 12.2757L24.8382 12.241L24.7896 12.2137L24.7334 12.1964L24.6742 12.1918L24.6152 12.1964L24.5589 12.2137L24.5102 12.241L24.4693 12.2757L24.4359 12.3176L24.4101 12.364L24.3949 12.416H24.3148Z" fill="#F9B41D"/>
<path fill-rule="evenodd" clip-rule="evenodd" d="M24.541 12.4159V12.332H24.7136L24.7422 12.3366L24.7622 12.3412L24.7803 12.3512L24.7927 12.363L24.8032 12.3776L24.808 12.3949V12.4168H24.7565V12.4049V12.3922L24.7517 12.3821L24.7441 12.3776L24.7365 12.373H24.7241H24.7117H24.6058V12.4222L24.541 12.4159Z" fill="#F9B41D"/>
<path fill-rule="evenodd" clip-rule="evenodd" d="M24.3069 12.4708L24.3145 12.417H24.3889L24.3841 12.4689L24.3069 12.4708Z" fill="#F9B41D"/>
<path fill-rule="evenodd" clip-rule="evenodd" d="M24.541 12.4708V12.417H24.6049V12.4662H24.6726L24.6955 12.4616H24.7136L24.7289 12.4571L24.7413 12.4525L24.7517 12.4452L24.7565 12.4379L24.7613 12.4252V12.4206H24.8127V12.4379L24.808 12.4525L24.8003 12.4653L24.7899 12.4753L24.541 12.4708Z" fill="#F9B41D"/>
<path fill-rule="evenodd" clip-rule="evenodd" d="M24.9547 12.4709L24.95 12.4189H25.0243L25.0319 12.4727L24.9547 12.4709Z" fill="#F9B41D"/>
<path fill-rule="evenodd" clip-rule="evenodd" d="M24.3069 12.4707V12.478L24.3145 12.5491L24.3355 12.6156L24.3717 12.6748L24.4156 12.7267L24.4699 12.7686L24.5319 12.7978L24.5986 12.8178L24.6711 12.8251L24.7436 12.8178L24.8103 12.7978L24.8723 12.7686L24.9267 12.7267L24.9705 12.6748L25.0067 12.6156L25.0277 12.5491L25.0353 12.478V12.4707H24.9581V12.478L24.9533 12.5372L24.9381 12.591L24.9124 12.6374L24.8789 12.6794L24.838 12.714L24.7893 12.7413L24.7331 12.7586L24.674 12.7632L24.6149 12.7586L24.5586 12.7413L24.51 12.714L24.469 12.6794L24.4356 12.6374L24.4098 12.591L24.3946 12.5372L24.3898 12.478V12.4707H24.3069Z" fill="#F9B41D"/>
<path fill-rule="evenodd" clip-rule="evenodd" d="M24.541 12.4707V12.6128H24.6049V12.4898H24.6726L24.7498 12.6128H24.8013L24.7241 12.4898H24.7422L24.7603 12.4853L24.7755 12.4807L24.7879 12.4707H24.5439H24.541Z" fill="#F9B41D"/>
</svg>
