<svg width="49" height="16" viewBox="0 0 49 16" fill="none" xmlns="http://www.w3.org/2000/svg">
<path fill-rule="evenodd" clip-rule="evenodd" d="M0.414544 3.55895C0.409732 3.49388 0.41964 3.42857 0.443526 3.36746C0.467411 3.30635 0.504717 3.25085 0.552992 3.20472C0.601267 3.15859 0.659375 3.1229 0.723331 3.10007C0.787288 3.07725 0.855598 3.06782 0.923699 3.07242H5.88181C6.25819 3.08103 6.62876 3.16299 6.97083 3.3133C7.31289 3.4636 7.61928 3.67907 7.87112 3.9465C8.12295 4.21393 8.31493 4.52769 8.43538 4.86855C8.55584 5.20941 8.60218 5.57018 8.57156 5.92875V8.5646C8.5834 8.9368 8.53586 9.30854 8.43049 9.66704C8.27146 10.2477 7.91181 10.7599 7.40991 11.1208C6.90802 11.4816 6.29328 11.6699 5.66538 11.6551H3.53721V14.8786C3.53721 15.12 3.32461 15.243 3.06717 15.243H0.833147C0.770819 15.2494 0.707793 15.2425 0.648549 15.223C0.589306 15.2034 0.535268 15.1716 0.490315 15.1299C0.445362 15.0882 0.410573 15.0375 0.388414 14.9814C0.366256 14.9254 0.357282 14.8654 0.36211 14.8057L0.406921 3.55713L0.414544 3.55895ZM3.56771 6.06359H4.88829C5.03177 6.06407 5.16924 6.11875 5.27069 6.2157C5.37215 6.31265 5.42936 6.444 5.42986 6.58111V8.10448C5.42936 8.24167 5.37218 8.37312 5.27075 8.47022C5.16932 8.56731 5.03186 8.62219 4.88829 8.62291H3.56771V6.06269V6.06359Z" fill="#1E398C"/>
<path fill-rule="evenodd" clip-rule="evenodd" d="M11.0215 3.08887H14.4902C16.5202 3.20093 17.6196 4.22046 17.59 6.33424V14.1616C17.5659 14.4486 17.4309 14.7168 17.2113 14.914C16.9917 15.1112 16.7032 15.2233 16.4019 15.2285H11.8557C11.2558 15.2149 10.6787 15.0054 10.2206 14.635C9.7625 14.2645 9.4509 13.7553 9.33761 13.1922C9.21074 12.1539 9.19252 11.1061 9.28326 10.0643C9.25589 9.68722 9.30742 9.30869 9.43486 8.95084C9.56229 8.59298 9.76309 8.26298 10.0255 7.9801C10.2879 7.69722 10.6066 7.46712 10.9631 7.30327C11.3196 7.13942 11.7067 7.04509 12.1017 7.02578H13.9525C14.4912 6.99844 14.4664 5.87321 13.9525 5.9133H11.0606C10.9956 5.91997 10.93 5.91382 10.8677 5.89524C10.8054 5.87667 10.7477 5.84606 10.6982 5.80531C10.6488 5.76456 10.6086 5.71456 10.5803 5.65837C10.5519 5.60219 10.5359 5.54105 10.5333 5.47871V3.42871C10.5333 3.16631 10.7602 3.08887 11.0224 3.08887H11.0215ZM12.9332 9.85569H13.9954C14.1158 9.85617 14.2311 9.90214 14.3161 9.98357C14.4011 10.065 14.449 10.1753 14.4492 10.2903V12.0533C14.449 12.1683 14.4011 12.2786 14.3161 12.36C14.2311 12.4414 14.1158 12.4874 13.9954 12.4879H12.936C12.8157 12.4874 12.7005 12.4414 12.6157 12.36C12.5308 12.2785 12.4832 12.1682 12.4832 12.0533V10.2903C12.4834 10.1754 12.5311 10.0653 12.616 9.98389C12.7008 9.90249 12.8158 9.85641 12.936 9.85569H12.9332Z" fill="#1E398C"/>
<path fill-rule="evenodd" clip-rule="evenodd" d="M18.6532 3.63904V8.58274C18.7354 9.32878 19.1045 10.0191 19.689 10.5199C20.2735 11.0207 21.0318 11.2963 21.8168 11.2933H23.2814C23.8868 11.2933 23.8534 12.2664 23.2814 12.2664H20.1129C19.7697 12.2664 19.6458 12.4376 19.6458 12.7274V14.9049C19.6465 14.9572 19.6582 15.0088 19.6802 15.0567C19.7022 15.1045 19.7341 15.1476 19.774 15.1834C19.8139 15.2192 19.8609 15.247 19.9123 15.2651C19.9636 15.2831 20.0183 15.2911 20.0729 15.2885H23.0067C25.4543 15.2885 26.8493 14.1651 26.8483 11.6441V3.44406C26.8549 3.39711 26.8508 3.34936 26.8363 3.30406C26.8218 3.25876 26.7973 3.217 26.7643 3.18162C26.7314 3.14624 26.6908 3.11807 26.6454 3.09905C26.6 3.08003 26.5508 3.0706 26.5013 3.07142H24.0404C23.8134 3.07142 23.6809 3.30739 23.6809 3.48141V7.97594C23.6859 8.01511 23.6819 8.05484 23.6693 8.09241C23.6567 8.12998 23.6357 8.16449 23.6078 8.19358C23.5799 8.22267 23.5457 8.24565 23.5076 8.26092C23.4696 8.2762 23.4285 8.28341 23.3872 8.28207H22.223C22.168 8.28871 22.1122 8.28347 22.0597 8.26673C22.0071 8.25 21.9591 8.2222 21.9193 8.18538C21.8795 8.14856 21.8488 8.10365 21.8296 8.054C21.8104 8.00434 21.8031 7.9512 21.8083 7.89849V3.55886C21.8083 3.27095 21.6871 3.05957 21.3544 3.05957H18.9888C18.7199 3.05957 18.6512 3.31469 18.6512 3.63631L18.6532 3.63904Z" fill="#1E398C"/>
<path fill-rule="evenodd" clip-rule="evenodd" d="M28.0856 5.67219V3.53471C28.0858 3.42412 28.1319 3.31812 28.2138 3.23991C28.2956 3.16171 28.4065 3.11767 28.5223 3.11743H29.0601C30.4464 2.8441 30.7763 2.06237 31.623 1.18952C32.1446 0.649235 32.6022 0.5071 32.9388 1.07928V3.11561H34.2098C34.3255 3.11585 34.4363 3.15992 34.518 3.23815C34.5996 3.31638 34.6455 3.42238 34.6455 3.53289V5.67037C34.6448 5.78058 34.5986 5.88607 34.5171 5.964C34.4355 6.04193 34.3251 6.08603 34.2098 6.08675H32.9388V14.8471C32.9383 14.9576 32.8921 15.0635 32.8103 15.1416C32.7285 15.2198 32.6178 15.2639 32.5021 15.2644H30.2672C30.1515 15.2641 30.0406 15.22 29.959 15.1418C29.8773 15.0636 29.8314 14.9576 29.8314 14.8471V6.08675H28.5232C28.4077 6.08627 28.2971 6.04228 28.2153 5.96432C28.1336 5.88636 28.0873 5.78073 28.0866 5.67037L28.0856 5.67219Z" fill="#00ADEE"/>
<path fill-rule="evenodd" clip-rule="evenodd" d="M43.9218 14.7089C43.9206 14.8467 43.8624 14.9784 43.7601 15.0755C43.6578 15.1725 43.5196 15.2271 43.3755 15.2274H41.2826C41.1382 15.2276 40.9995 15.1732 40.897 15.0761C40.7944 14.9789 40.7362 14.8469 40.7352 14.7089V6.66929C40.7514 5.80009 38.9237 5.66707 38.9237 6.66929V14.7089C38.9229 14.8465 38.8652 14.9782 38.7632 15.0754C38.6612 15.1725 38.5232 15.2271 38.3792 15.2274H36.2816C36.1373 15.2274 35.9989 15.1729 35.8965 15.0757C35.7942 14.9786 35.7362 14.8468 35.7352 14.7089V3.56149C35.7354 3.49305 35.7495 3.4253 35.7771 3.36212C35.8046 3.29893 35.8449 3.24155 35.8956 3.19324C35.9463 3.14493 36.0065 3.10664 36.0728 3.08056C36.139 3.05448 36.21 3.04113 36.2816 3.04125H38.3792C38.5236 3.04125 38.6621 3.09605 38.7642 3.19362C38.8663 3.29118 38.9237 3.42351 38.9237 3.56149V3.71546C39.5564 3.19553 40.3743 2.92837 41.2077 2.96943C42.0411 3.01048 42.8259 3.35661 43.3993 3.93595C45.5227 1.60533 49.1631 3.68176 48.9943 6.23742C48.9943 9.06187 48.9685 11.8608 48.9685 14.7108C48.9673 14.8485 48.9092 14.9802 48.8069 15.0773C48.7046 15.1744 48.5664 15.2289 48.4222 15.2292H46.3245C46.1803 15.2292 46.0419 15.1747 45.9396 15.0776C45.8372 14.9804 45.7792 14.8486 45.7782 14.7108V6.72395C45.6581 5.60966 43.897 5.86933 43.8989 6.72395C43.8989 9.37893 43.9199 12.033 43.9199 14.7108L43.9218 14.7089Z" fill="#00ADEE"/>
</svg>
