<svg width="24" height="25" viewBox="0 0 24 25" fill="none" xmlns="http://www.w3.org/2000/svg">
<path d="M20.8098 15.353L16.4188 13.4711C16.1895 13.3724 15.9392 13.3327 15.6907 13.3555C15.4421 13.3784 15.2032 13.4631 14.9958 13.6019L12.648 15.1669C11.2131 14.469 10.0518 13.3127 9.34753 11.881L9.34771 11.8808L10.9072 9.49783C11.043 9.29096 11.1253 9.05366 11.1469 8.80718C11.1685 8.56069 11.1287 8.31269 11.031 8.08536L9.1474 3.69055C9.01918 3.39223 8.79778 3.14347 8.51635 2.98151C8.23492 2.81956 7.9086 2.75312 7.58624 2.79215C6.31956 2.95501 5.15548 3.57345 4.31148 4.53193C3.46749 5.49041 3.00129 6.72338 3 8.00049C3 15.4445 9.05603 21.5005 16.5 21.5005C17.7771 21.4992 19.0101 21.033 19.9686 20.189C20.9271 19.345 21.5455 18.1809 21.7083 16.9142C21.7473 16.5918 21.6808 16.2655 21.5188 15.9841C21.3568 15.7027 21.1081 15.4813 20.8098 15.353Z" fill="#17A74F"/>
</svg>
