<svg width="57" height="16" viewBox="0 0 57 16" fill="none" xmlns="http://www.w3.org/2000/svg">
<path d="M30.8373 4.53704C31.0929 2.60822 29.5539 1.80371 27.6336 1.80371H22.5868L19.6082 12.1785H22.8147L23.7167 8.97963L26.2711 8.99421C26.2711 8.99421 30.229 9.15456 30.8373 4.53704ZM27.5402 5.56752C27.4322 5.87573 27.2187 6.14018 26.9341 6.31821C26.6496 6.49625 26.3105 6.57748 25.9717 6.54878H24.4023L25.0221 4.3439C25.0221 4.3439 26.0155 4.3439 26.6725 4.3439C26.8302 4.32924 26.9892 4.35544 27.1326 4.41978C27.2761 4.48411 27.3987 4.58419 27.4877 4.70949C27.5767 4.83479 27.6287 4.98069 27.6382 5.13183C27.6478 5.28298 27.6146 5.43379 27.542 5.56843L27.5402 5.56752Z" fill="#2A2A89"/>
<path d="M12.5206 4.63959H15.4459L14.2417 9.06849C14.2417 9.06849 13.9413 10.0561 14.9091 10.1318C15.6719 10.1919 16.2439 9.32088 16.428 8.73048C16.672 7.95604 17.6227 4.63867 17.6227 4.63867H20.6366L18.3483 12.1772H15.7167L16.0399 11.1003C15.6281 11.5551 15.1141 11.9152 14.5362 12.1536C13.9583 12.392 13.3316 12.5025 12.7027 12.477C10.9302 12.3102 10.7786 11.082 11.0818 9.54956C11.2286 8.79698 12.5206 4.63959 12.5206 4.63959Z" fill="#2A2A89"/>
<path d="M37.9558 8.46356C38.3372 7.20987 38.8292 6.0227 38.4326 5.36579C37.8319 4.35901 36.7468 4.27246 35.1592 4.27246C33.4048 4.27246 31.2395 4.59044 30.5339 6.82357H33.4534C33.5548 6.56512 33.7445 6.3469 33.9917 6.20421C34.239 6.06152 34.5294 6.0027 34.816 6.03728C35.7866 6.08375 35.7332 6.72152 35.3756 7.07412C34.7483 7.69277 33.0177 7.34746 31.0993 7.98524C30.4067 8.26749 29.8386 8.77132 29.4923 9.41022C29.1461 10.0491 29.0434 10.7833 29.2019 11.4866C29.5547 12.3021 30.2116 12.405 31.0984 12.4889C31.6524 12.5208 32.2072 12.442 32.7276 12.2577C33.248 12.0734 33.7225 11.7875 34.1209 11.4183C34.1209 11.913 34.1352 12.1891 34.1352 12.1891H37.2073L37.1997 11.9158C37.1997 11.9158 36.926 11.8465 36.9565 11.4794C36.9804 11.1969 37.5115 9.9013 37.9558 8.46356ZM33.5383 10.6457C33.0368 10.7669 32.4285 10.8334 32.3083 10.3979C31.9765 9.20612 34.898 8.85717 34.898 8.85717C34.8897 9.25223 34.7546 9.63533 34.5111 9.9547C34.2676 10.2741 33.9274 10.5143 33.5364 10.643L33.5383 10.6457Z" fill="#2A2A89"/>
<path d="M11.7927 4.21899C12.0473 2.29017 10.2671 1.80273 8.34965 1.80273H3.30384L0.324219 12.1776H3.53081L4.53195 8.6552L6.33113 8.66886C6.33113 8.66886 7.0739 8.62786 7.0882 9.29479C7.10441 10.0055 6.53709 11.3102 6.57427 12.1785H9.86763L9.86094 11.9051C9.86094 11.9051 9.58729 11.8359 9.6178 11.4696C9.73041 11.032 9.87117 10.6014 10.0393 10.1804C10.2533 9.69707 10.3657 9.1782 10.3701 8.65338C10.3453 7.96002 9.89336 7.63749 9.2326 7.41244C11.2807 6.9496 11.7927 4.21899 11.7927 4.21899ZM8.38969 5.54376C7.97493 6.46125 6.68968 6.35647 6.68968 6.35647L5.19271 6.35009L5.73905 4.40669C5.73905 4.40669 7.07394 4.40669 7.7347 4.40669C8.43741 4.41125 8.65762 4.95153 8.38969 5.54466V5.54376Z" fill="#2A2A89"/>
<path d="M39.3451 4.63965H42.3228V9.16241L44.8972 4.63965H47.6309L42.1188 13.7827C41.8116 14.2341 41.4244 14.6309 40.9746 14.9553C40.5621 15.1821 40.0927 15.2971 39.6168 15.2878C38.527 15.2787 37.2141 15.2751 37.2141 15.2751L37.8472 13.0966H38.8722C39.1135 13.077 39.3415 12.9834 39.5224 12.8296C39.6997 12.6253 39.7927 12.366 39.7837 12.1007C39.7857 11.6342 39.3451 4.63965 39.3451 4.63965Z" fill="#2A2A89"/>
<path d="M51.4569 2.89941L48.0177 14.3329L54.4556 8.61663L51.4569 2.89941Z" fill="#0F8047"/>
<path d="M49.2522 2.89941L45.813 14.3329L52.2509 8.61663L49.2522 2.89941Z" fill="#F0721D"/>
<path d="M55.6568 3.20582C55.399 3.20582 55.147 3.13278 54.9326 2.99592C54.7183 2.85907 54.5512 2.66454 54.4526 2.43696C54.3539 2.20938 54.3282 1.95896 54.3784 1.71736C54.4287 1.47575 54.5528 1.25384 54.7351 1.07965C54.9174 0.905466 55.1497 0.786834 55.4025 0.738776C55.6554 0.690719 55.9174 0.715383 56.1556 0.809651C56.3937 0.903919 56.5973 1.06356 56.7406 1.26838C56.8838 1.4732 56.9602 1.71401 56.9602 1.96034C56.9597 2.29052 56.8222 2.60702 56.5779 2.84049C56.3336 3.07396 56.0023 3.20534 55.6568 3.20582ZM55.6568 0.826C55.4222 0.826 55.1929 0.892462 54.9979 1.01696C54.8028 1.14147 54.6509 1.31842 54.5611 1.52547C54.4713 1.73253 54.4477 1.96037 54.4934 2.18021C54.5391 2.40005 54.6519 2.60201 54.8177 2.76055C54.9835 2.9191 55.1948 3.02712 55.4248 3.07095C55.6548 3.11479 55.8933 3.09248 56.1101 3.00684C56.3268 2.92119 56.5121 2.77606 56.6426 2.58979C56.773 2.40352 56.8427 2.18447 56.8429 1.96034C56.8433 1.81118 56.8129 1.66341 56.7535 1.52547C56.6941 1.38754 56.6068 1.26216 56.4967 1.15648C56.3865 1.05079 56.2556 0.966883 56.1115 0.909554C55.9674 0.852225 55.8129 0.822597 55.6568 0.822358V0.826Z" fill="black"/>
<path d="M55.0278 2.42062V1.63799H54.7236V1.5332H55.4559V1.63799H55.1508V2.41698L55.0278 2.42062Z" fill="black"/>
<path d="M55.6385 2.42095V1.53809H55.8226L56.0409 2.16402C56.0609 2.22233 56.0753 2.26607 56.0848 2.29431L56.1334 2.15217L56.3556 1.53809H56.5196V2.42095H56.4023V1.68205L56.1334 2.42095H56.0228L55.7558 1.66928V2.42095H55.6385Z" fill="black"/>
</svg>
