<svg width="60" height="61" viewBox="0 0 60 61" fill="none" xmlns="http://www.w3.org/2000/svg">
<g clip-path="url(#clip0_1571_68384)">
<path d="M30 55.5C16.1925 55.5 5 44.3075 5 30.5C5 16.6925 16.1925 5.5 30 5.5C43.8075 5.5 55 16.6925 55 30.5C55 44.3075 43.8075 55.5 30 55.5ZM30 50.5C35.3043 50.5 40.3914 48.3929 44.1421 44.6421C47.8929 40.8914 50 35.8043 50 30.5C50 25.1957 47.8929 20.1086 44.1421 16.3579C40.3914 12.6071 35.3043 10.5 30 10.5C24.6957 10.5 19.6086 12.6071 15.8579 16.3579C12.1071 20.1086 10 25.1957 10 30.5C10 35.8043 12.1071 40.8914 15.8579 44.6421C19.6086 48.3929 24.6957 50.5 30 50.5ZM17.5 23L25 14.25L32.5 23H27.5V33H22.5V23H17.5ZM42.5 38L35 46.75L27.5 38H32.5V28H37.5V38H42.5Z" fill="white"/>
</g>
<defs>
<clipPath id="clip0_1571_68384">
<rect width="60" height="60" fill="white" transform="translate(0 0.5)"/>
</clipPath>
</defs>
</svg>
