<svg width="16" height="17" viewBox="0 0 16 17" fill="none" xmlns="http://www.w3.org/2000/svg">
<g clip-path="url(#clip0_1571_72286)">
<path d="M14 2.5C14.1768 2.5 14.3464 2.57024 14.4714 2.69526C14.5964 2.82029 14.6666 2.98986 14.6666 3.16667V6.83333C14.2246 6.83333 13.8007 7.00893 13.4881 7.32149C13.1756 7.63405 13 8.05797 13 8.5C13 8.94203 13.1756 9.36595 13.4881 9.67851C13.8007 9.99107 14.2246 10.1667 14.6666 10.1667V13.8333C14.6666 14.0101 14.5964 14.1797 14.4714 14.3047C14.3464 14.4298 14.1768 14.5 14 14.5H1.99998C1.82317 14.5 1.6536 14.4298 1.52858 14.3047C1.40355 14.1797 1.33331 14.0101 1.33331 13.8333V10.1667C1.77534 10.1667 2.19926 9.99107 2.51182 9.67851C2.82438 9.36595 2.99998 8.94203 2.99998 8.5C2.99998 8.05797 2.82438 7.63405 2.51182 7.32149C2.19926 7.00893 1.77534 6.83333 1.33331 6.83333V3.16667C1.33331 2.98986 1.40355 2.82029 1.52858 2.69526C1.6536 2.57024 1.82317 2.5 1.99998 2.5H14Z" fill="url(#paint0_linear_1571_72286)"/>
</g>
<path d="M7.99777 11.8032C7.65911 11.8032 7.35377 11.7232 7.08177 11.5632C6.80977 11.4032 6.59377 11.1886 6.43377 10.9192C6.27377 10.6472 6.19377 10.3459 6.19377 10.0152H7.16977C7.16977 10.1646 7.20444 10.3006 7.27377 10.4232C7.34577 10.5459 7.44444 10.6446 7.56977 10.7192C7.69511 10.7912 7.83777 10.8272 7.99777 10.8272C8.14444 10.8272 8.28044 10.7912 8.40577 10.7192C8.53377 10.6446 8.63644 10.5459 8.71377 10.4232C8.79111 10.3006 8.82977 10.1646 8.82977 10.0152C8.82977 9.82055 8.77777 9.65922 8.67377 9.53122C8.56977 9.40055 8.42444 9.30322 8.23777 9.23922C8.05377 9.17522 7.83911 9.14322 7.59377 9.14322V8.39122C7.92444 8.39122 8.18577 8.32855 8.37777 8.20322C8.57244 8.07789 8.66977 7.89389 8.66977 7.65122C8.66977 7.52589 8.63777 7.41122 8.57377 7.30722C8.50977 7.20322 8.42444 7.12055 8.31777 7.05922C8.21377 6.99522 8.09911 6.96322 7.97377 6.96322C7.84577 6.96322 7.72177 6.99522 7.60177 7.05922C7.48177 7.12055 7.38311 7.20322 7.30577 7.30722C7.23111 7.41122 7.19377 7.52589 7.19377 7.65122H6.21777C6.21777 7.42189 6.26444 7.20722 6.35777 7.00722C6.45111 6.80455 6.57911 6.62722 6.74177 6.47522C6.90711 6.32322 7.09377 6.20455 7.30177 6.11922C7.51244 6.03122 7.73244 5.98722 7.96177 5.98722C8.26311 5.98722 8.54177 6.06189 8.79777 6.21122C9.05377 6.36055 9.25911 6.56055 9.41377 6.81122C9.56844 7.06189 9.64577 7.34189 9.64577 7.65122C9.64577 7.86722 9.59511 8.07922 9.49377 8.28722C9.39244 8.49522 9.24844 8.64189 9.06177 8.72722C9.22444 8.78589 9.36044 8.88455 9.46977 9.02322C9.57911 9.15922 9.66177 9.31522 9.71777 9.49122C9.77644 9.66455 9.80577 9.83922 9.80577 10.0152C9.80577 10.3432 9.72311 10.6432 9.55777 10.9152C9.39244 11.1846 9.17244 11.4006 8.89777 11.5632C8.62577 11.7232 8.32577 11.8032 7.99777 11.8032Z" fill="#FAFBFC"/>
<defs>
<linearGradient id="paint0_linear_1571_72286" x1="1.33331" y1="2.5" x2="13.267" y2="15.7597" gradientUnits="userSpaceOnUse">
<stop stop-color="#FF9B55"/>
<stop offset="1" stop-color="#DA4F23"/>
</linearGradient>
<clipPath id="clip0_1571_72286">
<rect width="16" height="16" fill="white" transform="translate(0 0.5)"/>
</clipPath>
</defs>
</svg>
