<svg width="16" height="16" viewBox="0 0 16 16" fill="none" xmlns="http://www.w3.org/2000/svg">
<g clip-path="url(#clip0_1571_72367)">
<path d="M14 2C14.1768 2 14.3464 2.07024 14.4714 2.19526C14.5964 2.32029 14.6666 2.48986 14.6666 2.66667V6.33333C14.2246 6.33333 13.8007 6.50893 13.4881 6.82149C13.1756 7.13405 13 7.55797 13 8C13 8.44203 13.1756 8.86595 13.4881 9.17851C13.8007 9.49107 14.2246 9.66667 14.6666 9.66667V13.3333C14.6666 13.5101 14.5964 13.6797 14.4714 13.8047C14.3464 13.9298 14.1768 14 14 14H1.99998C1.82317 14 1.6536 13.9298 1.52858 13.8047C1.40355 13.6797 1.33331 13.5101 1.33331 13.3333V9.66667C1.77534 9.66667 2.19926 9.49107 2.51182 9.17851C2.82438 8.86595 2.99998 8.44203 2.99998 8C2.99998 7.55797 2.82438 7.13405 2.51182 6.82149C2.19926 6.50893 1.77534 6.33333 1.33331 6.33333V2.66667C1.33331 2.48986 1.40355 2.32029 1.52858 2.19526C1.6536 2.07024 1.82317 2 1.99998 2H14Z" fill="#6A737D"/>
</g>
<path d="M7.99777 11.3032C7.65911 11.3032 7.35377 11.2232 7.08177 11.0632C6.80977 10.9032 6.59377 10.6886 6.43377 10.4192C6.27377 10.1472 6.19377 9.84589 6.19377 9.51522H7.16977C7.16977 9.66455 7.20444 9.80055 7.27377 9.92322C7.34577 10.0459 7.44444 10.1446 7.56977 10.2192C7.69511 10.2912 7.83777 10.3272 7.99777 10.3272C8.14444 10.3272 8.28044 10.2912 8.40577 10.2192C8.53377 10.1446 8.63644 10.0459 8.71377 9.92322C8.79111 9.80055 8.82977 9.66455 8.82977 9.51522C8.82977 9.32055 8.77777 9.15922 8.67377 9.03122C8.56977 8.90055 8.42444 8.80322 8.23777 8.73922C8.05377 8.67522 7.83911 8.64322 7.59377 8.64322V7.89122C7.92444 7.89122 8.18577 7.82855 8.37777 7.70322C8.57244 7.57789 8.66977 7.39389 8.66977 7.15122C8.66977 7.02589 8.63777 6.91122 8.57377 6.80722C8.50977 6.70322 8.42444 6.62055 8.31777 6.55922C8.21377 6.49522 8.09911 6.46322 7.97377 6.46322C7.84577 6.46322 7.72177 6.49522 7.60177 6.55922C7.48177 6.62055 7.38311 6.70322 7.30577 6.80722C7.23111 6.91122 7.19377 7.02589 7.19377 7.15122H6.21777C6.21777 6.92189 6.26444 6.70722 6.35777 6.50722C6.45111 6.30455 6.57911 6.12722 6.74177 5.97522C6.90711 5.82322 7.09377 5.70455 7.30177 5.61922C7.51244 5.53122 7.73244 5.48722 7.96177 5.48722C8.26311 5.48722 8.54177 5.56189 8.79777 5.71122C9.05377 5.86055 9.25911 6.06055 9.41377 6.31122C9.56844 6.56189 9.64577 6.84189 9.64577 7.15122C9.64577 7.36722 9.59511 7.57922 9.49377 7.78722C9.39244 7.99522 9.24844 8.14189 9.06177 8.22722C9.22444 8.28589 9.36044 8.38455 9.46977 8.52322C9.57911 8.65922 9.66177 8.81522 9.71777 8.99122C9.77644 9.16455 9.80577 9.33922 9.80577 9.51522C9.80577 9.84322 9.72311 10.1432 9.55777 10.4152C9.39244 10.6846 9.17244 10.9006 8.89777 11.0632C8.62577 11.2232 8.32577 11.3032 7.99777 11.3032Z" fill="#FAFBFC"/>
<defs>
<clipPath id="clip0_1571_72367">
<rect width="16" height="16" fill="white"/>
</clipPath>
</defs>
</svg>
