<svg width="16" height="17" viewBox="0 0 16 17" fill="none" xmlns="http://www.w3.org/2000/svg">
<g clip-path="url(#clip0_1571_72473)">
<path d="M13.9999 2.5C14.1767 2.5 14.3463 2.57024 14.4713 2.69526C14.5963 2.82029 14.6666 2.98986 14.6666 3.16667V6.83333C14.2246 6.83333 13.8006 7.00893 13.4881 7.32149C13.1755 7.63405 12.9999 8.05797 12.9999 8.5C12.9999 8.94203 13.1755 9.36595 13.4881 9.67851C13.8006 9.99107 14.2246 10.1667 14.6666 10.1667V13.8333C14.6666 14.0101 14.5963 14.1797 14.4713 14.3047C14.3463 14.4298 14.1767 14.5 13.9999 14.5H1.99992C1.82311 14.5 1.65354 14.4298 1.52851 14.3047C1.40349 14.1797 1.33325 14.0101 1.33325 13.8333V10.1667C1.77528 10.1667 2.1992 9.99107 2.51176 9.67851C2.82432 9.36595 2.99992 8.94203 2.99992 8.5C2.99992 8.05797 2.82432 7.63405 2.51176 7.32149C2.1992 7.00893 1.77528 6.83333 1.33325 6.83333V3.16667C1.33325 2.98986 1.40349 2.82029 1.52851 2.69526C1.65354 2.57024 1.82311 2.5 1.99992 2.5H13.9999Z" fill="url(#paint0_linear_1571_72473)"/>
</g>
<defs>
<linearGradient id="paint0_linear_1571_72473" x1="1.33325" y1="2.5" x2="13.267" y2="15.7597" gradientUnits="userSpaceOnUse">
<stop stop-color="#FF9B55"/>
<stop offset="1" stop-color="#DA4F23"/>
</linearGradient>
<clipPath id="clip0_1571_72473">
<rect width="16" height="16" fill="white" transform="translate(0 0.5)"/>
</clipPath>
</defs>
</svg>
