<svg width="16" height="16" viewBox="0 0 16 16" fill="none" xmlns="http://www.w3.org/2000/svg">
<g clip-path="url(#clip0_1571_72489)">
<path d="M13.9999 2C14.1767 2 14.3463 2.07024 14.4713 2.19526C14.5963 2.32029 14.6666 2.48986 14.6666 2.66667V6.33333C14.2246 6.33333 13.8006 6.50893 13.4881 6.82149C13.1755 7.13405 12.9999 7.55797 12.9999 8C12.9999 8.44203 13.1755 8.86595 13.4881 9.17851C13.8006 9.49107 14.2246 9.66667 14.6666 9.66667V13.3333C14.6666 13.5101 14.5963 13.6797 14.4713 13.8047C14.3463 13.9298 14.1767 14 13.9999 14H1.99992C1.82311 14 1.65354 13.9298 1.52851 13.8047C1.40349 13.6797 1.33325 13.5101 1.33325 13.3333V9.66667C1.77528 9.66667 2.1992 9.49107 2.51176 9.17851C2.82432 8.86595 2.99992 8.44203 2.99992 8C2.99992 7.55797 2.82432 7.13405 2.51176 6.82149C2.1992 6.50893 1.77528 6.33333 1.33325 6.33333V2.66667C1.33325 2.48986 1.40349 2.32029 1.52851 2.19526C1.65354 2.07024 1.82311 2 1.99992 2H13.9999Z" fill="#6A737D"/>
</g>
<defs>
<clipPath id="clip0_1571_72489">
<rect width="16" height="16" fill="white"/>
</clipPath>
</defs>
</svg>
