<svg width="44" height="16" viewBox="0 0 44 16" fill="none" xmlns="http://www.w3.org/2000/svg">
<path d="M0.461525 13.2302H0.784744L0.481544 14.4311C0.45715 14.4962 0.446857 14.5654 0.451282 14.6345C0.455708 14.7036 0.474737 14.7711 0.507267 14.8329C0.547941 14.8811 0.600846 14.9186 0.660904 14.9419C0.720961 14.9652 0.786235 14.9734 0.850564 14.9659C0.999936 14.9709 1.14605 14.9236 1.26148 14.8329C1.37839 14.7244 1.45733 14.5841 1.48746 14.4311L1.79066 13.2302H2.11865L1.81068 14.4611C1.76487 14.6935 1.63861 14.9043 1.45219 15.0597C1.25975 15.2001 1.02181 15.2713 0.779972 15.2611C0.675119 15.2739 0.56861 15.2628 0.469148 15.2286C0.369687 15.1943 0.280142 15.138 0.207908 15.0643C0.153341 14.9748 0.119906 14.8751 0.110022 14.772C0.100139 14.6689 0.114049 14.5649 0.150701 14.4675L0.461525 13.2302Z" fill="#3D3D3C"/>
<path d="M2.07312 15.205L2.58612 13.1514L3.56055 14.3586C3.58629 14.3923 3.61203 14.4269 3.63777 14.4661C3.66352 14.5053 3.68926 14.549 3.71977 14.5982L4.06301 13.2315H4.36621L3.85327 15.2806L2.85876 14.0516L2.78154 13.9486C2.75574 13.9118 2.73491 13.872 2.71956 13.8302L2.37632 15.2023H2.07312V15.205Z" fill="#3D3D3C"/>
<path d="M4.3396 15.2058L4.83252 13.2305H5.16051L4.66852 15.2058H4.3396Z" fill="#3D3D3C"/>
<path d="M5.13538 15.2058L5.62736 13.2305H6.75153L6.68478 13.5038H5.8886L5.76657 13.994H6.56176L6.49029 14.2728H5.69411L5.46337 15.1994H5.13538V15.2058Z" fill="#3D3D3C"/>
<path d="M6.62744 15.2058L7.11943 13.2305H7.44835L6.95543 15.2058H6.62744Z" fill="#3D3D3C"/>
<path d="M7.41736 15.2058L7.91028 13.2305H9.03252L8.96577 13.5038H8.17059L8.04663 13.9985H8.84281L8.77029 14.2783H7.9761L7.81681 14.916H8.61206L8.54054 15.2039L7.41736 15.2058Z" fill="#3D3D3C"/>
<path d="M8.92065 15.2057L9.41363 13.2304H9.85411C10.0539 13.2228 10.2539 13.2378 10.45 13.2751C10.5518 13.2997 10.6453 13.3486 10.7218 13.4172C10.8156 13.5084 10.8781 13.6247 10.9011 13.7507C10.9255 13.9059 10.9168 14.0643 10.8753 14.2163C10.8353 14.3813 10.7662 14.5387 10.6712 14.6818C10.5805 14.815 10.4616 14.9285 10.3223 15.0153C10.2199 15.0827 10.105 15.1309 9.98378 15.1574C9.80857 15.1923 9.6297 15.2073 9.45082 15.2021H8.92164L8.92065 15.2057ZM9.32116 14.9114H9.59765C9.71471 14.9146 9.8318 14.9051 9.94665 14.8832C10.0258 14.8631 10.1007 14.8297 10.1678 14.7848C10.2609 14.7206 10.3394 14.6391 10.3986 14.5452C10.4641 14.4423 10.5108 14.3295 10.5368 14.2117C10.567 14.1049 10.5758 13.9936 10.5626 13.8837C10.5507 13.7947 10.5115 13.711 10.45 13.6432C10.402 13.594 10.3395 13.56 10.2708 13.5457C10.1511 13.5217 10.0288 13.5119 9.90655 13.5165H9.67109L9.32116 14.9114Z" fill="#3D3D3C"/>
<path d="M12.3827 14.3198L12.1614 15.2063H11.8553L12.3483 13.231H12.846C12.9525 13.2282 13.0589 13.2365 13.1635 13.2556C13.2233 13.2667 13.2786 13.2939 13.3228 13.3339C13.3768 13.3824 13.4126 13.4464 13.4248 13.5162C13.4391 13.601 13.4359 13.6877 13.4152 13.7713C13.3913 13.8637 13.3509 13.9515 13.296 14.0309C13.2518 14.0977 13.1942 14.1555 13.1264 14.2008C13.0586 14.2462 12.9821 14.2783 12.9013 14.2952C12.793 14.3133 12.6832 14.3212 12.5733 14.3189H12.3827V14.3198ZM12.4694 14.0555H12.5514C12.6817 14.0648 12.8123 14.0445 12.9328 13.9963C12.9702 13.9732 13.0024 13.943 13.0271 13.9076C13.0519 13.8722 13.0688 13.8323 13.0768 13.7904C13.0918 13.7534 13.0959 13.7131 13.0885 13.6741C13.0811 13.635 13.0625 13.5986 13.0348 13.569C12.9315 13.515 12.8133 13.4927 12.6963 13.5052H12.6181L12.4694 14.0555Z" fill="#3D3D3C"/>
<path d="M14.5282 15.205L14.4252 14.6957H13.6252L13.2667 15.205H12.9244L14.4119 13.1514L14.8743 15.205H14.5282ZM13.8197 14.426H14.3794L14.2841 13.975C14.278 13.9425 14.2745 13.9096 14.2736 13.8766C14.2694 13.8357 14.2678 13.7947 14.2688 13.7536C14.2496 13.7961 14.2273 13.8372 14.2021 13.8766C14.1833 13.9119 14.1626 13.9463 14.1401 13.9796L13.8197 14.426Z" fill="#3D3D3C"/>
<path d="M15.3438 15.2052L15.5698 14.3041L15.1598 13.2363H15.503L15.7595 13.9069C15.7595 13.9269 15.77 13.947 15.7795 13.9761C15.7891 14.0053 15.7948 14.0354 15.8062 14.0672L15.8682 13.9761C15.887 13.9488 15.9078 13.9226 15.9302 13.8978L16.53 13.2363H16.8579L15.8987 14.2996L15.6727 15.2007H15.3438V15.2052Z" fill="#3D3D3C"/>
<path d="M18.4717 14.2271C18.4745 14.1843 18.4796 14.1417 18.4869 14.0995C18.4917 14.0403 18.4974 13.9966 18.5022 13.9574C18.4822 14.002 18.4603 14.0485 18.4355 14.095C18.4067 14.1427 18.3749 14.1886 18.3401 14.2325L17.5497 15.2858L17.2932 14.2116C17.2837 14.1669 17.2732 14.1205 17.2684 14.084C17.2619 14.0433 17.2583 14.0022 17.2579 13.961C17.2474 14.0011 17.2322 14.0448 17.2159 14.094C17.199 14.1425 17.1789 14.19 17.1559 14.2362L16.6935 15.2065H16.3903L17.3809 13.1474L17.667 14.3929C17.6739 14.4251 17.679 14.4576 17.6822 14.4904C17.6822 14.535 17.6975 14.5933 17.708 14.6626C17.7442 14.6034 17.79 14.5341 17.851 14.4457C17.8646 14.4286 17.877 14.4106 17.8882 14.392L18.7807 13.1465L18.7501 15.2056H18.4469L18.4717 14.2271Z" fill="#3D3D3C"/>
<path d="M19.0114 15.2058L19.5033 13.2305H20.6275L20.5608 13.5038H19.7646L19.6425 13.9985H20.4377L20.3663 14.2783H19.5701L19.4109 14.916H20.207L20.1345 15.2039L19.0114 15.2058Z" fill="#3D3D3C"/>
<path d="M20.5088 15.205L21.0217 13.1514L21.9971 14.3586C22.0219 14.3923 22.0486 14.4269 22.0744 14.4661C22.1001 14.5053 22.1259 14.549 22.1564 14.5982L22.4997 13.2315H22.8029L22.2899 15.2806L21.2944 14.0516L21.2172 13.9486C21.1918 13.9116 21.171 13.8718 21.1552 13.8302L20.812 15.2023H20.5088V15.205Z" fill="#3D3D3C"/>
<path d="M23.8478 13.5009L23.4225 15.2019H23.0945L23.5198 13.5009H22.9868L23.0536 13.2275H24.4466L24.3789 13.5009H23.8478Z" fill="#3D3D3C"/>
<path d="M24.1924 14.8089L24.4841 14.6904C24.4828 14.7279 24.4898 14.7653 24.5048 14.8C24.5198 14.8347 24.5423 14.866 24.5709 14.8918C24.6387 14.9408 24.7225 14.9653 24.8074 14.961C24.8979 14.9635 24.9866 14.9358 25.0581 14.8826C25.1299 14.8307 25.1794 14.7556 25.1973 14.6713C25.2278 14.5528 25.1573 14.4499 24.9819 14.3624C24.9639 14.3508 24.9447 14.3411 24.9247 14.3332C24.7786 14.2671 24.6519 14.1676 24.5557 14.0435C24.5034 13.9468 24.4924 13.8344 24.5252 13.7301C24.5631 13.5733 24.6576 13.4343 24.7921 13.3374C24.9289 13.2375 25.0967 13.184 25.2689 13.1852C25.3925 13.1797 25.5151 13.2088 25.6216 13.2691C25.6639 13.2958 25.6993 13.3314 25.7252 13.373C25.7511 13.4146 25.7669 13.4613 25.7714 13.5096L25.4853 13.6372C25.4673 13.5838 25.4343 13.5362 25.39 13.4996C25.345 13.4688 25.2907 13.4531 25.2355 13.4549C25.1545 13.4542 25.0754 13.4781 25.0095 13.5233C24.9472 13.568 24.9039 13.6327 24.8875 13.7055C24.857 13.8239 24.9428 13.936 25.143 14.039C25.1548 14.0464 25.1672 14.0528 25.1802 14.0581C25.3172 14.1153 25.4358 14.2065 25.5235 14.3223C25.5762 14.4225 25.5871 14.5382 25.554 14.6458C25.5138 14.8224 25.4107 14.9802 25.2622 15.0922C25.1104 15.203 24.924 15.2617 24.733 15.2589C24.5905 15.2679 24.4498 15.2257 24.3382 15.1405C24.2871 15.1011 24.247 15.0502 24.2215 14.9923C24.196 14.9344 24.1861 14.8714 24.1924 14.8089Z" fill="#3D3D3C"/>
<path d="M26.6075 15.2058L27.1005 13.2305H27.4285L26.9365 15.2058H26.6075Z" fill="#3D3D3C"/>
<path d="M27.4087 15.205L27.9217 13.1514L28.8961 14.3586C28.9219 14.3923 28.9466 14.4269 28.9733 14.4661C29 14.5053 29.0248 14.549 29.0553 14.5982L29.3986 13.2315H29.7018L29.1888 15.2806L28.1944 14.0516L28.1171 13.9486C28.0913 13.9118 28.0705 13.872 28.0551 13.8302L27.7119 15.2023H27.4087V15.205Z" fill="#3D3D3C"/>
<path d="M30.7482 13.5009L30.3229 15.2019H29.994L30.4202 13.5009H29.8862L29.953 13.2275H31.3479L31.2812 13.5009H30.7482Z" fill="#3D3D3C"/>
<path d="M31.1023 15.2058L31.5943 13.2305H32.7232L32.6565 13.5038H31.8651L31.7411 13.9985H32.5373L32.4648 14.2783H31.6696L31.5104 14.916H32.3056L32.2341 15.2039L31.1023 15.2058Z" fill="#3D3D3C"/>
<path d="M33.128 14.3192L32.9087 15.2012H32.6007L33.0927 13.2259H33.5504C33.6515 13.2238 33.7525 13.2321 33.8517 13.2505C33.9154 13.2621 33.9742 13.2909 34.0214 13.3334C34.0721 13.3833 34.1054 13.447 34.1168 13.5156C34.1305 13.5987 34.127 13.6835 34.1063 13.7653C34.0777 13.9072 34.0041 14.0373 33.8956 14.1379C33.789 14.2283 33.6557 14.285 33.5141 14.3001L33.9813 15.1966H33.6114L33.1661 14.3147L33.128 14.3192ZM33.2109 14.0696H33.271C33.3945 14.0793 33.5185 14.059 33.6314 14.0104C33.6681 13.9858 33.6992 13.9545 33.7228 13.9181C33.7464 13.8818 33.762 13.8413 33.7688 13.799C33.7945 13.6915 33.784 13.6168 33.7334 13.5685C33.6366 13.5122 33.5229 13.4882 33.4102 13.5001H33.3482L33.2109 14.0696Z" fill="#3D3D3C"/>
<path d="M34.1805 15.2058L34.6725 13.2305H35.7967L35.7299 13.5038H34.9338L34.8117 13.994H35.6069L35.5355 14.2728H34.7393L34.5085 15.1994H34.1805V15.2058Z" fill="#3D3D3C"/>
<path d="M36.886 15.205L36.7839 14.6957H35.984L35.6235 15.205H35.2803L36.7677 13.1514L37.2301 15.205H36.886ZM36.1737 14.426H36.7334L36.638 13.975C36.6323 13.9425 36.6291 13.9096 36.6285 13.8766C36.6423 13.869 36.6531 13.8572 36.6592 13.8432C36.6653 13.8291 36.6664 13.8134 36.6622 13.7987C36.6581 13.784 36.6491 13.771 36.6364 13.7617C36.6238 13.7524 36.6082 13.7474 36.5923 13.7474C36.5763 13.7474 36.5608 13.7524 36.5482 13.7617C36.5355 13.771 36.5264 13.784 36.5223 13.7987C36.5182 13.8134 36.5192 13.8291 36.5253 13.8432C36.5314 13.8572 36.5422 13.869 36.556 13.8766C36.5383 13.9124 36.5175 13.9469 36.4941 13.9796L36.1737 14.426Z" fill="#3D3D3C"/>
<path d="M39.3664 13.7115C39.2984 13.6358 39.2124 13.5768 39.1156 13.5393C39.0165 13.4992 38.9096 13.4794 38.802 13.481C38.5857 13.4797 38.3762 13.5528 38.2118 13.6869C38.0386 13.826 37.918 14.0155 37.8685 14.2263C37.8398 14.3143 37.8315 14.4072 37.844 14.4986C37.8565 14.59 37.8896 14.6777 37.941 14.7557C37.992 14.8248 38.0609 14.8802 38.1409 14.9164C38.2209 14.9527 38.3094 14.9685 38.3977 14.9625C38.5188 14.9624 38.6389 14.9405 38.7515 14.8978C38.8795 14.8539 39.0003 14.7925 39.1099 14.7156L39.0146 15.08C38.9151 15.1417 38.806 15.1882 38.6914 15.2176C38.578 15.2475 38.4609 15.2625 38.3433 15.2622C38.2025 15.2646 38.0627 15.2395 37.9324 15.1884C37.8166 15.1406 37.716 15.0646 37.6406 14.968C37.5634 14.8705 37.5138 14.7556 37.4966 14.6345C37.475 14.497 37.4839 14.3567 37.5224 14.2227C37.5584 14.0787 37.619 13.9414 37.7017 13.8163C37.785 13.6888 37.8908 13.576 38.0144 13.4828C38.1333 13.3874 38.2689 13.3128 38.4149 13.2624C38.5546 13.2139 38.702 13.189 38.8506 13.1886C38.9624 13.1871 39.0736 13.2037 39.1795 13.2377C39.2786 13.2726 39.3703 13.3242 39.4503 13.3899L39.3664 13.7115Z" fill="#3D3D3C"/>
<path d="M39.3972 15.2058L39.8892 13.2305H41.0134L40.9466 13.5038H40.1514L40.0275 13.9985H40.8227L40.7511 14.2783H39.956L39.7967 14.916H40.5919L40.5204 15.2039L39.3972 15.2058Z" fill="#3D3D3C"/>
<path d="M33.4263 11.5094H31.1742L34.3035 0.710938H36.5518L33.4263 11.5094Z" fill="#70706E"/>
<path d="M32.2566 1.04761C32.1727 0.942527 32.0627 0.859195 31.9364 0.80524C31.8102 0.751284 31.6717 0.728422 31.5339 0.738744H19.1634L18.5532 2.85707H29.8043L29.1483 5.11664H20.1455H17.8934L16.0265 11.5627H18.2777L19.5296 7.23953H29.6517C29.9773 7.23666 30.2922 7.12769 30.5442 6.93066C30.8108 6.74062 31.0039 6.47147 31.0934 6.16533L32.3453 1.8421C32.3973 1.7124 32.4164 1.57277 32.401 1.43466C32.3856 1.29655 32.3361 1.16391 32.2566 1.04761Z" fill="#70706E"/>
<path d="M14.7126 10.8327C14.653 11.0414 14.5235 11.2256 14.3439 11.3573C14.1643 11.4889 13.9444 11.5607 13.7181 11.5616H2.1085C1.97297 11.5706 1.83727 11.5471 1.7137 11.4931C1.59013 11.4392 1.48267 11.3565 1.40107 11.2527C1.32349 11.1413 1.27442 11.0139 1.25785 10.8809C1.24129 10.748 1.25767 10.6132 1.30569 10.4874L4.13756 0.738525H6.38869L3.86101 9.4451H12.8686L15.3982 0.738525H17.6493L14.7126 10.8327Z" fill="#70706E"/>
<path d="M40.4448 0.730469L43.2919 6.14247L37.3059 11.5545L40.4448 0.730469Z" fill="#098041"/>
<path d="M38.4443 0.730469L41.2913 6.14247L35.2997 11.5545L38.4443 0.730469Z" fill="#E97626"/>
</svg>
