<svg width="48" height="16" viewBox="0 0 48 16" fill="none" xmlns="http://www.w3.org/2000/svg">
<path d="M20.3865 15.0459H16.5497L18.9476 0.961914H22.7845L20.3865 15.0459Z" fill="#005CA8"/>
<path d="M13.3201 0.963483L9.66254 10.6495L9.22968 8.56397L7.93866 2.23175C7.86173 1.83842 7.6304 1.48803 7.29205 1.25228C6.9537 1.01652 6.53391 0.913219 6.11847 0.963483H0.0714644L0 1.20037C1.4161 1.53883 2.76973 2.08205 4.01411 2.81122L7.35129 15.0456H11.3492L17.4515 0.962565L13.3201 0.963483Z" fill="#005CA8"/>
<path d="M43.4987 15.0461H47.0266L43.9555 0.963094H40.87C40.4964 0.935295 40.1233 1.02196 39.8047 1.21053C39.4862 1.3991 39.2388 1.67977 39.0984 2.01178L33.3776 15.0452H37.3822L38.1812 12.9497H43.0592L43.4987 15.0461ZM39.2768 10.0642L41.2934 4.7934L42.428 10.0642H39.2768Z" fill="#005CA8"/>
<path d="M33.6778 4.34894L34.225 1.32314C33.1158 0.945058 31.9507 0.738073 30.7734 0.709961C28.8665 0.709961 24.347 1.50445 24.347 5.3712C24.347 9.01109 29.654 9.05666 29.654 10.9654C29.654 12.8742 24.8934 12.5353 23.323 11.3299L22.7509 14.4914C24.1217 15.0399 25.5966 15.3108 27.0825 15.2868C29.7008 15.2868 33.652 13.9903 33.652 10.4652C33.652 6.80256 28.2963 6.46272 28.2963 4.87101C28.2963 3.2793 32.033 3.4843 33.6778 4.34894Z" fill="#005CA8"/>
<path d="M9.22968 8.56397L7.93866 2.23175C7.86173 1.83842 7.6304 1.48803 7.29205 1.25228C6.9537 1.01652 6.53391 0.913219 6.11847 0.963483H0.0714644L0 1.20037C2.0826 1.70797 4.02545 2.64044 5.6951 3.9337C7.28115 5.1512 8.50085 6.74896 9.22968 8.56397Z" fill="#F6A723"/>
</svg>
