<svg width="90" height="84" viewBox="0 0 90 84" fill="none" xmlns="http://www.w3.org/2000/svg">
<path d="M82.9993 45.0898C80.1893 42.0932 40.6957 12.6962 36.754 9.74402C35.6113 9.12604 28.5567 12.6667 28.0976 13.1363L27.7426 14.9115C29.1627 19.5269 29.2219 22.0122 26.3224 24.4974C22.129 28.0917 17.25 28.2646 16.1455 27.4621C13.1399 30.5545 9.42055 31.7006 8.21569 33.0182C7.01083 34.3358 8.609 37.7012 9.07864 38.1603C10.2932 39.5556 51.9791 74.0274 57.0488 78.3075C58.3663 79.5124 59.7856 78.5569 60.3306 77.9286C62.4468 75.3809 64.668 73.1715 67.2705 70.0663C66.9712 69.7659 67.0393 67.6423 66.7963 67.1015C64.3111 64.9713 63.6236 60.2667 66.7963 56.8055C69.9917 53.3197 76.5843 56.4462 77.5665 57.285C79.7527 54.57 81.7946 52.1221 82.9995 50.8045C84.2043 49.4869 83.3896 45.506 82.9993 45.0898Z" fill="#85070F"/>
<path d="M82.8606 44.9452C80.0505 41.9486 40.2216 9.73256 36.2798 6.78033C35.1372 6.16235 33.9333 6.94713 33.4742 7.41677L28.0976 13.1374C29.8728 17.3978 29.932 21.3031 27.0325 23.7884C22.8391 27.3827 16.7759 25.3009 15.6714 24.4984C12.6658 27.5908 9.90655 30.8547 8.70169 32.1723C7.49683 33.4899 8.13488 34.7375 8.60451 35.1966C9.81909 36.5919 51.505 71.0637 56.5746 75.3438C57.8922 76.5487 59.3115 75.5932 59.8564 74.9649C61.9727 72.4172 64.1939 70.2078 66.7964 67.1026C65.2009 65.5013 63.9561 60.0019 67.8615 55.7415C71.0568 52.2557 76.1102 53.4825 77.0924 54.3213C79.2786 51.6063 81.3205 49.1584 82.5253 47.8408C83.7302 46.5232 83.2509 45.3614 82.8606 44.9452Z" fill="url(#paint0_linear_2736_103642)"/>
<line x1="49.0867" y1="17.0556" x2="22.1041" y2="46.1684" stroke="white" stroke-width="1.08256" stroke-dasharray="2.17 2.17"/>
<path d="M39.2839 46.8369L57.8581 40.0449L60.5042 42.2591L41.9299 49.0511L39.2839 46.8369ZM47.1243 40.7466C46.6114 40.3174 46.2412 39.8002 46.0137 39.195C45.7977 38.5889 45.7395 37.9658 45.839 37.3258C45.9385 36.6858 46.2081 36.1031 46.6478 35.5776C47.0979 35.0397 47.6292 34.6653 48.2417 34.4546C48.8604 34.249 49.4845 34.2023 50.114 34.3143C50.7497 34.4315 51.321 34.7021 51.8277 35.1261C52.3406 35.5554 52.7051 36.0731 52.9211 36.6792C53.137 37.2854 53.1922 37.9059 53.0864 38.5406C52.9869 39.1806 52.7173 39.7633 52.2776 40.2888C51.8327 40.8205 51.3009 41.1891 50.6822 41.3946C50.0698 41.6054 49.4488 41.6548 48.8193 41.5428C48.1898 41.4308 47.6248 41.1654 47.1243 40.7466ZM48.4356 39.1796C48.7734 39.4623 49.1637 39.5869 49.6066 39.5533C50.0547 39.5135 50.4227 39.3216 50.7107 38.9775C51.0038 38.6272 51.1278 38.2311 51.0828 37.7893C51.0377 37.3474 50.8463 36.9852 50.5085 36.7025C50.1645 36.4146 49.7679 36.2848 49.3188 36.3131C48.8759 36.3467 48.5079 36.5386 48.2147 36.8889C47.9268 37.2329 47.8028 37.629 47.8426 38.0771C47.8939 38.5242 48.0916 38.8917 48.4356 39.1796ZM47.9525 53.9793C47.4333 53.5448 47.0683 53.0214 46.8576 52.4089C46.6521 51.7903 46.6022 51.1635 46.7079 50.5288C46.8189 49.8878 47.0812 49.3202 47.4947 48.826C47.9449 48.288 48.4762 47.9137 49.0886 47.7029C49.7073 47.4974 50.3314 47.4507 50.9609 47.5627C51.6019 47.6736 52.1695 47.9359 52.6637 48.3494C53.2017 48.7996 53.5734 49.334 53.7789 49.9527C53.9844 50.5714 54.0286 51.1986 53.9113 51.8344C53.8056 52.4692 53.5433 53.0367 53.1246 53.5372C52.6953 54.0501 52.1745 54.412 51.5621 54.6227C50.9559 54.8387 50.3297 54.8943 49.6835 54.7896C49.0487 54.6839 48.4717 54.4138 47.9525 53.9793ZM49.2638 52.4123C49.6141 52.7055 50.0133 52.8321 50.4614 52.7923C50.9095 52.7525 51.2749 52.5637 51.5576 52.2259C51.8507 51.8756 51.9774 51.4764 51.9376 51.0283C51.8978 50.5802 51.7027 50.2095 51.3524 49.9164C51.0146 49.6337 50.6217 49.5123 50.1736 49.5521C49.7254 49.5919 49.3548 49.787 49.0617 50.1373C48.779 50.4751 48.6576 50.868 48.6974 51.3161C48.7372 51.7643 48.926 52.1296 49.2638 52.4123Z" fill="white"/>
<defs>
<linearGradient id="paint0_linear_2736_103642" x1="44.4107" y1="13.0267" x2="18.2146" y2="44.3969" gradientUnits="userSpaceOnUse">
<stop stop-color="#A81839"/>
<stop offset="1" stop-color="#EF9167"/>
</linearGradient>
</defs>
</svg>
