<svg width="12" height="12" viewBox="0 0 12 12" fill="none" xmlns="http://www.w3.org/2000/svg">
<path d="M6 1.125C5.03582 1.125 4.09329 1.41091 3.2916 1.94659C2.48991 2.48226 1.86507 3.24363 1.49609 4.13442C1.12711 5.02521 1.03057 6.00541 1.21867 6.95107C1.40678 7.89672 1.87108 8.76536 2.55286 9.44715C3.23464 10.1289 4.10328 10.5932 5.04894 10.7813C5.99459 10.9694 6.97479 10.8729 7.86558 10.5039C8.75637 10.1349 9.51775 9.51009 10.0534 8.7084C10.5891 7.90671 10.875 6.96418 10.875 6C10.8735 4.70752 10.3595 3.46839 9.44553 2.55447C8.53161 1.64055 7.29248 1.12646 6 1.125ZM5.90628 3.37502C6.01753 3.37502 6.12628 3.40801 6.21879 3.46982C6.31129 3.53162 6.38339 3.61947 6.42596 3.72226C6.46853 3.82504 6.47967 3.93814 6.45797 4.04726C6.43626 4.15637 6.38269 4.2566 6.30402 4.33527C6.22536 4.41393 6.12513 4.4675 6.01602 4.48921C5.9069 4.51091 5.7938 4.49977 5.69102 4.4572C5.58823 4.41463 5.50038 4.34253 5.43858 4.25003C5.37677 4.15752 5.34378 4.04877 5.34378 3.93752C5.34378 3.78833 5.40304 3.64526 5.50853 3.53977C5.61402 3.43428 5.75709 3.37502 5.90628 3.37502ZM6.375 8.625H6C5.90055 8.625 5.80517 8.58548 5.73485 8.51516C5.66452 8.44483 5.62501 8.34945 5.625 8.25V6C5.52555 6 5.43017 5.96049 5.35984 5.89017C5.28951 5.81984 5.25 5.72446 5.25 5.625C5.25 5.52554 5.28951 5.43016 5.35984 5.35983C5.43017 5.28951 5.52555 5.25 5.625 5.25H6C6.09946 5.25 6.19484 5.28952 6.26516 5.35984C6.33549 5.43017 6.375 5.52555 6.375 5.625V7.875C6.47446 7.875 6.56984 7.91451 6.64017 7.98483C6.7105 8.05516 6.75 8.15054 6.75 8.25C6.75 8.34946 6.7105 8.44484 6.64017 8.51516C6.56984 8.58549 6.47446 8.625 6.375 8.625Z" fill="#6A737D"/>
</svg>
