<svg width="52" height="52" viewBox="0 0 52 52" fill="none" xmlns="http://www.w3.org/2000/svg">
<path fill-rule="evenodd" clip-rule="evenodd" d="M26 0C40.3584 0 52 11.6416 52 26C52 40.3584 40.3584 52 26 52C11.6416 52 0 40.3584 0 26C0 11.6416 11.6416 0 26 0ZM22.9447 15.9326C22.9447 11.9421 29.0257 11.9378 29.0257 15.9411V26.8379L35.8939 30.473C35.9277 30.4899 35.9616 30.5111 35.9912 30.5365L36.0505 30.5788C39.2412 32.6693 36.2747 37.6924 32.8639 35.7204L32.8512 35.7119L24.54 31.2601C23.5667 30.7396 22.9362 29.707 22.9362 28.5983H22.9404L22.9447 15.9326Z" fill="#FF7617"/>
</svg>
