<svg width="24" height="24" viewBox="0 0 24 24" fill="none" xmlns="http://www.w3.org/2000/svg">
<path d="M14.8826 19.0027L14.8826 19.0027C14.9015 19.0484 14.9065 19.0987 14.8969 19.1472C14.8872 19.1956 14.8634 19.2402 14.8285 19.2751C14.8285 19.2751 14.8285 19.2751 14.8285 19.2751L12.1768 21.9268C12.1299 21.9737 12.0663 22 12 22C11.9337 22 11.8701 21.9737 11.8232 21.9268L9.17162 19.2752C9.1716 19.2752 9.17159 19.2751 9.17157 19.2751C9.13664 19.2402 9.11285 19.1956 9.10321 19.1472C9.09357 19.0987 9.09852 19.0484 9.11744 19.0027C9.13637 18.957 9.16841 18.918 9.20953 18.8905C9.25063 18.863 9.29895 18.8484 9.34838 18.8484C9.3484 18.8484 9.34841 18.8484 9.34842 18.8484H11.25H11.75V18.3484V15C11.75 14.9337 11.7764 14.8701 11.8232 14.8232C11.8701 14.7763 11.9337 14.75 12 14.75C12.0663 14.75 12.1299 14.7763 12.1768 14.8232C12.2237 14.8701 12.25 14.9337 12.25 15V18.3484V18.8484H12.75H14.6517C14.7011 18.8484 14.7494 18.863 14.7905 18.8905C14.8316 18.918 14.8637 18.957 14.8826 19.0027ZM11.75 5.65164V5.15164H11.25H9.34842C9.34841 5.15164 9.3484 5.15164 9.34838 5.15164C9.29895 5.15163 9.25063 5.13697 9.20953 5.1095C9.16841 5.08203 9.13637 5.04298 9.11744 4.9973L8.65551 5.18865L9.11744 4.9973C9.09852 4.95161 9.09357 4.90135 9.10321 4.85285C9.11285 4.80437 9.13664 4.75984 9.17157 4.72488C9.17159 4.72486 9.1716 4.72484 9.17162 4.72483L11.8232 2.07324C11.8701 2.02634 11.9337 2 12 2C12.0663 2 12.1299 2.02634 12.1768 2.07323L14.8284 4.72483C14.8284 4.72484 14.8285 4.72486 14.8285 4.72488C14.8634 4.75984 14.8872 4.80437 14.8968 4.85285C14.9065 4.90134 14.9015 4.95161 14.8826 4.99729C14.8637 5.04298 14.8316 5.08203 14.7905 5.1095C14.7494 5.13697 14.7011 5.15163 14.6517 5.15164C14.6517 5.15164 14.6516 5.15164 14.6516 5.15164H12.75H12.25V5.65164V9C12.25 9.06631 12.2237 9.12989 12.1768 9.17678L12.5068 9.50676L12.1768 9.17678C12.1299 9.22366 12.0663 9.25 12 9.25C11.9337 9.25 11.8701 9.22366 11.8232 9.17678C11.7764 9.12989 11.75 9.0663 11.75 9V5.65164ZM5.15167 11.25V11.75H5.65167H9.00002C9.06633 11.75 9.12992 11.7763 9.1768 11.8232L9.51498 11.485L9.1768 11.8232C9.22369 11.8701 9.25002 11.9337 9.25002 12C9.25002 12.0663 9.22369 12.1299 9.1768 12.1768L9.53035 12.5303L9.1768 12.1768C9.12992 12.2237 9.06633 12.25 9.00002 12.25H5.65167H5.15167V12.75V14.6516C5.15167 14.7011 5.13701 14.7494 5.10953 14.7905L5.52527 15.0683L5.10953 14.7905C5.08206 14.8317 5.04301 14.8637 4.99732 14.8826C4.95163 14.9016 4.90136 14.9065 4.85287 14.8969C4.80437 14.8872 4.75983 14.8634 4.72486 14.8285C4.72486 14.8284 4.72485 14.8284 4.72484 14.8284L2.07322 12.1768C2.02634 12.1299 2 12.0663 2 12C2 11.9337 2.02634 11.8701 2.07322 11.8232L4.72484 9.17157C4.72485 9.17156 4.72485 9.17155 4.72486 9.17154C4.75983 9.13659 4.80437 9.11279 4.85286 9.10315C4.90136 9.0935 4.95163 9.09845 4.99732 9.11738C5.043 9.1363 5.08205 9.16835 5.10953 9.20947C5.137 9.25058 5.15166 9.29891 5.15167 9.34836C5.15167 9.34836 5.15167 9.34837 5.15167 9.34837V11.25ZM18.3484 11.75H18.8484V11.25V9.34837C18.8484 9.29892 18.863 9.25058 18.8905 9.20946C18.918 9.16834 18.957 9.13629 19.0027 9.11737C19.0484 9.09845 19.0987 9.09349 19.1472 9.10314C19.1957 9.11279 19.2402 9.1366 19.2752 9.17156L21.9268 11.8232C21.9737 11.8701 22 11.9337 22 12C22 12.0663 21.9737 12.1299 21.9268 12.1768L19.2752 14.8285C19.2402 14.8634 19.1957 14.8872 19.1472 14.8969C19.0987 14.9065 19.0484 14.9016 19.0027 14.8827C18.957 14.8637 18.918 14.8317 18.8905 14.7906C18.863 14.7494 18.8484 14.7011 18.8484 14.6517V12.75V12.25H18.3484H15C14.9337 12.25 14.8701 12.2237 14.8232 12.1768C14.7764 12.1299 14.75 12.0663 14.75 12C14.75 11.9337 14.7764 11.8701 14.8232 11.8232L14.4697 11.4697L14.8232 11.8232C14.8701 11.7763 14.9337 11.75 15 11.75H18.3484Z" stroke="white"/>
</svg>
