<svg width="40" height="40" viewBox="0 0 40 40" fill="none" xmlns="http://www.w3.org/2000/svg">
<rect width="40" height="40" rx="20" fill="#00529E"/>
<path d="M21.375 21.2656C24.4531 21.2812 27.2656 18.7578 27.2656 15.6797C27.2656 12.3203 24.4531 10 21.375 10H18.7266C15.6094 10 13.0469 12.3203 13.0469 15.6797C13.0469 18.75 15.6094 21.2734 18.7266 21.2656H21.375Z" fill="white"/>
<path d="M19.9141 18.6797V12.5781C21.1406 13.0469 22.0078 14.2344 22.0156 15.625C22.0078 17.0156 21.1328 18.2031 19.9141 18.6797ZM15.4766 15.625C15.4766 14.2344 16.3516 13.0469 17.5703 12.5781V18.6797C16.3438 18.2031 15.4766 17.0156 15.4766 15.625ZM18.7422 10.4688C15.8984 10.4688 13.5859 12.7734 13.5859 15.625C13.5859 18.4688 15.8906 20.7812 18.7422 20.7812C21.5859 20.7812 23.8984 18.4766 23.8984 15.625C23.8984 12.7734 21.5859 10.4688 18.7422 10.4688Z" fill="#00529E"/>
<path d="M7.28906 25.1094C7.28906 25.5703 7.61719 25.6172 7.90625 25.6172C9.19531 25.6172 9.61719 24.6484 9.61719 23.7578C9.61719 22.6406 8.90625 21.8438 7.75781 21.8438C7.51562 21.8438 7.39844 21.8594 7.29687 21.8672V25.1094H7.28906ZM6.70312 22.3203C6.70312 21.7813 6.42188 21.8203 6.15625 21.8125V21.6563C6.39062 21.6641 6.625 21.6641 6.85938 21.6641C7.10938 21.6641 7.44531 21.6563 7.89062 21.6563C9.42969 21.6563 10.2734 22.6875 10.2734 23.7422C10.2734 24.3359 9.92969 25.8125 7.82031 25.8125C7.51562 25.8125 7.23437 25.7969 6.95312 25.7969C6.6875 25.7969 6.42188 25.8047 6.15625 25.8125V25.6562C6.51562 25.6172 6.6875 25.6094 6.70312 25.2031V22.3203ZM11.1172 22.1719C10.9609 22.1719 10.8281 22.0312 10.8281 21.875C10.8281 21.7266 10.9688 21.5859 11.1172 21.5859C11.2734 21.5859 11.4062 21.7109 11.4062 21.875C11.4141 22.0391 11.2812 22.1719 11.1172 22.1719ZM10.4844 25.6562H10.6016C10.7656 25.6562 10.8828 25.6562 10.8828 25.4609V23.8516C10.8828 23.5859 10.7969 23.5547 10.5703 23.4375V23.3437C10.8516 23.2578 11.1797 23.1484 11.2031 23.1328C11.2422 23.1094 11.2812 23.1016 11.3125 23.1016C11.3438 23.1016 11.3516 23.1406 11.3516 23.1875V25.4766C11.3516 25.6719 11.4844 25.6719 11.6484 25.6719H11.75V25.8281C11.5469 25.8281 11.3359 25.8125 11.125 25.8125C10.9141 25.8125 10.6953 25.8203 10.4766 25.8281V25.6562H10.4844ZM12.3203 23.8828C12.3203 23.6641 12.2578 23.6016 11.9766 23.4922V23.3828C12.2344 23.2969 12.4766 23.2188 12.7656 23.0938C12.7812 23.0938 12.8047 23.1094 12.8047 23.1562V23.5469C13.1484 23.3047 13.4375 23.1016 13.8359 23.1016C14.3438 23.1016 14.5234 23.4687 14.5234 23.9375V25.4766C14.5234 25.6719 14.6562 25.6719 14.8203 25.6719H14.9297V25.8281C14.7188 25.8281 14.5156 25.8125 14.2969 25.8125C14.0859 25.8125 13.8672 25.8203 13.6562 25.8281V25.6719H13.7656C13.9297 25.6719 14.0547 25.6719 14.0547 25.4766V23.9375C14.0547 23.6016 13.8437 23.4297 13.5078 23.4297C13.3203 23.4297 13.0156 23.5859 12.8125 23.7188V25.4766C12.8125 25.6719 12.9453 25.6719 13.1094 25.6719H13.2187V25.8281C13.0078 25.8281 12.8047 25.8125 12.5859 25.8125C12.375 25.8125 12.1562 25.8203 11.9453 25.8281V25.6719H12.0547C12.2188 25.6719 12.3359 25.6719 12.3359 25.4766V23.8828H12.3203ZM16.4219 23.9766C16.5703 23.9766 16.5859 23.8984 16.5859 23.8281C16.5859 23.5234 16.3984 23.2812 16.0703 23.2812C15.7031 23.2812 15.4609 23.5469 15.3828 23.9766H16.4219ZM15.3672 24.1719C15.3516 24.2266 15.3516 24.3125 15.3672 24.5156C15.4062 25.0781 15.7656 25.5469 16.2422 25.5469C16.5703 25.5469 16.8281 25.3672 17.0469 25.1484L17.1328 25.2344C16.8594 25.5937 16.5234 25.9062 16.0312 25.9062C15.0859 25.9062 14.8906 24.9922 14.8906 24.6094C14.8906 23.4453 15.6797 23.0938 16.0938 23.0938C16.5781 23.0938 17.0937 23.3984 17.1016 24.0313C17.1016 24.0703 17.1016 24.1016 17.0938 24.1406L17.0391 24.1797H15.3672V24.1719ZM17.2422 25.6562H17.4062C17.5703 25.6562 17.6953 25.6562 17.6953 25.4609V23.7891C17.6953 23.6016 17.4766 23.5703 17.3828 23.5234V23.4375C17.8203 23.25 18.0547 23.0938 18.1094 23.0938C18.1484 23.0938 18.1641 23.1094 18.1641 23.1719V23.7109H18.1797C18.3281 23.4766 18.5781 23.1016 18.9453 23.1016C19.0938 23.1016 19.2812 23.2031 19.2812 23.4141C19.2812 23.5703 19.1641 23.7188 19 23.7188C18.8125 23.7188 18.8125 23.5703 18.6094 23.5703C18.5078 23.5703 18.1719 23.7109 18.1719 24.0625V25.4609C18.1719 25.6562 18.2891 25.6562 18.4609 25.6562H18.7969V25.8125C18.4688 25.8047 18.2187 25.7969 17.9609 25.7969C17.7187 25.7969 17.4688 25.8047 17.25 25.8125V25.6562H17.2422ZM19.5312 24.9844C19.6094 25.375 19.8438 25.7109 20.2812 25.7109C20.6328 25.7109 20.7656 25.5 20.7656 25.2891C20.7656 24.5859 19.4688 24.8125 19.4688 23.8516C19.4688 23.5156 19.7344 23.0859 20.3906 23.0859C20.5781 23.0859 20.8359 23.1406 21.0703 23.2578L21.1094 23.8672H20.9766C20.9141 23.4922 20.7109 23.2812 20.3281 23.2812C20.0938 23.2812 19.8672 23.4141 19.8672 23.6719C19.8672 24.3672 21.25 24.1563 21.25 25.0859C21.25 25.4766 20.9375 25.8984 20.2266 25.8984C19.9922 25.8984 19.7109 25.8125 19.5 25.6953L19.4375 25.0078L19.5312 24.9844ZM26.6172 22.7344H26.4688C26.3516 22.0391 25.8594 21.7578 25.1953 21.7578C24.5078 21.7578 23.5156 22.2188 23.5156 23.6484C23.5156 24.8516 24.375 25.7109 25.2891 25.7109C25.875 25.7109 26.3672 25.3047 26.4844 24.6797L26.625 24.7187L26.4844 25.5859C26.2344 25.7422 25.5625 25.8984 25.1641 25.8984C23.7734 25.8984 22.8906 25 22.8906 23.6562C22.8906 22.4375 23.9766 21.5625 25.1484 21.5625C25.6328 21.5625 26.0937 21.7188 26.5547 21.8828L26.6172 22.7344ZM26.8281 25.6562H26.9375C27.1016 25.6562 27.2266 25.6562 27.2266 25.4609V22.1484C27.2266 21.7578 27.1406 21.75 26.9141 21.6875V21.5937C27.1484 21.5156 27.3984 21.4063 27.5234 21.3359C27.5859 21.3047 27.6328 21.2734 27.6562 21.2734C27.6953 21.2734 27.7031 21.3125 27.7031 21.3594V25.4688C27.7031 25.6641 27.8359 25.6641 28 25.6641H28.1016V25.8203C27.8984 25.8203 27.6953 25.8047 27.4766 25.8047C27.2656 25.8047 27.0469 25.8125 26.8281 25.8203V25.6562ZM30.6562 25.4844C30.6562 25.5938 30.7188 25.6016 30.8203 25.6016C30.8906 25.6016 30.9766 25.5938 31.0547 25.5938V25.7188C30.7969 25.7422 30.3125 25.8672 30.1953 25.9062L30.1641 25.8906V25.4063C29.8047 25.6953 29.5312 25.9062 29.1094 25.9062C28.7891 25.9062 28.4531 25.6953 28.4531 25.1953V23.6719C28.4531 23.5156 28.4297 23.3672 28.0938 23.3359V23.2188C28.3047 23.2109 28.7812 23.1797 28.8594 23.1797C28.9219 23.1797 28.9219 23.2187 28.9219 23.3516V24.8906C28.9219 25.0703 28.9219 25.5859 29.4375 25.5859C29.6406 25.5859 29.9062 25.4297 30.1562 25.2187V23.6172C30.1562 23.5 29.8672 23.4375 29.6562 23.375V23.2656C30.1875 23.2266 30.5234 23.1797 30.5859 23.1797C30.6328 23.1797 30.6328 23.2188 30.6328 23.2891V25.4844H30.6562ZM31.8359 25.1406C31.8359 25.3672 32.0469 25.75 32.4453 25.75C33.0859 25.75 33.3516 25.125 33.3516 24.5937C33.3516 23.9531 32.8594 23.4141 32.3984 23.4141C32.1797 23.4141 31.9922 23.5547 31.8359 23.6953V25.1406ZM31.8359 23.5234C32.0703 23.3203 32.3984 23.0938 32.7266 23.0938C33.4141 23.0938 33.8359 23.6953 33.8359 24.3438C33.8359 25.125 33.2656 25.9062 32.4141 25.9062C31.9766 25.9062 31.7422 25.7656 31.5859 25.6953L31.4062 25.8359L31.2812 25.7734C31.3359 25.4219 31.3672 25.0781 31.3672 24.7109V22.1484C31.3672 21.7578 31.2813 21.75 31.0547 21.6875V21.5937C31.2969 21.5156 31.5391 21.4063 31.6641 21.3359C31.7266 21.2969 31.7734 21.2734 31.7969 21.2734C31.8359 21.2734 31.8438 21.3125 31.8438 21.3594V23.5234H31.8359ZM6.15625 29.2734H6.20312C6.32031 29.2734 6.44531 29.2578 6.44531 29.0859V27.3906C6.44531 27.2188 6.32031 27.2031 6.20312 27.2031H6.15625V27.1094C6.28125 27.1094 6.47656 27.125 6.63281 27.125C6.79687 27.125 6.99219 27.1094 7.14062 27.1094V27.2031H7.09375C6.97656 27.2031 6.85156 27.2188 6.85156 27.3906V29.0859C6.85156 29.2578 6.97656 29.2734 7.09375 29.2734H7.14062V29.3672C6.98437 29.3672 6.78906 29.3516 6.63281 29.3516C6.47656 29.3516 6.28125 29.3672 6.15625 29.3672V29.2734Z" fill="white"/>
<path d="M7.125 29.3594V29.2891H7.09375C6.97656 29.2891 6.84375 29.2656 6.83594 29.0938V27.3984C6.83594 27.2188 6.97656 27.2031 7.09375 27.2031H7.125V27.1328C6.97656 27.1328 6.78906 27.1484 6.63281 27.1484C6.47656 27.1484 6.28906 27.1328 6.16406 27.1328V27.2031H6.19531C6.3125 27.2031 6.44531 27.2266 6.44531 27.3984V29.0938C6.44531 29.2734 6.30469 29.2891 6.19531 29.2891H6.16406V29.3594C6.28906 29.3594 6.46875 29.3438 6.625 29.3438C6.78906 29.3438 6.97656 29.3594 7.125 29.3594ZM7.14063 29.3828C6.98438 29.3828 6.78906 29.3672 6.63281 29.3672C6.47656 29.3672 6.28125 29.3828 6.15625 29.3828H6.14062V29.2578H6.20313C6.32031 29.2578 6.42969 29.2422 6.42969 29.0859V27.3906C6.42969 27.2344 6.32031 27.2188 6.20313 27.2188H6.14062V27.0938H6.15625C6.28125 27.0938 6.47656 27.1094 6.63281 27.1094C6.79688 27.1094 6.98438 27.0938 7.14063 27.0938H7.15625V27.2188H7.09375C6.97656 27.2188 6.86719 27.2344 6.86719 27.3906V29.0859C6.86719 29.2422 6.97656 29.2578 7.09375 29.2578H7.15625V29.3828H7.14063ZM9.36719 28.7344L9.375 27.5156C9.375 27.25 9.1875 27.2109 9.09375 27.2109H9.02344V27.1172C9.17969 27.1172 9.32813 27.1328 9.47656 27.1328C9.60938 27.1328 9.74219 27.1172 9.875 27.1172V27.2109H9.82813C9.69531 27.2109 9.53906 27.2344 9.53906 27.625V29.1016C9.53906 29.2188 9.53906 29.3281 9.55469 29.4297H9.42969L7.75781 27.5703V28.9063C7.75781 29.1875 7.8125 29.2891 8.0625 29.2891H8.11719V29.3828C7.97656 29.3828 7.83594 29.3672 7.70312 29.3672C7.55469 29.3672 7.40625 29.3828 7.26563 29.3828V29.2891H7.3125C7.53906 29.2891 7.60156 29.1328 7.60156 28.875V27.5078C7.60156 27.3281 7.45313 27.2188 7.30469 27.2188H7.26563V27.125C7.39063 27.125 7.51563 27.1406 7.64063 27.1406C7.73438 27.1406 7.82813 27.125 7.92969 27.125L9.36719 28.7344Z" fill="white"/>
<path d="M9.42969 29.4063H9.53906C9.52344 29.3125 9.52344 29.2031 9.52344 29.0938V27.6172C9.52344 27.2266 9.6875 27.1953 9.82812 27.1953H9.85937V27.125C9.73437 27.125 9.60156 27.1406 9.47656 27.1406C9.32812 27.1406 9.1875 27.125 9.03906 27.125V27.1953H9.09375C9.19531 27.1953 9.39062 27.2422 9.39062 27.5156V28.7422L9.38281 28.75L9.375 28.7578L7.9375 27.125C7.84375 27.125 7.75 27.1406 7.64844 27.1406C7.53125 27.1406 7.40625 27.125 7.28906 27.125V27.1953H7.32031C7.46875 27.1953 7.625 27.3125 7.625 27.5V28.8672C7.625 29.125 7.55469 29.2891 7.32031 29.2969H7.28906V29.3672C7.42969 29.3672 7.57031 29.3516 7.71875 29.3516C7.85156 29.3516 7.99219 29.3672 8.125 29.3672V29.2969H8.08594C7.82812 29.2969 7.76562 29.1875 7.76562 28.9063V27.5391L9.42969 29.4063ZM9.55469 29.4375L9.42187 29.4297L7.78125 27.5938V28.8906C7.78125 29.1719 7.82812 29.25 8.07031 29.2578H8.14062V29.3828H8.125C7.98437 29.3828 7.84375 29.3672 7.71094 29.3672C7.5625 29.3672 7.41406 29.3828 7.27344 29.3828H7.25781V29.2578H7.3125C7.52344 29.2578 7.58594 29.1172 7.58594 28.8594V27.4922C7.58594 27.3203 7.44531 27.2188 7.30469 27.2188H7.25V27.0938H7.26562C7.39062 27.0938 7.51562 27.1094 7.64062 27.1094C7.73437 27.1094 7.82812 27.0938 7.9375 27.1016L9.35937 28.7031V27.5078C9.35937 27.25 9.1875 27.2188 9.09375 27.2188H9.00781V27.0938H9.02344C9.17969 27.0938 9.32812 27.1094 9.47656 27.1094C9.60937 27.1094 9.74219 27.0938 9.875 27.0938H9.89062V27.2188H9.82812C9.69531 27.2188 9.55469 27.2344 9.55469 27.6172V29.0938C9.55469 29.2109 9.55469 29.3203 9.57031 29.4219V29.4375H9.55469ZM10.3594 27.2734C10.1172 27.2734 10.1094 27.3359 10.0547 27.5703H9.96094C9.97656 27.4766 9.99219 27.3906 10 27.2969C10.0156 27.2031 10.0234 27.1172 10.0234 27.0234H10.1016C10.125 27.1172 10.2109 27.1172 10.2969 27.1172H11.9687C12.0547 27.1172 12.1406 27.1172 12.1406 27.0156L12.2187 27.0313C12.2031 27.1172 12.1953 27.2031 12.1797 27.2969C12.1719 27.3828 12.1719 27.4688 12.1719 27.5625L12.0781 27.6016C12.0703 27.4844 12.0547 27.2891 11.8359 27.2891H11.3047V29.0156C11.3047 29.2656 11.4141 29.2969 11.5703 29.2969H11.6328V29.3906C11.5078 29.3906 11.2812 29.375 11.1016 29.375C10.9062 29.375 10.6797 29.3906 10.5547 29.3906V29.2969H10.6172C10.7969 29.2969 10.8828 29.2813 10.8828 29.0234V27.2969H10.3594V27.2734Z" fill="white"/>
<path d="M11.6328 29.3828C11.5078 29.3828 11.2813 29.3672 11.1016 29.3672C10.9063 29.3672 10.6797 29.3828 10.5547 29.3828H10.5469V29.2578H10.625C10.8047 29.25 10.875 29.25 10.8828 29V27.2813H10.3672V27.25H10.9141V28.9922C10.9141 29.25 10.8125 29.2812 10.6328 29.2812H10.5859V29.3516C10.7109 29.3516 10.9297 29.3359 11.1172 29.3359C11.2891 29.3359 11.5 29.3516 11.6328 29.3516V29.2812H11.5859C11.4297 29.2812 11.3047 29.2422 11.3047 28.9844V27.25H11.8516C12.0703 27.25 12.0937 27.4375 12.1016 27.5547L12.1719 27.5312C12.1719 27.4453 12.1719 27.3594 12.1797 27.2734C12.1875 27.1875 12.2031 27.1094 12.2109 27.0234L12.1641 27.0156C12.1484 27.1094 12.0547 27.1172 11.9766 27.1172H10.2891C10.2109 27.1172 10.1328 27.1172 10.1016 27.0234H10.0469C10.0469 27.1094 10.0391 27.1953 10.0234 27.2891C10.0156 27.375 10 27.4609 9.98438 27.5469H10.0547C10.1016 27.3203 10.125 27.25 10.3672 27.25V27.2813C10.125 27.2891 10.1328 27.3281 10.0781 27.5625V27.5703H9.95312V27.5547C9.96875 27.4609 9.98438 27.375 9.99219 27.2813C10.0078 27.1875 10.0078 27.1016 10.0078 27.0078V26.9922H10.1094V27C10.1328 27.0859 10.1875 27.0859 10.2734 27.0859H11.9609C12.0547 27.0859 12.1172 27.0859 12.125 27V26.9844H12.1406L12.2344 27V27.0156C12.2188 27.1016 12.2109 27.1875 12.1953 27.2734C12.1875 27.3594 12.1875 27.4453 12.1875 27.5312V27.5391L12.1797 27.5469L12.0625 27.5859V27.5703C12.0547 27.4453 12.0391 27.2734 11.8359 27.2734H11.3203V28.9844C11.3203 29.2266 11.4219 29.25 11.5781 29.25H11.6562V29.375H11.6328V29.3828ZM12.3203 29.2734H12.3672C12.4844 29.2734 12.6094 29.2578 12.6094 29.0859V27.3906C12.6094 27.2188 12.4844 27.2031 12.3672 27.2031H12.3203V27.1094C12.5156 27.1094 12.8516 27.125 13.125 27.125C13.3984 27.125 13.7344 27.1094 13.9531 27.1094C13.9453 27.25 13.9531 27.4609 13.9609 27.6016L13.8594 27.625C13.8437 27.4141 13.8047 27.25 13.4687 27.25H13.0156V28.1016H13.3984C13.5938 28.1016 13.6328 27.9922 13.6562 27.8203H13.75C13.7422 27.9453 13.7422 28.0703 13.7422 28.2031C13.7422 28.3281 13.7422 28.4531 13.75 28.5703L13.6562 28.5859C13.6328 28.3906 13.625 28.2656 13.4063 28.2656H13.0156V29.0234C13.0156 29.2344 13.2031 29.2344 13.4063 29.2344C13.7969 29.2344 13.9688 29.2109 14.0625 28.8359L14.1562 28.8594C14.1172 29.0312 14.0781 29.2031 14.0469 29.375C13.8359 29.375 13.4688 29.3594 13.1719 29.3594C12.8828 29.3594 12.4922 29.375 12.3125 29.375V29.2734H12.3203Z" fill="white"/>
<path d="M14.0391 29.3594C14.0703 29.1953 14.1016 29.0313 14.1406 28.8672L14.0781 28.8516C13.9844 29.2109 13.7969 29.2422 13.4141 29.2422C13.2109 29.2422 13.0078 29.2422 13.0078 29.0156V28.25H13.4141C13.6406 28.25 13.6641 28.3828 13.6797 28.5703L13.75 28.5547C13.7422 28.4375 13.7422 28.3125 13.7422 28.1953C13.7422 28.0703 13.7422 27.9531 13.75 27.8281H13.6719C13.6563 28 13.6016 28.1172 13.4063 28.1172H13.0078V27.2422H13.4766C13.8125 27.2422 13.8672 27.4141 13.8828 27.6172L13.9531 27.6016C13.9453 27.5078 13.9453 27.3906 13.9453 27.2813V27.125C13.7266 27.125 13.3984 27.1406 13.1328 27.1406C12.8672 27.1406 12.5391 27.125 12.3438 27.125V27.1953H12.375C12.4922 27.1953 12.625 27.2188 12.625 27.3906V29.0859C12.625 29.2656 12.4844 29.2813 12.375 29.2891H12.3438V29.3594C12.5313 29.3594 12.9063 29.3438 13.1875 29.3438C13.4688 29.3438 13.8281 29.3594 14.0391 29.3594ZM14.0469 29.3828C13.8359 29.3828 13.4688 29.3672 13.1719 29.3672C12.8828 29.3672 12.4922 29.3828 12.3125 29.3828H12.2969V29.2578H12.3594C12.4766 29.2578 12.5859 29.2422 12.5859 29.0859V27.3906C12.5859 27.2344 12.4766 27.2188 12.3594 27.2188H12.2969V27.0938H12.3125C12.5078 27.0938 12.8438 27.1094 13.1172 27.1094C13.3906 27.1094 13.7266 27.0938 13.9453 27.0938H13.9609V27.2734C13.9609 27.3828 13.9609 27.5078 13.9688 27.6016V27.6172H13.9609L13.8438 27.6484V27.6328C13.8281 27.4219 13.7969 27.2656 13.4609 27.2656H13.0234V28.0859H13.3984C13.5859 28.0859 13.6172 27.9922 13.6406 27.8125V27.7969H13.7656V27.8125C13.7578 27.9375 13.7578 28.0625 13.7578 28.1953C13.7578 28.3203 13.7656 28.4375 13.7656 28.5625V28.5703H13.7578L13.6484 28.5938V28.5781C13.625 28.3828 13.625 28.2734 13.4063 28.2734H13.0313V29.0156C13.0313 29.2109 13.2031 29.2109 13.4141 29.2109C13.8047 29.2109 13.9609 29.1875 14.0547 28.8281V28.8125H14.0703L14.1719 28.8359V28.8516C14.1328 29.0234 14.0938 29.1953 14.0625 29.3672V29.375H14.0469V29.3828ZM15.0156 28.2031H15.1719C15.5 28.2031 15.6719 28.0781 15.6719 27.6953C15.6719 27.4063 15.4844 27.2266 15.1953 27.2266C15.1016 27.2266 15.0547 27.2344 15.0078 27.2422V28.2031H15.0156ZM14.5938 27.4531C14.5938 27.2188 14.4609 27.2109 14.3672 27.2109H14.3125V27.1094C14.4141 27.1094 14.6172 27.125 14.8125 27.125C15.0078 27.125 15.1641 27.1094 15.3359 27.1094C15.7422 27.1094 16.1094 27.2187 16.1094 27.6797C16.1094 27.9688 15.9141 28.1484 15.6562 28.25L16.2109 29.0781C16.3047 29.2188 16.3672 29.25 16.5234 29.2734V29.3672C16.4141 29.3672 16.3125 29.3516 16.2031 29.3516C16.1016 29.3516 16 29.3672 15.8984 29.3672C15.6484 29.0391 15.4375 28.6875 15.2266 28.3203H15.0156V29.0156C15.0156 29.2656 15.1328 29.2734 15.2813 29.2734H15.3359V29.3672C15.1484 29.3672 14.9609 29.3516 14.7813 29.3516C14.625 29.3516 14.4766 29.3672 14.3125 29.3672V29.2734H14.3672C14.4844 29.2734 14.5938 29.2188 14.5938 29.1016V27.4531Z" fill="white"/>
<path d="M15.1719 28.1875C15.4922 28.1875 15.6562 28.0703 15.6562 27.6953C15.6562 27.4141 15.4766 27.2344 15.1953 27.2344C15.1094 27.2344 15.0703 27.2422 15.0234 27.25V28.1875H15.1719ZM15.0156 28.2188H15V27.2266H15.0156C15.0625 27.2266 15.1016 27.2109 15.2031 27.2109C15.5 27.2109 15.6875 27.3984 15.6875 27.6953C15.6875 28.0859 15.5 28.2109 15.1719 28.2109H15.0156V28.2188ZM15.0156 28.3047H15.2344V28.3125C15.4453 28.6875 15.6562 29.0312 15.8984 29.3516C16 29.3516 16.1016 29.3359 16.2031 29.3359C16.3047 29.3359 16.4063 29.3438 16.5078 29.3516V29.2812C16.3516 29.2656 16.2813 29.2187 16.1953 29.0859L15.6328 28.2422L15.6484 28.2344C15.8984 28.1328 16.0859 27.9609 16.0938 27.6797C16.0938 27.2266 15.7422 27.125 15.3359 27.125C15.1641 27.125 15.0078 27.1406 14.8125 27.1406C14.625 27.1406 14.4297 27.125 14.3203 27.125V27.1953H14.3672C14.4687 27.1953 14.6094 27.2109 14.6094 27.4531V29.1016C14.6094 29.2344 14.4844 29.2891 14.3672 29.2891H14.3203V29.3594C14.4766 29.3594 14.625 29.3437 14.7734 29.3437C14.9531 29.3437 15.1406 29.3594 15.3203 29.3594V29.2891H15.2734C15.125 29.2891 14.9922 29.2734 14.9922 29.0156V28.3125H15.0156V28.3047ZM16.5234 29.3828C16.4141 29.3828 16.3125 29.3672 16.2031 29.3672C16.1016 29.3672 16 29.3828 15.8906 29.375C15.6406 29.0469 15.4297 28.7031 15.2188 28.3281H15.0312V29.0078C15.0312 29.25 15.1328 29.25 15.2813 29.25H15.3516V29.375H15.3359C15.1484 29.375 14.9609 29.3594 14.7812 29.3594C14.625 29.3594 14.4766 29.375 14.3125 29.375H14.2969V29.2578H14.3672C14.4844 29.2578 14.5859 29.2031 14.5859 29.0937V27.4453C14.5859 27.2187 14.4687 27.2187 14.3672 27.2109H14.2969V27.0859H14.3125C14.4141 27.0859 14.6172 27.1016 14.8125 27.1016C15.0078 27.1016 15.1641 27.0859 15.3359 27.0859C15.7422 27.0859 16.1172 27.1953 16.125 27.6719C16.125 27.9609 15.9297 28.1484 15.6797 28.25L16.2266 29.0625C16.3203 29.1953 16.375 29.2344 16.5313 29.25H16.5391V29.375H16.5234V29.3828ZM18.7188 28.7344L18.7266 27.5156C18.7266 27.25 18.5391 27.2109 18.4453 27.2109H18.375V27.1172C18.5312 27.1172 18.6797 27.1328 18.8281 27.1328C18.9609 27.1328 19.0938 27.1172 19.2266 27.1172V27.2109H19.1797C19.0469 27.2109 18.8906 27.2344 18.8906 27.625V29.1016C18.8906 29.2187 18.8906 29.3281 18.9141 29.4297H18.7891L17.1172 27.5703V28.9062C17.1172 29.1875 17.1719 29.2891 17.4219 29.2891H17.4766V29.3828C17.3359 29.3828 17.1953 29.3672 17.0625 29.3672C16.9141 29.3672 16.7656 29.3828 16.625 29.3828V29.2891H16.6719C16.8984 29.2891 16.9609 29.1328 16.9609 28.875V27.5078C16.9609 27.3281 16.8125 27.2187 16.6641 27.2187H16.625V27.125C16.75 27.125 16.875 27.1406 17 27.1406C17.0938 27.1406 17.1875 27.125 17.2891 27.125L18.7188 28.7344Z" fill="white"/>
<path d="M18.7891 29.4062H18.8984C18.8828 29.3125 18.8828 29.2031 18.8828 29.0937V27.6172C18.8828 27.2266 19.0469 27.1953 19.1875 27.1953H19.2187V27.125C19.0937 27.125 18.9609 27.1406 18.8359 27.1406C18.6875 27.1406 18.5391 27.125 18.3984 27.125V27.1953H18.4531C18.5547 27.1953 18.75 27.2422 18.75 27.5156L18.7422 28.7422L18.7344 28.75L18.7266 28.7578L17.2812 27.125C17.1875 27.125 17.0937 27.1406 16.9922 27.1406C16.875 27.1406 16.75 27.125 16.6328 27.125V27.1953H16.6641C16.8125 27.1953 16.9687 27.3125 16.9687 27.5V28.8672C16.9687 29.125 16.8984 29.2891 16.6641 29.2969H16.6328V29.3672C16.7734 29.3672 16.9141 29.3516 17.0625 29.3516C17.1953 29.3516 17.3359 29.3672 17.4688 29.3672V29.2969H17.4219C17.1641 29.2969 17.1016 29.1875 17.1016 28.9062V27.5391L18.7891 29.4062ZM18.9062 29.4375L18.7734 29.4297L17.1328 27.5938V28.8906C17.1406 29.1719 17.1797 29.25 17.4219 29.2578H17.4922V29.3828H17.4766C17.3359 29.3828 17.1953 29.3672 17.0625 29.3672C16.9141 29.3672 16.7656 29.3828 16.625 29.3828H16.6094V29.2578H16.6719C16.8828 29.2578 16.9453 29.1172 16.9531 28.8594V27.4922C16.9531 27.3203 16.8125 27.2187 16.6719 27.2187H16.6172V27.0937H16.6328C16.7578 27.0937 16.8828 27.1094 17.0078 27.1094C17.1016 27.1094 17.1953 27.0937 17.3047 27.1016L18.7266 28.7031V27.5078C18.7266 27.25 18.5547 27.2187 18.4609 27.2187H18.3594V27.0937H18.375C18.5312 27.0937 18.6797 27.1094 18.8281 27.1094C18.9609 27.1094 19.0938 27.0937 19.2266 27.0937H19.2422V27.2187H19.1797C19.0469 27.2187 18.9062 27.2344 18.9062 27.6172V29.0937C18.9062 29.2109 18.9062 29.3203 18.9219 29.4219V29.4375H18.9062ZM20.2187 27.4766L19.9141 28.3906H20.5234L20.2187 27.4766ZM19.75 28.9062C19.7187 29.0156 19.6797 29.1016 19.6797 29.1563C19.6797 29.25 19.8125 29.2734 19.9219 29.2734H19.9609V29.3672C19.8281 29.3594 19.6953 29.3516 19.5703 29.3516C19.4531 29.3516 19.3359 29.3594 19.2187 29.3672V29.2734H19.2422C19.3672 29.2734 19.4766 29.1953 19.5234 29.0625L20.0391 27.5781C20.0781 27.4609 20.1406 27.2969 20.1562 27.1797C20.2578 27.1406 20.3906 27.0781 20.4531 27.0391C20.4609 27.0391 20.4688 27.0312 20.4766 27.0312C20.4844 27.0312 20.4922 27.0313 20.5 27.0391C20.5078 27.0625 20.5156 27.0938 20.5312 27.1172L21.125 28.8125C21.1641 28.9297 21.2031 29.0469 21.2422 29.1406C21.2812 29.2344 21.3516 29.2734 21.4609 29.2734H21.4766V29.3672C21.3281 29.3594 21.1875 29.3516 21.0313 29.3516C20.875 29.3516 20.7109 29.3594 20.5469 29.3672V29.2734H20.5859C20.6562 29.2734 20.7891 29.2578 20.7891 29.1797C20.7891 29.1406 20.7578 29.0469 20.7266 28.9453L20.6016 28.5703H19.8672L19.75 28.9062Z" fill="white"/>
<path d="M19.9297 28.375H20.5L20.2187 27.5078L19.9297 28.375ZM19.8906 28.4062L20.2031 27.4609H20.2187H20.2266L20.5312 28.4062H19.8906ZM20.5547 29.3594C20.7188 29.3516 20.875 29.3437 21.0313 29.3437C21.1797 29.3437 21.3203 29.3516 21.4609 29.3594V29.2891H21.4531C21.3438 29.2891 21.2656 29.2422 21.2266 29.1484C21.1875 29.0469 21.1484 28.9297 21.1094 28.8203L20.5156 27.125C20.5078 27.1016 20.5 27.0703 20.4844 27.0469H20.4688C20.4609 27.0469 20.4609 27.0469 20.4531 27.0547C20.3906 27.0937 20.2578 27.1562 20.1641 27.1875C20.1406 27.3125 20.0859 27.4688 20.0469 27.5938L19.5313 29.0781C19.4844 29.2188 19.3672 29.2969 19.2344 29.2969H19.2266V29.3672C19.3359 29.3594 19.4531 29.3516 19.5625 29.3516C19.6875 29.3516 19.8125 29.3594 19.9375 29.3672V29.2969H19.9219C19.8203 29.2969 19.6719 29.2812 19.6641 29.1719C19.6641 29.1094 19.7031 29.0234 19.7344 28.9141L19.8438 28.5703H20.6016L20.7344 28.9531C20.7734 29.0547 20.7969 29.1406 20.7969 29.1875C20.7891 29.2891 20.6562 29.2969 20.5781 29.2969H20.5547V29.3594ZM21.4766 29.3828C21.3281 29.375 21.1875 29.3672 21.0313 29.3672C20.875 29.3672 20.7109 29.375 20.5469 29.3828H20.5312V29.2578H20.5859C20.6641 29.2578 20.7734 29.2422 20.7734 29.1797C20.7734 29.1406 20.7422 29.0547 20.7109 28.9531L20.5859 28.5859H19.8672L19.7656 28.9141C19.7344 29.0234 19.6953 29.1094 19.6953 29.1641C19.6953 29.2422 19.8203 29.2656 19.9219 29.2656H19.9688V29.3906H19.9531C19.8203 29.3828 19.6875 29.375 19.5625 29.375C19.4453 29.375 19.3281 29.3828 19.2109 29.3906H19.1953V29.2578H19.2266C19.3516 29.2578 19.4453 29.1875 19.4922 29.0547L20.0078 27.5703C20.0469 27.4531 20.1094 27.2891 20.1406 27.1562C20.2422 27.125 20.375 27.0547 20.4375 27.0156C20.4453 27.0156 20.4531 27.0078 20.4688 27.0078C20.4766 27.0078 20.4922 27.0078 20.5078 27.0234C20.5156 27.0469 20.5312 27.0781 20.5391 27.1016L21.1328 28.7969C21.1719 28.9141 21.2109 29.0312 21.25 29.125C21.2891 29.2109 21.3438 29.2422 21.4531 29.2422H21.4844V29.3672L21.4766 29.3828ZM21.6172 27.2734C21.375 27.2734 21.3672 27.3359 21.3125 27.5703H21.2109C21.2266 27.4766 21.2422 27.3906 21.25 27.2969C21.2656 27.2031 21.2734 27.1172 21.2734 27.0234H21.3516C21.375 27.1172 21.4609 27.1172 21.5469 27.1172H23.2188C23.3047 27.1172 23.3906 27.1172 23.3906 27.0156L23.4688 27.0312C23.4531 27.1172 23.4453 27.2031 23.4297 27.2969C23.4219 27.3828 23.4219 27.4687 23.4219 27.5625L23.3281 27.6016C23.3203 27.4844 23.3047 27.2891 23.0859 27.2891H22.5547V29.0156C22.5547 29.2656 22.6719 29.2969 22.8203 29.2969H22.8828V29.3906C22.7578 29.3906 22.5313 29.375 22.3516 29.375C22.1563 29.375 21.9297 29.3906 21.8047 29.3906V29.2969H21.8672C22.0469 29.2969 22.1406 29.2812 22.1406 29.0234V27.2969H21.6172V27.2734Z" fill="white"/>
<path d="M22.8906 29.3828C22.7656 29.3828 22.5391 29.3672 22.3594 29.3672C22.1641 29.3672 21.9375 29.3828 21.8125 29.3828H21.7969V29.2578H21.875C22.0547 29.25 22.125 29.25 22.1328 29V27.2813H21.6172V27.25H22.1641V28.9922C22.1641 29.25 22.0625 29.2734 21.8828 29.2812H21.8359V29.3516C21.9609 29.3516 22.1797 29.3359 22.3672 29.3359C22.5391 29.3359 22.75 29.3516 22.8828 29.3516V29.2812H22.8359C22.6797 29.2812 22.5547 29.2422 22.5547 28.9922V27.2578H23.1016C23.3203 27.2578 23.3516 27.4453 23.3516 27.5625L23.4219 27.5391C23.4219 27.4531 23.4219 27.3672 23.4297 27.2813C23.4375 27.1953 23.4531 27.1172 23.4609 27.0312L23.4141 27.0234C23.3984 27.1172 23.3047 27.125 23.2266 27.125H21.5391C21.4609 27.125 21.3828 27.125 21.3516 27.0312H21.2969C21.2969 27.1172 21.2891 27.2109 21.2734 27.2969C21.2656 27.3828 21.25 27.4688 21.2344 27.5547H21.3047C21.3438 27.3281 21.375 27.2578 21.6172 27.2578V27.2891C21.375 27.2969 21.3828 27.3359 21.3281 27.5703V27.5781H21.2031V27.5625C21.2188 27.4687 21.2344 27.3828 21.2422 27.2891C21.2578 27.1953 21.2656 27.1094 21.2656 27.0156V27H21.3672V27.0078C21.3906 27.0938 21.4453 27.0937 21.5313 27.0937H23.2188C23.3047 27.0937 23.375 27.0938 23.3828 27.0078V26.9922H23.3984L23.4922 27.0078V27.0234C23.4766 27.1094 23.4688 27.1953 23.4531 27.2813C23.4453 27.3672 23.4453 27.4531 23.4453 27.5391V27.5469L23.4375 27.5547L23.3203 27.5938V27.5781C23.3125 27.4531 23.2969 27.2813 23.0938 27.2813H22.5781V28.9922C22.5781 29.2344 22.6797 29.2578 22.8359 29.2578H22.9141V29.3828H22.8906ZM23.5938 29.2734H23.6406C23.7578 29.2734 23.8828 29.2578 23.8828 29.0859V27.3906C23.8828 27.2188 23.7578 27.2031 23.6406 27.2031H23.5938V27.1094C23.7188 27.1094 23.9141 27.125 24.0703 27.125C24.2344 27.125 24.4297 27.1094 24.5781 27.1094V27.2031H24.5313C24.4141 27.2031 24.2891 27.2188 24.2891 27.3906V29.0859C24.2891 29.2578 24.4141 29.2734 24.5313 29.2734H24.5781V29.3672C24.4219 29.3672 24.2266 29.3516 24.0625 29.3516C23.9063 29.3516 23.7109 29.3672 23.5859 29.3672V29.2734H23.5938Z" fill="white"/>
<path d="M24.5703 29.3594V29.2891H24.5391C24.4219 29.2891 24.2812 29.2656 24.2812 29.0938V27.3984C24.2812 27.2188 24.4219 27.2031 24.5391 27.2031H24.5703V27.1328C24.4219 27.1328 24.2344 27.1484 24.0781 27.1484C23.9219 27.1484 23.7422 27.1328 23.6094 27.1328V27.2031H23.6406C23.7578 27.2031 23.8906 27.2266 23.8984 27.3984V29.0938C23.8984 29.2734 23.7578 29.2891 23.6406 29.2891H23.6094V29.3594C23.7344 29.3594 23.9141 29.3438 24.0703 29.3438C24.2266 29.3438 24.4141 29.3594 24.5703 29.3594ZM24.5781 29.3828C24.4219 29.3828 24.2266 29.3672 24.0703 29.3672C23.9141 29.3672 23.7188 29.3828 23.5938 29.3828H23.5781V29.2578H23.6406C23.7578 29.2578 23.8672 29.2422 23.8672 29.0859V27.3906C23.8672 27.2344 23.7578 27.2188 23.6406 27.2188H23.5781V27.0937H23.5938C23.7188 27.0937 23.9141 27.1094 24.0703 27.1094C24.2344 27.1094 24.4297 27.0937 24.5781 27.0937H24.5938V27.2188H24.5313C24.4141 27.2188 24.3047 27.2344 24.3047 27.3906V29.0859C24.3047 29.2422 24.4141 29.2578 24.5313 29.2578H24.5938V29.3828H24.5781ZM25.9219 29.2812C26.5469 29.2812 26.6563 28.7266 26.6563 28.2578C26.6563 27.7813 26.3984 27.2109 25.8594 27.2109C25.2891 27.2109 25.125 27.7187 25.125 28.1484C25.1328 28.7266 25.3984 29.2812 25.9219 29.2812ZM25.875 27.0625C26.5703 27.0625 27.1172 27.4922 27.1172 28.1797C27.1172 28.9219 26.5859 29.4219 25.8906 29.4219C25.2031 29.4219 24.6797 28.9531 24.6797 28.2578C24.6797 27.5859 25.1953 27.0625 25.875 27.0625Z" fill="white"/>
<path d="M25.1172 28.1406C25.1172 27.7031 25.2891 27.1875 25.8672 27.1875C26.4141 27.1875 26.6719 27.7734 26.6719 28.25C26.6719 28.7187 26.5625 29.2891 25.9219 29.2891V29.2578C26.5391 29.2578 26.6484 28.7187 26.6484 28.2422C26.6484 27.7734 26.3984 27.2109 25.8672 27.2109C25.3125 27.2109 25.1484 27.7031 25.1484 28.1328C25.1484 28.7109 25.4141 29.25 25.9219 29.25V29.2812C25.3828 29.2891 25.1172 28.7266 25.1172 28.1406ZM24.6641 28.2578C24.6641 27.5781 25.1953 27.0469 25.875 27.0469V27.0781C25.2109 27.0781 24.6953 27.5938 24.6953 28.2578C24.6953 28.9453 25.2109 29.4062 25.8906 29.4062C26.5703 29.4062 27.1016 28.9141 27.1016 28.1797C27.1016 27.5 26.5625 27.0781 25.875 27.0781V27.0469C26.5703 27.0469 27.1328 27.4766 27.1328 28.1797C27.1328 28.9297 26.5937 29.4297 25.8984 29.4375C25.1953 29.4297 24.6641 28.9609 24.6641 28.2578ZM29.2969 28.7344L29.3047 27.5156C29.3047 27.25 29.1172 27.2109 29.0234 27.2109H28.9531V27.1172C29.1016 27.1172 29.2578 27.1328 29.4062 27.1328C29.5391 27.1328 29.6719 27.1172 29.8047 27.1172V27.2109H29.7578C29.625 27.2109 29.4688 27.2344 29.4688 27.625V29.1016C29.4688 29.2187 29.4687 29.3281 29.4922 29.4297H29.3672L27.6953 27.5703V28.9062C27.6953 29.1875 27.75 29.2891 28 29.2891H28.0547V29.3828C27.9141 29.3828 27.7734 29.3672 27.6406 29.3672C27.4922 29.3672 27.3437 29.3828 27.1953 29.3828V29.2891H27.2422C27.4688 29.2891 27.5312 29.1328 27.5312 28.875V27.5078C27.5312 27.3281 27.3828 27.2187 27.2344 27.2187H27.1953V27.125C27.3203 27.125 27.4453 27.1406 27.5703 27.1406C27.6641 27.1406 27.7578 27.125 27.8594 27.125L29.2969 28.7344Z" fill="white"/>
<path d="M29.3594 29.4062H29.4688C29.4531 29.3125 29.4531 29.2031 29.4531 29.0937V27.6172C29.4531 27.2266 29.6172 27.1953 29.7578 27.1953H29.7891V27.125C29.6641 27.125 29.5312 27.1406 29.4062 27.1406C29.2578 27.1406 29.1172 27.125 28.9687 27.125V27.1953H29.0234C29.125 27.1953 29.3203 27.2422 29.3203 27.5156V28.7422L29.3125 28.75L29.3047 28.7578L27.8594 27.125C27.7656 27.125 27.6719 27.1406 27.5703 27.1406C27.4531 27.1406 27.3281 27.125 27.2109 27.125V27.1953H27.2422C27.3984 27.1953 27.5547 27.3125 27.5547 27.5V28.8672C27.5547 29.125 27.4844 29.2891 27.25 29.2969H27.2188V29.3672C27.3594 29.3672 27.5 29.3516 27.6484 29.3516C27.7812 29.3516 27.9141 29.3672 28.0547 29.3672V29.2969H28.0156C27.7578 29.2969 27.6953 29.1875 27.6953 28.9062V27.5391L29.3594 29.4062ZM29.4844 29.4375L29.3516 29.4297L27.7109 27.5938V28.8906C27.7188 29.1719 27.7578 29.25 28 29.2578H28.0703V29.3828H28.0547C27.9141 29.3828 27.7734 29.3672 27.6406 29.3672C27.4922 29.3672 27.3438 29.3828 27.1953 29.3828H27.1797V29.2578H27.2422C27.4531 29.2578 27.5156 29.1172 27.5156 28.8594V27.4922C27.5156 27.3203 27.375 27.2187 27.2344 27.2187H27.1797V27.0937H27.1953C27.3203 27.0937 27.4453 27.1094 27.5703 27.1094C27.6641 27.1094 27.7578 27.0937 27.8672 27.1016L29.2891 28.7031V27.5078C29.2891 27.25 29.1172 27.2187 29.0234 27.2187H28.9375V27.0937H28.9531C29.1094 27.0937 29.2578 27.1094 29.4062 27.1094C29.5391 27.1094 29.6719 27.0937 29.8047 27.0937H29.8203V27.2187H29.7578C29.625 27.2187 29.4844 27.2344 29.4844 27.6172V29.0937C29.4844 29.2109 29.4844 29.3203 29.5 29.4219V29.4375H29.4844ZM30.7969 27.4766L30.4922 28.3906H31.1016L30.7969 27.4766ZM30.3203 28.9062C30.2891 29.0156 30.25 29.1016 30.25 29.1563C30.25 29.25 30.3828 29.2734 30.4922 29.2734H30.5312V29.3672C30.3984 29.3594 30.2656 29.3516 30.1406 29.3516C30.0234 29.3516 29.9062 29.3594 29.7891 29.3672V29.2734H29.8047C29.9297 29.2734 30.0391 29.1953 30.0859 29.0625L30.6016 27.5781C30.6406 27.4609 30.7031 27.2969 30.7188 27.1797C30.8203 27.1406 30.9531 27.0781 31.0156 27.0391C31.0234 27.0391 31.0312 27.0312 31.0391 27.0312C31.0469 27.0312 31.0547 27.0313 31.0625 27.0391C31.0703 27.0625 31.0859 27.0938 31.0938 27.1172L31.6875 28.8125C31.7266 28.9297 31.7656 29.0469 31.8047 29.1406C31.8438 29.2344 31.9141 29.2734 32.0156 29.2734H32.0313V29.3672C31.8828 29.3594 31.7422 29.3516 31.5859 29.3516C31.4297 29.3516 31.2656 29.3594 31.1016 29.3672V29.2734H31.1406C31.2109 29.2734 31.3438 29.2578 31.3438 29.1797C31.3438 29.1406 31.3125 29.0469 31.2812 28.9453L31.1562 28.5703H30.4219L30.3203 28.9062Z" fill="white"/>
<path d="M30.5078 28.375H31.0703L30.7891 27.5078L30.5078 28.375ZM30.4688 28.4062L30.7812 27.4609H30.7969H30.8047L31.1094 28.4062H30.4688ZM31.1328 29.3594C31.2891 29.3516 31.4531 29.3437 31.6016 29.3437C31.75 29.3437 31.8906 29.3516 32.0312 29.3594V29.2891C31.9219 29.2891 31.8438 29.2422 31.8047 29.1484C31.7656 29.0469 31.7266 28.9297 31.6875 28.8203L31.0938 27.125C31.0859 27.1016 31.0703 27.0703 31.0625 27.0469H31.0469C31.0391 27.0469 31.0391 27.0469 31.0313 27.0547C30.9688 27.0937 30.8359 27.1562 30.7422 27.1875C30.7188 27.3125 30.6641 27.4688 30.625 27.5938L30.1094 29.0781C30.0625 29.2188 29.9453 29.2969 29.8125 29.2969H29.8047V29.3672C29.9141 29.3594 30.0312 29.3516 30.1406 29.3516C30.2656 29.3516 30.3906 29.3594 30.5156 29.3672V29.2969H30.4922C30.3906 29.2969 30.2422 29.2812 30.2344 29.1719C30.2344 29.1094 30.2734 29.0234 30.3047 28.9141L30.4141 28.5703H31.1719L31.3047 28.9531C31.3438 29.0547 31.3672 29.1406 31.3672 29.1875C31.3594 29.2891 31.2266 29.2969 31.1562 29.2969H31.1328V29.3594ZM32.0469 29.3828C31.8984 29.375 31.7578 29.3672 31.6016 29.3672C31.4453 29.3672 31.2812 29.375 31.1172 29.3828H31.1016V29.2578H31.1562C31.2344 29.2578 31.3438 29.2422 31.3438 29.1797C31.3438 29.1406 31.3125 29.0547 31.2812 28.9531L31.1562 28.5859H30.4375L30.3359 28.9141C30.3047 29.0234 30.2656 29.1094 30.2656 29.1641C30.2656 29.2422 30.3906 29.2656 30.4922 29.2656H30.5391V29.3906H30.5234C30.3906 29.3828 30.2578 29.375 30.1328 29.375C30.0156 29.375 29.8984 29.3828 29.7813 29.3906H29.7656V29.2578H29.7969C29.9141 29.2578 30.0156 29.1875 30.0625 29.0547L30.5781 27.5703C30.6172 27.4531 30.6797 27.2891 30.7031 27.1562C30.8047 27.1172 30.9375 27.0547 31 27.0156C31.0078 27.0156 31.0156 27.0078 31.0313 27.0078C31.0391 27.0078 31.0547 27.0078 31.0703 27.0234C31.0781 27.0469 31.0859 27.0781 31.1016 27.1016L31.6953 28.7969C31.7344 28.9141 31.7734 29.0312 31.8125 29.125C31.8516 29.2109 31.9062 29.2422 32.0156 29.25H32.0469V29.3828ZM32.8672 29.0547C32.8672 29.1875 32.9531 29.2266 33.0625 29.2344C33.1953 29.2422 33.3438 29.2422 33.4922 29.2266C33.625 29.2109 33.7422 29.1328 33.8047 29.0547C33.8594 28.9844 33.8828 28.8906 33.9062 28.8203H34C33.9609 29.0078 33.9219 29.1875 33.8828 29.375C33.6016 29.375 33.3125 29.3594 33.0312 29.3594C32.7422 29.3594 32.4609 29.375 32.1797 29.375V29.2812H32.2266C32.3438 29.2812 32.4688 29.2656 32.4688 29.0625V27.3984C32.4688 27.2266 32.3438 27.2109 32.2266 27.2109H32.1797V27.1172C32.3516 27.1172 32.5234 27.1328 32.6875 27.1328C32.8516 27.1328 33.0156 27.1172 33.1797 27.1172V27.2109H33.1016C32.9766 27.2109 32.8828 27.2109 32.8828 27.3828V29.0547H32.8672Z" fill="white"/>
<path d="M33.8594 29.3594C33.8984 29.1875 33.9375 29.0156 33.9766 28.8359H33.9141C33.8906 28.9063 33.8672 28.9922 33.8125 29.0625C33.75 29.1484 33.6328 29.2266 33.4922 29.2422C33.4063 29.25 33.3203 29.2578 33.2422 29.2578C33.1797 29.2578 33.1172 29.2578 33.0625 29.25C32.9531 29.2422 32.8516 29.1953 32.8516 29.0547V27.3828C32.8516 27.2031 32.9688 27.1953 33.0859 27.1953H33.1484V27.125C32.9922 27.125 32.8359 27.1406 32.6719 27.1406C32.5078 27.1406 32.3359 27.125 32.1719 27.125V27.1953H32.2031C32.3203 27.1953 32.4609 27.2188 32.4609 27.3906V29.0547C32.4609 29.2656 32.3203 29.2891 32.2031 29.2891H32.1719V29.3594C32.4531 29.3594 32.7344 29.3438 33.0156 29.3438C33.2969 29.3438 33.5781 29.3594 33.8594 29.3594ZM33.875 29.3828C33.5859 29.3828 33.3047 29.3672 33.0234 29.3672C32.7422 29.3672 32.4531 29.3828 32.1641 29.3828H32.1484V29.2578H32.2109C32.3281 29.2578 32.4375 29.25 32.4375 29.0547V27.3906C32.4375 27.2344 32.3281 27.2188 32.2109 27.2188H32.1484V27.0938H32.1641C32.3359 27.0938 32.5078 27.1094 32.6797 27.1094C32.8437 27.1094 33.0078 27.0938 33.1719 27.0938H33.1875V27.2188H33.0938C32.9688 27.2188 32.8906 27.2188 32.8906 27.3828V29.0547C32.8906 29.1719 32.9687 29.2109 33.0703 29.2266C33.125 29.2344 33.1875 29.2344 33.25 29.2344C33.3281 29.2344 33.4141 29.2266 33.4922 29.2188C33.625 29.2031 33.7344 29.125 33.7969 29.0469C33.8438 28.9766 33.875 28.8906 33.8906 28.8203V28.8125H34.0078V28.8281C33.9687 29.0156 33.9297 29.1953 33.8906 29.375V29.3828H33.875ZM33.8984 27.3594H33.9375C33.9844 27.3594 34 27.3281 34 27.2734C34 27.2188 33.9687 27.2031 33.9297 27.2031H33.8906V27.3594H33.8984ZM33.7812 27.5391V27.5234C33.8203 27.5156 33.8281 27.5156 33.8281 27.4922V27.2422C33.8281 27.2031 33.8281 27.1953 33.7812 27.1953V27.1797H33.9531C34.0156 27.1797 34.0703 27.2109 34.0703 27.2734C34.0703 27.3281 34.0391 27.3594 33.9922 27.375L34.0469 27.4531C34.0703 27.4844 34.1016 27.5234 34.125 27.5313V27.5391H34.0625C34.0312 27.5391 34 27.4688 33.9375 27.3828H33.8984V27.4922C33.8984 27.5156 33.9062 27.5156 33.9453 27.5234V27.5391H33.7812ZM33.9531 27.6328C34.1094 27.6328 34.2266 27.5 34.2266 27.3594C34.2266 27.2109 34.1094 27.0781 33.9531 27.0781C33.7969 27.0781 33.6797 27.2109 33.6797 27.3594C33.6797 27.5078 33.7969 27.6328 33.9531 27.6328ZM33.9531 27.0156C34.1484 27.0156 34.2969 27.1641 34.2969 27.3594C34.2969 27.5547 34.1484 27.7031 33.9531 27.7031C33.7578 27.7031 33.6094 27.5547 33.6094 27.3594C33.6094 27.1719 33.7578 27.0156 33.9531 27.0156Z" fill="white"/>
</svg>
