<svg width="40" height="40" viewBox="0 0 40 40" fill="none" xmlns="http://www.w3.org/2000/svg">
<path d="M17.1742 18.6266H14.1402V14.8183H17.1742V15.6116H15.0482V16.2977H17.1239V17.0783H15.0482V17.839H17.1742V18.6266ZM10.4129 18.6266L9.09348 15.6421V18.6273H7.24504L6.89589 17.7779H5.00496L4.65227 18.6273H3.66572L5.29249 14.819H6.64093L8.18697 18.4251V14.819H9.66997L10.8591 17.4026L11.9504 14.819H13.4646V18.6273H12.5333L12.5297 15.6449L11.2125 18.6273L10.4129 18.6266ZM6.56728 16.9839L5.94618 15.4661L5.32861 16.9839H6.56728ZM21.262 22.6279C21.262 23.6859 20.4745 23.9045 19.6806 23.9045H18.5474V25.1817H16.7819L15.6629 23.9208L14.5 25.1817H10.9016V21.3734H14.5545L15.6735 22.6208L16.8293 21.3734H19.7316C20.4525 21.3727 21.262 21.5735 21.262 22.6279ZM15.0786 23.2701L14.085 22.161H11.8081V22.8536H13.8017V23.6313H11.8081V24.3891H14.0404L15.0786 23.2701ZM17.6424 21.7814L16.2472 23.2829L17.6424 24.8355V21.7814ZM20.2868 22.6279C20.2868 22.2944 20.0602 22.1603 19.7316 22.1603H18.5474V23.1303H19.7203C20.0701 23.131 20.2868 22.9572 20.2868 22.6279ZM18.7139 18.6266H17.8045V14.8183H19.8938C20.3576 14.8183 20.6997 14.8303 20.9943 15.0006C21.2805 15.1709 21.4533 15.4193 21.4533 15.8443C21.4533 16.451 21.0496 16.7654 20.813 16.859C21.012 16.9349 21.182 17.0691 21.2627 17.1798C21.3916 17.3692 21.4136 17.5381 21.4136 17.878V18.6266H20.4972L20.4929 18.1462C20.4929 17.917 20.5149 17.5878 20.3499 17.4047C20.2174 17.2713 20.0149 17.2422 19.6877 17.2422H18.7139V18.6266ZM18.7125 16.4574H19.8166C19.9929 16.4574 20.1402 16.4553 20.2663 16.3793C20.3831 16.3176 20.4533 16.1835 20.4533 16.0175C20.4533 15.8542 20.3803 15.7365 20.2627 15.6811C20.1551 15.6201 19.9894 15.6123 19.8322 15.6123H18.7132L18.7125 16.4574ZM22.9065 14.819H21.9795V18.6273H22.9065V14.819ZM23.8385 18.2058C23.5184 17.8822 23.3513 17.4437 23.3513 16.7519C23.3513 16.187 23.4511 15.6705 23.8407 15.2625C24.1331 14.9588 24.5942 14.819 25.2203 14.819H26.0992V15.635H25.2387C24.9051 15.635 24.7188 15.6847 24.5389 15.8606C24.3839 16.021 24.2783 16.3233 24.2783 16.7235C24.2783 17.1308 24.3576 17.4253 24.5283 17.6169C24.6678 17.768 24.9242 17.8134 25.1615 17.8134H25.5687L26.852 14.819H28.2125L29.7507 18.4208V14.819H31.1339L32.7316 17.4714V14.819H33.6608V18.6273H32.3746L30.6508 15.7691V18.6273H28.8017L28.4476 17.7779H26.5609L26.2195 18.6273H25.1558C24.7132 18.6266 24.1544 18.5287 23.8385 18.2058ZM26.886 16.9839H28.1395L27.5099 15.4661L26.886 16.9839ZM24.9788 16.3105C24.9703 16.3226 24.9065 16.4595 24.9065 16.7235C24.9065 16.9846 24.9483 17.1102 24.9788 17.167C25.0106 17.1755 25.0694 17.1854 25.1572 17.1854L25.551 16.2637H25.2408C25.0269 16.263 25.005 16.2857 24.9788 16.3105ZM40 1.03174V38.9683C40 39.5381 39.5397 40 38.9703 40H1.02974C0.46034 40 0 39.5373 0 38.9676V1.03174C0 0.461939 0.46034 0 1.02974 0H38.9703C39.5397 0 40 0.461939 40 1.03174ZM10.4129 19.256H11.211C11.4603 19.256 11.6841 19.1091 11.7847 18.8813L11.9051 18.6117V18.6273C11.9051 18.9743 12.1856 19.2553 12.5326 19.2553H13.4639C13.5914 19.2553 13.7025 19.207 13.8024 19.1425C13.9016 19.207 14.0127 19.2553 14.1409 19.2553H17.1749C17.2925 19.2553 17.3966 19.2141 17.4894 19.1581C17.5843 19.2141 17.687 19.2553 17.8045 19.2553H18.7139C19.0602 19.2553 19.3414 18.9736 19.3414 18.6266V17.8702H19.6877C19.7663 17.8702 19.8222 17.8723 19.864 17.8751C19.8683 17.9397 19.8669 18.0164 19.8669 18.0674L19.8654 18.1512L19.869 18.6316C19.8718 18.9764 20.1523 19.2553 20.4972 19.2553H21.4136C21.517 19.2553 21.6098 19.2241 21.6955 19.1794C21.7826 19.2241 21.8768 19.2553 21.9795 19.2553H22.9072C23.211 19.2553 23.4518 19.0353 23.5106 18.7486C24.0269 19.1822 24.7507 19.2553 25.1551 19.2553H26.2188C26.4731 19.2553 26.704 19.0992 26.7982 18.8615L26.9837 18.4052H28.0305L28.2224 18.8679C28.3215 19.102 28.5489 19.2546 28.8017 19.2546H30.6508C30.9965 19.2546 31.2783 18.9729 31.2783 18.6259V18.0249L31.8357 18.9509C31.9497 19.1396 32.153 19.2546 32.3746 19.2546H33.6608C34.0064 19.2546 34.2882 18.9729 34.2882 18.6259V14.8175C34.2882 14.4706 34.0078 14.1889 33.6608 14.1889H32.7316C32.3846 14.1889 32.1027 14.4706 32.1027 14.8175V15.2107L31.6707 14.4933C31.5574 14.3045 31.3541 14.1896 31.1339 14.1896H29.7507C29.4037 14.1896 29.1225 14.4713 29.1225 14.8183V15.3526L28.789 14.5706C28.6891 14.34 28.4632 14.1896 28.2125 14.1896H26.852C26.7132 14.1896 26.5822 14.235 26.4766 14.3145C26.3725 14.2357 26.2415 14.1896 26.102 14.1896H25.2231C24.478 14.1896 23.9242 14.3712 23.5177 14.7239C23.4717 14.4237 23.2224 14.1896 22.9086 14.1896H21.9816C21.7344 14.1896 21.5248 14.3364 21.4228 14.5436C21.3839 14.5153 21.3527 14.4819 21.3095 14.4557C20.8824 14.2087 20.4356 14.1896 19.8952 14.1896H17.8059C17.6884 14.1896 17.585 14.2307 17.4908 14.2868C17.398 14.2307 17.2939 14.1896 17.1763 14.1896H14.1424C14.0142 14.1896 13.903 14.2371 13.8038 14.3024C13.704 14.2371 13.5928 14.1896 13.4653 14.1896H11.9511C11.7004 14.1896 11.4724 14.3407 11.3746 14.5735L10.835 15.8479L10.2408 14.555C10.1374 14.3329 9.91431 14.1896 9.67068 14.1896H8.18697C7.83994 14.1896 7.55949 14.4713 7.55949 14.8183V15.3653L7.21884 14.5692C7.11898 14.3386 6.89306 14.1889 6.64164 14.1889H5.2932C5.04178 14.1889 4.81445 14.3393 4.71601 14.5699L3.08994 18.3782C3.00637 18.572 3.02691 18.7948 3.14235 18.9722C3.2585 19.1481 3.45538 19.2546 3.66643 19.2546H4.65368C4.90581 19.2546 5.13527 19.1013 5.23159 18.8671L5.42351 18.4045H6.47592L6.66501 18.8643C6.76204 19.0999 6.99079 19.2539 7.24575 19.2539H9.09348C9.4398 19.2539 9.72096 18.9722 9.72096 18.6252V18.6103L9.83994 18.8806C9.9398 19.1091 10.165 19.256 10.4129 19.256ZM36.9618 23.9797C36.9618 23.4475 36.8201 23.0516 36.5085 22.7308C36.5021 22.7245 36.495 22.7181 36.4901 22.7124C36.6636 22.6003 36.7769 22.4051 36.7769 22.183V21.3727C36.7769 21.025 36.4965 20.7433 36.1501 20.7433H34.3286C33.7613 20.7433 33.3357 20.91 33.0241 21.1634C32.937 20.92 32.7118 20.7433 32.4377 20.7433H30.6176C30.1176 20.7433 29.721 20.8682 29.4221 21.0711C29.3144 20.8788 29.1161 20.7433 28.881 20.7433H25.8499C25.6048 20.7433 25.4001 20.8866 25.2967 21.0903C25.2528 21.0605 25.2224 21.0243 25.1749 20.9966C24.7365 20.7617 24.2691 20.7433 23.7861 20.7433H21.6884C21.4426 20.7433 21.2358 20.8873 21.1331 21.0931C20.8152 20.8845 20.3676 20.7433 19.7316 20.7433H16.8293C16.6544 20.7433 16.488 20.8157 16.369 20.9441L15.6813 21.6877L15.0212 20.9519C14.903 20.8185 14.7337 20.7433 14.5545 20.7433H10.9016C10.5552 20.7433 10.2741 21.0243 10.2741 21.3727V25.181C10.2741 25.528 10.5545 25.8104 10.9016 25.8104H14.5C14.6749 25.8104 14.8414 25.7366 14.9603 25.6082L15.6537 24.856L16.3116 25.5983C16.4306 25.7324 16.602 25.809 16.7812 25.809H18.5467C18.8938 25.809 19.1749 25.528 19.1749 25.1803V24.5311H19.6799C20.2932 24.5311 20.738 24.4047 21.0602 24.2124V25.1803C21.0602 25.5273 21.3407 25.809 21.6884 25.809H22.6013C22.9476 25.809 23.2288 25.528 23.2288 25.1803V24.4175H23.5715C23.6551 24.4175 23.7139 24.4204 23.7557 24.4232C23.7599 24.4906 23.7599 24.5729 23.7585 24.6268V25.1803C23.7585 25.5273 24.0389 25.809 24.3867 25.809H25.2982C25.3987 25.809 25.4901 25.7799 25.5744 25.7381C25.6579 25.7813 25.7507 25.809 25.852 25.809H28.8831C28.9823 25.809 29.0722 25.7813 29.1551 25.7409C29.2387 25.7813 29.3279 25.809 29.4278 25.809H31.1969C31.7613 25.809 32.2174 25.6714 32.5623 25.4265C32.6586 25.6508 32.8803 25.809 33.1395 25.809H34.9086C36.1948 25.8104 36.9618 25.1257 36.9618 23.9797ZM31.3137 22.8671L30.8258 22.8529C30.6707 22.8529 30.5687 22.843 30.4717 22.8096C30.3576 22.7663 30.2734 22.6698 30.2734 22.5258C30.2734 22.4051 30.3102 22.3136 30.4108 22.2512C30.5014 22.1894 30.6084 22.1823 30.7748 22.1823H32.4405V21.372H30.6204C29.6671 21.372 29.3215 21.9524 29.3215 22.5059C29.3215 23.7101 30.386 23.6561 31.2344 23.6838C31.3938 23.6838 31.4887 23.7101 31.5581 23.7682C31.6218 23.8222 31.6686 23.9087 31.6686 24.0201C31.6686 24.1237 31.6246 24.2103 31.5623 24.2685C31.4858 24.3409 31.3633 24.3629 31.1919 24.3629H29.4299V25.1796H31.199C32.1147 25.1796 32.6268 24.7971 32.6268 23.9776C32.6268 23.5866 32.5312 23.3539 32.3541 23.1708C32.1452 22.9636 31.8067 22.8791 31.3137 22.8671ZM24.7033 23.4113C24.9044 23.4851 25.0708 23.6207 25.1473 23.7313C25.2769 23.9173 25.2953 24.0904 25.2982 24.426V25.181H24.3867V24.7049C24.3867 24.4757 24.4086 24.1365 24.2401 23.9591C24.1069 23.8229 23.9051 23.7902 23.5737 23.7902H22.6034V25.181H21.6912V21.3727H23.7882C24.2479 21.3727 24.5822 21.3918 24.8824 21.5515C25.1678 21.7246 25.3484 21.9631 25.3484 22.3973C25.347 23.0069 24.9412 23.317 24.7033 23.4113ZM24.3421 22.5726C24.3421 22.4101 24.272 22.2916 24.1544 22.2299C24.0439 22.1646 23.881 22.161 23.721 22.161H22.602V23.0168H23.7061C23.8831 23.0168 24.034 23.0104 24.1558 22.938C24.272 22.8671 24.3421 22.7351 24.3421 22.5726ZM25.8513 25.181H28.8824V24.3913L26.755 24.387V23.6299H28.83V22.8529H26.755V22.1596H28.8824V21.3727H25.8513V25.181ZM35.0255 22.8671L34.5368 22.8529C34.3831 22.8529 34.2805 22.843 34.1827 22.8096C34.0701 22.7663 33.9851 22.6698 33.9851 22.5258C33.9851 22.4051 34.022 22.3136 34.1218 22.2512C34.2132 22.1894 34.3208 22.1823 34.4865 22.1823H36.153V21.372H34.3314C33.3796 21.372 33.0326 21.9524 33.0326 22.5059C33.0326 23.7101 34.0977 23.6561 34.9469 23.6838C35.1055 23.6838 35.1997 23.7101 35.2705 23.7682C35.3329 23.8222 35.3803 23.9087 35.3803 24.0201C35.3803 24.1237 35.3357 24.2103 35.2748 24.2685C35.1976 24.3409 35.0751 24.3629 34.9037 24.3629H33.1424V25.1796H34.9115C35.8272 25.1796 36.3378 24.7971 36.3378 23.9776C36.3378 23.5866 36.2436 23.3539 36.0652 23.1708C35.8576 22.9636 35.5184 22.8791 35.0255 22.8671Z" fill="#016FD0"/>
</svg>
