<svg width="16" height="16" viewBox="0 0 16 16" fill="none" xmlns="http://www.w3.org/2000/svg">
<path d="M8.00006 1.5C6.71449 1.5 5.45778 1.88122 4.38886 2.59545C3.31994 3.30968 2.48682 4.32484 1.99485 5.51256C1.50288 6.70028 1.37416 8.00721 1.62496 9.26809C1.87576 10.529 2.49483 11.6872 3.40387 12.5962C4.31291 13.5052 5.4711 14.1243 6.73198 14.3751C7.99285 14.6259 9.29979 14.4972 10.4875 14.0052C11.6752 13.5132 12.6904 12.6801 13.4046 11.6112C14.1188 10.5423 14.5001 9.28558 14.5001 8C14.4981 6.27669 13.8127 4.62452 12.5941 3.40596C11.3755 2.1874 9.72337 1.50195 8.00006 1.5ZM7.8751 4.50002C8.02343 4.50002 8.16844 4.54401 8.29178 4.62642C8.41511 4.70883 8.51124 4.82597 8.56801 4.96301C8.62477 5.10006 8.63963 5.25086 8.61069 5.39634C8.58175 5.54183 8.51032 5.67546 8.40543 5.78035C8.30054 5.88524 8.1669 5.95667 8.02142 5.98561C7.87593 6.01455 7.72513 5.9997 7.58809 5.94293C7.45104 5.88617 7.33391 5.79004 7.2515 5.6667C7.16908 5.54336 7.1251 5.39836 7.1251 5.25002C7.1251 5.05111 7.20412 4.86035 7.34477 4.71969C7.48542 4.57904 7.67619 4.50002 7.8751 4.50002ZM8.50007 11.5H8.00007C7.86746 11.5 7.74029 11.4473 7.64652 11.3535C7.55275 11.2598 7.50007 11.1326 7.50007 11V8C7.36746 8 7.24028 7.94732 7.14651 7.85355C7.05275 7.75979 7.00007 7.63261 7.00007 7.5C7.00007 7.36739 7.05275 7.24021 7.14651 7.14645C7.24028 7.05268 7.36746 7 7.50007 7H8.00007C8.13267 7.00001 8.25985 7.05269 8.35361 7.14645C8.44738 7.24022 8.50006 7.36739 8.50007 7.5V10.5C8.63268 10.5 8.75985 10.5527 8.85362 10.6464C8.94739 10.7402 9.00007 10.8674 9.00007 11C9.00007 11.1326 8.94739 11.2598 8.85362 11.3536C8.75985 11.4473 8.63268 11.5 8.50007 11.5Z" fill="#E1E4E8"/>
</svg>
