<svg width="16" height="17" viewBox="0 0 16 17" fill="none" xmlns="http://www.w3.org/2000/svg">
<path d="M8.00006 2C6.71449 2 5.45778 2.38122 4.38886 3.09545C3.31994 3.80968 2.48682 4.82484 1.99485 6.01256C1.50288 7.20028 1.37416 8.50721 1.62496 9.76809C1.87576 11.029 2.49483 12.1872 3.40387 13.0962C4.31291 14.0052 5.4711 14.6243 6.73198 14.8751C7.99285 15.1259 9.29979 14.9972 10.4875 14.5052C11.6752 14.0132 12.6904 13.1801 13.4046 12.1112C14.1188 11.0423 14.5001 9.78558 14.5001 8.5C14.4981 6.77669 13.8127 5.12452 12.5941 3.90596C11.3755 2.6874 9.72337 2.00195 8.00006 2ZM7.8751 5.00002C8.02343 5.00002 8.16844 5.04401 8.29178 5.12642C8.41511 5.20883 8.51124 5.32597 8.56801 5.46301C8.62477 5.60006 8.63963 5.75086 8.61069 5.89634C8.58175 6.04183 8.51032 6.17546 8.40543 6.28035C8.30054 6.38524 8.1669 6.45667 8.02142 6.48561C7.87593 6.51455 7.72513 6.4997 7.58809 6.44293C7.45104 6.38617 7.33391 6.29004 7.2515 6.1667C7.16908 6.04336 7.1251 5.89836 7.1251 5.75002C7.1251 5.55111 7.20412 5.36035 7.34477 5.21969C7.48542 5.07904 7.67619 5.00002 7.8751 5.00002ZM8.50007 12H8.00007C7.86746 12 7.74029 11.9473 7.64652 11.8535C7.55275 11.7598 7.50007 11.6326 7.50007 11.5V8.5C7.36746 8.5 7.24028 8.44732 7.14651 8.35355C7.05275 8.25979 7.00007 8.13261 7.00007 8C7.00007 7.86739 7.05275 7.74021 7.14651 7.64645C7.24028 7.55268 7.36746 7.5 7.50007 7.5H8.00007C8.13267 7.50001 8.25985 7.55269 8.35361 7.64645C8.44738 7.74022 8.50006 7.86739 8.50007 8V11C8.63268 11 8.75985 11.0527 8.85362 11.1464C8.94739 11.2402 9.00007 11.3674 9.00007 11.5C9.00007 11.6326 8.94739 11.7598 8.85362 11.8536C8.75985 11.9473 8.63268 12 8.50007 12Z" fill="#6A737D"/>
</svg>
