<svg width="20" height="20" viewBox="0 0 20 20" fill="none" xmlns="http://www.w3.org/2000/svg">
<path fill-rule="evenodd" clip-rule="evenodd" d="M12.9991 2.53524C11.8542 2.41919 10.7044 2.70198 9.74392 3.33583C8.78348 3.96968 8.07135 4.91571 7.72791 6.014C7.38601 7.10734 7.43034 8.28481 7.8532 9.34912C7.95275 9.58026 7.90462 9.85435 7.72094 10.038L3.12524 14.6337V16.8748H5.00024V15.6248C5.00024 15.2797 5.28007 14.9998 5.62524 14.9998H6.87524V13.7498C6.87524 13.4047 7.15507 13.1248 7.50024 13.1248H9.11636L9.96203 12.2792C10.1452 12.096 10.4187 12.0474 10.6499 12.1465C11.7145 12.5697 12.8924 12.6142 13.9861 12.2722C15.0844 11.9287 16.0304 11.2166 16.6643 10.2562C17.2981 9.29575 17.5809 8.14592 17.4649 7.00105C17.3488 5.85618 16.841 4.78649 16.0273 3.97279C15.2136 3.1591 14.1439 2.6513 12.9991 2.53524ZM10.5649 13.444C11.7936 13.8434 13.1196 13.8528 14.3592 13.4652C15.7323 13.0358 16.9151 12.1455 17.7075 10.9447C18.5 9.74393 18.8536 8.30636 18.7085 6.87499C18.5634 5.44361 17.9285 4.10623 16.9112 3.08891C15.8939 2.07159 14.5565 1.43672 13.1251 1.29162C11.6938 1.14652 10.2562 1.50008 9.05539 2.29255C7.85461 3.08502 6.96427 4.26779 6.53488 5.64092C6.14725 6.88048 6.15671 8.20653 6.55606 9.43515L2.0583 13.9329C1.94109 14.0501 1.87524 14.2091 1.87524 14.3748V17.4998C1.87524 17.845 2.15507 18.1248 2.50024 18.1248H5.62524C5.97042 18.1248 6.25024 17.845 6.25024 17.4998V16.2498H7.50024C7.84542 16.2498 8.12524 15.97 8.12524 15.6248V14.3748H9.37524C9.541 14.3748 9.69998 14.309 9.81719 14.1918L10.5649 13.444Z" fill="#4864F5"/>
<path d="M14.0625 6.875C14.5803 6.875 15 6.45527 15 5.9375C15 5.41973 14.5803 5 14.0625 5C13.5447 5 13.125 5.41973 13.125 5.9375C13.125 6.45527 13.5447 6.875 14.0625 6.875Z" fill="#4864F5"/>
</svg>
