<svg width="40" height="40" viewBox="0 0 40 40" fill="none" xmlns="http://www.w3.org/2000/svg">
<rect width="40" height="40" rx="20" fill="#FED402"/>
<path d="M26.4056 29.9487L26.9001 29.9358L27.3876 29.9007L27.8659 29.8401L28.3408 29.757L28.8026 29.6515L29.2581 29.5237L29.7039 29.3734L30.1401 29.2041L30.5664 29.0124L30.98 28.8047L31.3805 28.5745L31.7714 28.3283L32.1461 28.0632L32.5078 27.7819L32.8567 27.4846L33.1895 27.1684L33.5093 26.8391L33.8097 26.4939L34.094 26.1359L34.362 25.7653L34.6107 25.3786L34.8435 24.9821L35.0534 24.5731L35.2472 24.1512L35.4183 23.7199L35.5702 23.2786L35.6996 22.8282L35.8061 22.3711L35.8901 21.9013L35.9514 21.4283L35.987 20.9458L35.9998 20.4568L35.987 19.971L35.9514 19.4917L35.8901 19.0186L35.8061 18.5552L35.6996 18.0983L35.5702 17.6507L35.4183 17.2097L35.2472 16.7814L35.0534 16.3628L34.8435 15.9537L34.6107 15.5606L34.362 15.1739L34.094 14.8031L33.8097 14.4483L33.5093 14.1032L33.1895 13.774L32.8567 13.4608L32.5078 13.1636L32.1461 12.8825L31.7714 12.6171L31.3805 12.371L30.98 12.1441L30.5664 11.9364L30.1401 11.7446L29.7039 11.5753L29.2581 11.425L28.8026 11.2972L28.3408 11.1917L27.8659 11.1086L27.3876 11.0479L26.9001 11.0128L26.4056 11L25.9146 11.0128L25.4269 11.0479L24.9488 11.1086L24.4771 11.1917L24.0153 11.2972L23.5597 11.425L23.1172 11.5753L22.6812 11.7446L22.2579 11.9364L21.8476 12.1441L21.4471 12.371L21.0595 12.6171L20.6848 12.8825L20.3229 13.1636L19.9774 13.4608L19.6447 13.774L19.328 14.1032L19.0276 14.4483L18.7434 14.8031L18.4785 15.1739L18.2296 15.5606L18.0004 15.9537L17.7872 16.3628L17.5964 16.7814L17.4253 17.2097L17.2767 17.6507L17.1475 18.0983L17.0409 18.5552L16.9569 19.0186L16.8956 19.4917L16.8601 19.971L16.8472 20.4568L16.8601 20.9458L16.8956 21.4283L16.9569 21.9013L17.0409 22.3711L17.1475 22.8282L17.2767 23.2786L17.4253 23.7199L17.5964 24.1512L17.7872 24.5731L18.0004 24.9821L18.2296 25.3786L18.4785 25.7653L18.7434 26.1359L19.0276 26.4939L19.328 26.8391L19.6447 27.1684L19.9774 27.4846L20.3229 27.7819L20.6848 28.0632L21.0595 28.3283L21.4471 28.5745L21.8476 28.8047L22.2579 29.0124L22.6812 29.2041L23.1172 29.3734L23.5597 29.5237L24.0153 29.6515L24.4771 29.757L24.9488 29.8401L25.4269 29.9007L25.9146 29.9358L26.4056 29.9487Z" fill="#F7A826"/>
<path d="M13.5942 29.9487L14.0853 29.9358L14.573 29.9007L15.0512 29.8401L15.5228 29.757L15.9848 29.6515L16.4401 29.5237L16.8828 29.3734L17.3189 29.2041L17.7419 29.0124L18.1523 28.8047L18.5529 28.5745L18.9406 28.3283L19.3153 28.0632L19.6771 27.7819L20.0226 27.4846L20.3555 27.1684L20.6722 26.8391L20.9725 26.4939L21.2567 26.1359L21.5216 25.7653L21.7704 25.3786L21.9997 24.9821L22.2129 24.5731L22.4035 24.1512L22.5748 23.7199L22.7232 23.2786L22.8524 22.8282L22.9592 22.3711L23.0432 21.9013L23.1044 21.4283L23.1401 20.9458L23.1529 20.4568L23.1401 19.971L23.1044 19.4917L23.0432 19.0186L22.9592 18.5552L22.8524 18.0983L22.7232 17.6507L22.5748 17.2097L22.4035 16.7814L22.2129 16.3628L21.9997 15.9537L21.7704 15.5606L21.5216 15.1739L21.2567 14.8031L20.9725 14.4483L20.6722 14.1032L20.3555 13.774L20.0226 13.4608L19.6771 13.1636L19.3153 12.8825L18.9406 12.6171L18.5529 12.371L18.1523 12.1441L17.7419 11.9364L17.3189 11.7446L16.8828 11.5753L16.4401 11.425L15.9848 11.2972L15.5228 11.1917L15.0512 11.1086L14.573 11.0479L14.0853 11.0128L13.5942 11L13.1001 11.0128L12.6124 11.0479L12.1342 11.1086L11.6592 11.1917L11.1974 11.2972L10.7419 11.425L10.2961 11.5753L9.85994 11.7446L9.43369 11.9364L9.02014 12.1441L8.6195 12.371L8.22874 12.6171L7.85382 12.8825L7.49211 13.1636L7.1433 13.4608L6.81063 13.774L6.49066 14.1032L6.19015 14.4483L5.90609 14.8031L5.63805 15.1739L5.38918 15.5606L5.15654 15.9537L4.94639 16.3628L4.75277 16.7814L4.58165 17.2097L4.42968 17.6507L4.3005 18.0983L4.19392 18.5552L4.11002 19.0186L4.0485 19.4917L4.01311 19.971L4 20.4568L4.01311 20.9458L4.0485 21.4283L4.11002 21.9013L4.19392 22.3711L4.3005 22.8282L4.42968 23.2786L4.58165 23.7199L4.75277 24.1512L4.94639 24.5731L5.15654 24.9821L5.38918 25.3786L5.63805 25.7653L5.90609 26.1359L6.19015 26.4939L6.49066 26.8391L6.81063 27.1684L7.1433 27.4846L7.49211 27.7819L7.85382 28.0632L8.22874 28.3283L8.6195 28.5745L9.02014 28.8047L9.43369 29.0124L9.85994 29.2041L10.2961 29.3734L10.7419 29.5237L11.1974 29.6515L11.6592 29.757L12.1342 29.8401L12.6124 29.9007L13.1001 29.9358L13.5942 29.9487Z" fill="#ED1C2E"/>
<path d="M18.8794 14.6337H23.9673V14.1191H19.3188L18.8794 14.6337Z" fill="#F7A826"/>
<path d="M18.1167 15.7783H23.9669V15.2637H18.4235L18.1167 15.7783Z" fill="#F7A826"/>
<path d="M17.5481 16.9189H23.9669V16.4043H17.7743L17.5481 16.9189Z" fill="#F7A826"/>
<path d="M17.1572 18.0633H23.9669V17.5488H17.3188L17.1572 18.0633Z" fill="#F7A826"/>
<path d="M17.3837 23.5917H23.9834V23.0771H17.2222L17.3837 23.5917Z" fill="#F7A826"/>
<path d="M17.8711 24.7361H23.9831V24.2217H17.6289L17.8711 24.7361Z" fill="#F7A826"/>
<path d="M18.5563 25.8769H23.9834V25.3623H18.23L18.5563 25.8769Z" fill="#F7A826"/>
<path d="M19.4996 27.0216H23.9833V26.5039H19.0439L19.4996 27.0216Z" fill="#F7A826"/>
<path d="M16.928 19.2041H23.9669V18.6895H17.028L16.928 19.2041Z" fill="#F7A826"/>
<path d="M21.2178 22.4511H23.9022V21.9365H21.3146L21.2178 22.4511Z" fill="#F7A826"/>
<path d="M21.4314 21.3098H23.9027V20.792H21.5284L21.4314 21.3098Z" fill="#F7A826"/>
<path d="M16.7505 20.792H17.4483V21.3098H16.7829L16.7505 20.792Z" fill="#F7A826"/>
<path d="M15.4486 20.1687L15.4031 20.1656L15.358 20.1591L15.316 20.1527L15.274 20.1464L15.2352 20.1401L15.1934 20.1336L15.1512 20.1271L15.1061 20.1208L15.0608 20.1143L15.0092 20.1111L14.9511 20.1081L14.8897 20.1048H14.8219L14.7475 20.1081L14.6635 20.1143L14.57 20.1208L14.5051 20.1304L14.4439 20.1401L14.3889 20.1591L14.3404 20.1784L14.2953 20.2007L14.2533 20.2263L14.2208 20.2582L14.1917 20.287L14.1724 20.3221L14.1564 20.3573L14.1499 20.3957V20.4341L14.1595 20.4756L14.1724 20.517L14.1986 20.5586L14.2305 20.6002L14.2953 20.6608L14.3728 20.7089L14.4632 20.7503L14.5601 20.7855L14.6635 20.8174L14.77 20.8527L14.8766 20.891L14.9802 20.9327L15.0771 20.9868L15.1674 21.054L15.2481 21.1339L15.316 21.233L15.3678 21.3544L15.4001 21.4984L15.413 21.6708L15.4001 21.8721L15.3774 22.0223L15.3387 22.1533L15.2868 22.2748L15.2224 22.3802L15.1481 22.473L15.0641 22.5528L14.9735 22.6233L14.8735 22.684L14.77 22.7318L14.6635 22.7734L14.5536 22.8053L14.4407 22.8309L14.3308 22.85L14.2242 22.8597L14.1176 22.8661L14.0174 22.8693H13.8784L13.7493 22.8661H13.6363L13.5297 22.8628L13.4328 22.8597L13.3457 22.8533L13.2681 22.8469L13.1936 22.8373L13.1258 22.8309L13.0644 22.8182L13.0032 22.8086L12.948 22.7926L12.8933 22.7799L12.8415 22.7607L12.7899 22.7415L12.7349 22.7222L12.8803 22.0161L12.9095 22.0223L12.945 22.0319L12.9901 22.0448L13.045 22.0575L13.1032 22.0702L13.1679 22.0832L13.2391 22.099L13.3165 22.1119L13.3973 22.1246L13.4813 22.1373L13.5685 22.1471L13.659 22.1567L13.7525 22.1599L13.8462 22.163H13.9399L14.0336 22.1599L14.1274 22.1406L14.2015 22.115L14.2597 22.0798L14.3048 22.0351L14.3371 21.9905L14.3631 21.9391L14.3793 21.8881L14.3923 21.8402L14.3985 21.7476L14.3695 21.6677L14.3147 21.6038L14.234 21.5494L14.137 21.5014L14.0239 21.4535L13.8979 21.4087L13.7718 21.3577L13.6427 21.3001L13.52 21.233L13.4069 21.1498L13.3035 21.0507L13.2226 20.9293L13.1645 20.7855L13.1355 20.6129L13.1388 20.4084L13.1549 20.2838L13.1777 20.1656L13.21 20.0569L13.2485 19.9546L13.3002 19.8587L13.3585 19.7756L13.4263 19.6958L13.507 19.6255L13.6009 19.5648L13.7041 19.5136L13.8203 19.4655L13.9496 19.4304L14.095 19.4017L14.2533 19.3793L14.4277 19.3665L14.6185 19.3633H14.7378L14.8476 19.3665L14.9478 19.3697L15.0384 19.373L15.119 19.3793L15.1934 19.3858L15.2578 19.3921L15.316 19.3985L15.371 19.4049L15.4162 19.4144L15.4583 19.4209L15.497 19.4272L15.5293 19.4337L15.5585 19.4368L15.5873 19.4432L15.6133 19.4465L15.4486 20.1687Z" fill="white"/>
<path d="M15.4486 20.1687L15.4031 20.1656L15.358 20.1591L15.316 20.1527L15.274 20.1464L15.2352 20.1401L15.1934 20.1336L15.1512 20.1271L15.1061 20.1208L15.0608 20.1143L15.0092 20.1111L14.9511 20.1081L14.8897 20.1048H14.8219L14.7475 20.1081L14.6635 20.1143L14.57 20.1208L14.5051 20.1304L14.4439 20.1401L14.3889 20.1591L14.3404 20.1784L14.2953 20.2007L14.2533 20.2263L14.2208 20.2582L14.1917 20.287L14.1724 20.3221L14.1564 20.3573L14.1499 20.3957V20.4341L14.1595 20.4756L14.1724 20.517L14.1986 20.5586L14.2305 20.6002L14.2953 20.6608L14.3728 20.7089L14.4632 20.7503L14.5601 20.7855L14.6635 20.8174L14.77 20.8527L14.8766 20.891L14.9802 20.9327L15.0771 20.9868L15.1674 21.054L15.2481 21.1339L15.316 21.233L15.3678 21.3544L15.4001 21.4984L15.413 21.6708L15.4001 21.8721L15.3774 22.0223L15.3387 22.1533L15.2868 22.2748L15.2224 22.3802L15.1481 22.473L15.0641 22.5528L14.9735 22.6233L14.8735 22.684L14.77 22.7318L14.6635 22.7734L14.5536 22.8053L14.4407 22.8309L14.3308 22.85L14.2242 22.8597L14.1176 22.8661L14.0174 22.8693H13.8784L13.7493 22.8661H13.6363L13.5297 22.8628L13.4328 22.8597L13.3457 22.8533L13.2681 22.8469L13.1936 22.8373L13.1258 22.8309L13.0644 22.8182L13.0032 22.8086L12.948 22.7926L12.8933 22.7799L12.8415 22.7607L12.7899 22.7415L12.7349 22.7222L12.8803 22.0161L12.9095 22.0223L12.945 22.0319L12.9901 22.0448L13.045 22.0575L13.1032 22.0702L13.1679 22.0832L13.2391 22.099L13.3165 22.1119L13.3973 22.1246L13.4813 22.1373L13.5685 22.1471L13.659 22.1567L13.7525 22.1599L13.8462 22.163H13.9399L14.0336 22.1599L14.1274 22.1406L14.2015 22.115L14.2597 22.0798L14.3048 22.0351L14.3371 21.9905L14.3631 21.9391L14.3793 21.8881L14.3923 21.8402L14.3985 21.7476L14.3695 21.6677L14.3147 21.6038L14.234 21.5494L14.137 21.5014L14.0239 21.4535L13.8979 21.4087L13.7718 21.3577L13.6427 21.3001L13.52 21.233L13.4069 21.1498L13.3035 21.0507L13.2226 20.9293L13.1645 20.7855L13.1355 20.6129L13.1388 20.4084L13.1549 20.2838L13.1777 20.1656L13.21 20.0569L13.2485 19.9546L13.3002 19.8587L13.3585 19.7756L13.4263 19.6958L13.507 19.6255L13.6009 19.5648L13.7041 19.5136L13.8203 19.4655L13.9496 19.4304L14.095 19.4017L14.2533 19.3793L14.4277 19.3665L14.6185 19.3633H14.7378L14.8476 19.3665L14.9478 19.3697L15.0384 19.373L15.119 19.3793L15.1934 19.3858L15.2578 19.3921L15.316 19.3985L15.371 19.4049L15.4162 19.4144L15.4583 19.4209L15.497 19.4272L15.5293 19.4337L15.5585 19.4368L15.5873 19.4432L15.6133 19.4465L15.4486 20.1687Z" stroke="white" stroke-width="0.216" stroke-miterlimit="2.6131"/>
<path d="M16.2141 18.6572H17.1089L16.9764 19.4306H17.516L17.3995 20.1528L16.8311 20.137L16.521 21.9202L16.5178 21.9841L16.5339 22.0384L16.5663 22.08L16.6081 22.1151L16.6662 22.1374L16.7312 22.1568L16.8018 22.1695L16.8795 22.1758L16.9506 22.1726L17.0151 22.1663L17.0735 22.1568L17.1249 22.144L17.167 22.1312L17.1961 22.1216L17.2155 22.1151L17.2219 22.112L17.1089 22.7065L17.0863 22.7223L17.0636 22.7352L17.041 22.7479L17.0183 22.7608L16.9959 22.7704L16.9699 22.78L16.9409 22.7896L16.9118 22.7991L16.8795 22.8087L16.8473 22.815L16.8086 22.8214L16.7698 22.8279L16.7277 22.8342L16.6792 22.8406L16.6275 22.847L16.5726 22.8534H16.3271L16.1978 22.8438L16.085 22.831L15.9814 22.8119L15.8942 22.7896L15.82 22.7608L15.7585 22.7288L15.7036 22.6904L15.6616 22.6489L15.6295 22.6042L15.6067 22.5498L15.5905 22.4954L15.5809 22.4348L15.5776 22.3678V22.2973L15.5873 22.224L15.597 22.144L16.2141 18.6572Z" fill="white"/>
<path d="M16.2141 18.6572H17.1089L16.9764 19.4306H17.516L17.3995 20.1528L16.8311 20.137L16.521 21.9202L16.5178 21.9841L16.5339 22.0384L16.5663 22.08L16.6081 22.1151L16.6662 22.1374L16.7312 22.1568L16.8018 22.1695L16.8795 22.1758L16.9506 22.1726L17.0151 22.1663L17.0735 22.1568L17.1249 22.144L17.167 22.1312L17.1961 22.1216L17.2155 22.1151L17.2219 22.112L17.1089 22.7065L17.0863 22.7223L17.0636 22.7352L17.041 22.7479L17.0183 22.7608L16.9959 22.7704L16.9699 22.78L16.9409 22.7896L16.9118 22.7991L16.8795 22.8087L16.8473 22.815L16.8086 22.8214L16.7698 22.8279L16.7277 22.8342L16.6792 22.8406L16.6275 22.847L16.5726 22.8534H16.3271L16.1978 22.8438L16.085 22.831L15.9814 22.8119L15.8942 22.7896L15.82 22.7608L15.7585 22.7288L15.7036 22.6904L15.6616 22.6489L15.6295 22.6042L15.6067 22.5498L15.5905 22.4954L15.5809 22.4348L15.5776 22.3678V22.2973L15.5873 22.224L15.597 22.144L16.2141 18.6572Z" stroke="white" stroke-width="0.216" stroke-miterlimit="2.6131"/>
<path d="M18.2295 21.3577L18.2198 21.4119L18.2168 21.4694L18.2232 21.5302L18.2361 21.5908L18.2587 21.6517L18.2846 21.7092L18.32 21.7698L18.3587 21.8242L18.404 21.8785L18.4526 21.9264L18.5042 21.9744L18.5624 22.0128L18.6205 22.048L18.6851 22.0767L18.7497 22.099L18.8144 22.1119L18.8983 22.1246L18.9791 22.1342L19.063 22.1439L19.147 22.1502L19.231 22.1533H19.3182L19.4022 22.1502L19.4895 22.1439L19.5769 22.131L19.664 22.115L19.7543 22.0959L19.8417 22.0671L19.9319 22.0319L20.0256 21.9936L20.1161 21.9425L20.2098 21.8881L20.0806 22.6743L20.0289 22.6999L19.9773 22.7254L19.9256 22.7447L19.8771 22.7638L19.8287 22.7799L19.7769 22.7957L19.7252 22.8086L19.6702 22.8182L19.6123 22.8278L19.5477 22.8341L19.4799 22.8405L19.4054 22.8469L19.3216 22.85H19.2343L19.1341 22.8533H19.0276L18.8693 22.85L18.7077 22.8341L18.5462 22.8117L18.3847 22.7734L18.2265 22.7254L18.0744 22.6647L17.9292 22.5849L17.7936 22.4922L17.6676 22.3836L17.5576 22.2526L17.4642 22.1054L17.3865 21.9361L17.3315 21.7476L17.2961 21.5334L17.2864 21.2968L17.3026 21.0347L17.3154 20.9327L17.3349 20.8143L17.3605 20.6896L17.3963 20.5553L17.4448 20.4181L17.5029 20.2805L17.577 20.1401L17.6676 20.0057L17.7708 19.8779L17.8969 19.7565L18.0391 19.6478L18.2006 19.552L18.3878 19.4721L18.5979 19.4144L18.8304 19.3761L19.092 19.3633L19.218 19.3665L19.3507 19.3793L19.4829 19.4017L19.6156 19.4337L19.7447 19.4816L19.8707 19.5391L19.987 19.6158L20.0936 19.7053L20.1905 19.814L20.2712 19.9418L20.3358 20.0888L20.3811 20.2582L20.4069 20.4499L20.4101 20.6672L20.3875 20.9102L20.339 21.1787L20.3229 21.3735H17.9679L18.1166 20.7439H19.5314L19.538 20.6641L19.5347 20.5874L19.5283 20.517L19.5154 20.4533L19.4926 20.3925L19.4701 20.3381L19.4378 20.2901L19.4054 20.2454L19.3667 20.2071L19.3247 20.175L19.2763 20.1464L19.2279 20.1208L19.1762 20.1015L19.1244 20.0888L19.0695 20.0792L19.0114 20.0728L18.95 20.076L18.892 20.0856L18.8368 20.0984L18.782 20.1176L18.7271 20.1431L18.6786 20.1719L18.6302 20.2071L18.5882 20.2454L18.5462 20.2901L18.5075 20.3381L18.4719 20.3891L18.4429 20.4437L18.4138 20.5012L18.3912 20.5651L18.3718 20.6289L18.3587 20.696L18.2295 21.3577Z" fill="white"/>
<path d="M18.2295 21.3577L18.2198 21.4119L18.2168 21.4694L18.2232 21.5302L18.2361 21.5908L18.2587 21.6517L18.2846 21.7092L18.32 21.7698L18.3587 21.8242L18.404 21.8785L18.4526 21.9264L18.5042 21.9744L18.5624 22.0128L18.6205 22.048L18.6851 22.0767L18.7497 22.099L18.8144 22.1119L18.8983 22.1246L18.9791 22.1342L19.063 22.1439L19.147 22.1502L19.231 22.1533H19.3182L19.4022 22.1502L19.4895 22.1439L19.5769 22.131L19.664 22.115L19.7543 22.0959L19.8417 22.0671L19.9319 22.0319L20.0256 21.9936L20.1161 21.9425L20.2098 21.8881L20.0806 22.6743L20.0289 22.6999L19.9773 22.7254L19.9256 22.7447L19.8771 22.7638L19.8287 22.7799L19.7769 22.7957L19.7252 22.8086L19.6702 22.8182L19.6123 22.8278L19.5477 22.8341L19.4799 22.8405L19.4054 22.8469L19.3216 22.85H19.2343L19.1341 22.8533H19.0276L18.8693 22.85L18.7077 22.8341L18.5462 22.8117L18.3847 22.7734L18.2265 22.7254L18.0744 22.6647L17.9292 22.5849L17.7936 22.4922L17.6676 22.3836L17.5576 22.2526L17.4642 22.1054L17.3865 21.9361L17.3315 21.7476L17.2961 21.5334L17.2864 21.2968L17.3026 21.0347L17.3154 20.9327L17.3349 20.8143L17.3605 20.6896L17.3963 20.5553L17.4448 20.4181L17.5029 20.2805L17.577 20.1401L17.6676 20.0057L17.7708 19.8779L17.8969 19.7565L18.0391 19.6478L18.2006 19.552L18.3878 19.4721L18.5979 19.4144L18.8304 19.3761L19.092 19.3633L19.218 19.3665L19.3507 19.3793L19.4829 19.4017L19.6156 19.4337L19.7447 19.4816L19.8707 19.5391L19.987 19.6158L20.0936 19.7053L20.1905 19.814L20.2712 19.9418L20.3358 20.0888L20.3811 20.2582L20.4069 20.4499L20.4101 20.6672L20.3875 20.9102L20.339 21.1787L20.3229 21.3735H17.9679L18.1166 20.7439H19.5314L19.538 20.6641L19.5347 20.5874L19.5283 20.517L19.5154 20.4533L19.4926 20.3925L19.4701 20.3381L19.4378 20.2901L19.4054 20.2454L19.3667 20.2071L19.3247 20.175L19.2763 20.1464L19.2279 20.1208L19.1762 20.1015L19.1244 20.0888L19.0695 20.0792L19.0114 20.0728L18.95 20.076L18.892 20.0856L18.8368 20.0984L18.782 20.1176L18.7271 20.1431L18.6786 20.1719L18.6302 20.2071L18.5882 20.2454L18.5462 20.2901L18.5075 20.3381L18.4719 20.3891L18.4429 20.4437L18.4138 20.5012L18.3912 20.5651L18.3718 20.6289L18.3587 20.696L18.2295 21.3577Z" stroke="white" stroke-width="0.216" stroke-miterlimit="2.6131"/>
<path d="M25.9343 19.6227L25.8923 19.6003L25.8504 19.5812L25.8052 19.5588L25.7567 19.5364L25.7083 19.5172L25.6532 19.4981L25.5984 19.4789L25.5402 19.4597L25.4789 19.4437L25.4175 19.4309L25.3497 19.4181L25.2818 19.4086L25.2075 19.4022L25.1331 19.3958H25.0556H24.975H24.8942L24.8101 19.4022L24.7229 19.4118L24.6326 19.4277L24.542 19.4533L24.4517 19.4885L24.3612 19.5333L24.2706 19.5907L24.1836 19.661L24.0995 19.7441L24.0187 19.8464L23.9412 19.9647L23.8702 20.1052L23.8022 20.2651L23.741 20.4442L23.6894 20.6486L23.6699 20.7635L23.6569 20.8755L23.6504 20.9873L23.6538 21.0961L23.6634 21.2046L23.686 21.307L23.7151 21.4027L23.7506 21.4989L23.7991 21.5851L23.8572 21.6682L23.925 21.7416L24.0025 21.8086L24.0899 21.8661L24.1899 21.9142L24.2998 21.9558L24.4227 21.9844L24.4645 21.9941L24.5129 22.0037L24.571 22.0101L24.6357 22.0166L24.7067 22.0228H24.7811H24.8619L24.9426 22.0166L25.0266 22.0068L25.1106 21.991L25.1913 21.9686L25.2721 21.943L25.3528 21.9078L25.4271 21.8661L25.495 21.8151L25.5595 21.7576L25.4143 22.6109L25.3949 22.6269L25.3755 22.6459L25.3497 22.6684L25.3206 22.6876L25.285 22.7132L25.2397 22.7356L25.1881 22.7578L25.13 22.777L25.0556 22.7995L24.9716 22.8153L24.8748 22.8282L24.7617 22.8409L24.6357 22.8474L24.4904 22.8505L24.3255 22.8474L24.1446 22.8378L23.9961 22.8218L23.8475 22.7899L23.6989 22.742L23.5503 22.6781L23.4082 22.6013L23.2726 22.5053L23.1433 22.3936L23.0238 22.2657L22.9172 22.1219L22.8268 21.9621L22.7492 21.7832L22.6911 21.5882L22.6524 21.374L22.6394 21.1471L22.6459 20.8978L22.6815 20.6327L22.7071 20.5016L22.7362 20.3738L22.7686 20.2491L22.8009 20.1308L22.8364 20.019L22.8783 19.9071L22.9204 19.8017L22.9655 19.7026L23.0142 19.6035L23.0626 19.5109L23.1175 19.4213L23.1755 19.3382L23.2337 19.2584L23.2985 19.1816L23.3629 19.1114L23.4307 19.0443L23.505 18.9804L23.5794 18.9196L23.6569 18.8653L23.7378 18.8142L23.825 18.7661L23.9121 18.7246L24.0025 18.6863L24.0962 18.6511L24.1965 18.6191L24.2965 18.5935L24.3999 18.5713L24.5098 18.552L24.6195 18.5361L24.736 18.5233L24.8522 18.5169L24.975 18.5137L25.0783 18.5169L25.1785 18.5233L25.2753 18.5327L25.3723 18.5456L25.4627 18.5584L25.55 18.5776L25.634 18.5935L25.7114 18.6127L25.7857 18.632L25.8504 18.6511L25.9117 18.6703L25.9635 18.6894L26.0086 18.7055L26.0474 18.7182L26.0765 18.731L26.0958 18.7374L25.9343 19.6227Z" fill="white"/>
<path d="M25.9343 19.6227L25.8923 19.6003L25.8504 19.5812L25.8052 19.5588L25.7567 19.5364L25.7083 19.5172L25.6532 19.4981L25.5984 19.4789L25.5402 19.4597L25.4789 19.4437L25.4175 19.4309L25.3497 19.4181L25.2818 19.4086L25.2075 19.4022L25.1331 19.3958H25.0556H24.975H24.8942L24.8101 19.4022L24.7229 19.4118L24.6326 19.4277L24.542 19.4533L24.4517 19.4885L24.3612 19.5333L24.2706 19.5907L24.1836 19.661L24.0995 19.7441L24.0187 19.8464L23.9412 19.9647L23.8702 20.1052L23.8022 20.2651L23.741 20.4442L23.6894 20.6486L23.6699 20.7635L23.6569 20.8755L23.6504 20.9873L23.6538 21.0961L23.6634 21.2046L23.686 21.307L23.7151 21.4027L23.7506 21.4989L23.7991 21.5851L23.8572 21.6682L23.925 21.7416L24.0025 21.8086L24.0899 21.8661L24.1899 21.9142L24.2998 21.9558L24.4227 21.9844L24.4645 21.9941L24.5129 22.0037L24.571 22.0101L24.6357 22.0166L24.7067 22.0228H24.7811H24.8619L24.9426 22.0166L25.0266 22.0068L25.1106 21.991L25.1913 21.9686L25.2721 21.943L25.3528 21.9078L25.4271 21.8661L25.495 21.8151L25.5595 21.7576L25.4143 22.6109L25.3949 22.6269L25.3755 22.6459L25.3497 22.6684L25.3206 22.6876L25.285 22.7132L25.2397 22.7356L25.1881 22.7578L25.13 22.777L25.0556 22.7995L24.9716 22.8153L24.8748 22.8282L24.7617 22.8409L24.6357 22.8474L24.4904 22.8505L24.3255 22.8474L24.1446 22.8378L23.9961 22.8218L23.8475 22.7899L23.6989 22.742L23.5503 22.6781L23.4082 22.6013L23.2726 22.5053L23.1433 22.3936L23.0238 22.2657L22.9172 22.1219L22.8268 21.9621L22.7492 21.7832L22.6911 21.5882L22.6524 21.374L22.6394 21.1471L22.6459 20.8978L22.6815 20.6327L22.7071 20.5016L22.7362 20.3738L22.7686 20.2491L22.8009 20.1308L22.8364 20.019L22.8783 19.9071L22.9204 19.8017L22.9655 19.7026L23.0142 19.6035L23.0626 19.5109L23.1175 19.4213L23.1755 19.3382L23.2337 19.2584L23.2985 19.1816L23.3629 19.1114L23.4307 19.0443L23.505 18.9804L23.5794 18.9196L23.6569 18.8653L23.7378 18.8142L23.825 18.7661L23.9121 18.7246L24.0025 18.6863L24.0962 18.6511L24.1965 18.6191L24.2965 18.5935L24.3999 18.5713L24.5098 18.552L24.6195 18.5361L24.736 18.5233L24.8522 18.5169L24.975 18.5137L25.0783 18.5169L25.1785 18.5233L25.2753 18.5327L25.3723 18.5456L25.4627 18.5584L25.55 18.5776L25.634 18.5935L25.7114 18.6127L25.7857 18.632L25.8504 18.6511L25.9117 18.6703L25.9635 18.6894L26.0086 18.7055L26.0474 18.7182L26.0765 18.731L26.0958 18.7374L25.9343 19.6227Z" stroke="white" stroke-width="0.216" stroke-miterlimit="2.6131"/>
<path d="M33.8875 22.8541H32.9927L33.0573 22.4994V22.4673L33.0056 22.5313L32.9507 22.5888L32.8959 22.6401L32.8378 22.6848L32.7796 22.7262L32.7214 22.7615L32.6633 22.7902L32.6018 22.819L32.5406 22.8413L32.4791 22.8573L32.4178 22.8733L32.3531 22.8829L32.2885 22.8925L32.2272 22.8988L32.1626 22.9022H32.0979L31.93 22.8893L31.7749 22.8541L31.6327 22.7998L31.5037 22.7262L31.3872 22.6335L31.2837 22.525L31.1934 22.4067L31.1159 22.2725L31.0513 22.1285L30.9997 21.9786L30.9641 21.8219L30.9381 21.6589L30.9285 21.4958L30.9318 21.3296L30.9479 21.1666L30.9772 21.0036L31.0255 20.8151L31.0838 20.6361L31.1515 20.4732L31.2322 20.3197L31.3162 20.1758L31.413 20.0481L31.5133 19.9331L31.6198 19.8275L31.733 19.7349L31.8524 19.6549L31.9753 19.5847L32.0979 19.5304L32.2272 19.4856L32.3563 19.457L32.4856 19.4376L32.618 19.4312L32.7117 19.4345L32.8021 19.444L32.8861 19.46L32.9636 19.4824L33.0381 19.508L33.1026 19.5367L33.1673 19.5719L33.2254 19.607L33.277 19.6453L33.3254 19.6869L33.3674 19.7284L33.4063 19.7701L33.4385 19.8116L33.4676 19.8531L33.4934 19.8915L33.5128 19.9299L33.739 18.6738H34.6176L33.8875 22.8541Z" fill="white"/>
<path d="M33.8875 22.8541H32.9927L33.0573 22.4994V22.4673L33.0056 22.5313L32.9507 22.5888L32.8959 22.6401L32.8378 22.6848L32.7796 22.7262L32.7214 22.7615L32.6633 22.7902L32.6018 22.819L32.5406 22.8413L32.4791 22.8573L32.4178 22.8733L32.3531 22.8829L32.2885 22.8925L32.2272 22.8988L32.1626 22.9022H32.0979L31.93 22.8893L31.7749 22.8541L31.6327 22.7998L31.5037 22.7262L31.3872 22.6335L31.2837 22.525L31.1934 22.4067L31.1159 22.2725L31.0513 22.1285L30.9997 21.9786L30.9641 21.8219L30.9381 21.6589L30.9285 21.4958L30.9318 21.3296L30.9479 21.1666L30.9772 21.0036L31.0255 20.8151L31.0838 20.6361L31.1515 20.4732L31.2322 20.3197L31.3162 20.1758L31.413 20.0481L31.5133 19.9331L31.6198 19.8275L31.733 19.7349L31.8524 19.6549L31.9753 19.5847L32.0979 19.5304L32.2272 19.4856L32.3563 19.457L32.4856 19.4376L32.618 19.4312L32.7117 19.4345L32.8021 19.444L32.8861 19.46L32.9636 19.4824L33.0381 19.508L33.1026 19.5367L33.1673 19.5719L33.2254 19.607L33.277 19.6453L33.3254 19.6869L33.3674 19.7284L33.4063 19.7701L33.4385 19.8116L33.4676 19.8531L33.4934 19.8915L33.5128 19.9299L33.739 18.6738H34.6176L33.8875 22.8541Z" stroke="white" stroke-width="0.216" stroke-miterlimit="2.6131"/>
<path d="M32.4242 22.0803L32.5146 22.0741L32.5986 22.0549L32.6761 22.0324L32.7504 21.9972L32.8182 21.9589L32.8829 21.911L32.9442 21.8568L32.9991 21.7991L33.0475 21.7353L33.0929 21.6649L33.1348 21.5914L33.1704 21.5147L33.2026 21.4349L33.2284 21.3518L33.251 21.2654L33.2673 21.1792L33.2834 21.0896L33.2931 20.9969V20.9107L33.2898 20.8212L33.2803 20.7381L33.2673 20.6582L33.2447 20.5815L33.2188 20.508L33.1865 20.4442L33.1478 20.3833L33.1057 20.3322L33.0572 20.2875L33.0024 20.2492L32.9442 20.2236L32.8829 20.2076L32.8151 20.2012L32.7278 20.2076L32.6471 20.2204L32.5727 20.2459L32.4984 20.2779L32.4337 20.3195L32.3693 20.3707L32.3143 20.4249L32.2594 20.4856L32.2109 20.5558L32.1657 20.6294L32.1237 20.7061L32.0881 20.7892L32.0559 20.8755L32.0301 20.9617L32.0041 21.0545L31.9849 21.1472L31.9688 21.2878L31.9752 21.4412L31.9978 21.5978L32.0397 21.7481L32.1043 21.8791L32.1884 21.9844L32.295 22.0549L32.4242 22.0803Z" fill="#FCB331"/>
<path d="M12.5863 22.1446L12.4572 22.854H11.6432L11.6658 22.7229L11.682 22.6048L11.6949 22.5154L11.7077 22.4673L11.6626 22.5185L11.6109 22.5696L11.5495 22.6176L11.4818 22.6623L11.4041 22.7071L11.3234 22.7454L11.2394 22.7837L11.1521 22.8156L11.0584 22.8444L10.9648 22.8668L10.8712 22.8861L10.7743 22.8988L10.6805 22.9051L10.5869 22.9084L10.4964 22.8988L10.4092 22.8861L10.2961 22.8572L10.1927 22.8254L10.1024 22.7837L10.0217 22.7358L9.95051 22.6847L9.88587 22.6271L9.83424 22.5664L9.78877 22.5025L9.75014 22.4354L9.71798 22.3649L9.69206 22.2948L9.6726 22.2246L9.65969 22.151L9.65001 22.0774L9.64355 22.0071V21.9369L9.65313 21.8122L9.6726 21.6939L9.70497 21.582L9.74692 21.4734L9.79855 21.3712L9.85683 21.2785L9.9246 21.189L10.0023 21.1091L10.0829 21.0355L10.1733 20.9684L10.2671 20.9078L10.364 20.8566L10.4673 20.812L10.5739 20.7767L10.6838 20.748L10.7968 20.7288H10.8033L10.8195 20.7255L10.8421 20.7224L10.8775 20.7192L10.9163 20.7128L10.9615 20.7096L11.0099 20.7032L11.065 20.6967L11.12 20.6904L11.1748 20.684L11.233 20.6809L11.2846 20.6745L11.3363 20.6713L11.3846 20.668L11.4299 20.6649H11.4655H11.5399L11.6173 20.668L11.6884 20.6713H11.7595L11.8177 20.6745L11.8629 20.6776L11.8951 20.6809H11.9048L11.9114 20.6584L11.9307 20.6009L11.9469 20.5338L11.9533 20.4732L11.9404 20.4027L11.9114 20.3389L11.8726 20.2813L11.821 20.2334L11.7595 20.1918L11.6916 20.1631L11.6143 20.1438L11.53 20.1376L11.4398 20.1344L11.3428 20.1311H11.2427L11.1391 20.1344L11.0325 20.1408L10.9294 20.1502L10.8259 20.1599L10.7257 20.1727L10.6289 20.1855L10.5352 20.2014L10.4513 20.2174L10.3737 20.2334L10.3026 20.2526L10.2446 20.2717L10.1993 20.2941L10.1637 20.3132L10.3932 19.543L10.464 19.5144L10.5352 19.4888L10.6126 19.4663L10.6902 19.4504L10.7676 19.4344L10.8518 19.4216L10.9357 19.4089L11.0229 19.4025L11.1135 19.3961L11.2069 19.3929L11.304 19.3896H11.4041H11.5077H11.6143L11.7271 19.3929L11.8403 19.3961L11.9307 19.4025L12.0276 19.4184L12.1277 19.4408L12.2311 19.4695L12.3313 19.5079L12.4282 19.5527L12.5252 19.607L12.6155 19.6677L12.6962 19.7381L12.7674 19.8148L12.8318 19.901L12.8803 19.9969L12.9127 20.0992L12.9322 20.2079V20.3293L12.9127 20.4571L12.5863 22.1446Z" fill="white"/>
<path d="M12.5863 22.1446L12.4572 22.854H11.6432L11.6658 22.7229L11.682 22.6048L11.6949 22.5154L11.7077 22.4673L11.6626 22.5185L11.6109 22.5696L11.5495 22.6176L11.4818 22.6623L11.4041 22.7071L11.3234 22.7454L11.2394 22.7837L11.1521 22.8156L11.0584 22.8444L10.9648 22.8668L10.8712 22.8861L10.7743 22.8988L10.6805 22.9051L10.5869 22.9084L10.4964 22.8988L10.4092 22.8861L10.2961 22.8572L10.1927 22.8254L10.1024 22.7837L10.0217 22.7358L9.95051 22.6847L9.88587 22.6271L9.83424 22.5664L9.78877 22.5025L9.75014 22.4354L9.71798 22.3649L9.69206 22.2948L9.6726 22.2246L9.65969 22.151L9.65001 22.0774L9.64355 22.0071V21.9369L9.65313 21.8122L9.6726 21.6939L9.70497 21.582L9.74692 21.4734L9.79855 21.3712L9.85683 21.2785L9.9246 21.189L10.0023 21.1091L10.0829 21.0355L10.1733 20.9684L10.2671 20.9078L10.364 20.8566L10.4673 20.812L10.5739 20.7767L10.6838 20.748L10.7968 20.7288H10.8033L10.8195 20.7255L10.8421 20.7224L10.8775 20.7192L10.9163 20.7128L10.9615 20.7096L11.0099 20.7032L11.065 20.6967L11.12 20.6904L11.1748 20.684L11.233 20.6809L11.2846 20.6745L11.3363 20.6713L11.3846 20.668L11.4299 20.6649H11.4655H11.5399L11.6173 20.668L11.6884 20.6713H11.7595L11.8177 20.6745L11.8629 20.6776L11.8951 20.6809H11.9048L11.9114 20.6584L11.9307 20.6009L11.9469 20.5338L11.9533 20.4732L11.9404 20.4027L11.9114 20.3389L11.8726 20.2813L11.821 20.2334L11.7595 20.1918L11.6916 20.1631L11.6143 20.1438L11.53 20.1376L11.4398 20.1344L11.3428 20.1311H11.2427L11.1391 20.1344L11.0325 20.1408L10.9294 20.1502L10.8259 20.1599L10.7257 20.1727L10.6289 20.1855L10.5352 20.2014L10.4513 20.2174L10.3737 20.2334L10.3026 20.2526L10.2446 20.2717L10.1993 20.2941L10.1637 20.3132L10.3932 19.543L10.464 19.5144L10.5352 19.4888L10.6126 19.4663L10.6902 19.4504L10.7676 19.4344L10.8518 19.4216L10.9357 19.4089L11.0229 19.4025L11.1135 19.3961L11.2069 19.3929L11.304 19.3896H11.4041H11.5077H11.6143L11.7271 19.3929L11.8403 19.3961L11.9307 19.4025L12.0276 19.4184L12.1277 19.4408L12.2311 19.4695L12.3313 19.5079L12.4282 19.5527L12.5252 19.607L12.6155 19.6677L12.6962 19.7381L12.7674 19.8148L12.8318 19.901L12.8803 19.9969L12.9127 20.0992L12.9322 20.2079V20.3293L12.9127 20.4571L12.5863 22.1446Z" stroke="white" stroke-width="0.216" stroke-miterlimit="2.6131"/>
<path d="M11.8081 21.3106L11.8048 21.2947L11.792 21.2786L11.7726 21.269L11.7403 21.2626L11.7048 21.2563L11.6628 21.2529H11.6145H11.566L11.5142 21.2563L11.4592 21.2626L11.4076 21.269L11.3558 21.2754L11.3073 21.2818L11.2623 21.2916L11.2235 21.301L11.1879 21.3106L11.1652 21.317L11.1393 21.3265L11.1039 21.3393L11.0685 21.3553L11.0264 21.3744L10.9843 21.3969L10.9393 21.4192L10.8971 21.4448L10.852 21.4767L10.8099 21.5087L10.7712 21.5471L10.7357 21.5855L10.7033 21.627L10.6807 21.6717L10.6612 21.7228L10.6516 21.774L10.6484 21.8826L10.6647 21.969L10.697 22.0328L10.7388 22.0807L10.7872 22.1128L10.8424 22.132L10.894 22.1415L10.9456 22.1448L11.0425 22.1415L11.1296 22.132L11.2139 22.119L11.288 22.0999L11.3527 22.0776L11.4139 22.0489L11.4689 22.0201L11.5175 21.9848L11.5594 21.9531L11.5983 21.9146L11.6303 21.8794L11.6563 21.8411L11.6788 21.8028L11.6983 21.7644L11.7144 21.7292L11.7241 21.694L11.75 21.6014L11.7726 21.496L11.792 21.3936L11.8081 21.3106Z" fill="#ED1C2E"/>
<path d="M5.78976 22.8534H4.91113L5.64444 18.6572H7.17248L7.31769 21.1468L8.37409 18.6572H9.96989L9.22045 22.8534H8.34172L8.89736 19.7183H8.86176L7.5471 22.8534H6.55534L6.54888 22.7223L6.52629 22.374L6.49735 21.8787L6.46488 21.3098L6.43271 20.7378L6.40357 20.236L6.38108 19.8716L6.37453 19.7183H6.36465H6.34539H6.32613L5.78976 22.8534Z" fill="white"/>
<path d="M5.78976 22.8534H4.91113L5.64444 18.6572H7.17248L7.31769 21.1468L8.37409 18.6572H9.96989L9.22045 22.8534H8.34172L8.89736 19.7183H8.86176L7.5471 22.8534H6.55534L6.54888 22.7223L6.52629 22.374L6.49735 21.8787L6.46488 21.3098L6.43271 20.7378L6.40357 20.236L6.38108 19.8716L6.37453 19.7183H6.36465H6.34539H6.32613L5.78976 22.8534Z" stroke="white" stroke-width="0.216" stroke-miterlimit="2.6131"/>
<path d="M28.6187 22.1446L28.4863 22.854H27.6754L27.6818 22.7229L27.6852 22.6079V22.5217L27.6915 22.4833L27.6495 22.5312L27.6011 22.5791L27.543 22.624L27.4783 22.6687L27.4105 22.7101L27.3329 22.7485L27.2522 22.7869L27.1715 22.8189L27.0842 22.8444L26.9938 22.8701L26.9032 22.8861L26.8128 22.8988L26.7192 22.9051L26.6287 22.9084L26.5414 22.8988L26.4542 22.8861L26.338 22.8572L26.2346 22.8254L26.1443 22.7837L26.0602 22.7358L25.9891 22.6847L25.9278 22.6271L25.8759 22.5664L25.8309 22.5025L25.7921 22.4354L25.763 22.3649L25.7372 22.2948L25.7209 22.2246L25.7081 22.151L25.6984 22.0774L25.6919 22.0071V21.9369L25.6984 21.8122L25.7178 21.6939L25.7469 21.582L25.7888 21.4734L25.8372 21.3712L25.8987 21.2785L25.9665 21.189L26.0408 21.1091L26.1249 21.0355L26.212 20.9684L26.3056 20.9078L26.4057 20.8566L26.506 20.812L26.6126 20.7767L26.7192 20.748L26.8291 20.7288H26.8354L26.8517 20.7255L26.8741 20.7224L26.9066 20.7192L26.9485 20.7128L26.9938 20.7096L27.0422 20.7032L27.0938 20.6967L27.1487 20.6904L27.2069 20.684L27.2619 20.6809L27.3168 20.6745L27.3685 20.6713L27.4137 20.668L27.4589 20.6649H27.4945H27.5721L27.6495 20.668L27.7236 20.6713H27.7948L27.8563 20.6745L27.908 20.6776L27.937 20.6809H27.95L27.9564 20.6584L27.966 20.6009L27.9757 20.5338L27.9823 20.4732L27.9693 20.4027L27.9436 20.3389L27.9014 20.2813L27.853 20.2334L27.7948 20.1918L27.7271 20.1631L27.656 20.1438L27.5784 20.1376L27.488 20.1344L27.3912 20.1311H27.2909L27.1875 20.1344L27.081 20.1408L26.9776 20.1502L26.8741 20.1599L26.7741 20.1727L26.6771 20.1855L26.5835 20.2014L26.4995 20.2174L26.4221 20.2334L26.3509 20.2526L26.2928 20.2717L26.2475 20.2941L26.212 20.3132L26.4382 19.543L26.5092 19.5144L26.5835 19.4888L26.6577 19.4663L26.7354 19.4504L26.8161 19.4344L26.8968 19.4216L26.9807 19.4089L27.0681 19.4025L27.1585 19.3961L27.2522 19.3929L27.3459 19.3896H27.4459H27.5461H27.6495L27.7593 19.3929L27.8692 19.3961L27.9596 19.4025L28.0566 19.4184L28.1567 19.4408L28.2601 19.4695L28.3602 19.5079L28.4603 19.5527L28.5572 19.607L28.6477 19.6677L28.7284 19.7381L28.8027 19.8148L28.8674 19.901L28.9158 19.9969L28.9515 20.0992L28.9739 20.2079V20.3293L28.9577 20.4571L28.6187 22.1446Z" fill="white"/>
<path d="M28.4865 22.8757L28.5059 22.8565L28.6383 22.1471L28.5995 22.1406L28.467 22.85L28.4865 22.8309V22.8757L28.5025 22.8725L28.5059 22.8565L28.4865 22.8757Z" fill="white"/>
<path d="M27.6561 22.8534L27.6755 22.8758H28.4864V22.8311H27.6755L27.6947 22.8534H27.6561L27.6528 22.8758H27.6755L27.6561 22.8534Z" fill="white"/>
<path d="M27.708 22.4961L27.6788 22.4707L27.6658 22.5217L27.6627 22.6079V22.723L27.6562 22.8541H27.6949L27.7014 22.723L27.708 22.6079L27.7047 22.5217V22.4961L27.6757 22.4707L27.708 22.4961Z" fill="white"/>
<path d="M26.4514 22.9052L26.5417 22.9179L26.629 22.9276L26.7195 22.9245L26.8131 22.9179L26.9069 22.9052L26.9972 22.8893L27.0878 22.8637L27.1782 22.8382L27.259 22.8061L27.3428 22.7678L27.4204 22.7295L27.4883 22.6848L27.5561 22.6401L27.6143 22.5952L27.6658 22.544L27.708 22.4961L27.6757 22.4707L27.6337 22.5186L27.5884 22.5634L27.5303 22.6079L27.469 22.6528L27.4012 22.6911L27.3234 22.7295L27.2459 22.7678L27.1653 22.7998L27.0813 22.8255L26.9907 22.8509L26.9005 22.8669L26.8131 22.8797L26.7195 22.8862L26.629 22.8893L26.5417 22.8797L26.458 22.8669L26.4514 22.9052Z" fill="white"/>
<path d="M25.6692 21.9365L25.6724 22.0067L25.6789 22.0771L25.6885 22.1537L25.7015 22.2273L25.7177 22.2975L25.7434 22.371L25.7727 22.4447L25.8145 22.5117L25.8598 22.5788L25.9114 22.6397L25.976 22.7003L26.0505 22.7515L26.1345 22.8025L26.2279 22.8441L26.3347 22.8761L26.451 22.9048L26.4576 22.8665L26.3411 22.8377L26.241 22.8057L26.1537 22.7642L26.0697 22.7194L26.0019 22.6683L25.9437 22.614L25.892 22.5532L25.8468 22.4926L25.8114 22.4254L25.7823 22.3583L25.7564 22.2913L25.7403 22.2209L25.7274 22.1475L25.7177 22.0771L25.7111 22.0067L25.7144 21.9365H25.6692Z" fill="white"/>
<path d="M26.829 20.709L26.7159 20.7281L26.606 20.7569L26.4994 20.792L26.396 20.8367L26.2957 20.888L26.1989 20.9517L26.1117 21.0191L26.0277 21.0957L25.9502 21.1755L25.8824 21.265L25.8177 21.3608L25.7693 21.4663L25.7274 21.5751L25.6983 21.6901L25.6789 21.8116L25.6692 21.9362H25.7144L25.7177 21.8116L25.7371 21.6963L25.7662 21.5878L25.808 21.4792L25.8566 21.3801L25.9146 21.2907L25.9824 21.2011L26.0536 21.1213L26.1376 21.0508L26.2248 20.9838L26.3152 20.9263L26.4154 20.8751L26.5122 20.8304L26.6188 20.7952L26.7223 20.7665L26.829 20.7473V20.709Z" fill="white"/>
<path d="M27.4945 20.6426H27.459L27.4138 20.6488L27.3685 20.6521L27.3169 20.6553L27.2619 20.6615L27.2069 20.6649L27.1488 20.6713L27.0938 20.6776L27.0423 20.684L26.9939 20.6904L26.9485 20.6936L26.9066 20.7001L26.8742 20.7032L26.8483 20.7063L26.8355 20.7096H26.8291V20.748H26.8355L26.8548 20.7446L26.8742 20.7415L26.9066 20.7384L26.9485 20.7319L26.9939 20.7288L27.0423 20.7223L27.0938 20.7159L27.1488 20.7096L27.2069 20.7032L27.2619 20.7001L27.3169 20.6936L27.3685 20.6904L27.4138 20.6871H27.459H27.4945V20.6426Z" fill="white"/>
<path d="M27.9303 20.6776L27.9499 20.6615H27.9369L27.9078 20.6584L27.8562 20.6553L27.7947 20.6488H27.7235H27.6494L27.5719 20.6426H27.4944V20.6871H27.5719H27.6494L27.7235 20.6936H27.7947H27.8562L27.9078 20.6967L27.9369 20.7001H27.9499L27.9691 20.684L27.9499 20.7001L27.9659 20.7032L27.9691 20.684L27.9303 20.6776Z" fill="white"/>
<path d="M27.963 20.4727H27.9598L27.9566 20.5333L27.9469 20.5972L27.9372 20.6548L27.9307 20.6771L27.9695 20.6835L27.9759 20.661L27.9856 20.6035L27.9953 20.5333L28.0051 20.4727H28.0019H27.963Z" fill="white"/>
<path d="M27.5786 20.1568V20.16L27.6529 20.1632L27.7208 20.1825L27.7853 20.2111L27.8403 20.2496L27.8855 20.2942L27.9243 20.3486L27.9502 20.4062L27.963 20.4733H28.0018L27.9888 20.3997L27.963 20.3294L27.9178 20.2687L27.8662 20.2176L27.8048 20.1728L27.7337 20.144L27.6594 20.1248L27.5786 20.1152V20.1185V20.1568Z" fill="white"/>
<path d="M26.1926 20.3097L26.2249 20.3288L26.2571 20.3128L26.2992 20.2904L26.3541 20.2713L26.4252 20.2522L26.5026 20.2362L26.5867 20.2202L26.6804 20.2042L26.7741 20.1914L26.8741 20.1787L26.9776 20.169L27.0809 20.1594L27.1874 20.153H27.2909H27.3911H27.4879L27.5784 20.1562V20.1179L27.4879 20.1147L27.3911 20.1084H27.2909L27.1874 20.1147L27.0809 20.1211L26.9776 20.1307L26.8741 20.1404L26.7741 20.153L26.6738 20.1659L26.5802 20.1819L26.4964 20.1978L26.4186 20.2138L26.3476 20.2329L26.2862 20.2522L26.2377 20.2745L26.199 20.2969L26.2313 20.316L26.1926 20.3097Z" fill="white"/>
<path d="M26.4316 19.5234L26.4186 19.5395L26.1926 20.3097L26.2313 20.316L26.4576 19.5458L26.4445 19.5618L26.4316 19.5234L26.422 19.5267L26.4186 19.5395L26.4316 19.5234Z" fill="white"/>
<path d="M27.8695 19.3768L27.7596 19.3704L27.6497 19.3672H27.5464H27.4461H27.3461L27.2524 19.3736L27.1587 19.3768L27.0683 19.3832L26.981 19.3896L26.8937 19.4024L26.8131 19.4151L26.7323 19.4311L26.6547 19.4472L26.5773 19.4694L26.5029 19.4951L26.4319 19.5238L26.4448 19.5621L26.516 19.5335L26.5901 19.5079L26.6612 19.4855L26.7387 19.4694L26.8196 19.4535L26.9004 19.4407L26.981 19.4279L27.0683 19.4215L27.1587 19.4151L27.2524 19.412H27.3461H27.4461H27.5464H27.6497L27.7596 19.4151H27.8695V19.3768Z" fill="white"/>
<path d="M28.9773 20.4604L28.9935 20.3294V20.208L28.971 20.096L28.9354 19.9907L28.8837 19.8915L28.8189 19.8021L28.7415 19.7222L28.6607 19.6518L28.567 19.5911L28.4702 19.5337L28.3667 19.4889L28.2667 19.4505L28.1601 19.4217L28.06 19.3993L27.9597 19.3834L27.8694 19.377V19.4153L27.9597 19.4217L28.0534 19.4377L28.1537 19.46L28.2537 19.4889L28.3538 19.5272L28.4508 19.572L28.5476 19.6231L28.6349 19.6838L28.7156 19.7541L28.7867 19.8276L28.8513 19.9107L28.8966 20.0034L28.932 20.1024L28.9547 20.208V20.3294L28.9385 20.4541L28.9773 20.4604Z" fill="white"/>
<path d="M28.6381 22.1479L28.9772 20.4604L28.9384 20.4541L28.5994 22.1415L28.6381 22.1479Z" fill="white"/>
<path d="M27.8366 21.3097L27.8304 21.2907L27.8174 21.2745L27.7947 21.265L27.7625 21.2554L27.7269 21.252L27.6851 21.249H27.6364L27.588 21.252L27.5363 21.2585L27.4847 21.265L27.4329 21.2713L27.3846 21.2778L27.3361 21.2873L27.2939 21.2938L27.2521 21.3034L27.2198 21.3097L27.1971 21.313L27.1714 21.3224L27.139 21.3321L27.1033 21.3448L27.0615 21.364L27.0228 21.3831L26.9775 21.4056L26.9355 21.4344L26.8934 21.4631L26.8515 21.4984L26.8159 21.5334L26.7803 21.575L26.7514 21.6196L26.7288 21.6677L26.7093 21.7188L26.6997 21.7731L26.6965 21.8817L26.7125 21.9681L26.7384 22.0319L26.7772 22.0798L26.8256 22.1119L26.8806 22.1311L26.9355 22.1407L26.9903 22.1439L27.0874 22.1407L27.1777 22.1311L27.2617 22.115L27.3361 22.0928L27.4073 22.0671L27.4686 22.0383L27.5267 22.0063L27.5783 21.9681L27.6235 21.9328L27.6623 21.8913L27.6979 21.853L27.7269 21.8115L27.7495 21.7731L27.7656 21.7348L27.7786 21.6963L27.7882 21.6613L27.8012 21.5717L27.8174 21.4791L27.8304 21.3896L27.8366 21.3097Z" fill="#FCB331"/>
<path d="M28.8611 22.8534H29.7721L30.0985 21.0349L30.1112 20.9647L30.1305 20.8943L30.15 20.824L30.1758 20.7538L30.2082 20.6834L30.2469 20.6164L30.2889 20.5523L30.3407 20.4917L30.3988 20.4373L30.4632 20.3863L30.5376 20.3383L30.6217 20.2999L30.7153 20.268L30.8187 20.2425L30.9317 20.2232L31.0577 20.2169H31.103H31.1287H31.1384L31.2837 19.3955L31.1933 19.4019L31.1062 19.4114L31.0254 19.4274L30.9479 19.4498L30.8768 19.4754L30.809 19.5073L30.7444 19.5424L30.6832 19.5809L30.625 19.6256L30.57 19.6703L30.5182 19.7215L30.4666 19.7727L30.4182 19.8269L30.3698 19.8877L30.3213 19.9451L30.2761 20.0091L30.3729 19.4306H29.4652L28.8611 22.8534Z" fill="white"/>
<path d="M28.8611 22.8534H29.7721L30.0985 21.0349L30.1112 20.9647L30.1305 20.8943L30.15 20.824L30.1758 20.7538L30.2082 20.6834L30.2469 20.6164L30.2889 20.5523L30.3407 20.4917L30.3988 20.4373L30.4632 20.3863L30.5376 20.3383L30.6217 20.2999L30.7153 20.268L30.8187 20.2425L30.9317 20.2232L31.0577 20.2169H31.103H31.1287H31.1384L31.2837 19.3955L31.1933 19.4019L31.1062 19.4114L31.0254 19.4274L30.9479 19.4498L30.8768 19.4754L30.809 19.5073L30.7444 19.5424L30.6832 19.5809L30.625 19.6256L30.57 19.6703L30.5182 19.7215L30.4666 19.7727L30.4182 19.8269L30.3698 19.8877L30.3213 19.9451L30.2761 20.0091L30.3729 19.4306H29.4652L28.8611 22.8534Z" stroke="white" stroke-width="0.216" stroke-miterlimit="2.6131"/>
<path d="M20.3069 22.8534H21.2179H21.2341L21.5441 21.0349L21.5569 20.9647L21.5731 20.8975L21.5894 20.8305L21.612 20.7665L21.6378 20.7026L21.6699 20.642L21.7088 20.5843L21.754 20.5301L21.8059 20.482L21.864 20.4343L21.935 20.3958L22.0125 20.3607L22.103 20.3318L22.2031 20.3063L22.313 20.2903L22.4389 20.2807H22.4485L22.4616 20.2839L22.4776 20.2871H22.4938L22.51 20.2903L22.5229 20.2935L22.5326 20.2967H22.5358L22.5391 20.2839L22.5488 20.2456L22.5617 20.1881L22.5778 20.1177L22.6004 20.0346L22.6231 19.9451L22.6522 19.8556L22.6813 19.7662L22.7069 19.7055L22.7394 19.6447L22.7716 19.5841L22.8039 19.5297L22.833 19.4817L22.8556 19.4434L22.8719 19.421L22.8781 19.4114H22.875L22.862 19.4083L22.8459 19.4051L22.8234 19.4019H22.8007L22.7748 19.3986L22.7523 19.3955H22.7297L22.6294 19.4019L22.5391 19.4114L22.4551 19.4274L22.3775 19.4466L22.3032 19.4722L22.2355 19.5041L22.1739 19.5361L22.1158 19.5744L22.0609 19.6159L22.0092 19.6638L21.9609 19.7118L21.9125 19.7662L21.864 19.8205L21.8187 19.8813L21.7703 19.9451L21.7218 20.0091L21.838 19.4306H20.911L20.3069 22.8534Z" fill="white"/>
<path d="M20.3069 22.8534H21.2179H21.2341L21.5441 21.0349L21.5569 20.9647L21.5731 20.8975L21.5894 20.8305L21.612 20.7665L21.6378 20.7026L21.6699 20.642L21.7088 20.5843L21.754 20.5301L21.8059 20.482L21.864 20.4343L21.935 20.3958L22.0125 20.3607L22.103 20.3318L22.2031 20.3063L22.313 20.2903L22.4389 20.2807H22.4485L22.4616 20.2839L22.4776 20.2871H22.4938L22.51 20.2903L22.5229 20.2935L22.5326 20.2967H22.5358L22.5391 20.2839L22.5488 20.2456L22.5617 20.1881L22.5778 20.1177L22.6004 20.0346L22.6231 19.9451L22.6522 19.8556L22.6813 19.7662L22.7069 19.7055L22.7394 19.6447L22.7716 19.5841L22.8039 19.5297L22.833 19.4817L22.8556 19.4434L22.8719 19.421L22.8781 19.4114H22.875L22.862 19.4083L22.8459 19.4051L22.8234 19.4019H22.8007L22.7748 19.3986L22.7523 19.3955H22.7297L22.6294 19.4019L22.5391 19.4114L22.4551 19.4274L22.3775 19.4466L22.3032 19.4722L22.2355 19.5041L22.1739 19.5361L22.1158 19.5744L22.0609 19.6159L22.0092 19.6638L21.9609 19.7118L21.9125 19.7662L21.864 19.8205L21.8187 19.8813L21.7703 19.9451L21.7218 20.0091L21.838 19.4306H20.911L20.3069 22.8534Z" stroke="white" stroke-width="0.216" stroke-miterlimit="2.6131"/>
</svg>
