<svg width="20" height="20" viewBox="0 0 20 20" fill="none" xmlns="http://www.w3.org/2000/svg">
<path d="M10 12.5H7.5V10L15 2.5L17.5 5L10 12.5Z" stroke="url(#paint0_linear_568_68716)" stroke-width="1.25" stroke-linecap="round" stroke-linejoin="round"/>
<path d="M13.125 4.375L15.625 6.875" stroke="url(#paint1_linear_568_68716)" stroke-width="1.25" stroke-linecap="round" stroke-linejoin="round"/>
<path d="M16.875 9.375V16.25C16.875 16.4158 16.8092 16.5747 16.6919 16.6919C16.5747 16.8092 16.4158 16.875 16.25 16.875H3.75C3.58424 16.875 3.42527 16.8092 3.30806 16.6919C3.19085 16.5747 3.125 16.4158 3.125 16.25V3.75C3.125 3.58424 3.19085 3.42527 3.30806 3.30806C3.42527 3.19085 3.58424 3.125 3.75 3.125H10.625" stroke="url(#paint2_linear_568_68716)" stroke-width="1.25" stroke-linecap="round" stroke-linejoin="round"/>
<defs>
<linearGradient id="paint0_linear_568_68716" x1="7.5" y1="2.5" x2="18.0436" y2="3.11041" gradientUnits="userSpaceOnUse">
<stop stop-color="#1EA5DF"/>
<stop offset="1" stop-color="#0167FF"/>
</linearGradient>
<linearGradient id="paint1_linear_568_68716" x1="13.125" y1="4.375" x2="15.7609" y2="4.5276" gradientUnits="userSpaceOnUse">
<stop stop-color="#1EA5DF"/>
<stop offset="1" stop-color="#0167FF"/>
</linearGradient>
<linearGradient id="paint2_linear_568_68716" x1="3.125" y1="3.125" x2="17.6224" y2="3.96431" gradientUnits="userSpaceOnUse">
<stop stop-color="#1EA5DF"/>
<stop offset="1" stop-color="#0167FF"/>
</linearGradient>
</defs>
</svg>
