<svg width="40" height="40" viewBox="0 0 40 40" fill="none" xmlns="http://www.w3.org/2000/svg">
<rect width="40" height="40" rx="20" fill="#ECF0F3"/>
<path d="M29.0491 17.1793C29.1815 17.0734 29.2476 17.0205 29.3138 16.9675C30.2338 16.1866 31.4118 16.2726 32.1994 17.1992C32.2788 17.2918 32.3185 17.2985 32.3979 17.219C32.4509 17.1595 32.5105 17.1131 32.5634 17.0536C33.1789 16.4513 33.9929 16.2726 34.754 16.6102C35.5549 16.9675 35.985 17.5963 35.9917 18.4765C36.0049 20.3759 35.9983 22.2688 35.9983 24.1682C35.9983 24.8433 35.5813 25.2669 34.9129 25.2669C34.6482 25.2669 34.3834 25.247 34.1187 25.2735C33.8473 25.2999 33.7679 25.2139 33.7679 24.9293C33.7812 23.0762 33.7745 21.2231 33.7745 19.37C33.7745 19.2906 33.7745 19.2178 33.7745 19.1383C33.7679 18.7081 33.5959 18.5294 33.1855 18.5096C32.8149 18.4897 32.5568 18.7148 32.5171 19.092C32.5105 19.178 32.5171 19.2707 32.5171 19.3567C32.5171 20.9584 32.5171 22.5534 32.5171 24.155C32.5171 24.8565 32.1134 25.2669 31.4118 25.2602C31.0544 25.2536 30.5713 25.4191 30.3661 25.1874C30.1874 24.9889 30.3066 24.519 30.3066 24.1682C30.3066 22.5269 30.3066 20.8789 30.3066 19.2376C30.3066 18.6552 29.9293 18.3574 29.4396 18.5559C29.1351 18.6817 29.0359 18.9265 29.0359 19.2442C29.0425 20.7797 29.0359 22.3085 29.0359 23.8439C29.0359 23.9631 29.0359 24.0888 29.0359 24.2079C29.016 24.8499 28.6057 25.2536 27.9703 25.2602C27.7056 25.2669 27.4409 25.2404 27.1761 25.2669C26.8915 25.2933 26.8055 25.2139 26.8121 24.9095C26.8254 22.3085 26.8187 19.7075 26.8187 17.0999C26.8187 16.9874 26.8254 16.8815 26.8187 16.769C26.8055 16.6234 26.8651 16.5771 27.0107 16.5771C27.6195 16.5837 28.2218 16.5837 28.8307 16.5771C28.9829 16.5771 29.0557 16.6168 29.0425 16.7822C29.0292 16.9014 29.0425 17.0072 29.0491 17.1793Z" fill="#02B9EF"/>
<path d="M15.0183 20.766C15.0183 21.6727 15.0183 22.5727 15.0183 23.4794C15.0117 24.6575 14.3962 25.2664 13.2181 25.273C12.7019 25.273 12.1791 25.2796 11.6628 25.273C10.6171 25.2598 9.84943 24.5648 9.79648 23.5192C9.75677 22.7713 9.75015 22.0168 9.78986 21.2689C9.84281 20.1968 10.6635 19.4423 11.7489 19.4291C12.0335 19.4224 12.3247 19.4291 12.6092 19.4291C12.8872 19.4224 12.9931 19.2636 12.9865 18.9989C12.9865 18.7341 12.8674 18.615 12.6026 18.6283C12.3048 18.6349 12.007 18.6349 11.7092 18.6283C10.9812 18.615 10.5774 18.2179 10.5841 17.5031C10.5841 17.2119 10.4517 16.8215 10.6436 16.6494C10.8091 16.5038 11.1863 16.5964 11.4709 16.5964C12.2122 16.5898 12.9468 16.5964 13.688 16.5964C14.4756 16.5964 15.0117 17.1325 15.0183 17.9267C15.0249 18.8665 15.0183 19.8195 15.0183 20.766ZM12.9931 22.2683C12.9931 22.1558 12.9931 22.0499 12.9931 21.9374C12.9931 21.2623 12.9931 21.2623 12.318 21.2888C11.9805 21.302 11.7952 21.4741 11.7886 21.8249C11.782 22.1028 11.782 22.3742 11.7886 22.6522C11.7952 23.1287 12.007 23.2544 12.6953 23.2743C13.2049 23.2875 12.9468 22.9301 12.9931 22.7316C13.0196 22.586 12.9865 22.4205 12.9931 22.2683Z" fill="#06306F"/>
<path d="M20.9088 20.045C20.9088 21.0576 20.9221 22.0768 20.9022 23.0894C20.889 23.8704 20.7037 24.5785 19.9492 24.9955C19.6447 25.1609 19.3138 25.2536 18.9697 25.2602C18.2086 25.2734 17.4475 25.2602 16.6864 25.2734C16.501 25.2734 16.4613 25.2072 16.468 25.0418C16.4812 24.7638 16.4613 24.4925 16.4746 24.2145C16.4878 23.685 16.8915 23.2813 17.421 23.2615C17.7651 23.2482 18.1027 23.2549 18.4468 23.2615C18.7248 23.2615 18.877 23.149 18.877 22.8511C18.877 22.5467 18.7314 22.4408 18.4534 22.4342C17.9902 22.4209 17.5269 22.4871 17.0702 22.3548C16.2826 22.1231 15.7069 21.4679 15.687 20.6539C15.6473 19.3633 15.6738 18.0727 15.6671 16.7822C15.6671 16.6366 15.7135 16.5902 15.8591 16.5969C16.4018 16.6035 16.9379 16.6101 17.4806 16.5969C17.7188 16.5902 17.6857 16.7226 17.6857 16.8682C17.6857 17.8411 17.6857 18.8074 17.6857 19.7803C17.6857 20.2038 17.8843 20.4288 18.2549 20.4421C18.6917 20.4553 18.8836 20.2766 18.8836 19.8332C18.8836 18.8537 18.8902 17.8676 18.877 16.8881C18.877 16.6564 18.9366 16.5902 19.1682 16.5969C19.6513 16.6167 20.1411 16.6233 20.6242 16.5969C20.889 16.5836 20.9287 16.6829 20.9221 16.9145C20.9022 17.9536 20.9088 18.9993 20.9088 20.045Z" fill="#06306F"/>
<path d="M4.04531 21.5471C4.04531 20.4683 4.04531 19.3829 4.04531 18.3041C4.04531 17.2452 4.6939 16.5834 5.75944 16.5966C6.45436 16.6032 7.14928 16.5172 7.83758 16.6496C8.71781 16.8216 9.27374 17.5033 9.28036 18.41C9.28698 19.3697 9.28036 20.3293 9.28036 21.289C9.28036 22.4935 8.57221 23.2281 7.36768 23.2612C7.00368 23.2745 6.63967 23.2678 6.27566 23.2612C6.11021 23.2546 6.03741 23.3076 6.04403 23.4862C6.05726 23.751 6.05064 24.0157 6.04403 24.2804C6.03079 24.8496 5.62707 25.2599 5.06452 25.2666C4.73361 25.2732 4.31665 25.4055 4.10487 25.2136C3.90632 25.0349 4.05192 24.6114 4.04531 24.2937C4.03869 23.3804 4.04531 22.4604 4.04531 21.5471ZM6.04403 19.9256C6.04403 20.1374 6.04403 20.3426 6.04403 20.5544C6.04403 21.3022 6.04403 21.3022 6.79189 21.236C7.11619 21.2096 7.26841 21.0507 7.27502 20.7264C7.28164 20.3558 7.26179 19.9786 7.28164 19.6079C7.32135 18.5358 7.1228 18.6417 6.24919 18.6351C6.09035 18.6351 6.03741 18.6814 6.03741 18.8402C6.05064 19.1976 6.04403 19.5616 6.04403 19.9256Z" fill="#06306F"/>
<path d="M22.7817 21.5603C22.7817 20.68 22.7751 19.7932 22.7884 18.913C22.7884 18.7078 22.742 18.6218 22.517 18.6284C22.2192 18.6416 21.8221 18.7277 21.6566 18.5821C21.4515 18.3901 21.6103 17.9798 21.5838 17.6621C21.5838 17.6423 21.5838 17.6158 21.5838 17.5959C21.5838 17.2849 21.4846 16.9209 21.6169 16.6892C21.7493 16.4576 22.153 16.6032 22.4376 16.5304C23.0001 16.3848 23.4237 16.0605 23.7679 15.6104C24.0061 15.306 24.3039 15.0876 24.6878 15.0148C24.893 14.9751 25.0187 15.0016 25.0055 15.2663C24.9856 15.6369 25.0055 16.0142 24.9989 16.3914C24.9922 16.5502 25.0518 16.6032 25.2106 16.5966C25.4754 16.59 25.7401 16.6032 26.0048 16.59C26.1637 16.5833 26.2166 16.6429 26.21 16.8017C26.2034 17.3444 26.2034 17.8805 26.21 18.4232C26.21 18.5754 26.1703 18.6549 26.0048 18.635C25.9718 18.6284 25.9387 18.635 25.9056 18.635C25.6144 18.6615 25.2106 18.5026 25.0584 18.7012C24.9128 18.8865 25.0055 19.2704 25.0055 19.5682C25.0055 21.3683 24.9989 23.1619 25.0121 24.9621C25.0121 25.2136 24.9459 25.293 24.6944 25.2731C24.4562 25.2533 24.2113 25.2731 23.9664 25.2665C23.2516 25.24 22.7817 24.7569 22.7817 24.0421C22.7817 23.2148 22.7817 22.3876 22.7817 21.5603Z" fill="#02B9EF"/>
</svg>
