<svg width="40" height="40" viewBox="0 0 40 40" fill="none" xmlns="http://www.w3.org/2000/svg">
<rect width="40" height="40" rx="20" fill="#ECF0F3"/>
<path opacity="0.9375" fill-rule="evenodd" clip-rule="evenodd" d="M4.0029 22.5667C3.97232 22.5466 4.18257 21.7366 4.68388 19.9433C5.08275 18.5164 5.45788 17.1817 5.5175 16.9772L5.6259 16.6055L7.19316 16.6341C9.02533 16.6675 9.30737 16.6917 9.6021 16.8409C10.1246 17.1052 10.2685 17.512 10.0884 18.216C9.93503 18.8156 9.64205 19.2237 9.07555 19.6268C8.96811 19.7032 8.87425 19.7967 8.86698 19.8344C8.8589 19.8764 8.92586 19.9687 9.03886 20.0716C9.14068 20.1642 9.2489 20.2882 9.27936 20.3471C9.36132 20.5056 9.34709 20.8232 9.23336 21.3736C9.1776 21.6435 9.12151 22.0291 9.10872 22.2306L9.08546 22.597H8.32685C7.78964 22.597 7.55438 22.5831 7.52072 22.5495C7.4467 22.4754 7.46344 22.2866 7.59201 21.7454C7.7351 21.1431 7.74376 20.9068 7.62812 20.7598C7.47537 20.5656 7.33683 20.5236 6.78841 20.5053C6.34592 20.4905 6.27214 20.4971 6.20503 20.5579C6.10067 20.6523 6.01597 20.8962 5.7685 21.8147L5.55776 22.597L4.80245 22.5964C4.38703 22.5961 4.02723 22.5827 4.0029 22.5667ZM7.99036 19.2062C8.35054 19.0992 8.50227 18.8643 8.50276 18.4129C8.50292 18.2771 8.47992 18.1815 8.43367 18.1256C8.32434 17.9936 7.99504 17.9487 7.37736 17.9818L6.84042 18.0106L6.76224 18.2739C6.6415 18.6805 6.55683 19.0736 6.57005 19.1662C6.5787 19.2268 6.62054 19.2577 6.72065 19.2773C6.93995 19.3204 7.7608 19.2744 7.99036 19.2062Z" fill="#265797"/>
<path opacity="0.9375" fill-rule="evenodd" clip-rule="evenodd" d="M10.5309 22.6829C10.291 22.5971 10.1024 22.437 10.0232 22.2518C9.87253 21.8997 10.011 21.1172 10.561 19.2135C10.6926 18.7576 10.8004 18.3801 10.8004 18.3746C10.8004 18.3692 10.8284 18.3367 10.8626 18.3025C10.9134 18.2517 11.0294 18.2402 11.4938 18.2402C11.8067 18.2402 12.107 18.2571 12.1611 18.2777L12.2596 18.3151L12.1614 18.6638C11.9205 19.519 11.6707 20.5564 11.6275 20.8807C11.5883 21.1753 11.5898 21.2537 11.6365 21.3512C11.7429 21.5731 12.129 21.6201 12.4576 21.451C12.8432 21.2527 12.9155 21.0829 13.5352 18.9216C13.6261 18.6047 13.6954 18.44 13.7727 18.3572L13.8819 18.2402H14.501C14.9798 18.2402 15.1247 18.2522 15.1403 18.2929C15.1558 18.3333 14.3691 21.2624 14.0375 22.399L13.9855 22.5773L13.3236 22.5971C12.9596 22.6079 12.6618 22.6057 12.6619 22.5921C12.6619 22.5785 12.6889 22.4909 12.7219 22.3974C12.8558 22.0181 12.6889 21.9943 12.2015 22.3232C11.7198 22.6482 11.5179 22.7252 11.1009 22.7428C10.819 22.7547 10.6954 22.7418 10.5309 22.6829Z" fill="#265797"/>
<path opacity="0.9375" fill-rule="evenodd" clip-rule="evenodd" d="M14.9311 22.5651C14.8959 22.5427 15.0996 21.7566 15.7035 19.5852L16.5238 16.6357L17.9099 16.6473C19.6391 16.6618 19.9927 16.6925 20.327 16.8571C20.6019 16.9924 20.7327 17.1134 20.8551 17.3454C21.0607 17.7352 21.0572 18.1873 20.844 18.8076C20.5163 19.7612 19.9045 20.3881 19.0981 20.5969C18.9674 20.6307 18.5574 20.6765 18.1871 20.6986C16.9636 20.7717 17.0372 20.7579 16.9717 20.9259C16.9404 21.0061 16.8182 21.4149 16.7001 21.8342L16.4855 22.5967L15.7322 22.5961C15.3179 22.5957 14.9574 22.5818 14.9311 22.5651ZM18.4979 19.3905C18.9011 19.3386 19.1129 19.2142 19.2474 18.9505C19.392 18.6671 19.4301 18.3586 19.338 18.218C19.2124 18.0264 19.0405 17.9845 18.3928 17.9878C18.0703 17.9894 17.7905 18.0067 17.7711 18.0262C17.7268 18.0708 17.4543 19.1476 17.4543 19.2784C17.4543 19.3317 17.4662 19.3871 17.4808 19.4017C17.5183 19.4392 18.1761 19.432 18.4979 19.3905Z" fill="#265797"/>
<path opacity="0.9375" fill-rule="evenodd" clip-rule="evenodd" d="M20.7617 22.6984C20.2953 22.5031 20.1744 22.1802 20.3264 21.5355C20.5389 20.6343 21.0069 20.3329 22.6137 20.0627C23.5839 19.8996 23.8261 19.7803 23.8959 19.4314C23.9475 19.1734 23.7263 19.0322 23.2694 19.0318C22.9842 19.0315 22.8772 19.0731 22.6298 19.2804L22.4304 19.4475L21.9168 19.4606C21.3214 19.4759 21.138 19.4522 21.138 19.36C21.138 19.2526 21.3715 18.9245 21.5898 18.7251C21.8242 18.511 22.1345 18.3469 22.4705 18.2594C23.1761 18.0756 24.3906 18.097 24.808 18.3005C25.0314 18.4095 25.23 18.5904 25.3246 18.7712C25.4141 18.9423 25.3821 19.1199 24.9603 20.7923C24.7532 21.6132 24.5838 22.3549 24.5838 22.4406V22.5962H24.0942C23.825 22.5962 23.5224 22.6075 23.4218 22.6213L23.2389 22.6464L23.1584 22.4587C23.0639 22.2382 23.0528 22.2382 22.5547 22.4623C22.0138 22.7056 21.8156 22.7598 21.3954 22.7794C21.0378 22.7962 20.9762 22.7883 20.7617 22.6984ZM22.8905 21.773C23.1636 21.6522 23.4721 21.1577 23.4739 20.8379L23.4748 20.6836L23.2231 20.7071C22.9447 20.7331 22.3559 20.923 22.1401 21.0564C21.9578 21.1691 21.8511 21.3505 21.8516 21.5467C21.8522 21.7348 21.8799 21.7862 22.0104 21.8419C22.1595 21.9054 22.684 21.8643 22.8905 21.773Z" fill="#265797"/>
<path opacity="0.9375" fill-rule="evenodd" clip-rule="evenodd" d="M25.0717 24.4733C24.9131 24.4375 24.907 24.3783 25.0173 23.9437C25.1652 23.3613 25.1555 23.3734 25.5203 23.3167C25.9141 23.2555 26.09 23.1689 26.1778 22.9931C26.2751 22.7984 26.2681 22.0338 26.1503 19.983C26.0848 18.8417 26.0685 18.3241 26.097 18.2897C26.127 18.2535 26.3275 18.2402 26.8437 18.2402H27.5494L27.5617 19.5652C27.5701 20.4691 27.588 20.9041 27.6181 20.9341C27.6902 21.0061 27.9552 20.5579 29.0412 18.5274L29.1948 18.2402H29.8178C30.1605 18.2402 30.4493 18.2539 30.4596 18.2706C30.4795 18.3026 29.5354 19.9856 28.588 21.6069C27.2416 23.9112 26.9883 24.2288 26.3567 24.4048C26.1504 24.4622 25.2383 24.5109 25.0717 24.4733Z" fill="#265797"/>
<path fill-rule="evenodd" clip-rule="evenodd" d="M30.9092 23.9439L32.7608 17.1611L34.5234 20.6664L30.9092 23.9439Z" fill="#479951"/>
<path fill-rule="evenodd" clip-rule="evenodd" d="M29.7632 23.9693L31.6148 17.1865L33.3774 20.6918L29.7632 23.9693Z" fill="#D97B16"/>
<path fill-rule="evenodd" clip-rule="evenodd" d="M34.8653 17.0351V16.5728H34.6895V16.4922H35.1331V16.5728H34.9559V17.0351H34.8653ZM35.1937 17.0351V16.4922H35.3269L35.4641 16.9258L35.5967 16.4922H35.7273V17.0351H35.6447V16.5794L35.5048 17.0351H35.4228L35.277 16.5728V17.0351H35.1937Z" fill="black"/>
<path opacity="0.9375" fill-rule="evenodd" clip-rule="evenodd" d="M36 16.7533C36 17.1694 35.6628 17.5066 35.2467 17.5066C34.8307 17.5066 34.4934 17.1694 34.4934 16.7533C34.4934 16.3373 34.8307 16 35.2467 16C35.6628 16 36 16.3373 36 16.7533Z" stroke="black" stroke-width="0.1"/>
</svg>
