<svg width="40" height="40" viewBox="0 0 40 40" fill="none" xmlns="http://www.w3.org/2000/svg">
<g clip-path="url(#clip0_568_68510)">
<path d="M40 19.9998C40.0026 31.0411 31.0505 39.9939 20.0048 39.9966C8.95914 39.9992 0.00256059 31.0505 5.83755e-07 20.0092V19.9998C-0.00263942 8.95849 8.94954 0.00564915 19.9953 0.00293024C31.041 0.000371255 39.9974 8.94897 40.0001 19.9903L40 19.9998Z" fill="#156DD1"/>
<path d="M23.6004 19.9999C23.6004 21.9874 21.9886 23.5985 20.0004 23.5985C18.0121 23.5985 16.4004 21.9874 16.4004 19.9999C16.4004 18.0125 18.0121 16.4014 20.0004 16.4014C21.9886 16.4014 23.6004 18.0125 23.6004 19.9999Z" fill="white"/>
<path d="M18.7588 22.6191H21.2406V39.9917H18.7588V22.6191Z" fill="white"/>
</g>
<defs>
<clipPath id="clip0_568_68510">
<rect width="40" height="40" fill="white"/>
</clipPath>
</defs>
</svg>
