<svg width="20" height="20" viewBox="0 0 20 20" fill="none" xmlns="http://www.w3.org/2000/svg">
<path d="M16.8748 4.375L3.12476 4.37501" stroke="url(#paint0_linear_568_68536)" stroke-width="1.25" stroke-linecap="round" stroke-linejoin="round"/>
<path d="M8.125 8.125V13.125" stroke="url(#paint1_linear_568_68536)" stroke-width="1.25" stroke-linecap="round" stroke-linejoin="round"/>
<path d="M11.875 8.125V13.125" stroke="url(#paint2_linear_568_68536)" stroke-width="1.25" stroke-linecap="round" stroke-linejoin="round"/>
<path d="M15.625 4.375V16.25C15.625 16.4158 15.5592 16.5747 15.4419 16.6919C15.3247 16.8092 15.1658 16.875 15 16.875H5C4.83424 16.875 4.67527 16.8092 4.55806 16.6919C4.44085 16.5747 4.375 16.4158 4.375 16.25V4.375" stroke="url(#paint3_linear_568_68536)" stroke-width="1.25" stroke-linecap="round" stroke-linejoin="round"/>
<path d="M13.125 4.375V3.125C13.125 2.79348 12.9933 2.47554 12.7589 2.24112C12.5245 2.0067 12.2065 1.875 11.875 1.875H8.125C7.79348 1.875 7.47554 2.0067 7.24112 2.24112C7.0067 2.47554 6.875 2.79348 6.875 3.125V4.375" stroke="url(#paint4_linear_568_68536)" stroke-width="1.25" stroke-linecap="round" stroke-linejoin="round"/>
<defs>
<linearGradient id="paint0_linear_568_68536" x1="3.12476" y1="4.375" x2="3.12476" y2="4.37499" gradientUnits="userSpaceOnUse">
<stop stop-color="#E1313C"/>
<stop offset="1" stop-color="#CB1B26"/>
</linearGradient>
<linearGradient id="paint1_linear_568_68536" x1="8.125" y1="8.125" x2="8.78472" y2="8.0805" gradientUnits="userSpaceOnUse">
<stop stop-color="#E1313C"/>
<stop offset="1" stop-color="#CB1B26"/>
</linearGradient>
<linearGradient id="paint2_linear_568_68536" x1="11.875" y1="8.125" x2="12.5347" y2="8.0805" gradientUnits="userSpaceOnUse">
<stop stop-color="#E1313C"/>
<stop offset="1" stop-color="#CB1B26"/>
</linearGradient>
<linearGradient id="paint3_linear_568_68536" x1="4.375" y1="4.375" x2="11.2017" y2="2.30279" gradientUnits="userSpaceOnUse">
<stop stop-color="#E1313C"/>
<stop offset="1" stop-color="#CB1B26"/>
</linearGradient>
<linearGradient id="paint4_linear_568_68536" x1="6.875" y1="1.875" x2="9.29589" y2="-0.166254" gradientUnits="userSpaceOnUse">
<stop stop-color="#E1313C"/>
<stop offset="1" stop-color="#CB1B26"/>
</linearGradient>
</defs>
</svg>
