<svg width="18" height="18" viewBox="0 0 18 18" fill="none" xmlns="http://www.w3.org/2000/svg">
<path fill-rule="evenodd" clip-rule="evenodd" d="M8.38544 1.72737L13.1086 6.41221H8.03822L5.16901 3.30369L6.74198 1.73071C7.19543 1.27727 7.93015 1.27577 8.38544 1.72737ZM4.28442 4.18828L3.70546 4.76724L5.35044 6.41221H6.33714L4.28442 4.18828ZM2.82158 5.65112L3.58267 6.41221H2.73177C2.58189 6.41221 2.43515 6.42561 2.29267 6.45127C2.30049 6.27512 2.37158 6.10112 2.50637 5.96633L2.82158 5.65112ZM1.62248 5.08245C1.09746 5.60747 0.929373 6.35224 1.11488 7.018C0.597896 7.46907 0.27124 8.13275 0.27124 8.87274V15.2103C0.27124 16.5692 1.37286 17.6708 2.73177 17.6708H15.1717C16.5307 17.6708 17.6323 16.5692 17.6323 15.2103V8.87273C17.6323 7.51382 16.5307 6.41221 15.1717 6.41221H14.8836L9.26571 0.839889C8.32169 -0.0964669 6.7983 -0.0933638 5.8581 0.846831L1.62248 5.08245ZM2.73177 7.75431C2.11408 7.75431 1.61335 8.25505 1.61335 8.87274V15.2103C1.61335 15.828 2.11408 16.3287 2.73177 16.3287H15.1717C15.7894 16.3287 16.2902 15.828 16.2902 15.2103V8.87273C16.2902 8.25505 15.7894 7.75431 15.1717 7.75431H2.73177ZM13.2793 8.74668C12.4399 8.74668 11.7595 9.42709 11.7595 10.2664V10.7654C11.7595 11.6047 12.4399 12.2851 13.2793 12.2851H13.7782C14.6175 12.2851 15.2979 11.6047 15.2979 10.7654V10.2664C15.2979 9.42709 14.6175 8.74668 13.7782 8.74668H13.2793ZM13.0095 10.2664C13.0095 10.1174 13.1303 9.99668 13.2793 9.99668H13.7782C13.9272 9.99668 14.0479 10.1174 14.0479 10.2664V10.7654C14.0479 10.9143 13.9272 11.0351 13.7782 11.0351H13.2793C13.1303 11.0351 13.0095 10.9143 13.0095 10.7654V10.2664ZM5.51913 15.3365H3.23071V14.0865H5.51913V15.3365ZM6.28198 15.3365H8.5704V14.0865H6.28198V15.3365ZM11.6214 15.3365H9.33301V14.0865H11.6214V15.3365ZM12.3845 15.3365H14.6729V14.0865H12.3845V15.3365Z" fill="url(#paint0_linear_1464_2978)"/>
<defs>
<linearGradient id="paint0_linear_1464_2978" x1="0.27124" y1="0.139648" x2="19.72" y2="4.84818" gradientUnits="userSpaceOnUse">
<stop stop-color="#0ABDBD"/>
<stop offset="1" stop-color="#248080"/>
</linearGradient>
</defs>
</svg>
