<svg width="32" height="9" viewBox="0 0 32 9" fill="none" xmlns="http://www.w3.org/2000/svg">
<path d="M24.689 8.37695H23.0215L25.3407 0.00108814H27.0083L24.689 8.37695Z" fill="#66686C"/>
<path d="M23.8232 0.267538C23.7076 0.108158 23.5293 0.0277328 23.2871 0.0277328H14.1172L13.6631 1.66823H15.3316V1.66728H22.005L21.5195 3.42037H14.8459L14.8465 3.41674H13.1787L11.7944 8.41406H13.4631L14.3921 5.05991H21.8937C22.128 5.05991 22.3485 4.98001 22.5559 4.82019C22.7628 4.66021 22.899 4.46295 22.9643 4.22738L23.8932 0.872541C23.961 0.629104 23.9376 0.427091 23.8232 0.267538Z" fill="#66686C"/>
<path d="M10.8227 7.85494C10.7306 8.18659 10.4286 8.41602 10.0843 8.41602H1.48048C1.24604 8.41602 1.07178 8.33611 0.957201 8.17647C0.842704 8.01666 0.818144 7.81897 0.883608 7.58349L2.98296 0.0264015H4.65208L2.77697 6.77604H9.45362L11.3287 0.0264015H12.9975L10.8227 7.85494Z" fill="#66686C"/>
<path d="M29.8885 0.0176163L31.9998 4.2164L27.5615 8.41406L29.8885 0.0176163Z" fill="#27803B"/>
<path d="M28.4082 0.0176163L30.5179 4.2164L26.0779 8.41406L28.4082 0.0176163Z" fill="#E9661C"/>
</svg>
