<svg width="40" height="40" viewBox="0 0 40 40" fill="none" xmlns="http://www.w3.org/2000/svg">
<rect width="40" height="40" rx="20" fill="#ECF0F3"/>
<mask id="mask0_2722_87866" style="mask-type:luminance" maskUnits="userSpaceOnUse" x="4" y="16" width="32" height="13">
<path d="M4 16.2H36V29H4V16.2Z" fill="white"/>
</mask>
<g mask="url(#mask0_2722_87866)">
<path d="M28.689 25.377H27.0215L29.3407 17.0011H31.0083L28.689 25.377Z" fill="#66686C"/>
<path d="M27.8232 17.2656C27.7076 17.1062 27.5293 17.0258 27.2871 17.0258H18.1172L17.6631 18.6663H19.3316V18.6653H26.005L25.5195 20.4184H18.8459L18.8465 20.4148H17.1787L15.7944 25.4121H17.4631L18.3921 22.058H25.8937C26.128 22.058 26.3485 21.9781 26.5559 21.8182C26.7628 21.6583 26.899 21.461 26.9643 21.2254L27.8932 17.8706C27.961 17.6272 27.9376 17.4251 27.8232 17.2656Z" fill="#66686C"/>
<path d="M14.8227 24.854C14.7306 25.1856 14.4286 25.415 14.0843 25.415H5.48048C5.24604 25.415 5.07178 25.3351 4.9572 25.1755C4.8427 25.0157 4.81814 24.818 4.88361 24.5825L6.98296 17.0254H8.65208L6.77697 23.7751H13.4536L15.3287 17.0254H16.9975L14.8227 24.854Z" fill="#66686C"/>
<path d="M33.8885 17.0166L35.9998 21.2154L31.5615 25.4131L33.8885 17.0166Z" fill="#27803B"/>
<path d="M32.4082 17.0166L34.5179 21.2154L30.0779 25.4131L32.4082 17.0166Z" fill="#E9661C"/>
</g>
</svg>
