<svg width="40" height="40" viewBox="0 0 40 40" fill="none" xmlns="http://www.w3.org/2000/svg">
<rect width="40" height="40" rx="20" fill="#002D44"/>
<path d="M17.872 24.649H15.261L16.893 15.1699H19.5041L17.872 24.649Z" fill="white"/>
<path d="M13.0643 15.1699L10.5748 21.6895L10.2804 20.2856L10.2806 20.2861L9.40197 16.0236C9.40197 16.0236 9.29581 15.1699 8.16328 15.1699H4.0481L4 15.3303C4 15.3303 5.25883 15.5777 6.73129 16.4141L8.99982 24.649H11.7203L15.8747 15.1699H13.0643Z" fill="white"/>
<path d="M33.6026 24.649H36L33.9095 15.1699H31.8102C30.8409 15.1699 30.6049 15.8763 30.6049 15.8763L26.7109 24.649H29.4324L29.9768 23.241H33.2963L33.6026 24.649ZM30.7293 21.2958L32.1013 17.7485L32.8731 21.2958H30.7293Z" fill="white"/>
<path d="M26.9152 17.4491L27.2879 15.4132C27.2879 15.4132 26.138 15 24.9393 15C23.6436 15 20.5664 15.5357 20.5664 18.138C20.5664 20.5871 24.1779 20.6176 24.1779 21.9035C24.1779 23.1894 20.9387 22.9596 19.8697 22.1484L19.4812 24.2764C19.4812 24.2764 20.6471 24.8119 22.4289 24.8119C24.2104 24.8119 26.8989 23.9396 26.8989 21.5667C26.8989 19.1023 23.2548 18.8727 23.2548 17.8012C23.2549 16.7296 25.7978 16.8673 26.9152 17.4491Z" fill="white"/>
<path d="M10.2807 20.2861L9.40207 16.0236C9.40207 16.0236 9.29591 15.1699 8.16338 15.1699H4.0481L4 15.3303C4 15.3303 5.97802 15.7178 7.87552 17.1693C9.68912 18.5568 10.2807 20.2861 10.2807 20.2861Z" fill="#FAA634"/>
</svg>
