<svg width="20" height="20" viewBox="0 0 20 20" fill="none" xmlns="http://www.w3.org/2000/svg">
<rect x="2.5" y="2.5" width="15" height="15" rx="3.5" fill="white" stroke="url(#paint0_linear_7931_432593)"/>
<g clip-path="url(#clip0_7931_432593)">
<path d="M13.6532 13.2349C9.53284 15.1959 6.97568 13.5552 5.33878 12.5587C5.23751 12.4959 5.06533 12.5734 5.21472 12.745C5.76003 13.4062 7.54721 15 9.88002 15C12.2144 15 13.6032 13.7262 13.7769 13.504C13.9494 13.2837 13.8275 13.1621 13.6532 13.2349ZM14.8104 12.5959C14.6997 12.4518 14.1375 12.4249 13.7838 12.4684C13.4294 12.5106 12.8975 12.7272 12.9438 12.8571C12.9675 12.9059 13.016 12.884 13.2594 12.8622C13.5035 12.8378 14.1872 12.7515 14.3297 12.9378C14.4729 13.1253 14.1116 14.0187 14.0457 14.1628C13.9819 14.3069 14.07 14.344 14.1897 14.2481C14.3078 14.1522 14.5216 13.9037 14.665 13.5522C14.8075 13.1987 14.8944 12.7056 14.8104 12.5959Z" fill="#F4B459"/>
<path d="M12.6106 10.1222V6.83843C12.6106 6.27438 12.065 5 10.104 5C8.14341 5 7.10029 6.22532 7.10029 7.32906L8.73904 7.47564C8.73904 7.47564 9.10404 6.37252 9.95122 6.37252C10.7984 6.37252 10.7403 7.05877 10.7403 7.2072V7.92065C9.65498 7.95721 6.95996 8.26721 6.95996 10.5397C6.95996 12.9834 10.0447 13.0859 11.0562 11.5066C11.0953 11.5706 11.1397 11.6335 11.1953 11.6922C11.5675 12.0835 12.064 12.5497 12.064 12.5497L13.329 11.2997C13.3297 11.2994 12.6106 10.735 12.6106 10.1222ZM8.86217 10.2375C8.86217 9.18781 9.98685 8.97499 10.7406 8.95V9.85344C10.7403 11.6431 8.86217 11.3722 8.86217 10.2375Z" fill="#484848"/>
</g>
<defs>
<linearGradient id="paint0_linear_7931_432593" x1="2" y1="2" x2="18" y2="18" gradientUnits="userSpaceOnUse">
<stop stop-color="#FF9B55"/>
<stop offset="1" stop-color="#DA4F23"/>
</linearGradient>
<clipPath id="clip0_7931_432593">
<rect width="10" height="10" fill="white" transform="translate(5 5)"/>
</clipPath>
</defs>
</svg>
