<svg width="12" height="12" viewBox="0 0 12 12" fill="none" xmlns="http://www.w3.org/2000/svg">
<path d="M6 10.875C6.96418 10.875 7.90671 10.5891 8.7084 10.0534C9.51009 9.51774 10.1349 8.75637 10.5039 7.86558C10.8729 6.97479 10.9694 5.99459 10.7813 5.04893C10.5932 4.10328 10.1289 3.23464 9.44714 2.55285C8.76536 1.87107 7.89672 1.40677 6.95106 1.21867C6.00541 1.03057 5.02521 1.12711 4.13442 1.49609C3.24363 1.86507 2.48226 2.48991 1.94658 3.2916C1.41091 4.09329 1.125 5.03582 1.125 6C1.12649 7.29247 1.64059 8.53158 2.5545 9.4455C3.46842 10.3594 4.70753 10.8735 6 10.875ZM4.14404 6.01904C4.17885 5.98421 4.22019 5.95658 4.26568 5.93773C4.31117 5.91888 4.35993 5.90918 4.40918 5.90918C4.45842 5.90918 4.50719 5.91888 4.55268 5.93773C4.59817 5.95658 4.6395 5.98421 4.67432 6.01904L5.625 6.96973L5.625 4.125C5.625 4.02554 5.66451 3.93016 5.73483 3.85984C5.80516 3.78951 5.90054 3.75 6 3.75C6.09946 3.75 6.19484 3.78951 6.26516 3.85984C6.33549 3.93016 6.375 4.02554 6.375 4.125L6.375 6.96973L7.32568 6.01904C7.39603 5.94885 7.49136 5.90945 7.59074 5.9095C7.69011 5.90956 7.7854 5.94906 7.85567 6.01933C7.92594 6.0896 7.96544 6.18489 7.9655 6.28426C7.96555 6.38364 7.92615 6.47897 7.85596 6.54932L6.26559 8.13968C6.19509 8.21 6.09958 8.24948 6 8.24948C5.90042 8.24948 5.80491 8.21 5.73441 8.13968L4.14404 6.54932C4.10921 6.51451 4.08158 6.47317 4.06273 6.42768C4.04388 6.38219 4.03418 6.33342 4.03418 6.28418C4.03418 6.23494 4.04388 6.18617 4.06273 6.14068C4.08158 6.09519 4.10921 6.05386 4.14404 6.01904Z" fill="#2F363D"/>
</svg>
