<svg width="17" height="16" viewBox="0 0 17 16" fill="none" xmlns="http://www.w3.org/2000/svg">
<path d="M4.01267 6.99999C4.01102 6.40962 4.12588 5.82472 4.35066 5.27882C4.57545 4.73292 4.90574 4.23673 5.32261 3.81869C5.73948 3.40065 6.23474 3.06898 6.78002 2.84267C7.32529 2.61637 7.90986 2.49988 8.50023 2.49988C9.0906 2.49988 9.67517 2.61637 10.2204 2.84267C10.7657 3.06898 11.261 3.40065 11.6779 3.81869C12.0947 4.23673 12.425 4.73292 12.6498 5.27882C12.8746 5.82472 12.9894 6.40962 12.9878 6.99999V6.99999C12.9878 9.23846 13.4561 10.5374 13.8686 11.2474C13.913 11.3232 13.9367 11.4095 13.9372 11.4974C13.9376 11.5853 13.9149 11.6718 13.8713 11.7481C13.8277 11.8244 13.7647 11.8879 13.6887 11.9321C13.6127 11.9764 13.5264 11.9998 13.4385 12H3.56146C3.47354 11.9998 3.38723 11.9763 3.31124 11.9321C3.23525 11.8879 3.17227 11.8244 3.12865 11.748C3.08504 11.6717 3.06233 11.5852 3.06281 11.4973C3.0633 11.4094 3.08696 11.3231 3.13142 11.2473C3.54413 10.5373 4.01267 9.23835 4.01267 6.99999H4.01267Z" stroke="white" stroke-linecap="round" stroke-linejoin="round"/>
<path d="M6.5 12V12.5C6.5 13.0304 6.71071 13.5391 7.08579 13.9142C7.46086 14.2893 7.96957 14.5 8.5 14.5C9.03043 14.5 9.53914 14.2893 9.91421 13.9142C10.2893 13.5391 10.5 13.0304 10.5 12.5V12" stroke="white" stroke-linecap="round" stroke-linejoin="round"/>
<path d="M11.9645 1.49927C12.9819 2.14155 13.8021 3.05248 14.3344 4.13149" stroke="white" stroke-linecap="round" stroke-linejoin="round"/>
<path d="M2.66559 4.13149C3.19793 3.05248 4.01808 2.14155 5.03549 1.49927" stroke="white" stroke-linecap="round" stroke-linejoin="round"/>
</svg>
