<svg width="20" height="20" viewBox="0 0 20 20" fill="none" xmlns="http://www.w3.org/2000/svg">
<path d="M18.6506 5.74499C18.4718 5.59572 18.2546 5.49972 18.0238 5.46796C17.7931 5.43619 17.558 5.46992 17.3455 5.56532L13.3936 7.32176L11.0927 3.17999C10.9845 2.98511 10.8261 2.82273 10.6339 2.70967C10.4418 2.59661 10.2229 2.53699 10 2.53699C9.77709 2.53699 9.55822 2.59661 9.3661 2.70967C9.17397 2.82273 9.01558 2.98511 8.90733 3.17999L6.60631 7.32168L2.65382 5.56502C2.44116 5.47053 2.20635 5.43728 1.97582 5.46901C1.74528 5.50074 1.52818 5.59619 1.34896 5.74462C1.16973 5.89305 1.0355 6.08856 0.961367 6.30914C0.887234 6.52972 0.876146 6.76662 0.929352 6.99316L2.91727 15.4567C2.95509 15.6205 3.02592 15.775 3.12543 15.9105C3.22494 16.0461 3.35104 16.1599 3.49603 16.2451C3.64178 16.3309 3.80328 16.3865 3.97095 16.4087C4.13862 16.4309 4.30903 16.4191 4.47206 16.3741C8.08846 15.3757 11.9077 15.3754 15.5243 16.373C15.6873 16.418 15.8576 16.4297 16.0252 16.4075C16.1928 16.3854 16.3542 16.3298 16.4999 16.244C16.6448 16.1589 16.7709 16.0452 16.8704 15.9097C16.9699 15.7743 17.0407 15.62 17.0786 15.4562L19.07 6.99385C19.1242 6.7673 19.1136 6.53009 19.0394 6.30927C18.9653 6.08845 18.8305 5.89292 18.6506 5.74499ZM13.1216 12.6966C13.1131 12.7783 13.0886 12.8574 13.0494 12.9296C13.0103 13.0018 12.9573 13.0655 12.8935 13.1172C12.8297 13.1689 12.7563 13.2074 12.6776 13.2307C12.5988 13.254 12.5163 13.2615 12.4346 13.2528C10.816 13.0828 9.18402 13.0828 7.5654 13.2528C7.40086 13.2695 7.2364 13.2203 7.10804 13.116C6.97969 13.0118 6.8979 12.8608 6.8806 12.6964C6.8633 12.5319 6.91189 12.3673 7.01574 12.2385C7.11958 12.1098 7.27021 12.0275 7.43463 12.0096C9.14019 11.8305 10.8598 11.8305 12.5654 12.0096C12.647 12.0182 12.7262 12.0428 12.7983 12.082C12.8704 12.1211 12.9341 12.1741 12.9858 12.2379C13.0374 12.3017 13.076 12.375 13.0993 12.4537C13.1226 12.5324 13.1302 12.615 13.1216 12.6966Z" fill="url(#paint0_linear_7931_431438)"/>
<path d="M13.1214 12.6965C13.1129 12.7782 13.0884 12.8574 13.0492 12.9296C13.0101 13.0018 12.9571 13.0655 12.8933 13.1172C12.8295 13.1688 12.7561 13.2074 12.6774 13.2307C12.5986 13.2539 12.5161 13.2614 12.4344 13.2527C10.8158 13.0827 9.18381 13.0827 7.56518 13.2527C7.40065 13.2695 7.23619 13.2203 7.10783 13.116C6.97947 13.0117 6.89769 12.8608 6.88038 12.6963C6.86308 12.5318 6.91168 12.3672 7.01552 12.2385C7.11937 12.1098 7.27 12.0275 7.43441 12.0096C9.13998 11.8305 10.8596 11.8305 12.5652 12.0096C12.6468 12.0182 12.7259 12.0428 12.7981 12.0819C12.8702 12.1211 12.9339 12.1741 12.9856 12.2379C13.0372 12.3017 13.0758 12.375 13.0991 12.4537C13.1224 12.5324 13.13 12.6149 13.1214 12.6965Z" fill="white"/>
<defs>
<linearGradient id="paint0_linear_7931_431438" x1="0.89624" y1="2.53699" x2="14.2834" y2="20.0951" gradientUnits="userSpaceOnUse">
<stop stop-color="#FF9B55"/>
<stop offset="1" stop-color="#DA4F23"/>
</linearGradient>
</defs>
</svg>
