<svg width="20" height="20" viewBox="0 0 20 20" fill="none" xmlns="http://www.w3.org/2000/svg">
<path d="M10 1.875C8.39303 1.875 6.82214 2.35152 5.486 3.24431C4.14985 4.1371 3.10844 5.40605 2.49348 6.8907C1.87852 8.37535 1.71762 10.009 2.03112 11.5851C2.34463 13.1612 3.11846 14.6089 4.25476 15.7452C5.39106 16.8815 6.8388 17.6554 8.4149 17.9689C9.99099 18.2824 11.6247 18.1215 13.1093 17.5065C14.594 16.8916 15.8629 15.8502 16.7557 14.514C17.6485 13.1779 18.125 11.607 18.125 10C18.1226 7.84586 17.2658 5.78065 15.7426 4.25745C14.2193 2.73425 12.1541 1.87744 10 1.875ZM9.8438 5.62503C10.0292 5.62503 10.2105 5.68001 10.3646 5.78303C10.5188 5.88604 10.639 6.03246 10.7099 6.20376C10.7809 6.37507 10.7995 6.56357 10.7633 6.74543C10.7271 6.92728 10.6378 7.09433 10.5067 7.22544C10.3756 7.35655 10.2085 7.44584 10.0267 7.48201C9.84484 7.51819 9.65634 7.49962 9.48503 7.42867C9.31372 7.35771 9.16731 7.23755 9.06429 7.08338C8.96128 6.9292 8.9063 6.74795 8.9063 6.56253C8.9063 6.31389 9.00507 6.07543 9.18088 5.89962C9.3567 5.7238 9.59516 5.62503 9.8438 5.62503ZM10.625 14.375H10C9.83425 14.375 9.67528 14.3091 9.55807 14.1919C9.44087 14.0747 9.37502 13.9158 9.37501 13.75V10C9.20925 10 9.05028 9.93415 8.93307 9.81694C8.81586 9.69973 8.75001 9.54076 8.75001 9.375C8.75001 9.20924 8.81586 9.05027 8.93307 8.93306C9.05028 8.81585 9.20925 8.75 9.37501 8.75H10C10.1658 8.75001 10.3247 8.81586 10.4419 8.93307C10.5591 9.05028 10.625 9.20924 10.625 9.375V13.125C10.7908 13.125 10.9497 13.1908 11.0669 13.3081C11.1842 13.4253 11.25 13.5842 11.25 13.75C11.25 13.9158 11.1842 14.0747 11.0669 14.1919C10.9497 14.3092 10.7908 14.375 10.625 14.375Z" fill="#6A737D"/>
</svg>
