<svg width="21" height="20" viewBox="0 0 21 20" fill="none" xmlns="http://www.w3.org/2000/svg">
<path d="M12.375 6.25V15.9155C12.375 16.0184 12.4004 16.1197 12.449 16.2104C12.4975 16.3011 12.5677 16.3785 12.6533 16.4355L13.5121 17.008C13.5954 17.0636 13.6909 17.0983 13.7904 17.1093C13.89 17.1202 13.9907 17.1071 14.0841 17.071C14.1776 17.0349 14.2609 16.9768 14.3272 16.9017C14.3935 16.8267 14.4408 16.7368 14.4651 16.6396L15.5 12.5" stroke="white" stroke-width="1.5" stroke-linecap="round" stroke-linejoin="round"/>
<path d="M15.5 12.5C16.3288 12.5 17.1237 12.1708 17.7097 11.5847C18.2958 10.9987 18.625 10.2038 18.625 9.37501C18.625 8.54621 18.2958 7.75135 17.7097 7.1653C17.1237 6.57925 16.3288 6.25001 15.5 6.25001H12.375C12.375 6.25001 8.12096 6.25001 4.02726 2.8166C3.93622 2.73997 3.82518 2.69093 3.70722 2.67525C3.58926 2.65957 3.46927 2.6779 3.36137 2.72808C3.25346 2.77826 3.16214 2.85821 3.09812 2.95853C3.0341 3.05884 3.00006 3.17535 3 3.29435V15.4557C3.00006 15.5747 3.0341 15.6912 3.09812 15.7915C3.16214 15.8918 3.25346 15.9718 3.36137 16.0219C3.46927 16.0721 3.58926 16.0904 3.70722 16.0748C3.82518 16.0591 3.93622 16.01 4.02726 15.9334C8.12096 12.5 12.375 12.5 12.375 12.5H15.5Z" stroke="white" stroke-width="1.5" stroke-linecap="round" stroke-linejoin="round"/>
</svg>
