<svg width="20" height="20" viewBox="0 0 20 20" fill="none" xmlns="http://www.w3.org/2000/svg">
<path d="M17.7493 8.1625C18.0314 8.10448 18.2849 7.95109 18.4671 7.72812C18.6494 7.50515 18.7493 7.22622 18.75 6.93825V5C18.7496 4.6686 18.6178 4.35087 18.3835 4.11654C18.1491 3.8822 17.8314 3.75038 17.5 3.75H2.5C2.1686 3.75038 1.85087 3.8822 1.61654 4.11654C1.3822 4.35087 1.25038 4.6686 1.25 5V6.93825C1.25074 7.22622 1.35063 7.50515 1.53288 7.72812C1.71512 7.95109 1.9686 8.10448 2.25067 8.1625C2.674 8.2492 3.05441 8.47941 3.3276 8.81421C3.60079 9.14902 3.74999 9.56788 3.74999 10C3.74999 10.4321 3.60079 10.851 3.3276 11.1858C3.05441 11.5206 2.674 11.7508 2.25067 11.8375C1.9686 11.8955 1.71512 12.0489 1.53288 12.2719C1.35063 12.4948 1.25074 12.7738 1.25 13.0618V15C1.25038 15.3314 1.3822 15.6491 1.61654 15.8835C1.85087 16.1178 2.1686 16.2496 2.5 16.25H17.5C17.8314 16.2496 18.1491 16.1178 18.3835 15.8835C18.6178 15.6491 18.7496 15.3314 18.75 15V13.0618C18.7493 12.7738 18.6494 12.4948 18.4671 12.2719C18.2849 12.0489 18.0314 11.8955 17.7493 11.8375C17.326 11.7508 16.9456 11.5206 16.6724 11.1858C16.3992 10.851 16.25 10.4321 16.25 10C16.25 9.56788 16.3992 9.14902 16.6724 8.81421C16.9456 8.47941 17.326 8.2492 17.7493 8.1625ZM2.5 13.0624C3.20576 12.9183 3.84007 12.5348 4.29562 11.9768C4.75118 11.4188 5 10.7206 5 10.0003C5 9.27998 4.75118 8.58178 4.29562 8.02381C3.84007 7.46583 3.20576 7.08236 2.5 6.93825V5H6.875V15H2.5V13.0624Z" fill="url(#paint0_linear_7931_431442)"/>
<defs>
<linearGradient id="paint0_linear_7931_431442" x1="1.25" y1="3.75" x2="13.0743" y2="20.3041" gradientUnits="userSpaceOnUse">
<stop stop-color="#FF9B55"/>
<stop offset="1" stop-color="#DA4F23"/>
</linearGradient>
</defs>
</svg>
