<svg width="20" height="20" viewBox="0 0 20 20" fill="none" xmlns="http://www.w3.org/2000/svg">
<g clip-path="url(#clip0_7931_434557)">
<path d="M17.4998 2.5C17.7209 2.5 17.9328 2.5878 18.0891 2.74408C18.2454 2.90036 18.3332 3.11232 18.3332 3.33333V7.91667C17.7806 7.91667 17.2507 8.13616 16.86 8.52686C16.4693 8.91756 16.2498 9.44747 16.2498 10C16.2498 10.5525 16.4693 11.0824 16.86 11.4731C17.2507 11.8638 17.7806 12.0833 18.3332 12.0833V16.6667C18.3332 16.8877 18.2454 17.0996 18.0891 17.2559C17.9328 17.4122 17.7209 17.5 17.4998 17.5H2.49984C2.27882 17.5 2.06686 17.4122 1.91058 17.2559C1.7543 17.0996 1.6665 16.8877 1.6665 16.6667V12.0833C2.21904 12.0833 2.74894 11.8638 3.13964 11.4731C3.53034 11.0824 3.74984 10.5525 3.74984 10C3.74984 9.44747 3.53034 8.91756 3.13964 8.52686C2.74894 8.13616 2.21904 7.91667 1.6665 7.91667V3.33333C1.6665 3.11232 1.7543 2.90036 1.91058 2.74408C2.06686 2.5878 2.27882 2.5 2.49984 2.5H17.4998Z" fill="url(#paint0_linear_7931_434557)"/>
</g>
<defs>
<linearGradient id="paint0_linear_7931_434557" x1="1.6665" y1="2.5" x2="16.5836" y2="19.0746" gradientUnits="userSpaceOnUse">
<stop stop-color="#FF9B55"/>
<stop offset="1" stop-color="#DA4F23"/>
</linearGradient>
<clipPath id="clip0_7931_434557">
<rect width="20" height="20" fill="white"/>
</clipPath>
</defs>
</svg>
