<svg width="24" height="25" viewBox="0 0 24 25" fill="none" xmlns="http://www.w3.org/2000/svg">
<path d="M9 21.375H15" stroke="white" stroke-width="1.5" stroke-linecap="round" stroke-linejoin="round"/>
<path d="M5.26904 10.125C5.2678 9.23551 5.44262 8.35457 5.78343 7.53296C6.12424 6.71135 6.6243 5.96531 7.25477 5.33786C7.88525 4.71041 8.63368 4.21395 9.45693 3.8771C10.2802 3.54025 11.1619 3.36967 12.0514 3.37519C15.763 3.40278 18.7317 6.48782 18.7317 10.2097V10.875C18.7317 14.2327 19.4342 16.1812 20.0529 17.2461C20.1196 17.3599 20.1551 17.4892 20.1558 17.6211C20.1565 17.753 20.1224 17.8827 20.0569 17.9972C19.9915 18.1117 19.8971 18.2069 19.7831 18.2732C19.6691 18.3396 19.5397 18.3747 19.4078 18.375H4.59222C4.46034 18.3747 4.33087 18.3395 4.21689 18.2732C4.1029 18.2068 4.00844 18.1116 3.94301 17.9971C3.87759 17.8826 3.84352 17.7528 3.84425 17.6209C3.84498 17.4891 3.88048 17.3597 3.94716 17.2459C4.56622 16.181 5.26904 14.2325 5.26904 10.875L5.26904 10.125Z" stroke="white" stroke-width="1.5" stroke-linecap="round" stroke-linejoin="round"/>
</svg>
