<svg width="16" height="16" viewBox="0 0 16 16" fill="none" xmlns="http://www.w3.org/2000/svg">
<path d="M11.3535 8.35357L6.35355 13.3536C6.28362 13.4235 6.19452 13.4711 6.09753 13.4904C6.00054 13.5097 5.90001 13.4998 5.80865 13.4619C5.71729 13.4241 5.6392 13.36 5.58426 13.2778C5.52932 13.1956 5.5 13.0989 5.5 13L5.5 2.99999C5.5 2.9011 5.52933 2.80444 5.58427 2.72221C5.63921 2.63999 5.71729 2.5759 5.80865 2.53806C5.90001 2.50021 6.00054 2.49031 6.09753 2.50959C6.19452 2.52888 6.28362 2.5765 6.35355 2.64642L11.3535 7.64642C11.4 7.69285 11.4368 7.74797 11.4619 7.80864C11.4871 7.8693 11.5 7.93433 11.5 7.99999C11.5 8.06566 11.4871 8.13068 11.4619 8.19135C11.4368 8.25201 11.4 8.30714 11.3535 8.35357Z" fill="white"/>
</svg>
