<svg width="24" height="25" viewBox="0 0 24 25" fill="none" xmlns="http://www.w3.org/2000/svg">
<path d="M9.23005 23.125C9.22005 23.125 9.21005 23.125 9.19005 23.125C7.51005 23.115 6.31005 21.605 5.46005 20.295C3.29005 16.965 2.85005 12.775 4.42005 10.345C5.47005 8.715 7.17005 7.70499 8.85005 7.70499C9.72005 7.70499 10.4001 7.94501 11.0001 8.16501C11.4801 8.33501 11.89 8.48499 12.32 8.48499C12.7 8.48499 13.03 8.35501 13.45 8.19501C14.03 7.97501 14.74 7.70499 15.77 7.70499C17.25 7.70499 18.7701 8.495 19.8301 9.835C19.9701 10.005 20.0201 10.235 19.9801 10.445C19.9401 10.665 19.8001 10.845 19.6101 10.955C18.4801 11.575 17.86 12.705 17.95 13.985C18.04 15.285 18.8401 16.385 20.0401 16.835C20.2301 16.905 20.3901 17.055 20.4701 17.245C20.5501 17.435 20.55 17.655 20.46 17.835C20.02 18.815 19.8001 19.265 19.2301 20.145C18.2801 21.605 17.0801 23.105 15.4401 23.125C14.7301 23.125 14.2501 22.915 13.8301 22.715C13.4101 22.525 13 22.375 12.35 22.355C11.65 22.355 11.28 22.525 10.85 22.715C10.41 22.915 9.93005 23.125 9.23005 23.125ZM8.85005 9.20499C7.67005 9.20499 6.46005 9.955 5.68005 11.155C4.62005 12.795 4.63005 16.265 6.72005 19.475C7.37005 20.475 8.24005 21.615 9.21005 21.625C9.57005 21.615 9.84005 21.515 10.21 21.355C10.7 21.135 11.31 20.865 12.32 20.855C13.31 20.835 13.9501 21.125 14.4401 21.355C14.8001 21.525 15.0401 21.635 15.4101 21.625C16.3501 21.615 17.26 20.395 17.96 19.335C18.33 18.765 18.54 18.405 18.77 17.895C17.43 17.105 16.5501 15.715 16.4401 14.095C16.3301 12.565 16.95 11.135 18.09 10.185C17.39 9.565 16.5601 9.215 15.7601 9.215C15.0101 9.215 14.5101 9.40501 13.9801 9.60501C13.4801 9.79501 12.96 9.995 12.31 9.995C11.62 9.995 11.05 9.785 10.49 9.59501C9.96005 9.385 9.45005 9.20499 8.85005 9.20499ZM11.82 7.50501C11.79 7.50501 11.7501 7.50501 11.7201 7.50501C11.3701 7.49501 11.0701 7.23501 11.0101 6.88501C10.8001 5.75501 11.2 4.45499 12.07 3.39499C12.87 2.42499 14.1901 1.705 15.3601 1.625C15.7701 1.605 16.1001 1.87502 16.1501 2.26502C16.3201 3.43502 15.9501 4.71501 15.1201 5.78501C14.3101 6.83501 13.02 7.50501 11.82 7.50501ZM14.6501 3.32502C14.1101 3.54502 13.5801 3.915 13.2301 4.34501C12.9001 4.74501 12.59 5.30501 12.49 5.88501C13.03 5.70501 13.5701 5.34499 13.9401 4.86499C14.1401 4.61499 14.5201 4.03502 14.6501 3.32502Z" fill="white"/>
</svg>
