<svg width="24" height="25" viewBox="0 0 24 25" fill="none" xmlns="http://www.w3.org/2000/svg">
<path d="M8.71118 15.9433C9.59683 15.0973 10.7745 14.6252 11.9992 14.6252C13.224 14.6252 14.4016 15.0973 15.2873 15.9433" stroke="white" stroke-width="1.5" stroke-linecap="round" stroke-linejoin="round"/>
<path d="M5.5293 12.7613C7.25895 11.0714 9.58115 10.1252 11.9993 10.1252C14.4175 10.1252 16.7397 11.0714 18.4694 12.7613" stroke="white" stroke-width="1.5" stroke-linecap="round" stroke-linejoin="round"/>
<path d="M2.34961 9.5793C4.92224 7.0455 8.38825 5.62524 11.9991 5.62524C15.61 5.62524 19.0761 7.0455 21.6487 9.5793" stroke="white" stroke-width="1.5" stroke-linecap="round" stroke-linejoin="round"/>
<path d="M12 20.25C12.6213 20.25 13.125 19.7463 13.125 19.125C13.125 18.5037 12.6213 18 12 18C11.3787 18 10.875 18.5037 10.875 19.125C10.875 19.7463 11.3787 20.25 12 20.25Z" stroke="white" stroke-width="1.5" stroke-linecap="round" stroke-linejoin="round"/>
</svg>
