<svg width="20" height="20" viewBox="0 0 20 20" fill="none" xmlns="http://www.w3.org/2000/svg">
<path d="M18.6506 5.74487C18.4718 5.5956 18.2546 5.4996 18.0238 5.46783C17.7931 5.43606 17.558 5.4698 17.3455 5.5652L13.3936 7.32164L11.0927 3.17987C10.9845 2.98499 10.8261 2.8226 10.6339 2.70954C10.4418 2.59648 10.2229 2.53687 10 2.53687C9.77709 2.53687 9.55822 2.59648 9.3661 2.70954C9.17397 2.8226 9.01558 2.98499 8.90733 3.17987L6.60631 7.32156L2.65382 5.56489C2.44116 5.47041 2.20635 5.43716 1.97582 5.46889C1.74528 5.50062 1.52818 5.59607 1.34896 5.7445C1.16973 5.89293 1.0355 6.08843 0.961367 6.30902C0.887234 6.5296 0.876146 6.7665 0.929352 6.99304L2.91727 15.4566C2.95509 15.6204 3.02592 15.7748 3.12543 15.9104C3.22494 16.0459 3.35104 16.1598 3.49603 16.245C3.64178 16.3308 3.80328 16.3864 3.97095 16.4086C4.13862 16.4307 4.30903 16.419 4.47206 16.374C8.08846 15.3756 11.9077 15.3752 15.5243 16.3729C15.6873 16.4179 15.8576 16.4296 16.0252 16.4074C16.1928 16.3853 16.3542 16.3297 16.4999 16.2439C16.6448 16.1588 16.7709 16.045 16.8704 15.9096C16.9699 15.7741 17.0407 15.6198 17.0786 15.4561L19.07 6.99373C19.1242 6.76718 19.1136 6.52996 19.0394 6.30915C18.9653 6.08833 18.8305 5.8928 18.6506 5.74487ZM13.1216 12.6965C13.1131 12.7781 13.0886 12.8573 13.0494 12.9295C13.0103 13.0017 12.9573 13.0654 12.8935 13.1171C12.8297 13.1688 12.7563 13.2073 12.6776 13.2306C12.5988 13.2538 12.5163 13.2613 12.4346 13.2527C10.816 13.0827 9.18402 13.0827 7.5654 13.2527C7.40086 13.2694 7.2364 13.2202 7.10804 13.1159C6.97969 13.0116 6.8979 12.8607 6.8806 12.6962C6.8633 12.5318 6.91189 12.3671 7.01574 12.2384C7.11958 12.1097 7.27021 12.0274 7.43463 12.0095C9.14019 11.8304 10.8598 11.8304 12.5654 12.0095C12.647 12.0181 12.7262 12.0427 12.7983 12.0818C12.8704 12.121 12.9341 12.174 12.9858 12.2378C13.0374 12.3016 13.076 12.3749 13.0993 12.4536C13.1226 12.5323 13.1302 12.6148 13.1216 12.6965Z" fill="url(#paint0_linear_5394_263769)"/>
<defs>
<linearGradient id="paint0_linear_5394_263769" x1="0.89624" y1="2.53687" x2="14.2834" y2="20.095" gradientUnits="userSpaceOnUse">
<stop stop-color="#FF9B55"/>
<stop offset="1" stop-color="#DA4F23"/>
</linearGradient>
</defs>
</svg>
