<svg width="25" height="24" viewBox="0 0 25 24" fill="none" xmlns="http://www.w3.org/2000/svg">
<path d="M17.2568 7.00269C12.4206 6.99093 7.58609 6.99093 2.75337 7.00269C1.69529 7.00269 0.877053 7.49742 0.354873 8.42087C0.189527 8.71235 0.115677 9.05612 0 9.37635V21.61C0.116984 21.9368 0.196062 22.2844 0.35814 22.5864C0.762683 23.3327 1.41034 23.7752 2.23969 23.9529C2.29132 23.964 2.34033 23.9843 2.39131 24.0006H17.6267C17.6678 23.9822 17.7102 23.9667 17.7535 23.9542C19.0769 23.683 19.9977 22.6008 20.0016 21.2479C20.0125 17.4138 20.0125 13.5797 20.0016 9.7456C20.0042 9.3845 19.935 9.02649 19.798 8.6924C19.6609 8.35831 19.4588 8.0548 19.2034 7.79955C18.9479 7.5443 18.6443 7.3424 18.3101 7.2056C17.9759 7.06879 17.6179 6.99982 17.2568 7.00269V7.00269ZM18.5057 12.2768C18.5057 15.2125 18.5057 18.1484 18.5057 21.0845C18.5057 21.9995 18.0044 22.5008 17.0842 22.5008H2.90891C2.0018 22.5008 1.50053 22.0021 1.50053 21.1002C1.50053 18.1641 1.50053 15.2279 1.50053 12.2918V12.0134H18.5057V12.2768ZM18.5057 10.49H1.5136C1.5136 10.1698 1.47896 9.8554 1.52079 9.55085C1.59987 8.97312 2.05735 8.57053 2.65142 8.50518C2.72919 8.4981 2.8073 8.49526 2.88538 8.49668C7.62748 8.49668 12.3694 8.49668 17.111 8.49668C17.6254 8.49668 18.0645 8.65353 18.3116 9.11886C18.4305 9.34237 18.4599 9.62012 18.4972 9.87827C18.5286 10.0743 18.5057 10.2782 18.5057 10.49V10.49Z" fill="white"/>
<path d="M23.9987 2.705C23.9954 1.23584 22.7733 0.0104529 21.3074 0.00783875C16.4329 -0.00131083 11.5583 -0.00131083 6.68378 0.00783875C5.32833 0.00783875 4.15457 1.08487 4.0304 2.43705C3.9742 3.04942 3.99119 3.66963 3.99315 4.28592C3.9935 4.44415 4.04734 4.59761 4.14594 4.72136C4.24454 4.84511 4.38209 4.93188 4.53624 4.96756C4.73688 5.01462 4.95255 5.00547 5.16168 5.00547C10.841 5.00547 16.52 5.00547 22.1988 5.00547H22.5021V5.32244C22.5021 8.94611 22.5021 12.57 22.5021 16.1941C22.5021 16.6627 22.8334 17.0097 23.2615 17.0019C23.6896 16.994 24.0007 16.6588 24.0007 16.1987C24.0024 11.7006 24.0018 7.20267 23.9987 2.705ZM22.5021 3.48925H5.48257C5.50087 3.13895 5.48714 2.80107 5.54073 2.4743C5.62766 1.95147 6.12369 1.54235 6.66483 1.50706C6.75044 1.50118 6.83671 1.50379 6.92232 1.50379H21.0761C22.0119 1.50379 22.5021 1.99526 22.5021 2.93374V3.48925Z" fill="white"/>
</svg>
