<svg width="24" height="19" viewBox="0 0 24 19" fill="none" xmlns="http://www.w3.org/2000/svg">
<path d="M20.25 18.2501V8.83186C20.25 8.72736 20.2282 8.62401 20.1859 8.52845C20.1436 8.43288 20.0818 8.3472 20.0045 8.27691L12.504 1.45799C12.3659 1.33248 12.186 1.26293 11.9995 1.26294C11.8129 1.26295 11.633 1.3325 11.4949 1.45803L3.99545 8.27691C3.91814 8.34721 3.85637 8.43288 3.8141 8.52844C3.77183 8.624 3.75 8.72734 3.75 8.83183V18.2501" stroke="white" stroke-width="1.5" stroke-linecap="round" stroke-linejoin="round"/>
<path d="M1.5 18.25H22.5" stroke="white" stroke-width="1.5" stroke-linecap="round" stroke-linejoin="round"/>
<path d="M14.249 18.2493V12.9993C14.249 12.8004 14.17 12.6096 14.0294 12.4689C13.8887 12.3283 13.6979 12.2493 13.499 12.2493H10.499C10.3001 12.2493 10.1093 12.3283 9.96869 12.4689C9.82804 12.6096 9.74902 12.8004 9.74902 12.9993V18.2493" stroke="white" stroke-width="1.5" stroke-linecap="round" stroke-linejoin="round"/>
</svg>
