<svg width="16" height="16" viewBox="0 0 16 16" fill="none" xmlns="http://www.w3.org/2000/svg">
<path d="M7.99988 1.5C6.7143 1.5 5.45759 1.88122 4.38867 2.59545C3.31975 3.30968 2.48663 4.32484 1.99466 5.51256C1.50269 6.70028 1.37397 8.00721 1.62478 9.26809C1.87558 10.529 2.49465 11.6872 3.40369 12.5962C4.31273 13.5052 5.47092 14.1243 6.73179 14.3751C7.99267 14.6259 9.2996 14.4972 10.4873 14.0052C11.675 13.5132 12.6902 12.6801 13.4044 11.6112C14.1187 10.5423 14.4999 9.28558 14.4999 8C14.4979 6.27669 13.8125 4.62452 12.5939 3.40596C11.3754 2.1874 9.72319 1.50195 7.99988 1.5ZM7.87491 4.50002C8.02325 4.50002 8.16826 4.54401 8.29159 4.62642C8.41493 4.70883 8.51106 4.82597 8.56782 4.96301C8.62459 5.10006 8.63944 5.25086 8.6105 5.39634C8.58156 5.54183 8.51013 5.67546 8.40524 5.78035C8.30035 5.88524 8.16672 5.95667 8.02123 5.98561C7.87575 6.01455 7.72495 5.9997 7.5879 5.94293C7.45086 5.88617 7.33372 5.79004 7.25131 5.6667C7.1689 5.54336 7.12491 5.39836 7.12491 5.25002C7.12491 5.05111 7.20393 4.86035 7.34458 4.71969C7.48524 4.57904 7.676 4.50002 7.87491 4.50002ZM8.49988 11.5H7.99988C7.86728 11.5 7.7401 11.4473 7.64634 11.3535C7.55257 11.2598 7.49989 11.1326 7.49988 11V8C7.36728 8 7.2401 7.94732 7.14633 7.85355C7.05256 7.75979 6.99988 7.63261 6.99988 7.5C6.99988 7.36739 7.05256 7.24021 7.14633 7.14645C7.2401 7.05268 7.36728 7 7.49988 7H7.99988C8.13249 7.00001 8.25966 7.05269 8.35343 7.14645C8.4472 7.24022 8.49988 7.36739 8.49988 7.5V10.5C8.63249 10.5 8.75967 10.5527 8.85344 10.6464C8.94721 10.7402 8.99988 10.8674 8.99988 11C8.99988 11.1326 8.94721 11.2598 8.85344 11.3536C8.75967 11.4473 8.63249 11.5 8.49988 11.5Z" fill="white"/>
</svg>
