<svg width="14" height="13" viewBox="0 0 14 13" fill="none" xmlns="http://www.w3.org/2000/svg">
<path d="M7 12.5C10.3137 12.5 13 9.81371 13 6.5C13 3.18629 10.3137 0.5 7 0.5C3.68629 0.5 1 3.18629 1 6.5C1 9.81371 3.68629 12.5 7 12.5Z" stroke="#D1D5DA" stroke-width="0.75" stroke-linecap="round" stroke-linejoin="round"/>
<path d="M7 10C8.933 10 10.5 8.433 10.5 6.5C10.5 4.567 8.933 3 7 3C5.067 3 3.5 4.567 3.5 6.5C3.5 8.433 5.067 10 7 10Z" stroke="#D1D5DA" stroke-width="0.75" stroke-linecap="round" stroke-linejoin="round"/>
<path d="M7 3V0.5" stroke="#D1D5DA" stroke-width="0.75" stroke-linecap="round" stroke-linejoin="round"/>
<path d="M4.52509 4.02509L2.75732 2.25732" stroke="#D1D5DA" stroke-width="0.75" stroke-linecap="round" stroke-linejoin="round"/>
<path d="M3.5 6.5H1" stroke="#D1D5DA" stroke-width="0.75" stroke-linecap="round" stroke-linejoin="round"/>
<path d="M4.52509 8.97485L2.75732 10.7426" stroke="#D1D5DA" stroke-width="0.75" stroke-linecap="round" stroke-linejoin="round"/>
<path d="M7 10V12.5" stroke="#D1D5DA" stroke-width="0.75" stroke-linecap="round" stroke-linejoin="round"/>
<path d="M9.4751 8.97485L11.2429 10.7426" stroke="#D1D5DA" stroke-width="0.75" stroke-linecap="round" stroke-linejoin="round"/>
<path d="M10.5 6.5H13" stroke="#D1D5DA" stroke-width="0.75" stroke-linecap="round" stroke-linejoin="round"/>
<path d="M9.4751 4.02509L11.2429 2.25732" stroke="#D1D5DA" stroke-width="0.75" stroke-linecap="round" stroke-linejoin="round"/>
</svg>
