<svg width="20" height="20" viewBox="0 0 20 20" fill="none" xmlns="http://www.w3.org/2000/svg">
<path d="M16.6364 3.37915L16.6593 3.40871L16.6855 3.43534C18.409 5.18567 19.375 7.54357 19.375 10C19.375 12.4564 18.409 14.8143 16.6855 16.5647L16.6593 16.5913L16.6364 16.6209C16.6319 16.6266 16.6268 16.6318 16.621 16.6363L16.5914 16.6592L16.5647 16.6854C14.8144 18.409 12.4565 19.375 10 19.375C7.54354 19.375 5.18562 18.409 3.4353 16.6854L3.40861 16.6592L3.37898 16.6363C3.37323 16.6318 3.36806 16.6266 3.36361 16.6209L3.34074 16.5913L3.31451 16.5647C1.59102 14.8143 0.625 12.4564 0.625 10C0.625 7.54357 1.59102 5.18567 3.31451 3.43534L3.34073 3.40871L3.3636 3.37914C3.36807 3.37336 3.37327 3.36816 3.37906 3.36368L3.40862 3.34082L3.43525 3.3146C5.18558 1.59106 7.54352 0.625 10 0.625C12.4565 0.625 14.8144 1.59106 16.5647 3.3146L16.5914 3.34083L16.6209 3.36369C16.6267 3.36817 16.6319 3.37336 16.6364 3.37915ZM4.51606 10.6914L4.44738 10.1442H3.89592H1.57381H0.889582L0.951368 10.8257C1.11767 12.6598 1.83969 14.3996 3.02096 15.8125L3.45923 16.3367L3.9424 15.8536L5.58363 14.2123L5.97418 13.8218L5.63465 13.3862C5.02586 12.6051 4.63938 11.674 4.51606 10.6914ZM5.63465 6.61381L5.97418 6.17819L5.58363 5.78766L3.9424 4.14645L3.50046 4.58839L3.02096 4.18751C1.83969 5.60044 1.11767 7.34018 0.951368 9.17433L0.889582 9.85577H1.57381H3.89592H4.44738L4.51606 9.3086C4.63938 8.32598 5.02586 7.39492 5.63465 6.61381ZM15.4839 9.3086L15.5526 9.85577H16.1041H18.4262V9.23077L19.0486 9.17433C18.8823 7.34018 18.1603 5.60044 16.979 4.18751L16.5408 3.66329L16.0576 4.14645L14.4164 5.78766L14.0258 6.17819L14.3653 6.61381C14.9741 7.39492 15.3606 8.32598 15.4839 9.3086ZM13.3862 5.63463L13.8218 5.97415L14.2123 5.58362L15.8536 3.94241L16.3367 3.45924L15.8125 3.02096C14.3996 1.83969 12.6598 1.11767 10.8257 0.951347L10.1442 0.889553V1.57379V3.89595V4.44742L10.6914 4.51608C11.674 4.63938 12.6051 5.02585 13.3862 5.63463ZM9.30859 4.51608L9.85577 4.44742V3.89595V1.57379V0.889553L9.17433 0.951347C7.34017 1.11767 5.60044 1.83969 4.18751 3.02096L3.66328 3.45924L4.14645 3.94241L5.78769 5.58362L6.17822 5.97415L6.61384 5.63463C7.39493 5.02585 8.32598 4.63938 9.30859 4.51608ZM6.61384 14.3654L6.17822 14.0259L5.78769 14.4164L4.14645 16.0576L3.66328 16.5408L4.18751 16.979C5.60044 18.1603 7.34017 18.8823 9.17433 19.0487L9.85577 19.1105V18.4262V16.1041V15.5526L9.30859 15.4839C8.32598 15.3606 7.39493 14.9742 6.61384 14.3654ZM10.6914 15.4839L10.1442 15.5526V16.1041V18.4262V19.1105L10.8257 19.0487C12.6598 18.8823 14.3996 18.1603 15.8125 16.979L16.3367 16.5408L15.8536 16.0576L14.2123 14.4164L13.8218 14.0259L13.3862 14.3654C12.6051 14.9742 11.674 15.3606 10.6914 15.4839ZM14.3653 13.3862L14.0258 13.8218L14.4164 14.2124L16.0576 15.8536L16.5408 16.3367L16.979 15.8125C18.1603 14.3996 18.8823 12.6598 19.0486 10.8257L19.1104 10.1442H18.4262H16.1041H15.5526L15.4839 10.6914C15.3606 11.674 14.9741 12.6051 14.3653 13.3862Z" fill="white" stroke="white" stroke-width="1.25"/>
<g filter="url(#filter0_d_2306_1864)">
<rect x="3" y="3" width="14" height="14" rx="7" fill="white" shape-rendering="crispEdges"/>
<path d="M5.875 10H14.125" stroke="url(#paint0_linear_2306_1864)" stroke-width="2" stroke-linecap="round" stroke-linejoin="round"/>
<path d="M10 5.875V14.125" stroke="url(#paint1_linear_2306_1864)" stroke-width="2" stroke-linecap="round" stroke-linejoin="round"/>
</g>
<defs>
<filter id="filter0_d_2306_1864" x="2" y="2" width="16" height="16" filterUnits="userSpaceOnUse" color-interpolation-filters="sRGB">
<feFlood flood-opacity="0" result="BackgroundImageFix"/>
<feColorMatrix in="SourceAlpha" type="matrix" values="0 0 0 0 0 0 0 0 0 0 0 0 0 0 0 0 0 0 127 0" result="hardAlpha"/>
<feOffset/>
<feGaussianBlur stdDeviation="0.5"/>
<feComposite in2="hardAlpha" operator="out"/>
<feColorMatrix type="matrix" values="0 0 0 0 0 0 0 0 0 0 0 0 0 0 0 0 0 0 0.16 0"/>
<feBlend mode="normal" in2="BackgroundImageFix" result="effect1_dropShadow_2306_1864"/>
<feBlend mode="normal" in="SourceGraphic" in2="effect1_dropShadow_2306_1864" result="shape"/>
</filter>
<linearGradient id="paint0_linear_2306_1864" x1="5.875" y1="10" x2="6.11391" y2="11.971" gradientUnits="userSpaceOnUse">
<stop stop-color="#FF9B55"/>
<stop offset="1" stop-color="#DA4F23"/>
</linearGradient>
<linearGradient id="paint1_linear_2306_1864" x1="10" y1="5.875" x2="11.971" y2="6.11391" gradientUnits="userSpaceOnUse">
<stop stop-color="#FF9B55"/>
<stop offset="1" stop-color="#DA4F23"/>
</linearGradient>
</defs>
</svg>
