<svg width="17" height="18" viewBox="0 0 17 18" fill="none" xmlns="http://www.w3.org/2000/svg">
<path d="M13.9971 3.53932L14.0109 3.55705L14.0266 3.57303C15.4514 5.02002 16.25 6.96928 16.25 9C16.25 11.0307 15.4514 12.98 14.0266 14.427L14.0109 14.443L13.9971 14.4607C13.9866 14.4743 13.9744 14.4865 13.9608 14.497L13.943 14.5108L13.927 14.5265C12.48 15.9514 10.5307 16.75 8.5 16.75C6.46926 16.75 4.51998 15.9514 3.07299 14.5265L3.05698 14.5108L3.0392 14.497C3.0256 14.4865 3.01339 14.4743 3.00287 14.4607L2.98914 14.443L2.9734 14.427C1.5486 12.98 0.75 11.0307 0.75 9C0.75 6.96928 1.5486 5.02002 2.9734 3.57303L2.98914 3.55705L3.00286 3.53931C3.01339 3.52569 3.02562 3.51346 3.03924 3.50293L3.05698 3.48921L3.07295 3.47348C4.51994 2.04863 6.46924 1.25 8.5 1.25C10.5308 1.25 12.48 2.04863 13.927 3.47348L13.943 3.48921L13.9608 3.50293C13.9744 3.51347 13.9866 3.52569 13.9971 3.53932ZM3.91252 9.5783L3.87131 9.25H3.54043H1.65372H1.24318L1.28026 9.65886C1.41294 11.1222 1.98898 12.5102 2.93142 13.6375L3.19439 13.952L3.48429 13.6621L4.81779 12.3286L5.05211 12.0943L4.8484 11.8329C4.33905 11.1794 4.01569 10.4004 3.91252 9.5783ZM4.8484 6.16708L5.05211 5.90571L4.81779 5.67138L3.48429 4.3379L3.21912 4.60307L2.93142 4.36254C1.98898 5.4898 1.41294 6.87781 1.28026 8.34114L1.24318 8.75H1.65372H3.54043H3.87131L3.91252 8.4217C4.01569 7.59958 4.33905 6.8206 4.8484 6.16708ZM13.0875 8.4217L13.1287 8.75H13.4596H15.3463V8.375L15.7197 8.34114C15.5871 6.87781 15.011 5.4898 14.0686 4.36254L13.8056 4.048L13.5157 4.3379L12.1822 5.67138L11.9479 5.90571L12.1516 6.16708C12.6609 6.8206 12.9843 7.59958 13.0875 8.4217ZM11.3329 5.34838L11.5943 5.55209L11.8286 5.31778L13.1621 3.98429L13.452 3.69439L13.1375 3.43143C12.0102 2.48898 10.6222 1.91293 9.15886 1.78024L8.75 1.74316V2.15371V4.04046V4.37134L9.07831 4.41254C9.90042 4.5157 10.6794 4.83904 11.3329 5.34838ZM7.92169 4.41254L8.25 4.37134V4.04046V2.15371V1.74316L7.84113 1.78024C6.3778 1.91293 4.9898 2.48898 3.86253 3.43143L3.548 3.69439L3.8379 3.98429L5.17141 5.31778L5.40573 5.55209L5.6671 5.34838C6.32061 4.83904 7.09958 4.5157 7.92169 4.41254ZM5.6671 12.6516L5.40573 12.4479L5.17141 12.6822L3.8379 14.0157L3.548 14.3056L3.86253 14.5686C4.9898 15.511 6.3778 16.0871 7.84113 16.2198L8.25 16.2568V15.8463V13.9595V13.6287L7.92169 13.5875C7.09958 13.4843 6.32061 13.161 5.6671 12.6516ZM9.07831 13.5875L8.75 13.6287V13.9595V15.8463V16.2568L9.15886 16.2198C10.6222 16.0871 12.0102 15.511 13.1375 14.5686L13.452 14.3056L13.1621 14.0157L11.8286 12.6822L11.5943 12.4479L11.3329 12.6516C10.6794 13.161 9.90042 13.4843 9.07831 13.5875ZM12.1516 11.8329L11.9479 12.0943L12.1822 12.3286L13.5157 13.6621L13.8056 13.952L14.0686 13.6375C15.011 12.5102 15.5871 11.1222 15.7197 9.65886L15.7568 9.25H15.3463H13.4596H13.1287L13.0875 9.5783C12.9843 10.4004 12.6609 11.1794 12.1516 11.8329Z" fill="url(#paint0_linear_2222_2003)" stroke="url(#paint1_linear_2222_2003)" stroke-width="0.75"/>
<defs>
<linearGradient id="paint0_linear_2222_2003" x1="0.375" y1="0.875" x2="16.625" y2="17.125" gradientUnits="userSpaceOnUse">
<stop stop-color="#FF9B55"/>
<stop offset="1" stop-color="#DA4F23"/>
</linearGradient>
<linearGradient id="paint1_linear_2222_2003" x1="0.375" y1="0.875" x2="16.625" y2="17.125" gradientUnits="userSpaceOnUse">
<stop stop-color="#FF9B55"/>
<stop offset="1" stop-color="#DA4F23"/>
</linearGradient>
</defs>
</svg>
