<svg width="32" height="20" viewBox="0 0 32 20" fill="none" xmlns="http://www.w3.org/2000/svg">
<g clip-path="url(#clip0_2131_1883)">
<path d="M22.2081 3.55423L22.231 3.58379L22.2572 3.61042C23.9347 5.31407 24.875 7.60908 24.875 10C24.875 12.3909 23.9347 14.6859 22.2572 16.3896L22.231 16.4162L22.2081 16.4458C22.2046 16.4504 22.2005 16.4545 22.1959 16.458L22.1663 16.4809L22.1396 16.5072C20.436 18.1847 18.1409 19.125 15.75 19.125C13.3591 19.125 11.064 18.1847 9.36038 16.5072L9.33369 16.4809L9.30406 16.458C9.2995 16.4545 9.29541 16.4504 9.29188 16.4458L9.26901 16.4162L9.24278 16.3896C7.56526 14.6859 6.625 12.3909 6.625 10C6.625 7.60908 7.56526 5.31407 9.24278 3.61042L9.269 3.58379L9.29187 3.55422C9.29542 3.54963 9.29954 3.5455 9.30414 3.54195L9.3337 3.51909L9.36033 3.49287C11.064 1.81529 13.359 0.875 15.75 0.875C18.141 0.875 20.436 1.81529 22.1397 3.49287L22.1663 3.51909L22.1959 3.54196C22.2005 3.54551 22.2046 3.54963 22.2081 3.55423ZM10.4187 10.6722L10.35 10.125H9.79852H7.53447H6.85024L6.91202 10.8064C7.07446 12.5979 7.77967 14.2972 8.93345 15.6772L9.37172 16.2014L9.85489 15.7183L11.4551 14.1181L11.8456 13.7276L11.5061 13.2919C10.9143 12.5326 10.5385 11.6274 10.4187 10.6722ZM11.5061 6.70807L11.8456 6.27245L11.4551 5.88192L9.85489 4.28173L9.41295 4.72368L8.93345 4.3228C7.77967 5.70284 7.07446 7.40209 6.91202 9.19356L6.85024 9.875H7.53447H9.79852H10.35L10.4187 9.32783C10.5385 8.37257 10.9143 7.46743 11.5061 6.70807ZM21.0813 9.32783L21.15 9.875H21.7015H23.9655V9.25L24.588 9.19356C24.4255 7.40209 23.7203 5.70284 22.5665 4.3228L22.1283 3.79858L21.6451 4.28173L20.0449 5.88192L19.6544 6.27245L19.9939 6.70807C20.5857 7.46743 20.9615 8.37257 21.0813 9.32783ZM19.0419 5.75609L19.4775 6.09561L19.8681 5.70508L21.4683 4.1049L21.9514 3.62173L21.4272 3.18345C20.0472 2.02967 18.3479 1.32445 16.5564 1.162L15.875 1.10021V1.78445V4.04855V4.60002L16.4222 4.66868C17.3774 4.78855 18.2826 5.16426 19.0419 5.75609ZM15.0778 4.66868L15.625 4.60002V4.04855V1.78445V1.10021L14.9436 1.162C13.1521 1.32445 11.4528 2.02967 10.0728 3.18345L9.54857 3.62173L10.0317 4.1049L11.6319 5.70508L12.0225 6.09561L12.4581 5.75609C13.2174 5.16426 14.1226 4.78855 15.0778 4.66868ZM12.4581 14.2439L12.0225 13.9044L11.6319 14.2949L10.0317 15.8951L9.54857 16.3783L10.0728 16.8166C11.4528 17.9703 13.1521 18.6756 14.9436 18.838L15.625 18.8998V18.2156V15.9515V15.4L15.0778 15.3313C14.1226 15.2115 13.2174 14.8357 12.4581 14.2439ZM16.4222 15.3313L15.875 15.4V15.9515V18.2156V18.8998L16.5564 18.838C18.3479 18.6756 20.0472 17.9703 21.4272 16.8166L21.9514 16.3783L21.4683 15.8951L19.8681 14.2949L19.4775 13.9044L19.0419 14.2439C18.2826 14.8357 17.3774 15.2115 16.4222 15.3313ZM19.9939 13.2919L19.6544 13.7276L20.0449 14.1181L21.6451 15.7183L22.1283 16.2014L22.5665 15.6772C23.7203 14.2972 24.4255 12.5979 24.588 10.8064L24.6498 10.125H23.9655H21.7015H21.15L21.0813 10.6722C20.9615 11.6274 20.5857 12.5326 19.9939 13.2919Z" fill="white" stroke="white" stroke-width="1.25"/>
<path d="M13.25 10H18.75" stroke="url(#paint0_linear_2131_1883)" stroke-width="1.25" stroke-linecap="round" stroke-linejoin="round"/>
<path d="M16 7.25V12.75" stroke="url(#paint1_linear_2131_1883)" stroke-width="1.25" stroke-linecap="round" stroke-linejoin="round"/>
</g>
<defs>
<linearGradient id="paint0_linear_2131_1883" x1="13.25" y1="10" x2="13.602" y2="11.936" gradientUnits="userSpaceOnUse">
<stop stop-color="#FF9B55"/>
<stop offset="1" stop-color="#DA4F23"/>
</linearGradient>
<linearGradient id="paint1_linear_2131_1883" x1="16" y1="7.25" x2="17.936" y2="7.602" gradientUnits="userSpaceOnUse">
<stop stop-color="#FF9B55"/>
<stop offset="1" stop-color="#DA4F23"/>
</linearGradient>
<clipPath id="clip0_2131_1883">
<rect width="31.5" height="19.5" fill="white" transform="translate(0 0.25)"/>
</clipPath>
</defs>
</svg>
