<svg width="24" height="25" viewBox="0 0 24 25" fill="none" xmlns="http://www.w3.org/2000/svg">
<path d="M12 16.8752C14.4853 16.8752 16.5 14.8605 16.5 12.3752C16.5 9.8899 14.4853 7.87518 12 7.87518C9.51472 7.87518 7.5 9.8899 7.5 12.3752C7.5 14.8605 9.51472 16.8752 12 16.8752Z" stroke="white" stroke-width="1.5" stroke-linecap="round" stroke-linejoin="round"/>
<path d="M18.5069 7.936C18.7287 8.2617 18.9258 8.6036 19.0963 8.95881L21.5288 10.3091C21.8251 11.6699 21.8261 13.0784 21.5318 14.4395L19.098 15.7906C18.9268 16.1456 18.7293 16.4871 18.5069 16.8125L18.5537 19.5942C17.5234 20.5312 16.3042 21.2363 14.9782 21.662L12.5912 20.2298C12.1983 20.2591 11.8037 20.2587 11.4107 20.2289L9.02508 21.6603C7.6985 21.2365 6.47822 20.5331 5.44655 19.5977L5.4934 16.8144C5.27158 16.4887 5.07454 16.1468 4.90396 15.7916L2.4715 14.4413C2.17522 13.0805 2.17421 11.672 2.46852 10.3108L4.90233 8.95978C5.07348 8.60483 5.27105 8.26324 5.49339 7.9379L5.44657 5.15617C6.47688 4.2192 7.69614 3.51409 9.02211 3.08838L11.4091 4.52059C11.802 4.49133 12.1967 4.49165 12.5896 4.52152L14.9752 3.0901C16.3018 3.5139 17.5221 4.21725 18.5538 5.15272L18.5069 7.936Z" stroke="white" stroke-width="1.5" stroke-linecap="round" stroke-linejoin="round"/>
</svg>
