<svg width="24" height="16" viewBox="0 0 24 16" fill="none" xmlns="http://www.w3.org/2000/svg">
<rect x="0.75" y="0.75" width="22.5" height="14.5" rx="7.25" stroke="white" stroke-width="1.5"/>
<rect x="6" y="5" width="12" height="6" rx="3" stroke="white" stroke-width="1.5"/>
<circle cx="12" cy="3" r="1" fill="white"/>
<circle cx="1" cy="1" r="1" transform="matrix(1 0 0 -1 11 14)" fill="white"/>
<circle cx="7" cy="3" r="1" fill="white"/>
<circle cx="1" cy="1" r="1" transform="matrix(1 0 0 -1 6 14)" fill="white"/>
<circle cx="4" cy="6" r="1" fill="white"/>
<circle cx="1" cy="1" r="1" transform="matrix(1 0 0 -1 3 11)" fill="white"/>
<circle cx="17" cy="3" r="1" fill="white"/>
<circle cx="1" cy="1" r="1" transform="matrix(1 0 0 -1 16 14)" fill="white"/>
<circle cx="20" cy="6" r="1" fill="white"/>
<circle cx="1" cy="1" r="1" transform="matrix(1 0 0 -1 19 11)" fill="white"/>
</svg>
