<svg width="24" height="25" viewBox="0 0 24 25" fill="none" xmlns="http://www.w3.org/2000/svg">
<path d="M22.6911 12.9887C19.855 13.0081 17.0183 12.9969 14.1817 12.9975C13.3774 12.9975 12.9975 13.376 12.9975 14.1763C12.9975 17.0421 12.9975 19.9079 12.9975 22.7737C12.9975 23.6168 13.3686 23.9924 14.2039 23.9924C17.0312 23.9924 19.858 23.9818 22.6847 24.0006C23.3286 24.0047 23.7781 23.8017 24 23.1791V13.8143C23.7828 13.1917 23.3368 12.9846 22.6911 12.9887ZM21.9776 21.9792H15.0146V15.0119H21.9805L21.9776 21.9792Z" fill="white"/>
<path d="M9.82712 12.9975C6.98868 12.9975 4.14907 13.0081 1.31063 12.9887C0.666732 12.9846 0.216585 13.1894 0 13.8143V23.1803C0.221854 23.8028 0.674927 24.0047 1.31707 24.0018C4.15551 23.983 6.99512 23.9941 9.83356 23.9935C10.6103 23.9935 11.0043 23.5998 11.0043 22.8229C11.0043 19.9349 11.0043 17.047 11.0043 14.1593C11.0049 13.3801 10.615 12.9975 9.82712 12.9975ZM8.98185 21.9715H2.02712V15.0101H8.98185V21.9715Z" fill="white"/>
<path d="M10.1854 0H0.819512C0.627517 0.0616026 0.45298 0.168289 0.310433 0.311177C0.167887 0.454065 0.0614554 0.62902 0 0.821476V10.1851C0.218341 10.8077 0.664975 11.0131 1.31005 11.0131C4.14673 10.9937 6.98341 11.0048 9.8201 11.0043C10.6197 11.0043 11.0025 10.6211 11.0025 9.82133C11.0025 6.98489 10.992 4.14787 11.0113 1.31319C11.0154 0.664222 10.8094 0.216518 10.1854 0ZM8.98537 8.98812H2.02302V2.02083H8.98537V8.98812Z" fill="white"/>
<path d="M23.1805 0H13.8146C13.2047 0.211237 12.9852 0.641925 12.9893 1.27974C13.0074 4.12616 12.9969 6.9714 12.9975 9.81957C12.9975 10.6205 13.3786 11.0025 14.1793 11.0025C17.0166 11.0025 19.8533 10.9919 22.6906 11.0113C23.3345 11.0154 23.7817 10.8071 24 10.1851V0.819715C23.9379 0.627814 23.8312 0.453438 23.6887 0.310931C23.5463 0.168424 23.3721 0.0618588 23.1805 0V0ZM21.9805 8.98636H15.0106V2.03198H21.9805V8.98636Z" fill="white"/>
</svg>
